<?xml version="1.0" encoding="UTF-8"?> <svg xmlns="http://www.w3.org/2000/svg" width="49" height="49" viewBox="0 0 49 49" fill="none"><path d="M39.8125 7.65625H9.1875C8.34181 7.65625 7.65625 8.34181 7.65625 9.1875V39.8125C7.65625 40.6582 8.34181 41.3438 9.1875 41.3438H39.8125C40.6582 41.3438 41.3438 40.6582 41.3438 39.8125V9.1875C41.3438 8.34181 40.6582 7.65625 39.8125 7.65625Z" stroke="black" stroke-width="2" stroke-linecap="round" stroke-linejoin="round"></path><path d="M33.6875 4.59375V10.7188" stroke="black" stroke-width="2" stroke-linecap="round" stroke-linejoin="round"></path><path d="M15.3125 4.59375V10.7188" stroke="black" stroke-width="2" stroke-linecap="round" stroke-linejoin="round"></path><path d="M7.65625 16.8438H41.3438" stroke="black" stroke-width="2" stroke-linecap="round" stroke-linejoin="round"></path><path d="M17.6094 24.5H22.9688L19.9063 28.3281C20.4103 28.3273 20.9067 28.4508 21.3515 28.6878C21.7963 28.9248 22.1758 29.2679 22.4562 29.6867C22.7366 30.1055 22.9093 30.587 22.9591 31.0886C23.0088 31.5901 22.9339 32.0962 22.7412 32.5619C22.5484 33.0276 22.2437 33.4385 21.8541 33.7582C21.4644 34.0779 21.0019 34.2965 20.5075 34.3946C20.0131 34.4927 19.5022 34.4672 19.02 34.3205C18.5378 34.1738 18.0993 33.9103 17.7434 33.5535" stroke="black" stroke-width="2" stroke-linecap="round" stroke-linejoin="round"></path><path d="M27.5625 26.7969L30.625 24.5V34.4531" stroke="black" stroke-width="2" stroke-linecap="round" stroke-linejoin="round"></path></svg> 