<svg width="58" height="58" viewBox="0 0 58 58" fill="none" xmlns="http://www.w3.org/2000/svg">
<rect width="58" height="58" rx="5" fill="black"/>
<path d="M35.7254 17.9475L36.0789 17.594L38.2158 15.4571C38.7193 14.9536 39.5349 14.9523 40.0382 15.4564L35.7254 17.9475ZM35.7254 17.9475L36.0789 18.3011M35.7254 17.9475L36.0789 18.3011M36.0789 18.3011L39.699 21.9211L40.0526 22.2747M36.0789 18.3011L40.0526 22.2747M40.0526 22.2747L40.4061 21.9211M40.0526 22.2747L40.4061 21.9211M40.4061 21.9211L42.543 19.7843M40.4061 21.9211L42.543 19.7843M42.543 19.7843C43.0467 19.2805 43.0475 18.4649 42.543 17.9611V19.7843ZM22.332 39.2881L22.6856 39.6417L23.0391 39.2881L39.2897 23.0375L39.6433 22.684L39.2897 22.3304L35.6697 18.7104L35.3161 18.3568L34.9626 18.7104L18.7119 34.961L18.3584 35.3145L18.7119 35.6681L22.332 39.2881ZM28.565 35.288L28.2114 34.9344L27.8579 35.288L22.9261 40.2197L22.7459 40.3386L14.8989 43.4773C14.6627 43.5718 14.4283 43.3374 14.5228 43.1011L17.6615 35.2542L17.7804 35.074L22.7121 30.1422L23.0657 29.7887L22.7121 29.4351L14.5868 21.3098C14.4738 21.1968 14.4738 21.0135 14.5868 20.9005L20.9021 14.5853C21.0151 14.4722 21.1984 14.4722 21.3114 14.5853L29.4367 22.7106L29.7902 23.0641L30.1438 22.7106L37.8065 15.0478C38.5372 14.3171 39.7201 14.3178 40.4478 15.0474L40.4482 15.0478L42.9515 17.5511L42.952 17.5516C43.6824 18.2801 43.6829 19.463 42.9522 20.1936L35.2895 27.8563L34.936 28.2098L35.2895 28.5634L43.4148 36.6887C43.5279 36.8017 43.5279 36.985 43.4148 37.098L37.0996 43.4133C36.9865 43.5263 36.8033 43.5263 36.6903 43.4133L28.565 35.288ZM28.9743 34.1716L28.6207 34.5251L28.9743 34.8787L36.5414 42.4458L36.8949 42.7993L37.2485 42.4458L42.4474 37.2469L42.8009 36.8934L42.4474 36.5398L40.4061 34.4986L40.0526 34.145L39.699 34.4986L38.6784 35.5192C38.5883 35.6093 38.5164 35.6206 38.4682 35.6178C38.4078 35.6142 38.3333 35.5834 38.2691 35.5192C38.2049 35.455 38.174 35.3805 38.1705 35.3201C38.1676 35.2719 38.179 35.2 38.2691 35.1099L39.2897 34.0893L39.6433 33.7357L39.2897 33.3822L37.2485 31.3409L36.8949 30.9874L36.5414 31.3409L33.9419 33.9404C33.8518 34.0305 33.7799 34.0418 33.7318 34.039C33.6713 34.0354 33.5969 34.0046 33.5326 33.9404C33.4684 33.8761 33.4376 33.8017 33.434 33.7412C33.4312 33.6931 33.4425 33.6212 33.5326 33.5311L36.1321 30.9316L36.4856 30.5781L36.1321 30.2245L34.8802 28.9727L34.5267 28.6191L34.1731 28.9727L28.9743 34.1716ZM23.1214 29.0258L23.475 29.3794L23.8285 29.0258L29.0274 23.8269L29.381 23.4734L29.0274 23.1198L27.7756 21.868L27.422 21.5145L27.0685 21.868L26.0478 22.8886C25.9577 22.9788 25.8858 22.9901 25.8377 22.9873C25.7772 22.9837 25.7028 22.9528 25.6385 22.8886C25.5743 22.8244 25.5435 22.7499 25.5399 22.6895C25.5371 22.6414 25.5484 22.5695 25.6385 22.4793L26.6592 21.4587L27.0127 21.1052L26.6592 20.7516L24.6179 18.7104L24.2644 18.3568L23.9108 18.7104L21.3114 21.3098C21.2213 21.3999 21.1494 21.4113 21.1012 21.4084C21.0408 21.4049 20.9663 21.374 20.9021 21.3098C20.8379 21.2456 20.807 21.1711 20.8035 21.1107C20.8006 21.0625 20.812 20.9907 20.9021 20.9005L23.5015 18.3011L23.8551 17.9475L23.5015 17.594L21.4603 15.5527L21.1067 15.1992L20.7532 15.5527L15.5543 20.7516L15.2007 21.1052L15.5543 21.4587L23.1214 29.0258ZM22.1706 39.9453L21.6344 39.4091L18.591 36.3657L18.0548 35.8295L17.7732 36.5336L15.7443 41.6059L15.311 42.6891L16.3942 42.2558L21.4665 40.2269L22.1706 39.9453ZM42.5425 17.9607L40.0387 15.4569L42.5425 17.9607Z" fill="white" stroke="white"/>
</svg>
