<svg xmlns="http://www.w3.org/2000/svg" width="15.81" height="14.987" viewBox="0 0 15.81 14.987">
  <path id="IN" d="M.595,14.988H3.983V4.875H.595ZM2.311,0a1.754,1.754,0,1,0-.045,3.5h.023A1.754,1.754,0,1,0,2.311,0ZM16.2,9.189v5.8H12.814V9.577c0-1.359-.491-2.286-1.717-2.286A1.853,1.853,0,0,0,9.359,8.52a2.3,2.3,0,0,0-.112.82v5.647H5.856s.046-9.162,0-10.112h3.39V6.309c-.007.011-.016.023-.023.032h.023V6.308A3.369,3.369,0,0,1,12.3,4.636C14.53,4.637,16.2,6.083,16.2,9.189Z" transform="translate(-0.393)"/>
</svg>
