<svg width="15" height="12" viewBox="0 0 15 12" fill="none" xmlns="http://www.w3.org/2000/svg">
<path d="M1 5.02832C0.585786 5.02832 0.25 5.36411 0.25 5.77832C0.25 6.19253 0.585786 6.52832 1 6.52832L1 5.02832ZM14.5303 6.30865C14.8232 6.01576 14.8232 5.54088 14.5303 5.24799L9.75736 0.47502C9.46446 0.182127 8.98959 0.182127 8.6967 0.47502C8.4038 0.767914 8.4038 1.24279 8.6967 1.53568L12.9393 5.77832L8.6967 10.021C8.4038 10.3139 8.4038 10.7887 8.6967 11.0816C8.98959 11.3745 9.46446 11.3745 9.75736 11.0816L14.5303 6.30865ZM1 5.77832L1 6.52832L14 6.52832L14 5.77832L14 5.02832L1 5.02832L1 5.77832Z" fill="white"/>
</svg>
