<svg id="Group_1634" data-name="Group 1634" xmlns="http://www.w3.org/2000/svg" width="48" height="48.001" viewBox="0 0 48 48.001">
  <path id="Path_2956" data-name="Path 2956" d="M83.225,41.521a24,24,0,1,1,24-24h0A24.028,24.028,0,0,1,83.225,41.521Zm0-45.837a21.837,21.837,0,1,0,21.836,21.837h0A21.862,21.862,0,0,0,83.225-4.316Z" transform="translate(-59.225 6.48)" fill="#fff"/>
  <path id="Path_2957" data-name="Path 2957" d="M77.285,25.484A1.089,1.089,0,0,1,76.2,24.4h0V8.5a1.089,1.089,0,0,1,1.634-.943L91.6,15.5a1.09,1.09,0,0,1,0,1.888L77.83,25.338A1.088,1.088,0,0,1,77.285,25.484Z" transform="translate(-57.898 7.555)" fill="#fff"/>
</svg>
