<svg xmlns="http://www.w3.org/2000/svg" width="12.996" height="16" viewBox="0 0 12.996 16">
  <path id="PIN" d="M2.355,9.255C3.162,7.886,2.1,7.588,1.929,6.6,1.245,2.545,6.806-.22,9.721,2.61c2.015,1.959.687,7.986-2.562,7.358-3.112-.6,1.524-5.4-.959-6.336-2.02-.765-3.092,2.341-2.134,3.884C3.5,10.171,2.295,12.671,2.783,16c1.588-1.1,2.124-3.216,2.562-5.419a4.642,4.642,0,0,0,2.242,1.023c3.752.278,5.847-3.587,5.333-7.155C12.465,1.287,9.175-.323,5.664.055,2.888.353.121,2.5.006,5.575-.065,7.451.491,8.858,2.355,9.255Z" transform="translate(0 -0.001)"/>
</svg>
