<svg width="106" height="31" viewBox="0 0 106 31" fill="none" xmlns="http://www.w3.org/2000/svg">
<g clip-path="url(#clip0_25472_620)">
<path d="M11.48 4.974V13.449H3.694V4.974H0V25.205H3.695V17.005H11.479V25.205H15.175V4.974H11.48ZM27.002 18.666C27.002 19.4769 26.6799 20.2546 26.1065 20.828C25.5331 21.4014 24.7554 21.7235 23.9445 21.7235C23.1336 21.7235 22.3559 21.4014 21.7825 20.828C21.2091 20.2546 20.887 19.4769 20.887 18.666V10H17.382V18.666C17.382 20.4048 18.0727 22.0723 19.3022 23.3018C20.5317 24.5313 22.1992 25.222 23.938 25.222C25.6768 25.222 27.3443 24.5313 28.5738 23.3018C29.8033 22.0723 30.494 20.4048 30.494 18.666V10H27.002V18.666ZM52.973 10.893C52.973 9.116 54.148 8.553 55.435 8.553C56.473 8.553 57.843 9.343 58.74 10.301L61.035 7.595C59.889 6.045 57.565 4.974 55.662 4.974C51.859 4.974 49.109 7.201 49.109 10.893C49.109 17.743 57.481 15.569 57.481 19.403C57.481 20.585 56.333 21.629 55.019 21.629C52.946 21.629 52.274 20.616 51.322 19.544L48.774 22.193C50.404 24.193 52.414 25.209 54.821 25.209C58.434 25.209 61.34 22.955 61.34 19.431C61.34 11.827 52.967 14.19 52.967 10.893M104.767 21.973C102.696 21.973 102.107 21.077 102.107 19.705V13.63H105.327V10.552H102.107V6.491L98.553 8.086V20.46C98.553 23.625 100.737 25.22 103.731 25.22C104.201 25.228 104.671 25.19 105.133 25.108L106 21.916C105.609 21.943 105.16 21.97 104.767 21.97M40.344 10.101C38.608 10.101 37.396 10.605 36.224 11.754V5.095H32.714V17.438C32.714 22.058 36.054 25.224 39.808 25.224C43.972 25.224 47.635 22.002 47.635 17.664C47.635 13.38 44.264 10.104 40.344 10.104M40.322 21.691C39.7989 21.691 39.2809 21.588 38.7976 21.3878C38.3143 21.1876 37.8751 20.8942 37.5052 20.5243C37.1353 20.1544 36.8419 19.7152 36.6417 19.2319C36.4415 18.7486 36.3385 18.2306 36.3385 17.7075C36.3385 17.1844 36.4415 16.6664 36.6417 16.1831C36.8419 15.6998 37.1353 15.2606 37.5052 14.8907C37.8751 14.5208 38.3143 14.2274 38.7976 14.0272C39.2809 13.827 39.7989 13.724 40.322 13.724C41.3785 13.724 42.3917 14.1437 43.1388 14.8907C43.8858 15.6378 44.3055 16.651 44.3055 17.7075C44.3055 18.764 43.8858 19.7772 43.1388 20.5243C42.3917 21.2713 41.3785 21.691 40.322 21.691ZM78.464 17.48C78.464 13.134 74.809 9.92 70.637 9.92C66.884 9.92 63.543 13.085 63.543 17.706V30.056H67.053V23.388C68.223 24.535 69.437 25.041 71.171 25.041C75.091 25.041 78.464 21.765 78.464 17.48ZM75.14 17.436C75.14 18.4925 74.7203 19.5057 73.9733 20.2528C73.2262 20.9998 72.213 21.4195 71.1565 21.4195C70.1 21.4195 69.0868 20.9998 68.3397 20.2528C67.5927 19.5057 67.173 18.4925 67.173 17.436C67.173 16.3795 67.5927 15.3663 68.3397 14.6192C69.0868 13.8722 70.1 13.4525 71.1565 13.4525C72.213 13.4525 73.2262 13.8722 73.9733 14.6192C74.7203 15.3663 75.14 16.3795 75.14 17.436Z" fill="white"/>
<path d="M89.806 9.74998V6.22298C90.2721 6.00515 90.6667 5.65943 90.9439 5.22604C91.2212 4.79266 91.3696 4.28945 91.372 3.77498V3.69398C91.372 2.19398 90.156 0.977985 88.656 0.977985H88.575C87.8547 0.977985 87.1638 1.26413 86.6545 1.77348C86.1451 2.28283 85.859 2.97366 85.859 3.69398V3.77498C85.8614 4.28945 86.0098 4.79266 86.287 5.22604C86.5643 5.65943 86.9589 6.00515 87.425 6.22298V9.74998C86.0854 9.95509 84.8238 10.5105 83.768 11.36L74.095 3.82598C74.164 3.57698 74.2 3.32098 74.204 3.06398C74.2052 2.45869 74.0268 1.86664 73.6915 1.36273C73.3561 0.858809 72.8789 0.465666 72.3201 0.233025C71.7613 0.00038375 71.146 -0.0613041 70.5522 0.0557644C69.9583 0.172833 69.4125 0.463398 68.9838 0.890707C68.5551 1.31802 68.2627 1.86287 68.1437 2.45635C68.0247 3.04983 68.0844 3.66528 68.3152 4.22484C68.546 4.7844 68.9376 5.26293 69.4404 5.59992C69.9432 5.9369 70.5347 6.11719 71.14 6.11798C71.6695 6.11549 72.1892 5.97412 72.647 5.70798L82.172 13.12C81.3163 14.4127 80.8699 15.9331 80.891 17.4832C80.912 19.0333 81.3995 20.541 82.29 21.81L79.393 24.708C79.1588 24.6331 78.9148 24.5933 78.669 24.59C78.1721 24.5904 77.6865 24.7381 77.2736 25.0143C76.8606 25.2906 76.5388 25.6831 76.3489 26.1422C76.1589 26.6013 76.1093 27.1064 76.2064 27.5937C76.3034 28.081 76.5427 28.5286 76.894 28.8799C77.2454 29.2313 77.6929 29.4706 78.1802 29.5676C78.6675 29.6646 79.1726 29.615 79.6317 29.4251C80.0909 29.2351 80.4833 28.9133 80.7596 28.5004C81.0359 28.0874 81.1836 27.6018 81.184 27.105C81.1808 26.8591 81.141 26.6151 81.066 26.381L83.932 23.514C84.8666 24.2335 85.9534 24.7295 87.1093 24.9641C88.2652 25.1987 89.4595 25.1656 90.6006 24.8673C91.7417 24.569 92.7995 24.0135 93.6927 23.2433C94.586 22.4731 95.2911 21.5086 95.7541 20.4238C96.217 19.339 96.4255 18.1626 96.3636 16.9848C96.3017 15.807 95.971 14.6589 95.3969 13.6286C94.8227 12.5984 94.0204 11.7132 93.0513 11.0408C92.0822 10.3685 90.9721 9.92698 89.806 9.74998ZM88.618 21.35C88.0883 21.3646 87.5611 21.2728 87.0675 21.0802C86.5739 20.8876 86.1239 20.5979 85.7441 20.2285C85.3643 19.859 85.0624 19.4171 84.8563 18.929C84.6501 18.4408 84.5439 17.9164 84.5439 17.3865C84.5439 16.8566 84.6501 16.3321 84.8563 15.844C85.0624 15.3559 85.3643 14.914 85.7441 14.5445C86.1239 14.175 86.5739 13.8854 87.0675 13.6928C87.5611 13.5001 88.0883 13.4084 88.618 13.423C89.6446 13.4589 90.6171 13.8919 91.3308 14.6307C92.0445 15.3694 92.4437 16.3563 92.4442 17.3836C92.4447 18.4108 92.0466 19.3981 91.3336 20.1376C90.6207 20.8771 89.6485 21.311 88.622 21.348" fill="#FF7A59"/>
</g>
<defs>
<clipPath id="clip0_25472_620">
<rect width="106" height="31" fill="white"/>
</clipPath>
</defs>
</svg>
