<svg width="11" height="15" viewBox="0 0 11 15" fill="none" xmlns="http://www.w3.org/2000/svg">
<path fill-rule="evenodd" clip-rule="evenodd" d="M4.99263 14.1104C4.99263 14.1104 0 9.91556 0 5.78788C0 4.33261 0.579463 2.93695 1.61091 1.90792C2.64236 0.878885 4.04131 0.300781 5.5 0.300781C6.95869 0.300781 8.35764 0.878885 9.38909 1.90792C10.4205 2.93695 11 4.33261 11 5.78788C11 9.91556 6.00737 14.1104 6.00737 14.1104C5.72962 14.3656 5.27244 14.3629 4.99263 14.1104ZM5.5 8.18849C5.81599 8.18849 6.12889 8.1264 6.42083 8.00576C6.71277 7.88511 6.97803 7.70829 7.20148 7.48537C7.42492 7.26245 7.60216 6.99781 7.72309 6.70656C7.84401 6.4153 7.90625 6.10314 7.90625 5.78788C7.90625 5.47263 7.84401 5.16047 7.72309 4.86921C7.60216 4.57796 7.42492 4.31331 7.20148 4.0904C6.97803 3.86748 6.71277 3.69065 6.42083 3.57001C6.12889 3.44937 5.81599 3.38728 5.5 3.38728C4.86182 3.38728 4.24978 3.6402 3.79852 4.0904C3.34727 4.5406 3.09375 5.1512 3.09375 5.78788C3.09375 6.42456 3.34727 7.03517 3.79852 7.48537C4.24978 7.93557 4.86182 8.18849 5.5 8.18849Z" fill="black"/>
</svg>
