<svg width="22" height="22" viewBox="0 0 22 22" fill="none" xmlns="http://www.w3.org/2000/svg">
<path fill-rule="evenodd" clip-rule="evenodd" d="M18.9147 3.35927L18.0645 3.625C17.8076 3.70572 17.5334 3.56333 17.4529 3.30937C17.3715 3.0545 17.5151 2.78243 17.7711 2.70261C17.7711 2.70261 19.3837 2.19833 19.9862 2.01058C20.1096 1.97249 20.2412 2.04051 20.2797 2.16204C20.4698 2.75973 20.9772 4.35962 20.9772 4.35962C21.0586 4.61449 20.915 4.88656 20.6591 4.96639C20.4021 5.04711 20.1279 4.90471 20.0474 4.65076L19.7796 3.80728L14.0155 14.7861C13.9259 14.9566 13.743 15.0582 13.5501 15.0455C13.3572 15.0328 13.1899 14.9067 13.1241 14.7262L11.6723 10.7067L8.07399 17.5598C7.9844 17.7303 7.80154 17.8319 7.60865 17.8192C7.41575 17.8065 7.24844 17.6804 7.18263 17.5L5.73087 13.4804L1.91955 20.7399C1.79522 20.9766 1.50083 21.0682 1.26223 20.9457C1.02363 20.8224 0.931274 20.5303 1.0547 20.2936L5.38161 12.0529C5.4712 11.8824 5.65405 11.7809 5.84694 11.7936C6.03984 11.8062 6.20715 11.9323 6.27296 12.1128L7.72473 16.1324L11.3231 9.27923C11.4127 9.10872 11.5955 9.00713 11.7884 9.01983C11.9813 9.03253 12.1486 9.1586 12.2144 9.33909L13.6662 13.3587L18.9157 3.36105L18.9147 3.35927Z" fill="white" stroke="#FC766A"/>
</svg>
