<?xml version="1.0" encoding="utf-8"?>
<!-- Generator: Adobe Illustrator 17.0.0, SVG Export Plug-In . SVG Version: 6.00 Build 0)  -->
<!DOCTYPE svg PUBLIC "-//W3C//DTD SVG 1.1//EN" "http://www.w3.org/Graphics/SVG/1.1/DTD/svg11.dtd">
<svg version="1.1" id="Layer_1" xmlns="http://www.w3.org/2000/svg" xmlns:xlink="http://www.w3.org/1999/xlink" x="0px" y="0px"
	 width="34.011px" height="70.61px" viewBox="0 0 34.011 70.61" enable-background="new 0 0 34.011 70.61" xml:space="preserve">
<g id="Group_3479" transform="translate(-93.375 -317.614)">
	<path id="Path_5859" fill="#005463" stroke="#005463" stroke-width="0.5" stroke-miterlimit="10" d="M123.288,333.125
		c0.478,0.002,0.885-0.348,0.955-0.821c0.354-2.481-0.683-4.957-2.7-6.444c-0.172-0.131-0.383-0.202-0.6-0.2h-6.761v-7.792h-8.162
		v7.792h-7.161c-0.181,0-0.358,0.05-0.512,0.146c-0.577,0.362-2.459,1.891-2.466,6.359c0.002,0.533,0.434,0.964,0.967,0.964h1.067
		v5.649h-1c-0.507,0-0.918,0.412-0.917,0.919c0,0.266,0.116,0.519,0.317,0.693l9.275,8.028c0.122,0.106,0.27,0.177,0.429,0.207
		v39.315h8.162v-39.518l9.659-8.024c0.39-0.324,0.443-0.903,0.119-1.293c-0.174-0.21-0.433-0.331-0.705-0.331h-0.97v-5.649
		L123.288,333.125z M107.136,318.983h5.924v6.673h-5.924V318.983z M98.9,326.775h21.987c1.649,1.203,2.516,3.206,2.264,5.231H97
		C97.047,328.271,98.515,327.036,98.9,326.775z M110.654,338.775v-5.649h4.693v5.649H110.654z M109.535,333.126v5.649h-4.693v-5.649
		H109.535z M99.035,333.126h4.693v5.649h-4.694L99.035,333.126z M113.061,386.818h-5.924V348.9h5.924L113.061,386.818z
		 M113.489,347.541l-7.224-0.021l-8.81-7.626h25.24L113.489,347.541z M121.163,338.775h-4.693v-5.649h4.692L121.163,338.775z"/>
	<path id="Path_5860" fill="#005463" stroke="#005463" stroke-width="1.5" d="M93.379,387.364l23.268,0.11l10.732-0.11"/>
</g>
</svg>
