<svg width="58" height="58" viewBox="0 0 58 58" fill="none" xmlns="http://www.w3.org/2000/svg">
<rect width="58" height="58" rx="5" fill="black"/>
<mask id="path-2-outside-1_8216_7140" maskUnits="userSpaceOnUse" x="10" y="11" width="38" height="36" fill="black">
<rect fill="white" x="10" y="11" width="38" height="36"/>
<path d="M47 23.8094V23.6963V23.6587C47 23.621 46.9626 23.5833 46.9626 23.5456C46.9251 23.5079 46.9251 23.4702 46.8877 23.4326L46.8503 23.3949L46.8143 23.3601L38.8843 17.6629L38.8469 17.6252C38.8469 17.6252 38.8094 17.6252 38.8094 17.5876C38.8094 17.5876 38.772 17.5876 38.7346 17.5499H38.6971H38.6223H38.5848H38.51H38.4726H38.3977H38.3603C38.3603 17.5499 38.3228 17.5499 38.3228 17.5876C38.3228 17.5876 38.2854 17.5876 38.2854 17.6252L33.9662 20.5486L29.9076 17.6252L29.8702 17.5876C29.8702 17.5876 29.8327 17.5876 29.8327 17.5499H29.6888H29.6139H29.5016C29.5016 17.5499 29.4642 17.5499 29.4642 17.5876C29.4267 17.5876 29.4267 17.5876 29.4267 17.6252L25.1452 20.5486L21.0865 17.6252L21.0491 17.5876C21.0491 17.5876 21.0117 17.5876 21.0117 17.5499H20.8994H20.8245H20.7871H20.7122H20.6748H20.5999H20.5625C20.5251 17.5499 20.5251 17.5876 20.4876 17.5876L17.9192 19.3485L17.5146 13.1278C17.5146 12.9785 17.4398 12.8655 17.3663 12.7525C17.0683 12.2278 16.2117 12.0032 15.3191 12.0032C14.3876 11.9655 13.4202 12.2655 13.233 12.8655C13.197 12.9409 13.1595 13.0162 13.1595 13.1278L12.9724 22.647L11.2606 23.8093C11.1123 23.9224 11 24.0717 11 24.2586V39.7376V39.8507V39.8883C11 39.926 11 39.926 11.0374 39.9637C11.0374 39.9637 11.0374 40.0014 11.0749 40.0014C11.0749 40.0391 11.1123 40.0391 11.1123 40.0767C11.1123 40.0767 11.1123 40.1144 11.1497 40.1144L11.2246 40.1898L19.117 45.887C19.1544 45.887 19.1544 45.9246 19.1918 45.9246C19.2293 45.9246 19.2293 45.9623 19.2667 45.9623C19.3416 46 19.379 46 19.4524 46H19.4899L46.4439 44.126C46.742 44.0883 46.9651 43.8637 46.9651 43.5637L47 23.8094ZM38.5489 18.7875L45.4738 23.7719L38.0277 28.907V23.8098V23.6967V23.659C38.0277 23.6213 37.9903 23.5837 37.9903 23.546C37.9529 23.5083 37.9529 23.4706 37.9154 23.4329C37.9154 23.4329 37.878 23.4329 37.878 23.3952L37.842 23.3605L34.9007 21.2604L38.5489 18.7875ZM29.5394 18.7875L36.5019 23.7719L29.0558 28.907V23.8098V23.6967V23.659C29.0558 23.6213 29.0184 23.5837 29.0184 23.546C28.9809 23.5083 28.9809 23.4706 28.9435 23.4329C28.9435 23.4329 28.9061 23.4329 28.9061 23.3952L28.8701 23.3605L25.9662 21.2604L29.5394 18.7875ZM19.4887 29.3184L12.4889 24.334L20.5671 18.825L27.5296 23.8094L19.4887 29.3184ZM15.318 12.9787C15.7269 12.9787 16.0249 13.054 16.248 13.1279C16.0263 13.2033 15.7283 13.241 15.318 13.241C14.9091 13.241 14.6111 13.1656 14.388 13.1279C14.6111 13.0526 14.9092 12.9787 15.318 12.9787ZM14.2397 14.1396C14.5751 14.2149 14.9466 14.2526 15.3194 14.2526C15.6923 14.2526 16.1012 14.2149 16.4366 14.1033L16.7346 20.0253L14.0899 21.8602L14.2397 14.1396ZM12.1535 25.4589L18.9288 30.2938L18.9302 44.3466L12.1535 39.4753L12.1535 25.4589ZM45.8829 43.035L20.0459 44.8336L20.0474 30.2926L27.9398 24.8589V29.9939C27.9398 30.2186 28.0521 30.4056 28.2378 30.4809C28.4235 30.594 28.6467 30.5563 28.7964 30.4432L36.9106 24.8589V29.9939C36.9106 30.2186 37.0229 30.4055 37.2087 30.4809C37.3944 30.5939 37.6175 30.5562 37.7672 30.4432L45.883 24.8588L45.8829 43.035Z"/>
</mask>
<path d="M47 23.8094V23.6963V23.6587C47 23.621 46.9626 23.5833 46.9626 23.5456C46.9251 23.5079 46.9251 23.4702 46.8877 23.4326L46.8503 23.3949L46.8143 23.3601L38.8843 17.6629L38.8469 17.6252C38.8469 17.6252 38.8094 17.6252 38.8094 17.5876C38.8094 17.5876 38.772 17.5876 38.7346 17.5499H38.6971H38.6223H38.5848H38.51H38.4726H38.3977H38.3603C38.3603 17.5499 38.3228 17.5499 38.3228 17.5876C38.3228 17.5876 38.2854 17.5876 38.2854 17.6252L33.9662 20.5486L29.9076 17.6252L29.8702 17.5876C29.8702 17.5876 29.8327 17.5876 29.8327 17.5499H29.6888H29.6139H29.5016C29.5016 17.5499 29.4642 17.5499 29.4642 17.5876C29.4267 17.5876 29.4267 17.5876 29.4267 17.6252L25.1452 20.5486L21.0865 17.6252L21.0491 17.5876C21.0491 17.5876 21.0117 17.5876 21.0117 17.5499H20.8994H20.8245H20.7871H20.7122H20.6748H20.5999H20.5625C20.5251 17.5499 20.5251 17.5876 20.4876 17.5876L17.9192 19.3485L17.5146 13.1278C17.5146 12.9785 17.4398 12.8655 17.3663 12.7525C17.0683 12.2278 16.2117 12.0032 15.3191 12.0032C14.3876 11.9655 13.4202 12.2655 13.233 12.8655C13.197 12.9409 13.1595 13.0162 13.1595 13.1278L12.9724 22.647L11.2606 23.8093C11.1123 23.9224 11 24.0717 11 24.2586V39.7376V39.8507V39.8883C11 39.926 11 39.926 11.0374 39.9637C11.0374 39.9637 11.0374 40.0014 11.0749 40.0014C11.0749 40.0391 11.1123 40.0391 11.1123 40.0767C11.1123 40.0767 11.1123 40.1144 11.1497 40.1144L11.2246 40.1898L19.117 45.887C19.1544 45.887 19.1544 45.9246 19.1918 45.9246C19.2293 45.9246 19.2293 45.9623 19.2667 45.9623C19.3416 46 19.379 46 19.4524 46H19.4899L46.4439 44.126C46.742 44.0883 46.9651 43.8637 46.9651 43.5637L47 23.8094ZM38.5489 18.7875L45.4738 23.7719L38.0277 28.907V23.8098V23.6967V23.659C38.0277 23.6213 37.9903 23.5837 37.9903 23.546C37.9529 23.5083 37.9529 23.4706 37.9154 23.4329C37.9154 23.4329 37.878 23.4329 37.878 23.3952L37.842 23.3605L34.9007 21.2604L38.5489 18.7875ZM29.5394 18.7875L36.5019 23.7719L29.0558 28.907V23.8098V23.6967V23.659C29.0558 23.6213 29.0184 23.5837 29.0184 23.546C28.9809 23.5083 28.9809 23.4706 28.9435 23.4329C28.9435 23.4329 28.9061 23.4329 28.9061 23.3952L28.8701 23.3605L25.9662 21.2604L29.5394 18.7875ZM19.4887 29.3184L12.4889 24.334L20.5671 18.825L27.5296 23.8094L19.4887 29.3184ZM15.318 12.9787C15.7269 12.9787 16.0249 13.054 16.248 13.1279C16.0263 13.2033 15.7283 13.241 15.318 13.241C14.9091 13.241 14.6111 13.1656 14.388 13.1279C14.6111 13.0526 14.9092 12.9787 15.318 12.9787ZM14.2397 14.1396C14.5751 14.2149 14.9466 14.2526 15.3194 14.2526C15.6923 14.2526 16.1012 14.2149 16.4366 14.1033L16.7346 20.0253L14.0899 21.8602L14.2397 14.1396ZM12.1535 25.4589L18.9288 30.2938L18.9302 44.3466L12.1535 39.4753L12.1535 25.4589ZM45.8829 43.035L20.0459 44.8336L20.0474 30.2926L27.9398 24.8589V29.9939C27.9398 30.2186 28.0521 30.4056 28.2378 30.4809C28.4235 30.594 28.6467 30.5563 28.7964 30.4432L36.9106 24.8589V29.9939C36.9106 30.2186 37.0229 30.4055 37.2087 30.4809C37.3944 30.5939 37.6175 30.5562 37.7672 30.4432L45.883 24.8588L45.8829 43.035Z" fill="white"/>
<path d="M47 23.8094V23.6963V23.6587C47 23.621 46.9626 23.5833 46.9626 23.5456C46.9251 23.5079 46.9251 23.4702 46.8877 23.4326L46.8503 23.3949L46.8143 23.3601L38.8843 17.6629L38.8469 17.6252C38.8469 17.6252 38.8094 17.6252 38.8094 17.5876C38.8094 17.5876 38.772 17.5876 38.7346 17.5499H38.6971H38.6223H38.5848H38.51H38.4726H38.3977H38.3603C38.3603 17.5499 38.3228 17.5499 38.3228 17.5876C38.3228 17.5876 38.2854 17.5876 38.2854 17.6252L33.9662 20.5486L29.9076 17.6252L29.8702 17.5876C29.8702 17.5876 29.8327 17.5876 29.8327 17.5499H29.6888H29.6139H29.5016C29.5016 17.5499 29.4642 17.5499 29.4642 17.5876C29.4267 17.5876 29.4267 17.5876 29.4267 17.6252L25.1452 20.5486L21.0865 17.6252L21.0491 17.5876C21.0491 17.5876 21.0117 17.5876 21.0117 17.5499H20.8994H20.8245H20.7871H20.7122H20.6748H20.5999H20.5625C20.5251 17.5499 20.5251 17.5876 20.4876 17.5876L17.9192 19.3485L17.5146 13.1278C17.5146 12.9785 17.4398 12.8655 17.3663 12.7525C17.0683 12.2278 16.2117 12.0032 15.3191 12.0032C14.3876 11.9655 13.4202 12.2655 13.233 12.8655C13.197 12.9409 13.1595 13.0162 13.1595 13.1278L12.9724 22.647L11.2606 23.8093C11.1123 23.9224 11 24.0717 11 24.2586V39.7376V39.8507V39.8883C11 39.926 11 39.926 11.0374 39.9637C11.0374 39.9637 11.0374 40.0014 11.0749 40.0014C11.0749 40.0391 11.1123 40.0391 11.1123 40.0767C11.1123 40.0767 11.1123 40.1144 11.1497 40.1144L11.2246 40.1898L19.117 45.887C19.1544 45.887 19.1544 45.9246 19.1918 45.9246C19.2293 45.9246 19.2293 45.9623 19.2667 45.9623C19.3416 46 19.379 46 19.4524 46H19.4899L46.4439 44.126C46.742 44.0883 46.9651 43.8637 46.9651 43.5637L47 23.8094ZM38.5489 18.7875L45.4738 23.7719L38.0277 28.907V23.8098V23.6967V23.659C38.0277 23.6213 37.9903 23.5837 37.9903 23.546C37.9529 23.5083 37.9529 23.4706 37.9154 23.4329C37.9154 23.4329 37.878 23.4329 37.878 23.3952L37.842 23.3605L34.9007 21.2604L38.5489 18.7875ZM29.5394 18.7875L36.5019 23.7719L29.0558 28.907V23.8098V23.6967V23.659C29.0558 23.6213 29.0184 23.5837 29.0184 23.546C28.9809 23.5083 28.9809 23.4706 28.9435 23.4329C28.9435 23.4329 28.9061 23.4329 28.9061 23.3952L28.8701 23.3605L25.9662 21.2604L29.5394 18.7875ZM19.4887 29.3184L12.4889 24.334L20.5671 18.825L27.5296 23.8094L19.4887 29.3184ZM15.318 12.9787C15.7269 12.9787 16.0249 13.054 16.248 13.1279C16.0263 13.2033 15.7283 13.241 15.318 13.241C14.9091 13.241 14.6111 13.1656 14.388 13.1279C14.6111 13.0526 14.9092 12.9787 15.318 12.9787ZM14.2397 14.1396C14.5751 14.2149 14.9466 14.2526 15.3194 14.2526C15.6923 14.2526 16.1012 14.2149 16.4366 14.1033L16.7346 20.0253L14.0899 21.8602L14.2397 14.1396ZM12.1535 25.4589L18.9288 30.2938L18.9302 44.3466L12.1535 39.4753L12.1535 25.4589ZM45.8829 43.035L20.0459 44.8336L20.0474 30.2926L27.9398 24.8589V29.9939C27.9398 30.2186 28.0521 30.4056 28.2378 30.4809C28.4235 30.594 28.6467 30.5563 28.7964 30.4432L36.9106 24.8589V29.9939C36.9106 30.2186 37.0229 30.4055 37.2087 30.4809C37.3944 30.5939 37.6175 30.5562 37.7672 30.4432L45.883 24.8588L45.8829 43.035Z" stroke="white" stroke-width="0.4" mask="url(#path-2-outside-1_8216_7140)"/>
</svg>
