<svg xmlns="http://www.w3.org/2000/svg" width="93.487" height="83.854" viewBox="0 0 93.487 83.854">
  <g id="noun_Social_Media_Marketing_2306276" data-name="noun_Social Media Marketing_2306276" transform="translate(-5.18 -9.797)">
    <path id="Path_10183" data-name="Path 10183" d="M53.182,41.857a1.043,1.043,0,0,0,1.043.719,1.168,1.168,0,0,0,.323,0,1.043,1.043,0,0,0,.636-1.366l-2.44-7.538a1.043,1.043,0,1,0-1.981.636Z" transform="translate(1.941 0.985)"/>
    <path id="Path_10184" data-name="Path 10184" d="M58.272,40.2a1.043,1.043,0,0,0,.991.719,1.23,1.23,0,0,0,.323-.052,1.043,1.043,0,0,0,.667-1.314l-2.44-7.528a1.04,1.04,0,0,0-1.981.636Z" transform="translate(2.159 0.918)"/>
    <path id="Path_10185" data-name="Path 10185" d="M16.136,56.808a3.128,3.128,0,1,0-3.128,3.128,3.128,3.128,0,0,0,3.128-3.128Zm-4.171,0a.434.434,0,1,1-.021,0Z" transform="translate(0.2 1.872)"/>
    <path id="Path_10186" data-name="Path 10186" d="M20.818,59.946a3.128,3.128,0,1,0-3.128-3.128,3.128,3.128,0,0,0,3.128,3.128Zm0-4.171a.434.434,0,1,1,0-.021Z" transform="translate(0.534 1.872)"/>
    <path id="Path_10187" data-name="Path 10187" d="M28.628,59.946A3.128,3.128,0,1,0,25.5,56.818a3.128,3.128,0,0,0,3.128,3.128Zm0-4.171a.434.434,0,1,1,0-.021Z" transform="translate(0.867 1.872)"/>
    <path id="Path_10188" data-name="Path 10188" d="M95.016,32.6A6.6,6.6,0,0,0,91,20.185L87.873,10.5a.975.975,0,0,0-1.554-.49L62.453,26.41,53.194,29.4a7.956,7.956,0,0,0-1.043.438H11.561a1.043,1.043,0,0,0-1.043,1.043V48.931h-4.3A1.043,1.043,0,0,0,5.18,49.974V67.939a1.043,1.043,0,0,0,1.043,1.043h4.3V82.307H9.33a4.327,4.327,0,0,0-3.555,1.647,2.836,2.836,0,0,0-.417,2.6l.876,2.638c.845,2.628,3.973,4.463,7.413,4.463H83.567c3.493,0,6.537-1.835,7.413-4.463l.876-2.638a2.8,2.8,0,0,0-.417-2.6,4.327,4.327,0,0,0-3.555-1.647H86.7v-38.4l10.489-.219a1.035,1.035,0,0,0,.97-1.366Zm1.314-7.3a4.536,4.536,0,0,1-1.95,5.276l-2.732-8.341a4.515,4.515,0,0,1,4.682,3.086Zm-46.5,10.906a5.86,5.86,0,0,1,3-4.41,5.276,5.276,0,0,1,.959-.407l8.425-2.732L66.6,42.216l.125.375-8.435,2.721a5.8,5.8,0,0,1-7.3-3.7l-.938-2.94a5.526,5.526,0,0,1-.229-1.658,6.789,6.789,0,0,1,0-.8Zm17.725,8.341,4.9,9.509L69.158,55.1l-4.89-9.509Zm-17.36-.136.125.156a8.645,8.645,0,0,0,.646.74l.115.125a7.372,7.372,0,0,0,.813.678l.2.136A6.8,6.8,0,0,0,53,46.8h.083a7.923,7.923,0,0,0,.928.386l.229.073a8.424,8.424,0,0,0,1.043.25H55.5c.323,0,.646.063.98.073h.146a8.934,8.934,0,0,0,1.043-.073h.25a8.184,8.184,0,0,0,1.043-.261l3.264-1.043,5.464,10.6a1.313,1.313,0,0,0,1.241.563l5.307-1.72a1.091,1.091,0,0,0,.646-1.47l-5.088-9.905,8.664-.177v38.2H18.776V68.981h4.3L29.787,75.4a1.376,1.376,0,0,0,.3.2h.1a1.042,1.042,0,0,0,.25,0h.063a1.22,1.22,0,0,0,.386-.083,1.043,1.043,0,0,0,.615-1.043l-.177-5.63h4.254A1.043,1.043,0,0,0,36.627,67.8V49.974a1.043,1.043,0,0,0-1.043-1.043H18.776V38.077H47.825a7.58,7.58,0,0,0,.282,1.189l.938,2.94a8.633,8.633,0,0,0,.448,1.043l.1.219A9.061,9.061,0,0,0,50.192,44.416ZM69.178,84.4v2.534H28.046V84.4ZM12.6,31.9h36.91a.188.188,0,0,0-.052.073,1.782,1.782,0,0,0-.115.146c-.167.219-.313.438-.459.667l-.1.156a7.778,7.778,0,0,0-.417.834,1.4,1.4,0,0,1-.073.188,8.257,8.257,0,0,0-.271.813V34.9a9.134,9.134,0,0,0-.188.928.71.71,0,0,1,0,.146h-30.1a1.043,1.043,0,0,0-1.043,1.043V48.931H12.6ZM7.265,66.9V51.016H34.583V66.9H30.3a1.043,1.043,0,0,0-1.043,1.043l.136,4.171-5.213-4.953a1.043,1.043,0,0,0-.719-.282H7.265Zm9.384,2.085V82.307H12.6V68.981ZM87.884,84.392a2.346,2.346,0,0,1,1.866.782.792.792,0,0,1,.136.719L89,88.521c-.584,1.773-2.867,3.045-5.432,3.045H13.646c-2.565,0-4.848-1.272-5.432-3.045l-.876-2.627a.761.761,0,0,1,.125-.719,2.346,2.346,0,0,1,1.866-.782H26.012v3.576a1.043,1.043,0,0,0,1.043,1.043H70.221a1.043,1.043,0,0,0,1.043-1.043V84.4h16.62Zm-7.361-2.085V44.041l4.087-.083V82.307ZM70.1,42.175H68.8L67.76,38.817,64.153,27.734,86.32,12.469l3,9.269h0l.615,1.908L95.7,41.633Z"/>
    <path id="Path_10189" data-name="Path 10189" d="M37.4,58.081a1.043,1.043,0,0,0-.584,1.773l7.007,6.829-1.647,9.645a1.043,1.043,0,0,0,1.512,1.043l8.654-4.546L61,77.423a1.043,1.043,0,0,0,.49.125,1.105,1.105,0,0,0,.615-.2,1.043,1.043,0,0,0,.407-1.043l-1.647-9.645,7.007-6.829a1.043,1.043,0,0,0-.584-1.773l-9.676-1.408-4.327-8.769a1.043,1.043,0,0,0-1.877,0l-4.327,8.769Zm11.3,0,3.639-7.372,3.639,7.372a1.043,1.043,0,0,0,.782.563l8.133,1.189L59,65.568a1.043,1.043,0,0,0-.292.918l1.387,8.1L52.8,70.76a1.043,1.043,0,0,0-.48-.115,1.168,1.168,0,0,0-.49.115l-7.3,3.827,1.387-8.1a1.043,1.043,0,0,0-.3-.918l-5.881-5.735,8.133-1.189a1.043,1.043,0,0,0,.834-.553Z" transform="translate(1.336 1.6)"/>
  </g>
</svg>
