<svg xmlns="http://www.w3.org/2000/svg" width="72.597" height="86" viewBox="0 0 72.597 86">
  <g id="Group_1160" data-name="Group 1160" transform="translate(-139.824 -162.638)">
    <g id="Group_1151" data-name="Group 1151" transform="translate(143.665 162.638)">
      <path id="Path_191" data-name="Path 191" d="M198.551,240.616V174.828a.864.864,0,0,0-.906-.814h-1.484v.814a.864.864,0,0,1-.906.814h1.483V243.6H181.648a7.2,7.2,0,0,1-.061.908.876.876,0,0,1-.892.72h16.952a.863.863,0,0,0,.906-.814v-3.794Z" transform="translate(-132.482 -159.525)" fill="#fff"/>
      <path id="Path_192" data-name="Path 192" d="M180.39,175.621a.859.859,0,0,1-.906-.8v-.8h-1.071a.86.86,0,0,0-.906.8v68.459a8.175,8.175,0,0,1,1.812.973V175.624Z" transform="translate(-133.354 -159.525)" fill="#fff"/>
      <path id="Path_193" data-name="Path 193" d="M193.932,171.748v.814a.863.863,0,0,1-.906.814H194.8v1.258H180.873v-1.258h1.772a.865.865,0,0,1-.907-.814v-.814h-1.772a.864.864,0,0,0-.906.814v2.887a.864.864,0,0,0,.906.814H195.7a.864.864,0,0,0,.906-.814v-2.887a.732.732,0,0,0-.052-.27.9.9,0,0,0-.848-.544h-1.778Z" transform="translate(-132.929 -160.145)" fill="#fff"/>
      <path id="Path_194" data-name="Path 194" d="M190.925,170.3a.864.864,0,0,1-.906.814h1.528v1.258h-8.569v-1.258h1.442a.864.864,0,0,1-.906-.814v-.814h-1.442a.865.865,0,0,0-.907.814v2.89a.864.864,0,0,0,.907.814h10.381a.863.863,0,0,0,.906-.814V170.3a.864.864,0,0,0-.906-.814h-1.528Z" transform="translate(-132.353 -160.765)" fill="#fff"/>
      <path id="Path_195" data-name="Path 195" d="M183.006,169.35v1.565a.864.864,0,0,0,.906.814h5.6a.864.864,0,0,0,.906-.814v-2.887a.864.864,0,0,0-.906-.814h-.083v.814a.863.863,0,0,1-.906.814h.081V170.1h-3.79v-1.258h-.164a.864.864,0,0,1-.907-.814v-.8a.908.908,0,0,0-.625.4.74.74,0,0,0-.117.4Z" transform="translate(-131.85 -161.386)" fill="#fff"/>
      <path id="Path_196" data-name="Path 196" d="M183.588,169.281a.864.864,0,0,0,.907.814h3.872a.863.863,0,0,0,.906-.814v-4.712a.8.8,0,0,0-.416-.685l-1.936-1.117a.994.994,0,0,0-.979,0L184,163.884a.8.8,0,0,0-.416.685Zm1.812-4.268,1.03-.594,1.03.594v3.454H185.4Z" transform="translate(-131.69 -162.638)" fill="#fff"/>
      <path id="Path_197" data-name="Path 197" d="M180.635,181.026H192.77a.819.819,0,1,0,0-1.628H180.635a.818.818,0,1,0,0,1.628Z" transform="translate(-132.746 -158.052)" fill="#fff"/>
      <path id="Path_198" data-name="Path 198" d="M180.635,186.524H192.77a.819.819,0,1,0,0-1.628H180.635a.818.818,0,1,0,0,1.628Z" transform="translate(-132.746 -156.548)" fill="#fff"/>
      <path id="Path_199" data-name="Path 199" d="M180.635,192.022H192.77a.819.819,0,1,0,0-1.628H180.635a.818.818,0,1,0,0,1.628Z" transform="translate(-132.746 -155.043)" fill="#fff"/>
      <path id="Path_200" data-name="Path 200" d="M180.635,197.519H192.77a.819.819,0,1,0,0-1.628H180.635a.819.819,0,1,0,0,1.628Z" transform="translate(-132.746 -153.539)" fill="#fff"/>
      <path id="Path_201" data-name="Path 201" d="M180.635,203.017H192.77a.819.819,0,1,0,0-1.628H180.635a.818.818,0,1,0,0,1.628Z" transform="translate(-132.746 -152.035)" fill="#fff"/>
      <path id="Path_202" data-name="Path 202" d="M180.635,208.515H192.77a.819.819,0,1,0,0-1.628H180.635a.818.818,0,1,0,0,1.628Z" transform="translate(-132.746 -150.53)" fill="#fff"/>
      <path id="Path_203" data-name="Path 203" d="M180.635,214.013H192.77a.819.819,0,1,0,0-1.628H180.635a.818.818,0,1,0,0,1.628Z" transform="translate(-132.746 -149.026)" fill="#fff"/>
      <path id="Path_204" data-name="Path 204" d="M180.635,219.51H192.77a.819.819,0,1,0,0-1.628H180.635a.818.818,0,1,0,0,1.628Z" transform="translate(-132.746 -147.522)" fill="#fff"/>
      <path id="Path_205" data-name="Path 205" d="M193.678,224.194a.864.864,0,0,0-.907-.814H180.636a.818.818,0,1,0,0,1.628h12.135A.863.863,0,0,0,193.678,224.194Z" transform="translate(-132.746 -146.017)" fill="#fff"/>
      <path id="Path_206" data-name="Path 206" d="M176.8,196.4H164.264v1.59H175.89v40.133a7.166,7.166,0,0,1,1.812-.679V197.2A.855.855,0,0,0,176.8,196.4Z" transform="translate(-136.978 -153.399)" fill="#fff"/>
      <path id="Path_207" data-name="Path 207" d="M193.309,229.889a.745.745,0,0,1-.037-.793c.087-.154.182-.3.283-.447H167.041v.688c0,.028,0,.056,0,.083v.032a.113.113,0,0,1-.008.047.118.118,0,0,0-.01.036l-.011.042c0,.014-.01.025-.014.037l-.015.037c0,.013-.013.024-.019.036l-.018.034-.023.033c-.008.01-.014.023-.022.033l-.027.032-.025.031-.029.031-.028.028-.034.029-.029.023-.039.027-.029.02-.041.023-.033.018-.046.02-.032.014-.051.018-.032.01-.055.013-.031.008-.057.008h-.138l-12.023.1a.955.955,0,0,0,.217.024H194.08A.934.934,0,0,1,193.309,229.889Z" transform="translate(-139.753 -144.576)" fill="#fff"/>
      <path id="Path_208" data-name="Path 208" d="M173.946,201.143a.864.864,0,0,0-.906-.814h-8.777v1.629h8.777A.862.862,0,0,0,173.946,201.143Z" transform="translate(-136.978 -152.325)" fill="#fff"/>
      <path id="Path_209" data-name="Path 209" d="M173.946,205.06a.864.864,0,0,0-.906-.814h-8.777v1.629h8.777A.863.863,0,0,0,173.946,205.06Z" transform="translate(-136.978 -151.253)" fill="#fff"/>
      <path id="Path_210" data-name="Path 210" d="M173.946,208.978a.863.863,0,0,0-.906-.814h-8.777v1.628h8.777A.865.865,0,0,0,173.946,208.978Z" transform="translate(-136.978 -150.181)" fill="#fff"/>
      <path id="Path_211" data-name="Path 211" d="M173.946,212.894a.864.864,0,0,0-.906-.814h-8.777v1.628h8.777A.864.864,0,0,0,173.946,212.894Z" transform="translate(-136.978 -149.109)" fill="#fff"/>
      <path id="Path_212" data-name="Path 212" d="M173.946,216.81a.864.864,0,0,0-.906-.814h-8.777v1.629h8.777A.862.862,0,0,0,173.946,216.81Z" transform="translate(-136.978 -148.038)" fill="#fff"/>
      <path id="Path_213" data-name="Path 213" d="M173.946,220.728a.863.863,0,0,0-.906-.814h-8.777v1.628h8.777A.865.865,0,0,0,173.946,220.728Z" transform="translate(-136.978 -146.966)" fill="#fff"/>
      <path id="Path_214" data-name="Path 214" d="M173.946,224.643a.864.864,0,0,0-.906-.814h-8.777v1.629h8.777A.863.863,0,0,0,173.946,224.643Z" transform="translate(-136.978 -145.894)" fill="#fff"/>
      <path id="Path_216" data-name="Path 216" d="M149.881,242.072v-.86l-5.222.04V229.107h2.8a.863.863,0,0,0,.907-.814V215.6h.892a.959.959,0,0,0,.637-.238.777.777,0,0,0,.266-.577V202.138h.951a.865.865,0,0,0,.906-.814V187.25h2.242a.862.862,0,0,0,.9-.814v-2.1h5.222v-.814a.865.865,0,0,1,.907-.814h-7.041a.864.864,0,0,0-.906.814v2.1H151.1a.864.864,0,0,0-.9.814V200.51h-.951a.866.866,0,0,0-.907.814v12.651h-.892a.965.965,0,0,0-.637.238.776.776,0,0,0-.266.576v12.689h-2.8a.867.867,0,0,0-.907.814v13.781a.775.775,0,0,0,.269.578.96.96,0,0,0,.637.237h.008l6.723-.05a.929.929,0,0,1-.332-.185A.773.773,0,0,1,149.881,242.072Z" transform="translate(-142.84 -157.145)" fill="#fff"/>
      <path id="Path_217" data-name="Path 217" d="M164.15,229.543l-.027.032Z" transform="translate(-137.016 -144.331)" fill="#fff"/>
      <path id="Path_218" data-name="Path 218" d="M164.25,229.315a.164.164,0,0,1-.01.036A.047.047,0,0,0,164.25,229.315Z" transform="translate(-136.984 -144.393)" fill="#fff"/>
      <path id="Path_219" data-name="Path 219" d="M163.782,229.8l-.055.013Z" transform="translate(-137.125 -144.261)" fill="#fff"/>
      <path id="Path_220" data-name="Path 220" d="M163.558,229.827" transform="translate(-137.171 -144.253)" fill="#fff"/>
      <path id="Path_221" data-name="Path 221" d="M163.646,229.823h0Z" transform="translate(-137.163 -144.254)" fill="#fff"/>
      <path id="Path_222" data-name="Path 222" d="M163.715,229.813l-.057.008Z" transform="translate(-137.144 -144.257)" fill="#fff"/>
      <path id="Path_223" data-name="Path 223" d="M163.906,229.747l-.046.02Z" transform="translate(-137.088 -144.275)" fill="#fff"/>
      <path id="Path_224" data-name="Path 224" d="M164.185,229.49l-.023.033Z" transform="translate(-137.006 -144.345)" fill="#fff"/>
      <path id="Path_225" data-name="Path 225" d="M163.963,229.715l-.041.023Z" transform="translate(-137.071 -144.284)" fill="#fff"/>
      <path id="Path_226" data-name="Path 226" d="M164.065,229.637l-.034.029Z" transform="translate(-137.042 -144.305)" fill="#fff"/>
      <path id="Path_227" data-name="Path 227" d="M164.109,229.592l-.029.031Z" transform="translate(-137.028 -144.317)" fill="#fff"/>
      <path id="Path_228" data-name="Path 228" d="M163.846,229.774l-.051.018Z" transform="translate(-137.106 -144.268)" fill="#fff"/>
      <path id="Path_229" data-name="Path 229" d="M164.015,229.678l-.04.027Z" transform="translate(-137.057 -144.294)" fill="#fff"/>
      <path id="Path_230" data-name="Path 230" d="M164.217,229.435c0,.013-.013.024-.019.036A.058.058,0,0,1,164.217,229.435Z" transform="translate(-136.996 -144.36)" fill="#fff"/>
      <path id="Path_231" data-name="Path 231" d="M164.235,229.376c0,.013-.01.025-.014.037A.316.316,0,0,0,164.235,229.376Z" transform="translate(-136.99 -144.376)" fill="#fff"/>
      <path id="Path_232" data-name="Path 232" d="M164.26,229.252v.032A.067.067,0,0,1,164.26,229.252Z" transform="translate(-136.979 -144.41)" fill="#fff"/>
      <path id="Path_233" data-name="Path 233" d="M167.707,242.717h.138l.057-.008.031-.008.055-.013.032-.01.051-.018.032-.014.046-.02.033-.018.041-.023.029-.02.039-.027.029-.023.034-.029.028-.028a.342.342,0,0,0,.029-.031l.025-.031.027-.032c.008-.01.015-.023.022-.033l.023-.033.018-.034c.006-.013.014-.024.019-.036l.015-.037c0-.013.01-.025.014-.037l.011-.042.01-.036a.172.172,0,0,1,.008-.047c.008-.015,0-.022,0-.032,0-.027,0-.055,0-.083V183.533a.864.864,0,0,0-.907-.814H159.77a.865.865,0,0,0-.907.814v2.1h-2.24a.866.866,0,0,0-.9.814v14.071h-.951a.865.865,0,0,0-.906.814v12.651h-.892a.966.966,0,0,0-.637.238.776.776,0,0,0-.266.576v12.689h-2.8a.866.866,0,0,0-.907.814V242.07a.775.775,0,0,0,.27.579.929.929,0,0,0,.332.185.99.99,0,0,0,.3.05h.01l6.4-.069ZM152.991,229.1a.863.863,0,0,0,.906-.814V215.6h.892a.959.959,0,0,0,.637-.238.777.777,0,0,0,.266-.577V202.136h.953a.864.864,0,0,0,.906-.814V187.248h2.242a.862.862,0,0,0,.9-.814v-2.1h6.113V241.1l-16.621.152V229.1Z" transform="translate(-141.33 -157.143)" fill="#fff"/>
      <path id="Path_237" data-name="Path 237" d="M158.283,189.915H160.8a.819.819,0,1,0,0-1.628h-2.513a.819.819,0,1,0,0,1.628Z" transform="translate(-138.862 -155.62)" fill="#fff"/>
      <path id="Path_238" data-name="Path 238" d="M161.7,192.736a.864.864,0,0,0-.907-.814h-2.513a.819.819,0,1,0,0,1.628H160.8A.863.863,0,0,0,161.7,192.736Z" transform="translate(-138.862 -154.625)" fill="#fff"/>
      <path id="Path_239" data-name="Path 239" d="M160.8,197.185a.819.819,0,1,0,0-1.628h-2.513a.819.819,0,1,0,0,1.628Z" transform="translate(-138.862 -153.63)" fill="#fff"/>
      <path id="Path_240" data-name="Path 240" d="M160.8,200.82a.819.819,0,1,0,0-1.628h-2.513a.818.818,0,1,0,0,1.628Z" transform="translate(-138.862 -152.636)" fill="#fff"/>
      <path id="Path_241" data-name="Path 241" d="M160.8,202.827h-2.513a.818.818,0,1,0,0,1.628H160.8a.819.819,0,1,0,0-1.628Z" transform="translate(-138.862 -151.641)" fill="#fff"/>
      <path id="Path_242" data-name="Path 242" d="M160.8,206.462h-2.513a.818.818,0,1,0,0,1.628H160.8a.819.819,0,1,0,0-1.628Z" transform="translate(-138.862 -150.647)" fill="#fff"/>
      <path id="Path_243" data-name="Path 243" d="M158.283,210.1a.819.819,0,1,0,0,1.628H160.8a.819.819,0,1,0,0-1.628Z" transform="translate(-138.862 -149.652)" fill="#fff"/>
      <path id="Path_244" data-name="Path 244" d="M160.8,213.732h-2.513a.818.818,0,1,0,0,1.628H160.8a.819.819,0,1,0,0-1.628Z" transform="translate(-138.862 -148.657)" fill="#fff"/>
      <path id="Path_245" data-name="Path 245" d="M160.8,217.366h-2.513a.818.818,0,1,0,0,1.628H160.8a.819.819,0,1,0,0-1.628Z" transform="translate(-138.862 -147.663)" fill="#fff"/>
      <path id="Path_246" data-name="Path 246" d="M160.8,222.629a.819.819,0,1,0,0-1.628h-2.513a.819.819,0,1,0,0,1.628Z" transform="translate(-138.862 -146.668)" fill="#fff"/>
      <path id="Path_247" data-name="Path 247" d="M158.283,226.264H160.8a.819.819,0,1,0,0-1.628h-2.513a.818.818,0,1,0,0,1.628Z" transform="translate(-138.862 -145.674)" fill="#fff"/>
    </g>
    <rect id="Rectangle_95" data-name="Rectangle 95" width="72.597" height="1.274" transform="translate(139.824 247.364)" fill="#fff"/>
  </g>
</svg>
