<svg width="199" height="30" viewBox="0 0 199 30" fill="none" xmlns="http://www.w3.org/2000/svg">
<g clip-path="url(#clip0_25472_1368)">
<path d="M30.5393 0.127109C32.0182 -0.133948 33.5702 0.0759075 34.9458 0.667975C35.9794 1.12663 36.9307 1.84201 37.5292 2.81197C37.7678 3.16533 37.6947 3.68817 37.3485 3.9449C37.0023 4.22615 36.4312 4.15764 36.1739 3.79057C35.5067 2.6562 34.2265 2.03745 32.9717 1.79442C31.6192 1.52615 30.0767 1.68552 28.9945 2.60572C28.7083 2.85019 28.2544 2.84442 27.9645 2.61004C27.6819 2.39802 27.5669 1.99634 27.6941 1.66749C27.7737 1.43312 27.9775 1.27663 28.1662 1.13168C28.8608 0.611725 29.6885 0.284321 30.5393 0.127109Z" fill="#FF7A00"/>
<path d="M187.738 24.41C189.127 16.3107 190.549 8.21651 191.954 0.120117C194.3 0.121559 196.647 0.120117 198.994 0.120838C197.586 8.21579 196.179 16.3107 194.769 24.4057C192.425 24.4079 190.082 24.3999 187.738 24.41Z" fill="#FF7A00"/>
<path d="M88.1982 0.340293C89.4595 0.179476 90.7397 0.214091 92.0025 0.341736C93.4446 0.501832 94.891 0.849428 96.1647 1.56337C97.2793 2.18356 98.2183 3.11601 98.8385 4.22948C99.75 5.85568 99.9603 7.77755 99.8367 9.61C97.4463 9.61 95.0551 9.61073 92.6639 9.60928C92.7644 8.85063 92.6617 8.04799 92.2989 7.36794C91.9179 6.66049 91.2038 6.17299 90.4296 5.98909C89.32 5.72587 88.0926 5.81962 87.1001 6.40808C86.0571 7.01674 85.3169 8.0314 84.8217 9.11169C84.1979 10.4653 83.9001 11.9386 83.6767 13.4033C83.5271 14.5571 83.4715 15.7766 83.8907 16.8836C84.2529 17.8362 85.1607 18.5083 86.1525 18.6893C87.163 18.866 88.2524 18.835 89.1928 18.3886C90.1571 17.9256 90.8315 17.0314 91.3209 16.109C91.5196 15.7211 91.6758 15.3129 91.8088 14.8982C94.2289 14.8989 96.649 14.8982 99.0691 14.8989C98.4402 17.1403 97.2605 19.241 95.5755 20.8614C93.8884 22.5042 91.7112 23.6148 89.4097 24.0994C87.8924 24.4247 86.3245 24.4723 84.782 24.3331C83.3587 24.2026 81.9426 23.8622 80.661 23.2211C79.5796 22.686 78.6081 21.9215 77.8679 20.9675C76.5473 19.2864 76.0319 17.1064 76.0493 15.0014C76.0724 13.078 76.4273 11.1554 77.0923 9.34895C78.3038 6.12106 80.682 3.30351 83.7729 1.72563C85.1528 1.01241 86.6563 0.537889 88.1982 0.340293Z" fill="#FF7A00"/>
<path d="M146.152 1.09961C148.463 1.10033 150.774 1.09889 153.085 1.10033C152.759 2.9335 152.432 4.76596 152.107 6.59841C153.232 6.59697 154.357 6.60057 155.482 6.59697C155.263 7.95057 155.03 9.30201 154.806 10.6549C153.68 10.6549 152.553 10.6542 151.428 10.6549C151.019 12.9929 150.623 15.3323 150.208 17.6681C150.116 18.1751 150.175 18.8544 150.722 19.0809C151.519 19.3744 152.389 19.2402 153.221 19.2734C152.936 20.9407 152.668 22.6109 152.37 24.2761C150.495 24.3669 148.615 24.4686 146.737 24.3583C145.865 24.2941 144.966 24.2169 144.167 23.8318C143.649 23.5866 143.213 23.1568 143.012 22.6174C142.744 21.9128 142.751 21.1434 142.793 20.4027C142.893 18.8941 143.234 17.4172 143.474 15.9287C143.779 14.1705 144.087 12.4131 144.392 10.6549C143.558 10.6549 142.724 10.6542 141.891 10.6549C142.115 9.30995 142.335 7.96427 142.568 6.62148C143.418 6.56668 144.305 6.61499 145.169 6.59769C145.497 4.76523 145.823 2.93206 146.152 1.09961Z" fill="#FF7A00"/>
<path d="M30.9049 3.15328C32.3108 2.93333 33.8671 3.3314 34.8668 4.37563C35.0584 4.59198 35.2665 4.82131 35.3338 5.10977C35.4003 5.43573 35.1964 5.78549 34.8805 5.8915C34.5856 6.00256 34.2199 5.87996 34.0608 5.60592C33.685 5.0016 32.991 4.67924 32.313 4.54511C31.5583 4.39294 30.6945 4.47948 30.0938 4.99943C29.8047 5.24174 29.324 5.16386 29.1122 4.85592C28.8968 4.57323 28.9525 4.13693 29.2286 3.91337C29.697 3.50376 30.2955 3.26217 30.9049 3.15328Z" fill="#FF7A00"/>
<path d="M31.1215 5.75296C31.6781 5.61306 32.299 5.7032 32.7724 6.03421C33.1404 6.28445 33.4122 6.69479 33.4382 7.14479C33.4714 7.59119 33.2596 8.03325 32.9206 8.31883C32.1718 8.96643 30.9162 8.92099 30.2345 8.19623C29.8717 7.82845 29.7358 7.25296 29.9194 6.76691C30.108 6.2484 30.596 5.88421 31.1215 5.75296Z" fill="#FF7A00"/>
<path d="M109.287 6.02654C110.78 5.68976 112.333 5.63495 113.849 5.83471C115.353 6.03663 116.829 6.58327 118.037 7.51283C119.005 8.2549 119.752 9.26956 120.206 10.3982C121.015 12.3734 121.009 14.583 120.607 16.6513C116.133 16.6542 111.659 16.652 107.184 16.6527C107.075 17.2578 107.098 17.9003 107.333 18.4744C107.599 19.1241 108.162 19.6246 108.807 19.8871C110.272 20.4698 112.122 19.9217 112.961 18.5688C115.206 18.571 117.45 18.5681 119.695 18.5703C119.188 19.6989 118.463 20.7395 117.518 21.5465C115.914 22.9657 113.869 23.8376 111.761 24.1672C110.124 24.4275 108.444 24.5047 106.801 24.2501C105.368 24.0222 103.945 23.5325 102.794 22.6289C101.778 21.8487 101.011 20.7604 100.599 19.5503C100.177 18.2999 100.137 16.9499 100.328 15.6532C100.609 13.3325 101.663 11.1222 103.267 9.42101C104.868 7.71548 107.011 6.54865 109.287 6.02654ZM109.5 10.5143C108.572 11.0465 107.98 12.0345 107.795 13.07C109.923 13.0737 112.049 13.0672 114.177 13.0729C114.254 12.5191 114.211 11.9328 113.958 11.4265C113.577 10.6426 112.768 10.0823 111.895 10.0224C111.074 9.97053 110.219 10.0982 109.5 10.5143Z" fill="#FF7A00"/>
<path d="M172.974 6.84476C174.996 5.97649 177.226 5.75149 179.406 5.72265C181.008 5.71399 182.629 5.75654 184.192 6.13947C185.163 6.37817 186.14 6.77769 186.829 7.52625C187.409 8.13635 187.64 8.98587 187.716 9.80366C187.806 10.9806 187.582 12.1496 187.386 13.3041C186.921 16.0092 186.453 18.7135 185.992 21.4193C185.926 21.8837 185.835 22.3791 186.014 22.8299C186.123 23.1097 186.338 23.3253 186.534 23.5474C186.568 23.8402 186.519 24.1416 186.527 24.4373C184.102 24.4467 181.677 24.4395 179.252 24.4409C179.239 23.6339 179.223 22.8277 179.212 22.0207C178.537 22.5681 177.815 23.065 177.032 23.4443C175.994 23.9563 174.846 24.1979 173.702 24.3263C172.281 24.4669 170.807 24.4604 169.446 23.983C168.299 23.5799 167.281 22.7123 166.863 21.5549C166.477 20.4587 166.638 19.2616 166.947 18.1683C167.221 17.2106 167.745 16.3142 168.512 15.6666C169.54 14.7234 170.855 14.1638 172.194 13.8169C173.345 13.5003 174.537 13.3979 175.716 13.2363C176.893 13.0763 178.084 12.9702 179.231 12.6486C179.628 12.5383 180.043 12.4041 180.34 12.102C180.621 11.8279 180.734 11.4205 180.727 11.0368C180.706 10.5976 180.314 10.302 179.935 10.1577C179.233 9.91039 178.468 9.89668 177.738 10.0063C176.878 10.144 176.072 10.7866 175.901 11.6642C173.645 11.6657 171.391 11.665 169.137 11.6642C169.316 10.5753 169.736 9.50942 170.445 8.65341C171.115 7.84644 172.017 7.26015 172.974 6.84476ZM177.788 16.7087C176.901 16.9049 175.982 17.0469 175.165 17.4616C174.777 17.657 174.403 17.9311 174.225 18.3407C173.986 18.8282 173.935 19.4938 174.346 19.9063C174.831 20.3967 175.579 20.432 176.229 20.414C177.163 20.3916 178.085 19.9734 178.687 19.2558C179.445 18.376 179.748 17.2092 179.889 16.082C179.213 16.3647 178.509 16.5789 177.788 16.7087Z" fill="#FF7A00"/>
<path d="M132.22 6.99019C133.545 6.30005 135.081 6.13995 136.552 6.25822C137.759 6.35342 139.017 6.67649 139.927 7.51736C140.823 8.34091 141.254 9.55173 141.364 10.7395C141.513 12.1219 141.268 13.5015 141.022 14.8587C140.475 18.0404 139.928 21.2229 139.381 24.4046C137.034 24.4053 134.687 24.4053 132.34 24.4046C132.82 21.6433 133.3 18.882 133.78 16.1207C133.904 15.3671 134.08 14.6157 134.064 13.8476C134.063 13.2736 133.918 12.6707 133.53 12.2308C133.192 11.8782 132.68 11.7801 132.211 11.7628C131.529 11.7455 130.813 11.8486 130.235 12.2323C129.715 12.5734 129.397 13.1351 129.158 13.6919C128.804 14.5169 128.699 15.4147 128.543 16.2909C128.076 18.9952 127.61 21.7003 127.143 24.4046C124.797 24.4053 122.451 24.4046 120.105 24.4053C121.116 18.515 122.139 12.6267 123.145 6.73635C125.288 6.72409 127.432 6.73346 129.575 6.7313C129.419 7.64861 129.261 8.56519 129.106 9.4825C130.013 8.50678 131.034 7.61471 132.22 6.99019Z" fill="#FF7A00"/>
<path d="M165.995 6.88694C167.175 6.30064 168.551 6.08213 169.849 6.32805C169.434 8.66675 169.012 11.0055 168.597 13.3442C167.193 12.9922 165.627 13.0881 164.363 13.8331C163.587 14.2831 163.033 15.0288 162.681 15.8401C162.141 17.035 161.965 18.3439 161.745 19.624C161.471 21.2177 161.199 22.8122 160.923 24.4059C158.577 24.4052 156.232 24.4059 153.887 24.4052C154.9 18.5141 155.912 12.6223 156.928 6.73117C159.06 6.73261 161.193 6.72973 163.325 6.73261C163.124 7.93261 162.905 9.13045 162.717 10.3326C162.92 10.135 163.001 9.84584 163.168 9.61795C163.858 8.49079 164.8 7.48261 165.995 6.88694Z" fill="#FF7A00"/>
<path d="M0.0078125 24.4057C1.41592 16.31 2.8233 8.21507 4.2343 0.120117C8.07696 0.120838 11.9189 0.120117 15.7616 0.120838C17.5622 0.136704 19.3809 0.205935 21.1388 0.628531C22.4486 0.951608 23.8032 1.4968 24.6468 2.59872C25.4766 3.70569 25.5778 5.17613 25.3805 6.50089C25.1709 8.223 24.474 9.90545 23.2929 11.192C22.466 12.0841 21.3492 12.6711 20.176 12.9696C21.0268 13.3129 21.9527 13.6158 22.578 14.3254C23.2177 15.0343 23.418 16.0208 23.4021 16.9497C23.4274 18.9256 22.7739 20.8273 22.6597 22.7896C22.6142 23.1797 22.7985 23.6809 23.2647 23.6708C23.2322 23.916 23.1997 24.1605 23.1657 24.4057C20.4702 24.405 17.7747 24.4057 15.0792 24.4057C14.9404 23.5562 15.0546 22.6922 15.1305 21.8427C15.2483 20.6153 15.6083 19.4146 15.5888 18.1749C15.5816 17.6463 15.4478 17.0867 15.072 16.6937C14.7864 16.3886 14.3824 16.2365 13.9855 16.1391C13.3588 15.9913 12.7119 15.9523 12.07 15.9437C11.1953 15.9437 10.32 15.9437 9.44459 15.9444C8.95739 18.7648 8.47959 21.5874 7.98733 24.4071C5.32725 24.4028 2.66717 24.4064 0.0078125 24.4057ZM11.2062 5.79127C10.9264 7.39512 10.6655 9.00185 10.3944 10.6071C11.5062 10.6079 12.6186 10.6079 13.7304 10.6071C14.4966 10.5927 15.2729 10.5213 16.003 10.2776C16.4389 10.1326 16.8632 9.90762 17.1588 9.5492C17.612 9.00545 17.7638 8.26339 17.7053 7.5718C17.6713 7.10016 17.4436 6.63574 17.0533 6.3581C16.4728 5.94343 15.7413 5.81002 15.0402 5.79488C13.7622 5.79055 12.4842 5.79704 11.2062 5.79127Z" fill="#0684BC"/>
<path d="M57.4133 9.45957C58.8019 7.58024 60.9249 6.18986 63.2669 5.89202C64.3823 5.75356 65.5475 5.72111 66.6231 6.09539C67.8866 6.53169 68.9564 7.45332 69.6352 8.59563C69.7581 7.82976 69.8802 7.0639 70.0038 6.29875C72.0676 6.29803 74.1313 6.29803 76.195 6.29875C75.4765 10.4562 74.7544 14.6137 74.0344 18.7711C73.7923 20.1449 73.5827 21.5266 73.24 22.881C73.0138 23.7593 72.7919 24.6485 72.3871 25.4656C71.8673 26.5213 71.1221 27.4834 70.1571 28.1692C69.3865 28.7187 68.5155 29.1204 67.6127 29.3988C66.1915 29.8264 64.6996 29.9281 63.2242 30.0002H62.1472C61.0037 29.9129 59.8493 29.8437 58.739 29.5365C57.5759 29.225 56.4136 28.7411 55.557 27.8699C54.7771 27.0918 54.3643 25.9769 54.4236 24.8807C56.7757 24.8793 59.1279 24.88 61.48 24.88C61.4591 25.4028 61.8646 25.8694 62.3633 25.9899C62.9604 26.1427 63.5943 26.1139 64.1972 26.0021C64.8904 25.8723 65.5424 25.4728 65.9046 24.8591C66.5761 23.7622 66.6657 22.449 66.9252 21.2194C65.8178 22.1483 64.4733 22.8406 63.0291 23.0331C61.9087 23.1802 60.755 23.1882 59.6505 22.9264C58.3031 22.6026 57.0497 21.818 56.2582 20.6728C55.445 19.506 55.1168 18.0629 55.098 16.6588C55.1059 15.5216 55.2903 14.3879 55.5997 13.2947C55.9979 11.9338 56.5553 10.5997 57.4133 9.45957ZM65.1369 10.8319C64.6302 10.9055 64.1567 11.1427 63.7758 11.481C63.0912 12.086 62.7356 12.9629 62.5108 13.8276C62.2838 14.7197 62.1118 15.6716 62.3496 16.5802C62.4906 17.0807 62.7356 17.587 63.1693 17.8978C63.7317 18.2901 64.461 18.3218 65.1196 18.2367C66.1221 18.0896 66.9599 17.3728 67.4254 16.4973C67.9351 15.5317 68.2025 14.4341 68.175 13.3415C68.1512 12.6226 67.9307 11.8769 67.4298 11.3425C66.8269 10.7685 65.9176 10.7375 65.1369 10.8319Z" fill="#0684BC"/>
<path d="M45.734 6.98585C47.1125 6.27263 48.7136 6.12768 50.2402 6.27407C51.3809 6.38585 52.5606 6.7147 53.4222 7.5058C54.2694 8.27816 54.7096 9.401 54.8462 10.5188C55.0349 11.9503 54.8043 13.3883 54.5441 14.7945C53.9918 17.9979 53.4388 21.2005 52.888 24.4039C50.5409 24.406 48.1938 24.4046 45.8475 24.4046C46.3549 21.4818 46.8638 18.5589 47.3712 15.6361C47.5368 14.6741 47.7522 13.6291 47.3394 12.6988C47.1609 12.2423 46.7416 11.9099 46.2595 11.827C45.5041 11.6921 44.6902 11.752 43.9934 12.0866C43.332 12.4017 42.9301 13.0587 42.6561 13.7099C42.3048 14.5356 42.2065 15.4342 42.0489 16.3096C41.582 19.0082 41.1172 21.7068 40.6488 24.4053C38.3038 24.4039 35.9582 24.4068 33.6133 24.4039C34.6289 18.5128 35.6409 12.6209 36.6572 6.73056C38.7997 6.73128 40.9415 6.73128 43.084 6.72984C42.9344 7.63994 42.7703 8.54787 42.62 9.45797C43.5445 8.50676 44.5464 7.60172 45.734 6.98585Z" fill="#0684BC"/>
<path d="M28.4329 10.0624C30.1338 10.0588 31.8346 10.0616 33.5355 10.0616C32.8495 14.8429 32.1657 19.6249 31.479 24.4061C29.1442 24.4047 26.8094 24.4068 24.4746 24.4054C25.7931 19.6241 27.1159 14.8443 28.4329 10.0624Z" fill="#0684BC"/>
</g>
<defs>
<clipPath id="clip0_25472_1368">
<rect width="199" height="30" fill="white"/>
</clipPath>
</defs>
</svg>
