<svg width="35" height="40" viewBox="0 0 35 40" fill="none" xmlns="http://www.w3.org/2000/svg">
<path d="M17.1356 40C16.9372 40 16.7371 39.955 16.5537 39.8666L12.6104 37.9558C4.95058 34.2409 0 26.3391 0 17.8274V7.0627C0 6.68753 0.158399 6.32903 0.436836 6.07561C0.715273 5.82219 1.0871 5.69879 1.46059 5.7338C7.52652 6.30403 12.3337 4.56496 16.1552 0.411438C16.6605 -0.137146 17.6125 -0.137146 18.1178 0.411438C21.9394 4.56321 26.7465 6.30407 32.8124 5.7338C33.1826 5.69878 33.5577 5.82217 33.8362 6.07561C34.1146 6.32905 34.273 6.68587 34.273 7.0627V17.8257C34.273 26.3391 29.3224 34.2409 21.6626 37.9541L17.7193 39.8649C17.5359 39.9533 17.3358 39.9983 17.1374 39.9983L17.1356 40ZM2.66763 8.48841V17.8257C2.66763 25.3237 7.02787 32.2835 13.7742 35.5548L17.1356 37.1838L20.497 35.5548C27.2451 32.2834 31.6036 25.3237 31.6036 17.8257V8.48841C25.886 8.71017 21.0323 6.93942 17.1356 3.22111C13.2406 6.93934 8.38183 8.70525 2.66763 8.48841Z" fill="currentColor"/>
<path d="M14.4057 25.9004C14.0639 25.9004 13.7238 25.7703 13.462 25.5102L9.76713 21.8153C9.24689 21.2951 9.24689 20.4498 9.76713 19.9295C10.2874 19.4093 11.1327 19.4093 11.6529 19.9295L14.4041 22.6807L22.6111 14.4737C23.1313 13.9534 23.9767 13.9534 24.4969 14.4737C25.0172 14.9939 25.0172 15.8392 24.4969 16.3595L15.3462 25.5102C15.086 25.7704 14.7442 25.9004 14.4024 25.9004L14.4057 25.9004Z" fill="currentColor"/>
</svg>
