<?xml version="1.0" encoding="UTF-8"?> <svg xmlns="http://www.w3.org/2000/svg" width="49" height="49" viewBox="0 0 49 49" fill="none"><path d="M24.5 6C14.2973 6 6 14.2973 6 24.5C5.99999 34.7027 14.2973 43 24.5 43C34.7027 43 43 34.7027 43 24.5C43 24.1728 42.87 23.859 42.6387 23.6277C42.4073 23.3963 42.0935 23.2664 41.7664 23.2664C41.4392 23.2664 41.1254 23.3963 40.8941 23.6277C40.6627 23.859 40.5327 24.1728 40.5327 24.5C40.5327 33.3696 33.3696 40.5327 24.5 40.5327C15.6304 40.5327 8.46727 33.3696 8.46727 24.5C8.46728 15.6304 15.6304 8.46727 24.5 8.46727C24.8272 8.46727 25.141 8.3373 25.3723 8.10595C25.6037 7.87459 25.7336 7.56082 25.7336 7.23364C25.7336 6.90645 25.6037 6.59268 25.3723 6.36133C25.141 6.12997 24.8272 6 24.5 6Z" fill="black"></path><path d="M30.1591 8.14176C30.1172 8.29821 30.0449 8.44488 29.9463 8.57338C29.8477 8.70187 29.7247 8.80966 29.5845 8.89064C29.4442 8.97163 29.2894 9.0242 29.1288 9.04535C28.9682 9.06649 28.805 9.0558 28.6486 9.01388C28.4921 8.97196 28.3455 8.89963 28.217 8.80103C28.0885 8.70243 27.9807 8.57948 27.8997 8.43921C27.8187 8.29895 27.7662 8.14414 27.745 7.98356C27.7239 7.82298 27.7346 7.65978 27.7765 7.50334C27.8184 7.34689 27.8907 7.20021 27.9893 7.07172C28.0879 6.94322 28.2109 6.83544 28.3511 6.75445C28.4914 6.67347 28.6462 6.62089 28.8068 6.59975C28.9674 6.57861 29.1306 6.5893 29.287 6.63122C29.4435 6.67314 29.5901 6.74547 29.7186 6.84407C29.8471 6.94267 29.9549 7.06562 30.0359 7.20588C30.1169 7.34615 30.1694 7.50096 30.1906 7.66154C30.2117 7.82212 30.201 7.98531 30.1591 8.14176Z" fill="black"></path><path d="M37.582 13.1632C37.3507 13.3945 37.037 13.5244 36.7099 13.5244C36.3828 13.5244 36.0691 13.3945 35.8378 13.1632C35.7233 13.0487 35.6325 12.9127 35.5705 12.7631C35.5085 12.6134 35.4766 12.453 35.4766 12.2911C35.4766 12.1291 35.5085 11.9687 35.5705 11.8191C35.6325 11.6694 35.7233 11.5335 35.8378 11.419C35.9524 11.3045 36.0883 11.2136 36.2379 11.1516C36.3876 11.0896 36.548 11.0577 36.7099 11.0577C36.8719 11.0577 37.0323 11.0896 37.1819 11.1516C37.3316 11.2136 37.4675 11.3044 37.582 11.419C37.8133 11.6503 37.9433 11.964 37.9433 12.2911C37.9433 12.6182 37.8133 12.9319 37.582 13.1632Z" fill="black"></path><path d="M41.4979 21.2233C41.3415 21.2653 41.1783 21.276 41.0177 21.2548C40.8571 21.2337 40.7023 21.1811 40.562 21.1001C40.4217 21.0191 40.2988 20.9113 40.2002 20.7829C40.1016 20.6544 40.0293 20.5077 39.9874 20.3512C39.9027 20.0353 39.947 19.6986 40.1106 19.4154C40.2741 19.1321 40.5435 18.9254 40.8595 18.8407C41.1754 18.756 41.5121 18.8004 41.7954 18.9639C42.0786 19.1275 42.2853 19.3969 42.37 19.7128C42.4119 19.8693 42.4226 20.0324 42.4015 20.193C42.3803 20.3536 42.3278 20.5084 42.2468 20.6487C42.1658 20.7889 42.058 20.9119 41.9295 21.0105C41.801 21.1091 41.6543 21.1814 41.4979 21.2233Z" fill="black"></path><path d="M34.2021 10.1638C34.0386 10.447 33.7692 10.6537 33.4533 10.7384C33.1373 10.8231 32.8007 10.7787 32.5174 10.6152C32.2341 10.4516 32.0274 10.1823 31.9428 9.8663C31.8581 9.55035 31.9024 9.2137 32.0659 8.93042C32.1469 8.79015 32.2547 8.66723 32.3832 8.56863C32.5117 8.47003 32.6584 8.39771 32.8148 8.35579C32.9713 8.31387 33.1345 8.30317 33.2951 8.32431C33.4556 8.34545 33.6105 8.398 33.7507 8.47898C34.034 8.64253 34.2407 8.91193 34.3254 9.22789C34.41 9.54384 34.3657 9.88048 34.2021 10.1638Z" fill="black"></path><path d="M40.0696 16.935C39.7863 17.0986 39.4496 17.1429 39.1337 17.0582C38.8177 16.9735 38.5484 16.7668 38.3848 16.4836C38.2213 16.2003 38.1769 15.8636 38.2616 15.5477C38.3462 15.2317 38.5529 14.9623 38.8362 14.7988C38.9765 14.7178 39.1313 14.6653 39.2919 14.6441C39.4525 14.623 39.6157 14.6337 39.7721 14.6756C39.9285 14.7175 40.0752 14.7898 40.2037 14.8884C40.3322 14.987 40.44 15.11 40.521 15.2502C40.602 15.3905 40.6545 15.5453 40.6757 15.7059C40.6968 15.8665 40.6861 16.0297 40.6442 16.1861C40.6023 16.3426 40.53 16.4892 40.4314 16.6177C40.3328 16.7462 40.2098 16.854 40.0696 16.935Z" fill="black"></path><path d="M24.4812 10.9166C24.3192 10.919 24.1592 10.9532 24.0104 11.0174C23.8617 11.0816 23.727 11.1745 23.6141 11.2908C23.5012 11.407 23.4124 11.5444 23.3526 11.695C23.2928 11.8456 23.2633 12.0065 23.2658 12.1685V24.5003C23.2657 24.6623 23.2976 24.8228 23.3596 24.9724C23.4216 25.1221 23.5125 25.2581 23.627 25.3727C23.7416 25.4872 23.8776 25.5781 24.0273 25.6401C24.177 25.702 24.3374 25.734 24.4994 25.7339H34.3639C34.5259 25.7339 34.6864 25.702 34.836 25.6401C34.9857 25.5781 35.1217 25.4872 35.2363 25.3726C35.3508 25.2581 35.4417 25.122 35.5037 24.9724C35.5657 24.8227 35.5976 24.6623 35.5976 24.5003C35.5976 24.3383 35.5657 24.1779 35.5037 24.0282C35.4417 23.8786 35.3508 23.7425 35.2363 23.628C35.1217 23.5134 34.9857 23.4226 34.836 23.3606C34.6864 23.2986 34.5259 23.2667 34.3639 23.2667H25.733V12.1685C25.7355 12.0034 25.7048 11.8395 25.6428 11.6865C25.5808 11.5335 25.4886 11.3945 25.3719 11.2778C25.2552 11.161 25.1162 11.0689 24.9632 11.0069C24.8102 10.9449 24.6463 10.9142 24.4812 10.9166Z" fill="black"></path></svg> 