<svg width="58" height="58" viewBox="0 0 58 58" fill="none" xmlns="http://www.w3.org/2000/svg">
<rect width="58" height="58" rx="5" fill="black"/>
<path d="M42.88 19H34.784C33.952 19 33.28 19.6552 33.28 20.4664C33.28 21.2776 33.952 21.9328 34.784 21.9328H39.296L32.224 28.828H22.688C22.304 28.828 21.92 28.984 21.632 29.2648L14.432 36.2848C13.856 36.8464 13.856 37.7824 14.432 38.344C14.72 38.6248 15.104 38.7808 15.488 38.7808C15.872 38.7808 16.256 38.6248 16.544 38.344L23.328 31.7296H32.864C33.248 31.7296 33.632 31.5736 33.92 31.2928L41.44 23.9608V28.36C41.44 29.1712 42.112 29.8264 42.944 29.8264C43.776 29.8264 44.448 29.1712 44.448 28.36V20.4664C44.384 19.6552 43.712 19 42.88 19Z" fill="white"/>
</svg>
