<?xml version="1.0" encoding="UTF-8"?> <!-- Generator: Adobe Illustrator 24.1.3, SVG Export Plug-In . SVG Version: 6.00 Build 0) --> <svg xmlns="http://www.w3.org/2000/svg" xmlns:xlink="http://www.w3.org/1999/xlink" version="1.1" id="Layer_1" x="0px" y="0px" viewBox="0 0 1585.54 704.85" style="enable-background:new 0 0 1585.54 704.85;" xml:space="preserve"> <style type="text/css"> .st0{fill:#777778;} .st1{fill:#4B83C9;} .st2{fill:#F2342E;} .st3{fill:#00AC4E;} .st4{fill:#FFB714;} .st5{fill:#EE332D;} .st6{fill:#487CBF;} </style> <g> <g> <g> <path class="st0" d="M372.37,497.98v115.26h-36.94V329.52h96.05c25.12,0,45.81,8.87,62.06,25.12 c17.73,16.25,26.6,36.94,26.6,59.11c0,23.64-8.87,44.33-26.6,60.58c-16.25,16.25-38.42,23.64-62.06,23.64 C432.96,497.98,372.37,497.98,372.37,497.98z M372.37,363.51v99h60.58c14.78,0,26.6-4.43,35.46-14.78 c10.34-10.34,14.78-20.69,14.78-35.46c0-13.3-4.43-25.12-14.78-33.99c-8.87-10.34-22.17-14.78-35.46-14.78H372.37L372.37,363.51z "></path> <path class="st0" d="M619.14,412.27c26.6,0,48.76,7.39,63.54,22.17s23.64,33.99,23.64,59.11v119.69h-35.46v-26.6h-1.48 c-14.78,22.17-35.46,32.51-60.58,32.51c-20.69,0-39.9-5.91-53.2-19.21c-14.78-13.3-22.17-28.08-22.17-47.29 c0-20.69,7.39-35.46,22.17-47.29s35.46-17.73,60.58-17.73c22.17,0,39.9,4.43,53.2,11.82v-8.87c0-13.3-4.43-23.64-14.78-32.51 c-10.34-8.87-22.17-13.3-35.46-13.3c-20.69,0-36.94,8.87-48.76,25.12l-32.51-20.69C558.56,425.57,583.68,412.27,619.14,412.27z M571.86,552.65c0,8.87,4.43,17.73,11.82,23.64c7.39,5.91,17.73,8.87,28.08,8.87c14.78,0,29.55-5.91,41.37-17.73 c11.82-11.82,17.73-25.12,17.73-39.9c-11.82-8.87-26.6-13.3-47.29-13.3c-14.78,0-26.6,2.96-36.94,10.34 C576.29,533.44,571.86,542.31,571.86,552.65z"></path> <path class="st0" d="M747.7,418.18h35.46v31.03l0,0c10.34-25.12,32.51-36.94,66.5-36.94l7.39,1.48v38.42l-14.78-1.48 c-16.25,0-31.03,5.91-41.37,16.25c-10.34,10.34-16.25,23.64-16.25,39.9v106.39H747.7C747.7,611.76,747.7,418.18,747.7,418.18z M973.79,616.19c-16.25,0-29.55-4.43-39.9-14.78c-10.34-10.34-16.25-23.64-16.25-41.37V452.17h-33.99v-32.51h33.99v-59.11h36.94 v59.11h47.29v32.51h-47.29v96.05c0,13.3,2.96,22.17,7.39,26.6s10.34,7.39,17.73,7.39c2.96,0,5.91,0,8.87-1.48 c2.96,0,5.91-1.48,7.39-2.96l11.82,32.51C997.43,613.23,987.09,616.19,973.79,616.19z"></path> <path class="st0" d="M1038.8,418.18h35.46v26.6h1.48c5.91-8.87,13.3-17.73,25.12-23.64c11.82-5.91,23.64-8.87,35.46-8.87 c23.64,0,41.37,7.39,54.67,20.69c13.3,13.3,19.21,32.51,19.21,57.63v121.17h-36.94V492.06c-1.48-31.03-16.25-47.29-47.29-47.29 c-14.78,0-26.6,5.91-36.94,17.73c-10.34,11.82-14.78,25.12-14.78,42.85v107.87h-36.94L1038.8,418.18L1038.8,418.18z"></path> <path class="st0" d="M1340.25,619.14c-28.08,0-51.72-10.34-70.93-29.55c-19.21-19.21-28.08-44.33-28.08-73.88 c0-29.55,8.87-54.67,26.6-73.88c17.73-19.21,41.37-29.55,69.45-29.55c28.08,0,51.72,8.87,67.97,28.08 c16.25,19.21,25.12,44.33,25.12,78.32v4.43h-150.72c0,19.21,7.39,33.99,19.21,45.81s26.6,17.73,42.85,17.73 c23.64,0,41.37-11.82,54.67-35.46l32.51,16.25c-8.87,16.25-20.69,29.55-35.46,38.42 C1377.19,614.71,1360.94,619.14,1340.25,619.14z M1282.62,492.06h110.83c-1.48-13.3-5.91-25.12-16.25-33.99 c-10.34-8.87-23.64-13.3-39.9-13.3c-13.3,0-25.12,4.43-35.46,13.3C1292.96,466.94,1285.57,477.29,1282.62,492.06z"></path> <path class="st0" d="M1502.79,611.76h-36.94V418.18h35.46v31.03h1.48c4.43-10.34,11.82-19.21,22.17-26.6 c11.82-7.39,22.17-10.34,33.99-10.34c10.34,0,19.21,1.48,26.6,4.43l-10.34,35.46c-4.43-1.48-11.82-2.96-20.69-2.96 c-13.3,0-25.12,5.91-35.46,16.25c-10.34,10.34-14.78,23.64-14.78,38.42L1502.79,611.76L1502.79,611.76z"></path> </g> </g> <path class="st1" d="M419.66,164.02v25.12h59.11c-1.48,16.25-8.87,28.08-19.21,36.94c-10.34,8.87-23.64,13.3-39.9,13.3 c-17.73,0-33.99-5.91-45.81-19.21c-11.82-13.3-19.21-28.08-19.21-45.81s5.91-33.99,19.21-45.81c11.82-13.3,28.08-19.21,45.81-19.21 s32.51,5.91,44.33,17.73l17.73-17.73c-17.73-16.25-38.42-25.12-62.06-25.12c-16.25,0-31.03,4.43-45.81,11.82 c-14.78,7.39-25.12,19.21-33.99,33.99c-7.39,13.3-11.82,28.08-11.82,44.33s4.43,31.03,11.82,44.33 c7.39,13.3,19.21,25.12,33.99,32.51c14.78,8.87,29.55,11.82,45.81,11.82c25.12,0,44.33-7.39,60.58-23.64 c16.25-14.78,23.64-35.46,23.64-60.58c0-5.91,0-10.34-1.48-14.78H419.66L419.66,164.02z"></path> <path class="st2" d="M570.38,146.29c-16.25,0-31.03,5.91-41.37,16.25c-11.82,10.34-16.25,25.12-16.25,41.37s5.91,29.55,16.25,41.37 c11.82,11.82,25.12,16.25,41.37,16.25c16.25,0,29.55-5.91,41.37-16.25c11.82-11.82,16.25-25.12,16.25-41.37 s-5.91-31.03-16.25-41.37C601.41,150.72,586.64,146.29,570.38,146.29z M594.02,229.04c-5.91,7.39-14.78,10.34-23.64,10.34 c-8.87,0-17.73-2.96-23.64-10.34s-8.87-14.78-8.87-25.12s2.96-19.21,8.87-25.12c5.91-7.39,14.78-10.34,23.64-10.34 c8.87,0,17.73,2.96,23.64,10.34c5.91,5.91,8.87,14.78,8.87,25.12C602.89,214.26,599.93,221.65,594.02,229.04z"></path> <rect x="896.95" y="87.18" class="st3" width="25.12" height="171.41"></rect> <path class="st4" d="M698.94,146.29c-16.25,0-31.03,5.91-41.37,16.25c-11.82,10.34-16.25,25.12-16.25,41.37s5.91,29.55,16.25,41.37 c11.82,11.82,25.12,16.25,41.37,16.25c16.25,0,29.55-5.91,41.37-16.25c11.82-11.82,17.73-25.12,17.73-41.37 s-5.91-31.03-17.73-41.37C728.49,150.72,715.19,146.29,698.94,146.29z M721.1,229.04c-5.91,7.39-14.78,10.34-23.64,10.34 s-17.73-2.96-23.64-10.34c-5.91-7.39-8.87-14.78-8.87-25.12s2.96-19.21,8.87-25.12c5.91-7.39,14.78-10.34,23.64-10.34 s17.73,2.96,23.64,10.34c5.91,5.91,8.87,14.78,8.87,25.12C731.45,214.26,728.49,221.65,721.1,229.04z"></path> <path class="st5" d="M993,239.38c-13.3,0-22.17-5.91-28.08-17.73l78.32-32.51l-2.96-5.91c-1.48-5.91-4.43-10.34-7.39-14.78 c-2.96-4.43-7.39-8.87-11.82-11.82c-4.43-2.96-8.87-5.91-14.78-7.39c-4.43-1.48-10.34-2.96-16.25-2.96 c-16.25,0-28.08,5.91-39.9,16.25c-10.34,11.82-16.25,25.12-16.25,41.37s5.91,31.03,16.25,41.37 c10.34,11.82,25.12,16.25,41.37,16.25c20.69,0,36.94-8.87,48.76-25.12l-19.21-13.3C1013.68,233.47,1004.82,239.38,993,239.38z M969.35,177.32c5.91-5.91,13.3-10.34,22.17-10.34c4.43,0,8.87,1.48,13.3,2.96c4.43,2.96,7.39,5.91,8.87,8.87l-53.2,23.64 C959.01,192.1,961.96,184.71,969.35,177.32z"></path> <path class="st6" d="M854.09,158.11L854.09,158.11c-8.87-8.87-17.73-13.3-31.03-13.3c-14.78,0-28.08,5.91-39.9,17.73 c-10.34,11.82-16.25,25.12-16.25,41.37s5.91,29.55,16.25,41.37c11.82,11.82,25.12,16.25,39.9,16.25c13.3,0,23.64-4.43,31.03-13.3 h1.48v5.91c0,25.12-10.34,36.94-31.03,36.94c-5.91,0-11.82-1.48-17.73-5.91c-5.91-4.43-8.87-8.87-11.82-14.78l-23.64,10.34 c1.48,4.43,4.43,10.34,8.87,13.3s7.39,7.39,11.82,10.34c4.43,2.96,8.87,5.91,14.78,7.39c5.91,1.48,10.34,2.96,16.25,2.96 c17.73,0,31.03-5.91,41.37-16.25c10.34-10.34,14.78-25.12,14.78-44.33V149.24h-23.64L854.09,158.11L854.09,158.11z M846.71,229.04 c-5.91,5.91-13.3,10.34-22.17,10.34c-8.87,0-16.25-2.96-23.64-10.34c-5.91-7.39-8.87-14.78-8.87-25.12s2.96-17.73,8.87-25.12 c5.91-7.39,14.78-10.34,23.64-10.34c8.87,0,16.25,2.96,22.17,10.34c5.91,7.39,8.87,14.78,8.87,25.12 C857.05,214.26,854.09,223.13,846.71,229.04z"></path> <rect class="st6" width="186.19" height="704.85"></rect> </g> </svg> 