<svg width="30" height="41" viewBox="0 0 30 41" fill="none" xmlns="http://www.w3.org/2000/svg">
<path d="M24.65 5.7402H23.7794V3.77941C23.7794 3.5714 23.6968 3.37191 23.5497 3.22482C23.4026 3.07773 23.2031 2.9951 22.9951 2.9951H17.2775V1.03431C17.2775 0.826301 17.1948 0.626808 17.0477 0.47972C16.9006 0.332633 16.7011 0.25 16.4931 0.25H13.0343C12.8263 0.25 12.6268 0.332633 12.4797 0.47972C12.3326 0.626808 12.25 0.826301 12.25 1.03431V2.9951H6.52451C6.3165 2.9951 6.117 3.07773 5.96992 3.22482C5.82283 3.37191 5.7402 3.5714 5.7402 3.77941V5.7402H4.87745C3.65081 5.74227 2.47501 6.23047 1.60764 7.09784C0.740273 7.9652 0.252074 9.14101 0.25 10.3676L0.25 35.6225C0.252074 36.8492 0.740273 38.025 1.60764 38.8924C2.47501 39.7597 3.65081 40.2479 4.87745 40.25H24.65C25.8753 40.2459 27.0491 39.7567 27.9147 38.8896C28.7804 38.0225 29.2675 36.8478 29.2696 35.6225V10.3676C29.2675 9.14236 28.7804 7.96774 27.9147 7.1006C27.0491 6.23345 25.8753 5.74434 24.65 5.7402ZM13.0343 4.56373C13.2423 4.56373 13.4418 4.48109 13.5889 4.33401C13.736 4.18692 13.8186 3.98742 13.8186 3.77941V1.81863H15.7088V3.77941C15.7088 3.98742 15.7915 4.18692 15.9385 4.33401C16.0856 4.48109 16.2851 4.56373 16.4931 4.56373H22.2108V8.48529H7.30882V4.56373H13.0343ZM27.701 35.6225C27.701 36.0242 27.6219 36.422 27.4681 36.7931C27.3144 37.1642 27.0891 37.5014 26.8051 37.7855C26.521 38.0695 26.1838 38.2948 25.8127 38.4485C25.4416 38.6023 25.0438 38.6814 24.6422 38.6814H4.87745C4.0662 38.6814 3.28818 38.3591 2.71454 37.7855C2.1409 37.2118 1.81863 36.4338 1.81863 35.6225V10.3676C1.81863 9.5564 2.1409 8.77837 2.71454 8.20473C3.28818 7.63109 4.0662 7.30882 4.87745 7.30882H5.7402V9.26961C5.7402 9.47762 5.82283 9.67711 5.96992 9.8242C6.117 9.97129 6.3165 10.0539 6.52451 10.0539H22.9951C23.2031 10.0539 23.4026 9.97129 23.5497 9.8242C23.6968 9.67711 23.7794 9.47762 23.7794 9.26961V7.30882H24.6422C25.0438 7.30882 25.4416 7.38794 25.8127 7.54166C26.1838 7.69538 26.521 7.92069 26.8051 8.20473C27.0891 8.48877 27.3144 8.82597 27.4681 9.19709C27.6219 9.5682 27.701 9.96596 27.701 10.3676V35.6225Z" fill="currentColor" stroke="currentColor" stroke-width="0.5"/>
<path d="M20.3593 16.6658H9.1515C8.94349 16.6658 8.74399 16.7484 8.59691 16.8955C8.44982 17.0426 8.36719 17.2421 8.36719 17.4501C8.36719 17.6581 8.44982 17.8576 8.59691 18.0047C8.74399 18.1518 8.94349 18.2344 9.1515 18.2344H20.3593C20.5674 18.2344 20.7669 18.1518 20.9139 18.0047C21.061 17.8576 21.1437 17.6581 21.1437 17.4501C21.1437 17.2421 21.061 17.0426 20.9139 16.8955C20.7669 16.7484 20.5674 16.6658 20.3593 16.6658Z" fill="currentColor" stroke="currentColor" stroke-width="0.5"/>
<path d="M20.3593 22.2107H9.1515C8.94349 22.2107 8.74399 22.2933 8.59691 22.4404C8.44982 22.5875 8.36719 22.787 8.36719 22.995C8.36719 23.203 8.44982 23.4025 8.59691 23.5496C8.74399 23.6967 8.94349 23.7793 9.1515 23.7793H20.3593C20.5674 23.7793 20.7669 23.6967 20.9139 23.5496C21.061 23.4025 21.1437 23.203 21.1437 22.995C21.1437 22.787 21.061 22.5875 20.9139 22.4404C20.7669 22.2933 20.5674 22.2107 20.3593 22.2107Z" fill="currentColor" stroke="currentColor" stroke-width="0.5"/>
<path d="M20.3593 27.7561H9.1515C8.94349 27.7561 8.74399 27.8387 8.59691 27.9858C8.44982 28.1329 8.36719 28.3324 8.36719 28.5404C8.36719 28.7484 8.44982 28.9479 8.59691 29.095C8.74399 29.2421 8.94349 29.3247 9.1515 29.3247H20.3593C20.5674 29.3247 20.7669 29.2421 20.9139 29.095C21.061 28.9479 21.1437 28.7484 21.1437 28.5404C21.1437 28.3324 21.061 28.1329 20.9139 27.9858C20.7669 27.8387 20.5674 27.7561 20.3593 27.7561Z" fill="currentColor" stroke="currentColor" stroke-width="0.5"/>
</svg>
