<svg xmlns="http://www.w3.org/2000/svg" width="16.171" height="16" viewBox="0 0 16.171 16">
  <path id="IN" d="M13.171,4.45a1.061,1.061,0,0,1-1.487,0,1.031,1.031,0,0,1,0-1.472,1.057,1.057,0,0,1,1.487,0,1.033,1.033,0,0,1,0,1.472ZM8.086,5.3A2.7,2.7,0,1,0,10.819,8,2.721,2.721,0,0,0,8.086,5.3Zm0,6.824A4.122,4.122,0,1,1,12.252,8,4.15,4.15,0,0,1,8.086,12.121Zm6.651-7.707a3.016,3.016,0,0,0-3.027-3H4.463a3.016,3.016,0,0,0-3.027,3v7.17a3.017,3.017,0,0,0,3.027,3h7.246a3.017,3.017,0,0,0,3.027-3ZM11.709,16H4.463A4.444,4.444,0,0,1,0,11.584V4.414A4.445,4.445,0,0,1,4.463,0h7.246a4.442,4.442,0,0,1,4.461,4.415v7.17A4.443,4.443,0,0,1,11.709,16Z" transform="translate(0 0.001)"/>
</svg>
