<?xml version="1.0" encoding="utf-8"?>
<!-- Generator: Adobe Illustrator 27.7.0, SVG Export Plug-In . SVG Version: 6.00 Build 0)  -->
<svg version="1.1" id="Layer_1" xmlns="http://www.w3.org/2000/svg" xmlns:xlink="http://www.w3.org/1999/xlink" x="0px" y="0px"
	 viewBox="0 0 250 250" style="enable-background:new 0 0 250 250;" xml:space="preserve">
<style type="text/css">
	.st0{fill:#FFFFFF;}
</style>
<path id="Path_5049" class="st0" d="M0,122.9c0.8-4.6,3-8.8,6.4-12c8-7.4,20.5-7,27.9,1c0.1,0.1,0.3,0.3,0.4,0.4
	c17.7,17.7,35.3,35.3,53,53c0.8,0.9,1.5,1.8,2.1,2.8c0.7-1,1.4-2,2.3-2.9c40.8-40.9,81.7-81.8,122.5-122.6
	c5.3-6.1,13.8-8.4,21.5-5.7c10.3,3.6,15.7,14.9,12.1,25.2c-0.7,1.9-1.6,3.7-2.9,5.3c-0.9,1.2-1.9,2.4-2.9,3.4L105.2,208
	c-5.3,6.3-13.9,8.7-21.7,5.9c-3.1-1.2-5.9-3-8.3-5.3c-22.9-22.7-45.7-45.6-68.6-68.5c-3.3-3.4-5.6-7.6-6.5-12.2L0,122.9z"/>
</svg>
