<svg width="100" height="20" viewBox="0 0 100 20" fill="none" xmlns="http://www.w3.org/2000/svg">
<path d="M25.0161 0.485048C22.4362 0.485048 21.5208 2.23122 21.5208 3.88038V4.88281H21.0048C20.5887 4.88281 20.2891 5.19001 20.2891 5.57805C20.2891 5.96609 20.6053 6.27328 21.0048 6.27328H21.5208V13.1771C21.5208 13.5813 21.837 13.9209 22.2864 13.9209C22.7358 13.9209 23.052 13.6137 23.052 13.1771V6.22478H24.6998C25.116 6.22478 25.4156 5.91758 25.4156 5.52954C25.4156 5.14151 25.0993 4.83431 24.6998 4.83431H23.0687V3.84805C23.0687 2.94262 23.4349 1.84318 25.0827 1.84318C25.4988 1.84318 25.7984 1.53599 25.7984 1.19645C25.7318 0.792246 25.4322 0.485048 25.0161 0.485048ZM30.8916 4.64029C29.8596 4.59178 28.9275 5.0445 28.3117 5.83674V5.43254C28.3117 5.02833 27.9954 4.6888 27.546 4.6888C27.08 4.6888 26.7804 5.0445 26.7804 5.43254V13.1286C26.7804 13.5328 27.0966 13.8724 27.546 13.8724C28.0121 13.8724 28.3117 13.5652 28.3117 13.1286V8.87638C28.3117 7.0817 29.2937 6.03076 30.8916 6.03076C31.3077 6.03076 31.6073 5.72356 31.6073 5.33553C31.6073 4.94749 31.2411 4.64029 30.8916 4.64029ZM39.9961 8.43983C39.9961 7.58291 39.7464 6.74217 39.2804 6.04693C38.5647 5.093 37.3829 4.54328 36.1346 4.64029C33.5048 4.64029 32.0234 6.33796 32.0234 9.29675C32.0234 12.3526 33.5214 14.0017 36.351 14.0017C37.4828 14.0502 38.6146 13.646 39.4968 12.9023C39.6466 12.8053 39.7464 12.5951 39.7464 12.4011C39.7464 12.0454 39.4302 11.7543 39.0806 11.7543C38.9308 11.7543 38.7644 11.8028 38.6645 11.8998C38.0487 12.4011 37.2165 12.6921 36.4009 12.6921C34.7032 12.6921 33.6213 11.5926 33.5713 9.84647H39.1306C39.9961 9.74946 39.9961 8.94105 39.9961 8.43983ZM36.1845 5.93375C37.7324 5.93375 38.4981 6.79067 38.548 8.43983H33.5547C33.7211 6.83917 34.6366 5.93375 36.1845 5.93375ZM45.0394 8.53684C43.9075 8.13264 42.9754 7.84161 42.9754 7.0332C42.9754 6.12777 44.0074 6.03076 44.5733 6.03076C45.339 5.98226 46.1212 6.27329 46.6372 6.7745C46.8869 7.01703 47.3529 7.01703 47.6192 6.7745C47.769 6.62899 47.819 6.4673 47.819 6.27328C47.819 6.12777 47.769 5.96609 47.6692 5.82057C46.9035 4.96366 45.7717 4.46244 44.6399 4.57562C42.7424 4.57562 41.544 5.52954 41.544 6.96852C41.544 8.7632 43.1918 9.31292 44.6399 9.81413C45.7218 10.1698 46.7038 10.4609 46.7038 11.2693C46.7038 12.3202 45.4721 12.5142 44.7398 12.5142C43.8576 12.5627 42.9921 12.207 42.3762 11.6088C42.2264 11.4633 42.06 11.4148 41.8603 11.3663C41.4941 11.3663 41.1945 11.6735 41.1945 12.013C41.1945 12.1585 41.2444 12.3202 41.3443 12.4657C42.2264 13.4682 43.4581 13.9694 44.7398 13.9694C46.9035 13.9694 48.1852 12.9669 48.1852 11.3663C48.0853 9.53927 46.4874 9.03806 45.0394 8.53684ZM53.9441 4.59179C53.0121 4.54328 52.0966 4.94749 51.4808 5.64272V0.743741C51.4808 0.339534 51.1645 0 50.7151 0C50.299 0 49.9994 0.307198 49.9994 0.743741V13.1448C49.9994 13.549 50.3156 13.8885 50.7151 13.8885C51.1146 13.8885 51.4808 13.5813 51.4808 13.1448V8.48834C51.4808 6.79067 52.2963 5.93375 53.9441 5.93375C55.5919 5.93375 56.1578 6.62899 56.1578 8.32666V13.1286C56.1578 13.5328 56.4741 13.8724 56.9235 13.8724C57.3396 13.8724 57.6392 13.5652 57.6392 13.1286V8.08413C57.6558 5.78824 56.4242 4.59179 53.9441 4.59179ZM65.9448 11.6897C65.795 11.6897 65.6285 11.7382 65.4787 11.8352C64.8629 12.3364 64.0806 12.5789 63.315 12.6274C61.5673 12.6274 60.6851 11.528 60.6851 9.28058C60.6851 7.03319 61.5673 5.93375 63.315 5.93375C64.0806 5.88525 64.8629 6.17627 65.3289 6.79067C65.4787 6.93618 65.6951 7.0332 65.8949 7.0332C66.261 7.0332 66.5606 6.726 66.5606 6.38646V6.33796C66.5606 6.19244 66.5107 6.03076 66.4108 5.93375C65.6452 5.02833 64.5134 4.52711 63.315 4.57562C60.5853 4.57562 59.2038 6.17627 59.2038 9.23207C59.2038 12.2879 60.6518 13.937 63.315 13.937C64.4468 13.937 65.4787 13.5813 66.3443 12.8861C66.544 12.7406 66.6605 12.5304 66.6605 12.3364C66.6605 11.9968 66.3609 11.6897 65.9448 11.6897ZM71.7038 4.59179C69.6898 4.59179 68.7244 5.54571 68.3582 6.14394C68.3083 6.24095 68.2584 6.38646 68.2584 6.54814C68.2584 6.90385 68.5746 7.19488 68.9241 7.19488C69.1738 7.19488 69.3902 7.09787 69.54 6.88768C70.056 6.24095 70.8715 5.88525 71.7038 5.98226C73.0353 5.98226 73.8675 6.72599 73.8675 7.93861V8.34282H71.2377C69.0739 8.34282 67.6925 9.39376 67.6925 11.1399C67.6925 12.8861 68.9741 13.937 71.1878 13.937C72.2197 13.9855 73.2018 13.5813 73.8675 12.8376V13.1448C73.8675 13.549 74.1838 13.84 74.5833 13.84C74.9994 13.84 75.299 13.5328 75.299 13.1448V7.93861C75.3655 5.88524 73.9674 4.59179 71.7038 4.59179ZM71.3542 12.5951C70.3722 12.5951 69.2404 12.3525 69.2404 11.0914C69.2404 9.84647 70.522 9.58778 71.2544 9.58778H73.8842V10.283C73.9175 11.8998 72.5859 12.6436 71.3542 12.5951ZM79.5766 12.4981C79.2603 12.4981 78.9108 12.4011 78.9108 11.5441V0.743741C78.9108 0.339534 78.5946 0 78.1951 0C77.779 0 77.4794 0.355703 77.4794 0.743741V11.5441C77.4794 13.0478 78.245 13.8885 79.6432 13.8885C80.0593 13.8885 80.3589 13.5813 80.3589 13.1933C80.3089 12.7891 79.9927 12.4981 79.5766 12.4981ZM83.8542 12.4981C83.538 12.4981 83.1884 12.4011 83.1884 11.5441V0.743741C83.1884 0.339534 82.8722 0.0485048 82.4727 0C82.0566 0 81.757 0.355703 81.757 0.743741V11.5441C81.757 13.0478 82.5227 13.8885 83.9208 13.8885C84.3369 13.8885 84.6365 13.5813 84.6365 13.1933C84.5699 12.7891 84.2703 12.4981 83.8542 12.4981ZM93.3748 8.43983C93.3748 7.58291 93.1252 6.74217 92.6591 6.04693C91.9434 5.093 90.7617 4.54328 89.5133 4.64029C86.8835 4.64029 85.4021 6.33796 85.4021 9.29675C85.4021 12.3526 86.9001 14.0017 89.7297 14.0017C90.8615 14.0502 91.9933 13.646 92.8755 12.9023C93.0253 12.8053 93.1252 12.5951 93.1252 12.4011C93.1252 12.0454 92.8089 11.7543 92.4594 11.7543C92.3096 11.7543 92.1431 11.8028 92.0433 11.8998C91.4274 12.4011 90.5952 12.6921 89.7796 12.6921C88.0819 12.6921 87 11.5926 86.9501 9.84647H92.5093C93.3748 9.74946 93.3748 8.94105 93.3748 8.43983ZM89.5133 5.93375C91.0613 5.93375 91.8269 6.79067 91.8768 8.43983H86.8835C87.0999 6.83917 88.032 5.93375 89.5133 5.93375ZM99.1505 4.64029C98.1185 4.59178 97.1864 5.0445 96.5706 5.83674V5.43254C96.5706 5.02833 96.2543 4.6888 95.8549 4.6888C95.4554 4.6888 95.0892 4.99599 95.0892 5.38403V13.0801C95.0892 13.4843 95.4055 13.8239 95.8049 13.8239C96.221 13.8239 96.5706 13.5167 96.5706 13.1286V8.87638C96.5706 7.0817 97.5526 6.03076 99.1505 6.03076C99.5666 6.03076 99.8662 5.72356 99.8662 5.33553C99.8662 4.94749 99.5499 4.64029 99.1505 4.64029Z" fill="white"/>
<path d="M8.75498 2.9425H15.3462C16.5779 2.9425 17.5599 3.89643 17.5599 5.09288V11.4955C17.5599 16.2005 13.6484 20 8.80491 20H8.75498C3.91144 20 0 16.2005 0 11.4955C0 6.79055 3.91144 2.99101 8.75498 2.9425Z" fill="#CC4783"/>
<path d="M12.0505 12.7891C11.5845 12.7891 11.0685 12.7406 10.6025 12.5466C10.4027 12.4496 10.1864 12.4981 10.0366 12.6436L9.27092 13.4358C8.18903 12.8861 7.30687 12.0292 6.74096 10.9783L7.62312 10.186C7.72298 10.0405 7.77292 9.83033 7.72298 9.68482C7.57318 9.2321 7.47332 8.77939 7.47332 8.27817C7.47332 7.97098 7.27358 7.77696 7.00727 7.72845H5.50927C5.19303 7.72845 4.99329 7.92247 4.94336 8.18116V8.22967C4.94336 12.0292 8.13909 15.1335 12.1005 15.1335C12.4167 15.1335 12.6165 14.9395 12.6664 14.6808V13.2742C12.6664 12.967 12.4667 12.773 12.2003 12.7244C12.1005 12.7891 12.1005 12.7891 12.0505 12.7891Z" fill="white"/>
</svg>
