<svg width="20" height="20" viewBox="0 0 20 20" fill="none" xmlns="http://www.w3.org/2000/svg">
<path d="M1.11612 17.1161C0.627961 17.6043 0.627961 18.3957 1.11612 18.8839C1.60427 19.372 2.39573 19.372 2.88388 18.8839L1.11612 17.1161ZM19.25 2C19.25 1.30965 18.6904 0.750001 18 0.750001L6.75 0.75C6.05964 0.75 5.5 1.30964 5.5 2C5.5 2.69036 6.05964 3.25 6.75 3.25L16.75 3.25L16.75 13.25C16.75 13.9404 17.3096 14.5 18 14.5C18.6904 14.5 19.25 13.9404 19.25 13.25L19.25 2ZM2.88388 18.8839L18.8839 2.88388L17.1161 1.11612L1.11612 17.1161L2.88388 18.8839Z" fill="black"/>
</svg>
