<svg width="21" height="21" viewBox="0 0 21 21" fill="none" xmlns="http://www.w3.org/2000/svg">
<path d="M17.2121 0.50103C17.0249 0.491228 16.8348 0.55102 16.6907 0.695109L14.3912 2.99465C14.0766 3.30929 13.9393 3.76312 14.0266 4.19931L14.3363 5.75193C14.35 5.81956 14.3696 5.88523 14.3942 5.94797L9.46198 10.8802C9.28065 11.0616 9.28065 11.3556 9.46198 11.537C9.64332 11.7183 9.93736 11.7183 10.1187 11.537L15.0519 6.6047C15.1146 6.6292 15.1803 6.64979 15.2479 6.66253L16.8015 6.97325C17.2377 7.06049 17.6905 6.92425 18.0051 6.60961L20.3046 4.31007C20.6889 3.92585 20.4742 3.21226 19.941 3.10541L18.3884 2.79469C18.2953 2.77606 18.2247 2.70549 18.2061 2.61237L17.8954 1.05975C17.8287 0.72649 17.5248 0.516713 17.2121 0.50103ZM17.0612 1.63804L17.2935 2.79565C17.3856 3.25437 17.7463 3.61508 18.2051 3.70722L19.3626 3.93757L17.3474 5.95283C17.2514 6.04889 17.1151 6.08908 16.9828 6.06261L15.4302 5.75188C15.3371 5.73326 15.2665 5.66269 15.2479 5.56957L14.9372 4.01695C14.9107 3.88462 14.9519 3.74838 15.0479 3.65232L17.0612 1.63804ZM10.1196 1.92229C7.58002 1.83211 5.06877 2.7878 3.2192 4.63734C-0.406402 8.26301 -0.406402 14.1551 3.2192 17.7807C6.84481 21.4064 12.7368 21.4064 16.3624 17.7807C18.8285 15.3146 19.7057 11.6721 18.6344 8.35335L18.6334 8.35433C18.555 8.11026 18.2933 7.97598 18.0493 8.05439C17.9316 8.09262 17.8346 8.17496 17.7787 8.28474C17.7219 8.39452 17.7121 8.52292 17.7503 8.63958C18.7148 11.6281 17.9267 14.903 15.7057 17.124C12.4359 20.3938 7.1469 20.3938 3.87585 17.124C0.606056 13.8541 0.606056 8.56505 3.87585 5.29394C6.09693 3.07282 9.3716 2.2838 12.3601 3.24927C12.6042 3.32769 12.8659 3.19438 12.9453 2.95032C13.0237 2.70625 12.8894 2.44454 12.6453 2.36515C11.8161 2.09756 10.9664 1.9517 10.1196 1.92229ZM10.0049 5.17157C8.35336 5.11374 6.72034 5.73616 5.51867 6.93788C3.16332 9.29328 3.16332 13.1258 5.51867 15.4813C7.87402 17.8367 11.7065 17.8367 14.0619 15.4813C15.6645 13.8786 16.2349 11.5106 15.539 9.35307C15.5008 9.23545 15.4184 9.13841 15.3087 9.08255C15.1989 9.0257 15.0715 9.01589 14.9538 9.05412C14.8362 9.09137 14.7392 9.17468 14.6823 9.28447C14.6265 9.39425 14.6157 9.52167 14.6539 9.63931C15.244 11.4664 14.7617 13.467 13.4042 14.8245C11.4046 16.8241 8.17491 16.8241 6.1753 14.8245C4.17475 12.8239 4.17475 9.59514 6.1753 7.59549C7.53285 6.23791 9.53342 5.75568 11.3604 6.34574C11.478 6.38299 11.6054 6.37318 11.7152 6.31731C11.825 6.26046 11.9083 6.16342 11.9456 6.04581C11.9838 5.92818 11.974 5.80076 11.9171 5.69097C11.8613 5.58119 11.7642 5.49787 11.6466 5.46062C11.1075 5.28615 10.5548 5.19117 10.0049 5.17157ZM9.61581 8.42687C8.93852 8.46902 8.29944 8.75817 7.81914 9.23847C6.7341 10.3235 6.7341 12.0958 7.81914 13.1808C8.90419 14.2659 10.6764 14.2659 11.7614 13.1808C12.2417 12.7005 12.5308 12.0624 12.573 11.3841C12.5887 11.1283 12.3946 10.9078 12.1388 10.8921C12.0153 10.8842 11.8947 10.9254 11.8016 11.0068C11.7095 11.0881 11.6536 11.2038 11.6457 11.3263C11.6173 11.7782 11.4252 12.2036 11.1047 12.5231C10.3745 13.2533 9.2061 13.2533 8.47576 12.5231C7.74653 11.7938 7.74653 10.6245 8.47576 9.89511C8.79627 9.5746 9.22267 9.38246 9.67451 9.35406C9.79703 9.34622 9.91171 9.29035 9.99403 9.19821C10.0754 9.10509 10.1166 8.98453 10.1087 8.86101C10.1009 8.73849 10.045 8.62381 9.95286 8.54148C9.85975 8.46012 9.73933 8.41903 9.61581 8.42687Z" fill="white" stroke="#FC766A"/>
</svg>
