<svg width="25" height="30" viewBox="0 0 25 30" fill="none" xmlns="http://www.w3.org/2000/svg">
<path d="M12.5 0.200195C19.293 0.200195 24.7998 5.70689 24.7998 12.5C24.7998 17.4186 21.7224 21.7444 18.6084 24.8584C17.0549 26.4119 15.501 27.6556 14.335 28.5107C13.7522 28.9381 13.267 29.2683 12.9277 29.4912C12.7581 29.6027 12.6246 29.6875 12.5342 29.7441C12.508 29.7606 12.4847 29.7735 12.4658 29.7852C12.4347 29.7736 12.3931 29.7567 12.3418 29.7324C12.2277 29.6784 12.0739 29.5958 11.8848 29.4854C11.5065 29.2644 10.996 28.9356 10.3994 28.5088C9.20641 27.6552 7.67298 26.4129 6.15918 24.8604C3.12547 21.7489 0.200195 17.422 0.200195 12.5C0.200195 5.70689 5.70689 0.200195 12.5 0.200195ZM12.5 2.2998C6.86669 2.2998 2.2998 6.86669 2.2998 12.5C2.2998 16.603 4.76664 20.4248 7.66211 23.3945C9.07675 24.8454 10.5129 26.0088 11.6211 26.8018C11.8562 26.9698 12.0735 27.119 12.2695 27.249L12.3838 27.3242L12.4951 27.2461C12.6779 27.1179 12.8781 26.9749 13.0928 26.8174C14.1979 26.0071 15.6655 24.8327 17.124 23.374C20.1227 20.3755 22.7002 16.5634 22.7002 12.5C22.7002 6.86669 18.1333 2.2998 12.5 2.2998ZM12.5 7.7002C15.151 7.7002 17.2998 9.84904 17.2998 12.5C17.2998 15.151 15.151 17.2998 12.5 17.2998C9.84896 17.2998 7.7002 15.151 7.7002 12.5C7.7002 9.84904 9.84896 7.7002 12.5 7.7002ZM12.5 9.7998C11.0089 9.7998 9.7998 11.0088 9.7998 12.5C9.7998 13.9911 11.0089 15.2002 12.5 15.2002C13.9911 15.2002 15.2002 13.9911 15.2002 12.5C15.2002 11.0088 13.9911 9.7998 12.5 9.7998Z" fill="white" stroke="#110D0C" stroke-width="0.4"/>
</svg>
