<svg xmlns="http://www.w3.org/2000/svg" width="85.829" height="83.494" viewBox="0 0 85.829 83.494">
  <g id="noun_search_engine_3152603" data-name="noun_search engine_3152603" transform="translate(-7.971 -92)">
    <g id="Group_5143" data-name="Group 5143" transform="translate(7.971 92)">
      <path id="Path_10176" data-name="Path 10176" d="M163.405,159.363H139.493v-2.982h23.554V94.972H83.182v61.41h21.785v2.982H82.824A2.628,2.628,0,0,1,80.2,156.74V94.624A2.628,2.628,0,0,1,82.824,92h80.582a2.628,2.628,0,0,1,2.624,2.624V156.74A2.628,2.628,0,0,1,163.405,159.363Z" transform="translate(-80.2 -92)"/>
      <rect id="Rectangle_662" data-name="Rectangle 662" width="82.858" height="2.982" transform="translate(1.491 11.708)"/>
      <rect id="Rectangle_663" data-name="Rectangle 663" width="3.141" height="2.982" transform="translate(6.271 5.953)"/>
      <rect id="Rectangle_664" data-name="Rectangle 664" width="3.141" height="2.982" transform="translate(12.334 5.953)"/>
      <rect id="Rectangle_665" data-name="Rectangle 665" width="3.141" height="2.982" transform="translate(18.386 5.953)"/>
      <path id="Path_10177" data-name="Path 10177" d="M247.992,404.164a22.275,22.275,0,0,1-12.851-4.075,22.279,22.279,0,1,1,28.593-33.96,22.3,22.3,0,0,1,1.59,29.756h0c-.119.139-.229.278-.348.417-.4.467-.805.914-1.232,1.332s-.875.835-1.332,1.232c-.139.119-.278.239-.427.358-.378.308-.765.6-1.153.875A22.212,22.212,0,0,1,247.992,404.164Zm0-41.583a19.3,19.3,0,0,0-13.646,32.946,18.947,18.947,0,0,0,2.524,2.127,19.285,19.285,0,0,0,22.252,0c.338-.239.666-.487.994-.755.119-.1.248-.2.368-.308.4-.338.785-.7,1.153-1.063s.726-.755,1.073-1.153l.308-.368a19.309,19.309,0,0,0-15.027-31.426Z" transform="translate(-211.239 -333.004)"/>
      <path id="Path_10178" data-name="Path 10178" d="M610.049,749.365a5.39,5.39,0,0,1-3.836-1.59L595.3,736.863l7.663-7.663,10.922,10.913a5.417,5.417,0,0,1,0,7.663h0A5.39,5.39,0,0,1,610.049,749.365Zm-10.535-12.5,8.806,8.806a2.43,2.43,0,0,0,1.719.716,2.373,2.373,0,0,0,1.719-.716,2.435,2.435,0,0,0,0-3.449l-8.806-8.806Z" transform="translate(-544.107 -665.872)"/>
      <path id="Path_10179" data-name="Path 10179" d="M565.937,705.065,559,698.128l1.282-1.044c.129-.1.248-.209.378-.308.4-.338.785-.7,1.153-1.063s.726-.755,1.073-1.153c.1-.119.209-.248.308-.378l1.044-1.282,6.937,6.937Zm-2.534-6.748,2.534,2.534,1.014-1.014-2.534-2.534c-.169.179-.328.348-.5.517S563.582,698.148,563.4,698.317Z" transform="translate(-511.414 -633.179)"/>
      <path id="Path_10180" data-name="Path 10180" d="M292.521,491.9a16.124,16.124,0,0,1,0-22.8l2.107,2.107a13.149,13.149,0,0,0,0,18.585Z" transform="translate(-267.168 -431.622)"/>
      <path id="Path_10181" data-name="Path 10181" d="M399.107,426.984,397,424.877l13.854-13.854,6.341,6.331L432.749,401.8l2.107,2.107L417.2,421.578l-6.341-6.341Z" transform="translate(-365.515 -371.01)"/>
      <path id="Path_10182" data-name="Path 10182" d="M697.1,406.812H694.12v-6.43H687.7V397.4h9.4Z" transform="translate(-627.323 -367.048)"/>
    </g>
  </g>
</svg>
