<svg width="37" height="35" viewBox="0 0 37 35" fill="none" xmlns="http://www.w3.org/2000/svg">
<g clip-path="url(#clip0_25472_1421)">
<path d="M26.223 3.22625L3.87142 17.382L1.94922 14.3521V11.7412C1.94922 10.7907 2.43097 9.90474 3.22916 9.38742L16.2221 0.963691C18.2016 -0.319717 20.7513 -0.319971 22.7311 0.963185L26.223 3.22625Z" fill="url(#paint0_linear_25472_1421)"/>
<path d="M22.5312 0.838867C22.5984 0.878641 22.6651 0.920189 22.7313 0.963003L32.8712 7.53484L7.72918 23.4579L3.87109 17.3765L22.323 5.66799C24.0708 4.55888 24.1474 2.06401 22.5312 0.838867Z" fill="url(#paint1_linear_25472_1421)"/>
<path d="M22.5312 0.838867C22.5984 0.878641 22.6651 0.920189 22.7313 0.963003L32.8712 7.53484L7.72918 23.4579L3.87109 17.3765L22.323 5.66799C24.0708 4.55888 24.1474 2.06401 22.5312 0.838867Z" fill="url(#paint2_linear_25472_1421)"/>
<path d="M17.7594 26.4987L7.72852 23.4584L29.0555 9.9509C30.8517 8.81342 30.8471 6.1934 29.0469 5.06225L28.9508 5.00195L29.2274 5.17372L35.7182 9.38064C36.5166 9.89796 36.9984 10.7841 36.9984 11.7349V14.2617L17.7594 26.4987Z" fill="url(#paint3_linear_25472_1421)"/>
<path d="M17.7594 26.4987L7.72852 23.4584L29.0555 9.9509C30.8517 8.81342 30.8471 6.1934 29.0469 5.06225L28.9508 5.00195L29.2274 5.17372L35.7182 9.38064C36.5166 9.89796 36.9984 10.7841 36.9984 11.7349V14.2617L17.7594 26.4987Z" fill="url(#paint4_linear_25472_1421)"/>
<path d="M22.7311 0.963185C20.7513 -0.319971 18.2016 -0.319717 16.2218 0.963691L3.22916 9.38742C2.43097 9.90474 1.94922 10.7907 1.94922 11.7412V11.8689C1.98066 12.8232 2.48321 13.7025 3.29509 14.214L19.4503 24.3903L35.6464 14.2295C36.4877 13.7018 36.9981 12.7791 36.9981 11.7868V14.2621L36.9986 11.7351C36.9986 10.7843 36.5166 9.89841 35.7184 9.38084L22.7311 0.963185Z" fill="url(#paint5_radial_25472_1421)"/>
<path d="M16.6017 34.9992H30.911C34.2719 34.9992 36.9963 32.2771 36.9963 28.9191V11.7871C36.9963 12.7794 36.4859 13.7021 35.6449 14.2298L14.3605 27.5827C13.2124 28.3032 12.5156 29.5625 12.5156 30.9171C12.5159 33.1716 14.345 34.9992 16.6017 34.9992Z" fill="url(#paint6_linear_25472_1421)"/>
<path d="M16.6017 34.9992H30.911C34.2719 34.9992 36.9963 32.2771 36.9963 28.9191V11.7871C36.9963 12.7794 36.4859 13.7021 35.6449 14.2298L14.3605 27.5827C13.2124 28.3032 12.5156 29.5625 12.5156 30.9171C12.5159 33.1716 14.345 34.9992 16.6017 34.9992Z" fill="url(#paint7_radial_25472_1421)"/>
<path d="M16.6017 34.9992H30.911C34.2719 34.9992 36.9963 32.2771 36.9963 28.9191V11.7871C36.9963 12.7794 36.4859 13.7021 35.6449 14.2298L14.3605 27.5827C13.2124 28.3032 12.5156 29.5625 12.5156 30.9171C12.5159 33.1716 14.345 34.9992 16.6017 34.9992Z" fill="url(#paint8_radial_25472_1421)"/>
<path d="M22.4188 34.9981H8.03063C4.66976 34.9981 1.94531 32.276 1.94531 28.918V11.7744C1.94531 12.765 2.45394 13.6861 3.29245 14.2143L24.5558 27.608C25.7199 28.3412 26.4258 29.6203 26.4258 30.9951C26.4255 33.206 24.6316 34.9981 22.4188 34.9981Z" fill="url(#paint9_radial_25472_1421)"/>
<path d="M22.4188 34.9981H8.03063C4.66976 34.9981 1.94531 32.276 1.94531 28.918V11.7744C1.94531 12.765 2.45394 13.6861 3.29245 14.2143L24.5558 27.608C25.7199 28.3412 26.4258 29.6203 26.4258 30.9951C26.4255 33.206 24.6316 34.9981 22.4188 34.9981Z" fill="url(#paint10_linear_25472_1421)"/>
<path d="M3.16436 16.5117H12.414C14.1618 16.5117 15.5784 17.9271 15.5784 19.6734V28.9151C15.5784 30.6614 14.1618 32.0768 12.414 32.0768H3.16436C1.41661 32.0768 0 30.6614 0 28.9151V19.6734C0 17.9271 1.41661 16.5117 3.16436 16.5117Z" fill="url(#paint11_radial_25472_1421)"/>
<path d="M3.16436 16.5117H12.414C14.1618 16.5117 15.5784 17.9271 15.5784 19.6734V28.9151C15.5784 30.6614 14.1618 32.0768 12.414 32.0768H3.16436C1.41661 32.0768 0 30.6614 0 28.9151V19.6734C0 17.9271 1.41661 16.5117 3.16436 16.5117Z" fill="url(#paint12_radial_25472_1421)"/>
<path d="M7.7488 28.7692C6.46049 28.7692 5.40317 28.3664 4.57633 27.5613C3.74949 26.7562 3.33594 25.7054 3.33594 24.4091C3.33594 23.04 3.75557 21.9329 4.59484 21.0873C5.43436 20.2419 6.53326 19.8193 7.89206 19.8193C9.17606 19.8193 10.221 20.2239 11.027 21.0331C11.8374 21.8422 12.2426 22.9093 12.2426 24.2337C12.2426 25.5947 11.8227 26.6916 10.9834 27.5251C10.1482 28.3545 9.07008 28.7692 7.7488 28.7692ZM7.78608 27.0602C8.48817 27.0602 9.05334 26.8206 9.48134 26.3415C9.90934 25.8625 10.1233 25.1959 10.1233 24.3424C10.1233 23.4527 9.91543 22.7603 9.5001 22.2651C9.08453 21.7698 8.52975 21.5223 7.83603 21.5223C7.12126 21.5223 6.54569 21.7779 6.10957 22.2891C5.6732 22.7966 5.45515 23.4689 5.45515 24.3062C5.45515 25.1559 5.6732 25.8283 6.10957 26.3233C6.54569 26.8145 7.10452 27.0602 7.78608 27.0602Z" fill="white"/>
<path d="M7.74574 28.8889C6.4625 28.8889 5.40898 28.4755 4.58518 27.6483C3.76164 26.8212 3.34961 25.7417 3.34961 24.4102C3.34961 23.0039 3.76772 21.8667 4.60394 20.9982C5.44017 20.1295 6.53502 19.6953 7.88849 19.6953C9.16742 19.6953 10.2085 20.111 11.0115 20.9422C11.8188 21.7737 12.2222 22.8696 12.2222 24.2303C12.2222 25.628 11.8041 26.7551 10.9682 27.6111C10.136 28.4631 9.06194 28.8889 7.74574 28.8889ZM7.78276 27.1336C8.48232 27.1336 9.04546 26.8873 9.47169 26.3953C9.89817 25.9031 10.1112 25.2186 10.1112 24.3418C10.1112 23.4277 9.90425 22.7166 9.49045 22.2079C9.0764 21.6992 8.5239 21.4449 7.83271 21.4449C7.12047 21.4449 6.54719 21.7073 6.11259 22.2327C5.678 22.7536 5.46071 23.4445 5.46071 24.3045C5.46071 25.1773 5.678 25.8679 6.11259 26.3766C6.54719 26.8812 7.10399 27.1336 7.78276 27.1336Z" fill="white"/>
</g>
<defs>
<linearGradient id="paint0_linear_25472_1421" x1="5.83167" y1="15.8942" x2="26.2132" y2="3.24173" gradientUnits="userSpaceOnUse">
<stop stop-color="#20A7FA"/>
<stop offset="0.4" stop-color="#3BD5FF"/>
<stop offset="1" stop-color="#C4B0FF"/>
</linearGradient>
<linearGradient id="paint1_linear_25472_1421" x1="12.8503" y1="20.203" x2="24.1881" y2="2.03296" gradientUnits="userSpaceOnUse">
<stop stop-color="#165AD9"/>
<stop offset="0.5008" stop-color="#1880E5"/>
<stop offset="1" stop-color="#8587FF"/>
</linearGradient>
<linearGradient id="paint2_linear_25472_1421" x1="21.1295" y1="20.45" x2="8.53502" y2="10.179" gradientUnits="userSpaceOnUse">
<stop offset="0.236946" stop-color="#448AFF" stop-opacity="0"/>
<stop offset="0.792113" stop-color="#0032B1" stop-opacity="0.2"/>
</linearGradient>
<linearGradient id="paint3_linear_25472_1421" x1="19.5249" y1="24.4013" x2="39.4326" y2="11.6495" gradientUnits="userSpaceOnUse">
<stop stop-color="#1A43A6"/>
<stop offset="0.492267" stop-color="#2052CB"/>
<stop offset="1" stop-color="#5F20CB"/>
</linearGradient>
<linearGradient id="paint4_linear_25472_1421" x1="25.1474" y1="23.64" x2="13.0533" y2="13.1656" gradientUnits="userSpaceOnUse">
<stop stop-color="#0045B9" stop-opacity="0"/>
<stop offset="0.669859" stop-color="#0D1F69" stop-opacity="0.2"/>
</linearGradient>
<radialGradient id="paint5_radial_25472_1421" cx="0" cy="0" r="1" gradientUnits="userSpaceOnUse" gradientTransform="translate(19.4752 0.769803) rotate(-90) scale(26.2687 28.4561)">
<stop offset="0.568182" stop-color="#275FF0" stop-opacity="0"/>
<stop offset="0.992424" stop-color="#002177"/>
</radialGradient>
<linearGradient id="paint6_linear_25472_1421" x1="36.9964" y1="23.2667" x2="19.3283" y2="23.2667" gradientUnits="userSpaceOnUse">
<stop stop-color="#4DC4FF"/>
<stop offset="0.196145" stop-color="#0FAFFF"/>
</linearGradient>
<radialGradient id="paint7_radial_25472_1421" cx="0" cy="0" r="1" gradientTransform="matrix(7.96703 -7.96021 7.96703 7.96021 23.4576 31.0187)" gradientUnits="userSpaceOnUse">
<stop offset="0.259477" stop-color="#0060D1" stop-opacity="0.4"/>
<stop offset="0.908166" stop-color="#0383F1" stop-opacity="0"/>
</radialGradient>
<radialGradient id="paint8_radial_25472_1421" cx="0" cy="0" r="1" gradientTransform="matrix(23.1993 -30.3808 27.4955 20.9601 6.45632 39.3463)" gradientUnits="userSpaceOnUse">
<stop offset="0.732317" stop-color="#F4A7F7" stop-opacity="0"/>
<stop offset="1" stop-color="#F4A7F7" stop-opacity="0.501961"/>
</radialGradient>
<radialGradient id="paint9_radial_25472_1421" cx="0" cy="0" r="1" gradientTransform="matrix(-11.0906 16.8443 -43.7505 -28.7567 14.1856 20.921)" gradientUnits="userSpaceOnUse">
<stop stop-color="#49DEFF"/>
<stop offset="0.724349" stop-color="#29C3FF"/>
</radialGradient>
<linearGradient id="paint10_linear_25472_1421" x1="-0.529373" y1="30.9804" x2="16.4818" y2="30.9681" gradientUnits="userSpaceOnUse">
<stop offset="0.205882" stop-color="#6CE0FF"/>
<stop offset="0.535" stop-color="#50D5FF" stop-opacity="0"/>
</linearGradient>
<radialGradient id="paint11_radial_25472_1421" cx="0" cy="0" r="1" gradientTransform="matrix(14.0054 14.9664 -14.9792 13.9935 -0.0555857 17.1104)" gradientUnits="userSpaceOnUse">
<stop offset="0.038877" stop-color="#0091FF"/>
<stop offset="0.919119" stop-color="#183DAD"/>
</radialGradient>
<radialGradient id="paint12_radial_25472_1421" cx="0" cy="0" r="1" gradientUnits="userSpaceOnUse" gradientTransform="translate(7.7892 25.9907) rotate(90) scale(10.8955 12.5784)">
<stop offset="0.557796" stop-color="#0FA5F7" stop-opacity="0"/>
<stop offset="1" stop-color="#74C6FF" stop-opacity="0.501961"/>
</radialGradient>
<clipPath id="clip0_25472_1421">
<rect width="37" height="35" fill="white"/>
</clipPath>
</defs>
</svg>
