<svg width="152" height="44" viewBox="0 0 152 44" fill="none" xmlns="http://www.w3.org/2000/svg">
<path d="M16.4619 7.13477V19.2876H5.29706V7.13477H0V36.1453H5.29849V24.3868H16.4605V36.1453H21.7604V7.13477H16.4619ZM38.7198 26.7686C38.7198 27.9314 38.2579 29.0466 37.4357 29.8688C36.6135 30.691 35.4983 31.1529 34.3355 31.1529C33.1727 31.1529 32.0575 30.691 31.2353 29.8688C30.4131 29.0466 29.9512 27.9314 29.9512 26.7686V14.3419H24.9251V26.7686C24.9251 29.2619 25.9156 31.6531 27.6786 33.4161C29.4417 35.1792 31.8329 36.1696 34.3262 36.1696C36.8195 36.1696 39.2107 35.1792 40.9737 33.4161C42.7368 31.6531 43.7272 29.2619 43.7272 26.7686V14.3419H38.7198V26.7686ZM75.9613 15.6224C75.9613 13.0742 77.6462 12.2669 79.4917 12.2669C80.9801 12.2669 82.9447 13.3997 84.2309 14.7735L87.5219 10.8932C85.8786 8.67054 82.546 7.13477 79.8172 7.13477C74.3638 7.13477 70.4205 10.3282 70.4205 15.6224C70.4205 25.445 82.4256 22.3276 82.4256 27.8254C82.4256 29.5204 80.7794 31.0174 78.8952 31.0174C75.9226 31.0174 74.9589 29.5648 73.5938 28.0276L69.9401 31.8262C72.2774 34.6941 75.1597 36.151 78.6112 36.151C83.7921 36.151 87.9592 32.9188 87.9592 27.8656C87.9592 16.9617 75.9527 20.3502 75.9527 15.6224M150.232 31.5107C147.262 31.5107 146.418 30.2259 146.418 28.2585V19.5471H151.035V15.1334H146.418V9.31009L141.321 11.5973V29.3411C141.321 33.8796 144.453 36.1668 148.746 36.1668C149.42 36.1782 150.094 36.1237 150.757 36.0062L152 31.429C151.439 31.4677 150.795 31.5064 150.232 31.5064M57.8518 14.4867C55.3624 14.4867 53.6245 15.2094 51.9438 16.857V7.30827H46.9106V25.0077C46.9106 31.6326 51.7001 36.1725 57.0832 36.1725C63.0542 36.1725 68.3068 31.5523 68.3068 25.3317C68.3068 19.1887 63.4729 14.491 57.8518 14.491M57.8202 31.1063C57.0701 31.1063 56.3273 30.9586 55.6343 30.6715C54.9412 30.3844 54.3115 29.9637 53.7811 29.4333C53.2507 28.9028 52.8299 28.2731 52.5429 27.5801C52.2558 26.8871 52.108 26.1443 52.108 25.3941C52.108 24.644 52.2558 23.9012 52.5429 23.2082C52.8299 22.5151 53.2507 21.8854 53.7811 21.355C54.3115 20.8246 54.9412 20.4038 55.6343 20.1167C56.3273 19.8297 57.0701 19.6819 57.8202 19.6819C59.3352 19.6819 60.7881 20.2838 61.8594 21.355C62.9306 22.4262 63.5324 23.8792 63.5324 25.3941C63.5324 26.9091 62.9306 28.362 61.8594 29.4333C60.7881 30.5045 59.3352 31.1063 57.8202 31.1063ZM112.514 25.0679C112.514 18.8359 107.273 14.2271 101.291 14.2271C95.9091 14.2271 91.1183 18.7656 91.1183 25.392V43.1014H96.1515V33.5398C97.8292 35.1845 99.57 35.9101 102.057 35.9101C107.678 35.9101 112.514 31.2124 112.514 25.0679ZM107.748 25.0048C107.748 26.5198 107.146 27.9727 106.075 29.0439C105.004 30.1152 103.551 30.717 102.036 30.717C100.521 30.717 99.0678 30.1152 97.9966 29.0439C96.9254 27.9727 96.3235 26.5198 96.3235 25.0048C96.3235 23.4898 96.9254 22.0369 97.9966 20.9657C99.0678 19.8944 100.521 19.2926 102.036 19.2926C103.551 19.2926 105.004 19.8944 106.075 20.9657C107.146 22.0369 107.748 23.4898 107.748 25.0048Z" fill="white"/>
<path d="M128.777 13.984V8.92641C129.446 8.61405 130.012 8.11829 130.409 7.49684C130.807 6.87538 131.02 6.1538 131.023 5.41607V5.29992C131.023 3.14898 129.279 1.40528 127.128 1.40528H127.012C125.979 1.40528 124.989 1.81561 124.258 2.546C123.528 3.27638 123.118 4.267 123.118 5.29992V5.41607C123.121 6.1538 123.334 6.87538 123.731 7.49684C124.129 8.11829 124.695 8.61405 125.363 8.92641V13.984C123.442 14.2781 121.633 15.0746 120.119 16.2927L106.248 5.48921C106.347 5.13215 106.399 4.76506 106.405 4.39653C106.406 3.52856 106.151 2.67958 105.67 1.95698C105.189 1.23439 104.505 0.670636 103.703 0.337037C102.902 0.00343851 102.02 -0.0850196 101.168 0.0828522C100.317 0.250724 99.5339 0.667384 98.9192 1.28013C98.3044 1.89287 97.8852 2.67417 97.7146 3.5252C97.5439 4.37623 97.6295 5.25876 97.9605 6.06114C98.2914 6.86353 98.8529 7.54974 99.574 8.03296C100.295 8.51618 101.143 8.77471 102.011 8.77585C102.77 8.77227 103.516 8.56955 104.172 8.18792L117.831 18.8165C116.604 20.6701 115.963 22.8504 115.994 25.0731C116.024 27.2959 116.723 29.4579 118 31.2776L113.846 35.4332C113.51 35.3258 113.16 35.2688 112.807 35.264C112.095 35.2646 111.399 35.4763 110.806 35.8725C110.214 36.2687 109.753 36.8315 109.48 37.4899C109.208 38.1482 109.137 38.8725 109.276 39.5713C109.415 40.27 109.758 40.9118 110.262 41.4156C110.766 41.9194 111.408 42.2626 112.107 42.4017C112.805 42.5408 113.53 42.4697 114.188 42.1973C114.846 41.9249 115.409 41.4635 115.805 40.8714C116.201 40.2792 116.413 39.5829 116.414 38.8704C116.409 38.5179 116.352 38.168 116.245 37.8322L120.354 33.7211C121.694 34.7528 123.253 35.4641 124.911 35.8005C126.568 36.1368 128.281 36.0893 129.917 35.6616C131.553 35.2339 133.07 34.4373 134.351 33.3329C135.632 32.2284 136.643 30.8455 137.307 29.2899C137.971 27.7343 138.27 26.0474 138.181 24.3585C138.092 22.6695 137.618 21.0233 136.795 19.5459C135.971 18.0685 134.821 16.7991 133.431 15.835C132.041 14.871 130.45 14.2378 128.777 13.984ZM127.074 30.618C126.314 30.6389 125.558 30.5073 124.851 30.2311C124.143 29.9549 123.497 29.5396 122.953 29.0097C122.408 28.4799 121.975 27.8463 121.68 27.1463C121.384 26.4464 121.232 25.6943 121.232 24.9345C121.232 24.1746 121.384 23.4225 121.68 22.7226C121.975 22.0226 122.408 21.389 122.953 20.8592C123.497 20.3293 124.143 19.914 124.851 19.6378C125.558 19.3616 126.314 19.23 127.074 19.2509C128.546 19.3025 129.941 19.9233 130.964 20.9827C131.987 22.0421 132.56 23.4573 132.561 24.9303C132.561 26.4032 131.99 27.819 130.968 28.8794C129.946 29.9398 128.552 30.5621 127.08 30.6151" fill="#FF7A59"/>
</svg>
