<svg xmlns="http://www.w3.org/2000/svg" width="20" height="20.076" viewBox="0 0 20 20.076">
  <g id="download" transform="translate(-0.756)">
    <path id="Path_7664" data-name="Path 7664" d="M4.809,13.345a21.3,21.3,0,0,0,7.084,5.549,11.026,11.026,0,0,0,3.964,1.173c.1,0,.187.008.283.008a3.283,3.283,0,0,0,2.546-1.094.092.092,0,0,0,.017-.021,10.714,10.714,0,0,1,.8-.832c.2-.187.4-.383.587-.582a2.009,2.009,0,0,0-.008-2.991l-2.5-2.5a2.024,2.024,0,0,0-1.464-.674,2.092,2.092,0,0,0-1.481.67l-1.489,1.489c-.137-.079-.279-.15-.412-.216a5.144,5.144,0,0,1-.458-.25A15.761,15.761,0,0,1,8.515,9.647a9.078,9.078,0,0,1-1.273-2.03c.391-.354.757-.724,1.111-1.086.125-.129.254-.258.383-.387a2.133,2.133,0,0,0,.691-1.5,2.116,2.116,0,0,0-.691-1.5L7.5,1.909c-.146-.146-.283-.287-.424-.433C6.8,1.194,6.51.9,6.227.641A2.074,2.074,0,0,0,4.763,0,2.135,2.135,0,0,0,3.282.645L1.726,2.2A3.2,3.2,0,0,0,.773,4.247a7.7,7.7,0,0,0,.578,3.328A19.36,19.36,0,0,0,4.809,13.345Zm-3.02-9.01A2.2,2.2,0,0,1,2.45,2.92L4,1.373a1.12,1.12,0,0,1,.765-.354,1.063,1.063,0,0,1,.749.362c.279.258.541.528.824.815.141.146.287.291.433.441l1.24,1.24a1.13,1.13,0,0,1,.391.778,1.129,1.129,0,0,1-.391.778c-.129.129-.258.262-.387.391-.387.391-.749.761-1.148,1.115l-.021.021a.813.813,0,0,0-.208.923c0,.012.008.021.012.033a9.791,9.791,0,0,0,1.46,2.375,16.634,16.634,0,0,0,4.01,3.652,5.958,5.958,0,0,0,.549.3,5.144,5.144,0,0,1,.458.25l.046.025a.869.869,0,0,0,.4.1.882.882,0,0,0,.62-.283l1.556-1.556a1.1,1.1,0,0,1,.761-.37,1.045,1.045,0,0,1,.736.37l2.508,2.5a1,1,0,0,1-.012,1.568c-.175.187-.358.366-.553.553a11.983,11.983,0,0,0-.869.9,2.284,2.284,0,0,1-1.785.757c-.071,0-.146,0-.216-.008a10.018,10.018,0,0,1-3.586-1.073A20.234,20.234,0,0,1,5.6,12.7a18.532,18.532,0,0,1-3.286-5.47A6.709,6.709,0,0,1,1.789,4.335Z" transform="translate(0 0)"/>
  </g>
</svg>
