<svg width="18" height="18" viewBox="0 0 18 18" fill="none" xmlns="http://www.w3.org/2000/svg">
<path d="M8.99925 5.53275C8.07948 5.53275 7.19738 5.89813 6.547 6.5485C5.89663 7.19888 5.53125 8.08098 5.53125 9.00075C5.53125 9.92052 5.89663 10.8026 6.547 11.453C7.19738 12.1034 8.07948 12.4687 8.99925 12.4687C9.91902 12.4687 10.8011 12.1034 11.4515 11.453C12.1019 10.8026 12.4672 9.92052 12.4672 9.00075C12.4672 8.08098 12.1019 7.19888 11.4515 6.5485C10.8011 5.89813 9.91902 5.53275 8.99925 5.53275V5.53275ZM8.99925 11.253C8.40172 11.253 7.82866 11.0156 7.40614 10.5931C6.98362 10.1706 6.74625 9.59753 6.74625 9C6.74625 8.40247 6.98362 7.82941 7.40614 7.40689C7.82866 6.98437 8.40172 6.747 8.99925 6.747C9.59678 6.747 10.1698 6.98437 10.5924 7.40689C11.0149 7.82941 11.2523 8.40247 11.2523 9C11.2523 9.59753 11.0149 10.1706 10.5924 10.5931C10.1698 11.0156 9.59678 11.253 8.99925 11.253V11.253Z" fill="#005463"/>
<path d="M12.6045 6.21375C13.051 6.21375 13.413 5.85177 13.413 5.40525C13.413 4.95873 13.051 4.59675 12.6045 4.59675C12.158 4.59675 11.796 4.95873 11.796 5.40525C11.796 5.85177 12.158 6.21375 12.6045 6.21375Z" fill="#005463"/>
<path d="M15.3997 4.58325C15.2261 4.13489 14.9608 3.72771 14.6207 3.38779C14.2807 3.04788 13.8734 2.7827 13.425 2.60925C12.9002 2.41227 12.3458 2.30576 11.7855 2.29425C11.0632 2.26275 10.8345 2.25375 9.00296 2.25375C7.17146 2.25375 6.93671 2.25375 6.22046 2.29425C5.66051 2.30517 5.10653 2.4117 4.58246 2.60925C4.13392 2.7825 3.72654 3.0476 3.38647 3.38755C3.04639 3.72749 2.78114 4.13477 2.60771 4.58325C2.41069 5.10796 2.30443 5.66238 2.29346 6.22275C2.26121 6.94425 2.25146 7.173 2.25146 9.00525C2.25146 10.8367 2.25146 11.07 2.29346 11.7877C2.30471 12.3487 2.41046 12.9022 2.60771 13.428C2.78162 13.8763 3.04714 14.2834 3.38729 14.6233C3.72745 14.9632 4.13476 15.2284 4.58321 15.402C5.10629 15.6069 5.66049 15.721 6.22196 15.7395C6.94421 15.771 7.17296 15.7807 9.00446 15.7807C10.836 15.7807 11.0707 15.7807 11.787 15.7395C12.3473 15.7281 12.9016 15.6219 13.4265 15.4253C13.8748 15.2514 14.2819 14.986 14.6219 14.646C14.962 14.306 15.2274 13.8988 15.4012 13.4505C15.5985 12.9255 15.7042 12.372 15.7155 11.811C15.7477 11.0895 15.7575 10.8607 15.7575 9.0285C15.7575 7.19625 15.7575 6.96375 15.7155 6.246C15.7067 5.6777 15.5999 5.11519 15.3997 4.58325V4.58325ZM14.4862 11.7322C14.4814 12.1645 14.4025 12.5927 14.253 12.9982C14.1403 13.2899 13.9679 13.5547 13.7468 13.7758C13.5256 13.9968 13.2607 14.169 12.969 14.2815C12.5679 14.4303 12.1442 14.5092 11.7165 14.5147C11.004 14.5477 10.803 14.556 8.97597 14.556C7.14747 14.556 6.96071 14.556 6.23471 14.5147C5.80716 14.5095 5.38371 14.4306 4.98296 14.2815C4.69023 14.1697 4.42422 13.9978 4.20213 13.7767C3.98005 13.5557 3.80684 13.2905 3.69371 12.9982C3.5463 12.597 3.46745 12.1739 3.46046 11.7465C3.42821 11.034 3.42071 10.833 3.42071 9.006C3.42071 7.17825 3.42071 6.9915 3.46046 6.26475C3.46531 5.83277 3.54421 5.40481 3.69371 4.9995C3.92246 4.40775 4.39121 3.942 4.98296 3.7155C5.38391 3.5671 5.80723 3.48822 6.23471 3.48225C6.94796 3.45 7.14822 3.441 8.97597 3.441C10.8037 3.441 10.9912 3.441 11.7165 3.48225C12.1443 3.4874 12.568 3.5663 12.969 3.7155C13.2607 3.8282 13.5256 4.00065 13.7467 4.22177C13.9678 4.44289 14.1403 4.7078 14.253 4.9995C14.4004 5.40071 14.4792 5.82387 14.4862 6.25125C14.5185 6.9645 14.5267 7.16475 14.5267 8.9925C14.5267 10.8195 14.5267 11.016 14.4945 11.733H14.4862V11.7322Z" fill="#005463"/>
</svg>
