<svg width="195" height="40" viewBox="0 0 195 40" fill="none" xmlns="http://www.w3.org/2000/svg">
<path d="M48.6015 0.970084C43.5893 0.970084 41.8109 4.46238 41.8109 7.76067V9.76551H40.8084C40 9.76551 39.418 10.3799 39.418 11.156C39.418 11.932 40.0324 12.5464 40.8084 12.5464H41.8109V26.3539C41.8109 27.1623 42.4252 27.8414 43.2983 27.8414C44.1714 27.8414 44.7858 27.227 44.7858 26.3539V12.4494H47.9871C48.7955 12.4494 49.3775 11.835 49.3775 11.059C49.3775 10.2829 48.7631 9.6685 47.9871 9.6685H44.8181V7.696C44.8181 5.88517 45.5295 3.68632 48.7308 3.68632C49.5392 3.68632 50.1213 3.07193 50.1213 2.39288C49.9919 1.58447 49.4099 0.970084 48.6015 0.970084ZM60.0162 9.28047C58.0113 9.18346 56.2005 10.0889 55.004 11.6733V10.8649C55.004 10.0565 54.3897 9.37747 53.5166 9.37747C52.6112 9.37747 52.0291 10.0889 52.0291 10.8649V26.2569C52.0291 27.0653 52.6435 27.7444 53.5166 27.7444C54.422 27.7444 55.004 27.13 55.004 26.2569V17.7525C55.004 14.1632 56.9119 12.0614 60.0162 12.0614C60.8246 12.0614 61.4066 11.447 61.4066 10.6709C61.4066 9.89485 60.6952 9.28047 60.0162 9.28047ZM77.7041 16.8795C77.7041 15.1656 77.219 13.4842 76.3136 12.0937C74.9232 10.1859 72.6273 9.08645 70.2021 9.28047C65.0929 9.28047 62.215 12.6758 62.215 18.5933C62.215 24.7048 65.1253 28.0031 70.6224 28.0031C72.8213 28.1001 75.0202 27.2917 76.734 25.8042C77.025 25.6102 77.219 25.1898 77.219 24.8018C77.219 24.0904 76.6047 23.5084 75.9256 23.5084C75.6346 23.5084 75.3112 23.6054 75.1172 23.7994C73.9207 24.8018 72.3039 25.3839 70.7195 25.3839C67.4212 25.3839 65.3193 23.185 65.2223 19.6927H76.0226C77.7041 19.4987 77.7041 17.8819 77.7041 16.8795ZM70.2991 11.8674C73.3064 11.8674 74.7938 13.5812 74.8908 16.8795H65.19C65.5133 13.6782 67.2918 11.8674 70.2991 11.8674ZM87.502 17.0735C85.3031 16.2651 83.4923 15.683 83.4923 14.0662C83.4923 12.2554 85.4971 12.0614 86.5966 12.0614C88.084 11.9644 89.6038 12.5464 90.6062 13.5488C91.0913 14.0339 91.9967 14.0339 92.5141 13.5488C92.8051 13.2578 92.9021 12.9344 92.9021 12.5464C92.9021 12.2554 92.8051 11.932 92.6111 11.641C91.1236 9.92719 88.9248 8.92477 86.7259 9.15112C83.0396 9.15112 80.7114 11.0589 80.7114 13.9369C80.7114 17.5262 83.9126 18.6256 86.7259 19.628C88.8278 20.3394 90.7356 20.9215 90.7356 22.5383C90.7356 24.6401 88.3427 25.0282 86.9199 25.0282C85.2061 25.1252 83.5246 24.4138 82.3282 23.2173C82.0371 22.9263 81.7138 22.8293 81.3257 22.7323C80.6143 22.7323 80.0323 23.3467 80.0323 24.0257C80.0323 24.3168 80.1293 24.6401 80.3233 24.9311C82.0371 26.936 84.43 27.9384 86.9199 27.9384C91.1236 27.9384 93.6135 25.9336 93.6135 22.7323C93.4195 19.0783 90.3152 18.0759 87.502 17.0735ZM104.802 9.18346C102.991 9.08645 101.213 9.89486 100.016 11.2853V1.48746C100.016 0.67906 99.4017 0 98.5286 0C97.7202 0 97.1382 0.614388 97.1382 1.48746V26.2893C97.1382 27.0977 97.7526 27.7767 98.5286 27.7767C99.3047 27.7767 100.016 27.1623 100.016 26.2893V16.9765C100.016 13.5812 101.601 11.8674 104.802 11.8674C108.003 11.8674 109.103 13.2578 109.103 16.6531V26.2569C109.103 27.0653 109.717 27.7444 110.59 27.7444C111.398 27.7444 111.981 27.13 111.981 26.2569V16.1681C112.013 11.5763 109.62 9.18346 104.802 9.18346ZM128.116 23.379C127.825 23.379 127.502 23.476 127.211 23.67C126.014 24.6725 124.495 25.1575 123.007 25.2545C119.612 25.2545 117.898 23.0557 117.898 18.5609C117.898 14.0662 119.612 11.8674 123.007 11.8674C124.495 11.7703 126.014 12.3524 126.92 13.5812C127.211 13.8722 127.631 14.0662 128.019 14.0662C128.731 14.0662 129.313 13.4518 129.313 12.7728V12.6758C129.313 12.3847 129.216 12.0614 129.022 11.8674C127.534 10.0565 125.335 9.05411 123.007 9.15112C117.704 9.15112 115.02 12.3524 115.02 18.4639C115.02 24.5754 117.833 27.8737 123.007 27.8737C125.206 27.8737 127.211 27.1623 128.892 25.7719C129.28 25.4809 129.507 25.0605 129.507 24.6725C129.507 23.9934 128.925 23.379 128.116 23.379ZM139.305 9.18346C135.392 9.18346 133.516 11.0913 132.805 12.2877C132.708 12.4817 132.611 12.7728 132.611 13.0961C132.611 13.8075 133.225 14.3896 133.904 14.3896C134.39 14.3896 134.81 14.1956 135.101 13.7752C136.103 12.4817 137.688 11.7703 139.305 11.9644C141.892 11.9644 143.508 13.4518 143.508 15.877V16.6854H138.399C134.196 16.6854 131.512 18.7873 131.512 22.2796C131.512 25.7719 134.001 27.8737 138.302 27.8737C140.307 27.9707 142.215 27.1623 143.508 25.6749V26.2893C143.508 27.0977 144.123 27.6797 144.899 27.6797C145.707 27.6797 146.289 27.0653 146.289 26.2893V15.877C146.419 11.7703 143.702 9.18346 139.305 9.18346ZM138.626 25.1898C136.718 25.1898 134.519 24.7048 134.519 22.1826C134.519 19.6927 137.009 19.1753 138.432 19.1753H143.541V20.5658C143.605 23.7994 141.018 25.2868 138.626 25.1898ZM154.6 24.9958C153.985 24.9958 153.306 24.8018 153.306 23.088V1.48746C153.306 0.67906 152.692 0 151.916 0C151.107 0 150.525 0.711397 150.525 1.48746V23.088C150.525 26.0953 152.013 27.7767 154.729 27.7767C155.537 27.7767 156.119 27.1623 156.119 26.3863C156.022 25.5779 155.408 24.9958 154.6 24.9958ZM162.91 24.9958C162.296 24.9958 161.617 24.8018 161.617 23.088V1.48746C161.617 0.67906 161.002 0.0970084 160.226 0C159.418 0 158.836 0.711397 158.836 1.48746V23.088C158.836 26.0953 160.323 27.7767 163.039 27.7767C163.848 27.7767 164.43 27.1623 164.43 26.3863C164.301 25.5779 163.718 24.9958 162.91 24.9958ZM181.406 16.8795C181.406 15.1656 180.921 13.4842 180.016 12.0937C178.626 10.1859 176.33 9.08645 173.904 9.28047C168.795 9.28047 165.917 12.6758 165.917 18.5933C165.917 24.7048 168.828 28.0031 174.325 28.0031C176.524 28.1001 178.723 27.2917 180.436 25.8042C180.727 25.6102 180.921 25.1898 180.921 24.8018C180.921 24.0904 180.307 23.5084 179.628 23.5084C179.337 23.5084 179.014 23.6054 178.82 23.7994C177.623 24.8018 176.006 25.3839 174.422 25.3839C171.124 25.3839 169.022 23.185 168.925 19.6927H179.725C181.406 19.4987 181.406 17.8819 181.406 16.8795ZM173.904 11.8674C176.912 11.8674 178.399 13.5812 178.496 16.8795H168.795C169.216 13.6782 171.026 11.8674 173.904 11.8674ZM192.627 9.28047C190.622 9.18346 188.811 10.0889 187.615 11.6733V10.8649C187.615 10.0565 187.001 9.37747 186.225 9.37747C185.448 9.37747 184.737 9.99186 184.737 10.7679V26.1599C184.737 26.9683 185.351 27.6474 186.128 27.6474C186.936 27.6474 187.615 27.033 187.615 26.2569V17.7525C187.615 14.1632 189.523 12.0614 192.627 12.0614C193.436 12.0614 194.018 11.447 194.018 10.6709C194.018 9.89485 193.403 9.28047 192.627 9.28047Z" fill="white"/>
<path d="M17.0089 5.88574H29.814C32.2069 5.88574 34.1147 7.79357 34.1147 10.1864V22.9915C34.1147 32.4014 26.5157 40.0003 17.1059 40.0003H17.0089C7.59902 40.0003 0 32.4014 0 22.9915C0 13.5817 7.59902 5.98275 17.0089 5.88574Z" fill="#CC4783"/>
<path d="M23.4111 25.5773C22.5057 25.5773 21.5033 25.4802 20.5978 25.0922C20.2098 24.8982 19.7894 24.9952 19.4984 25.2862L18.0109 26.8707C15.9091 25.7713 14.1953 24.0575 13.0958 21.9556L14.8097 20.3711C15.0037 20.0801 15.1007 19.6598 15.0037 19.3687C14.7126 18.4633 14.5186 17.5579 14.5186 16.5555C14.5186 15.9411 14.1306 15.5531 13.6132 15.4561H10.7029C10.0886 15.4561 9.70052 15.8441 9.60352 16.3615V16.4585C9.60352 24.0575 15.8121 30.266 23.5081 30.266C24.1225 30.266 24.5105 29.878 24.6075 29.3606V26.5473C24.6075 25.933 24.2195 25.5449 23.7021 25.4479C23.5081 25.5773 23.5081 25.5773 23.4111 25.5773Z" fill="white"/>
</svg>
