<svg xmlns="http://www.w3.org/2000/svg" width="17" height="22" viewBox="0 0 17 22">
  <g id="Subtraction_6" data-name="Subtraction 6" transform="translate(-6086 -3177)" fill="none">
    <path d="M6094.5,3199h0a61.9,61.9,0,0,1-4.25-4.914c-1.945-2.512-4.25-6.023-4.25-8.477a8.5,8.5,0,1,1,17,0c0,2.453-2.312,5.965-4.25,8.477a61.076,61.076,0,0,1-4.25,4.914Zm0-16.262a2.3,2.3,0,1,0,2.266,2.3A2.284,2.284,0,0,0,6094.5,3182.738Z" stroke="none"/>
    <path d="M 6094.50048828125 3197.102294921875 C 6095.3056640625 3196.2236328125 6096.5283203125 3194.839599609375 6097.720703125 3193.2919921875 C 6100.24951171875 3190.013427734375 6101.7001953125 3187.21337890625 6101.7001953125 3185.609375 C 6101.7001953125 3181.578857421875 6098.47021484375 3178.300048828125 6094.5 3178.300048828125 C 6090.52978515625 3178.300048828125 6087.2998046875 3181.578857421875 6087.2998046875 3185.609375 C 6087.2998046875 3187.2265625 6088.75 3190.02587890625 6091.279296875 3193.291748046875 C 6092.47314453125 3194.839111328125 6093.6953125 3196.2236328125 6094.50048828125 3197.102294921875 M 6094.5 3181.438232421875 C 6096.46630859375 3181.438232421875 6098.0654296875 3183.0517578125 6098.0654296875 3185.03515625 C 6098.0654296875 3187.0185546875 6096.46630859375 3188.632080078125 6094.5 3188.632080078125 C 6092.53369140625 3188.632080078125 6090.9345703125 3187.0185546875 6090.9345703125 3185.03515625 C 6090.9345703125 3183.0517578125 6092.53369140625 3181.438232421875 6094.5 3181.438232421875 M 6094.5 3199 C 6094.4765625 3198.9765625 6092.3359375 3196.7890625 6090.25 3194.0859375 C 6088.3046875 3191.57421875 6086 3188.0625 6086 3185.609375 C 6086 3180.86328125 6089.8125 3177 6094.5 3177 C 6099.1796875 3177 6103 3180.86328125 6103 3185.609375 C 6103 3188.0625 6100.6875 3191.57421875 6098.75 3194.0859375 C 6096.6640625 3196.79296875 6094.5234375 3198.9765625 6094.5 3199 Z M 6094.5 3182.73828125 C 6093.25 3182.73828125 6092.234375 3183.76953125 6092.234375 3185.03515625 C 6092.234375 3186.30078125 6093.25 3187.33203125 6094.5 3187.33203125 C 6095.7421875 3187.33203125 6096.765625 3186.30078125 6096.765625 3185.03515625 C 6096.765625 3183.76953125 6095.7421875 3182.73828125 6094.5 3182.73828125 Z" stroke="none" fill="#035463"/>
  </g>
</svg>
