<svg width="94" height="86" viewBox="0 0 94 86" fill="none" xmlns="http://www.w3.org/2000/svg">
<path d="M28.8879 19.1104H65.1144C65.7593 19.1104 66.2853 18.589 66.2853 17.9395C66.2853 17.29 65.7593 16.7686 65.1144 16.7686H28.8879C28.243 16.7686 27.717 17.29 27.717 17.9395C27.717 18.589 28.243 19.1104 28.8879 19.1104Z" fill="black"/>
<path d="M28.8879 30.8746H65.1144C65.7593 30.8746 66.2853 30.3532 66.2853 29.7037C66.2853 29.0541 65.7593 28.5327 65.1144 28.5327H28.8879C28.243 28.5327 27.717 29.0541 27.717 29.7037C27.717 30.3532 28.243 30.8746 28.8879 30.8746Z" fill="black"/>
<path d="M66.2853 41.4668C66.2853 40.8173 65.7593 40.2959 65.1144 40.2959H28.8879C28.243 40.2959 27.717 40.8173 27.717 41.4668C27.717 42.1163 28.243 42.6378 28.8879 42.6378H65.1144C65.7593 42.6378 66.2853 42.1163 66.2853 41.4668Z" fill="black"/>
<path d="M91.1174 29.6806C91.0488 29.6074 90.9756 29.5434 90.8887 29.4931L85.2627 25.4451V13.754C85.2627 8.92846 81.3382 5.00394 76.5126 5.00394H56.7765L52.1018 1.64663C49.0464 -0.548877 44.9481 -0.548877 41.8927 1.64663L37.2181 5.00394H17.4819C12.6563 5.00394 8.73183 8.92846 8.73183 13.754V25.4451L3.10583 29.4931C3.0235 29.5479 2.94574 29.6074 2.87713 29.6806C1.17564 31.007 0.15564 33.0516 0.15564 35.2197V77.2505C0.15564 82.0761 4.08015 86.0006 8.90571 86.0006H85.0811C89.9066 86.0006 93.8311 82.0761 93.8311 77.2505V35.2197C93.8311 33.0516 92.8157 31.007 91.1096 29.6806H91.1174ZM85.2627 28.3359L89.5486 31.4142C89.9145 31.6749 90.2255 31.9905 90.4999 32.3381L85.2673 36.0933V28.3313L85.2627 28.3359ZM43.2647 3.54947C45.5014 1.93944 48.5065 1.93944 50.7385 3.54947L52.7603 5.00401H41.2385L43.2602 3.54947H43.2647ZM11.0826 13.754C11.0826 10.2229 13.955 7.34577 17.4908 7.34577H76.5178C80.0489 7.34577 82.926 10.2182 82.926 13.754V37.7769L55.3317 57.5775L53.7444 58.721C53.7307 58.7301 53.7124 58.7438 53.6987 58.753L50.7531 60.8708C48.5118 62.4762 45.5021 62.4762 43.2701 60.8708L40.3336 58.7621C40.3108 58.7438 40.2879 58.7301 40.265 58.7118L11.0923 37.7766V13.7537L11.0826 13.754ZM4.45488 31.4141L8.74075 28.3358V36.0978L3.50806 32.3426C3.77792 31.995 4.09353 31.6794 4.45944 31.4187L4.45488 31.4141ZM2.50632 77.2504V35.2196C2.50632 34.9909 2.52919 34.7668 2.56121 34.5427L37.3193 59.4801L37.5663 59.6585L4.18991 81.5585C3.15162 80.4196 2.51126 78.9102 2.51126 77.2499L2.50632 77.2504ZM85.0891 83.6586H8.91369C7.93944 83.6586 7.02005 83.4345 6.19676 83.0457L39.6001 61.1269L41.8916 62.7735C43.4194 63.8712 45.2077 64.4155 46.9962 64.4155C48.7892 64.4155 50.5776 63.8666 52.1099 62.7689L54.4015 61.1223L87.8048 83.0411C86.9769 83.4299 86.0575 83.654 85.0879 83.654L85.0891 83.6586ZM91.4972 77.2504C91.4972 78.9108 90.8569 80.4201 89.8186 81.5591L56.4469 59.6591L91.4474 34.5389C91.4794 34.7631 91.5023 34.9872 91.5023 35.2159V77.2467L91.4972 77.2504Z" fill="black"/>
</svg>
