<svg width="28" height="21" viewBox="0 0 28 21" fill="none" xmlns="http://www.w3.org/2000/svg">
<g clip-path="url(#clip0_25472_630)">
<rect width="28" height="21" fill="black" fill-opacity="0.2"/>
<path d="M1.90909 21H6.36364V10.1818L0 5.40912V19.0909C0 20.1473 0.855909 21 1.90909 21Z" fill="#4285F4"/>
<path d="M21.6367 21H26.0913C27.1476 21 28.0004 20.1441 28.0004 19.0909V5.40912L21.6367 10.1818" fill="#34A853"/>
<path d="M21.6367 1.90907V10.1818L28.0004 5.40907V2.86362C28.0004 0.502711 25.3054 -0.843198 23.4185 0.572711" fill="#FBBC04"/>
<path d="M6.36328 10.1818V1.90912L13.9996 7.63639L21.636 1.90912V10.1818L13.9996 15.9091" fill="#EA4335"/>
<path d="M0 2.86362V5.40907L6.36364 10.1818V1.90907L4.58182 0.572711C2.69182 -0.843198 0 0.502711 0 2.86362Z" fill="#C5221F"/>
</g>
<defs>
<clipPath id="clip0_25472_630">
<rect width="28" height="21" fill="white"/>
</clipPath>
</defs>
</svg>
