<svg class="wpcf7-icon-wraning" width="18px" height="18px" x="0px" y="0px" viewBox="0 0 1000 1000" enable-background="new 0 0 1000 1000" xml:space="preserve"><g><path d="M499.9,361.6c-12.7,0-23,10.3-23,23v352.2c0,12.7,10.3,23,23,23s23-10.3,23-23V384.6C522.9,371.9,512.6,361.6,499.9,361.6z"></path><path d="M500.1,240.2c-12.7,0-23,10.3-23,23v30.6c0,12.7,10.3,23,23,23c12.7,0,23-10.3,23-23v-30.6C523.1,250.5,512.8,240.2,500.1,240.2z"></path><path d="M500,10C229.4,10,10,229.4,10,500c0,270.6,219.4,490,490,490c270.6,0,490-219.4,490-490C990,229.4,770.6,10,500,10z M500,944.1C254.8,944.1,55.9,745.2,55.9,500C55.9,254.8,254.8,55.9,500,55.9S944.1,254.8,944.1,500C944.1,745.2,745.2,944.1,500,944.1z"></path></g></svg>