<?xml version="1.0" encoding="UTF-8" standalone="no"?> <svg xmlns="http://www.w3.org/2000/svg" version="1.0" width="49px" height="49px" viewBox="0 0 49.000000 49.000000" preserveAspectRatio="xMidYMid meet"><g transform="translate(0.000000,49.000000) scale(0.100000,-0.100000)" fill="#000000" stroke="none"><path d="M127 420 c-6 -16 -15 -30 -19 -30 -4 0 -17 -9 -28 -20 -18 -18 -20 -33 -20 -146 0 -69 5 -134 10 -145 10 -18 23 -19 170 -19 147 0 160 1 170 19 5 11 10 76 10 145 0 113 -2 128 -20 146 -11 11 -24 20 -29 20 -5 0 -12 14 -16 30 l-7 30 -105 0 -105 0 -11 -30z m141 13 c-10 -2 -28 -2 -40 0 -13 2 -5 4 17 4 22 1 32 -1 23 -4z m-69 -19 c2 -2 1 -10 -2 -19 -5 -12 -11 -13 -32 -3 -26 11 -30 19 -18 31 6 6 42 0 52 -9z m138 0 c2 -6 -8 -16 -21 -22 -32 -14 -48 5 -20 25 20 14 36 13 41 -3z m-77 -20 c0 -9 -7 -14 -17 -12 -25 5 -28 28 -4 28 12 0 21 -6 21 -16z m-82 -26 l34 -13 -7 -70 c-3 -38 -8 -81 -11 -95 -3 -19 2 -33 21 -50 l25 -23 25 23 c19 17 24 31 21 50 -3 14 -8 57 -11 96 l-7 70 41 14 c35 11 43 11 66 -4 25 -16 25 -18 25 -151 l0 -136 -157 3 -158 3 -3 130 c-3 123 -2 131 19 148 25 20 32 21 77 5z m76 -65 c4 -32 9 -74 11 -93 3 -22 -1 -42 -10 -54 -15 -20 -15 -20 -30 0 -8 10 -13 30 -10 44 2 14 7 55 10 93 4 37 10 67 15 67 4 0 11 -26 14 -57z"></path></g></svg> 