<?xml version="1.0" encoding="UTF-8"?> <svg xmlns="http://www.w3.org/2000/svg" width="244" height="40" viewBox="0 0 244 40" fill="none"><path d="M29.6704 26.6399V13.3439C30.1665 13.9759 30.5894 14.6559 30.931 15.3919H32.9481C31.8501 12.5919 29.7598 10.2639 27.1084 8.82393V10.9679C27.3524 11.1279 27.5801 11.3039 27.8078 11.4799V28.5199C27.5801 28.6959 27.3442 28.8719 27.1084 29.0239V31.1759C29.5402 29.8479 31.4922 27.7839 32.6553 25.2879H30.5732C30.3048 25.7599 30.0038 26.2079 29.6704 26.6399ZM20.8457 7.23193C19.5281 7.23193 18.2512 7.43193 17.0556 7.79193V32.2079C17.6574 32.3919 18.2756 32.5279 18.91 32.6239V20.9039H21.0653L22.5944 22.5599V32.6399C23.2288 32.5599 23.855 32.4239 24.4488 32.2559V21.8559L22.7164 19.9759L24.4488 17.9999V7.73593C23.3101 7.39993 22.0982 7.23193 20.8457 7.23193ZM22.6025 17.3199L21.0572 19.0799H18.91V9.22393C19.5444 9.11193 20.1869 9.05593 20.8457 9.05593C21.4476 9.05593 22.0332 9.10393 22.6025 9.19193V17.3199ZM7.87305 19.9919C7.87305 22.1999 8.45051 24.2879 9.45905 26.1039L10.9393 24.9359C10.3049 23.7039 9.89825 22.3439 9.77625 20.9039H13.4606V30.4719C14.0462 30.8799 14.6644 31.2319 15.315 31.5359V8.45593C10.9149 10.5039 7.87305 14.9039 7.87305 19.9919ZM13.4525 11.8399V19.0799H9.76811C10.0121 16.2079 11.3866 13.6479 13.4525 11.8399Z" fill="black"></path><path d="M41.0896 20.0559L41.0978 19.5999L35.5915 19.5359C35.5834 19.2239 35.5671 18.9119 35.5346 18.5999L38.3975 18.4479L38.3731 17.9919L35.4858 18.1519C35.4451 17.8479 35.3963 17.5519 35.3394 17.2559L39.4142 16.5839L39.341 16.1359L35.2336 16.7999C35.1767 16.5359 35.1035 16.2719 35.0303 16.0159L37.82 15.0559L37.6655 14.6239L34.892 15.5759C34.7619 15.1679 34.6074 14.7599 34.4366 14.3679L39.3898 12.2239L39.2027 11.8079L34.2495 13.9519C34.1438 13.7279 34.038 13.5119 33.9242 13.2959L36.4292 11.9599L36.2096 11.5599L33.7046 12.8959C33.5338 12.5919 33.3467 12.3039 33.1596 12.0159L36.6326 9.91191L36.3886 9.51991L32.8994 11.6399C32.7286 11.3999 32.5496 11.1759 32.3707 10.9439L34.6236 9.16791L34.3308 8.80791L32.0779 10.5839C31.8258 10.2959 31.5655 10.0159 31.2971 9.74391L35.071 5.91991L34.7375 5.59991L30.9555 9.42391C30.7115 9.19991 30.4594 8.97591 30.1991 8.76791L32.021 6.69591L31.6712 6.39991L29.8331 8.48791C29.581 8.29591 29.3207 8.10391 29.0523 7.92791L31.4272 4.73591L31.045 4.47991L28.6538 7.69591C28.3772 7.51991 28.1007 7.35991 27.8079 7.19991L29.2068 4.83991L28.8083 4.60791L27.4012 6.99191C27.141 6.86391 26.8807 6.74391 26.6204 6.63191L28.6538 1.70391L28.2227 1.53591L26.1894 6.47191C25.8559 6.34391 25.5224 6.22391 25.1808 6.12791L26.108 3.55991L25.6688 3.40791L24.7254 5.99191C24.4163 5.91191 24.1154 5.83191 23.7982 5.77591L24.766 1.95991L24.3187 1.84791L23.3427 5.69591C23.058 5.64791 22.7734 5.60791 22.4806 5.57591L22.9116 2.87991L22.448 2.80791L22.017 5.52791C21.7079 5.50391 21.3988 5.48791 21.0816 5.48791V0.159912H20.618V5.48791C20.2683 5.49591 19.9267 5.51191 19.577 5.53591L19.4143 3.22391L18.9507 3.25591L19.1134 5.58391C18.7799 5.62391 18.4464 5.67191 18.1211 5.73591L17.1858 1.91991L16.7384 2.02391L17.6738 5.82391C17.3403 5.89591 17.015 5.97591 16.6978 6.07191L15.8926 3.75991L15.4534 3.91191L16.2504 6.20791C15.9414 6.30391 15.6404 6.41591 15.3395 6.53591L13.4851 1.68791L13.054 1.84791L14.9166 6.71991C14.6238 6.84791 14.3391 6.98391 14.0626 7.12791L12.7368 4.86391L12.3302 5.08791L13.6478 7.33591C13.3143 7.51991 12.9808 7.71991 12.6636 7.92791L10.37 4.79991L9.9959 5.06391L12.2814 8.18391C12.0374 8.35191 11.8015 8.52791 11.5738 8.71191L9.9227 6.91991L9.5811 7.22391L11.2159 9.01591C10.9556 9.23991 10.7035 9.46391 10.4595 9.69591L6.78323 5.87191L6.44163 6.18391L10.1423 10.0239C9.90643 10.2719 9.67057 10.5199 9.45097 10.7839L7.61283 9.19191L7.30376 9.53591L9.15817 11.1519C8.9467 11.4159 8.7515 11.6879 8.56443 11.9679L5.13217 9.84791L4.88817 10.2319L8.32043 12.3439C8.15777 12.5999 8.00323 12.8559 7.85683 13.1279L5.73403 12.0239L5.51443 12.4319L7.63723 13.5359C7.4827 13.8479 7.3363 14.1599 7.20616 14.4799L2.48883 12.4399L2.30177 12.8559L7.03537 14.9039C6.92963 15.1839 6.83203 15.4719 6.74257 15.7599L4.25377 14.9599L4.10737 15.3919L6.6043 16.1999C6.51483 16.5119 6.44163 16.8319 6.37657 17.1519L2.3099 16.4559L2.22857 16.9039L6.29523 17.5999C6.24643 17.9119 6.19763 18.2239 6.1651 18.5439L3.54617 18.3919L3.52177 18.8479L6.1407 18.9999C6.1163 19.3279 6.10003 19.6559 6.10003 19.9919C6.10003 20.0319 6.10003 20.0799 6.10003 20.1199L0.910965 20.0399L0.902832 20.4959L6.10817 20.5759C6.1163 20.8719 6.1407 21.1759 6.1651 21.4639L3.51363 21.6799L3.5543 22.1359L6.23017 21.9279C6.27083 22.2079 6.3115 22.4799 6.36843 22.7599L2.41563 23.5999L2.51323 24.0479L6.4579 23.1999C6.54737 23.5679 6.63683 23.9359 6.7507 24.2959L4.31883 25.0159L4.44897 25.4559L6.8971 24.7359C6.98657 24.9999 7.0923 25.2639 7.19803 25.5199L2.46443 27.6799L2.65963 28.0959L7.3851 25.9439C7.5315 26.2639 7.68603 26.5759 7.8487 26.8799L5.5551 28.2079L5.79097 28.5999L8.08457 27.2799C8.22283 27.5119 8.36923 27.7439 8.52377 27.9759L5.1647 30.2399L5.42497 30.6159L8.78403 28.3519C8.97923 28.6239 9.18257 28.8879 9.39403 29.1439L7.3363 30.8879L7.63723 31.2319L9.69497 29.4879C9.93897 29.7679 10.1911 30.0319 10.4514 30.2879L6.84017 34.0879L7.1899 34.3999L10.793 30.5999C11.037 30.8239 11.2891 31.0479 11.5575 31.2559L9.85763 33.0719L10.1992 33.3839L11.9235 31.5359C12.1756 31.7279 12.4359 31.9119 12.7043 32.0799L10.4758 35.3999L10.8662 35.6479L13.0947 32.3199C13.3631 32.4799 13.6315 32.6319 13.908 32.7839L12.7124 35.0399L13.1272 35.2479L14.3228 32.9919C14.6888 33.1679 15.063 33.3359 15.4452 33.4799L13.5908 38.2559L14.0219 38.4159L15.8763 33.6399C16.1284 33.7279 16.3887 33.8159 16.649 33.8879L15.8356 36.4159L16.2748 36.5519L17.0882 34.0079C17.4054 34.0879 17.7226 34.1599 18.0479 34.2239L17.2427 38.1919L17.6982 38.2799L18.5034 34.3039C18.7636 34.3439 19.0239 34.3759 19.2842 34.4079L19.0808 37.0239L19.5444 37.0559L19.7478 34.4399C20.1056 34.4639 20.4716 34.4799 20.8376 34.4799C20.8864 34.4799 20.9352 34.4799 20.984 34.4799L21.0898 39.5919C21.0898 39.7199 21.1955 39.8159 21.3256 39.8159C21.3256 39.8159 21.3256 39.8159 21.3338 39.8159C21.4639 39.8159 21.5615 39.7119 21.5615 39.5839L21.4558 34.4719C21.7974 34.4559 22.139 34.4319 22.4724 34.3999L22.6595 36.9999L23.1231 36.9679L22.9279 34.3359C23.2288 34.2959 23.5216 34.2479 23.8144 34.1839L24.5952 38.1839L25.0507 38.0959L24.2699 34.0799C24.5708 34.0079 24.8718 33.9279 25.1727 33.8399L25.8803 36.4559L26.3276 36.3359L25.6119 33.6959C25.921 33.5919 26.23 33.4799 26.531 33.3599L28.5887 38.0559L29.0116 37.8719L26.9539 33.1679C27.2548 33.0319 27.5476 32.8959 27.8323 32.7439L29.0604 35.3199L29.4834 35.1279L28.239 32.5199C28.5155 32.3599 28.7839 32.1999 29.0442 32.0239L31.3296 35.4799L31.72 35.2319L29.4264 31.7599C29.6786 31.5839 29.9226 31.3999 30.1666 31.2079L31.9152 33.5279L32.2894 33.2559L30.5244 30.9039C30.7684 30.6959 31.0043 30.4799 31.2402 30.2559L34.9408 33.8479L35.2662 33.5199L31.5574 29.9199C31.7688 29.6959 31.9803 29.4639 32.1836 29.2319L34.3552 31.1679L34.6643 30.8319L32.4764 28.8799C32.6716 28.6319 32.8668 28.3839 33.0458 28.1199L36.4862 30.4719L36.7546 30.0959L33.306 27.7359C33.485 27.4559 33.6639 27.1679 33.8266 26.8719L36.3235 28.3359L36.5594 27.9439L34.038 26.4639C34.1763 26.1999 34.3064 25.9279 34.4284 25.6559L39.2271 27.6159L39.406 27.1919L34.5992 25.2319C34.7294 24.9039 34.8514 24.5759 34.9571 24.2399L37.6818 25.1919L37.8363 24.7599L35.0791 23.7999C35.1604 23.4959 35.2418 23.1919 35.3068 22.8799L39.3572 23.7759L39.4548 23.3279L35.38 22.4319C35.437 22.1039 35.4858 21.7759 35.5183 21.4399L38.365 21.8399L38.43 21.3839L35.5508 20.9759C35.5752 20.6399 35.5915 20.3039 35.5915 19.9599L41.0896 20.0559ZM20.8458 34.0479C12.9646 34.0479 6.5555 27.7439 6.5555 19.9919C6.5555 12.2399 12.9646 5.93591 20.8458 5.93591C28.727 5.93591 35.136 12.2399 35.136 19.9919C35.136 27.7439 28.727 34.0479 20.8458 34.0479Z" fill="#ED2024"></path><path d="M55.2581 25.5039H49.4021L48.5888 28.2159H43.3184L49.5973 11.7839H55.2256L61.5045 28.2159H56.0958L55.2581 25.5039ZM54.1845 21.9519L52.3382 16.0479L50.5164 21.9519H54.1845Z" fill="#ED2024"></path><path d="M63.1392 11.7839H68.3038V24.1679H76.3558V28.2159H63.1392V11.7839Z" fill="#ED2024"></path><path d="M78.7715 28.2159V11.7839H87.3766C88.9707 11.7839 90.1907 11.9199 91.0366 12.1839C91.8824 12.4559 92.5575 12.9519 93.078 13.6799C93.5904 14.4079 93.8507 15.2959 93.8507 16.3439C93.8507 17.2559 93.6555 18.0399 93.257 18.7039C92.8584 19.3679 92.3216 19.9039 91.6303 20.3119C91.1911 20.5759 90.5892 20.7919 89.8166 20.9599C90.4347 21.1599 90.882 21.3679 91.1586 21.5679C91.3456 21.7039 91.6222 21.9919 91.9882 22.4319C92.346 22.8719 92.59 23.2159 92.712 23.4559L95.209 28.2159H89.3774L86.6202 23.1919C86.2704 22.5439 85.9614 22.1199 85.6848 21.9279C85.3107 21.6719 84.8878 21.5439 84.416 21.5439H83.9606V28.2159H78.7715ZM83.9524 18.4399H86.1322C86.368 18.4399 86.8235 18.3679 87.4986 18.2159C87.8402 18.1519 88.1167 17.9759 88.3363 17.7039C88.5559 17.4239 88.6616 17.1119 88.6616 16.7519C88.6616 16.2239 88.4908 15.8159 88.1492 15.5279C87.8076 15.2399 87.1651 15.1039 86.2216 15.1039H83.9524V18.4399Z" fill="#ED2024"></path><path d="M107.124 25.5039H101.268L100.455 28.2159H95.1846L101.464 11.7839H107.092L113.371 28.2159H107.962L107.124 25.5039ZM106.051 21.9519L104.204 16.0479L102.383 21.9519H106.051Z" fill="#ED2024"></path><path d="M114.948 11.7839H121.74L124.359 21.7839L126.961 11.7839H133.744V28.2159H129.515V15.6879L126.262 28.2159H122.439L119.186 15.6879V28.2159H114.956V11.7839H114.948Z" fill="#ED2024"></path><path d="M147.295 25.5039H141.439L140.625 28.2159H135.355L141.634 11.7839H147.262L153.541 28.2159H148.132L147.295 25.5039ZM146.229 21.9519L144.383 16.0479L142.561 21.9519H146.229Z" fill="#ED2024"></path><path d="M162.179 11.7839H174.94V15.3119H167.36V18.1839H173.834V21.5039H167.36V28.2159H162.179V11.7839Z" fill="black"></path><path d="M177.925 11.7839H183.098V28.2159H177.925V11.7839Z" fill="black"></path><path d="M186.798 11.7839H191.963V24.1679H200.015V28.2159H186.798V11.7839Z" fill="black"></path><path d="M202.309 11.7839H209.1L211.719 21.7839L214.322 11.7839H221.105V28.2159H216.875V15.6879L213.622 28.2159H209.799L206.546 15.6879V28.2159H202.317V11.7839H202.309Z" fill="black"></path><path d="M223.488 22.7759L228.4 22.4719C228.506 23.2559 228.726 23.8559 229.051 24.2639C229.58 24.9279 230.344 25.2639 231.328 25.2639C232.068 25.2639 232.63 25.0959 233.028 24.7519C233.427 24.4079 233.63 24.0159 233.63 23.5679C233.63 23.1439 233.443 22.7599 233.061 22.4239C232.678 22.0879 231.8 21.7679 230.417 21.4719C228.156 20.9679 226.538 20.3039 225.578 19.4799C224.602 18.6479 224.122 17.5919 224.122 16.3119C224.122 15.4719 224.374 14.6719 224.87 13.9199C225.367 13.1679 226.115 12.5759 227.115 12.1519C228.116 11.7199 229.482 11.5039 231.223 11.5039C233.354 11.5039 234.988 11.8959 236.103 12.6719C237.225 13.4559 237.892 14.6959 238.103 16.3999L233.24 16.6799C233.11 15.9439 232.841 15.3999 232.426 15.0639C232.012 14.7279 231.442 14.5599 230.71 14.5599C230.108 14.5599 229.661 14.6879 229.352 14.9359C229.051 15.1839 228.896 15.4879 228.896 15.8479C228.896 16.1119 229.018 16.3439 229.271 16.5519C229.515 16.7679 230.092 16.9679 231.003 17.1599C233.256 17.6399 234.874 18.1199 235.85 18.6079C236.826 19.0959 237.534 19.7039 237.981 20.4319C238.429 21.1599 238.648 21.9679 238.648 22.8639C238.648 23.9199 238.356 24.8879 237.762 25.7759C237.168 26.6639 236.338 27.3359 235.281 27.7999C234.216 28.2559 232.874 28.4879 231.255 28.4879C228.417 28.4879 226.448 27.9519 225.35 26.8719C224.252 25.8079 223.634 24.4399 223.488 22.7759Z" fill="black"></path></svg> 