<?xml version="1.0" encoding="UTF-8"?> <svg xmlns="http://www.w3.org/2000/svg" width="138" height="57" viewBox="0 0 138 57" fill="none"><g clip-path="url(#clip0_15612_355)"><path d="M127.679 39.9233C127.31 39.9233 127.055 39.6661 127.055 39.2961V20.9198H120.844C120.475 20.9198 120.22 20.6637 120.22 20.2933V17.7585C120.22 17.3873 120.475 17.1305 120.844 17.1305H137.377C137.746 17.1305 138 17.3876 138 17.7585V20.2932C138 20.6633 137.746 20.9198 137.377 20.9198H131.166V39.2959C131.166 39.6661 130.911 39.9233 130.543 39.9233H127.679ZM80.0995 30.7488L76.839 21.3477L73.5493 30.7488H80.0995ZM87.331 39.1808C87.4735 39.5521 87.2462 39.9233 86.8491 39.9233H83.9004C83.4748 39.9233 83.2193 39.7245 83.0771 39.3237L81.4047 34.482H72.2458L70.5705 39.3237C70.4298 39.7246 70.1736 39.9233 69.7491 39.9233H66.9709C66.6017 39.9233 66.3461 39.552 66.4881 39.1808L74.1729 17.7015C74.3151 17.3013 74.5702 17.1315 74.9947 17.1315H78.7948C79.2206 17.1315 79.5042 17.3015 79.6459 17.7015L87.331 39.1808ZM109.359 36.8458C111.173 36.8458 112.393 35.964 113.386 34.4533L108.792 29.4954C107.033 30.4934 105.899 31.4892 105.899 33.4841C105.899 35.4503 107.486 36.8458 109.359 36.8458ZM110.635 20.1504C109.161 20.1504 108.31 21.0914 108.31 22.3448C108.31 23.3133 108.819 24.1682 109.982 25.422C111.996 24.2532 112.847 23.5413 112.847 22.2881C112.847 21.119 112.11 20.1504 110.635 20.1504ZM123.198 39.1255C123.567 39.5247 123.34 39.9233 122.885 39.9233H119.284C118.802 39.9233 118.547 39.8088 118.235 39.438L116.08 37.0458C114.634 38.9833 112.619 40.4359 109.273 40.4359C105.133 40.4359 101.871 37.929 101.871 33.6278C101.871 30.3218 103.63 28.555 106.296 27.0739C104.991 25.564 104.396 23.9685 104.396 22.5732C104.396 19.0394 106.863 16.6182 110.577 16.6182C114.378 16.6182 116.703 18.8697 116.703 22.2024C116.703 25.0514 114.662 26.6454 112.506 27.8429L115.683 31.2913L117.469 28.1563C117.696 27.7865 117.951 27.6435 118.404 27.6435H121.154C121.609 27.6435 121.864 27.9577 121.581 28.4418L118.404 33.911L123.198 39.1255ZM94.8978 39.9233C95.2664 39.9233 95.5229 39.6661 95.5229 39.2961V20.9198H101.732C102.101 20.9198 102.356 20.6637 102.356 20.2933V17.7585C102.356 17.3873 102.101 17.1305 101.732 17.1305H85.1991C84.8299 17.1305 84.5752 17.3876 84.5752 17.7585V20.2932C84.5752 20.6633 84.83 20.9198 85.1991 20.9198H91.4085V39.2959C91.4085 39.6661 91.6646 39.9233 92.0328 39.9233H94.8978Z" fill="black"></path><path d="M10.9718 51.0079C15.7811 54.7495 21.8175 56.9975 28.3668 56.9975C35.5339 56.9975 42.0677 54.3232 47.0542 49.9333C47.1147 49.8796 47.0849 49.8441 47.0253 49.8796C44.7876 51.3816 38.4101 54.6602 28.3671 54.6602C19.6392 54.6602 14.1236 52.703 11.0088 50.9556C10.9492 50.9261 10.9271 50.971 10.9718 51.0079ZM30.2924 52.4646C37.273 52.4646 44.9439 50.5521 49.5318 46.7663C50.7872 45.7348 51.9831 44.362 53.0541 42.517C53.6707 41.4554 54.2737 40.1941 54.7649 38.9544C54.7867 38.8939 54.7495 38.8645 54.7043 38.9325C50.4379 45.2426 38.0834 49.1784 25.3268 49.1784C16.3099 49.1784 6.6079 46.2804 2.80949 40.747C2.7721 40.6958 2.73471 40.7177 2.75748 40.7765C6.29596 48.3354 17.0309 52.4646 30.2924 52.4646ZM22.6653 39.9249C8.14688 39.9249 1.30113 33.1289 0.0593243 28.4912C0.0440103 28.4241 0 28.4388 0 28.4991C0 30.0604 0.155485 32.0752 0.422996 33.4126C0.550612 34.0636 1.07777 35.0852 1.85064 35.8996C5.36623 39.5825 14.131 44.7431 29.3103 44.7431C49.9915 44.7431 54.7202 37.8193 55.6858 35.5424C56.3763 33.914 56.734 30.9712 56.734 28.4992C56.734 27.901 56.7191 27.4232 56.6966 26.9541C56.6966 26.878 56.6528 26.8718 56.6376 26.9459C55.6041 32.5174 37.9344 39.9249 22.6653 39.9249ZM2.73471 16.2732C1.90279 17.9326 0.980644 20.7319 0.706511 22.1808C0.586345 22.8016 0.637529 23.0997 0.854132 23.5629C2.59426 27.2736 11.3962 33.2107 31.9276 33.2107C44.4533 33.2107 54.1836 30.1179 55.76 24.4741C56.0503 23.4351 56.0659 22.3382 55.6929 20.8601C55.2763 19.2084 54.496 17.2822 53.8355 15.9298C53.8137 15.8857 53.7753 15.8922 53.7831 15.9443C54.0284 23.3468 33.4888 28.1176 23.1254 28.1176C11.9 28.1176 2.53494 23.6226 2.53494 17.9467C2.53494 17.4013 2.64724 16.8559 2.78741 16.2882C2.80149 16.2363 2.75734 16.2277 2.73471 16.2732ZM47.1002 7.18452C47.2194 7.37227 47.2788 7.57263 47.2788 7.84232C47.2788 11.0087 37.6364 16.6103 22.287 16.6103C11.0088 16.6103 8.89726 12.4053 8.89726 9.73114C8.89726 8.77522 9.26204 7.79712 10.0654 6.80377C10.1093 6.7447 10.072 6.72196 10.0214 6.76591C8.55622 8.01384 7.20997 9.41805 6.029 10.9339C5.46473 11.6507 5.11444 12.2858 5.11444 12.6663C5.11444 18.2081 18.9406 22.2261 31.8685 22.2261C45.6433 22.2261 51.7909 17.7067 51.7909 13.7349C51.7909 12.3155 51.2411 11.4868 49.8347 9.88034C48.9218 8.83526 48.0583 7.98431 47.1443 7.14667C47.1002 7.11006 47.0694 7.13988 47.1002 7.18452ZM42.8772 4.0188C38.626 1.45776 33.6893 0.000732422 28.3671 0.000732422C23.0077 0.000732422 17.9223 1.50865 13.6558 4.13749C12.376 4.92909 11.6557 5.56346 11.6557 6.37891C11.6557 8.78271 17.2453 11.3673 27.162 11.3673C36.9757 11.3673 44.5874 8.53631 44.5874 5.81124C44.5874 5.16079 44.0218 4.70571 42.8772 4.0188Z" fill="#00A8E0"></path></g><defs><clipPath id="clip0_15612_355"><rect width="138" height="57" fill="white"></rect></clipPath></defs></svg> 