<?xml version="1.0" encoding="UTF-8"?> <svg xmlns="http://www.w3.org/2000/svg" width="247" height="38" viewBox="0 0 247 38" fill="none"><path d="M20.1219 10.5808C18.3127 8.63029 16.5798 7.68386 14.3883 7.68386C10.464 7.68386 7.85631 10.5808 7.85631 14.6545C7.85631 18.358 10.4301 21.3537 14.3883 21.3537C16.5798 21.3537 18.3127 20.4072 20.1219 18.4568V25.625C17.9644 26.6372 15.9173 27.1393 13.7004 27.1393C6.36982 27.1393 1.08643 21.7898 1.08643 14.5228C1.08643 7.2559 6.36982 1.90649 13.6918 1.90649C15.9173 1.90649 17.9644 2.40851 20.1135 3.42078V10.589L20.1219 10.5808Z" fill="#191919"></path><path d="M41.901 26.5057H36.3458V23.8475C34.7488 26.1683 32.9056 27.1805 30.1959 27.1805C25.7111 27.1805 22.6616 23.7487 22.6616 18.2593C22.6616 12.7701 25.7195 9.40405 30.5783 9.40405C33.152 9.40405 34.9527 10.4163 36.3118 12.6713V9.94723H41.901V26.5057ZM32.5914 14.021C30.128 14.021 28.6331 15.667 28.6331 18.2264C28.6331 20.786 30.128 22.3989 32.5914 22.3989C35.0547 22.3989 36.5836 20.8189 36.5836 18.2264C36.5836 15.667 35.0547 14.021 32.5914 14.021Z" fill="#191919"></path><path d="M46.4536 9.94705H51.9748V13.3131C53.6057 10.589 55.5509 9.41211 58.5409 9.41211C60.7664 9.41211 62.5671 10.1528 63.6119 11.4284C64.7587 12.8439 64.8606 14.6628 64.8606 17.0494V26.5384H58.8127V17.6502C58.8127 15.0578 58.0143 13.8481 56.0012 13.8481C53.2915 13.8481 52.3911 15.8314 52.3911 19.5678V26.5302H46.4536V9.93882V9.94705Z" fill="#191919"></path><path d="M66.6108 9.94702H73.0749L75.997 17.2799C76.2433 17.9217 76.6255 18.7612 76.7954 19.8722C76.9737 18.7612 77.39 17.9217 77.6279 17.2799L80.5413 9.94702H86.827L79.0463 26.5385H74.3236L66.6108 9.94702Z" fill="#191919"></path><path d="M107.111 26.5057H101.556V23.8475C99.9589 26.1683 98.1156 27.1805 95.4059 27.1805C90.9295 27.1805 87.8716 23.7487 87.8716 18.2593C87.8716 12.7701 90.9295 9.40405 95.7882 9.40405C98.3619 9.40405 100.163 10.4163 101.522 12.6713V9.94723H107.111V26.5057ZM97.8013 14.021C95.338 14.021 93.843 15.667 93.843 18.2264C93.843 20.786 95.338 22.3989 97.8013 22.3989C100.265 22.3989 101.794 20.8189 101.794 18.2264C101.794 15.634 100.265 14.021 97.8013 14.021Z" fill="#191919"></path><path d="M111.316 20.679C113.091 22.1933 115.342 22.9998 117.431 22.9998C118.96 22.9998 119.759 22.4977 119.759 21.6172C119.759 20.2345 118.366 20.2345 116.115 19.6666C112.573 18.7614 110.942 17.2471 110.942 14.7206C110.942 11.6919 113.405 9.40405 117.89 9.40405C120.15 9.40405 122.367 9.90607 124.736 10.9183L123.488 14.9593C121.822 13.8481 120.15 13.3462 118.553 13.3462C117.16 13.3462 116.472 13.7823 116.472 14.556C116.472 15.6999 118 15.7657 120.395 16.4734C123.658 17.4199 125.263 18.8272 125.263 21.4855C125.263 24.8186 122.451 27.1723 117.899 27.1723C114.943 27.1723 112.411 26.5304 110.084 25.156L111.333 20.679H111.316Z" fill="#191919"></path><path d="M236.758 34.7929C236.758 36.1592 235.621 37.2619 234.21 37.2619H130.581C129.171 37.2619 128.033 36.1592 128.033 34.7929V2.69649C128.033 1.33033 129.171 0.227539 130.581 0.227539H234.21C235.621 0.227539 236.758 1.33033 236.758 2.69649V34.7929Z" fill="#BF1E2E"></path><path d="M29.6777 30.9746H30.2044L32.5659 33.7975L34.9187 30.9746H35.4539V37.0976H34.9357V31.6907L32.5659 34.5382L30.1874 31.6907V37.0976H29.6777V30.9746Z" fill="#191919"></path><path d="M36.9316 30.9746H40.3549V31.3697H37.4413V33.7975H40.2613V34.1925H37.4413V36.6861H40.4313V37.0976H36.9316V30.9746Z" fill="#191919"></path><path d="M41.4932 30.9746H42.0198L44.3812 33.7975L46.7341 30.9746H47.2692V37.0976H46.7511V31.6907L44.3812 34.5382L42.0029 31.6907V37.0976H41.4932V30.9746Z" fill="#191919"></path><path d="M49.3591 31.7975C49.9961 31.1967 50.82 30.8757 51.7119 30.8757C52.6038 30.8757 53.4362 31.1967 54.0648 31.7975C54.7019 32.4064 55.0332 33.1801 55.0332 34.0277C55.0332 34.6779 54.8378 35.2869 54.4726 35.8054C53.8439 36.6942 52.8417 37.2045 51.7119 37.2045C50.82 37.2045 49.9706 36.8752 49.3591 36.2828C48.7305 35.6737 48.3906 34.8755 48.3906 34.0113C48.3906 33.1883 48.7389 32.39 49.3591 31.7975ZM49.7497 35.97C50.2594 36.4721 50.9814 36.7683 51.7119 36.7683C52.4424 36.7683 53.1474 36.4885 53.6741 35.97C54.1922 35.4597 54.481 34.7767 54.481 34.036C54.481 33.2953 54.2007 32.6369 53.6741 32.1185C53.156 31.6082 52.4509 31.3119 51.7119 31.3119C50.9729 31.3119 50.2849 31.6 49.7497 32.1185C49.2316 32.6204 48.9428 33.3036 48.9428 34.036C48.9428 34.7685 49.2401 35.4597 49.7497 35.97Z" fill="#191919"></path><path d="M57.6749 30.9746C59.0425 30.9746 59.7559 31.5425 59.7559 32.5054C59.7559 33.2543 59.3568 33.7481 58.5497 34.0032C58.7792 34.1267 58.966 34.2995 59.1103 34.5135L60.8518 37.0976H60.2741L59.2633 35.5916C58.8556 34.9909 58.5668 34.6123 58.4054 34.4559C58.1591 34.2172 57.7684 34.1596 57.1567 34.1596H56.6386V37.0976H56.1289V30.9746H57.6664H57.6749ZM56.6471 33.7398H57.0378C57.6749 33.7398 58.1591 33.7398 58.5074 33.5835C58.966 33.3859 59.2039 33.0239 59.2039 32.5054C59.2039 31.8059 58.6772 31.3861 57.7089 31.3861H56.6556V33.7398H56.6471Z" fill="#191919"></path><path d="M61.3442 30.9746H61.8539V37.0976H61.3442V30.9746Z" fill="#191919"></path><path d="M63.4082 30.9746H66.8313V31.3697H63.9179V33.7975H66.7379V34.1925H63.9179V36.6861H66.9078V37.0976H63.4082V30.9746Z" fill="#191919"></path><path d="M69.5071 31.3453C68.7171 31.3453 68.1989 31.8555 68.1989 32.4892C68.1989 33.1229 68.6321 33.3863 69.4476 33.7155C69.9657 33.9212 70.4329 34.0858 70.7558 34.4314C71.0276 34.7195 71.1719 35.0981 71.1719 35.5096C71.1719 36.4807 70.4074 37.1885 69.3031 37.1885C68.7595 37.1885 68.216 37.0074 67.6724 36.6371V36.0445C68.2584 36.4807 68.785 36.7111 69.2947 36.7111C70.1186 36.7111 70.6368 36.242 70.6368 35.4931C70.6368 34.7442 70.1357 34.5466 69.2692 34.1928C68.2414 33.7813 67.6978 33.3945 67.6978 32.5139C67.6978 31.5921 68.4113 30.8926 69.5326 30.8926C70.0337 30.8926 70.4924 31.0243 70.9681 31.2959V31.839C70.4584 31.5098 69.9998 31.3371 69.5155 31.3371L69.5071 31.3453Z" fill="#191919"></path><path d="M75.1558 31.7975C75.7929 31.1967 76.6169 30.8757 77.5088 30.8757C78.4007 30.8757 79.2331 31.1967 79.8616 31.7975C80.4986 32.4064 80.8299 33.1801 80.8299 34.0277C80.8299 34.6779 80.6346 35.2869 80.2693 35.8054C79.6408 36.6942 78.6384 37.2045 77.5088 37.2045C76.6169 37.2045 75.7674 36.8752 75.1558 36.2828C74.5272 35.6737 74.1875 34.8755 74.1875 34.0113C74.1875 33.1883 74.5358 32.39 75.1558 31.7975ZM75.538 35.97C76.0477 36.4721 76.7698 36.7683 77.5002 36.7683C78.2307 36.7683 78.9358 36.4885 79.4624 35.97C79.9805 35.4597 80.2693 34.7767 80.2693 34.036C80.2693 33.2953 79.9891 32.6369 79.4624 32.1185C78.9443 31.6082 78.2392 31.3119 77.5002 31.3119C76.7612 31.3119 76.0732 31.6 75.538 32.1185C75.0199 32.6204 74.7311 33.3036 74.7311 34.036C74.7311 34.7602 75.0285 35.4597 75.538 35.97Z" fill="#191919"></path><path d="M81.9258 30.9746H82.4524L87.0818 36.3159V30.9746H87.5914V37.0976H87.1157L82.4354 31.6824V37.0976H81.9258V30.9746Z" fill="#191919"></path><path d="M94.4547 37.2044C93.7243 37.2044 93.0702 37.0151 92.5011 36.6529C91.5752 36.0687 91.04 35.0894 91.04 34.0112C91.04 33.1882 91.3883 32.3817 92.0084 31.7974C92.654 31.1883 93.4949 30.8674 94.4547 30.8674C95.1682 30.8674 95.8988 31.0649 96.6632 31.4435V31.9538C95.8478 31.534 95.1258 31.3118 94.4293 31.3118C93.8262 31.3118 93.291 31.4764 92.8324 31.7645C92.0424 32.2747 91.5922 33.0977 91.5922 34.0359C91.5922 34.7601 91.8896 35.4596 92.3991 35.9699C92.9088 36.4801 93.6309 36.7682 94.4378 36.7682C95.1258 36.7682 95.8478 36.5459 96.6718 36.1263V36.6447C95.9242 37.0233 95.1937 37.2126 94.4633 37.2126L94.4547 37.2044Z" fill="#191919"></path><path d="M99.4748 30.925H99.6787L102.439 37.1057H101.904L100.97 34.9742H98.1922L97.2579 37.1057H96.7227L99.4833 30.925H99.4748ZM100.791 34.5544L99.5767 31.7728L98.3621 34.5544H100.791Z" fill="#191919"></path><path d="M102.94 30.9746H103.467L108.096 36.3159V30.9746H108.606V37.0976H108.13L103.45 31.6824V37.0976H102.94V30.9746Z" fill="#191919"></path><path d="M109.693 30.9746L111.859 36.1101L114.042 30.9746H114.578L111.902 37.2046H111.817L109.133 30.9746H109.685H109.693Z" fill="#191919"></path><path d="M116.378 30.925H116.582L119.343 37.1057H118.807L117.873 34.9742H115.095L114.161 37.1057H113.626L116.387 30.925H116.378ZM117.695 34.5544L116.48 31.7728L115.265 34.5544H117.687H117.695Z" fill="#191919"></path><path d="M121.373 31.3453C120.583 31.3453 120.064 31.8555 120.064 32.4892C120.064 33.1229 120.498 33.3863 121.313 33.7155C121.832 33.9212 122.29 34.0858 122.621 34.4314C122.894 34.7195 123.038 35.0981 123.038 35.5096C123.038 36.4807 122.273 37.1885 121.169 37.1885C120.625 37.1885 120.09 37.0074 119.538 36.6371V36.0445C120.124 36.4807 120.651 36.7111 121.16 36.7111C121.984 36.7111 122.503 36.242 122.503 35.4931C122.503 34.7442 122.002 34.5466 121.135 34.1928C120.108 33.7813 119.563 33.3945 119.563 32.5139C119.563 31.5921 120.277 30.8926 121.399 30.8926C121.9 30.8926 122.359 31.0243 122.834 31.2959V31.839C122.325 31.5098 121.866 31.3371 121.381 31.3371L121.373 31.3453Z" fill="#191919"></path><path d="M151.451 11.0336C150.449 10.2106 149.395 9.59336 148.282 9.18187C147.17 8.77037 145.998 8.56463 144.775 8.56463C142.396 8.56463 140.468 9.30532 138.973 10.7785C137.487 12.2516 136.739 14.1691 136.739 16.5229C136.739 18.8766 137.461 20.6707 138.914 22.1439C140.366 23.617 142.192 24.3578 144.4 24.3578C145.683 24.3578 146.915 24.1355 148.078 23.6993C149.242 23.2549 150.355 22.5883 151.425 21.6994V25.5675C150.475 26.2259 149.437 26.7197 148.325 27.0489C147.204 27.3781 145.989 27.5345 144.689 27.5345C143.025 27.5345 141.487 27.2711 140.077 26.7444C138.667 26.2176 137.427 25.4441 136.357 24.4154C135.295 23.4113 134.487 22.218 133.919 20.8518C133.35 19.4857 133.07 18.029 133.07 16.49C133.07 14.951 133.35 13.4943 133.919 12.1364C134.487 10.7785 135.312 9.58513 136.391 8.56463C137.469 7.52767 138.71 6.74583 140.103 6.21089C141.496 5.67595 143.007 5.4126 144.63 5.4126C145.904 5.4126 147.128 5.59366 148.282 5.95576C149.437 6.31788 150.567 6.86105 151.655 7.58528L151.459 11.0336H151.451Z" fill="white"></path><path d="M155.57 26.9748V4.67188H158.603V15.5599C159.248 14.6218 160.005 13.9305 160.871 13.5025C161.745 13.0745 162.799 12.8523 164.048 12.8523C165.092 12.8523 165.993 13.0087 166.732 13.3379C167.471 13.6589 168.049 14.1362 168.465 14.7699C168.712 15.1403 168.89 15.5846 169 16.0784C169.111 16.5805 169.161 17.4528 169.161 18.6955V26.9666H165.908V19.963C165.908 18.1689 165.687 16.9756 165.237 16.3912C164.787 15.7986 163.988 15.5023 162.842 15.5023C162.086 15.5023 161.414 15.634 160.829 15.9056C160.242 16.1772 159.775 16.5558 159.436 17.0414C159.198 17.3705 159.037 17.7903 158.935 18.3006C158.841 18.8107 158.79 19.6338 158.79 20.753V26.9666H155.57V26.9748Z" fill="white"></path><path d="M186.685 26.9749H183.466V25.2054C182.888 25.9954 182.217 26.5798 181.453 26.9584C180.688 27.3369 179.805 27.5344 178.819 27.5344C176.831 27.5344 175.26 26.8761 174.122 25.5592C172.975 24.2425 172.406 22.4402 172.406 20.144C172.406 17.8479 172.993 16.2102 174.156 14.8687C175.328 13.5355 176.849 12.8606 178.726 12.8606C179.872 12.8606 180.858 13.0911 181.673 13.5602C182.489 14.0292 183.083 14.6959 183.466 15.5682V13.338H186.685V26.9749ZM183.559 20.1111C183.559 18.7038 183.219 17.601 182.54 16.8191C181.86 16.0374 180.918 15.6423 179.695 15.6423C178.471 15.6423 177.519 16.0456 176.823 16.8603C176.126 17.6669 175.779 18.7943 175.779 20.2346C175.779 21.6748 176.118 22.8023 176.789 23.5841C177.46 24.3742 178.412 24.761 179.643 24.761C180.798 24.761 181.742 24.333 182.472 23.4771C183.203 22.6213 183.568 21.5019 183.568 20.1111H183.559Z" fill="white"></path><path d="M194.363 26.9747H191.144V13.3379H194.177V15.5681C194.822 14.6217 195.553 13.9222 196.368 13.486C197.183 13.0498 198.143 12.8358 199.256 12.8358C200.368 12.8358 201.27 13.058 201.991 13.5025C202.713 13.9469 203.266 14.6299 203.639 15.5353C204.378 14.597 205.168 13.9058 206.009 13.4778C206.842 13.0498 207.802 12.8276 208.872 12.8276C209.798 12.8276 210.613 12.9922 211.309 13.3214C211.997 13.6506 212.542 14.1361 212.923 14.7699C213.101 15.0661 213.229 15.4201 213.314 15.8315C213.399 16.243 213.442 16.8356 213.442 17.6009V26.9665H210.223V19.9628C210.223 18.1277 210.018 16.9261 209.619 16.3418C209.22 15.7656 208.507 15.4693 207.471 15.4693C206.204 15.4693 205.304 15.8644 204.761 16.6463C204.226 17.4281 203.953 18.7942 203.953 20.753V26.9665H200.7V19.9628C200.7 18.2758 200.488 17.1071 200.071 16.457C199.656 15.8068 198.925 15.4777 197.897 15.4777C197.261 15.4777 196.682 15.6175 196.155 15.8973C195.629 16.1772 195.213 16.5558 194.908 17.0496C194.712 17.3622 194.567 17.7573 194.491 18.2182C194.415 18.679 194.373 19.5267 194.373 20.7612V26.9747H194.363Z" fill="white"></path><path d="M217.749 33.386V13.3298H220.968V15.5602C221.341 14.696 221.944 14.0294 222.768 13.5603C223.592 13.0912 224.586 12.8525 225.732 12.8525C227.602 12.8525 229.122 13.5191 230.286 14.8606C231.449 16.2021 232.027 17.955 232.027 20.136C232.027 22.4321 231.458 24.2344 230.31 25.5512C229.164 26.868 227.602 27.5264 225.614 27.5264C224.628 27.5264 223.744 27.3371 222.98 26.9503C222.216 26.5717 221.545 25.9792 220.968 25.1973V33.386H217.749ZM220.866 20.1113C220.866 21.5186 221.231 22.6461 221.962 23.4937C222.692 24.3414 223.643 24.7611 224.832 24.7611C226.021 24.7611 226.989 24.3661 227.661 23.5842C228.332 22.7942 228.663 21.6831 228.663 20.2348C228.663 18.7862 228.315 17.6752 227.618 16.8605C226.921 16.0457 225.962 15.6425 224.748 15.6425C223.533 15.6425 222.581 16.0374 221.894 16.8193C221.214 17.6094 220.866 18.7039 220.866 20.1113Z" fill="white"></path><path d="M244.869 31.246C244.869 30.7359 245.286 30.349 245.805 30.3573C246.314 30.3573 246.721 30.7605 246.713 31.2625C246.713 31.7646 246.297 32.1432 245.787 32.1432C245.278 32.1432 244.861 31.7481 244.869 31.246Z" fill="#191919"></path><path d="M246.799 25.7485C246.789 26.8595 246.424 27.773 245.761 28.4479C245.074 29.1309 244.114 29.5178 243.043 29.5095C240.852 29.4931 239.331 27.9458 239.349 25.5263C239.357 24.6621 239.561 23.8639 239.96 23.0902L241.642 23.1067C241.115 23.8803 240.861 24.6539 240.852 25.4275C240.835 26.8348 241.676 27.6989 243.053 27.7154C244.378 27.7236 245.27 26.9171 245.286 25.6004C245.286 24.7609 244.997 23.9132 244.402 23.0737L246.093 23.0902C246.569 23.9215 246.807 24.7938 246.799 25.7568V25.7485Z" fill="#191919"></path><path d="M240.419 21.2548C239.74 20.5471 239.409 19.65 239.425 18.5472C239.434 17.4444 239.782 16.5473 240.47 15.8478C241.183 15.14 242.101 14.7697 243.18 14.778C244.258 14.7862 245.167 15.1729 245.855 15.8972C246.535 16.6049 246.875 17.5103 246.866 18.613C246.857 19.7158 246.501 20.6047 245.805 21.296C245.099 22.0038 244.173 22.3741 243.103 22.3659C242.033 22.3659 241.115 21.9709 240.419 21.2548ZM245.346 18.5966C245.354 17.4444 244.462 16.5967 243.163 16.5886C241.871 16.5802 240.946 17.4033 240.929 18.5637C240.92 19.7158 241.829 20.5636 243.121 20.5718C244.42 20.58 245.328 19.757 245.338 18.5966H245.346Z" fill="#191919"></path><path d="M239.586 13.7329L239.604 12.1939L242.526 9.9801L239.646 7.70865L239.663 6.16968L246.857 6.22728L246.841 7.93909L242.381 7.89794L244.997 9.99656L242.347 12.0293L246.807 12.0705L246.789 13.7987L239.595 13.7411L239.586 13.7329Z" fill="#191919"></path></svg> 