<?xml version="1.0" encoding="UTF-8"?> <svg xmlns="http://www.w3.org/2000/svg" width="146" height="28" viewBox="0 0 146 28" fill="none"><path d="M124.1 19.8866C122.875 19.5994 122.581 18.9771 122.434 17.8281C122.14 15.9132 122.14 11.126 122.434 9.06748C122.581 8.01429 123.218 7.43983 124.1 7.15259C125.178 6.86536 134.879 6.72174 135.956 7.15259C136.887 7.43983 137.181 8.06217 137.328 8.92387C137.769 10.8388 137.769 15.7696 137.328 17.6845C137.181 18.5941 136.887 19.0249 135.956 19.4558C135.074 20.1739 125.472 20.1739 124.1 19.8866ZM139.141 0.546214C136.25 -0.0282539 125.129 -0.219743 120.719 0.546214C117.388 1.12068 114.791 3.5143 114.007 6.48238C113.419 9.88132 113.419 17.493 114.007 20.6047C114.595 23.4292 117.045 25.9664 120.719 26.5409C124.541 27.3068 135.76 27.1154 139.288 26.3973C143.403 25.4877 145.069 22.5196 145.51 20.6047C146.098 17.6366 146.098 10.0728 145.51 6.48238C144.775 3.37068 142.032 1.16855 139.141 0.546214ZM100.975 0.737701H109.353V26.4452H100.975V0.737701ZM87.6 16.6313C88.9718 16.9186 89.2658 17.9717 89.2658 18.8813C89.2658 19.7909 89.1188 20.7962 87.6 20.9398C85.9342 21.2271 80.3 21.2271 78.1933 20.9398C77.2624 20.7962 76.2336 20.7962 75.8906 19.1686V18.7377H67.5128C67.5128 18.8813 67.5128 19.3122 67.6597 19.9345C67.9537 23.3334 69.3255 25.7271 73.294 26.493C76.4785 27.0675 88.4819 27.259 92.1564 26.493C96.4188 25.5834 97.4966 21.8973 97.4966 18.5941C97.4966 14.86 96.1248 12.3707 92.7933 11.3175C91.8624 11.0303 89.7557 10.8866 88.8248 10.8866C88.0409 10.8866 79.0752 10.5994 77.1154 10.3122C75.8906 10.1686 75.5966 9.40259 75.5966 8.39727C75.5966 7.34408 75.7436 6.626 77.2624 6.33877C79.0752 6.05154 86.2282 6.05154 87.0121 6.33877C87.943 6.626 88.2369 7.24834 88.2369 7.96643V8.54089H96.6148C96.6148 7.96642 96.4678 7.48771 96.4678 7.05686C96.0269 3.03558 93.7242 0.833445 89.6087 0.498339C85.4933 0.0674879 76.0866 0.211099 73.196 0.64195C70.4524 1.21642 67.7087 2.89195 67.7087 8.3494C67.7087 12.8015 69.8154 15.0515 73.4899 15.7696C74.5678 15.9132 77.6054 16.0569 78.0463 16.0569C79.0752 16.1526 87.0121 16.4877 87.6 16.6313ZM54.5785 16.4877H45.3188L49.2873 6.24302H50.6591L54.5785 16.4877ZM56.4403 21.8015L58.253 26.3973H67.2188L55.9503 0.546214H43.8L32.6785 26.3973H41.6443L43.4571 21.6579L56.4403 21.8015ZM8.67181 17.9717C8.81879 19.4558 9.60269 19.743 10.3376 19.8866C11.5624 20.1739 20.2342 20.1739 21.753 19.8866C22.8309 19.743 23.5658 18.9771 23.7128 18.1154C23.7128 17.6845 23.8597 16.9186 23.8597 16.6313H32.5315C32.5315 17.2058 32.5316 18.6898 32.3846 20.0302C31.9436 23.142 30.0819 25.6792 26.1624 26.5888C23.4188 27.1632 10.1906 27.1632 7.15303 26.5888C3.96846 25.8228 1.22483 23.9079 0.44094 20.6526C-0.14698 17.6845 -0.14698 9.92919 0.44094 6.67387C0.881879 4.28025 3.18457 1.45579 6.95705 0.737701C10.4356 0.163233 22.7819 -0.0282568 26.1134 0.737701C30.5228 1.79089 31.8946 5.62068 32.0416 6.9611C32.1886 8.44515 32.1886 9.49834 32.1886 10.0728H23.5168C23.5168 9.49834 23.6638 7.8228 22.145 7.39195C21.2141 7.10472 12.7383 7.10472 10.5826 7.24834C9.5047 7.39196 8.91678 7.82281 8.7698 8.876C8.37785 10.9824 8.37785 16.009 8.67181 17.9717Z" fill="#003296"></path></svg> 