<?xml version="1.0" encoding="UTF-8"?> <svg xmlns="http://www.w3.org/2000/svg" width="224" height="59" viewBox="0 0 224 59" fill="none"><g clip-path="url(#clip0_14366_1199)"><path d="M14.2222 24.4307C18.0148 24.4307 20.8593 23.1286 22.7556 20.5245L24.4148 21.4715C22.1235 24.7069 18.7259 26.3245 14.2222 26.3245C9.71852 26.3245 6.75556 25.0225 4.02963 22.6552C1.3037 20.2878 0 17.2103 0 13.4225C0 9.63475 1.3037 6.5572 4.02963 4.18985C6.71605 1.7436 10.1136 0.520467 14.2222 0.520467C18.3704 0.520467 22.163 2.17761 24.4148 5.37353L22.7556 6.32047C20.8593 3.71639 18.0148 2.41434 14.2222 2.41434C10.4296 2.41434 9.83704 2.88781 8.17778 3.95312C6.51852 5.05788 5.33333 6.39938 4.62222 7.97761C3.99012 9.63475 3.67407 11.4497 3.67407 13.4225C3.67407 15.3953 3.99012 17.1708 4.62222 18.749C5.33333 20.2878 6.51852 21.7082 8.17778 22.7735C9.83704 23.8783 11.8519 24.4307 14.2222 24.4307ZM45.5111 12.7123C47.5654 14.1327 48.5926 15.9082 48.5926 18.0388V18.8674C48.5926 20.998 47.5654 22.7735 45.5111 24.1939C43.6148 25.5354 41.2444 26.2062 38.4 26.2062H28.2074V0.4021H37.3333C39.9407 0.4021 42.0741 0.875569 43.7333 1.82251C45.3136 2.76945 46.1037 4.22931 46.1037 6.2021V6.79394C46.1037 7.74088 45.7481 8.56945 45.1556 9.39802C44.4444 10.266 43.5358 10.9368 42.4296 11.4103C43.7728 11.8837 44.7605 12.3177 45.3926 12.7123H45.5111ZM32 2.29598V10.8184H38.163C39.4272 10.6606 40.4543 10.2266 41.2444 9.51639C42.0346 8.72727 42.4296 7.85924 42.4296 6.9123V6.2021C42.4296 3.59802 40.7309 2.29598 37.3333 2.29598H32ZM45.037 18.0388C45.037 16.3817 44.3654 15.0402 43.0222 14.0143C41.758 13.0674 40.2568 12.5545 38.5185 12.4756H32V24.3123H38.5185C40.2568 24.3123 41.758 23.7994 43.0222 22.7735C44.3259 21.7082 45.037 20.4062 45.037 18.8674V18.0388ZM76.0889 11.0552C78.5778 12.0021 80.3556 12.949 81.1852 13.5409C83.1605 14.9613 84.1481 16.8946 84.1481 19.3409C84.1481 21.7082 83.0815 23.0103 81.0667 24.3123C78.9333 25.5749 76.4444 26.2062 73.6 26.2062C70.7556 26.2062 71.7037 26.2062 70.9926 26.0878C70.2815 26.0089 69.3728 25.7327 68.2667 25.2592C67.1605 24.8647 66.1333 24.2334 65.1852 23.3654L66.4889 21.945C68.2272 23.6021 70.5975 24.4307 73.6 24.4307C75.4963 24.4307 77.037 24.0361 78.2222 23.247C79.3284 22.4579 79.8815 21.2348 79.8815 19.5776C79.8815 17.9205 79.8815 18.9858 79.8815 18.749C79.8025 18.5123 79.7235 18.2756 79.6444 18.0388C79.5654 17.881 79.4469 17.6837 79.2889 17.447C79.0519 17.2103 78.9333 17.0919 78.8148 16.9735C78.7358 16.8157 78.5383 16.6184 78.2222 16.3817C77.9062 16.145 77.6691 15.9871 77.5111 15.9082C77.3531 15.8293 77.0765 15.6715 76.6815 15.4348C76.2864 15.2769 76.0099 15.1586 75.8519 15.0797C75.7333 14.9613 75.3778 14.8429 74.9037 14.6062C74.4296 14.3694 74.1136 14.2116 73.9556 14.1327C73.7185 14.0538 73.3235 13.8565 72.7704 13.5409C72.2173 13.3041 71.8222 13.1463 71.5852 13.0674C71.4272 12.9885 71.0716 12.7912 70.5185 12.4756C69.9654 12.2388 69.5704 12.0416 69.3333 11.8837C69.0963 11.7259 68.8198 11.5286 68.5037 11.2919C68.1086 11.0552 67.7926 10.8184 67.5556 10.5817C67.437 10.345 67.2 10.1082 66.963 9.87149C66.6074 9.51639 66.4889 9.27965 66.3704 9.04292C66.2519 8.68781 66.1333 8.45108 66.0148 8.09598C65.8963 7.74088 65.7778 7.38577 65.7778 7.03067C65.7778 5.05788 66.6864 3.47965 68.5037 2.29598C70.321 1.1123 72.6123 0.520467 75.3778 0.520467C78.2222 0.520467 80.1185 1.1123 82.1333 2.17761L80.9482 3.71639C79.2889 2.84836 77.4321 2.41434 75.3778 2.41434C71.3481 2.41434 69.3333 3.55856 69.3333 5.847C69.3333 8.21434 69.4519 6.67557 69.5704 7.03067C69.8074 7.42523 70.2025 7.78033 70.7556 8.09598C71.2296 8.49053 71.6247 8.80618 71.9407 9.04292C72.2568 9.27965 72.8099 9.55584 73.6 9.87149C74.3111 10.2266 74.7852 10.4633 74.9037 10.4633C75.1407 10.5422 75.5753 10.7395 76.2074 11.0552H76.0889ZM109.985 0.520467V2.29598H100.385V26.2062H96.5926V2.41434H86.9926V0.520467H109.985ZM134.4 26.2062H130.37L126.222 17.5654H115.319L111.17 26.2062H109.156L121.363 0.520467H122.074L134.4 26.2062ZM116.148 15.6715H125.274L120.77 6.08373L116.148 15.6715ZM156.563 0.4021V2.29598H146.844V26.0878H143.17V2.29598H133.452V0.4021H156.444H156.563ZM160.356 26.0878V0.4021H164.03V26.0878H160.356ZM181.926 0.520467C186.114 0.520467 189.511 1.70414 192.119 4.07149C194.805 6.43883 196.148 9.51639 196.148 13.3041C196.148 17.0919 194.805 20.1694 192.119 22.5368C189.511 24.9041 186.114 26.0878 181.926 26.0878C177.896 26.0878 174.459 24.9041 171.733 22.5368C169.047 20.1694 167.704 17.0919 167.704 13.3041C167.704 9.51639 169.126 6.43883 171.733 3.95312C174.42 1.58577 177.817 0.4021 181.926 0.4021V0.520467ZM181.926 24.4307C184.375 24.4307 186.43 23.8783 188.089 22.7735C189.669 21.7477 190.815 20.4062 191.526 18.749C192.237 17.2103 192.593 15.4348 192.593 13.4225C192.593 11.4497 192.237 9.67421 191.526 8.09598C190.894 6.43883 189.748 5.09734 188.089 4.07149C186.43 2.96673 184.375 2.41434 181.926 2.41434C179.556 2.41434 177.422 3.00618 175.881 4.07149C174.222 5.09734 173.037 6.43883 172.326 8.09598C171.694 9.67421 171.378 11.4497 171.378 13.4225C171.378 15.3953 171.694 17.1708 172.326 18.749C173.037 20.4062 174.222 21.7477 175.881 22.7735C177.541 23.8783 179.556 24.4307 181.926 24.4307ZM224 0.520467V26.2062H222.104L201.719 4.30822V26.2062H199.822V0.520467H203.259L222.104 20.7613V0.520467H224Z" fill="#ED5625"></path><path d="M24.6517 53.9042V48.341L20.7406 41.2389L20.6221 41.1206C20.7011 41.0417 20.7801 41.0022 20.8591 41.0022H21.8073C21.9258 41.0022 22.0443 41.0022 22.0443 41.1206L25.2443 46.9206C25.2443 46.9206 25.2838 46.9206 25.3628 46.9206L28.6813 41.1206C28.6813 41.0022 28.7998 41.0022 28.9184 41.0022H29.8665C29.985 41.0022 29.985 41.0022 29.985 41.1206C29.985 41.1206 29.985 41.16 29.985 41.2389L26.0739 48.341C26.0739 48.341 26.0739 48.3804 26.0739 48.4593V54.0226C26.0739 54.1015 25.9949 54.141 25.8369 54.141H24.8887C24.7307 54.141 24.6517 54.1015 24.6517 54.0226V53.9042Z" fill="black"></path><path d="M32.3555 53.6675C31.6444 53.194 31.1704 52.5627 30.9333 51.7736C30.7753 51.1423 30.6963 50.3532 30.6963 49.4063C30.6963 48.4593 30.7753 47.7097 30.9333 47.1573C31.1704 46.3682 31.6444 45.7369 32.3555 45.2634C32.9876 44.79 33.7778 44.5532 34.7259 44.5532C35.6741 44.5532 36.3852 44.79 37.0963 45.2634C37.7284 45.658 38.163 46.2498 38.4 47.0389C38.558 47.5913 38.637 48.3804 38.637 49.4063C38.637 50.4321 38.558 51.2212 38.4 51.7736C38.163 52.5627 37.7284 53.194 37.0963 53.6675C36.3852 54.141 35.5951 54.3777 34.7259 54.3777C33.7778 54.3777 32.9876 54.141 32.3555 53.6675ZM36.2667 52.6022C36.7407 52.3655 36.9778 51.892 37.2148 51.3002C37.2938 50.9056 37.3333 50.2743 37.3333 49.4063C37.3333 48.5777 37.3333 47.9859 37.2148 47.5124C37.0568 46.96 36.7802 46.4866 36.3852 46.092C35.9111 45.7764 35.358 45.6185 34.7259 45.6185C34.0938 45.6185 33.5802 45.7764 33.1852 46.092C32.7111 46.4471 32.4741 46.9206 32.3555 47.5124C32.1975 47.907 32.158 48.5383 32.237 49.4063C32.237 50.2349 32.237 50.8267 32.3555 51.3002C32.4741 51.892 32.7111 52.3655 33.1852 52.6022C33.5407 52.9573 34.1333 53.194 34.7259 53.194C35.358 53.194 35.8716 52.9968 36.2667 52.6022Z" fill="black"></path><path d="M47.2889 44.6716H48.3556C48.4346 44.6716 48.4741 44.7505 48.4741 44.9084V54.0227C48.4741 54.1016 48.4346 54.141 48.3556 54.141H47.2889C47.2099 54.141 47.1704 54.1016 47.1704 54.0227V53.1941C47.1704 53.1941 47.1309 53.1546 47.0519 53.0757C46.4988 53.8648 45.6692 54.2594 44.563 54.2594C43.3778 54.2594 43.3778 54.141 42.7852 53.9043C42.3112 53.6675 41.9161 53.3124 41.6 52.839C41.363 52.3655 41.126 51.892 41.126 51.1818V44.79C41.126 44.7111 41.205 44.6716 41.363 44.6716H42.3112C42.4692 44.6716 42.5482 44.7111 42.5482 44.79V50.8267C42.5482 51.5369 42.7457 52.0893 43.1408 52.4839C43.5359 52.9573 44.0889 53.1941 44.8 53.1941C45.5112 53.1941 46.1038 52.9573 46.5778 52.4839C46.9334 52.1288 47.1704 51.5369 47.1704 50.8267V44.9084C47.1704 44.7505 47.2494 44.6716 47.4075 44.6716H47.2889Z" fill="black"></path><path d="M56.4148 44.79C56.4938 44.8689 56.5333 44.9478 56.5333 45.0267L56.2963 45.9736C56.2963 46.0525 56.2173 46.092 56.0592 46.092C55.9407 45.9736 55.5852 45.9736 55.3481 45.9736H55.1111C54.479 45.9736 53.9259 46.2104 53.4518 46.6838C53.0568 47.1573 52.8592 47.7097 52.8592 48.341V53.9042C52.8592 54.0621 52.7802 54.141 52.6222 54.141H51.674C51.516 54.141 51.437 54.0621 51.437 53.9042V44.79C51.437 44.6321 51.516 44.5532 51.674 44.5532H52.6222C52.7802 44.5532 52.8592 44.6321 52.8592 44.79V45.9736C53.1753 45.5002 53.5308 45.1451 53.9259 44.9083C54.321 44.6716 54.795 44.5532 55.3481 44.5532C55.8222 44.5532 56.0592 44.6716 56.4148 44.79Z" fill="black"></path><path d="M62.9331 53.3124C62.1035 52.7205 61.6294 51.892 61.6294 50.8266V50.2348C61.6294 50.077 61.7084 49.9981 61.8664 49.9981H62.8146C62.8936 49.9981 62.9331 50.077 62.9331 50.2348V50.7083C62.9331 51.4974 63.2491 52.0892 63.8812 52.4838C64.5133 52.9573 65.343 53.194 66.3701 53.194C67.4368 53.194 68.1479 52.9573 68.622 52.6022C69.0961 52.1287 69.3331 51.5763 69.3331 50.945C69.3331 50.2348 69.2146 50.1164 68.9775 49.7613C68.7405 49.4457 68.3849 49.1695 67.9109 48.9328C67.4368 48.696 66.7257 48.3409 65.8961 47.9858C64.9479 47.5913 64.1973 47.2756 63.6442 47.0389C63.1701 46.7232 62.7356 46.3681 62.3405 45.9736C62.1035 45.5001 61.8664 44.9083 61.8664 44.1981C61.8664 43.1722 62.2615 42.3831 63.0516 41.8307C63.7627 41.1994 64.7899 40.8838 66.1331 40.8838C67.3183 40.8838 68.622 41.2389 69.4516 41.9491C70.2417 42.5804 70.6368 43.409 70.6368 44.4348V44.9083C70.6368 44.9872 70.5578 45.0266 70.3998 45.0266H69.4516C69.2936 45.0266 69.2146 44.9872 69.2146 44.9083V44.5532C69.2146 43.843 68.9775 43.2511 68.385 42.7777C67.8319 42.3042 67.0417 42.0675 66.0146 42.0675C64.9479 42.0675 64.4738 42.1858 63.9998 42.5409C63.5257 42.9355 63.2887 43.4879 63.2887 44.1981C63.2887 44.7899 63.2887 45.0266 63.5257 45.2634C63.7627 45.579 64.1183 45.8552 64.5924 46.092C65.0664 46.3287 65.738 46.6049 66.6072 46.9205C67.5553 47.3151 68.3059 47.6307 68.859 47.8675C69.4121 48.262 69.8467 48.696 70.1627 49.1695C70.5578 49.643 70.7553 50.1954 70.7553 50.8266C70.7553 51.8525 70.3603 52.6811 69.5701 53.3124C68.78 53.9437 67.6738 54.2593 66.2516 54.2593C64.9479 54.2593 63.7627 53.9042 62.9331 53.3124Z" fill="black"></path><path d="M77.3923 45.7368H75.259C75.1405 45.7368 75.1405 45.7368 75.1405 45.8552V51.4184C75.1405 51.9708 75.2985 52.3654 75.6146 52.6021C75.8516 52.8389 76.2467 52.9967 76.7997 53.0756H77.2738C77.4318 53.0756 77.5109 53.115 77.5109 53.194V54.0225C77.5109 54.1014 77.4318 54.1409 77.2738 54.1409C77.1948 54.1409 76.9578 54.1409 76.5627 54.1409C75.6936 54.1409 75.022 53.9831 74.5479 53.6674C74.0738 53.3518 73.8368 52.7205 73.8368 51.7735V45.8552C73.8368 45.8552 73.8368 45.7368 73.7183 45.7368H72.6516C72.4936 45.7368 72.4146 45.6974 72.4146 45.6184V44.7899C72.4146 44.711 72.4936 44.6715 72.6516 44.6715H73.7183C73.8368 44.6715 73.8368 44.6715 73.8368 44.5531V42.4225C73.8368 42.2647 73.9158 42.1858 74.0738 42.1858H74.9034C75.0615 42.1858 75.1405 42.2647 75.1405 42.4225V44.5531C75.1405 44.5531 75.1405 44.6715 75.259 44.6715H77.3923C77.4713 44.6715 77.5109 44.711 77.5109 44.7899V45.6184C77.5109 45.6974 77.4713 45.7368 77.3923 45.7368Z" fill="black"></path><path d="M81.1851 53.6675C80.553 53.194 80.079 52.5627 79.7629 51.7736C79.6049 51.1423 79.5259 50.3532 79.5259 49.4063C79.5259 48.4593 79.6049 47.7097 79.7629 47.1573C80 46.3682 80.474 45.7369 81.1851 45.2634C81.8172 44.79 82.6074 44.5532 83.5555 44.5532C84.5037 44.5532 85.2148 44.79 85.9259 45.2634C86.558 45.658 86.9925 46.2498 87.2296 47.0389C87.3876 47.5913 87.4666 48.3804 87.4666 49.4063C87.4666 50.4321 87.3876 51.2212 87.2296 51.7736C86.9925 52.5627 86.558 53.194 85.9259 53.6675C85.2938 54.141 84.5037 54.3777 83.5555 54.3777C82.6864 54.3777 81.8963 54.141 81.1851 53.6675ZM85.0963 52.6022C85.5703 52.3655 85.8074 51.892 86.0444 51.3002C86.1234 50.9056 86.1629 50.2743 86.1629 49.4063C86.1629 48.5777 86.1629 47.9859 86.0444 47.5124C85.8864 46.96 85.6098 46.4866 85.2148 46.092C84.7407 45.7764 84.1876 45.6185 83.5555 45.6185C82.9234 45.6185 82.4098 45.7764 82.0148 46.092C81.5407 46.4471 81.3037 46.9206 81.1851 47.5124C81.0271 47.907 80.9481 48.5383 80.9481 49.4063C80.9481 50.2349 81.0666 50.8267 81.1851 51.3002C81.3037 51.892 81.5407 52.3655 82.0148 52.6022C82.3703 52.9573 82.9629 53.194 83.5555 53.194C84.1876 53.194 84.7012 52.9968 85.0963 52.6022Z" fill="black"></path><path d="M95.1702 44.79C95.2492 44.8689 95.2887 44.9478 95.2887 45.0267L95.0516 45.9736C94.9726 46.0525 94.8936 46.092 94.8146 46.092C94.5776 45.9736 94.3405 45.9736 94.1035 45.9736H93.8665C93.2344 45.9736 92.6813 46.2104 92.2072 46.6838C91.7331 47.1573 91.5356 47.7097 91.6146 48.341V53.9042C91.6146 54.0621 91.5356 54.141 91.3776 54.141H90.4294C90.2714 54.141 90.1924 54.0621 90.1924 53.9042V44.79C90.1924 44.6321 90.2714 44.5532 90.4294 44.5532H91.3776C91.5356 44.5532 91.6146 44.6321 91.6146 44.79V45.9736C91.8516 45.5002 92.1677 45.1451 92.5628 44.9083C93.0368 44.6716 93.5109 44.5532 93.985 44.5532C94.5776 44.5532 94.8146 44.6716 95.1702 44.79Z" fill="black"></path><path d="M97.0664 57.692V56.9818C97.0664 56.824 97.1454 56.7451 97.3034 56.7451C97.7775 56.7451 98.2515 56.6267 98.4886 56.6267C98.7256 56.4689 98.9627 56.1927 99.1997 55.7982C99.3577 55.4825 99.5552 54.9696 99.7923 54.2594C99.7923 54.141 99.7923 54.141 99.7923 54.141L96.5923 44.9084V44.79C96.5923 44.7111 96.6318 44.6716 96.7108 44.6716H97.7775C97.896 44.6716 98.0145 44.6716 98.0145 44.79L100.503 52.3655C100.622 52.3655 100.622 52.3655 100.622 52.3655L102.992 44.79C103.071 44.7111 103.15 44.6716 103.229 44.6716H104.296C104.375 44.6716 104.415 44.7505 104.415 44.9084L100.859 54.9696C100.543 55.8376 100.266 56.4689 100.029 56.8635C99.7133 57.258 99.3972 57.5342 99.0812 57.692C98.6861 57.8499 98.0935 57.9288 97.3034 57.9288H97.1849C97.1059 57.9288 97.0664 57.8499 97.0664 57.692Z" fill="black"></path><path d="M105.244 55.5613C105.244 55.5613 105.244 55.5613 105.244 55.4429L106.192 51.4184C106.192 51.3 106.192 51.3 106.311 51.3H107.14C107.259 51.3 107.259 51.3 107.377 51.3C107.377 51.4184 107.377 51.4184 107.377 51.5368L106.311 55.5613C106.311 55.5613 106.192 55.6796 106.074 55.6796H105.481C105.363 55.6796 105.363 55.6796 105.363 55.5613H105.244Z" fill="black"></path><path d="M116.267 53.7858C115.635 53.3913 115.121 52.8784 114.726 52.2471C114.37 51.5369 114.133 50.8266 114.133 49.8797V45.2634C114.133 44.3164 114.37 43.6062 114.726 42.896C115.121 42.2647 115.635 41.7518 116.267 41.3573C116.978 41.0416 117.768 40.8838 118.637 40.8838C119.585 40.8838 120.375 41.0416 121.007 41.3573C121.718 41.7518 122.272 42.2647 122.667 42.896C123.022 43.6062 123.141 44.3164 123.141 45.2634V49.8797C123.141 50.8266 123.022 51.5369 122.667 52.2471C122.272 52.8784 121.718 53.3913 121.007 53.7858C120.415 54.1409 119.585 54.2593 118.637 54.2593C117.807 54.2593 116.978 54.1409 116.267 53.7858ZM121.007 52.3654C121.56 51.7341 121.837 50.945 121.837 49.9981V45.2634C121.837 44.3164 121.56 43.5273 121.007 42.896C120.375 42.3437 119.585 42.0675 118.637 42.0675C117.689 42.0675 116.938 42.3437 116.385 42.896C115.753 43.5273 115.437 44.3164 115.437 45.2634V49.9981C115.437 50.945 115.753 51.7341 116.385 52.3654C116.938 52.9178 117.689 53.194 118.637 53.194C119.585 53.194 120.375 52.9178 121.007 52.3654Z" fill="black"></path><path d="M132.148 44.6716H133.096C133.254 44.6716 133.333 44.7505 133.333 44.9084V54.0227C133.333 54.1016 133.254 54.141 133.096 54.141H132.148C131.99 54.141 131.911 54.1016 131.911 54.0227V53.1941C131.911 53.1941 131.911 53.1546 131.911 53.0757C131.792 53.0757 131.792 53.0757 131.792 53.0757C131.239 53.8648 130.41 54.2594 129.303 54.2594C128.118 54.2594 128.118 54.141 127.644 53.9043C127.091 53.6675 126.656 53.3124 126.34 52.839C126.103 52.3655 125.985 51.892 125.985 51.1818V44.79C125.985 44.7111 126.024 44.6716 126.103 44.6716H127.17C127.249 44.6716 127.289 44.7111 127.289 44.79V50.8267C127.289 51.5369 127.486 52.0893 127.881 52.4839C128.355 52.9573 128.908 53.1941 129.54 53.1941C130.252 53.1941 130.844 52.9573 131.318 52.4839C131.674 52.1288 131.911 51.5369 131.911 50.8267V44.9084C131.911 44.7505 131.99 44.6716 132.148 44.6716Z" fill="black"></path><path d="M141.156 44.79C141.314 44.8689 141.353 44.9478 141.274 45.0267L141.156 45.9736C141.076 46.0525 140.997 46.092 140.918 46.092C140.681 45.9736 140.444 45.9736 140.089 45.9736H139.852C139.22 45.9736 138.706 46.2104 138.311 46.6838C137.837 47.1573 137.6 47.7097 137.6 48.341V53.9042C137.6 54.0621 137.521 54.141 137.363 54.141H136.415C136.257 54.141 136.178 54.0621 136.178 53.9042V44.79C136.178 44.6321 136.257 44.5532 136.415 44.5532H137.363C137.521 44.5532 137.6 44.6321 137.6 44.79V45.9736C137.916 45.5002 138.272 45.1451 138.667 44.9083C139.062 44.6716 139.536 44.5532 140.089 44.5532C140.681 44.5532 140.918 44.6716 141.156 44.79Z" fill="black"></path><path d="M148.859 53.7858C148.227 53.4702 147.713 52.9967 147.318 52.3654C147.002 51.7341 146.805 50.9845 146.726 50.1164V45.0266C146.726 44.1981 146.963 43.4879 147.318 42.896C147.792 42.3042 148.266 41.7124 148.859 41.4756C149.57 41.0811 150.36 40.8838 151.229 40.8838C152.098 40.8838 152.889 41.0811 153.6 41.4756C154.232 41.7913 154.745 42.2647 155.14 42.896C155.535 43.4484 155.733 44.1586 155.733 45.0266C155.733 45.7369 155.733 45.0266 155.614 45.145C155.614 45.145 155.614 45.145 155.496 45.145L154.548 45.2634C154.39 45.2634 154.311 45.1845 154.311 45.0266C154.311 44.0797 154.034 43.3695 153.481 42.896C152.928 42.3437 152.177 42.0675 151.229 42.0675C150.281 42.0675 149.531 42.3437 148.977 42.896C148.424 43.4484 148.148 44.1586 148.148 45.0266V50.2348C148.148 51.1028 148.424 51.813 148.977 52.3654C149.531 52.9178 150.281 53.194 151.229 53.194C152.177 53.194 152.928 52.9178 153.481 52.3654C154.034 51.813 154.311 51.1028 154.311 50.2348C154.311 50.077 154.39 49.9981 154.548 49.9981L155.496 50.1164C155.654 50.1164 155.733 50.1559 155.733 50.2348C155.733 51.0634 155.496 51.7736 155.14 52.3654C154.785 52.9573 154.311 53.5491 153.6 53.7858C152.889 54.1804 152.098 54.3777 151.229 54.3777C150.36 54.3777 149.57 54.1804 148.859 53.7858Z" fill="black"></path><path d="M164.266 45.3818C164.899 45.9341 165.215 46.6838 165.215 47.6307V53.9042C165.215 54.062 165.136 54.1409 164.978 54.1409H164.029C163.871 54.1409 163.792 54.062 163.792 53.9042V53.194C163.792 53.194 163.792 53.1545 163.792 53.0756C163.792 53.0756 163.753 53.0756 163.674 53.0756C163.358 53.4702 162.963 53.7464 162.489 53.9042C161.936 54.1409 161.382 54.2593 160.829 54.2593C159.881 54.2593 159.131 54.0226 158.578 53.5491C157.945 53.1545 157.629 52.4838 157.629 51.5369C157.629 50.5899 157.985 49.8403 158.696 49.2879C159.328 48.7355 160.276 48.4593 161.541 48.4593H163.792V47.7491C163.792 47.1178 163.634 46.6049 163.318 46.2103C162.844 45.8552 162.37 45.6185 161.541 45.6185C160.829 45.6185 160.474 45.7369 160.118 45.9736C159.723 46.2103 159.486 46.526 159.407 46.9205C159.289 47.0389 159.289 47.1573 159.17 47.1573L158.103 47.0389C157.985 47.0389 157.866 46.9205 157.985 46.8022C158.064 46.1709 158.42 45.6185 159.052 45.145C159.763 44.6716 160.592 44.4348 161.541 44.4348C162.607 44.4348 163.555 44.7899 164.266 45.3818ZM162.963 52.6022C163.516 52.2076 163.792 51.6947 163.792 51.0634V49.643C163.792 49.5246 163.792 49.5246 163.792 49.5246H161.778C160.908 49.5246 160.237 49.6824 159.763 49.9981C159.21 50.3926 158.973 50.8661 159.052 51.4185C159.052 52.0103 159.17 52.3654 159.526 52.7205C159.921 52.9573 160.434 53.0756 161.066 53.0756C161.778 53.0756 162.489 52.9573 163.081 52.6022H162.963Z" fill="black"></path><path d="M174.34 45.3818C174.973 46.0131 175.289 46.8022 175.289 47.7491V54.0226C175.289 54.1015 175.21 54.141 175.052 54.141H174.103C173.945 54.141 173.866 54.1015 173.866 54.0226V48.1042C173.866 47.394 173.748 46.8022 173.274 46.3287C172.8 45.9342 172.247 45.7369 171.615 45.7369C171.022 45.7369 170.429 45.9736 169.955 46.3287C169.481 46.8022 169.363 47.2757 169.363 47.9859V54.0226C169.363 54.1015 169.284 54.141 169.126 54.141H168.177C168.019 54.141 167.94 54.1015 167.94 54.0226V44.9083C167.94 44.7505 168.019 44.6716 168.177 44.6716H169.126C169.284 44.6716 169.363 44.7505 169.363 44.9083V45.7369C169.837 45.0267 170.785 44.5532 171.97 44.5532C173.037 44.5532 173.748 44.9083 174.34 45.5002V45.3818Z" fill="black"></path><path d="M180.267 54.0227L177.185 44.79C177.185 44.7111 177.225 44.6716 177.304 44.6716H178.37C178.489 44.6716 178.607 44.6716 178.607 44.79L180.978 52.1288C181.096 52.1288 181.096 52.1288 181.096 52.1288L183.467 44.79C183.467 44.7111 183.546 44.6716 183.704 44.6716H184.77C184.889 44.6716 185.007 44.79 184.889 44.9084L181.807 54.0227C181.807 54.1016 181.728 54.141 181.57 54.141H180.504C180.385 54.141 180.267 54.141 180.267 54.0227Z" fill="black"></path><path d="M192.711 45.3818C193.343 45.9341 193.659 46.6838 193.659 47.6307V53.9042C193.659 54.062 193.58 54.1409 193.422 54.1409H192.474C192.316 54.1409 192.237 54.062 192.237 53.9042V53.194C192.237 53.194 192.237 53.1545 192.237 53.0756C191.921 53.4702 191.526 53.7464 191.052 53.9042C190.499 54.1409 189.906 54.2593 189.274 54.2593C188.405 54.2593 187.654 54.0226 187.022 53.5491C186.469 53.1545 186.193 52.4838 186.193 51.5369C186.114 50.5899 186.43 49.8403 187.141 49.2879C187.852 48.7355 188.839 48.4593 190.104 48.4593H192.237H192.355V47.7491C192.355 47.1178 192.158 46.6049 191.763 46.2103C191.407 45.8552 190.815 45.6185 190.104 45.6185C189.274 45.6185 189.037 45.7369 188.563 45.9736C188.247 46.2103 188.01 46.526 187.852 46.9205C187.852 47.0389 187.852 47.1573 187.615 47.1573L186.667 47.0389C186.548 47.0389 186.43 46.9205 186.43 46.8022C186.588 46.1709 186.983 45.6185 187.615 45.145C188.326 44.6716 189.155 44.4348 190.104 44.4348C191.052 44.4348 192.118 44.7899 192.711 45.3818ZM191.526 52.6022C192.079 52.2076 192.355 51.6947 192.355 51.0634V49.643C192.355 49.5246 192.355 49.5246 192.237 49.5246H190.222C189.432 49.5246 188.8 49.6824 188.326 49.9981C187.773 50.3926 187.496 50.8661 187.496 51.4185C187.496 52.0103 187.733 52.3654 188.089 52.7205C188.484 52.9573 188.997 53.0756 189.63 53.0756C190.222 53.0756 191.052 52.9573 191.526 52.6022Z" fill="black"></path><path d="M197.807 53.9042C197.254 53.6675 196.819 53.3913 196.503 53.0757C196.187 52.6811 196.029 52.2471 196.029 51.7736V51.5369C196.029 51.3791 196.108 51.3002 196.266 51.3002H197.214C197.293 51.3002 197.333 51.3791 197.333 51.5369V51.6553C197.333 52.0498 197.57 52.4049 198.044 52.7206C198.439 53.0362 198.953 53.194 199.585 53.194C200.296 53.194 200.849 53.0362 201.244 52.7206C201.639 52.4049 201.837 52.0498 201.837 51.6553C201.837 51.1818 201.718 51.0634 201.481 50.8267C201.323 50.6689 201.086 50.511 200.77 50.3532C200.533 50.2743 200.098 50.1559 199.466 49.9981C198.755 49.7614 198.163 49.5641 197.689 49.4063C197.214 49.1695 196.859 48.9328 196.503 48.5777C196.266 48.1042 196.029 47.7491 196.029 47.1573C196.029 46.3682 196.345 45.7369 196.977 45.2634C197.61 44.79 198.479 44.5532 199.585 44.5532C200.533 44.5532 200.889 44.6716 201.363 44.9083C201.916 45.1451 202.35 45.4607 202.666 45.8553C202.982 46.2498 203.14 46.6838 203.14 47.1573C203.14 47.3151 203.061 47.394 202.903 47.394H201.955C201.876 47.394 201.837 47.3151 201.837 47.1573C201.837 46.6838 201.639 46.3287 201.244 46.092C200.849 45.7764 200.296 45.6185 199.585 45.6185C198.874 45.6185 198.4 45.7369 197.926 45.9736C197.57 46.2104 197.452 46.5655 197.452 47.0389C197.452 47.5124 197.57 47.7491 197.926 47.9859C198.4 48.2226 198.992 48.4593 199.703 48.6961C200.494 48.9328 201.086 49.1301 201.481 49.2879C201.955 49.5247 202.35 49.8008 202.666 50.1165C203.061 50.511 203.259 50.9845 203.259 51.5369C203.259 52.1287 202.903 52.9573 202.192 53.4308C201.6 53.9042 200.77 54.141 199.703 54.141C198.637 54.141 198.4 54.141 197.807 53.9042Z" fill="black"></path></g><defs><clipPath id="clip0_14366_1199"><rect width="224" height="58" fill="white" transform="translate(0 0.520508)"></rect></clipPath></defs></svg> 