<?xml version="1.0" encoding="UTF-8"?> <svg xmlns="http://www.w3.org/2000/svg" id="Layer_1" data-name="Layer 1" viewBox="0 0 77.45 52.08"><defs><style> .cls-1 { fill: #fff; fill-rule: evenodd; stroke-width: 0px; } </style></defs><path class="cls-1" d="M34.25,35.64v-.2h-9.6c.2,2.4-.3,4.8-1.6,6.8-.7.7-1.5,1.2-2.4,1.6-.9.3-1.9.4-2.9.3-1.1.1-2.3-.1-3.3-.6s-1.9-1.2-2.7-2.1c-1.5-2.4-2.2-5.3-2-8.2v-14.9c-.2-2.8.4-5.7,1.8-8.1.6-.9,1.5-1.6,2.4-2,1-.5,2-.7,3.1-.6,1-.1,2.1,0,3.1.4,1,.3,1.9.9,2.7,1.6,1.3,2,2,4.4,1.7,6.8h9.5v-.2c.1-5.4-1.3-9.5-4.2-12.2C26.25,1.14,21.75-.26,17.15.04c-2.3-.1-4.6.3-6.8,1.1-2.2.8-4.1,2.1-5.7,3.8C1.35,8.74-.25,13.64.05,18.64v15c-.2,2.5.2,5,1,7.3.8,2.3,2.1,4.5,3.8,6.3,1.7,1.6,3.8,2.9,6,3.7,2.2.8,4.6,1.2,7,1.1,4.4.3,8.8-1.2,12.2-4.1,2.9-2.9,4.3-6.9,4.2-12.3Z"></path><path class="cls-1" d="M73.05,5.14c-1.6-1.5-3.5-2.7-5.6-3.5s-4.3-1.1-6.5-1h-17v50.5h9.8v-18.3h7.2c2.2.1,4.4-.2,6.5-1s4-1.9,5.6-3.5c2.9-3.2,4.4-7.4,4.4-11.7s-1.6-8.3-4.4-11.5ZM65.95,22.84c-.6.8-1.3,1.4-2.2,1.8-.9.4-1.8.6-2.8.6h-7.1V8.34h7.1c1-.1,1.9.1,2.8.6.9.4,1.6,1.1,2.2,1.8,1.2,1.8,1.8,4,1.7,6.1.1,2.1-.5,4.2-1.7,6Z"></path></svg> 