<?xml version="1.0" encoding="UTF-8"?> <svg xmlns="http://www.w3.org/2000/svg" width="79" height="60" viewBox="0 0 79 60" fill="none"><path d="M34.5752 10.9075H59.6874C61.6555 10.9075 63.2538 9.37031 63.2538 7.47077C63.2538 5.57425 61.6555 4.03406 59.6874 4.03406H34.5752C32.6071 4.03406 31.0088 5.57425 31.0088 7.47077C31.0088 9.37031 32.6071 10.9075 34.5752 10.9075ZM34.5752 6.16615H59.6874C60.4364 6.16615 61.0413 6.75202 61.0413 7.47379C61.0413 8.19254 60.4364 8.77841 59.6874 8.77841H34.5752C33.8262 8.77841 33.2213 8.19254 33.2213 7.47379C33.2213 6.75202 33.8262 6.16615 34.5752 6.16615ZM16.5238 10.9407C17.9591 10.9407 19.2503 10.1072 19.7987 8.82975C20.3471 7.55535 20.0463 6.08458 19.0309 5.10915C18.0186 4.1307 16.4924 3.84078 15.1699 4.36926C13.8443 4.89775 12.9793 6.142 12.9793 7.5251C12.9824 9.40956 14.5682 10.9377 16.5238 10.9407ZM16.5238 6.23866C17.0659 6.23866 17.5549 6.55274 17.7617 7.03288C17.9685 7.51607 17.8526 8.06869 17.4702 8.43716C17.0879 8.80559 16.5144 8.91733 16.013 8.71801C15.5147 8.5187 15.1888 8.04758 15.1888 7.52812C15.1888 6.81541 15.7873 6.23866 16.5238 6.23866ZM7.99631 10.9407C9.42854 10.9407 10.7228 10.1072 11.2712 8.82975C11.8197 7.55535 11.5157 6.08458 10.5034 5.10915C9.48805 4.1307 7.96491 3.84078 6.6393 4.36926C5.31369 4.89773 4.45179 6.142 4.45179 7.5251C4.45179 9.40956 6.03761 10.9377 7.99631 10.9407ZM7.99631 6.23866C8.53535 6.23866 9.02419 6.55274 9.2311 7.03288C9.43794 7.51607 9.32512 8.06869 8.93965 8.43716C8.55731 8.80559 7.98381 8.91733 7.48551 8.71801C6.98408 8.5187 6.65819 8.04758 6.65819 7.52812C6.65819 6.81541 7.25667 6.23866 7.99631 6.23866ZM25.0545 10.9407C26.4867 10.9407 27.7809 10.1072 28.3294 8.82975C28.8778 7.55535 28.5738 6.08458 27.5616 5.10915C26.5462 4.1307 25.0231 3.84078 23.6975 4.36926C22.375 4.89775 21.5099 6.142 21.5099 7.5251C21.5131 9.40956 23.0989 10.9377 25.0545 10.9407ZM25.0545 6.23866C25.5935 6.23866 26.0823 6.55274 26.2893 7.03288C26.4961 7.51607 26.3833 8.06869 26.0009 8.43716C25.6186 8.80559 25.042 8.91733 24.5437 8.71801C24.0422 8.5187 23.7164 8.04758 23.7164 7.52812C23.7164 6.81541 24.3148 6.23866 25.0545 6.23866ZM43.3225 38.8786C43.3225 39.4675 42.8273 39.9416 42.2162 39.9446H9.7582C9.15022 39.9446 8.65506 39.4675 8.65506 38.8786C8.65506 38.2897 9.15022 37.8125 9.7582 37.8125H42.2162C42.8273 37.8125 43.3225 38.2897 43.3225 38.8786ZM41.5017 45.9151C41.5017 46.504 41.0096 46.9782 40.3985 46.9782H9.75852C9.15054 46.9782 8.65538 46.504 8.65538 45.9151C8.65538 45.3263 9.15054 44.8491 9.75852 44.8491H40.3985C40.69 44.8491 40.972 44.9608 41.1789 45.1602C41.3857 45.3595 41.5017 45.6313 41.5017 45.9151ZM76.9088 41.4637L75.7806 41.1195C75.4735 39.9538 74.9909 38.8364 74.3547 37.8005L74.9031 36.7828C75.2855 36.07 75.1444 35.2033 74.5553 34.6386L73.0228 33.1618H73.0259C72.4367 32.5941 71.5341 32.4612 70.7977 32.8326L69.7478 33.3581C69.6946 33.3279 69.6413 33.3007 69.5911 33.2735C70.033 33.1226 70.3307 32.7209 70.3307 32.2679V6.8758C70.3245 3.21859 67.2501 0.25603 63.4549 0.25H7.12581C3.33061 0.25604 0.253129 3.21859 0.25 6.8758V50.2999C0.253135 53.9571 3.33061 56.9227 7.12581 56.9257H59.9072L60.1391 57.6294C60.3867 58.3935 61.1232 58.9129 61.9568 58.9098H64.1223C64.956 58.9098 65.6924 58.3874 65.94 57.6203L66.2972 56.5331C67.5069 56.2372 68.6665 55.7751 69.7414 55.1591L70.8007 55.6936C71.5403 56.0651 72.4429 55.9322 73.0289 55.3614L74.5614 53.8846C75.1537 53.3199 75.2916 52.4471 74.9061 51.7375L74.3608 50.7288H74.3577C74.997 49.693 75.4765 48.5755 75.7836 47.4098L76.9181 47.0625L76.9212 47.0595C77.7141 46.8179 78.25 46.1112 78.25 45.3079V43.2211C78.2531 42.4148 77.7078 41.7021 76.9055 41.4636L76.9088 41.4637ZM7.12615 2.38215H63.4521C66.0281 2.38517 68.1153 4.39348 68.1185 6.87586V12.5625H2.45959V6.87586C2.46272 4.39348 4.5501 2.38215 7.12615 2.38215ZM2.45975 50.2996V14.694H68.1186V32.2668C68.1186 32.3755 68.1374 32.4873 68.1719 32.5899C67.5639 32.3423 66.9371 32.14 66.2979 31.9829L65.9375 30.8897C65.6867 30.1256 64.9502 29.6061 64.1198 29.6092H61.9543C61.1206 29.6062 60.3811 30.1287 60.1366 30.8988L59.7794 31.9859C58.5665 32.2819 57.407 32.7439 56.3352 33.36L55.279 32.8345L55.2759 32.8315C54.5394 32.463 53.6368 32.5989 53.0508 33.1667L51.5183 34.6435H51.5215C50.9291 35.2082 50.7912 36.078 51.1767 36.7907L51.7252 37.7933C51.089 38.8291 50.6064 39.9466 50.2993 41.1153L49.1647 41.4626C48.3719 41.7042 47.8328 42.4139 47.836 43.2141V45.2979C47.8329 46.1013 48.375 46.8139 49.1742 47.0525L50.3024 47.3968L50.2993 47.3937C50.6064 48.5625 51.0859 49.6798 51.7252 50.7157L51.1767 51.7365H51.1798C50.7944 52.4462 50.9354 53.3129 51.5246 53.8776L52.4773 54.7927L7.12661 54.7957C4.55056 54.7927 2.46288 52.782 2.45975 50.2996ZM76.0316 45.0902L74.5054 45.5583C74.123 45.676 73.8379 45.9841 73.7595 46.3616C73.4806 47.6904 72.9353 48.9558 72.1549 50.0822C71.9324 50.4053 71.9073 50.8221 72.0954 51.1663L72.8319 52.5283L71.6159 53.7001L70.1931 52.9934L70.19 52.9904C69.8359 52.8152 69.4065 52.8363 69.0744 53.0508C67.9023 53.7997 66.5891 54.3221 65.2102 54.591C64.8154 54.6665 64.4957 54.9443 64.3735 55.3127L63.894 56.7744H62.1766L61.6908 55.3037C61.5686 54.9352 61.2521 54.6604 60.8572 54.5849C59.4782 54.3161 58.1651 53.7907 56.9962 53.0387C56.6609 52.8213 56.2284 52.8001 55.8712 52.9813L54.4578 53.691L53.2418 52.5253L53.9752 51.1573V51.1543C54.1601 50.81 54.1381 50.3993 53.9156 50.0762C53.1353 48.9467 52.5931 47.6813 52.3173 46.3526C52.239 45.9751 51.9506 45.664 51.5652 45.5492L50.0452 45.0872V43.4292L51.5714 42.9611C51.9538 42.8433 52.239 42.5353 52.3173 42.1578C52.5962 40.8259 53.1415 39.5636 53.9219 38.4342C54.1444 38.111 54.1694 37.6973 53.9814 37.3531L53.2418 35.9911L54.4609 34.8193L55.8805 35.526H55.8836C56.2409 35.7042 56.6671 35.683 57.0024 35.4686C58.1745 34.7197 59.4845 34.1972 60.8666 33.9284C61.2614 33.8529 61.5811 33.5751 61.7002 33.2036L62.1797 31.742H63.9002L64.386 33.2127V33.2157C64.5082 33.5841 64.8278 33.859 65.2196 33.9345C66.6017 34.2032 67.9117 34.7287 69.0837 35.4807C69.4191 35.6951 69.8484 35.7162 70.2056 35.5381L71.619 34.8284L72.8381 36.0031L72.1048 37.3711H72.1016C71.9167 37.7154 71.9418 38.1291 72.1612 38.4492C72.9415 39.5787 73.4837 40.8441 73.7595 42.1729C73.8378 42.5534 74.1261 42.8614 74.5116 42.9762L76.0284 43.4382L76.0316 45.0902ZM57.4001 38.8267C55.1186 41.0222 54.4386 44.3291 55.6702 47.2011C56.905 50.07 59.8133 51.9424 63.0381 51.9424C66.2629 51.9424 69.1712 50.07 70.4059 47.2011C71.6407 44.3291 70.9575 41.0222 68.6761 38.8267C65.561 35.8309 60.5154 35.8309 57.4001 38.8267ZM67.115 48.1883C65.4697 49.7768 62.9908 50.251 60.8377 49.3903C58.6847 48.5296 57.2839 46.5062 57.2839 44.2624C57.2839 42.0156 58.6847 39.9922 60.8377 39.1315C62.9908 38.2738 65.4697 38.7479 67.115 40.3334C69.362 42.5048 69.3589 46.017 67.115 48.1852V48.1883ZM12.7474 26.1724C12.3181 25.7557 12.3181 25.0822 12.7474 24.6655L18.1785 19.4319C18.6141 19.0363 19.2973 19.0453 19.7204 19.453C20.1466 19.8607 20.1529 20.5191 19.7423 20.9389L15.0947 25.4175L19.407 29.579C19.8175 29.9988 19.8113 30.6571 19.385 31.0649C18.962 31.4726 18.2788 31.4816 17.8431 31.086L12.7474 26.1724ZM32.121 20.9388C31.7104 20.5191 31.7198 19.8607 32.1429 19.453C32.566 19.0453 33.2492 19.0362 33.6848 19.4319L39.1159 24.6654H39.1127C39.3227 24.8648 39.4387 25.1366 39.4387 25.4174C39.4387 25.7013 39.3227 25.9731 39.1127 26.1724L34.017 31.0829L34.0201 31.0799C33.5845 31.4604 32.917 31.4423 32.5002 31.0436C32.0834 30.642 32.0646 30.0017 32.4563 29.579L36.7686 25.4235L32.121 20.9388ZM21.5068 31.0589L28.0755 18.4417V18.4387C28.3575 17.9283 29.0094 17.726 29.5484 17.9857C30.0843 18.2454 30.3068 18.8705 30.0498 19.396L23.4811 32.0132C23.3526 32.2729 23.1238 32.4692 22.8418 32.5628C22.5597 32.6564 22.2526 32.6383 21.9862 32.5084C21.7198 32.3816 21.5193 32.1551 21.4284 31.8803C21.3375 31.6085 21.3657 31.3095 21.5068 31.0589Z" fill="#FC766A"></path><path d="M16.5238 6.24168V6.23866M16.5238 6.23866C17.0659 6.23866 17.5549 6.55274 17.7617 7.03288C17.9685 7.51607 17.8526 8.06869 17.4702 8.43716C17.0879 8.80559 16.5144 8.91733 16.013 8.71801C15.5147 8.5187 15.1888 8.04758 15.1888 7.52812C15.1888 6.81541 15.7873 6.23866 16.5238 6.23866ZM7.99631 6.24168V6.23866M7.99631 6.23866C8.53534 6.23866 9.02419 6.55274 9.2311 7.03288C9.43794 7.51607 9.32512 8.06869 8.93965 8.43716C8.55731 8.80559 7.98381 8.91733 7.48551 8.71801C6.98408 8.5187 6.65819 8.04758 6.65819 7.52812C6.65819 6.81541 7.25667 6.23866 7.99631 6.23866ZM25.0545 6.24168V6.23866M25.0545 6.23866C25.5935 6.23866 26.0823 6.55274 26.2893 7.03288C26.4961 7.51607 26.3833 8.06869 26.0009 8.43716C25.6186 8.80559 25.042 8.91733 24.5437 8.71801C24.0422 8.5187 23.7164 8.04758 23.7164 7.52812C23.7164 6.81541 24.3148 6.23866 25.0545 6.23866ZM41.5048 45.9152H41.5017M41.5017 45.9152C41.5017 46.504 41.0096 46.9782 40.3985 46.9782H9.75852C9.15054 46.9782 8.65538 46.504 8.65538 45.9152C8.65538 45.3263 9.15054 44.8491 9.75852 44.8491H40.3985C40.69 44.8491 40.972 44.9608 41.1789 45.1602C41.3857 45.3595 41.5017 45.6313 41.5017 45.9152ZM34.5752 10.9075H59.6874C61.6555 10.9075 63.2538 9.37031 63.2538 7.47077C63.2538 5.57425 61.6555 4.03406 59.6874 4.03406H34.5752C32.6071 4.03406 31.0088 5.57425 31.0088 7.47077C31.0088 9.37031 32.6071 10.9075 34.5752 10.9075ZM34.5752 6.16615H59.6874C60.4364 6.16615 61.0413 6.75202 61.0413 7.47379C61.0413 8.19254 60.4364 8.77841 59.6874 8.77841H34.5752C33.8262 8.77841 33.2213 8.19254 33.2213 7.47379C33.2213 6.75202 33.8262 6.16615 34.5752 6.16615ZM16.5238 10.9407C17.9591 10.9407 19.2503 10.1072 19.7987 8.82975C20.3471 7.55535 20.0463 6.08458 19.0309 5.10915C18.0186 4.1307 16.4924 3.84078 15.1699 4.36926C13.8443 4.89775 12.9793 6.142 12.9793 7.5251C12.9824 9.40956 14.5682 10.9377 16.5238 10.9407ZM7.99631 10.9407C9.42854 10.9407 10.7228 10.1072 11.2712 8.82975C11.8197 7.55535 11.5157 6.08458 10.5034 5.10915C9.48805 4.1307 7.96491 3.84078 6.6393 4.36926C5.31369 4.89773 4.45179 6.142 4.45179 7.5251C4.45179 9.40956 6.03761 10.9377 7.99631 10.9407ZM25.0545 10.9407C26.4867 10.9407 27.7809 10.1072 28.3294 8.82975C28.8778 7.55535 28.5738 6.08458 27.5616 5.10915C26.5462 4.1307 25.0231 3.84078 23.6975 4.36926C22.375 4.89775 21.5099 6.142 21.5099 7.5251C21.5131 9.40956 23.0989 10.9377 25.0545 10.9407ZM43.3225 38.8786C43.3225 39.4675 42.8273 39.9416 42.2162 39.9446H9.7582C9.15022 39.9446 8.65506 39.4675 8.65506 38.8786C8.65506 38.2897 9.15022 37.8126 9.7582 37.8126H42.2162C42.8273 37.8126 43.3225 38.2897 43.3225 38.8786ZM76.9088 41.4637L75.7806 41.1195C75.4735 39.9538 74.9909 38.8364 74.3547 37.8005L74.9031 36.7828C75.2855 36.07 75.1444 35.2033 74.5553 34.6386L73.0228 33.1618H73.0259C72.4367 32.5941 71.5341 32.4612 70.7977 32.8326L69.7478 33.3581C69.6946 33.3279 69.6413 33.3007 69.5911 33.2735C70.033 33.1226 70.3307 32.7209 70.3307 32.2679V6.8758C70.3245 3.21859 67.2501 0.25603 63.4549 0.25H7.12581C3.33061 0.25604 0.253129 3.21859 0.25 6.8758V50.2999C0.253135 53.9571 3.33061 56.9227 7.12581 56.9257H59.9072L60.1391 57.6294C60.3867 58.3935 61.1232 58.9129 61.9568 58.9098H64.1223C64.956 58.9098 65.6924 58.3874 65.94 57.6203L66.2972 56.5331C67.5069 56.2372 68.6665 55.7751 69.7414 55.1591L70.8007 55.6936C71.5403 56.0651 72.4429 55.9322 73.0289 55.3614L74.5614 53.8846C75.1537 53.3199 75.2916 52.4471 74.9061 51.7375L74.3608 50.7288H74.3577C74.997 49.693 75.4765 48.5755 75.7836 47.4098L76.9181 47.0625L76.9212 47.0595C77.7141 46.8179 78.25 46.1112 78.25 45.3079V43.2211C78.2531 42.4148 77.7078 41.7021 76.9055 41.4636L76.9088 41.4637ZM7.12615 2.38215H63.4521C66.0281 2.38517 68.1153 4.39348 68.1185 6.87586V12.5625H2.45959V6.87586C2.46272 4.39348 4.5501 2.38215 7.12615 2.38215ZM2.45975 50.2996V14.694H68.1186V32.2668C68.1186 32.3755 68.1374 32.4872 68.1719 32.5899C67.5639 32.3423 66.9371 32.14 66.2979 31.9829L65.9375 30.8897C65.6867 30.1256 64.9502 29.6061 64.1198 29.6092H61.9543C61.1206 29.6062 60.3811 30.1287 60.1366 30.8988L59.7794 31.9859C58.5665 32.2819 57.407 32.7439 56.3352 33.36L55.279 32.8345L55.2759 32.8315C54.5394 32.463 53.6368 32.5989 53.0508 33.1667L51.5183 34.6435H51.5215C50.9291 35.2082 50.7912 36.078 51.1767 36.7907L51.7252 37.7933C51.089 38.8291 50.6064 39.9466 50.2993 41.1153L49.1647 41.4626C48.3719 41.7042 47.8328 42.4139 47.836 43.2141V45.2979C47.8329 46.1013 48.375 46.8139 49.1742 47.0525L50.3024 47.3968L50.2993 47.3937C50.6064 48.5625 51.0859 49.6798 51.7252 50.7157L51.1767 51.7365H51.1798C50.7944 52.4462 50.9354 53.3129 51.5246 53.8776L52.4773 54.7927L7.12661 54.7957C4.55056 54.7927 2.46288 52.782 2.45975 50.2996ZM76.0316 45.0902L74.5054 45.5583C74.123 45.676 73.8378 45.9841 73.7595 46.3616C73.4806 47.6904 72.9353 48.9558 72.1549 50.0822C71.9324 50.4053 71.9074 50.8221 72.0954 51.1663L72.8319 52.5283L71.6159 53.7001L70.1931 52.9934L70.19 52.9904C69.8359 52.8152 69.4065 52.8363 69.0744 53.0508C67.9023 53.7997 66.5891 54.3221 65.2102 54.591C64.8154 54.6665 64.4957 54.9443 64.3735 55.3127L63.894 56.7744H62.1766L61.6908 55.3037C61.5686 54.9352 61.2521 54.6604 60.8572 54.5849C59.4782 54.3161 58.1651 53.7907 56.9962 53.0387C56.6609 52.8213 56.2284 52.8001 55.8712 52.9813L54.4578 53.691L53.2418 52.5253L53.9752 51.1573V51.1543C54.1601 50.81 54.1381 50.3993 53.9156 50.0762C53.1353 48.9467 52.5931 47.6813 52.3173 46.3526C52.239 45.9751 51.9506 45.664 51.5652 45.5492L50.0452 45.0872V43.4292L51.5714 42.9611C51.9538 42.8433 52.239 42.5353 52.3173 42.1578C52.5962 40.8259 53.1415 39.5636 53.9219 38.4342C54.1444 38.111 54.1694 37.6973 53.9814 37.353L53.2418 35.9911L54.4609 34.8193L55.8805 35.526H55.8836C56.2409 35.7042 56.6671 35.683 57.0024 35.4686C58.1745 34.7197 59.4845 34.1972 60.8666 33.9284C61.2614 33.8529 61.5811 33.5751 61.7002 33.2036L62.1797 31.742H63.9002L64.386 33.2127V33.2157C64.5082 33.5841 64.8278 33.859 65.2196 33.9345C66.6017 34.2032 67.9117 34.7287 69.0837 35.4807C69.4191 35.6951 69.8484 35.7162 70.2056 35.5381L71.619 34.8284L72.8381 36.0031L72.1048 37.3711H72.1016C71.9167 37.7154 71.9418 38.1291 72.1612 38.4492C72.9415 39.5787 73.4837 40.8441 73.7595 42.1729C73.8378 42.5534 74.1261 42.8614 74.5116 42.9762L76.0284 43.4382L76.0316 45.0902ZM57.4001 38.8267C55.1186 41.0222 54.4386 44.3291 55.6702 47.2011C56.905 50.07 59.8133 51.9424 63.0381 51.9424C66.2629 51.9424 69.1712 50.07 70.4059 47.2011C71.6407 44.3291 70.9575 41.0222 68.6761 38.8267C65.5609 35.8309 60.5154 35.8309 57.4001 38.8267ZM67.115 48.1883C65.4697 49.7768 62.9908 50.251 60.8377 49.3903C58.6847 48.5296 57.2839 46.5062 57.2839 44.2624C57.2839 42.0156 58.6847 39.9922 60.8377 39.1315C62.9908 38.2738 65.4697 38.7479 67.115 40.3334C69.362 42.5048 69.3589 46.017 67.115 48.1852V48.1883ZM12.7474 26.1724C12.3181 25.7557 12.3181 25.0822 12.7474 24.6655L18.1785 19.4319C18.6141 19.0363 19.2973 19.0453 19.7204 19.453C20.1466 19.8607 20.1529 20.5191 19.7423 20.9389L15.0947 25.4175L19.407 29.579C19.8175 29.9988 19.8113 30.6571 19.385 31.0649C18.962 31.4726 18.2788 31.4816 17.8431 31.086L12.7474 26.1724ZM32.121 20.9388C31.7104 20.5191 31.7198 19.8607 32.1429 19.453C32.566 19.0453 33.2492 19.0362 33.6848 19.4319L39.1159 24.6654H39.1127C39.3227 24.8648 39.4387 25.1366 39.4387 25.4174C39.4387 25.7013 39.3227 25.9731 39.1127 26.1724L34.017 31.0829L34.0201 31.0799C33.5845 31.4604 32.917 31.4423 32.5002 31.0436C32.0834 30.642 32.0646 30.0017 32.4563 29.579L36.7686 25.4235L32.121 20.9388ZM21.5068 31.0589L28.0755 18.4417V18.4387C28.3575 17.9283 29.0094 17.726 29.5484 17.9857C30.0843 18.2454 30.3068 18.8705 30.0498 19.396L23.4811 32.0132C23.3526 32.2729 23.1238 32.4692 22.8418 32.5628C22.5597 32.6564 22.2526 32.6383 21.9862 32.5084C21.7198 32.3816 21.5193 32.1551 21.4284 31.8803C21.3375 31.6085 21.3657 31.3095 21.5068 31.0589Z" stroke="white" stroke-width="0.5"></path></svg> 