<?xml version="1.0" encoding="UTF-8"?> <svg xmlns="http://www.w3.org/2000/svg" width="193" height="59" viewBox="0 0 193 59" fill="none"><g clip-path="url(#clip0_14366_1222)"><path fill-rule="evenodd" clip-rule="evenodd" d="M105.627 26.0089C103.036 23.7334 100.396 23.1646 94.7226 23.238C92.1236 23.2697 90.0833 23.3802 90.0833 23.3802V42.3395H95.0938V28.6323C95.0938 28.6323 101.382 27.9046 102.827 30.8927C103.637 32.569 103.467 34.4314 103.485 36.6532C103.491 37.5292 103.417 42.3403 103.417 42.3403H108.648C108.648 42.3403 108.659 39.9249 108.648 36.7984C108.637 33.296 108.871 28.854 105.628 26.0097L105.627 26.0089ZM68.7654 27.3932C68.8035 31.8171 68.8218 35.4761 69.3553 37.0912C70.7851 41.4197 76.5715 42.7042 80.7254 42.776C84.7771 42.8517 87.1352 42.6308 87.1352 42.6308V37.9656C87.1352 37.9656 83.9661 38.0398 80.4304 38.0398C78.8085 38.0398 75.1989 37.3832 74.7568 34.9761C74.4123 33.0925 74.612 30.674 74.612 30.674H85.5872L85.6635 25.4257H74.4626V19.5933H87.4271V14.6339H68.7661C68.7661 14.6339 68.7151 21.4376 68.7654 27.3932ZM29.7171 0C13.3037 0 0 13.2079 0 29.5008C0 45.7921 13.3037 59 29.7171 59C46.1281 59 59.4341 45.7921 59.4341 29.5008C59.4341 13.2064 46.1266 0 29.7171 0ZM29.7171 56.431C14.7351 56.431 2.5891 44.3729 2.5891 29.5008C2.5891 14.6286 14.7351 2.57048 29.7171 2.57048C44.6991 2.57048 56.8465 14.6286 56.8465 29.5008C56.8465 44.3729 44.6991 56.431 29.7171 56.431ZM123.383 23.3809C120.232 22.744 115.826 23.8779 113.437 26.664C107.618 33.4525 113.437 46.0583 124.709 41.9023C123.972 40.0792 123.825 39.7146 123.014 37.4543C115.131 39.4241 114.352 28.6754 120.436 28.3403C125.739 28.0506 126.035 32.3519 125.96 36.9452C125.926 38.6775 125.96 40.2986 125.96 42.4863C127.136 42.543 129.47 42.5907 130.899 42.4863C130.986 40.5286 131.029 38.2781 131.042 36.7258C131.12 29.3616 129.131 24.5489 123.383 23.3802L123.383 23.3809ZM133.993 29.7996C131.929 34.9738 134.952 42.0468 141.287 42.7049C144.296 43.0181 146.518 42.8509 148.139 41.6118C148.212 46.6423 143.423 48.538 139.961 45.693C139.592 45.9895 136.717 48.976 136.352 49.4148C143.201 55.5361 152.927 50.725 153.075 43.2155C153.123 40.5906 153.528 34.8792 153.001 31.4767C151.452 21.4882 137.739 20.4004 133.992 29.7996H133.993ZM147.77 34.8316C145.338 41.0286 136.202 37.2349 138.708 31.5485C141.214 25.8629 150.203 28.6316 147.77 34.8316ZM188.144 16.5856V16.5122C188.88 16.2928 189.431 15.7837 189.431 15.1279C189.431 14.5439 189.175 14.1066 188.806 13.8895C188.403 13.5983 187.85 13.4175 186.599 13.4175C185.456 13.4175 184.61 13.5249 184.131 13.6353V19.501H185.753V17.2747H186.378C187.039 17.2747 187.371 17.5319 187.481 18.1522C187.627 18.7703 187.737 19.2794 187.925 19.501H189.689C189.579 19.2794 189.468 18.9163 189.285 18.0788C189.098 17.2747 188.771 16.8057 188.144 16.5856ZM186.376 16.1468H185.787V14.5809C185.934 14.5809 186.191 14.5446 186.487 14.5446C187.224 14.5446 187.627 14.8351 187.627 15.3442C187.627 15.8926 187.111 16.1461 186.378 16.1461L186.376 16.1468ZM186.672 10.3182C183.101 10.3182 180.231 13.0521 180.231 16.4381C180.231 19.9012 183.102 22.6313 186.634 22.6313C190.206 22.6313 193.001 19.9004 193.001 16.4388C193.001 13.0521 190.206 10.319 186.672 10.319L186.672 10.3182ZM186.634 21.2091C183.984 21.2091 181.997 19.097 181.997 16.4751C181.997 13.8154 183.984 11.7396 186.561 11.7396C189.287 11.7396 191.236 13.8154 191.236 16.4751C191.236 19.0963 189.287 21.2462 186.634 21.2083L186.634 21.2091ZM177.609 36.3634C174.516 39.204 169.873 36.8703 169.944 33.4435C170.043 28.9198 174.22 27.248 177.61 29.9471C178.77 28.8593 180.475 27.5831 181.148 26.0089C174.754 20.4663 164.499 23.8953 164.57 33.445C164.63 41.543 174.367 46.7157 181.515 40.2275C180.263 38.8409 178.57 37.1623 177.611 36.3619L177.609 36.3634ZM156.76 42.7049L161.988 42.6293V23.6759L156.76 23.7486V42.7049ZM159.412 16.0182C155.212 16.0924 155.506 21.1955 159.339 21.3422C162.65 21.4663 163.317 16.0182 159.412 16.0182ZM27.7186 46.5531C21.7104 46.5062 17.1184 46.805 13.2435 48.2173C21.4368 56.164 37.6406 56.2586 45.6434 48.4548C40.2282 49.644 33.9974 46.6007 27.7186 46.5531ZM16.5986 14.7209C13.197 14.5771 12.5438 13.9886 10.3678 13.6739C6.43882 17.479 3.43968 26.428 4.85732 34.0834C5.62711 38.2629 7.74213 42.5907 10.1514 45.028C11.4951 44.3169 13.604 43.4591 16.5993 43.0794C16.5993 42.7934 16.6008 15.0167 16.5993 14.7194L16.5986 14.7209ZM18.6107 14.7436V42.7707H21.4879V14.7436H18.6107ZM20.0024 6.67962C18.0177 7.47693 15.2411 9.02618 13.8669 10.2017C17.7662 10.7714 20.6594 11.0823 24.2523 10.8977C27.006 10.757 30.1317 10.5194 32.592 10.0103C33.9677 9.72667 34.476 8.85144 35.8182 8.83782C38.6627 8.80529 41.3485 11.0823 42.975 13.1497C43.5787 13.9137 44.5039 15.404 44.7333 16.544C44.8949 17.3519 44.5489 18.007 44.1907 18.0342C42.5291 18.1628 41.4758 15.7519 38.8555 14.8623C35.6902 13.7919 32.7459 14.6407 28.2743 14.6732C28.2743 14.8321 28.3063 25.3651 28.2743 25.4922C32.3633 25.6178 34.8007 24.8568 36.2024 22.5042L36.5392 21.5904C36.5392 21.5904 36.9851 21.3801 36.9622 21.6721C36.867 22.8975 36.5888 25.3319 36.6162 27.3834C36.6467 29.671 36.9059 32.9102 36.9059 32.9102C36.9059 32.9102 36.6711 33.1613 36.5019 32.8625C36.0431 32.0546 35.8617 31.1438 35.0827 30.5C33.4136 29.118 30.81 28.8207 28.2994 28.9417V42.7738C35.3602 42.7102 37.8159 44.8162 43.7761 44.6157C46.0473 44.5401 48.5191 43.5643 49.5914 42.046C51.2347 39.7191 51.0296 35.1962 48.9527 33.8308C46.7859 32.4101 42.177 32.7846 42.5612 36.2424C43.1046 36.4958 43.9102 37.2409 43.712 38.4641C43.6587 38.7985 43.1328 40.4809 41.1557 39.9241C38.7915 39.2569 38.6306 36.5957 39.1108 34.3717C40.0285 30.1301 46.5229 28.5037 50.2941 30.9774C51.1021 31.5069 52.192 32.389 53.0746 33.8974C53.3969 34.4465 53.8093 35.8543 53.8901 36.7288C53.9785 36.8574 53.9846 36.6093 54.0326 36.402C59.5279 15.1188 38.9187 -0.932725 20.0017 6.68037L20.0024 6.67962Z" fill="#024F9E"></path></g><defs><clipPath id="clip0_14366_1222"><rect width="193" height="59" fill="white"></rect></clipPath></defs></svg> 