<?xml version="1.0" encoding="UTF-8"?> <svg xmlns="http://www.w3.org/2000/svg" width="81" height="24" viewBox="0 0 81 24" fill="none"><path d="M71.2125 24C68.6167 24 66.1272 23.0341 64.2917 21.3149C62.4562 19.5956 61.425 17.2638 61.425 14.8325C61.425 12.4011 62.4562 10.0693 64.2917 8.35002C66.1272 6.63077 68.6167 5.66491 71.2125 5.66491C73.8083 5.66491 76.2978 6.63077 78.1333 8.35002C79.9688 10.0693 81 12.4011 81 14.8325C81 17.2638 79.9688 19.5956 78.1333 21.3149C76.2978 23.0341 73.8083 24 71.2125 24ZM71.2125 20.2065C71.966 20.2069 72.7121 20.0684 73.4084 19.7987C74.1047 19.529 74.7374 19.1335 75.2705 18.6347C75.8036 18.136 76.2266 17.5438 76.5153 16.8919C76.8041 16.2401 76.9529 15.5414 76.9534 14.8356C76.9538 14.1299 76.8059 13.431 76.5179 12.7788C76.23 12.1266 75.8078 11.534 75.2753 11.0346C74.7428 10.5353 74.1106 10.1391 73.4146 9.86866C72.7187 9.59821 71.9727 9.45879 71.2192 9.45838H71.2125C69.6908 9.45838 68.2315 10.0246 67.1555 11.0324C66.0795 12.0402 65.475 13.4072 65.475 14.8325C65.475 16.2577 66.0795 17.6247 67.1555 18.6325C68.2315 19.6403 69.6908 20.2065 71.2125 20.2065ZM50.7431 24C48.1473 24 45.6578 23.0341 43.8223 21.3149C41.9868 19.5956 40.9556 17.2638 40.9556 14.8325C40.9556 12.4011 41.9868 10.0693 43.8223 8.35002C45.6578 6.63077 48.1473 5.66491 50.7431 5.66491C53.3389 5.66491 55.8284 6.63077 57.6639 8.35002C59.4994 10.0693 60.5306 12.4011 60.5306 14.8325C60.5306 17.2638 59.4994 19.5956 57.6639 21.3149C55.8284 23.0341 53.3389 24 50.7431 24ZM50.7431 20.2065C51.4966 20.2069 52.2428 20.0684 52.939 19.7987C53.6353 19.529 54.2681 19.1335 54.8011 18.6347C55.3342 18.136 55.7572 17.5438 56.046 16.8919C56.3347 16.2401 56.4836 15.5414 56.484 14.8356C56.4844 14.1299 56.3365 13.431 56.0485 12.7788C55.7606 12.1266 55.3384 11.534 54.8059 11.0346C54.2734 10.5353 53.6412 10.1391 52.9453 9.86866C52.2493 9.59821 51.5033 9.45879 50.7499 9.45838H50.7431C49.2214 9.45838 47.7621 10.0246 46.6861 11.0324C45.6101 12.0402 45.0056 13.4072 45.0056 14.8325C45.0056 16.2577 45.6101 17.6247 46.6861 18.6325C47.7621 19.6403 49.2214 20.2065 50.7431 20.2065ZM40.0444 14.7123C40.0444 19.8335 35.6636 24 30.2636 24C24.8636 24 20.4761 19.8462 20.4761 14.7186C20.4761 9.59115 24.462 5.67755 30.267 5.67755C32.4135 5.67755 34.398 6.10116 36.0045 7.20759V1.89673C36.0045 1.39369 36.2178 0.911246 36.5976 0.555539C36.9774 0.199832 37.4924 0 38.0295 0C38.5666 0 39.0816 0.199832 39.4614 0.555539C39.8412 0.911246 40.0545 1.39369 40.0545 1.89673V14.7123H40.0444ZM30.2636 20.2129C31.7853 20.2137 33.245 19.6483 34.3216 18.6411C35.3983 17.6338 36.0036 16.2672 36.0045 14.8419C36.0054 13.4166 35.4018 12.0494 34.3264 11.041C33.2511 10.0325 31.7921 9.46554 30.2704 9.4647H30.2636C28.7419 9.4647 27.2826 10.0309 26.2066 11.0387C25.1306 12.0466 24.5261 13.4135 24.5261 14.8388C24.5261 16.2641 25.1306 17.631 26.2066 18.6388C27.2826 19.6467 28.7419 20.2129 30.2636 20.2129ZM9.7875 24C7.19169 24 4.7022 23.0341 2.86669 21.3149C1.03118 19.5956 0 17.2638 0 14.8325C0 12.4011 1.03118 10.0693 2.86669 8.35002C4.7022 6.63077 7.19169 5.66491 9.7875 5.66491C12.3833 5.66491 14.8728 6.63077 16.7083 8.35002C18.5438 10.0693 19.575 12.4011 19.575 14.8325C19.575 17.2638 18.5438 19.5956 16.7083 21.3149C14.8728 23.0341 12.3833 24 9.7875 24ZM9.7875 20.2065C10.541 20.2069 11.2871 20.0684 11.9834 19.7987C12.6797 19.529 13.3124 19.1335 13.8455 18.6347C14.3786 18.136 14.8016 17.5438 15.0903 16.8919C15.3791 16.2401 15.5279 15.5414 15.5284 14.8356C15.5288 14.1299 15.3809 13.431 15.0929 12.7788C14.805 12.1266 14.3828 11.534 13.8503 11.0346C13.3178 10.5353 12.6856 10.1391 11.9896 9.86866C11.2937 9.59821 10.5477 9.45879 9.79425 9.45838H9.7875C8.26582 9.45838 6.80647 10.0246 5.73047 11.0324C4.65449 12.0402 4.05 13.4072 4.05 14.8325C4.05 16.2577 4.65449 17.6247 5.73047 18.6325C6.80647 19.6403 8.26582 20.2065 9.7875 20.2065Z" fill="#5A5A5A"></path></svg> 