<?xml version="1.0" encoding="UTF-8"?> <svg xmlns="http://www.w3.org/2000/svg" width="47" height="53" viewBox="0 0 47 53" fill="none"><path d="M33.5033 6.73794L36.3963 9.59569L40.6985 9.91452C40.893 9.93077 41.1284 10.0785 41.1652 10.3457L47 49.5834L31.2295 52.9752L33.5033 6.73794ZM29.7547 53L0 47.4577L4.06006 16.3212C4.25633 14.9206 4.30361 14.8737 5.79864 14.4076L10.623 12.9201C11.6558 8.56644 14.9489 0 21.842 0C22.7423 0 23.7849 0.480623 24.6264 1.587C27.781 1.44094 29.5174 4.08462 30.4705 6.81091L32.0499 6.32625L29.7547 53ZM23.7008 3.76528C22.0197 4.48243 20.097 6.38319 19.0713 10.3189L24.3983 8.67885C24.4178 6.36611 24.1246 4.82134 23.7008 3.76528ZM12.7488 12.2653L16.9595 10.9688C17.9595 5.7711 20.3275 3.1681 22.5366 2.1347C22.2498 1.93833 21.95 1.83802 21.6526 1.83802C16.7014 1.83802 13.92 8.30071 12.7488 12.2653ZM24.8763 18.9872C24.8763 18.9872 23.4997 18.1937 20.713 18.1937C13.4812 18.1937 9.89857 22.9958 9.89857 27.958C9.89857 33.8537 15.8157 34.0137 15.8157 37.6019C15.8157 38.4693 15.1987 39.6563 13.6822 39.6563C11.361 39.6563 8.61044 37.3086 8.61044 37.3086L7.20964 41.9108C7.20964 41.9108 9.88545 45.1484 15.1182 45.1484C19.4788 45.1484 22.7129 41.8843 22.7129 36.8154C22.7129 30.3725 15.5003 29.3186 15.5003 26.5679C15.5003 26.0638 15.6617 24.0631 18.8682 24.0631C21.0555 24.0631 22.8399 25.0099 22.8399 25.0099L24.8763 18.9872ZM26.2064 8.12246L28.7856 7.32901C28.1322 5.3441 27.1166 3.61963 25.592 3.42927C26.0606 4.77166 26.2268 6.36859 26.2064 8.12246Z" fill="#5A5A5A"></path></svg> 