<?xml version="1.0" encoding="UTF-8"?> <svg xmlns="http://www.w3.org/2000/svg" width="266" height="30" viewBox="0 0 266 30" fill="none"><path fill-rule="evenodd" clip-rule="evenodd" d="M262.286 2.35053H266V0.22837H255.513V2.35053H259.187V14.1925H262.286V2.35053ZM244.672 14.1925H247.744V0.22837H244.672V14.1925ZM228.336 12.082V2.35053L230.17 2.33295C230.568 2.33697 230.958 2.4356 231.298 2.61834C231.637 2.80107 231.913 3.06107 232.097 3.37059C232.619 4.17878 232.872 5.09872 232.827 6.02623V8.37116C232.874 9.30445 232.621 10.2305 232.097 11.0444C231.913 11.3539 231.637 11.6139 231.298 11.7966C230.958 11.9794 230.568 12.078 230.17 12.082H228.336ZM225.251 0.22837V14.1925L230.17 14.1866C230.953 14.2022 231.73 14.0646 232.444 13.7836C233.159 13.5026 233.792 13.0856 234.299 12.5627C235.422 11.3934 236.005 9.89801 235.932 8.37116V6.0614C236.003 4.53297 235.421 3.03625 234.299 1.86397C233.794 1.33835 233.161 0.91857 232.447 0.635519C231.732 0.352469 230.954 0.213342 230.17 0.22837H225.251ZM213.352 14.1925H216.431H216.458V0.240088H213.366V9.15086H213.306L208.233 0.22837H205.148V14.1925H208.233V5.2817H208.3L213.352 14.1925ZM196.428 9.35017V0.22837H193.323V9.35017C193.385 10.1222 193.149 10.8903 192.654 11.531C192.424 11.766 192.14 11.9548 191.819 12.0843C191.498 12.2137 191.15 12.2808 190.796 12.2808C190.444 12.2808 190.094 12.2137 189.774 12.0843C189.453 11.9548 189.169 11.766 188.939 11.531C188.444 10.8903 188.208 10.1222 188.27 9.35017V0.22837H185.198V9.35017C185.154 10.0279 185.269 10.7064 185.536 11.3436C185.803 11.9808 186.217 12.5634 186.751 13.0552C187.289 13.505 187.924 13.8556 188.62 14.0862C189.315 14.3167 190.057 14.4227 190.8 14.3977C191.563 14.4388 192.327 14.3355 193.04 14.0947C193.753 13.854 194.399 13.4814 194.933 13.0025C195.467 12.5235 195.877 11.9494 196.135 11.3191C196.393 10.6888 196.493 10.0173 196.428 9.35017ZM171.767 7.02283H169.519V2.35053H171.767C172.073 2.33628 172.378 2.38947 172.653 2.50521C172.93 2.62096 173.168 2.79555 173.347 3.01298C173.727 3.51365 173.916 4.10656 173.889 4.70721C173.917 5.297 173.727 5.87906 173.347 6.36624C173.167 6.58221 172.928 6.75539 172.652 6.87C172.376 6.98466 172.072 7.03719 171.767 7.02283ZM169.519 14.1925V9.13913L171.794 9.15086C172.489 9.18046 173.184 9.08608 173.836 8.87345C174.488 8.66082 175.085 8.33441 175.588 7.9139C176.49 7.02546 176.988 5.87819 176.988 4.68962C176.988 3.50105 176.49 2.35379 175.588 1.46533C175.084 1.04354 174.487 0.716296 173.834 0.503613C173.18 0.290929 172.484 0.197267 171.787 0.22837H166.434V14.1925H169.519ZM142.348 8.02529H147.22L147.254 8.03115V5.92071H142.382V2.35053H148.197V0.22837H139.297V14.1925H148.184V12.082H142.348V8.02529ZM130.931 9.91296V9.8602L127.88 9.85434C127.954 10.5167 127.777 11.1819 127.378 11.7479C127.167 11.941 126.908 12.0895 126.622 12.1819C126.335 12.2744 126.029 12.3084 125.725 12.2813C125.367 12.3026 125.009 12.247 124.681 12.1193C124.353 11.9916 124.066 11.7956 123.844 11.5486C123.373 10.8716 123.156 10.0823 123.222 9.29155V5.1293C123.16 4.34517 123.363 3.56244 123.804 2.87814C124 2.63775 124.263 2.44458 124.567 2.3165C124.871 2.18842 125.208 2.12956 125.544 2.14535C125.873 2.11672 126.205 2.15004 126.518 2.24307C126.83 2.33609 127.117 2.48667 127.358 2.68469C127.784 3.23727 127.976 3.90302 127.9 4.5665H130.898V4.50787C130.938 3.0032 130.492 1.88155 129.56 1.14289C128.429 0.343114 126.995 -0.0545077 125.544 0.0290519C124.815 -0.0020265 124.087 0.101417 123.407 0.332689C122.727 0.56396 122.11 0.917902 121.596 1.37153C120.565 2.41448 120.041 3.76974 120.137 5.14688V9.29155C120.087 9.9775 120.195 10.6653 120.455 11.3139C120.715 11.9625 121.121 12.5586 121.649 13.0669C122.191 13.5191 122.833 13.8702 123.535 14.0988C124.237 14.3276 124.984 14.4292 125.732 14.3977C127.136 14.4776 128.52 14.0761 129.593 13.2779C130.517 12.5315 130.963 11.4098 130.931 9.91296ZM106.498 6.48349H104.832V6.47177V2.33882H106.518C106.803 2.32446 107.089 2.37019 107.35 2.47219C107.61 2.57419 107.839 2.72949 108.017 2.92505C108.385 3.37665 108.567 3.9245 108.533 4.47856C108.571 5.01217 108.385 5.53964 108.011 5.96174C107.819 6.14125 107.583 6.28118 107.321 6.3714C107.06 6.46162 106.779 6.49991 106.498 6.48349ZM104.832 14.1925V8.59393L106.679 8.58221C106.956 8.56955 107.232 8.61633 107.485 8.71851C107.736 8.82069 107.956 8.9751 108.124 9.16844C108.491 9.65537 108.667 10.2335 108.626 10.8158V11.7948C108.625 12.2574 108.659 12.7196 108.727 13.1783C108.752 13.5521 108.924 13.9067 109.215 14.1807H112.414V13.9814C112.117 13.7312 111.924 13.401 111.865 13.0434C111.767 12.6407 111.715 12.2301 111.711 11.8182V10.804C111.739 10.0709 111.55 9.3439 111.163 8.69359C110.761 8.10466 110.117 7.67267 109.363 7.48595C110.04 7.20749 110.615 6.76893 111.022 6.21969C111.416 5.65394 111.616 5.00058 111.598 4.33787C111.636 3.77989 111.536 3.22124 111.305 2.70016C111.074 2.17909 110.718 1.70788 110.259 1.31877C109.215 0.553794 107.878 0.165987 106.518 0.234237H101.747V14.1925H104.832ZM87.5794 8.0077H92.4513L92.4848 8.03115V5.92071H87.6129V2.35053H93.4284V0.22837H84.5278V14.1925H93.415V12.082H87.5794V8.0077ZM68.6941 10.5695H68.6338L68.6071 10.5871L65.6424 0.22837H61.6271V14.1925H64.7055V5.45759H64.7657L67.6233 14.1925H69.6912L72.5688 5.39896H72.6358V14.1925H75.7008V0.210783H71.6855L68.6941 10.5695ZM45.9406 10.5695H45.8804L45.8737 10.5871L42.909 0.22837H38.8937V14.1925H41.9721V5.45759H42.0324L44.8699 14.1925H46.9378L49.8154 5.39896H49.8823V14.1925H52.9473V0.210783H48.932L45.9406 10.5695ZM26.6537 2.92505C27.1756 3.60251 27.423 4.41374 27.3564 5.22894H27.3095V9.15086C27.3889 9.97586 27.1536 10.8006 26.6403 11.4958C26.3994 11.7517 26.0938 11.9548 25.7476 12.0892C25.4014 12.2235 25.0242 12.2853 24.6461 12.2696C24.2654 12.289 23.8849 12.229 23.5359 12.0945C23.1868 11.9599 22.8793 11.7547 22.6384 11.4958C22.1289 10.7992 21.8939 9.97557 21.9692 9.15086V5.23481C21.8993 4.42161 22.1343 3.61063 22.6384 2.92505C22.8785 2.66535 23.186 2.45964 23.5352 2.32504C23.8844 2.19044 24.2653 2.13086 24.6461 2.15122C25.0263 2.13509 25.4056 2.1966 25.754 2.33089C26.1024 2.46518 26.4105 2.6686 26.6537 2.92505ZM30.0931 11.2165C30.3657 10.5554 30.482 9.85258 30.4348 9.15086V5.2524C30.4808 4.54939 30.3635 3.84551 30.0896 3.18344C29.8158 2.52138 29.3914 1.9149 28.8421 1.40084C28.2824 0.928612 27.6187 0.561331 26.8915 0.321435C26.1642 0.0815398 25.3888 -0.0259328 24.6126 0.00559747C23.8393 -0.0266324 23.0667 0.080578 22.3426 0.320577C21.6186 0.560575 20.9585 0.928255 20.4032 1.40084C19.8616 1.9188 19.4435 2.5263 19.1735 3.18768C18.9034 3.84907 18.7868 4.55102 18.8305 5.2524V9.15086C18.7844 9.85199 18.9005 10.5541 19.1719 11.215C19.4433 11.8758 19.8644 12.4818 20.4099 12.9966C21.5808 13.8866 23.079 14.3767 24.6293 14.3767C26.1796 14.3767 27.6779 13.8866 28.8488 12.9966C29.397 12.4832 29.8204 11.8777 30.0931 11.2165ZM10.7999 9.89537V9.84261L7.75496 9.83675C7.82851 10.499 7.65224 11.1642 7.25305 11.7303C7.04198 11.9234 6.78332 12.0719 6.49692 12.1643C6.21049 12.2568 5.90377 12.2908 5.60008 12.2638C5.2422 12.285 4.88381 12.2294 4.55607 12.1017C4.22833 11.974 3.94117 11.7781 3.71958 11.531C3.2483 10.854 3.03068 10.0647 3.0972 9.27396V5.11169C3.03358 4.32815 3.23367 3.54547 3.67273 2.86055C3.86908 2.62016 4.13145 2.427 4.43556 2.29892C4.73968 2.17084 5.07574 2.11197 5.4127 2.12776C5.74142 2.09913 6.07332 2.13246 6.38613 2.22548C6.69894 2.3185 6.98543 2.46908 7.22628 2.66711C7.65123 3.22008 7.8429 3.88551 7.76835 4.54891H10.7731V4.49028C10.8178 2.98561 10.3716 1.86396 9.4347 1.12531C8.30372 0.325011 6.87005 -0.0726757 5.41939 0.0114656C4.69062 -0.0196128 3.96252 0.0838306 3.28232 0.315102C2.60212 0.546374 1.98501 0.900315 1.47099 1.35395C0.439902 2.39689 -0.0838038 3.75216 0.0121048 5.1293V9.27396C-0.0382915 9.95951 0.0690139 10.6469 0.32767 11.2955C0.586326 11.944 0.991064 12.5404 1.51785 13.0493C2.06038 13.5012 2.70182 13.8521 3.40344 14.0808C4.10505 14.3095 4.85231 14.4113 5.60008 14.3801C7.00423 14.4594 8.38871 14.058 9.46147 13.2604C10.3805 12.5139 10.8267 11.3922 10.7999 9.89537ZM222.929 29.8977H224.06V28.9187H222.929V29.8977ZM218.104 22.8629L217.06 27.8634H217.04L215.701 22.8629H214.724L213.386 27.8517H213.352L212.295 22.8629H211.117L212.764 29.8977H213.794L215.2 24.9088L216.598 29.8977H217.629L219.275 22.8629H218.104ZM205.476 24.006C205.806 24.4115 205.964 24.9047 205.924 25.4013L205.931 25.3778V27.3241C205.971 27.8243 205.812 28.3214 205.482 28.7311C205.326 28.8913 205.129 29.0176 204.907 29.1C204.685 29.1824 204.445 29.2186 204.204 29.2059C203.969 29.2182 203.733 29.1815 203.517 29.0991C203.301 29.0165 203.109 28.8905 202.96 28.7311C202.638 28.3181 202.485 27.8226 202.525 27.3241V25.4013C202.486 24.9066 202.64 24.415 202.96 24.006C203.108 23.8467 203.298 23.7207 203.514 23.6382C203.728 23.5556 203.963 23.5189 204.198 23.5312C204.438 23.5194 204.678 23.556 204.9 23.6383C205.121 23.7207 205.319 23.8465 205.476 24.006ZM206.873 28.3911C207.005 28.056 207.061 27.7013 207.035 27.3476V27.3241V25.4188C207.084 24.7045 206.807 24.0025 206.265 23.4667C205.995 23.2301 205.672 23.0454 205.316 22.9242C204.96 22.8031 204.579 22.7483 204.198 22.7632C203.826 22.7517 203.455 22.8083 203.109 22.9295C202.763 23.0506 202.45 23.2336 202.19 23.4667C201.657 24.0063 201.386 24.7067 201.434 25.4188V27.3476C201.384 28.06 201.655 28.7611 202.19 29.2997C202.451 29.5318 202.764 29.7137 203.11 29.8338C203.455 29.9539 203.826 30.0096 204.198 29.9973C204.578 30.013 204.959 29.9591 205.315 29.8391C205.671 29.7189 205.995 29.5353 206.265 29.2997C206.535 29.0349 206.741 28.7261 206.873 28.3911ZM194.313 26.1165H193.142V23.6132H194.367C194.548 23.6012 194.729 23.625 194.899 23.6829C195.068 23.7408 195.22 23.8312 195.344 23.9474C195.579 24.2153 195.695 24.5483 195.672 24.8854C195.695 25.2143 195.575 25.5387 195.337 25.794C195.202 25.9076 195.041 25.995 194.864 26.0505C194.688 26.106 194.5 26.1285 194.313 26.1165ZM193.122 29.8918V26.8668L194.494 26.7965C194.659 26.7891 194.823 26.8161 194.972 26.8752C195.122 26.9343 195.254 27.0239 195.357 27.1365C195.581 27.4067 195.692 27.7356 195.672 28.0686V28.6549C195.672 28.8806 195.692 29.106 195.732 29.329C195.751 29.5106 195.838 29.6815 195.98 29.8156H197.131V29.7042C196.999 29.5847 196.91 29.4338 196.876 29.2704C196.829 29.0778 196.804 28.8813 196.803 28.6842V28.0979C196.818 27.7312 196.723 27.3675 196.528 27.0427C196.326 26.7565 196.008 26.5472 195.638 26.4565C195.986 26.3201 196.281 26.0981 196.488 25.8175C196.688 25.5278 196.79 25.1944 196.783 24.8561C196.803 24.584 196.757 24.3112 196.649 24.0556C196.54 23.8 196.372 23.5673 196.154 23.3729C195.656 23.005 195.016 22.8201 194.367 22.857H192.004V29.8918H193.122ZM186.263 29.6866C186.629 29.5205 186.942 29.2766 187.173 28.9773L187.179 28.9538V26.3451H184.576V27.0603H186.062V28.6959C185.941 28.858 185.773 28.9878 185.573 29.0711C185.287 29.1834 184.976 29.2356 184.663 29.2235C184.433 29.2323 184.203 29.1945 183.992 29.1132C183.78 29.0319 183.594 28.9092 183.445 28.7545C183.117 28.3576 182.957 27.8719 182.997 27.3827V25.284C182.958 24.8066 183.109 24.3322 183.425 23.9415C183.569 23.7884 183.751 23.6668 183.958 23.5863C184.165 23.506 184.39 23.469 184.616 23.4784C184.812 23.4674 185.008 23.493 185.192 23.5537C185.375 23.6144 185.542 23.7086 185.68 23.8302C185.942 24.1052 186.074 24.4576 186.048 24.815H187.146C187.165 24.5365 187.116 24.2575 187 23.9973C186.885 23.7372 186.706 23.5022 186.477 23.3084C185.917 22.9323 185.225 22.7388 184.521 22.7612C183.816 22.7837 183.142 23.0207 182.615 23.4315C182.355 23.6888 182.156 23.9884 182.028 24.3134C181.901 24.6383 181.848 24.9821 181.872 25.3251V27.412C181.846 27.7596 181.901 28.1083 182.034 28.4368C182.166 28.7652 182.373 29.0668 182.642 29.3232C182.908 29.5479 183.223 29.7234 183.568 29.8392C183.912 29.9551 184.28 30.0088 184.65 29.9973C185.209 30.0163 185.764 29.9093 186.263 29.6866ZM170.978 29.8977H172.109V28.9187H170.978V29.8977ZM165.838 26.3803H164.305L164.346 26.3744V23.6191H165.831C166.021 23.6081 166.211 23.6389 166.384 23.7085C166.557 23.7781 166.707 23.8844 166.822 24.0177C167.053 24.3073 167.171 24.6552 167.156 25.0085C167.172 25.3584 167.055 25.7029 166.822 25.9875C166.707 26.1182 166.557 26.2222 166.385 26.2906C166.214 26.3591 166.026 26.3899 165.838 26.3803ZM164.305 29.9035V27.1307H165.838C166.166 27.1464 166.494 27.1025 166.802 27.0016C167.109 26.9007 167.389 26.745 167.625 26.5444C168.043 26.1131 168.273 25.5656 168.273 24.9997C168.273 24.4338 168.043 23.8863 167.625 23.455C167.389 23.2544 167.109 23.0987 166.802 22.9978C166.494 22.8969 166.166 22.853 165.838 22.8687H163.188V29.9035H164.305ZM156.964 24.0177C157.294 24.4232 157.453 24.9164 157.412 25.413V27.3241C157.453 27.8244 157.295 28.3216 156.964 28.7311C156.807 28.8913 156.611 29.0176 156.389 29.1C156.167 29.1824 155.926 29.2186 155.686 29.2059C155.45 29.2182 155.215 29.1815 154.999 29.0991C154.782 29.0165 154.591 28.8905 154.441 28.7311C154.12 28.3181 153.967 27.8226 154.006 27.3241V25.413C153.968 24.9183 154.121 24.4267 154.441 24.0177C154.59 23.8585 154.78 23.7324 154.995 23.6499C155.21 23.5673 155.445 23.5306 155.679 23.5429C155.921 23.5302 156.162 23.5664 156.385 23.6488C156.608 23.7311 156.806 23.8574 156.964 24.0177ZM158.382 28.3678C158.514 28.0327 158.569 27.678 158.543 27.3241H158.55V25.3954C158.574 25.0413 158.517 24.6866 158.384 24.3516C158.251 24.0166 158.044 23.7079 157.774 23.4432C157.504 23.2063 157.181 23.0214 156.825 22.9003C156.469 22.7792 156.087 22.7245 155.706 22.7398C155.334 22.726 154.962 22.7817 154.616 22.903C154.27 23.0242 153.957 23.2083 153.698 23.4432C153.166 23.9828 152.894 24.6832 152.942 25.3954V27.3241C152.892 28.0366 153.164 28.7377 153.698 29.2763C153.959 29.5084 154.272 29.6902 154.618 29.8103C154.964 29.9304 155.335 29.9861 155.706 29.9739C156.087 29.9896 156.468 29.9357 156.824 29.8156C157.18 29.6955 157.503 29.5118 157.774 29.2763C158.043 29.0116 158.25 28.7029 158.382 28.3678ZM149.074 29.1297H145.828H145.822V22.8394H144.704V29.8742H149.074V29.1297ZM137.028 26.6089H139.752L139.738 26.603V25.8527H137.028V23.5898H140.207V22.8394H135.904V29.8742H140.234V29.1297H137.028V26.6089ZM128.663 28.69L128.549 28.2621H128.529L126.856 22.8394H125.665L128.107 29.8742H129.198L131.648 22.8394H130.45L128.783 28.2621L128.663 28.69ZM118.658 26.6089H121.382V26.603V25.8527H118.658V23.5898H121.837V22.8394H117.54V29.8742H121.87V29.1297H118.658V26.6089ZM108.74 29.1356V23.5957L109.898 23.6015C110.165 23.5965 110.429 23.6528 110.664 23.7649C110.899 23.877 111.096 24.041 111.236 24.2405C111.586 24.723 111.759 25.2876 111.732 25.8585V26.8668C111.76 27.4435 111.588 28.0142 111.236 28.5024C111.095 28.7009 110.898 28.8637 110.663 28.9748C110.429 29.0858 110.165 29.1412 109.898 29.1356H108.74ZM107.616 22.8629V29.8977H109.891C110.295 29.9078 110.696 29.8375 111.065 29.6923C111.434 29.5472 111.76 29.3307 112.019 29.0594C112.589 28.4477 112.883 27.6734 112.842 26.8844V25.882C112.881 25.0932 112.588 24.3193 112.019 23.707C111.76 23.4346 111.434 23.2171 111.066 23.0709C110.698 22.9247 110.295 22.8535 109.891 22.8629H107.616ZM96.5403 29.8977H97.6713V28.9187H96.5403V29.8977ZM90.524 29.8977H91.6483L91.6148 29.8918V22.857H90.4905V28.0276L87.3787 22.8511H86.2611V29.886H87.3787V24.7095H87.4121L90.524 29.8977ZM80.5192 29.6866C80.8859 29.5207 81.1984 29.2768 81.4293 28.9773L81.4427 28.9538V26.3451H78.8394V27.0603H80.3586V28.6959C80.2368 28.859 80.0654 28.989 79.8633 29.0711C79.5776 29.1834 79.2657 29.2356 78.9532 29.2235C78.723 29.2323 78.4928 29.1945 78.282 29.1132C78.0705 29.0319 77.8838 28.9092 77.7352 28.7545C77.4066 28.3576 77.2474 27.8719 77.2868 27.3827V25.284C77.2507 24.8059 77.404 24.3316 77.7218 23.9415C77.8657 23.7888 78.0484 23.6674 78.2552 23.587C78.462 23.5066 78.6869 23.4694 78.913 23.4784C79.1098 23.4669 79.3072 23.4923 79.4919 23.553C79.6766 23.6137 79.8439 23.7082 79.9838 23.8302C80.2448 24.1054 80.3766 24.4577 80.3519 24.815H81.4025C81.422 24.5365 81.3724 24.2575 81.2566 23.9973C81.1415 23.7372 80.9629 23.5022 80.7333 23.3084C80.1745 22.9312 79.4826 22.737 78.7772 22.7595C78.0718 22.782 77.3979 23.0197 76.8719 23.4315C76.6116 23.6886 76.4122 23.9882 76.2844 24.3132C76.1565 24.6382 76.1043 24.9821 76.1291 25.3251V27.412C76.103 27.7596 76.1579 28.1083 76.2904 28.4368C76.4222 28.7652 76.6297 29.0668 76.8987 29.3232C77.1644 29.5479 77.4796 29.7234 77.8242 29.8392C78.1689 29.9551 78.5369 30.0088 78.9064 29.9973C79.4652 30.0163 80.0206 29.9093 80.5192 29.6866ZM70.1998 29.8977H71.3174V22.8629H70.1998V29.8977ZM64.0631 27.3417C64.2772 27.5641 64.3893 27.8483 64.3776 28.139L64.4244 28.0862C64.4322 28.2369 64.4048 28.3875 64.3438 28.5286C64.2828 28.6698 64.1896 28.7985 64.0698 28.9069C63.9383 29.0122 63.7841 29.0933 63.6163 29.1457C63.4485 29.198 63.2705 29.2205 63.0927 29.2118C62.6947 29.2234 62.3075 29.097 62.0153 28.86C61.8609 28.7192 61.7424 28.5513 61.6673 28.3674C61.5924 28.1835 61.5627 27.9878 61.5803 27.7931H60.4961V27.8224C60.4666 28.1202 60.5199 28.4197 60.6517 28.6954C60.7834 28.9711 60.9895 29.2147 61.2523 29.4052C61.7739 29.7709 62.4248 29.9658 63.0927 29.9563C63.7331 29.9816 64.3617 29.8001 64.8595 29.4463C65.0814 29.2776 65.2569 29.0671 65.3728 28.8306C65.4887 28.594 65.542 28.3375 65.5287 28.0803C65.5396 27.8392 65.4948 27.5986 65.397 27.373C65.2993 27.1474 65.1506 26.9413 64.9598 26.7672C64.4831 26.3827 63.9101 26.1016 63.2868 25.9465C62.855 25.8227 62.4565 25.6233 62.1156 25.3602C62.0011 25.2621 61.911 25.1443 61.8511 25.0141C61.7911 24.8839 61.7628 24.7443 61.7676 24.604C61.7528 24.3037 61.8702 24.0099 62.0956 23.7833C62.2116 23.6714 62.3548 23.5838 62.5146 23.527C62.6745 23.4702 62.8469 23.4456 63.0191 23.455C63.2052 23.4496 63.3904 23.4811 63.5607 23.547C63.731 23.613 63.8821 23.7118 64.0028 23.836C64.2643 24.1184 64.3977 24.4753 64.3776 24.8385H65.455C65.4693 24.5612 65.4171 24.2845 65.3019 24.026C65.1866 23.7675 65.0108 23.5331 64.7858 23.3377C64.5497 23.138 64.2693 22.9829 63.9619 22.882C63.6545 22.7812 63.3268 22.7368 62.999 22.7515C62.3698 22.7306 61.7559 22.9238 61.2858 23.2908C61.0663 23.4625 60.8926 23.6744 60.7769 23.9115C60.6613 24.1485 60.6066 24.405 60.6166 24.6626C60.6045 24.9038 60.6522 25.1444 60.7561 25.3681C60.8601 25.5917 61.0179 25.793 61.2189 25.9582C61.724 26.3307 62.3154 26.6027 62.9522 26.7555C63.3704 26.8707 63.7513 27.0717 64.0631 27.3417ZM53.0343 26.6441H55.7581L55.7514 26.6382V25.8878H53.0276V23.625H56.2064V22.8746H51.91V29.9094H56.2399V29.1649H53.0343V26.6441ZM43.1165 29.1707V23.6308L44.2743 23.6367C44.5416 23.6317 44.8058 23.688 45.0406 23.8001C45.2754 23.9122 45.4726 24.0761 45.6127 24.2757C45.9622 24.7582 46.135 25.3228 46.1079 25.8937V26.902C46.137 27.4787 45.9642 28.0494 45.6127 28.5376C45.4718 28.7361 45.2742 28.8988 45.0394 29.0099C44.8047 29.121 44.5409 29.1764 44.2743 29.1707H43.1165ZM42.0324 22.8629V29.8977H44.3077C44.7117 29.9078 45.113 29.8375 45.4815 29.6923C45.8501 29.5472 46.1764 29.3307 46.4358 29.0594C47.0049 28.4471 47.2979 27.6733 47.259 26.8844V25.882C47.2966 25.0933 47.0038 24.3198 46.4358 23.707C46.177 23.4346 45.8511 23.2171 45.4825 23.0709C45.1139 22.9247 44.7122 22.8535 44.3077 22.8629H42.0324Z" fill="black"></path></svg> 