<?xml version="1.0" encoding="UTF-8"?> <svg xmlns="http://www.w3.org/2000/svg" width="60" height="36" viewBox="0 0 60 36" fill="none"><path d="M16.9232 13.0635C16.9232 13.8161 16.9832 14.4181 17.1332 14.9298C17.2832 15.291 17.4933 15.7726 17.7633 16.3144C17.8833 16.4348 17.9133 16.6154 17.9133 16.7659C17.9133 16.9766 17.7933 17.1572 17.5233 17.3679L16.2631 18.2107C16.083 18.3311 15.903 18.3913 15.753 18.3913C15.543 18.3913 15.3629 18.2709 15.1529 18.0903C14.8829 17.7893 14.6428 17.4883 14.4328 17.1572C14.2528 16.8261 14.0427 16.4348 13.8327 15.9833C12.2725 17.8194 10.3222 18.7525 7.95178 18.7525C6.27152 18.7525 4.95131 18.2709 3.96116 17.3077C3.00101 16.3445 2.49093 15.0502 2.49093 13.4247C2.49093 11.7692 3.09102 10.4147 4.29121 9.3311C5.5214 8.30769 7.14165 7.76589 9.18197 7.76589C9.87208 7.76589 10.5022 7.82609 11.3123 7.94649C12.0024 8.03679 12.8125 8.18729 13.5927 8.36789V6.92308C13.5927 5.38796 13.2926 4.39465 12.6625 3.70234C12.0024 3.07023 10.9522 2.79933 9.42201 2.79933C8.7019 2.79933 7.98179 2.88963 7.26167 3.04013C6.51156 3.22074 5.79144 3.43144 5.10134 3.73244C4.77129 3.85284 4.50124 3.94314 4.41123 3.97324C4.26121 4.03345 4.17119 4.03345 4.08118 4.03345C3.81114 4.03345 3.66111 3.85284 3.66111 3.43144V2.43813C3.66111 2.13712 3.69112 1.89632 3.81114 1.74582C3.90115 1.59532 4.08118 1.47492 4.35122 1.38462C5.07133 0.963211 5.88146 0.662207 6.87161 0.421404C7.89016 0.154234 8.93933 0.0226717 9.9921 0.030101C12.3625 0.030101 14.1027 0.571907 15.2129 1.65552C16.3231 2.73913 16.8632 4.39465 16.8632 6.59197V13.0635H16.9232ZM8.82192 16.1338C9.48202 16.1338 10.1421 16.0134 10.8622 15.7726C11.5823 15.5318 12.2124 15.0803 12.7525 14.4783C13.0826 14.087 13.3226 13.6656 13.5026 13.1839C13.5026 12.7023 13.6527 12.1304 13.6527 11.4381V10.6254C13.0526 10.4147 12.4525 10.4147 11.7924 10.2642C11.1744 10.1965 10.5537 10.1563 9.93209 10.1438C8.58188 10.1438 7.62173 10.4147 6.96163 10.9565C6.30152 11.4983 6.00148 12.2508 6.00148 13.2441C6.00148 14.2074 6.21151 14.9298 6.72159 15.3813C7.20166 15.893 7.89177 16.1338 8.82192 16.1338ZM24.8444 18.2709C24.5539 18.2796 24.2657 18.2176 24.0043 18.0903C23.9143 17.9398 23.7642 17.6689 23.6442 17.3077L18.9635 1.83612C18.8435 1.38462 18.7835 1.17391 18.7835 1.02341C18.7835 0.692308 18.9335 0.511706 19.2635 0.511706H21.2138C21.6039 0.511706 21.874 0.571907 21.994 0.722409C22.174 0.84281 22.294 1.11371 22.414 1.50502L25.7446 14.7492L28.865 1.50502C28.9551 1.11371 29.0751 0.84281 29.2551 0.722409C29.4051 0.602007 29.6752 0.511706 30.0052 0.511706H31.6555C32.0155 0.511706 32.2856 0.571907 32.4356 0.722409C32.5856 0.84281 32.7356 1.11371 32.8257 1.50502L36.0062 14.9298L39.4267 1.50502C39.5467 1.11371 39.6967 0.84281 39.8167 0.722409C39.9968 0.602007 40.2368 0.511706 40.5969 0.511706H42.4572C42.7872 0.511706 42.9672 0.692308 42.9672 1.02341C42.9672 1.11371 42.9372 1.23411 42.9072 1.38462C42.9072 1.38462 42.8472 1.62542 42.7872 1.83612L37.9565 17.3077C37.8364 17.7291 37.7164 17.9398 37.5064 18.0903C37.3864 18.2107 37.1163 18.301 36.7863 18.301H35.076C34.6859 18.301 34.5059 18.2408 34.2659 18.0903C34.0641 17.8757 33.9377 17.6009 33.9058 17.3077L30.8153 4.39465L27.7249 17.2776C27.6348 17.6689 27.5148 17.9398 27.3648 18.0903C27.1171 18.2257 26.8363 18.2883 26.5547 18.2709H24.8444ZM50.4984 18.8127C49.5083 18.8127 48.3981 18.6923 47.4079 18.4515C46.4178 18.2107 45.6377 17.9398 45.1276 17.6689C44.867 17.5432 44.6482 17.3446 44.4975 17.097C44.416 16.9282 44.3749 16.7427 44.3775 16.5552V15.5318C44.3775 15.1104 44.5275 14.9298 44.8275 14.9298H45.1876C45.3076 14.9298 45.4876 15.0803 45.6977 15.1706C46.3578 15.4716 47.1079 15.7124 47.888 15.8629C48.6981 16.0134 49.5083 16.1037 50.2584 16.1037C51.5186 16.1037 52.5087 15.893 53.1688 15.4415C53.8589 14.9298 54.219 14.3579 54.219 13.5451C54.219 12.9732 54.009 12.5217 53.6789 12.1304C53.3188 11.7692 52.6287 11.408 51.6686 11.107L48.7581 10.204C47.3179 9.72241 46.2377 9.0602 45.5776 8.15719C44.9335 7.3213 44.5851 6.29402 44.5875 5.23746C44.5875 4.39465 44.7675 3.67224 45.1276 3.04013C45.4876 2.37793 45.9677 1.83612 46.5078 1.38462C47.1679 0.93311 47.828 0.602006 48.6381 0.361204C49.4182 0.120401 50.2584 0 51.1585 0C51.5786 0 52.0286 0.030101 52.5087 0.0903016C52.9288 0.150502 53.3489 0.240802 53.7689 0.301003C54.189 0.421404 54.549 0.511706 54.9091 0.632107C55.2691 0.752508 55.5092 0.872909 55.7492 0.993311C56.0193 1.14381 56.2293 1.29432 56.3493 1.47492C56.4693 1.65552 56.5293 1.86622 56.5293 2.13712V3.10033C56.5293 3.52174 56.3793 3.73244 56.0793 3.73244C55.9293 3.73244 55.6592 3.64214 55.2992 3.49164C54.189 2.97993 52.8988 2.70903 51.4886 2.70903C50.3484 2.70903 49.5083 2.88963 48.8181 3.28094C48.2181 3.64214 47.888 4.24415 47.888 5.05686C47.888 5.62876 48.098 6.11037 48.4881 6.47157C48.8782 6.86287 49.6283 7.22408 50.6784 7.58529L53.5289 8.48829C54.9691 8.9097 55.9893 9.57191 56.6194 10.4147C57.2195 11.2274 57.5195 12.1605 57.5195 13.214C57.5195 14.0569 57.3395 14.8395 57.0094 15.5318C56.6494 16.194 56.1693 16.796 55.5092 17.2776C54.9391 17.7893 54.189 18.1505 53.3489 18.4214C52.5087 18.6923 51.4886 18.8127 50.4984 18.8127ZM54.249 28.5652C47.678 33.4114 38.1365 36 30.0052 36C18.4534 36 8.1018 31.7257 0.270585 24.6522C-0.359513 24.0803 0.210576 23.3278 0.960692 23.7793C9.42201 28.6856 19.8336 31.6656 30.6353 31.6656C37.9264 31.6656 45.9377 30.1605 53.2888 26.9699C54.399 26.5184 55.3292 27.7525 54.249 28.5652ZM57.0094 25.4649C56.1393 24.3512 51.4286 24.9231 49.2982 25.1639C48.6681 25.2542 48.5781 24.6823 49.1482 24.2609C52.8988 21.6421 59.0797 22.4549 59.7699 23.2676C60.49 24.1706 59.5898 30.3712 56.0793 33.3211C55.5092 33.7726 54.9991 33.5318 55.2391 32.99C56.0493 30.9431 57.8195 26.4883 57.0094 25.4649Z" fill="#5A5A5A"></path></svg> 