<?xml version="1.0" encoding="UTF-8"?> <svg xmlns="http://www.w3.org/2000/svg" width="200" height="60" viewBox="0 0 200 60" fill="none"><rect x="0.5" y="0.5" width="199" height="59" rx="7.5" stroke="#D9D9D9"></rect><g clip-path="url(#clip0_22021_5449)"><path d="M79.0467 39.8503C86.2329 32.7097 87.4273 22.3195 81.7142 16.6428C76.0019 10.9667 65.5465 12.1533 58.3607 19.2935C51.1749 26.4339 53.2536 40.0759 55.6936 42.501C57.6654 44.4604 71.8613 46.9905 79.0467 39.8503Z" fill="#F89939"></path><path d="M49.5603 29.5323C45.3914 25.3897 39.3244 24.7 36.0092 27.9942C32.6948 31.288 33.3877 37.3177 37.5574 41.4597C41.7271 45.6036 49.6929 44.405 51.1077 42.9978C52.2526 41.862 53.7304 33.6754 49.5603 29.5323Z" fill="#3499CD"></path><path d="M63.945 38.1006C63.2085 38.7742 62.5624 39.2714 62.0072 39.5908C61.4519 39.9113 60.9223 40.0714 60.4184 40.0714C59.8387 40.0714 59.3711 39.8481 59.0165 39.4013C58.6613 38.9541 58.4844 38.3545 58.4844 37.6001C58.4844 36.4697 58.7309 35.1127 59.224 33.5306C59.7163 31.9471 60.3157 30.4881 61.0197 29.1533L63.0839 28.3938C63.1487 28.3723 63.1979 28.3613 63.2306 28.3613C63.3872 28.3613 63.5166 28.476 63.6159 28.7044C63.7162 28.9338 63.7667 29.242 63.7667 29.6295C63.7667 30.7278 63.5123 31.7911 63.0025 32.8194C62.4928 33.8481 61.6967 34.946 60.6134 36.1142C60.5699 36.6742 60.5482 37.0588 60.5482 37.269C60.5482 37.7377 60.6348 38.1086 60.8081 38.3833C60.9817 38.6585 61.2117 38.7951 61.499 38.7951C61.792 38.7951 62.1033 38.691 62.4338 38.481C62.7638 38.2705 63.2677 37.8349 63.9448 37.1723V38.1006H63.945ZM60.8328 34.9436C61.5206 34.1836 62.0793 33.3311 62.507 32.388C62.9348 31.4445 63.1485 30.633 63.1485 29.953C63.1485 29.7548 63.119 29.5937 63.0598 29.4727C63.0001 29.3514 62.9238 29.2905 62.8319 29.2905C62.6322 29.2905 62.3405 29.7864 61.9584 30.7784C61.5762 31.7702 61.2011 33.1589 60.8328 34.9436Z" fill="#010101"></path><path d="M70.0257 38.1003C69.3378 38.7739 68.7204 39.2711 68.173 39.5905C67.6255 39.911 67.0221 40.0711 66.3608 40.0711C65.6239 40.0711 65.0293 39.8368 64.5763 39.3689C64.1242 38.8998 63.8984 38.2839 63.8984 37.5192C63.8984 36.3781 64.2963 35.3456 65.0936 34.4224C65.8893 33.4986 66.7728 33.0371 67.7425 33.0371C68.2464 33.0371 68.6495 33.1668 68.9533 33.4251C69.2568 33.6838 69.4085 34.0226 69.4085 34.4426C69.4085 35.5573 68.2167 36.4612 65.8329 37.1559C66.0493 38.2053 66.6154 38.7307 67.5311 38.7307C67.8889 38.7307 68.2298 38.6352 68.5547 38.4446C68.8804 38.2532 69.3703 37.8285 70.0259 37.1722L70.0257 38.1003ZM65.7673 36.6067C67.1539 36.2187 67.8477 35.5031 67.8477 34.4586C67.8477 33.9418 67.6578 33.6836 67.2791 33.6836C66.9213 33.6836 66.5804 33.9536 66.2555 34.4953C65.9296 35.0361 65.7673 35.7395 65.7673 36.6067Z" fill="#010101"></path><path d="M78.7064 38.1011C77.8394 38.9194 77.219 39.453 76.8456 39.701C76.4717 39.9485 76.1142 40.0721 75.7726 40.0721C74.9165 40.0721 74.5131 39.3213 74.5617 37.819C74.02 38.5886 73.5199 39.1566 73.0621 39.5234C72.6046 39.8895 72.1321 40.0721 71.6439 40.0721C71.1677 40.0721 70.7629 39.8505 70.4292 39.4062C70.0954 38.962 69.9297 38.4172 69.9297 37.7705C69.9297 36.9634 70.1527 36.1934 70.5993 35.4607C71.0468 34.7284 71.6197 34.1368 72.3184 33.6846C73.0171 33.2323 73.6354 33.0059 74.1711 33.0059C74.8486 33.0059 75.3228 33.3156 75.5938 33.9344L77.2547 33.0223H77.7104L76.9931 35.3882C76.6247 36.5784 76.4399 37.3941 76.4399 37.8354C76.4399 38.2982 76.6048 38.5297 76.9356 38.5297C77.146 38.5297 77.379 38.4182 77.6338 38.1945C77.8887 37.9708 78.2455 37.6303 78.706 37.1728V38.1011H78.7064ZM72.7576 38.5458C73.2993 38.5458 73.8098 38.087 74.2901 37.1692C74.7697 36.251 75.0092 35.4038 75.0092 34.6287C75.0092 34.3276 74.9409 34.0917 74.8062 33.9224C74.6701 33.7522 74.4887 33.6679 74.2617 33.6679C73.7196 33.6679 73.2057 34.1254 72.7217 35.0409C72.2369 35.9564 71.994 36.7989 71.994 37.5681C71.994 37.8593 72.0661 38.0948 72.2095 38.2753C72.353 38.4557 72.535 38.5458 72.7576 38.5458Z" fill="#010101"></path><path d="M84.7729 38.1005C83.4129 39.4248 82.3643 40.0875 81.6276 40.0875C81.2968 40.0875 81.0176 39.9487 80.7906 39.6723C80.5636 39.3949 80.4492 39.0514 80.4492 38.6419C80.4492 37.8829 80.8587 36.8658 81.6766 35.5896C81.2754 35.7943 80.8371 35.9364 80.3601 36.0174C80.0079 36.6634 79.4549 37.3581 78.7021 38.1003H78.5156V37.3743C78.9379 36.9383 79.32 36.4696 79.6614 35.9689C79.1948 35.7641 78.9623 35.4599 78.9623 35.0568C78.9623 34.6416 79.104 34.199 79.3892 33.7274C79.6735 33.2568 80.0647 33.0215 80.5636 33.0215C80.9862 33.0215 81.1971 33.2361 81.1971 33.6671C81.1971 34.0063 81.0753 34.4906 80.8311 35.1209C81.7303 35.0237 82.516 34.3405 83.1882 33.0696L83.9274 33.0371L83.1716 35.1044C82.8576 35.9767 82.6544 36.5708 82.5625 36.8854C82.4706 37.2 82.4241 37.4791 82.4241 37.721C82.4241 37.9474 82.4772 38.1283 82.5824 38.262C82.6881 38.3976 82.8307 38.4642 83.0093 38.4642C83.2041 38.4642 83.3915 38.398 83.5701 38.2668C83.7488 38.1338 84.1498 37.7695 84.7732 37.1719V38.1005H84.7729Z" fill="#010101"></path><path d="M92.7578 38.1009C91.5064 39.4153 90.433 40.0719 89.5395 40.0719C89.1765 40.0719 88.8839 39.9453 88.6618 39.6921C88.4392 39.4393 88.3282 39.1003 88.3282 38.675C88.3282 38.099 88.5669 37.2185 89.0439 36.0346C89.2983 35.3991 89.426 34.9947 89.426 34.8231C89.426 34.6507 89.3577 34.5644 89.223 34.5644C89.1472 34.5644 89.0464 34.6024 88.9221 34.6772C88.8077 34.7525 88.6751 34.8583 88.5234 34.9926C88.3883 35.1162 88.2361 35.2669 88.0683 35.4441C87.9217 35.5961 87.7645 35.7681 87.5975 35.9613L87.1417 36.4867C86.9416 36.7287 86.8169 36.9841 86.7683 37.2535C86.6866 37.711 86.6327 38.1315 86.6053 38.5141C86.5888 38.7988 86.5809 39.1834 86.5809 39.6689L84.7849 40.0881C84.7257 39.3613 84.6953 38.8201 84.6953 38.4652C84.6953 37.5985 84.7969 36.7772 85.0004 36.0022C85.2035 35.2263 85.5296 34.3546 85.9796 33.3852L87.9622 33.0059C87.5453 34.1206 87.2718 34.9977 87.1417 35.638C88.0303 34.653 88.7347 33.9711 89.2569 33.591C89.7782 33.2112 90.2425 33.0223 90.6482 33.0223C90.9238 33.0223 91.1542 33.1256 91.3377 33.3325C91.5221 33.5395 91.6138 33.7995 91.6138 34.1103C91.6138 34.6266 91.3808 35.4774 90.9155 36.6623C90.5955 37.4749 90.4356 38.0022 90.4356 38.2457C90.4356 38.5698 90.5686 38.7317 90.8347 38.7317C91.2308 38.7317 91.8724 38.212 92.7578 37.173V38.1009Z" fill="#010101"></path><path d="M66.8169 28.8516C66.8351 29.0566 66.8864 29.2139 66.9707 29.3232C67.1257 29.5215 67.3945 29.6206 67.7773 29.6206C68.0052 29.6206 68.2057 29.5716 68.3789 29.4736C68.5521 29.3734 68.6387 29.2196 68.6387 29.0122C68.6387 28.855 68.5692 28.7354 68.4302 28.6533C68.3413 28.6032 68.1659 28.5451 67.9038 28.479L67.415 28.356C67.1029 28.2785 66.8727 28.1919 66.7246 28.0962C66.4603 27.9299 66.3281 27.6997 66.3281 27.4058C66.3281 27.0594 66.4523 26.7791 66.7007 26.5649C66.9513 26.3507 67.2874 26.2437 67.709 26.2437C68.2604 26.2437 68.658 26.4054 68.9019 26.729C69.0545 26.9341 69.1286 27.1551 69.124 27.3921H68.543C68.5316 27.2531 68.4826 27.1266 68.396 27.0127C68.2547 26.8509 68.0098 26.77 67.6611 26.77C67.4287 26.77 67.2521 26.8145 67.1313 26.9033C67.0129 26.9922 66.9536 27.1095 66.9536 27.2554C66.9536 27.4149 67.0322 27.5425 67.1895 27.6382C67.2806 27.6951 67.415 27.7453 67.5928 27.7886L67.9995 27.8877C68.4416 27.9948 68.7378 28.0985 68.8882 28.1987C69.1274 28.356 69.2471 28.6032 69.2471 28.9404C69.2471 29.2663 69.1229 29.5477 68.8745 29.7847C68.6284 30.0216 68.2524 30.1401 67.7466 30.1401C67.202 30.1401 66.8158 30.0171 66.5879 29.771C66.3623 29.5226 66.2415 29.2161 66.2256 28.8516H66.8169ZM71.3628 26.2334C71.7752 26.2334 72.1102 26.3337 72.3677 26.5342C72.6274 26.7347 72.7835 27.0799 72.8359 27.5698H72.2378C72.2013 27.3442 72.1182 27.1574 71.9883 27.0093C71.8584 26.8589 71.6499 26.7837 71.3628 26.7837C70.9709 26.7837 70.6906 26.9751 70.522 27.3579C70.4126 27.6063 70.3579 27.9128 70.3579 28.2773C70.3579 28.6442 70.4354 28.953 70.5903 29.2036C70.7453 29.4543 70.9891 29.5796 71.3218 29.5796C71.577 29.5796 71.7786 29.5021 71.9268 29.3472C72.0771 29.1899 72.1808 28.9757 72.2378 28.7046H72.8359C72.7676 29.1899 72.5967 29.5454 72.3232 29.771C72.0498 29.9943 71.7 30.106 71.2739 30.106C70.7954 30.106 70.4137 29.9316 70.1289 29.583C69.8441 29.2321 69.7017 28.7946 69.7017 28.2705C69.7017 27.6279 69.8577 27.1278 70.1699 26.77C70.4821 26.4123 70.8797 26.2334 71.3628 26.2334ZM73.4512 26.3564H74.0767V30H73.4512V26.3564ZM73.4512 24.979H74.0767V25.6763H73.4512V24.979ZM74.9961 24.979H75.5874V27.8945L77.1665 26.3394H77.9526L76.5513 27.71L78.0312 30H77.2451L76.1035 28.1543L75.5874 28.626V30H74.9961V24.979ZM78.5098 26.3564H79.1353V30H78.5098V26.3564ZM78.5098 24.979H79.1353V25.6763H78.5098V24.979ZM80.1914 25.3174H80.8135V26.3394H81.3979V26.8418H80.8135V29.231C80.8135 29.3586 80.8568 29.444 80.9434 29.4873C80.9912 29.5124 81.071 29.5249 81.1826 29.5249C81.2122 29.5249 81.2441 29.5249 81.2783 29.5249C81.3125 29.5226 81.3524 29.5192 81.3979 29.5146V30C81.3273 30.0205 81.2533 30.0353 81.1758 30.0444C81.1006 30.0535 81.0186 30.0581 80.9297 30.0581C80.6426 30.0581 80.4478 29.9852 80.3452 29.8394C80.2427 29.6912 80.1914 29.4998 80.1914 29.2651V26.8418H79.6958V26.3394H80.1914V25.3174Z" fill="white"></path><path d="M87.3883 47H86.8302V45.1119C86.8302 44.9694 86.8232 44.8318 86.8094 44.6992C86.7975 44.5666 86.7708 44.4607 86.7292 44.3816C86.6837 44.2965 86.6184 44.2321 86.5333 44.1886C86.4482 44.1451 86.3255 44.1233 86.1652 44.1233C86.0088 44.1233 85.8524 44.1629 85.6961 44.242C85.5397 44.3192 85.3834 44.4182 85.227 44.5389C85.233 44.5844 85.2379 44.6379 85.2419 44.6992C85.2458 44.7586 85.2478 44.818 85.2478 44.8773V47H84.6897V45.1119C84.6897 44.9654 84.6828 44.8269 84.6689 44.6963C84.657 44.5636 84.6303 44.4578 84.5887 44.3786C84.5432 44.2935 84.4779 44.2302 84.3928 44.1886C84.3077 44.1451 84.185 44.1233 84.0247 44.1233C83.8723 44.1233 83.7189 44.1609 83.5645 44.2361C83.4121 44.3113 83.2597 44.4073 83.1073 44.5241V47H82.5492V43.6839H83.1073V44.052C83.2815 43.9076 83.4547 43.7947 83.6269 43.7136C83.801 43.6324 83.9861 43.5919 84.182 43.5919C84.4077 43.5919 84.5986 43.6394 84.755 43.7344C84.9133 43.8294 85.0311 43.961 85.1083 44.1292C85.3339 43.9392 85.5397 43.8027 85.7258 43.7195C85.9118 43.6344 86.1107 43.5919 86.3225 43.5919C86.6867 43.5919 86.9548 43.7027 87.127 43.9244C87.3012 44.1441 87.3883 44.4518 87.3883 44.8477V47ZM91.0398 47H90.4847V46.6467C90.4352 46.6804 90.3679 46.7279 90.2828 46.7892C90.1997 46.8486 90.1185 46.8961 90.0394 46.9317C89.9464 46.9772 89.8395 47.0148 89.7187 47.0445C89.598 47.0762 89.4565 47.092 89.2942 47.092C88.9954 47.092 88.742 46.9931 88.5342 46.7952C88.3264 46.5972 88.2225 46.3449 88.2225 46.0381C88.2225 45.7868 88.2759 45.5839 88.3828 45.4295C88.4917 45.2732 88.646 45.1505 88.8459 45.0614C89.0478 44.9723 89.2903 44.912 89.5733 44.8803C89.8563 44.8486 90.1601 44.8249 90.4847 44.8091V44.723C90.4847 44.5963 90.4619 44.4914 90.4164 44.4083C90.3729 44.3252 90.3095 44.2598 90.2264 44.2123C90.1472 44.1668 90.0522 44.1361 89.9414 44.1203C89.8306 44.1045 89.7148 44.0966 89.5941 44.0966C89.4476 44.0966 89.2843 44.1164 89.1042 44.1559C88.9241 44.1935 88.7381 44.249 88.5461 44.3222H88.5164V43.7552C88.6253 43.7255 88.7826 43.6928 88.9884 43.6572C89.1943 43.6216 89.3971 43.6038 89.597 43.6038C89.8306 43.6038 90.0334 43.6235 90.2056 43.6631C90.3798 43.7007 90.5302 43.766 90.6569 43.8591C90.7816 43.9501 90.8766 44.0679 90.9419 44.2123C91.0072 44.3568 91.0398 44.5359 91.0398 44.7497V47ZM90.4847 46.1836V45.2603C90.3145 45.2702 90.1136 45.2851 89.882 45.3048C89.6524 45.3246 89.4704 45.3533 89.3358 45.3909C89.1755 45.4365 89.0458 45.5077 88.9469 45.6047C88.8479 45.6997 88.7984 45.8313 88.7984 45.9995C88.7984 46.1895 88.8558 46.333 88.9706 46.43C89.0854 46.525 89.2606 46.5725 89.4961 46.5725C89.692 46.5725 89.8711 46.5349 90.0334 46.4597C90.1957 46.3825 90.3461 46.2905 90.4847 46.1836ZM94.5667 46.7922C94.3807 46.8813 94.2035 46.9505 94.0353 47C93.8691 47.0495 93.6919 47.0742 93.5039 47.0742C93.2644 47.0742 93.0447 47.0396 92.8448 46.9703C92.6449 46.8991 92.4737 46.7922 92.3312 46.6497C92.1868 46.5072 92.0749 46.3271 91.9958 46.1094C91.9166 45.8917 91.877 45.6373 91.877 45.3464C91.877 44.8041 92.0255 44.3786 92.3223 44.0698C92.6212 43.7611 93.0151 43.6067 93.5039 43.6067C93.6939 43.6067 93.8799 43.6334 94.062 43.6869C94.2461 43.7403 94.4143 43.8056 94.5667 43.8828V44.5033H94.537C94.3668 44.3707 94.1907 44.2688 94.0086 44.1975C93.8285 44.1263 93.6523 44.0906 93.4802 44.0906C93.1635 44.0906 92.9131 44.1975 92.7291 44.4113C92.547 44.623 92.4559 44.9347 92.4559 45.3464C92.4559 45.7462 92.545 46.054 92.7231 46.2697C92.9032 46.4834 93.1556 46.5903 93.4802 46.5903C93.593 46.5903 93.7078 46.5755 93.8245 46.5458C93.9413 46.5161 94.0462 46.4775 94.1392 46.43C94.2204 46.3884 94.2966 46.3449 94.3678 46.2994C94.4391 46.2519 94.4955 46.2113 94.537 46.1777H94.5667V46.7922ZM98.058 47H97.4998V45.1119C97.4998 44.9595 97.4909 44.817 97.4731 44.6844C97.4553 44.5498 97.4227 44.4449 97.3752 44.3697C97.3257 44.2866 97.2544 44.2252 97.1614 44.1856C97.0684 44.1441 96.9477 44.1233 96.7992 44.1233C96.6468 44.1233 96.4875 44.1609 96.3212 44.2361C96.155 44.3113 95.9957 44.4073 95.8433 44.5241V47H95.2852V42.3806H95.8433V44.052C96.0174 43.9076 96.1976 43.7947 96.3836 43.7136C96.5696 43.6324 96.7606 43.5919 96.9566 43.5919C97.3148 43.5919 97.5879 43.6997 97.7759 43.9155C97.964 44.1312 98.058 44.4419 98.058 44.8477V47ZM99.7323 43.1288H99.103V42.5498H99.7323V43.1288ZM99.6967 47H99.1386V43.6839H99.6967V47ZM103.574 47H103.016V45.1119C103.016 44.9595 103.007 44.817 102.989 44.6844C102.971 44.5498 102.939 44.4449 102.891 44.3697C102.842 44.2866 102.77 44.2252 102.677 44.1856C102.584 44.1441 102.464 44.1233 102.315 44.1233C102.163 44.1233 102.003 44.1609 101.837 44.2361C101.671 44.3113 101.512 44.4073 101.359 44.5241V47H100.801V43.6839H101.359V44.052C101.533 43.9076 101.713 43.7947 101.9 43.7136C102.086 43.6324 102.277 43.5919 102.472 43.5919C102.831 43.5919 103.104 43.6997 103.292 43.9155C103.48 44.1312 103.574 44.4419 103.574 44.8477V47ZM107.424 45.3998H104.981C104.981 45.6037 105.012 45.7818 105.073 45.9342C105.134 46.0846 105.219 46.2083 105.325 46.3053C105.428 46.4003 105.55 46.4716 105.691 46.5191C105.833 46.5666 105.989 46.5903 106.16 46.5903C106.385 46.5903 106.612 46.5458 106.84 46.4567C107.069 46.3657 107.232 46.2766 107.329 46.1895H107.359V46.7981C107.171 46.8773 106.979 46.9436 106.783 46.997C106.587 47.0505 106.381 47.0772 106.166 47.0772C105.615 47.0772 105.186 46.9288 104.877 46.6319C104.568 46.333 104.414 45.9095 104.414 45.3613C104.414 44.819 104.562 44.3885 104.856 44.0698C105.153 43.7512 105.543 43.5919 106.026 43.5919C106.473 43.5919 106.818 43.7225 107.059 43.9838C107.303 44.245 107.424 44.6161 107.424 45.097V45.3998ZM106.881 44.9723C106.879 44.6794 106.805 44.4528 106.658 44.2925C106.514 44.1322 106.293 44.052 105.996 44.052C105.698 44.052 105.459 44.1401 105.281 44.3163C105.105 44.4924 105.005 44.7111 104.981 44.9723H106.881ZM110.972 47H110.414V42.3806H110.972V47ZM114.852 45.3998H112.409C112.409 45.6037 112.44 45.7818 112.501 45.9342C112.562 46.0846 112.646 46.2083 112.753 46.3053C112.856 46.4003 112.978 46.4716 113.118 46.5191C113.261 46.5666 113.417 46.5903 113.587 46.5903C113.813 46.5903 114.04 46.5458 114.267 46.4567C114.497 46.3657 114.66 46.2766 114.757 46.1895H114.787V46.7981C114.599 46.8773 114.407 46.9436 114.211 46.997C114.015 47.0505 113.809 47.0772 113.593 47.0772C113.043 47.0772 112.614 46.9288 112.305 46.6319C111.996 46.333 111.842 45.9095 111.842 45.3613C111.842 44.819 111.989 44.3885 112.284 44.0698C112.581 43.7512 112.971 43.5919 113.454 43.5919C113.901 43.5919 114.246 43.7225 114.487 43.9838C114.73 44.245 114.852 44.6161 114.852 45.097V45.3998ZM114.309 44.9723C114.307 44.6794 114.233 44.4528 114.086 44.2925C113.942 44.1322 113.721 44.052 113.424 44.052C113.125 44.052 112.887 44.1401 112.709 44.3163C112.533 44.4924 112.433 44.7111 112.409 44.9723H114.309ZM118.275 47H117.72V46.6467C117.671 46.6804 117.603 46.7279 117.518 46.7892C117.435 46.8486 117.354 46.8961 117.275 46.9317C117.182 46.9772 117.075 47.0148 116.954 47.0445C116.833 47.0762 116.692 47.092 116.53 47.092C116.231 47.092 115.977 46.9931 115.77 46.7952C115.562 46.5972 115.458 46.3449 115.458 46.0381C115.458 45.7868 115.511 45.5839 115.618 45.4295C115.727 45.2732 115.881 45.1505 116.081 45.0614C116.283 44.9723 116.526 44.912 116.809 44.8803C117.092 44.8486 117.395 44.8249 117.72 44.8091V44.723C117.72 44.5963 117.697 44.4914 117.652 44.4083C117.608 44.3252 117.545 44.2598 117.462 44.2123C117.383 44.1668 117.288 44.1361 117.177 44.1203C117.066 44.1045 116.95 44.0966 116.829 44.0966C116.683 44.0966 116.52 44.1164 116.34 44.1559C116.159 44.1935 115.973 44.249 115.781 44.3222H115.752V43.7552C115.861 43.7255 116.018 43.6928 116.224 43.6572C116.43 43.6216 116.632 43.6038 116.832 43.6038C117.066 43.6038 117.269 43.6235 117.441 43.6631C117.615 43.7007 117.766 43.766 117.892 43.8591C118.017 43.9501 118.112 44.0679 118.177 44.2123C118.243 44.3568 118.275 44.5359 118.275 44.7497V47ZM117.72 46.1836V45.2603C117.55 45.2702 117.349 45.2851 117.117 45.3048C116.888 45.3246 116.706 45.3533 116.571 45.3909C116.411 45.4365 116.281 45.5077 116.182 45.6047C116.083 45.6997 116.034 45.8313 116.034 45.9995C116.034 46.1895 116.091 46.333 116.206 46.43C116.321 46.525 116.496 46.5725 116.731 46.5725C116.927 46.5725 117.106 46.5349 117.269 46.4597C117.431 46.3825 117.581 46.2905 117.72 46.1836ZM121.419 44.2925H121.389C121.306 44.2727 121.225 44.2589 121.146 44.2509C121.069 44.241 120.977 44.2361 120.87 44.2361C120.698 44.2361 120.531 44.2747 120.371 44.3519C120.211 44.4271 120.056 44.5251 119.908 44.6458V47H119.35V43.6839H119.908V44.1738C120.13 43.9956 120.325 43.8699 120.493 43.7967C120.663 43.7215 120.836 43.6839 121.012 43.6839C121.109 43.6839 121.18 43.6869 121.223 43.6928C121.267 43.6968 121.332 43.7057 121.419 43.7195V44.2925ZM124.717 47H124.159V45.1119C124.159 44.9595 124.15 44.817 124.133 44.6844C124.115 44.5498 124.082 44.4449 124.035 44.3697C123.985 44.2866 123.914 44.2252 123.821 44.1856C123.728 44.1441 123.607 44.1233 123.459 44.1233C123.306 44.1233 123.147 44.1609 122.981 44.2361C122.814 44.3113 122.655 44.4073 122.503 44.5241V47H121.945V43.6839H122.503V44.052C122.677 43.9076 122.857 43.7947 123.043 43.7136C123.229 43.6324 123.42 43.5919 123.616 43.5919C123.974 43.5919 124.247 43.6997 124.435 43.9155C124.623 44.1312 124.717 44.4419 124.717 44.8477V47ZM126.392 43.1288H125.762V42.5498H126.392V43.1288ZM126.356 47H125.798V43.6839H126.356V47ZM130.233 47H129.675V45.1119C129.675 44.9595 129.666 44.817 129.648 44.6844C129.631 44.5498 129.598 44.4449 129.55 44.3697C129.501 44.2866 129.43 44.2252 129.337 44.1856C129.244 44.1441 129.123 44.1233 128.975 44.1233C128.822 44.1233 128.663 44.1609 128.497 44.2361C128.33 44.3113 128.171 44.4073 128.019 44.5241V47H127.46V43.6839H128.019V44.052C128.193 43.9076 128.373 43.7947 128.559 43.7136C128.745 43.6324 128.936 43.5919 129.132 43.5919C129.49 43.5919 129.763 43.6997 129.951 43.9155C130.139 44.1312 130.233 44.4419 130.233 44.8477V47ZM133.998 46.623C133.998 47.1851 133.87 47.5977 133.615 47.8609C133.359 48.1242 132.967 48.2558 132.436 48.2558C132.26 48.2558 132.088 48.2429 131.92 48.2172C131.753 48.1934 131.589 48.1588 131.427 48.1133V47.5433H131.456C131.547 47.5789 131.692 47.6224 131.89 47.6739C132.088 47.7273 132.286 47.7541 132.484 47.7541C132.674 47.7541 132.831 47.7313 132.956 47.6858C133.08 47.6403 133.177 47.5769 133.247 47.4958C133.316 47.4186 133.365 47.3256 133.395 47.2167C133.425 47.1079 133.44 46.9861 133.44 46.8516V46.5488C133.271 46.6833 133.11 46.7843 132.956 46.8516C132.803 46.9169 132.608 46.9495 132.371 46.9495C131.975 46.9495 131.66 46.807 131.427 46.522C131.195 46.2351 131.079 45.8313 131.079 45.3108C131.079 45.0258 131.119 44.7804 131.198 44.5745C131.279 44.3667 131.389 44.1876 131.528 44.0372C131.656 43.8967 131.813 43.7878 131.997 43.7106C132.181 43.6315 132.364 43.5919 132.546 43.5919C132.738 43.5919 132.898 43.6117 133.027 43.6513C133.158 43.6889 133.295 43.7472 133.44 43.8264L133.475 43.6839H133.998V46.623ZM133.44 46.0886V44.2806C133.291 44.2133 133.153 44.1658 133.024 44.1381C132.897 44.1084 132.771 44.0936 132.644 44.0936C132.337 44.0936 132.096 44.1965 131.92 44.4023C131.743 44.6082 131.655 44.907 131.655 45.2989C131.655 45.671 131.721 45.953 131.851 46.145C131.982 46.337 132.199 46.433 132.501 46.433C132.664 46.433 132.826 46.4023 132.988 46.3409C133.153 46.2776 133.303 46.1935 133.44 46.0886ZM137.833 43.1288H137.204V42.5498H137.833V43.1288ZM137.798 47H137.24V43.6839H137.798V47ZM141.675 47H141.117V45.1119C141.117 44.9595 141.108 44.817 141.09 44.6844C141.072 44.5498 141.04 44.4449 140.992 44.3697C140.943 44.2866 140.871 44.2252 140.778 44.1856C140.685 44.1441 140.565 44.1233 140.416 44.1233C140.264 44.1233 140.104 44.1609 139.938 44.2361C139.772 44.3113 139.613 44.4073 139.46 44.5241V47H138.902V43.6839H139.46V44.052C139.634 43.9076 139.814 43.7947 140 43.7136C140.187 43.6324 140.377 43.5919 140.573 43.5919C140.932 43.5919 141.205 43.6997 141.393 43.9155C141.581 44.1312 141.675 44.4419 141.675 44.8477V47ZM147.823 43.9155C147.823 44.1114 147.788 44.2935 147.719 44.4617C147.652 44.628 147.557 44.7724 147.434 44.8952C147.282 45.0476 147.102 45.1623 146.894 45.2395C146.686 45.3147 146.424 45.3523 146.107 45.3523H145.519V47H144.932V42.5795H146.131C146.396 42.5795 146.621 42.6023 146.805 42.6478C146.989 42.6914 147.152 42.7606 147.295 42.8556C147.463 42.9684 147.593 43.109 147.684 43.2772C147.777 43.4454 147.823 43.6582 147.823 43.9155ZM147.212 43.9303C147.212 43.7779 147.185 43.6453 147.131 43.5325C147.078 43.4197 146.997 43.3277 146.888 43.2564C146.793 43.1951 146.684 43.1515 146.561 43.1258C146.441 43.0981 146.287 43.0842 146.101 43.0842H145.519V44.8506H146.015C146.253 44.8506 146.446 44.8298 146.594 44.7883C146.742 44.7447 146.863 44.6765 146.956 44.5834C147.049 44.4884 147.115 44.3885 147.152 44.2836C147.192 44.1787 147.212 44.0609 147.212 43.9303ZM151.424 43.6839L149.489 48.2231H148.892L149.509 46.8397L148.188 43.6839H148.794L149.812 46.142L150.839 43.6839H151.424ZM153.876 46.9703C153.772 46.998 153.657 47.0208 153.532 47.0386C153.409 47.0564 153.299 47.0653 153.202 47.0653C152.864 47.0653 152.607 46.9743 152.431 46.7922C152.254 46.6101 152.166 46.3182 152.166 45.9164V44.153H151.789V43.6839H152.166V42.7309H152.725V43.6839H153.876V44.153H152.725V45.6641C152.725 45.8382 152.728 45.9748 152.736 46.0738C152.744 46.1707 152.772 46.2618 152.82 46.3469C152.863 46.426 152.922 46.4844 152.998 46.522C153.075 46.5577 153.192 46.5755 153.348 46.5755C153.439 46.5755 153.534 46.5626 153.633 46.5369C153.732 46.5092 153.803 46.4864 153.847 46.4686H153.876V46.9703ZM157.326 47H156.768V45.1119C156.768 44.9595 156.759 44.817 156.741 44.6844C156.723 44.5498 156.691 44.4449 156.643 44.3697C156.594 44.2866 156.523 44.2252 156.43 44.1856C156.337 44.1441 156.216 44.1233 156.067 44.1233C155.915 44.1233 155.756 44.1609 155.589 44.2361C155.423 44.3113 155.264 44.4073 155.111 44.5241V47H154.553V42.3806H155.111V44.052C155.286 43.9076 155.466 43.7947 155.652 43.7136C155.838 43.6324 156.029 43.5919 156.225 43.5919C156.583 43.5919 156.856 43.6997 157.044 43.9155C157.232 44.1312 157.326 44.4419 157.326 44.8477V47ZM161.227 45.3434C161.227 45.8838 161.088 46.3103 160.811 46.623C160.534 46.9357 160.163 47.092 159.698 47.092C159.229 47.092 158.856 46.9357 158.579 46.623C158.304 46.3103 158.166 45.8838 158.166 45.3434C158.166 44.8031 158.304 44.3766 158.579 44.0639C158.856 43.7492 159.229 43.5919 159.698 43.5919C160.163 43.5919 160.534 43.7492 160.811 44.0639C161.088 44.3766 161.227 44.8031 161.227 45.3434ZM160.651 45.3434C160.651 44.914 160.567 44.5953 160.399 44.3875C160.231 44.1777 159.997 44.0728 159.698 44.0728C159.395 44.0728 159.16 44.1777 158.992 44.3875C158.825 44.5953 158.742 44.914 158.742 45.3434C158.742 45.7591 158.826 46.0747 158.995 46.2905C159.163 46.5042 159.397 46.6111 159.698 46.6111C159.995 46.6111 160.228 46.5052 160.396 46.2934C160.566 46.0797 160.651 45.763 160.651 45.3434ZM164.867 47H164.309V45.1119C164.309 44.9595 164.3 44.817 164.282 44.6844C164.264 44.5498 164.231 44.4449 164.184 44.3697C164.134 44.2866 164.063 44.2252 163.97 44.1856C163.877 44.1441 163.756 44.1233 163.608 44.1233C163.456 44.1233 163.296 44.1609 163.13 44.2361C162.964 44.3113 162.804 44.4073 162.652 44.5241V47H162.094V43.6839H162.652V44.052C162.826 43.9076 163.006 43.7947 163.192 43.7136C163.378 43.6324 163.569 43.5919 163.765 43.5919C164.124 43.5919 164.397 43.6997 164.585 43.9155C164.773 44.1312 164.867 44.4419 164.867 44.8477V47Z" fill="#010101"></path></g><defs><clipPath id="clip0_22021_5449"><rect width="131" height="35" fill="white" transform="translate(34 13)"></rect></clipPath></defs></svg> 