<?xml version="1.0" encoding="UTF-8"?> <svg xmlns="http://www.w3.org/2000/svg" width="201" height="60" viewBox="0 0 201 60" fill="none"><rect x="1.5" y="0.5" width="199" height="59" rx="7.5" stroke="#D9D9D9"></rect><g clip-path="url(#clip0_22021_5435)"><path d="M61.7086 23.3146L60.275 24.7874C62.6209 27.1973 62.6209 31.0799 60.275 33.4452C57.9291 35.8551 54.1496 35.8551 51.8472 33.4452C49.5013 31.0353 49.5013 27.1527 51.8472 24.7874L55.5615 20.9717L56.0828 20.4361V17.5576L50.4787 23.3146C47.3508 26.5279 47.3508 31.7047 50.4787 34.9179C53.6066 38.1312 58.6459 38.1312 61.7086 34.9179C64.8365 31.6824 64.8365 26.5279 61.7086 23.3146Z" fill="#EE4C2C"></path><path d="M59.9524 21.8865C59.9524 22.478 59.4856 22.9576 58.9098 22.9576C58.334 22.9576 57.8672 22.478 57.8672 21.8865C57.8672 21.295 58.334 20.8154 58.9098 20.8154C59.4856 20.8154 59.9524 21.295 59.9524 21.8865Z" fill="#EE4C2C"></path><path d="M76.1966 30.6786H73.7855V37.0381H71.9609V18.9414H76.3921C81.0187 18.9414 83.2343 21.2844 83.2343 24.5645C83.2995 28.6034 80.5626 30.6786 76.1966 30.6786ZM76.3921 20.7488C76.1966 20.7488 73.8507 20.7488 73.8507 20.7488V29.072L76.3269 29.005C79.6503 28.9381 81.4749 27.5993 81.4749 24.7877C81.4749 22.1546 79.6503 20.7488 76.3921 20.7488Z" fill="black"></path><path d="M91.4003 36.9711L90.3577 39.8496C89.1847 43.0628 87.9466 44 86.1872 44C85.2097 44 84.4929 43.7323 83.7109 43.3975L84.2323 41.724C84.8187 42.0587 85.4704 42.3265 86.1872 42.3265C87.1646 42.3265 87.8814 41.7909 88.8589 39.2471L89.706 36.9042L84.6884 23.8281H86.5782L90.6183 34.762L94.5933 23.8281H96.4179L91.4003 36.9711Z" fill="black"></path><path d="M102.375 20.7493V37.1055H100.55V20.7493H94.3594V19.0088H108.522V20.7493C108.5 20.7493 102.375 20.7493 102.375 20.7493Z" fill="black"></path><path d="M113.667 37.4401C110.083 37.4401 107.477 34.6955 107.477 30.4781C107.477 26.2608 110.213 23.4492 113.863 23.4492C117.512 23.4492 120.053 26.1938 120.053 30.4112C119.988 34.6286 117.251 37.4401 113.667 37.4401ZM113.732 25.1228C110.995 25.1228 109.236 27.3319 109.236 30.4781C109.236 33.6914 111.061 35.9005 113.797 35.9005C116.534 35.9005 118.294 33.6914 118.294 30.5451C118.294 27.2649 116.469 25.1228 113.732 25.1228Z" fill="black"></path><path d="M124.416 37.1053H122.656V23.8284L124.416 23.4268V26.2383C125.263 24.5648 126.501 23.4268 128.195 23.4268C129.042 23.4268 129.824 23.6945 130.476 24.0292L130.02 25.7028C129.433 25.3681 128.782 25.1003 128.065 25.1003C126.696 25.1003 125.458 26.1714 124.416 28.5144V37.1053Z" fill="black"></path><path d="M137.344 37.4401C133.434 37.4401 131.023 34.5616 131.023 30.4781C131.023 26.3277 133.695 23.4492 137.344 23.4492C138.908 23.4492 140.277 23.8509 141.384 24.5872L140.928 26.1938C139.951 25.5244 138.713 25.1228 137.344 25.1228C134.542 25.1228 132.848 27.2649 132.848 30.4112C132.848 33.6244 134.673 35.7666 137.41 35.7666C138.713 35.7666 140.016 35.3649 140.994 34.6955L141.384 36.3691C140.212 37.0385 138.843 37.4401 137.344 37.4401Z" fill="black"></path><path d="M152.159 37.1053V28.5144C152.159 26.1714 151.247 25.1673 149.422 25.1673C147.923 25.1673 146.49 25.9706 145.447 27.0417V37.1053H143.688V17.6028L145.447 17.2012V25.5913C146.815 24.1855 148.51 23.516 149.943 23.516C152.419 23.516 153.983 25.1896 153.983 28.0681V37.1276H152.159V37.1053Z" fill="black"></path></g><defs><clipPath id="clip0_22021_5435"><rect width="106" height="27" fill="white" transform="translate(48 17)"></rect></clipPath></defs></svg> 