<?xml version="1.0" encoding="UTF-8"?> <svg xmlns="http://www.w3.org/2000/svg" width="200" height="60" viewBox="0 0 200 60" fill="none"><rect x="0.5" y="0.5" width="199" height="59" rx="7.5" stroke="#D9D9D9"></rect><g clip-path="url(#clip0_22021_5291)"><path d="M57.2437 50C54.9521 50 53.0548 48.1764 53.0548 45.9737C53.0548 45.6948 53.1594 45.4431 53.2172 45.1776L52.9536 44.7143C51.369 44.1368 50.2135 42.6818 50.2135 40.9734C50.2135 40.5448 50.3384 40.1487 50.4713 39.7591C49.9768 39.9805 49.4439 40.1134 48.9019 40.0511H48.9007C48.2949 39.9813 47.7132 39.7241 47.2639 39.3272C47.2615 39.3253 47.2591 39.3231 47.2566 39.3213C46.6419 38.7743 46.3707 37.9644 46.3921 37.1623C46.3198 37.0906 46.2212 37.0469 46.1575 36.9679C45.9073 36.6574 45.7546 36.2944 45.6683 35.9143C45.0093 35.6004 44.4367 35.1409 44.1737 34.4793L44.1722 34.4762C43.6266 33.0997 44.4287 31.371 45.8586 30.8411H45.8559L49.1027 29.6342V29.6358C49.203 29.5986 49.313 29.614 49.4164 29.5892C49.5734 28.9384 50.0233 28.2 50.622 27.7936L50.5371 27.8524L54.3791 25.0204C53.6232 23.6575 52.8689 22.2953 52.272 21.2897C51.855 21.4153 51.4345 21.5644 51.0016 21.4994C50.7013 21.4541 50.4074 21.3646 50.1359 21.2333L50.1328 21.2302L46.5766 19.5036C45.1985 18.8424 44.5733 17.0329 45.2666 15.7109L45.2682 15.7093C45.6467 14.9894 46.3835 14.515 47.1934 14.3147C47.2426 14.2305 47.254 14.1304 47.3136 14.0517C47.3152 14.0497 47.3167 14.0477 47.3183 14.0458C47.5497 13.7421 47.8516 13.5009 48.1898 13.3187C48.31 12.6241 48.6606 11.965 49.245 11.5368C49.2479 11.5344 49.2507 11.5321 49.2536 11.5297C50.4784 10.6405 52.4337 10.9024 53.3607 12.0781L53.3623 12.0797L55.4635 14.7458L55.4666 14.7489C55.6184 14.9422 55.6887 15.1745 55.7771 15.398L56.4377 15.0896C56.4388 15.089 56.4397 15.0887 56.4408 15.088C56.8832 14.8712 57.2735 14.7916 57.6232 14.772V14.7681C57.945 14.7446 58.2428 14.7673 58.5133 14.8144C59.507 14.9874 60.2694 15.4879 60.8534 16.3062C61.3212 16.9091 62.0304 18.1062 62.6817 19.0735L64.9648 17.3135L64.8341 17.4186C65.7866 16.5983 66.7558 16.4327 67.772 16.6096C68.2688 16.6961 69.3593 17.0818 70.0197 18.0273L69.7662 17.7106L72.0783 20.2423C72.9754 19.563 73.9336 18.97 74.9829 18.5772C77.5784 17.6056 80.4575 17.5142 83.1091 18.4839C84.1802 18.8757 85.1807 19.5127 86.1024 20.2791L86.126 20.1059C86.1456 19.9567 86.176 19.8092 86.2167 19.6645C86.6518 18.1193 87.8181 17.2789 88.6843 16.8585C89.5505 16.438 90.3327 16.2743 91.0771 16.1592C92.5658 15.929 93.8484 15.9588 94.6771 16.0259C97.1296 16.2245 99.5392 16.9398 101.564 18.3667C102.388 18.9477 103.119 19.7508 103.729 20.6527C105.266 19.5784 107.036 18.8363 108.937 18.8363C111.072 18.8363 113.197 19.5661 115.073 20.9682C116.7 18.1467 119.709 16.2705 122.96 16.2705C125.158 16.2705 127.357 17.0117 129.272 18.4984C129.741 18.8629 130.19 19.2913 130.604 19.7696C130.997 19.3095 131.495 18.8499 132.123 18.6321C133.055 18.309 133.678 18.4307 134.076 18.491L134.293 18.5239H134.295C135.909 18.7679 137.533 19.3175 139.021 20.2572C139.604 20.627 140.133 21.053 140.623 21.5385C140.649 21.4872 140.68 21.4398 140.707 21.3892C141.431 19.689 142.941 18.4294 144.598 17.6624C144.938 17.4948 145.186 17.415 145.273 17.3994C145.316 17.2842 145.316 17.1576 145.376 17.0486L145.377 17.0474L147.253 13.653C147.975 12.3466 149.871 11.7912 151.228 12.4885C151.966 12.8679 152.442 13.5841 152.633 14.3644C152.72 14.4135 152.824 14.4266 152.904 14.4855L152.906 14.4868C153.218 14.7159 153.464 15.0115 153.647 15.3416C154.368 15.4722 155.046 15.8251 155.479 16.3968C156.381 17.5884 156.077 19.4608 154.84 20.3317C154.837 20.3342 154.833 20.3367 154.83 20.3392L152.011 22.3037L152.006 22.3068C151.708 22.5141 151.342 22.5921 150.985 22.6796C150.932 23.1942 150.832 23.6039 150.624 23.9629C151.327 24.3177 151.885 24.9018 152.139 25.6025C152.147 25.6243 152.155 25.6462 152.162 25.6683L153.166 28.701C153.186 28.7599 153.203 28.8195 153.219 28.8797C153.477 29.9118 153.11 31.0409 152.269 31.7783C152.29 31.848 152.314 31.9157 152.335 31.9852C152.347 32.0245 152.358 32.0639 152.367 32.1036C152.505 32.6555 152.551 33.4835 152.11 34.2935C151.668 35.1035 150.825 35.607 150.19 35.792C150.181 35.7949 150.172 35.7978 150.162 35.8006L146.758 36.7543C146.843 37.0181 146.866 37.2946 146.92 37.5668L147.249 37.8385C147.191 37.7954 147.214 37.8096 147.145 37.7597L147.28 37.8639L147.249 37.8385C147.984 38.3775 147.992 38.4321 147.246 37.84C147.312 37.892 147.375 37.9469 147.435 38.0047C147.381 37.9526 147.48 38.0465 147.443 38.0106L147.447 38.0165C148.339 38.8755 149.028 39.9201 149.446 41.0676C150.008 42.6109 150.071 44.2845 149.632 45.8613C149.36 46.837 148.558 47.609 147.542 47.8701C146.824 48.0548 146.088 48.1478 145.352 48.1476C144.404 48.1475 143.458 47.9932 142.556 47.6898C141.363 47.2881 140.273 46.627 139.376 45.7657L139.372 45.7613C139.223 45.6185 139.174 45.5519 139.22 45.6034L138.915 45.2628C137.404 44.9853 135.966 44.4207 134.861 43.3582H134.859C134.386 42.9036 133.975 42.3902 133.637 41.8303H133.636C133.374 41.3964 133.275 40.911 133.274 40.4149C132.19 40.978 130.891 41.1402 129.683 40.6501C129.567 40.6031 129.507 40.4924 129.397 40.4361L129.095 40.4545C128.231 41.3229 127.013 41.7581 125.763 41.6739L125.51 41.8672C125.458 42.1765 125.458 42.4896 125.328 42.7879C124.659 44.3099 123.112 45.2448 121.473 45.2483C120.929 45.2497 120.367 45.1473 119.839 44.9331C119.24 44.69 118.76 44.3028 118.356 43.8556C118.656 45.0109 118.494 46.2674 117.693 47.2724C116.867 48.307 115.591 48.863 114.317 48.8485C113.448 48.8386 112.559 48.5636 111.82 48.0191C111.588 47.8488 111.447 47.615 111.263 47.4092L110.721 47.3288C109.28 48.1873 107.374 48.1839 105.963 47.1442C104.148 45.8064 103.794 43.2468 105.187 41.5007C105.708 40.8475 106.428 40.4603 107.194 40.2146C106.66 40.084 106.138 39.8712 105.677 39.5318C103.958 38.2648 103.604 35.9208 104.748 34.1909C104.161 33.8972 103.538 33.6764 103.024 33.2502C102.423 34.4602 101.397 35.4692 100.095 36.2726C100.896 36.4654 101.689 36.7661 102.414 37.2388C102.851 37.5231 103.539 38.2604 103.703 39.0795V39.0811C103.864 39.8879 103.659 40.3561 103.58 40.5741L103.198 41.6822L103.233 41.5681C103.173 41.7728 103.052 41.8285 102.978 41.9922L103.53 42.8977C103.54 42.9131 103.549 42.9287 103.558 42.9443C103.723 43.2272 103.859 43.7167 103.869 43.7655C103.87 43.7674 103.87 43.769 103.871 43.7709C104.053 44.6817 104.04 45.3216 103.125 46.2439C103.1 46.2683 103.076 46.2921 103.05 46.3156C102.125 47.1779 101.043 47.6002 99.9188 47.8074C99.4707 47.89 99.008 47.9356 98.5328 47.9368C97.2625 47.9396 95.898 47.6151 94.7347 46.7793C94.3692 46.5167 94.1006 46.1305 93.8043 45.7778C93.5013 47.0245 92.2091 48.0666 90.7567 47.9356C90.7312 47.9336 90.7058 47.9313 90.6803 47.9285L89.0102 47.7314C88.9522 47.7224 88.8945 47.7119 88.8373 47.6992C88.72 47.6785 88.6237 47.613 88.512 47.5781L87.0506 47.8524C87.039 47.8546 87.0274 47.8567 87.0157 47.8587L86.9995 47.8618C86.9678 47.8676 86.936 47.8728 86.9041 47.8775C86.3367 47.9564 85.9905 47.8873 85.6674 47.8054C85.3902 47.7351 85.1628 47.7215 84.6346 47.3056C84.4238 47.5632 84.2159 47.7948 84.0996 47.8787C83.9387 47.9948 83.814 48.0652 83.6836 48.1323C83.4279 48.2638 83.1882 48.3859 82.6477 48.4647C82.5869 48.4752 82.5258 48.4837 82.4644 48.4902L80.8675 48.6254C80.824 48.6292 80.7805 48.6319 80.7369 48.6336C80.0689 48.6585 79.2826 48.349 78.7457 47.9155C77.6853 48.5771 76.4657 48.9122 75.3872 48.9096C74.9643 48.9088 74.5589 48.8713 74.1695 48.8069C73.601 48.7128 73.0541 48.5388 72.5191 48.3153L72.6971 48.3549L72.0481 48.1225C72.2018 48.2006 72.3624 48.2499 72.5191 48.3153L71.4282 48.0731L71.5748 48.1013C69.8555 47.8166 68.9967 46.3065 69.2463 44.9127C69.2544 44.8674 69.2637 44.8223 69.2743 44.7775L70.5974 39.1916C70.7252 38.6502 71.11 37.8894 71.7698 37.4085C71.9292 37.2922 72.0391 37.336 72.1974 37.2592C71.1672 36.5387 70.2819 35.5752 69.5162 34.3974C69.1783 35.0123 68.7087 35.5704 68.0143 35.8665L68.1213 35.8171L67.8425 35.9496C68.3869 36.629 68.7687 37.436 68.7687 38.348C68.7687 40.5507 66.871 42.3747 64.5794 42.3747C64.4548 42.3747 64.3554 42.2952 64.2324 42.2846L63.958 42.4166C63.5127 43.5384 62.5673 44.3934 61.3822 44.7829L61.2267 45.0546C61.3042 45.3595 61.4318 45.6486 61.4318 45.9733C61.4318 48.173 59.5353 50 57.2437 50ZM84.4594 47.1931C84.4509 47.1859 84.443 47.1737 84.4346 47.1665C84.4214 47.1548 84.4202 47.1587 84.4066 47.1465L84.4594 47.1931Z" fill="white"></path><path d="M70.4176 22.1587C70.5379 22.2816 70.5731 22.4306 70.5461 22.5891C70.5292 22.6882 70.4961 22.764 70.4042 22.8297L64.7313 27.2284C66.5965 30.6136 67.6067 33.0949 67.5021 33.7092C67.465 33.9272 67.3333 34.1083 67.1366 34.1965L63.6716 35.9396C63.583 35.9854 63.4587 36.0045 63.3607 35.9875C63.2235 35.9636 63.0965 35.8803 63.0221 35.7245C62.5082 34.5945 61.4954 32.6024 60.411 30.5569L55.8083 34.1219C55.69 34.2237 55.5198 34.2757 55.363 34.2484C55.265 34.2313 55.1737 34.1747 55.1055 34.1016L52.3327 31.0685C52.2319 30.949 52.1772 30.7966 52.2008 30.6579C52.221 30.539 52.2771 30.4468 52.369 30.3812L58.019 25.9988C56.8743 23.596 55.3322 20.92 54.4804 19.4048C54.4351 19.3153 54.4128 19.2094 54.4296 19.1103C54.4532 18.9716 54.5357 18.8431 54.6897 18.7679L57.8595 17.2182C57.948 17.1724 58.0494 17.1697 58.1278 17.1833C58.265 17.2072 58.4117 17.2939 58.509 17.4333C59.3209 18.4724 60.9758 20.8415 62.0865 22.8507L66.9649 19.0889C67.0832 18.9871 67.2501 18.9549 67.3873 18.9788C67.4853 18.9959 67.5799 19.0327 67.6448 19.1257L70.4176 22.1587Z" fill="#2887D7"></path><path d="M81.4134 26.2165C81.5999 26.1467 81.64 26.0245 81.5779 25.8548C81.3845 25.3268 79.9873 24.349 78.141 25.0401C76.3879 25.6964 75.2017 27.727 76.0856 30.1406C76.7692 32.0073 78.5241 33.7303 81.5267 32.6063C82.31 32.3131 82.9752 31.8711 83.34 31.4773C83.3821 31.4186 83.4498 31.3719 83.5058 31.3509C83.7296 31.2671 83.9782 31.367 84.0776 31.5228L85.8718 34.4532L85.8994 34.5286C85.9823 34.7549 85.9277 35.0112 85.7875 35.1494C85.0628 35.8924 84.0571 36.5047 82.9195 36.9306C80.3458 37.894 73.4917 38.8088 71.0266 32.0773C69.1415 26.9296 72.0257 22.355 76.1846 20.7982C80.0638 19.346 84.8862 20.5854 86.5435 25.1109C87.234 26.9964 87.057 28.1347 85.5837 28.6863C85.3599 28.77 82.6888 29.6413 80.6146 30.2891C80.272 30.3959 79.9328 30.2227 79.8293 29.9399L79.8154 29.9022L79.031 27.6443C78.9275 27.3615 78.9848 26.997 79.3392 26.8643L79.3765 26.8503C79.831 26.7017 81.1337 26.3212 81.3575 26.2374L81.4134 26.2165Z" fill="#0068C7"></path><path d="M89.3079 19.8206C89.7244 18.3415 93.4552 18.3411 94.5654 18.431C98.5301 18.752 102.408 20.9219 102.138 24.3291C102.086 24.9905 101.869 25.7193 101.47 26.4736C101.115 27.1711 100.624 27.5751 100.033 27.9912C100.822 28.8619 101.369 30.0156 101.262 31.3585C101.061 33.9039 98.8733 36.3289 94.1751 35.9484C92.6883 35.828 91.2436 35.4286 90.1502 34.8761L87.8617 34.5496C87.604 34.5287 87.4217 34.3122 87.4407 34.0717L87.4439 34.0316L89.3079 19.8206ZM92.7633 31.8603C93.1137 31.9694 93.4872 32.04 93.8639 32.0705C95.5687 32.2085 96.3506 31.4045 96.4237 30.4825C96.5602 28.7588 94.1893 28.466 93.2211 28.3472L92.7633 31.8603ZM93.6258 25.2535C93.9398 25.3192 94.2951 25.3682 94.6717 25.3987C96.2576 25.5271 97.1529 25.055 97.2355 24.0128C97.3149 23.0106 96.2952 22.2826 94.8283 22.1638C94.5706 22.1429 94.3113 22.1421 94.0306 22.1597L93.6258 25.2535Z" fill="#2887D7"></path><path d="M115.839 27.3617C115.839 29.9756 113.95 33.4541 109.555 33.4541C106.055 33.4541 102.992 31.3027 102.992 27.1606C102.992 23.6218 105.836 21.2492 109.078 21.2492C111.902 21.2492 115.839 23.4409 115.839 27.3617ZM109.555 25.0896C108.421 25.0896 107.347 26.0145 107.347 27.4019C107.347 28.3067 107.825 29.7343 109.495 29.7343C111.524 29.7343 111.603 27.784 111.603 27.4019C111.603 26.2558 110.967 25.0896 109.555 25.0896Z" fill="#0068C7"></path><path d="M129.855 24.7963C129.855 27.4102 127.966 30.8887 123.571 30.8887C120.07 30.8887 117.008 28.7372 117.008 24.5952C117.008 21.0564 119.852 18.6838 123.093 18.6838C125.917 18.6838 129.855 20.8754 129.855 24.7963ZM123.571 22.5242C122.437 22.5242 121.363 23.4491 121.363 24.8365C121.363 25.7413 121.84 27.1689 123.511 27.1689C125.539 27.1689 125.619 25.2185 125.619 24.8365C125.619 23.6904 124.983 22.5242 123.571 22.5242Z" fill="#2887D7"></path><path d="M133.98 20.9021C136.616 21.3004 139.948 23.1053 139.601 25.4518C139.49 26.2075 138.964 27.0429 137.912 27.9004C137.041 28.6227 136.69 28.9559 136.64 29.294C136.582 29.6917 136.975 30.1578 138.155 30.3361L138.234 30.348C138.49 30.3867 138.694 30.4989 138.662 30.7177C138.653 30.7773 138.644 30.837 138.593 30.9106L137.367 33.0836C137.176 33.4207 136.968 33.4705 136.201 33.3546C133.624 32.9652 130.595 31.2874 130.927 29.0403C131.039 28.2847 131.519 27.4831 132.532 26.6196L133.151 26.1033C133.479 25.7869 133.782 25.5074 133.82 25.2489C133.891 24.7716 133.422 24.1316 132.265 23.9363C132.029 23.9006 131.641 23.8014 131.685 23.5031C131.691 23.4633 131.72 23.4067 131.748 23.35L132.955 21.174C133.123 20.8538 133.331 20.804 133.764 20.8694L133.98 20.9021Z" fill="#0068C7"></path><path d="M148.571 22.4505C148.605 22.5044 148.638 22.5584 148.647 22.5975C148.698 22.8125 148.485 22.9471 148.295 23.0965C147.533 23.6745 147.621 25.0799 148.044 26.859L149.306 26.4906L149.345 26.4812C149.557 26.4295 149.754 26.5679 149.82 26.7588L150.822 29.9479C150.878 30.1826 150.75 30.4203 150.538 30.472L149.222 30.8741C149.475 31.6811 149.737 32.5273 149.971 33.3391C150.05 33.6714 149.942 33.9045 149.618 34.0039L146.005 35.067L145.927 35.0858C145.424 35.2079 145.298 34.8458 145.222 34.6159C144.965 33.7892 144.736 32.997 144.521 32.2635L143.302 32.6421C143.07 32.6984 142.854 32.5647 142.783 32.3543L141.781 29.1652C141.729 28.9501 141.857 28.7123 142.065 28.6412L143.497 28.2109C142.419 23.2409 143.093 21.2576 146.058 19.8761C146.111 19.8425 146.169 19.8284 146.227 19.8143C146.517 19.7439 146.738 19.8972 146.981 20.2311L148.571 22.4505Z" fill="#2887D7"></path><path d="M136.54 37.2145C136.467 37.2145 136.395 37.2423 136.34 37.2979C136.23 37.4091 136.23 37.5895 136.34 37.7007L136.919 38.2857C137.029 38.3969 137.207 38.3969 137.317 38.2857C137.427 38.1745 137.427 37.9942 137.317 37.8829L136.739 37.2979C136.684 37.2423 136.612 37.2145 136.54 37.2145Z" fill="#00B2FF"></path><path d="M136.008 35.0215C135.936 35.0215 135.864 35.0493 135.809 35.1049C135.699 35.2161 135.699 35.3965 135.809 35.5077L137.738 37.4576C137.848 37.5688 138.026 37.5688 138.136 37.4576C138.246 37.3464 138.246 37.166 138.136 37.0548L136.207 35.1049C136.152 35.0493 136.08 35.0215 136.008 35.0215Z" fill="#00B2FF"></path><path d="M137.79 35.1693C137.717 35.1693 137.645 35.1971 137.59 35.2527C137.48 35.3639 137.48 35.5443 137.59 35.6556L138.555 36.6305C138.665 36.7417 138.843 36.7416 138.953 36.6305C139.063 36.5193 139.063 36.3389 138.953 36.2277L137.989 35.2527C137.934 35.1971 137.862 35.1693 137.79 35.1693Z" fill="#00B2FF"></path><path d="M141.599 37.3057C141.527 37.3057 141.455 37.3335 141.4 37.3891L138.067 40.7589C137.957 40.8701 137.957 41.0505 138.067 41.1617C138.177 41.2729 138.355 41.2729 138.465 41.1617L141.798 37.7919C141.908 37.6807 141.908 37.5003 141.798 37.3891C141.743 37.3335 141.671 37.3057 141.599 37.3057Z" fill="#00B2FF"></path><path d="M143.042 40.6591C142.578 40.6591 142.142 40.8418 141.814 41.1736C141.485 41.5052 141.305 41.9463 141.305 42.4155C141.305 42.8847 141.485 43.3257 141.814 43.6574C142.142 43.9891 142.578 44.1719 143.042 44.1719C143.506 44.1719 143.942 43.9891 144.27 43.6573C144.598 43.3258 144.779 42.8847 144.779 42.4155C144.779 41.9463 144.598 41.5053 144.27 41.1737C144.27 41.1736 144.27 41.1736 144.27 41.1735C143.942 40.8418 143.506 40.6591 143.042 40.6591ZM143.042 43.6022C142.728 43.6022 142.434 43.4787 142.212 43.2546C141.99 43.0304 141.868 42.7325 141.868 42.4154C141.868 42.0984 141.99 41.8004 142.212 41.5764C142.434 41.3522 142.728 41.2287 143.042 41.2287C143.355 41.2287 143.65 41.3522 143.872 41.5763C143.872 41.5763 143.872 41.5764 143.872 41.5764C144.094 41.8004 144.216 42.0984 144.216 42.4154C144.216 42.7325 144.094 43.0304 143.872 43.2545C143.65 43.4787 143.355 43.6022 143.042 43.6022Z" fill="#00B2FF"></path><path d="M138.242 38.4436C138.191 38.4436 138.14 38.4576 138.093 38.4869C137.961 38.5703 137.921 38.746 138.004 38.8794L138.863 40.2694C138.945 40.4028 139.119 40.4434 139.251 40.36C139.383 40.2766 139.423 40.1009 139.341 39.9675L138.482 38.5776C138.428 38.4911 138.336 38.4436 138.242 38.4436Z" fill="#00B2FF"></path><path d="M138.821 37.8616C138.749 37.8616 138.677 37.8894 138.622 37.945C138.512 38.0562 138.512 38.2366 138.622 38.3478L139.739 39.4772C139.849 39.5883 140.027 39.5883 140.137 39.4772C140.247 39.3659 140.247 39.1856 140.137 39.0744L139.02 37.945C138.965 37.8894 138.893 37.8616 138.821 37.8616Z" fill="#00B2FF"></path><path d="M139.391 37.2796C139.297 37.2796 139.206 37.3271 139.152 37.4135C139.07 37.5469 139.11 37.7227 139.242 37.806L140.617 38.6744C140.749 38.7578 140.922 38.7172 141.005 38.5838C141.087 38.4504 141.047 38.2747 140.915 38.1913L139.54 37.3229C139.494 37.2936 139.442 37.2796 139.391 37.2796Z" fill="#00B2FF"></path><path d="M140.719 43.5646C140.654 43.5646 140.589 43.5873 140.536 43.6334C140.418 43.7359 140.404 43.9157 140.506 44.0351L141.455 45.1527C141.557 45.272 141.734 45.2857 141.852 45.1832C141.97 45.0807 141.984 44.9008 141.883 44.7815L140.933 43.6639C140.877 43.5983 140.798 43.5646 140.719 43.5646Z" fill="#00B2FF"></path><path d="M140.188 36.8344C139.894 36.8344 139.604 36.9507 139.39 37.168L139.204 37.3554C139.202 37.3579 139.199 37.3604 139.197 37.3629L137.853 38.7214C137.543 39.0349 137.441 39.5056 137.592 39.9208L138.007 41.0587C138.018 41.0906 138.035 41.1201 138.057 41.1459L140.512 44.0346C140.614 44.1539 140.791 44.1675 140.909 44.065C141.027 43.9625 141.041 43.7827 140.94 43.6633L138.518 40.8137L138.121 39.724C138.045 39.5164 138.097 39.2809 138.252 39.1242L139.588 37.7732C139.59 37.7707 139.593 37.7683 139.595 37.7657L139.788 37.5706C139.943 37.4138 140.176 37.3622 140.381 37.4387L141.459 37.84L145.383 41.2487C145.501 41.3512 145.679 41.3375 145.781 41.2182C145.882 41.0989 145.868 40.9191 145.75 40.8166L141.788 37.3745C141.762 37.3524 141.733 37.335 141.701 37.3232L140.576 36.9043C140.45 36.8572 140.319 36.8344 140.188 36.8344Z" fill="#00B2FF"></path><path d="M145.563 40.7483C145.491 40.7483 145.419 40.7761 145.364 40.8317C145.254 40.9429 145.254 41.1233 145.364 41.2345C145.924 41.8009 146.34 42.4682 146.6 43.2182C146.93 44.1727 146.984 45.1906 146.756 46.1727C145.784 46.4031 144.778 46.3493 143.834 46.0151C143.092 45.7524 142.432 45.3321 141.872 44.7657C141.762 44.6545 141.583 44.6545 141.473 44.7657C141.363 44.877 141.363 45.0573 141.473 45.1686C142.094 45.7959 142.825 46.2616 143.647 46.5527C144.75 46.9432 145.931 46.9882 147.061 46.6826C147.158 46.6563 147.234 46.5794 147.26 46.4811C147.562 45.3385 147.518 44.1451 147.132 43.0298C146.844 42.1986 146.383 41.459 145.763 40.8317C145.708 40.7761 145.636 40.7483 145.563 40.7483Z" fill="#00B2FF"></path><path d="M146.868 42.8391C146.796 42.8391 146.724 42.8669 146.668 42.9225L143.543 46.0821C143.433 46.1934 143.433 46.3737 143.543 46.485C143.654 46.5962 143.832 46.5961 143.942 46.485L147.067 43.3254C147.177 43.2141 147.177 43.0338 147.067 42.9225C147.012 42.8669 146.94 42.8391 146.868 42.8391Z" fill="#00B2FF"></path><path d="M138.268 40.6758C138.244 40.6758 138.221 40.6788 138.198 40.6846L136.329 41.1654C136.244 41.1874 136.173 41.2487 136.139 41.331C136.105 41.4133 136.111 41.507 136.155 41.5843C136.374 41.9664 136.644 42.3208 136.957 42.6376C137.951 43.6425 139.327 44.1883 140.732 44.134C140.883 44.129 141.004 44.0035 141.004 43.8493C141.004 43.6921 140.878 43.5645 140.723 43.5645H140.722C140.719 43.5645 140.715 43.5646 140.712 43.5647C139.463 43.6131 138.239 43.1282 137.356 42.2349C137.167 42.0444 136.997 41.8386 136.846 41.6204L138.331 41.2382C138.456 41.209 138.549 41.0958 138.549 40.9607C138.549 40.8034 138.423 40.6758 138.268 40.6758Z" fill="#00B2FF"></path><path d="M142.078 35.4162C142.041 35.4162 142.004 35.4236 141.969 35.4385C141.887 35.4731 141.827 35.5443 141.805 35.6307L141.329 37.5203C141.291 37.6727 141.382 37.8278 141.533 37.8666C141.683 37.9055 141.837 37.8133 141.875 37.6608L142.255 36.1527C142.471 36.3054 142.674 36.478 142.863 36.6684C143.746 37.5616 144.226 38.7985 144.178 40.0617C144.172 40.2189 144.293 40.3512 144.449 40.3572C144.604 40.3638 144.735 40.2406 144.741 40.0834C144.795 38.6622 144.255 37.2706 143.261 36.2655C142.948 35.949 142.597 35.6762 142.219 35.4546C142.176 35.4291 142.127 35.4162 142.078 35.4162Z" fill="#00B2FF"></path><path d="M57.4529 46.0104C58.1561 46.0104 58.7261 46.5867 58.7261 47.2977C58.7261 48.0086 58.1561 48.585 57.4529 48.585C56.7497 48.585 56.1797 48.0086 56.1797 47.2977C56.1797 46.5867 56.7497 46.0104 57.4529 46.0104Z" stroke="#00B2FF" stroke-width="2.45935"></path><path d="M54.6092 40.7516C55.3123 40.7516 55.8824 41.3279 55.8824 42.0389C55.8824 42.7498 55.3123 43.3262 54.6092 43.3262C53.906 43.3262 53.3359 42.7498 53.3359 42.0389C53.3359 41.3279 53.906 40.7516 54.6092 40.7516Z" stroke="#00B2FF" stroke-width="2.45935"></path><path d="M60.2732 40.7965C60.9764 40.7965 61.5465 41.3728 61.5465 42.0838C61.5465 42.7948 60.9764 43.3711 60.2732 43.3711C59.57 43.3711 59 42.7948 59 42.0838C59 41.3728 59.57 40.7965 60.2732 40.7965Z" stroke="#00B2FF" stroke-width="2.45935"></path><path d="M60.7185 35.65C61.4217 35.65 61.9918 36.2264 61.9918 36.9373C61.9918 37.6483 61.4217 38.2246 60.7185 38.2246C60.0154 38.2246 59.4453 37.6483 59.4453 36.9373C59.4453 36.2264 60.0154 35.65 60.7185 35.65Z" stroke="#00B2FF" stroke-width="2.45935"></path><path d="M64.7889 37.9899C65.492 37.9899 66.0621 38.5662 66.0621 39.2772C66.0621 39.9881 65.492 40.5645 64.7889 40.5645C64.0857 40.5645 63.5156 39.9881 63.5156 39.2772C63.5156 38.5662 64.0857 37.9899 64.7889 37.9899Z" stroke="#00B2FF" stroke-width="2.45935"></path><path d="M56.6485 46.2764L55.0469 43.3193" stroke="#00B2FF" stroke-width="2.45935"></path><path d="M58.25 46.0654L59.782 43.2492" stroke="#00B2FF" stroke-width="2.45935"></path><path d="M60.3397 40.5742L59.9219 37.8284" stroke="#00B2FF" stroke-width="2.45935"></path><path d="M61.4531 41.6299L64.2386 40.2217" stroke="#00B2FF" stroke-width="2.45935"></path><path d="M148.172 18.2627L150.047 14.693" stroke="#00B2FF" stroke-width="2.64567" stroke-linecap="round"></path><path d="M149.406 19.0879L151.327 16.5389" stroke="#00B2FF" stroke-width="2.64567" stroke-linecap="round"></path><path d="M150.492 19.999L153.311 17.933" stroke="#00B2FF" stroke-width="2.64567" stroke-linecap="round"></path><path d="M73.4051 40.7614C73.4735 40.4566 73.6477 40.3536 73.9228 40.3349C73.9803 40.3365 74.0457 40.3396 74.1125 40.3345C74.4997 40.3353 74.8815 40.3684 75.2497 40.4325C77.5231 40.8282 79.2946 42.4283 78.9046 44.7187C78.8274 45.1719 78.6619 45.6597 78.3935 46.1713C77.696 47.5082 76.1785 47.8524 74.8257 47.6169C74.3534 47.5347 73.8935 47.3796 73.5007 47.1696L72.2323 46.8738C72.1283 46.8557 72.0648 46.7446 72.0827 46.6394L73.4051 40.7614ZM74.3872 45.6906C74.5631 45.7712 74.7577 45.8384 74.9498 45.8719C76.4307 46.1297 76.7116 44.5286 76.735 44.391C76.91 43.3631 76.256 42.5576 75.3274 42.396C75.2634 42.3848 75.1993 42.3737 75.1339 42.3706L74.3872 45.6906Z" fill="#999999"></path><path d="M87.073 39.5891C87.1936 39.5715 87.2995 39.6804 87.3238 39.793L88.4985 46.0521L88.5008 46.0683C88.5136 46.1577 88.4816 46.2786 88.3301 46.309L86.7419 46.6243L86.7259 46.6267C86.6133 46.6431 86.4754 46.5969 86.4374 46.561C85.9761 46.1472 85.0494 45.0629 84.2263 44.0134C84.2067 43.9913 84.1963 43.9762 84.1802 43.9786C84.1642 43.981 84.1573 43.9903 84.1447 44.017C83.6495 45.2594 83.066 46.5729 82.7395 47.1019C82.7132 47.1472 82.5617 47.2358 82.4492 47.2522L82.4331 47.2546L80.8366 47.3968C80.6816 47.4029 80.6159 47.288 80.6031 47.1986L80.0164 40.8619C80.0001 40.7481 80.0711 40.6133 80.1997 40.5945L80.2078 40.5933L81.7699 40.4976C81.949 40.4879 82.086 40.6422 82.0988 40.7316L82.1 40.7397L82.2325 44.2469L82.2406 44.3038C82.2476 44.3526 82.2603 44.3839 82.2764 44.3816C82.3005 44.378 82.3211 44.3501 82.3475 44.3048C82.47 44.0711 82.8824 42.7661 83.1773 41.9596C83.2116 41.855 83.2745 41.7213 83.4192 41.7001L84.2519 41.6115C84.4299 41.5938 84.5346 41.6946 84.5761 41.755C85.077 42.4451 85.8453 43.6272 86.019 43.8092C86.057 43.8452 86.0846 43.866 86.1007 43.8637C86.1248 43.8601 86.1282 43.8264 86.1201 43.7695L86.1142 43.7289L85.234 40.273L85.2328 40.2649C85.22 40.1755 85.2748 39.9849 85.4505 39.9509L87.065 39.5903L87.073 39.5891Z" fill="#999999"></path><path d="M94.0951 40.1651C94.1991 40.1832 94.264 40.2862 94.2555 40.3847L94.0731 42.0363C94.0552 42.1415 93.9586 42.2247 93.8452 42.2133L91.9635 41.9857L91.4349 46.4936C91.4156 46.6069 91.3204 46.682 91.2149 46.672L89.5441 46.4645L89.5281 46.4617C89.4241 46.4436 89.3578 46.3487 89.3663 46.2502L90.1132 39.8803C90.1325 39.767 90.2277 39.6919 90.3331 39.7019L92.0119 39.9108L92.0439 39.9164L94.079 40.1623L94.0951 40.1651Z" fill="#999999"></path><path d="M100.869 41.9334C100.849 42.0041 100.771 42.0695 100.691 42.085C100.651 42.0927 100.6 42.0858 100.562 42.0598C99.9568 41.6168 99.2792 41.489 98.7208 41.5973C97.8832 41.7597 97.2772 42.4458 97.4578 43.3975C97.6444 44.3815 98.3461 44.8977 99.3512 44.7028C99.8059 44.6146 100.227 44.3909 100.443 44.1816C100.464 44.1609 100.495 44.1466 100.526 44.1404C100.614 44.1234 100.708 44.1805 100.744 44.2404L101.432 45.4281C101.445 45.4508 101.448 45.4669 101.453 45.4911C101.468 45.5717 101.445 45.6682 101.397 45.7193C100.971 46.1363 100.333 46.4356 99.6233 46.5733C97.7327 46.9399 95.7138 46.1941 95.2502 43.7503C94.8616 41.7017 96.2038 39.9698 98.0306 39.6155C98.9878 39.4299 100.076 39.6287 101.122 40.3457C101.226 40.4174 101.272 40.4838 101.286 40.5564C101.296 40.6129 101.283 40.674 101.262 40.7366L100.869 41.9334Z" fill="#999999"></path><path d="M113.562 45.3033C113.99 44.7398 114.789 44.6341 115.347 45.0674C115.906 45.5006 116.013 46.3087 115.586 46.8722C115.159 47.4357 114.36 47.5414 113.801 47.1081C113.242 46.6749 113.135 45.8669 113.562 45.3033Z" stroke="#00B2FF" stroke-width="2.45935"></path><path d="M107.711 44.3834C108.138 43.8199 108.937 43.7142 109.496 44.1475C110.055 44.5807 110.161 45.3887 109.734 45.9523C109.307 46.5158 108.508 46.6215 107.949 46.1882C107.39 45.755 107.284 44.9469 107.711 44.3834Z" stroke="#00B2FF" stroke-width="2.45935"></path><path d="M111.195 39.8639C111.622 39.3003 112.422 39.1947 112.98 39.6279C113.539 40.0612 113.646 40.8692 113.219 41.4327C112.792 41.9963 111.992 42.1019 111.434 41.6687C110.875 41.2355 110.768 40.4274 111.195 39.8639Z" stroke="#00B2FF" stroke-width="2.45935"></path><path d="M107.422 36.3766C107.849 35.813 108.648 35.7074 109.207 36.1406C109.766 36.5739 109.872 37.3819 109.445 37.9454C109.018 38.509 108.219 38.6146 107.66 38.1814C107.101 37.7481 106.995 36.9401 107.422 36.3766Z" stroke="#00B2FF" stroke-width="2.45935"></path><path d="M111.734 34.5377C112.161 33.9742 112.961 33.8685 113.519 34.3017C114.078 34.735 114.185 35.543 113.758 36.1066C113.331 36.6701 112.531 36.7757 111.973 36.3425C111.414 35.9093 111.307 35.1012 111.734 34.5377Z" stroke="#00B2FF" stroke-width="2.45935"></path><path d="M113.285 46.1115L109.989 45.5933" stroke="#00B2FF" stroke-width="2.45935"></path><path d="M114.102 44.6953L112.819 41.7526" stroke="#00B2FF" stroke-width="2.45935"></path><path d="M111.058 39.6792L108.649 38.3423" stroke="#00B2FF" stroke-width="2.45935"></path><path d="M112.562 39.4268L113.148 36.335" stroke="#00B2FF" stroke-width="2.45935"></path><path d="M122.168 41.1172C122.818 41.3952 123.124 42.1503 122.852 42.8038C122.58 43.4573 121.833 43.7617 121.183 43.4838C120.534 43.2058 120.228 42.4507 120.5 41.7972C120.772 41.1437 121.519 40.8393 122.168 41.1172Z" stroke="#00B2FF" stroke-width="2.45935"></path><path d="M121.575 35.1544C122.224 35.4323 122.53 36.1874 122.258 36.8409C121.986 37.4944 121.239 37.7989 120.59 37.5209C119.94 37.2429 119.635 36.4878 119.907 35.8343C120.179 35.1808 120.925 34.8764 121.575 35.1544Z" stroke="#00B2FF" stroke-width="2.45935"></path><path d="M126.778 37.4249C127.427 37.7028 127.733 38.4579 127.461 39.1114C127.189 39.7649 126.442 40.0694 125.793 39.7914C125.144 39.5134 124.838 38.7583 125.11 38.1048C125.382 37.4513 126.128 37.1469 126.778 37.4249Z" stroke="#00B2FF" stroke-width="2.45935"></path><path d="M129.161 32.8585C129.81 33.1364 130.116 33.8915 129.844 34.545C129.572 35.1985 128.825 35.503 128.176 35.225C127.526 34.947 127.22 34.1919 127.492 33.5384C127.764 32.8849 128.511 32.5805 129.161 32.8585Z" stroke="#00B2FF" stroke-width="2.45935"></path><path d="M132.012 36.6124C132.661 36.8903 132.967 37.6454 132.695 38.2989C132.423 38.9524 131.677 39.2569 131.027 38.9789C130.378 38.7009 130.072 37.9458 130.344 37.2923C130.616 36.6388 131.363 36.3344 132.012 36.6124Z" stroke="#00B2FF" stroke-width="2.45935"></path><path d="M121.332 41.0448L120.984 37.6907" stroke="#00B2FF" stroke-width="2.45935"></path><path d="M122.883 41.4766L125.377 39.4918" stroke="#00B2FF" stroke-width="2.45935"></path><path d="M126.926 37.2426L127.593 34.5486" stroke="#00B2FF" stroke-width="2.45935"></path><path d="M127.547 38.6484L130.655 38.4554" stroke="#00B2FF" stroke-width="2.45935"></path><path d="M51.6641 18.623L48.0951 16.8031" stroke="#00B2FF" stroke-width="2.64567" stroke-linecap="round"></path><path d="M52.4531 17.3545L49.8926 15.4671" stroke="#00B2FF" stroke-width="2.64567" stroke-linecap="round"></path><path d="M53.3281 16.2422L51.2264 13.4369" stroke="#00B2FF" stroke-width="2.64567" stroke-linecap="round"></path><path d="M52.1641 35.1602L49.4485 38.1186" stroke="#00B2FF" stroke-width="2.64567" stroke-linecap="round"></path><path d="M51.1797 34.043L48.6784 36.0031" stroke="#00B2FF" stroke-width="2.64567" stroke-linecap="round"></path><path d="M50.3594 32.8838L47.112 34.1427" stroke="#00B2FF" stroke-width="2.64567" stroke-linecap="round"></path></g><defs><clipPath id="clip0_22021_5291"><rect width="112" height="39" fill="white" transform="matrix(1 0 0 -1 44 50)"></rect></clipPath></defs></svg> 