<?xml version="1.0" encoding="UTF-8"?> <svg xmlns="http://www.w3.org/2000/svg" width="200" height="60" viewBox="0 0 200 60" fill="none"><rect x="0.5" y="0.5" width="199" height="59" rx="7.5" stroke="#D9D9D9"></rect><g clip-path="url(#clip0_22021_5381)"><path fill-rule="evenodd" clip-rule="evenodd" d="M51.9115 15.0078H34.0234V26.4984L51.9115 15.0078Z" fill="#EF4927"></path><path fill-rule="evenodd" clip-rule="evenodd" d="M41.4688 27.2888L51.9139 20.4941V29.3463L41.4688 27.2888Z" fill="#76B644"></path><path d="M165.983 38.8778H163.044L163.167 23.7846C162.984 24.5657 162.822 25.1293 162.682 25.4706L157.349 38.8778H155.307L149.961 25.5732C149.812 25.1804 149.651 24.5828 149.485 23.7846H149.438C149.502 24.5019 149.536 25.6713 149.536 27.2977V38.8778H146.797V20.9463H150.969L155.664 32.8893C156.022 33.807 156.256 34.4901 156.366 34.9382H156.426C156.736 33.9949 156.983 33.2947 157.174 32.838L161.959 20.9463H165.983V38.8778ZM155.307 38.8778L148.102 20.9463H150.969L156.426 34.9382L155.307 38.8778ZM164.482 20.9463L157.349 38.8778L156.411 34.9003L161.959 20.9463H164.482Z" fill="#4B4B4D"></path><path d="M132.008 38.7973V20.9658H137.646C139.363 20.9658 140.725 21.3436 141.727 22.0948C142.729 22.8505 143.233 23.8352 143.233 25.0448C143.233 26.0551 142.945 26.9338 142.378 27.6807C141.807 28.4279 141.016 28.9584 140.01 29.2726V29.3234C141.232 29.4636 142.209 29.9178 142.941 30.6818C143.672 31.4501 144.036 32.4476 144.036 33.674C144.036 35.1981 143.44 36.4331 142.243 37.3798C141.042 38.3263 139.532 38.7973 137.705 38.7973H132.008ZM134.945 23.5572L134.95 27.4489C134.952 28.1383 134.891 28.4305 135.765 28.4236L136.85 28.4151C137.874 28.4071 138.678 28.173 139.261 27.685C139.845 27.2012 140.132 26.5136 140.132 25.6264C140.132 24.1026 139.118 23.3386 137.087 23.3386H135.207C135.014 23.3386 134.944 23.3571 134.945 23.5572ZM134.943 31.1009V35.4986C134.943 36.2549 134.931 36.4331 135.763 36.4331H137.459C138.555 36.4331 139.405 36.1785 140.005 35.669C140.602 35.1599 140.902 34.4594 140.902 33.5637C140.902 31.7132 139.625 30.7878 137.075 30.7878H135.278C135.028 30.7878 134.943 30.8491 134.943 31.1009Z" fill="#4B4B4D"></path><path d="M129.223 37.3487C127.432 38.3256 125.44 38.814 123.243 38.814C120.703 38.814 118.646 38.0217 117.071 36.4333C115.496 34.8488 114.711 32.7468 114.711 30.132C114.711 27.4639 115.57 25.2719 117.292 23.56C119.014 21.8483 121.202 20.9902 123.853 20.9902C125.657 20.9902 127.191 21.2428 128.451 21.7449C128.692 21.8409 128.671 21.787 128.671 22.0356V24.7793C127.354 23.9007 125.783 23.4574 123.963 23.4574C122.131 23.4574 120.634 24.0649 119.464 25.2719C118.294 26.4827 117.705 28.0509 117.705 29.9761C117.705 31.9546 118.212 33.5146 119.218 34.6475C120.225 35.7847 121.591 36.3512 123.317 36.3512C124.363 36.3512 125.284 36.171 126.081 35.8138C126.466 35.641 126.384 35.6838 126.384 35.2601V31.8745C126.384 31.6014 126.249 31.5649 125.995 31.5649H122.765V29.6594C122.765 29.2403 122.853 29.1593 123.301 29.1593H129.223V37.3487Z" fill="#4B4B4D"></path><path d="M112.817 38.4278C112.262 38.6907 111.538 38.8221 110.646 38.8221C108.17 38.8221 106.933 37.6313 106.933 35.2451V28.006H105.867V25.7307H106.933L106.93 22.4944C106.93 22.292 106.991 22.1709 107.187 22.0839L109.821 20.9131L109.825 25.7307H112.874V28.006H109.825V34.4087C109.825 35.1684 109.961 35.7104 110.233 36.0348C110.51 36.3592 110.965 36.5215 111.607 36.5215C112.096 36.5215 112.517 36.3806 112.874 36.099V38.334C112.874 38.4096 112.885 38.3953 112.817 38.4278Z" fill="#4B4B4D"></path><path d="M104.042 38.8785H101.154V31.8739C101.154 29.3429 100.308 28.0752 98.6235 28.0752C97.7773 28.0752 97.0626 28.4421 96.48 29.1765C95.8974 29.9063 95.6082 30.8453 95.6082 31.9894V38.8785H92.7031V21.0872C92.7031 20.9264 92.7972 20.9461 92.9332 20.9461H95.4957C95.563 20.9461 95.6082 20.9355 95.6082 21.0188V28.1989H95.659C96.6203 26.5811 98.0025 25.7743 99.7932 25.7743C102.626 25.7743 104.042 27.5116 104.042 30.9862V38.8785Z" fill="#4B4B4D"></path><path d="M90.9049 37.4946C90.9049 42.1942 88.5486 44.5462 83.8406 44.5462C82.1774 44.5462 80.7273 44.2688 79.4897 43.7095L81.8621 42.05C82.3831 42.2675 82.9438 42.2584 83.4662 42.2584C86.4988 42.2584 88.0129 40.76 88.0129 37.7677V36.3677H87.9617C87.009 38.0027 85.5717 38.818 83.6534 38.818C82.101 38.818 80.8463 38.2501 79.8936 37.1106C78.9451 35.9751 78.4688 34.4471 78.4688 32.5305C78.4688 30.3536 78.9792 28.6248 79.9998 27.3399C81.025 26.0553 82.4285 25.415 84.2147 25.415C85.8989 25.415 87.1493 26.1064 87.9617 27.4893H88.0129V26.0756C88.0129 25.7728 88.0594 25.7138 88.3608 25.7138H90.5217C90.8719 25.7138 90.9049 25.687 90.9049 26.0388V37.4946ZM88.0384 32.6542V30.9896C88.0384 30.089 87.7407 29.3207 87.1493 28.6847C86.5539 28.0444 85.814 27.7285 84.9251 27.7285C83.8278 27.7285 82.9685 28.1339 82.3518 28.945C81.7309 29.7603 81.4204 30.8958 81.4204 32.3554C81.4204 33.6146 81.7181 34.6178 82.3138 35.3733C82.9049 36.1288 83.696 36.5042 84.674 36.5042C85.6694 36.5042 86.4818 36.1459 87.1027 35.4243C87.7279 34.7031 88.0384 33.7811 88.0384 32.6542Z" fill="#4B4B4D"></path><path d="M76.6108 38.8784H73.7188V26.2874C73.7188 26.1209 73.754 26.0733 73.9383 26.0733H76.3284C76.5832 26.0733 76.6108 26.0653 76.6108 26.3028V38.8784Z" fill="#4B4B4D"></path><path d="M75.1349 23.6815C74.7438 23.6815 74.4089 23.5541 74.1305 23.2995C73.8484 23.0412 73.7109 22.7193 73.7109 22.3231C73.7109 21.9305 73.8484 21.6015 74.1305 21.3398C74.4089 21.0781 74.7438 20.9473 75.1349 20.9473C75.5403 20.9473 75.8857 21.0781 76.1675 21.3398C76.4496 21.6015 76.5904 21.9305 76.5904 22.3231C76.5904 22.6983 76.4496 23.0164 76.1675 23.2818C75.8857 23.5472 75.5403 23.6815 75.1349 23.6815Z" fill="#4B4B4D"></path><path d="M62 38.8779V21.1211C62 20.9421 62.0781 20.9464 62.2326 20.9464H64.746C64.894 20.9464 64.9644 20.9381 64.9644 21.1097V36.2662C64.9644 36.382 65.0071 36.3637 65.1008 36.3637H71.6566C71.7819 36.3637 71.8926 36.3492 71.8926 36.5197V38.8756L62 38.8779Z" fill="#4B4B4D"></path><path fill-rule="evenodd" clip-rule="evenodd" d="M34.0234 44.8656H51.9115V33.375L34.0234 44.8656Z" fill="#FCB518"></path><path fill-rule="evenodd" clip-rule="evenodd" d="M44.4683 32.6463L34.0234 39.441V30.5889L44.4683 32.6463Z" fill="#1B9AD7"></path></g><defs><clipPath id="clip0_22021_5381"><rect width="132" height="30" fill="white" transform="translate(34 15)"></rect></clipPath></defs></svg> 