<?xml version="1.0" encoding="UTF-8"?> <svg xmlns="http://www.w3.org/2000/svg" width="201" height="60" viewBox="0 0 201 60" fill="none"><rect x="1.5" y="0.5" width="199" height="59" rx="7.5" stroke="#D9D9D9"></rect><path d="M76.7068 24.8849H72.0407V37.8681H69.4696V24.8849H64.8516V22.7705H76.7068V24.8849Z" fill="#425066"></path><path d="M79.8017 38.0745C78.221 38.0745 76.9398 37.5719 75.958 36.5666C74.9762 35.5613 74.4854 34.2218 74.4854 32.5481V32.2429C74.4677 31.2059 74.6868 30.1787 75.1256 29.2411C75.5209 28.3968 76.1454 27.6832 76.9264 27.1834C77.7002 26.6922 78.5978 26.4367 79.5116 26.4476C81.0242 26.4476 82.1927 26.9347 83.0171 27.9091C83.8415 28.8834 84.2523 30.2606 84.2496 32.0407V33.0514H76.9985C77.0745 33.9799 77.3813 34.713 77.9189 35.2507C78.1845 35.5177 78.5012 35.7271 78.8498 35.8662C79.1983 36.0052 79.5712 36.0709 79.9458 36.0592C80.4873 36.0703 81.0235 35.9498 81.5093 35.7078C81.995 35.4657 82.4161 35.1093 82.737 34.6685L84.0816 35.9642C83.6364 36.6355 83.0215 37.1743 82.3008 37.5247C81.5212 37.9013 80.6657 38.0895 79.8017 38.0745ZM79.5036 28.4629C79.1914 28.4517 78.8806 28.511 78.594 28.6366C78.3074 28.7621 78.0521 28.9507 77.8468 29.1886C77.424 29.671 77.1572 30.3448 77.0465 31.21H81.7986V31.03C81.7439 30.1878 81.5218 29.5504 81.1323 29.1178C80.9242 28.8956 80.6707 28.722 80.3894 28.6088C80.1082 28.4957 79.8058 28.4459 79.5036 28.4629Z" fill="#425066"></path><path d="M88.4995 26.6484L88.5715 27.9441C88.9593 27.4588 89.4529 27.0706 90.0139 26.8101C90.5748 26.5495 91.1878 26.4236 91.8049 26.4422C94.1179 26.4422 95.2944 27.7797 95.3345 30.4546V37.869H92.8474V30.5921C92.8474 29.8786 92.6953 29.353 92.3912 29.0094C92.087 28.6657 91.5908 28.4959 90.8965 28.4959C89.8921 28.4959 89.1431 28.9561 88.6495 29.8765V37.861H86.1484V26.6484H88.4995Z" fill="#425066"></path><path d="M103.428 34.82C103.437 34.6148 103.391 34.4111 103.294 34.2303C103.198 34.0496 103.055 33.8985 102.88 33.7931C102.513 33.556 101.906 33.3484 101.057 33.1706C100.325 33.0285 99.6112 32.7985 98.9325 32.4853C97.6879 31.8776 97.0657 30.9962 97.0657 29.8414C97.0615 29.3699 97.1682 28.9042 97.3769 28.4826C97.5856 28.0609 97.8904 27.6952 98.2662 27.4157C99.0745 26.7648 100.101 26.4401 101.346 26.4414C102.671 26.4414 103.744 26.7729 104.563 27.4359C104.957 27.7371 105.274 28.1283 105.489 28.5774C105.704 29.0264 105.81 29.5206 105.799 30.0192H103.306C103.312 29.7897 103.267 29.5619 103.174 29.3521C103.082 29.1424 102.945 28.956 102.772 28.8064C102.377 28.4707 101.871 28.2981 101.356 28.3233C100.88 28.3017 100.41 28.4365 100.017 28.7074C99.8527 28.8214 99.7191 28.975 99.6283 29.1543C99.5374 29.3336 99.4922 29.5329 99.4967 29.7342C99.4917 29.9143 99.5339 30.0924 99.6189 30.2507C99.7039 30.409 99.8288 30.5419 99.9809 30.6358C100.301 30.85 100.951 31.0663 101.93 31.2846C102.729 31.4405 103.504 31.7021 104.235 32.0628C104.734 32.3108 105.162 32.6839 105.477 33.1463C105.757 33.607 105.896 34.1405 105.878 34.6805C105.886 35.1609 105.777 35.636 105.56 36.0637C105.344 36.4914 105.026 36.8585 104.635 37.1324C103.809 37.7591 102.725 38.0717 101.382 38.0704C100.545 38.0858 99.7152 37.916 98.9505 37.5731C98.2833 37.2783 97.7084 36.8051 97.2878 36.2046C96.8989 35.6571 96.6891 35.0006 96.6875 34.3268H99.1106C99.1129 34.5916 99.174 34.8526 99.2893 35.0904C99.4046 35.3283 99.5712 35.537 99.7769 35.7013C100.252 36.0427 100.827 36.2128 101.41 36.1844C102.066 36.1844 102.565 36.0577 102.908 35.8044C103.069 35.6973 103.202 35.5511 103.292 35.3791C103.383 35.2072 103.43 35.0149 103.428 34.82Z" fill="#425066"></path><path d="M107.165 32.1538C107.148 31.126 107.37 30.1085 107.811 29.1824C108.207 28.34 108.838 27.6336 109.628 27.1509C110.443 26.6686 111.373 26.4231 112.317 26.4414C113.817 26.4414 115.032 26.9285 115.965 27.9028C116.897 28.8771 117.402 30.1695 117.479 31.7798L117.489 32.3721C117.506 33.3964 117.29 34.411 116.857 35.3374C116.466 36.1748 115.84 36.8777 115.056 37.3588C114.234 37.8462 113.294 38.0939 112.341 38.0744C110.774 38.0744 109.52 37.5475 108.58 36.4937C107.639 35.4398 107.169 34.035 107.169 32.2791L107.165 32.1538ZM109.654 32.3721C109.654 33.527 109.89 34.4305 110.362 35.0827C110.584 35.3993 110.88 35.6549 111.224 35.8261C111.569 35.9974 111.95 36.0788 112.333 36.0631C112.717 36.0785 113.099 35.9953 113.442 35.8214C113.786 35.6475 114.08 35.3885 114.298 35.0686C114.768 34.4029 115.002 33.4313 115.002 32.1538C115.002 31.0191 114.761 30.1203 114.278 29.4573C114.052 29.1498 113.758 28.8998 113.42 28.7271C113.081 28.5544 112.708 28.4638 112.329 28.4624C111.95 28.461 111.575 28.549 111.236 28.7192C110.896 28.8894 110.601 29.1373 110.372 29.4431C109.893 30.0967 109.654 31.073 109.654 32.3721Z" fill="#425066"></path><path d="M124.998 28.95C124.663 28.8945 124.324 28.8668 123.984 28.8672C122.839 28.8672 122.069 29.3099 121.673 30.1952V37.8764H119.18V26.6477H121.561L121.623 27.903C122.224 26.9287 123.059 26.4415 124.126 26.4415C124.426 26.4323 124.726 26.481 125.008 26.585L124.998 28.95Z" fill="#425066"></path><path d="M135.436 31.4705H129.421V37.8681H126.82V22.7705H136.314V24.8849H129.421V29.3743H135.436V31.4705Z" fill="#425066"></path><path d="M140.354 37.8681H137.859V22.7422H140.354V37.8681Z" fill="#425066"></path><path d="M142.18 32.1538C142.165 31.1261 142.386 30.1088 142.827 29.1824C143.223 28.3404 143.854 27.6342 144.644 27.1509C145.458 26.6686 146.389 26.4231 147.333 26.4414C148.831 26.4414 150.047 26.9285 150.982 27.9028C151.917 28.8771 152.422 30.1695 152.497 31.7798V32.3721C152.519 33.3956 152.306 34.4103 151.877 35.3374C151.487 36.1757 150.86 36.8789 150.076 37.3588C149.255 37.8464 148.315 38.0942 147.363 38.0744C145.794 38.0744 144.539 37.5475 143.599 36.4937C142.659 35.4398 142.192 34.035 142.198 32.2791L142.18 32.1538ZM144.674 32.3721C144.674 33.527 144.91 34.4305 145.382 35.0827C145.613 35.3889 145.912 35.6367 146.254 35.8069C146.596 35.977 146.972 36.0649 147.353 36.0635C147.734 36.0621 148.11 35.9716 148.451 35.799C148.792 35.6264 149.088 35.3764 149.318 35.0686C149.786 34.4029 150.02 33.4313 150.02 32.1538C150.02 31.0191 149.779 30.1203 149.298 29.4573C149.077 29.1396 148.782 28.8823 148.439 28.7087C148.095 28.5351 147.715 28.4506 147.331 28.4628C146.952 28.4514 146.577 28.535 146.239 28.7061C145.901 28.8772 145.61 29.1304 145.392 29.4431C144.913 30.0967 144.674 31.073 144.674 32.3721Z" fill="#425066"></path><path d="M163.763 34.3934L165.528 26.6475H167.961L164.933 37.8681H162.882L160.501 30.1626L158.16 37.8681H156.105L153.078 26.6475H155.511L157.312 34.3105L159.591 26.6475H161.47L163.763 34.3934Z" fill="#425066"></path><mask id="mask0_22021_5411" style="mask-type:luminance" maskUnits="userSpaceOnUse" x="45" y="18" width="12" height="24"><path d="M56.0238 23.8244L45.9688 18.002V41.8668L49.9858 39.5043V32.7895L53.0196 34.5693L53.0025 29.9754L49.9858 28.2288V25.5616L56.0379 29.1053L56.0238 23.8244Z" fill="white"></path></mask><g mask="url(#mask0_22021_5411)"><path d="M58.771 17.9141H34.0781V41.8957H58.771V17.9141Z" fill="url(#paint0_linear_22021_5411)"></path></g><mask id="mask1_22021_5411" style="mask-type:luminance" maskUnits="userSpaceOnUse" x="35" y="18" width="11" height="24"><path d="M35.0218 23.8244L45.0769 18.002V41.8668L41.0599 39.5043V25.5616L35.0078 29.1053L35.0218 23.8244Z" fill="white"></path></mask><g mask="url(#mask1_22021_5411)"><path d="M58.6148 17.9141H33.9219V41.8957H58.6148V17.9141Z" fill="url(#paint1_linear_22021_5411)"></path></g><defs><linearGradient id="paint0_linear_22021_5411" x1="34.0781" y1="29.9049" x2="58.771" y2="29.9049" gradientUnits="userSpaceOnUse"><stop stop-color="#FF6F00"></stop><stop offset="1" stop-color="#FFA800"></stop></linearGradient><linearGradient id="paint1_linear_22021_5411" x1="33.9219" y1="29.9049" x2="58.6148" y2="29.9049" gradientUnits="userSpaceOnUse"><stop stop-color="#FF6F00"></stop><stop offset="1" stop-color="#FFA800"></stop></linearGradient></defs></svg> 