<?xml version="1.0" encoding="UTF-8"?> <svg xmlns="http://www.w3.org/2000/svg" width="200" height="60" viewBox="0 0 200 60" fill="none"><rect x="0.5" y="0.5" width="199" height="59" rx="7.5" stroke="#D9D9D9"></rect><path d="M69.7891 35.1567V24.3981H72.6271V28.4036H75.8282V24.3981H78.6662V35.1567H75.8282V30.8864H72.6271V35.1567H69.7891ZM83.3132 35.3553C82.4112 35.3553 81.7567 35.0519 81.3497 34.445C80.9426 33.827 80.7392 33.005 80.7392 31.9788V26.881H83.5772V31.6147C83.5772 32.1444 83.6433 32.4974 83.7752 32.6739C83.9182 32.8505 84.1272 32.9388 84.4023 32.9388C84.6662 32.9388 84.8863 32.8836 85.0623 32.7733C85.2383 32.663 85.4143 32.4753 85.5903 32.2105V26.881H88.4283V35.1567H86.1182L85.9202 34.0644H85.8542C85.5243 34.4616 85.1557 34.7761 84.7487 35.0078C84.3528 35.2395 83.8743 35.3553 83.3132 35.3553ZM93.3473 38.5664C92.7204 38.5664 92.1428 38.4947 91.6148 38.3513C91.0869 38.2188 90.6634 38.0036 90.3444 37.7056C90.0363 37.4078 89.8824 37.0105 89.8824 36.5139C89.8824 35.863 90.2673 35.3333 91.0374 34.925V34.8588C90.8264 34.7024 90.6425 34.5122 90.4928 34.2961C90.3498 34.0644 90.2783 33.7774 90.2783 33.4353C90.2783 33.1485 90.3609 32.867 90.5258 32.5913C90.7018 32.3153 90.9274 32.0781 91.2023 31.8795V31.8133C90.9053 31.6147 90.6414 31.3333 90.4104 30.9691C90.1903 30.5939 90.0803 30.1691 90.0803 29.6947C90.0803 29.0105 90.2453 28.4478 90.5754 28.0064C90.9163 27.5539 91.3564 27.223 91.8953 27.0133C92.4344 26.7927 93.0064 26.6822 93.6113 26.6822C94.0953 26.6822 94.5353 26.7485 94.9313 26.881H98.0004V28.9333H96.8124C96.8453 29.0327 96.8729 29.1595 96.8948 29.3139C96.9279 29.4685 96.9444 29.6285 96.9444 29.7939C96.9444 30.445 96.7959 30.9747 96.4989 31.383C96.2018 31.7802 95.8004 32.0727 95.2944 32.2602C94.7883 32.4478 94.2274 32.5416 93.6113 32.5416C93.3364 32.5416 93.0283 32.503 92.6874 32.4256C92.5553 32.547 92.4894 32.707 92.4894 32.9056C92.4894 33.0822 92.5774 33.2091 92.7534 33.2864C92.9403 33.3636 93.2374 33.4022 93.6444 33.4022H94.8819C95.9159 33.4022 96.7134 33.5733 97.2744 33.9153C97.8464 34.2464 98.1324 34.7925 98.1324 35.5539C98.1324 36.1499 97.9344 36.6739 97.5384 37.1264C97.1534 37.5788 96.6034 37.9319 95.8883 38.1856C95.1733 38.4395 94.3263 38.5664 93.3473 38.5664ZM93.6113 30.8533C93.8754 30.8533 94.0898 30.7595 94.2548 30.5719C94.4199 30.3844 94.5023 30.0919 94.5023 29.6947C94.5023 29.3085 94.4199 29.027 94.2548 28.8505C94.0898 28.663 93.8754 28.5692 93.6113 28.5692C93.3473 28.5692 93.1328 28.663 92.9679 28.8505C92.8028 29.027 92.7204 29.3085 92.7204 29.6947C92.7204 30.0919 92.8028 30.3844 92.9679 30.5719C93.1328 30.7595 93.3473 30.8533 93.6113 30.8533ZM93.8093 36.8119C94.2713 36.8119 94.6564 36.7402 94.9643 36.5967C95.2724 36.4642 95.4263 36.2822 95.4263 36.0505C95.4263 35.8299 95.3274 35.6919 95.1294 35.6367C94.9423 35.5816 94.6729 35.5539 94.3208 35.5539H93.6774C93.3473 35.5539 93.0944 35.543 92.9184 35.5208C92.7534 35.5099 92.6104 35.4878 92.4894 35.4547C92.2914 35.6533 92.1923 35.8519 92.1923 36.0505C92.1923 36.3153 92.3408 36.5085 92.6378 36.6299C92.9459 36.7513 93.3364 36.8119 93.8093 36.8119ZM102.355 38.5664C101.728 38.5664 101.15 38.4947 100.622 38.3513C100.094 38.2188 99.6707 38.0036 99.3517 37.7056C99.0437 37.4078 98.8897 37.0105 98.8897 36.5139C98.8897 35.863 99.2747 35.3333 100.045 34.925V34.8588C99.8338 34.7024 99.6498 34.5122 99.5003 34.2961C99.3571 34.0644 99.2856 33.7774 99.2856 33.4353C99.2856 33.1485 99.3682 32.867 99.5331 32.5913C99.7092 32.3153 99.9347 32.0781 100.21 31.8795V31.8133C99.9127 31.6147 99.6487 31.3333 99.4177 30.9691C99.1976 30.5939 99.0877 30.1691 99.0877 29.6947C99.0877 29.0105 99.2528 28.4478 99.5827 28.0064C99.9236 27.5539 100.364 27.223 100.903 27.0133C101.442 26.7927 102.014 26.6822 102.619 26.6822C103.103 26.6822 103.543 26.7485 103.939 26.881H107.008V28.9333H105.82C105.853 29.0327 105.88 29.1595 105.902 29.3139C105.935 29.4685 105.952 29.6285 105.952 29.7939C105.952 30.445 105.803 30.9747 105.506 31.383C105.209 31.7802 104.808 32.0727 104.302 32.2602C103.796 32.4478 103.235 32.5416 102.619 32.5416C102.344 32.5416 102.036 32.503 101.695 32.4256C101.563 32.547 101.497 32.707 101.497 32.9056C101.497 33.0822 101.585 33.2091 101.761 33.2864C101.948 33.3636 102.245 33.4022 102.652 33.4022H103.889C104.923 33.4022 105.721 33.5733 106.282 33.9153C106.854 34.2464 107.14 34.7925 107.14 35.5539C107.14 36.1499 106.942 36.6739 106.546 37.1264C106.161 37.5788 105.611 37.9319 104.896 38.1856C104.181 38.4395 103.334 38.5664 102.355 38.5664ZM102.619 30.8533C102.883 30.8533 103.097 30.7595 103.262 30.5719C103.427 30.3844 103.51 30.0919 103.51 29.6947C103.51 29.3085 103.427 29.027 103.262 28.8505C103.097 28.663 102.883 28.5692 102.619 28.5692C102.355 28.5692 102.14 28.663 101.975 28.8505C101.81 29.027 101.728 29.3085 101.728 29.6947C101.728 30.0919 101.81 30.3844 101.975 30.5719C102.14 30.7595 102.355 30.8533 102.619 30.8533ZM102.817 36.8119C103.279 36.8119 103.664 36.7402 103.972 36.5967C104.28 36.4642 104.434 36.2822 104.434 36.0505C104.434 35.8299 104.335 35.6919 104.137 35.6367C103.95 35.5816 103.68 35.5539 103.328 35.5539H102.685C102.355 35.5539 102.102 35.543 101.926 35.5208C101.761 35.5099 101.618 35.4878 101.497 35.4547C101.299 35.6533 101.2 35.8519 101.2 36.0505C101.2 36.3153 101.348 36.5085 101.645 36.6299C101.953 36.7513 102.344 36.8119 102.817 36.8119ZM108.359 35.1567V26.881H111.197V35.1567H108.359ZM109.778 25.8547C109.316 25.8547 108.942 25.7278 108.656 25.4741C108.37 25.2092 108.227 24.8616 108.227 24.4313C108.227 24.0009 108.37 23.6587 108.656 23.405C108.942 23.1402 109.316 23.0078 109.778 23.0078C110.24 23.0078 110.614 23.1402 110.9 23.405C111.186 23.6587 111.329 24.0009 111.329 24.4313C111.329 24.8616 111.186 25.2092 110.9 25.4741C110.614 25.7278 110.24 25.8547 109.778 25.8547ZM113.113 35.1567V26.881H115.423L115.621 27.8739H115.687C116.016 27.5539 116.391 27.2781 116.809 27.0464C117.238 26.8036 117.733 26.6822 118.294 26.6822C119.207 26.6822 119.861 26.9913 120.257 27.6092C120.664 28.2161 120.868 29.0327 120.868 30.0588V35.1567H118.03V30.423C118.03 29.8933 117.964 29.5402 117.832 29.3636C117.7 29.187 117.491 29.0988 117.204 29.0988C116.941 29.0988 116.721 29.1539 116.545 29.2644C116.369 29.3747 116.171 29.5292 115.951 29.7278V35.1567H113.113ZM125.719 38.5664C125.092 38.5664 124.515 38.4947 123.987 38.3513C123.459 38.2188 123.035 38.0036 122.716 37.7056C122.408 37.4078 122.254 37.0105 122.254 36.5139C122.254 35.863 122.639 35.3333 123.409 34.925V34.8588C123.198 34.7024 123.014 34.5122 122.865 34.2961C122.722 34.0644 122.65 33.7774 122.65 33.4353C122.65 33.1485 122.733 32.867 122.898 32.5913C123.074 32.3153 123.299 32.0781 123.574 31.8795V31.8133C123.277 31.6147 123.013 31.3333 122.782 30.9691C122.562 30.5939 122.452 30.1691 122.452 29.6947C122.452 29.0105 122.617 28.4478 122.947 28.0064C123.288 27.5539 123.728 27.223 124.267 27.0133C124.806 26.7927 125.378 26.6822 125.983 26.6822C126.467 26.6822 126.907 26.7485 127.303 26.881H130.372V28.9333H129.184C129.217 29.0327 129.245 29.1595 129.267 29.3139C129.3 29.4685 129.316 29.6285 129.316 29.7939C129.316 30.445 129.168 30.9747 128.871 31.383C128.574 31.7802 128.172 32.0727 127.666 32.2602C127.16 32.4478 126.599 32.5416 125.983 32.5416C125.708 32.5416 125.4 32.503 125.059 32.4256C124.927 32.547 124.861 32.707 124.861 32.9056C124.861 33.0822 124.949 33.2091 125.125 33.2864C125.312 33.3636 125.609 33.4022 126.016 33.4022H127.254C128.288 33.4022 129.085 33.5733 129.646 33.9153C130.218 34.2464 130.504 34.7925 130.504 35.5539C130.504 36.1499 130.306 36.6739 129.91 37.1264C129.525 37.5788 128.975 37.9319 128.26 38.1856C127.545 38.4395 126.698 38.5664 125.719 38.5664ZM125.983 30.8533C126.247 30.8533 126.462 30.7595 126.627 30.5719C126.792 30.3844 126.874 30.0919 126.874 29.6947C126.874 29.3085 126.792 29.027 126.627 28.8505C126.462 28.663 126.247 28.5692 125.983 28.5692C125.719 28.5692 125.505 28.663 125.34 28.8505C125.175 29.027 125.092 29.3085 125.092 29.6947C125.092 30.0919 125.175 30.3844 125.34 30.5719C125.505 30.7595 125.719 30.8533 125.983 30.8533ZM126.181 36.8119C126.643 36.8119 127.028 36.7402 127.336 36.5967C127.644 36.4642 127.798 36.2822 127.798 36.0505C127.798 35.8299 127.699 35.6919 127.501 35.6367C127.314 35.5816 127.045 35.5539 126.693 35.5539H126.049C125.719 35.5539 125.466 35.543 125.29 35.5208C125.125 35.5099 124.982 35.4878 124.861 35.4547C124.663 35.6533 124.564 35.8519 124.564 36.0505C124.564 36.3153 124.713 36.5085 125.01 36.6299C125.318 36.7513 125.708 36.8119 126.181 36.8119ZM135.258 35.1567V24.3981H142.254V26.7816H138.096V28.8339H141.66V31.2174H138.096V35.1567H135.258ZM145.357 35.3553C144.84 35.3553 144.395 35.2395 144.021 35.0078C143.664 34.7716 143.374 34.4466 143.179 34.0644C142.981 33.6781 142.882 33.2588 142.882 32.8064C142.882 31.9456 143.234 31.2727 143.938 30.787C144.642 30.2905 145.786 29.9595 147.37 29.7939C147.304 29.2202 146.919 28.9333 146.215 28.9333C145.918 28.9333 145.605 28.9939 145.275 29.1153C144.945 29.2256 144.565 29.3967 144.136 29.6285L143.146 27.7747C143.729 27.4216 144.318 27.1513 144.912 26.9636C145.516 26.7763 146.144 26.6814 146.776 26.6822C147.854 26.6822 148.696 26.9913 149.301 27.6092C149.906 28.2161 150.208 29.1981 150.208 30.5553V35.1567H147.898L147.7 34.3622H147.634C147.304 34.6602 146.952 34.903 146.578 35.0905C146.215 35.267 145.808 35.3553 145.357 35.3553ZM146.347 33.1705C146.578 33.1705 146.771 33.1208 146.925 33.0216C147.079 32.9113 147.227 32.7733 147.37 32.6078V31.4822C146.699 31.5816 146.232 31.7305 145.968 31.9291C145.715 32.1278 145.588 32.343 145.588 32.5747C145.588 32.9719 145.841 33.1705 146.347 33.1705ZM155.788 35.3553C155.007 35.3553 154.303 35.1842 153.676 34.8422C153.049 34.5002 152.548 34.0091 152.174 33.3691C151.811 32.7181 151.63 31.9347 151.63 31.0188C151.63 30.103 151.833 29.325 152.24 28.685C152.658 28.0339 153.203 27.5375 153.874 27.1953C154.545 26.8533 155.271 26.6822 156.052 26.6822C156.547 26.6822 156.992 26.7595 157.388 26.9139C157.795 27.0685 158.153 27.2781 158.461 27.543L157.141 29.3636C156.965 29.2092 156.805 29.1044 156.662 29.0492C156.52 28.9941 156.369 28.9661 156.217 28.9664C155.689 28.9664 155.276 29.1539 154.979 29.5292C154.682 29.8933 154.534 30.3899 154.534 31.0188C154.534 31.6478 154.688 32.1499 154.996 32.525C155.304 32.8891 155.678 33.0713 156.118 33.0713C156.349 33.0713 156.574 33.0216 156.794 32.9222C157.02 32.8152 157.235 32.6877 157.438 32.5416L158.527 34.3953C158.12 34.7595 157.669 35.0133 157.174 35.1567C156.679 35.2891 156.217 35.3553 155.788 35.3553ZM163.17 35.3553C162.367 35.3553 161.641 35.1842 160.992 34.8422C160.354 34.5002 159.848 34.0091 159.474 33.3691C159.1 32.7181 158.913 31.9347 158.913 31.0188C158.913 30.125 159.1 29.3581 159.474 28.7181C159.859 28.067 160.354 27.565 160.959 27.2119C161.564 26.8588 162.202 26.6822 162.873 26.6822C163.687 26.6822 164.358 26.8644 164.886 27.2285C165.425 27.5816 165.821 28.0616 166.074 28.6685C166.338 29.2753 166.47 29.9485 166.47 30.6878C166.47 30.9305 166.453 31.1678 166.42 31.3995C166.398 31.6202 166.376 31.7802 166.354 31.8795H161.652C161.784 32.3761 162.02 32.7236 162.361 32.9222C162.702 33.1099 163.104 33.2036 163.566 33.2036C164.094 33.2036 164.655 33.0381 165.249 32.707L166.173 34.3953C165.733 34.7042 165.238 34.9416 164.688 35.107C164.138 35.2725 163.632 35.3553 163.17 35.3553ZM161.619 30.0256H164.061C164.061 29.7056 163.978 29.4299 163.813 29.1981C163.659 28.9553 163.368 28.8339 162.939 28.8339C162.631 28.8339 162.356 28.9278 162.114 29.1153C161.872 29.303 161.707 29.6064 161.619 30.0256Z" fill="#000B1B"></path><path d="M63.6893 36.7332C63.6057 36.4165 63.4702 36.116 63.2884 35.8438C63.3273 35.7004 63.3569 35.5548 63.3769 35.4077C63.5058 34.474 63.1832 33.6191 62.575 32.9576C62.2456 32.5963 61.8924 32.3579 61.5184 32.2115C61.7639 31.1579 61.8882 30.0796 61.8889 28.9976C61.8889 28.5035 61.861 28.0195 61.8142 27.5426C61.7898 27.3045 61.7604 27.0668 61.7259 26.8299C61.6188 26.131 61.4599 25.4411 61.2505 24.7659C61.1133 24.3222 60.9546 23.8855 60.775 23.4574C60.5057 22.8234 60.1912 22.2096 59.834 21.6209C59.5996 21.2292 59.3445 20.8505 59.0695 20.4863C58.9348 20.3024 58.7945 20.1229 58.6484 19.9479C58.2156 19.4203 57.7456 18.9249 57.2413 18.4655C57.0741 18.3111 56.9019 18.1621 56.7251 18.0185C56.5512 17.8729 56.3733 17.732 56.1918 17.5959C55.8265 17.3232 55.449 17.0673 55.0605 16.8291C52.9139 15.5213 50.3966 14.7715 47.7061 14.7715C39.8727 14.7715 33.5236 21.1405 33.5236 28.9982C33.5234 30.0938 33.6499 31.1857 33.9007 32.252C33.5643 32.3985 33.2417 32.6268 32.9428 32.9573C32.3347 33.6184 32.0119 34.4702 32.141 35.4038C32.1605 35.5523 32.1901 35.6991 32.2294 35.8435C32.0477 36.1159 31.9122 36.4165 31.8284 36.7332C31.6415 37.4459 31.703 38.0885 31.9406 38.6515C31.6825 39.3876 31.747 40.1713 32.0833 40.8527C32.3278 41.3504 32.6778 41.7352 33.1091 42.0795C33.622 42.4884 34.2641 42.836 35.0387 43.1693C35.9627 43.5646 37.0904 43.936 37.6034 44.0723C38.9283 44.4165 40.1987 44.6346 41.4864 44.6451C43.3206 44.6623 44.9004 44.2295 46.0315 43.1221C46.5871 43.1904 47.1463 43.2246 47.7061 43.2245C48.2976 43.2232 48.8884 43.1857 49.4753 43.1126C50.6037 44.227 52.1895 44.6637 54.0306 44.646C55.318 44.6359 56.5884 44.4177 57.9099 44.073C58.4262 43.9368 59.5537 43.5654 60.4781 43.1702C61.2527 42.8362 61.8946 42.4887 62.4111 42.0802C62.8392 41.7362 63.1889 41.3512 63.4336 40.8535C63.7733 40.1721 63.8345 39.3884 63.5797 38.6523C63.815 38.0893 63.8761 37.4452 63.6893 36.7332ZM62.3748 38.6038C62.6351 39.0993 62.6518 39.6591 62.422 40.1805C62.0737 40.9709 61.2086 41.5932 59.5284 42.2615C58.4837 42.6773 57.5269 42.9429 57.5184 42.9454C56.1365 43.3049 54.8867 43.4874 53.8047 43.4874C52.0132 43.4874 50.6801 42.9916 49.8346 42.0123C48.4049 42.2565 46.9449 42.2648 45.5125 42.0368C44.6661 42.9999 43.3404 43.4874 41.5639 43.4874C40.4819 43.4874 39.2322 43.3049 37.8502 42.9454C37.8417 42.9429 36.8854 42.6773 35.8403 42.2615C34.1601 41.5932 33.2948 40.9712 32.9467 40.1805C32.7169 39.6591 32.7336 39.0993 32.9939 38.6038C33.018 38.5579 33.0437 38.5129 33.0713 38.4696C32.9153 38.2346 32.8106 37.969 32.7642 37.6905C32.7178 37.4121 32.7308 37.1268 32.8021 36.8537C32.9055 36.4596 33.1192 36.1318 33.4093 35.8963C33.2696 35.666 33.1779 35.4098 33.1398 35.1429C33.0563 34.5626 33.2482 33.983 33.6803 33.5107C34.0166 33.143 34.4921 32.9407 35.0188 32.9407H35.0328C34.6358 31.6643 34.4345 30.3348 34.4358 28.9977C34.4358 21.7052 40.3294 15.793 47.5999 15.793C54.8706 15.793 60.7641 21.7048 60.7641 28.9977C60.765 30.3384 60.5624 31.6713 60.163 32.9507C60.2265 32.9445 60.2889 32.9412 60.3499 32.9412C60.8764 32.9412 61.3521 33.1434 61.6884 33.511C62.1202 33.983 62.3125 34.563 62.2289 35.1432C62.1907 35.4101 62.0991 35.6665 61.9594 35.8968C62.2494 36.1321 62.4632 36.4599 62.5666 36.8541C62.6378 37.1273 62.6507 37.4124 62.6043 37.691C62.5579 37.9695 62.4533 38.2349 62.2974 38.4701C62.325 38.5129 62.351 38.5579 62.3748 38.6038Z" fill="white"></path><path d="M62.2949 38.4698C62.4508 38.2347 62.5554 37.9692 62.6018 37.6908C62.6482 37.4122 62.6353 37.127 62.5641 36.8539C62.4606 36.4598 62.2469 36.132 61.9569 35.8966C62.0965 35.6663 62.1882 35.41 62.2264 35.1431C62.3099 34.5628 62.118 33.9833 61.6859 33.5109C61.3496 33.1433 60.8739 32.9409 60.3474 32.9409C60.2862 32.9409 60.224 32.9441 60.1605 32.9505C60.5594 31.6711 60.7617 30.3381 60.7605 28.9977C60.7605 21.7053 54.8669 15.793 47.5969 15.793C40.327 15.793 34.4328 21.7047 34.4328 28.9977C34.4315 30.3347 34.6328 31.6642 35.0298 32.9406H35.0158C34.4893 32.9406 34.0138 33.143 33.6775 33.5106C33.2457 33.9827 33.0535 34.5625 33.137 35.1428C33.1751 35.4097 33.2668 35.6659 33.4064 35.8962C33.1164 36.1317 32.9027 36.4595 32.7994 36.8538C32.7281 37.1269 32.7153 37.4122 32.7617 37.6908C32.8082 37.9692 32.9128 38.2348 33.0689 38.4698C33.041 38.5131 33.0155 38.5581 32.9915 38.6041C32.7314 39.0995 32.7145 39.6594 32.9443 40.1808C33.2924 40.9709 34.1577 41.5936 35.8379 42.2617C36.8826 42.6775 37.8395 42.9431 37.8479 42.9456C39.2298 43.3052 40.4795 43.4878 41.5614 43.4878C43.3381 43.4878 44.6636 43.0003 45.5102 42.037C46.9426 42.265 48.4025 42.2567 49.8323 42.0125C50.6776 42.9919 52.0108 43.4878 53.8024 43.4878C54.8843 43.4878 56.1342 43.3052 57.5161 42.9456C57.5245 42.9431 58.4809 42.6775 59.5261 42.2617C61.2063 41.5936 62.0716 40.9709 62.4197 40.1808C62.6494 39.6594 62.6328 39.0995 62.3725 38.6041C62.3487 38.5577 62.3225 38.5128 62.2949 38.4698ZM44.9044 40.5292C44.8315 40.6572 44.7535 40.782 44.6703 40.9034C44.4515 41.2248 44.1636 41.4703 43.8297 41.653C43.1909 42.0022 42.3826 42.1244 41.5613 42.1244C40.2641 42.1244 38.9342 41.8198 38.1887 41.6258C38.1521 41.6163 33.6195 40.332 34.1934 39.2389C34.2899 39.0552 34.449 38.9817 34.649 38.9817C35.4569 38.9817 36.9281 40.1886 37.5605 40.1886C37.7016 40.1886 37.8013 40.1281 37.842 39.9811C38.1114 39.0116 33.7465 38.6041 34.1141 37.2003C34.179 36.9519 34.3549 36.8511 34.6024 36.8511C35.6705 36.8509 38.068 38.7353 38.5694 38.7353C38.6078 38.7353 38.6354 38.7241 38.6504 38.7003L38.6569 38.6895C38.8921 38.2997 38.7572 38.0163 37.1448 37.0256L36.9899 36.9311C35.2158 35.8538 33.9703 35.2056 34.6787 34.4322C34.7602 34.3428 34.8756 34.3033 35.0159 34.3033C35.1825 34.3033 35.3839 34.3592 35.6057 34.4528C36.5427 34.8492 37.8415 35.9303 38.384 36.4019C38.544 36.5416 38.6382 36.6269 38.6382 36.6269C38.6382 36.6269 39.3251 37.3434 39.7406 37.3434C39.8362 37.3434 39.9172 37.3058 39.9722 37.2122C40.2669 36.7141 37.2365 34.4106 37.0656 33.4603C36.9499 32.8162 37.1469 32.4902 37.5116 32.4902C37.6848 32.4902 37.8963 32.5641 38.1298 32.7127C38.8541 33.1739 40.2525 35.5845 40.7645 36.5222C40.9362 36.8366 41.2292 36.9694 41.4932 36.9694C42.017 36.9694 42.4265 36.447 41.5412 35.7833C40.2105 34.7844 40.6775 33.1519 41.3125 33.0514C41.3396 33.0472 41.367 33.045 41.3943 33.0448C41.9719 33.0448 42.2267 34.0433 42.2267 34.0433C42.2267 34.0433 42.9733 35.9242 44.256 37.2098C45.42 38.3769 45.5825 39.3347 44.9044 40.5292ZM49.0522 40.7495L48.9857 40.7575L48.8722 40.7706C48.8125 40.7767 48.7529 40.7827 48.6929 40.7883L48.6343 40.7936L48.5811 40.7981L48.5052 40.8042C48.4773 40.8063 48.4494 40.8084 48.4216 40.8102L48.3381 40.8158L48.3197 40.8169L48.254 40.8208L48.2261 40.8222L48.1482 40.8261L48.0577 40.8298L47.9754 40.8327L47.9206 40.8342H47.8929C47.8758 40.8342 47.8588 40.8352 47.8416 40.8353H47.8144C47.7973 40.8353 47.7803 40.8353 47.7631 40.8363L47.6935 40.837H47.596C47.5195 40.837 47.4434 40.8363 47.3672 40.8348L47.3055 40.8334C47.2881 40.8334 47.2705 40.8325 47.253 40.832L47.1878 40.83L47.1064 40.8269L47.0334 40.8238L47.0144 40.823L46.9448 40.8192C46.9254 40.8181 46.9061 40.8172 46.887 40.8159L46.842 40.8133C46.7854 40.8097 46.7289 40.8056 46.6723 40.8013L46.6131 40.7966L46.5384 40.7902L46.451 40.782C46.4022 40.7775 46.3535 40.7725 46.3047 40.767H46.3024C47.0142 39.1741 46.6543 37.6864 45.2158 36.2445C44.2725 35.2995 43.6448 33.9037 43.5147 33.5973C43.2511 32.6903 42.5535 31.682 41.3951 31.682C41.2971 31.6822 41.1994 31.69 41.1027 31.7053C40.5951 31.7853 40.1515 32.0784 39.8349 32.5194C39.493 32.0927 39.1605 31.7534 38.8599 31.5617C38.4066 31.2736 37.9544 31.1273 37.5136 31.1273C36.9638 31.1273 36.472 31.3539 36.1293 31.7648L36.1208 31.7753L36.1015 31.6939L36.1007 31.6905C36.0355 31.4108 35.9808 31.1286 35.9365 30.8448C35.9365 30.8428 35.9365 30.8409 35.9356 30.8391L35.9259 30.7748C35.9207 30.7402 35.9156 30.7053 35.9106 30.6706C35.9066 30.6417 35.9025 30.6128 35.8988 30.5841C35.8951 30.5553 35.891 30.5264 35.8876 30.4975C35.8839 30.4684 35.8804 30.4395 35.877 30.4106C35.8737 30.3831 35.8706 30.3556 35.8675 30.3281L35.8666 30.3211C35.8525 30.1942 35.8405 30.0672 35.8304 29.94L35.825 29.8664C35.8234 29.8462 35.822 29.8259 35.8208 29.8055C35.8208 29.8008 35.8201 29.7959 35.8198 29.7916L35.8147 29.71C35.8128 29.6805 35.8114 29.6509 35.8099 29.6214C35.8083 29.592 35.8068 29.5625 35.8055 29.5328L35.8024 29.4555L35.8015 29.432L35.7991 29.3605L35.7974 29.2998C35.7974 29.2756 35.7963 29.2512 35.7959 29.227L35.7946 29.1506C35.7943 29.1252 35.7946 29.0998 35.794 29.0744C35.7932 29.0487 35.794 29.0233 35.794 28.9977C35.794 22.4583 41.0792 17.1565 47.5988 17.1565C54.1184 17.1565 59.4035 22.458 59.4035 28.9977V29.1506C59.4035 29.1761 59.4029 29.2017 59.4022 29.227C59.4022 29.2483 59.4015 29.2691 59.4008 29.2903C59.4008 29.3092 59.4001 29.328 59.3993 29.3462C59.3993 29.3702 59.3979 29.3939 59.3971 29.4178V29.4198C59.3951 29.4717 59.3929 29.5236 59.3907 29.5755L59.3898 29.5927L59.3857 29.6702L59.382 29.7316C59.3733 29.877 59.3619 30.0225 59.348 30.1677V30.1697C59.3455 30.1969 59.3427 30.2242 59.3398 30.2514C59.3329 30.3147 59.3259 30.378 59.3189 30.4413L59.311 30.5048L59.3011 30.5795C59.2977 30.6069 59.294 30.6341 59.2901 30.6612C59.2859 30.6917 59.2814 30.722 59.277 30.7523L59.2661 30.8239L59.2533 30.9052C59.249 30.9322 59.2446 30.9591 59.2395 30.9861C59.2342 31.013 59.2301 31.0398 59.2254 31.0669C59.2161 31.1206 59.2064 31.1742 59.196 31.2278C59.1753 31.3345 59.1536 31.4409 59.1307 31.5472C59.125 31.5736 59.1191 31.6002 59.113 31.6266C58.7807 31.3027 58.3409 31.1262 57.8555 31.1262C57.4152 31.1262 56.9625 31.2723 56.5094 31.5606C56.2086 31.7522 55.8764 32.0916 55.5342 32.5183C55.2172 32.0772 54.7736 31.7842 54.2666 31.7041C54.1698 31.6889 54.072 31.6811 53.974 31.6809C52.8153 31.6809 52.1181 32.6892 51.8544 33.5963C51.7237 33.9027 51.096 35.2983 50.1516 36.2448C48.7142 37.682 48.3515 39.1631 49.0522 40.7495ZM61.2392 37.5608L61.2345 37.5747C61.2312 37.5836 61.2279 37.5925 61.2244 37.6012C61.2187 37.6145 61.2128 37.6275 61.2066 37.6405C61.1915 37.6714 61.1744 37.7014 61.1555 37.7302C61.1295 37.7691 61.101 37.8063 61.07 37.8413C61.0628 37.8494 61.056 37.8573 61.0479 37.8653C61.037 37.8773 61.0253 37.8891 61.0138 37.9008C60.8039 38.1094 60.4843 38.292 60.123 38.4598C60.082 38.4784 60.0406 38.497 59.9985 38.5156L59.9568 38.5342C59.9289 38.5466 59.9011 38.5589 59.8719 38.5709C59.8434 38.5831 59.8147 38.5952 59.786 38.607L59.6991 38.6431C59.4958 38.727 59.2876 38.8069 59.0843 38.8859L58.9976 38.9197L58.9116 38.9534C58.8546 38.9758 58.7982 38.9981 58.7426 39.0205L58.6599 39.0539L58.5787 39.0873L58.5387 39.1041C58.5122 39.1153 58.486 39.1262 58.4602 39.1375C57.8624 39.3947 57.4325 39.6564 57.5228 39.9813C57.5253 39.9905 57.5281 39.9992 57.5312 40.0077C57.5393 40.0317 57.5504 40.0545 57.5641 40.0758C57.5722 40.0886 57.5815 40.1006 57.592 40.1116C57.6982 40.2222 57.8915 40.2047 58.1353 40.1169C58.155 40.1097 58.1753 40.102 58.1957 40.0939C58.2097 40.0886 58.2236 40.083 58.2376 40.0773L58.2586 40.0684C58.3144 40.0447 58.3734 40.0183 58.4339 39.9894C58.449 39.9823 58.4642 39.9755 58.4795 39.9673C58.7775 39.8213 59.1153 39.6242 59.4505 39.445C59.5019 39.417 59.5535 39.3903 59.6047 39.3638C59.6885 39.3202 59.7731 39.2781 59.8585 39.238C60.1759 39.0883 60.4742 38.982 60.7142 38.982C60.8267 38.982 60.9262 39.0052 61.0089 39.0583L61.0228 39.0675C61.0647 39.0972 61.1011 39.1336 61.1309 39.1755C61.1377 39.1853 61.1449 39.1955 61.151 39.2059C61.1575 39.2167 61.1638 39.2278 61.1697 39.2391C61.2882 39.4647 61.189 39.6986 60.9569 39.9278C60.734 40.1478 60.3873 40.3636 59.993 40.5634C59.9639 40.5783 59.9345 40.5931 59.9049 40.6075C58.7318 41.1853 57.196 41.6205 57.1745 41.6259C56.7652 41.7323 56.1798 41.8722 55.5205 41.9767L55.4228 41.9919L55.4069 41.9942C55.2574 42.0167 55.1074 42.0366 54.9571 42.0537L54.9432 42.0552C54.6698 42.0864 54.3895 42.1091 54.1086 42.1186H54.1044C54.0035 42.1223 53.9027 42.1241 53.8018 42.1241H53.6856C53.5317 42.1219 53.3779 42.115 53.2245 42.1031C53.2209 42.1031 53.2172 42.1031 53.2135 42.1023C53.1586 42.0981 53.1036 42.093 53.049 42.0869C52.9549 42.0767 52.861 42.0642 52.7673 42.0495C52.7309 42.0434 52.692 42.037 52.6544 42.0305C52.6373 42.0273 52.6203 42.0242 52.6033 42.0208L52.5993 42.02C52.5452 42.0097 52.4915 41.9983 52.4379 41.9859C52.4069 41.9789 52.3758 41.9719 52.3451 41.9636L52.3267 41.9587C52.3114 41.955 52.2965 41.9509 52.2815 41.9469L52.2733 41.9447L52.2251 41.9308C52.2077 41.9258 52.1904 41.9206 52.173 41.9155L52.1667 41.9136L52.1214 41.8997C52.1043 41.8944 52.0873 41.8888 52.0703 41.8833C52.0563 41.8786 52.0424 41.8738 52.0284 41.8692L51.9977 41.8584C51.9681 41.8481 51.9388 41.8372 51.9096 41.8259L51.8818 41.8152L51.8589 41.8059C51.8149 41.7881 51.7709 41.7695 51.7275 41.75L51.6985 41.7361L51.6937 41.7339C51.6834 41.7291 51.6733 41.7242 51.663 41.7198C51.6429 41.7102 51.623 41.7002 51.6032 41.69L51.5973 41.687L51.5686 41.6719C51.5177 41.6453 51.4677 41.6169 51.4187 41.5866L51.392 41.5702C51.3781 41.5617 51.3655 41.5531 51.3522 41.5445L51.3173 41.5212C51.3047 41.5128 51.2921 41.5042 51.2798 41.4953L51.2574 41.4794C51.2337 41.4623 51.2105 41.445 51.1876 41.427C51.1754 41.4177 51.1635 41.408 51.1515 41.3991C51.1248 41.3777 51.0988 41.3556 51.0731 41.333L51.072 41.332C51.0469 41.3103 51.0225 41.2878 50.9987 41.2648L50.9974 41.2633C50.9849 41.2514 50.9728 41.2395 50.9606 41.2272C50.9487 41.2148 50.9365 41.2027 50.9248 41.1903C50.913 41.1778 50.9011 41.1652 50.8896 41.1522C50.8784 41.14 50.8675 41.1277 50.8566 41.1152L50.8529 41.1109C50.7966 41.0455 50.744 40.9769 50.6952 40.9055L50.6759 40.8769C50.6631 40.858 50.6505 40.8389 50.6381 40.8198L50.6013 40.7631C50.5832 40.7355 50.5656 40.7075 50.5485 40.6794C50.5362 40.6594 50.524 40.6394 50.5121 40.6192C50.5019 40.602 50.4918 40.585 50.4821 40.5681C50.4767 40.5589 50.4716 40.5495 50.4664 40.5402C50.4613 40.5305 50.4552 40.5206 50.4497 40.5108L50.441 40.4953C50.4381 40.4902 50.4371 40.4886 50.4356 40.4852C50.425 40.4666 50.4147 40.4477 50.4047 40.4284C50.4002 40.4202 50.3957 40.4117 50.3909 40.4034L50.3768 40.3766L50.363 40.3498L50.3362 40.2956C50.3318 40.2867 50.3276 40.2778 50.3234 40.2689C50.3142 40.2497 50.3055 40.2308 50.2968 40.2119C50.2934 40.2042 50.2898 40.1966 50.2867 40.1889C50.2747 40.1628 50.2633 40.1364 50.2526 40.1097C50.2452 40.092 50.2385 40.0745 50.2314 40.057C50.2113 40.0055 50.1924 39.9534 50.1751 39.9008C50.17 39.8852 50.1649 39.8697 50.1603 39.8541C50.1491 39.8186 50.139 39.7828 50.13 39.7467C50.1189 39.7047 50.1091 39.6622 50.1008 39.6195C50.0955 39.5944 50.0909 39.5691 50.087 39.5436C50.0828 39.5184 50.0792 39.4933 50.0762 39.4683C50.0698 39.4184 50.0653 39.3684 50.0627 39.3183C50.0627 39.31 50.0619 39.3016 50.0617 39.2933C50.061 39.2767 50.0605 39.2602 50.0603 39.2436C50.0516 38.5761 50.3885 37.9341 51.1086 37.212C52.3912 35.9266 53.1379 34.0455 53.1379 34.0455C53.1379 34.0455 53.158 33.9666 53.1999 33.8531C53.2139 33.8155 53.2286 33.778 53.244 33.7409C53.2616 33.6991 53.2804 33.6577 53.3007 33.617L53.3066 33.6052C53.3326 33.5533 53.3608 33.5028 53.3915 33.4536C53.3985 33.4422 53.4054 33.4308 53.4135 33.4195C53.4362 33.3855 53.4603 33.3525 53.4857 33.3205C53.5054 33.2959 53.5262 33.2722 53.5482 33.2497C53.6226 33.1728 53.7075 33.11 53.8036 33.0764L53.8158 33.0725C53.8239 33.0698 53.8318 33.0673 53.8401 33.065C53.8497 33.0625 53.8594 33.0602 53.8691 33.0581L53.8734 33.0573C53.8938 33.0533 53.9142 33.0505 53.9349 33.0491H53.9368C53.9476 33.0491 53.9583 33.048 53.9694 33.048C53.9969 33.0481 54.0244 33.0503 54.0516 33.0545C54.1672 33.0728 54.2773 33.1419 54.372 33.2484L54.3848 33.2634C54.4156 33.2997 54.4437 33.3384 54.4686 33.3791C54.4873 33.4092 54.5049 33.4409 54.5216 33.4742C54.5282 33.4883 54.5346 33.5011 54.541 33.5148C54.5441 33.5219 54.5473 33.5288 54.5502 33.5359C54.5564 33.5498 54.5622 33.5639 54.568 33.5786C54.6005 33.6623 54.6258 33.7488 54.6435 33.8369C54.6624 33.932 54.6733 34.0286 54.6764 34.1256C54.6775 34.1683 54.6775 34.2114 54.6764 34.2552C54.6756 34.2717 54.6748 34.2884 54.6736 34.3052C54.6608 34.4909 54.6205 34.6737 54.5538 34.8477C54.5471 34.8648 54.5398 34.8823 54.5329 34.8998C54.4994 34.9802 54.4605 35.058 54.4166 35.133C54.3915 35.1758 54.3644 35.2183 54.3354 35.2605L54.3177 35.2858C54.249 35.382 54.1723 35.4723 54.0885 35.5558C54.006 35.6388 53.9175 35.7155 53.8239 35.7856C53.73 35.8552 53.642 35.9323 53.5606 36.0163C53.3265 36.2628 53.272 36.4802 53.3247 36.645C53.3309 36.6636 53.3382 36.6819 53.3466 36.6995C53.3661 36.7378 53.3913 36.773 53.4216 36.8036L53.4298 36.8119C53.4384 36.8202 53.4474 36.8281 53.4566 36.8358L53.4659 36.8434C53.4887 36.8609 53.5127 36.8766 53.5377 36.8902C53.5449 36.8941 53.5516 36.898 53.5599 36.9017C53.5943 36.9189 53.6303 36.9327 53.6673 36.9431L53.6776 36.9458L53.6915 36.9495L53.7036 36.9525L53.7166 36.9553L53.7295 36.958L53.7418 36.96C53.751 36.9617 53.7603 36.9631 53.7695 36.9644L53.7786 36.9656L53.7946 36.9673L53.8046 36.9683L53.8211 36.9695H53.8306L53.8477 36.9703H53.9018L53.9172 36.9695L53.9349 36.9684L53.9566 36.9664L53.9768 36.9639C53.9814 36.9639 53.986 36.9627 53.9907 36.9619C54.062 36.9514 54.1315 36.9312 54.1973 36.9019C54.2113 36.8959 54.2251 36.8894 54.2379 36.8825C54.2653 36.8688 54.292 36.8533 54.3175 36.8363C54.3532 36.8128 54.3868 36.7864 54.4184 36.7577L54.4404 36.7367C54.4438 36.7333 54.4474 36.73 54.4507 36.7264C54.4722 36.7048 54.4924 36.682 54.5113 36.6581C54.5446 36.6159 54.5742 36.5711 54.5999 36.5239C54.9047 35.968 55.2242 35.4202 55.558 34.8813L55.6038 34.8077L55.6501 34.7339C55.6733 34.6967 55.6965 34.6598 55.7197 34.6234L55.7432 34.5867L55.7901 34.5134C55.853 34.4158 55.9161 34.3192 55.9797 34.2236L56.0272 34.1523C56.1225 34.0108 56.2177 33.873 56.3117 33.7419L56.3588 33.6772C56.4611 33.5353 56.5678 33.3967 56.6786 33.2614L56.7226 33.2086C56.7298 33.1997 56.7365 33.1911 56.7444 33.1825L56.7876 33.1323C56.7948 33.1241 56.8016 33.1159 56.8091 33.108L56.8508 33.0606L56.8719 33.0378C56.8921 33.0158 56.9127 32.9941 56.9335 32.9725C56.9476 32.9586 56.9605 32.9445 56.974 32.9316C57.053 32.8505 57.1401 32.7778 57.234 32.7148L57.2557 32.7009L57.2776 32.6869C57.2916 32.6781 57.3058 32.6697 57.3203 32.6617C57.6885 32.4522 57.9935 32.4367 58.1689 32.6127C58.2753 32.7194 58.334 32.8961 58.3309 33.1419C58.3309 33.1528 58.3309 33.1636 58.33 33.1748V33.187C58.33 33.1981 58.329 33.2095 58.3282 33.2209C58.3282 33.2348 58.3265 33.2489 58.3251 33.2628C58.3237 33.2769 58.3231 33.2875 58.3217 33.2998C58.3217 33.3034 58.3209 33.307 58.3205 33.3106C58.3194 33.3216 58.318 33.3327 58.3166 33.3436C58.3166 33.347 58.3166 33.3503 58.3152 33.3538C58.3136 33.3686 58.3114 33.3834 58.3088 33.3981C58.3071 33.4117 58.3049 33.4253 58.3022 33.4389C58.3011 33.4467 58.2996 33.4544 58.2983 33.4622C58.2943 33.4844 58.289 33.5064 58.2826 33.528C58.2706 33.5683 58.256 33.6078 58.2387 33.6462C58.2312 33.663 58.2233 33.6797 58.2152 33.6961C58.1983 33.73 58.1793 33.7647 58.1585 33.8006C58.148 33.8183 58.1373 33.8366 58.1258 33.8548L58.1083 33.8827C58.0906 33.9106 58.072 33.9389 58.0527 33.9675C58.0334 33.9961 58.0127 34.0253 57.9904 34.0548C57.9616 34.0942 57.9312 34.1344 57.8991 34.175L57.8748 34.2058C57.8061 34.2916 57.7357 34.3759 57.6638 34.4589L57.6066 34.5238L57.5775 34.5566C57.5378 34.6011 57.4979 34.6453 57.4577 34.6892L57.4268 34.7227C57.4064 34.7448 57.3851 34.7673 57.3647 34.7897C57.3438 34.8123 57.3226 34.8348 57.3015 34.8573L57.2373 34.9252L57.1723 34.9931C57.1507 35.0158 57.1289 35.0388 57.1069 35.0614L56.9747 35.1981C56.343 35.848 55.6775 36.4956 55.4522 36.8994C55.4373 36.9258 55.4237 36.9528 55.4114 36.9805C55.3795 37.0539 55.3661 37.1167 55.3751 37.1675C55.3781 37.1842 55.384 37.2003 55.3926 37.2148C55.4054 37.2369 55.4208 37.2572 55.4385 37.2753C55.4468 37.2834 55.4554 37.2911 55.4647 37.298C55.511 37.3311 55.567 37.3481 55.6239 37.3464H55.6416L55.6599 37.3452L55.6782 37.343L55.6934 37.3408C55.6954 37.3406 55.6974 37.3402 55.6994 37.3397L55.7133 37.337L55.717 37.3361L55.7323 37.3328L55.7378 37.3314L55.7541 37.3272L55.7736 37.3214C55.7863 37.3175 55.7991 37.3131 55.8122 37.3083C55.8404 37.2983 55.868 37.2867 55.8949 37.2738C55.9018 37.2705 55.9088 37.2673 55.9155 37.2638L55.9362 37.2534C55.9633 37.2397 55.9902 37.2248 56.0173 37.2088C56.039 37.1959 56.0605 37.1828 56.082 37.1689L56.1029 37.155C56.1097 37.1506 56.1167 37.1461 56.1236 37.1409L56.1443 37.127L56.1552 37.1194L56.1851 37.0984C56.213 37.0791 56.239 37.0592 56.2655 37.0391L56.2678 37.0373L56.3096 37.0048C56.3667 36.9595 56.4211 36.9139 56.4701 36.8709L56.5029 36.842L56.506 36.8392L56.523 36.8241C56.5631 36.788 56.599 36.7542 56.6289 36.7263L56.641 36.7144L56.6705 36.6864L56.6881 36.6692L56.6941 36.663L56.6959 36.6613C56.7108 36.6463 56.7108 36.6462 56.7258 36.6311L56.727 36.6298L56.7326 36.6248C56.7343 36.623 56.7367 36.6211 56.7393 36.6188L56.7415 36.6167L56.7474 36.6114L56.779 36.5834L56.7968 36.5673C56.8055 36.5598 56.815 36.5513 56.8247 36.542L56.846 36.5233C56.8497 36.5202 56.8535 36.5166 56.8574 36.5131L56.8797 36.4936L56.9125 36.4648L56.9298 36.4497C56.9976 36.3905 57.0801 36.3191 57.1747 36.2386L57.2135 36.2058L57.2776 36.1519L57.343 36.0969C57.4287 36.0256 57.5209 35.9498 57.6184 35.8711L57.6825 35.8195C57.737 35.7761 57.793 35.7316 57.8497 35.6869C57.8725 35.6689 57.8957 35.6509 57.9194 35.6331C57.9775 35.5881 58.0359 35.5433 58.0944 35.4991C58.2281 35.3978 58.3659 35.2964 58.5054 35.1975L58.5653 35.1558C58.6071 35.1267 58.6488 35.0978 58.6907 35.0695L58.7286 35.0438C58.8035 34.9931 58.879 34.9436 58.9552 34.8952L58.993 34.8713L59.0306 34.8478C59.0681 34.8245 59.1057 34.8014 59.1427 34.7791L59.18 34.7569L59.2546 34.7133C59.279 34.6991 59.3033 34.6852 59.3276 34.6714L59.3423 34.6631L59.4002 34.6314C59.4242 34.6183 59.4483 34.6056 59.4722 34.5933L59.508 34.5748L59.5426 34.5572C59.6217 34.5173 59.7022 34.4805 59.7842 34.4467C59.7954 34.442 59.8064 34.4375 59.8175 34.4327C59.8395 34.4234 59.8613 34.415 59.8829 34.4075C59.9046 34.4002 59.9259 34.3925 59.9469 34.385C59.9661 34.3786 59.9846 34.3727 60.0027 34.367L60.0088 34.3652C60.0184 34.3622 60.0281 34.3594 60.0378 34.3569L60.0406 34.3561C60.0602 34.3505 60.0798 34.3453 60.0996 34.3406H60.1011C60.1303 34.3336 60.1586 34.3277 60.1863 34.323C60.1959 34.3214 60.2052 34.3198 60.2142 34.3186C60.2412 34.3145 60.2683 34.3117 60.2954 34.3098C60.3125 34.3086 60.3298 34.3081 60.3469 34.3081H60.36C60.3775 34.3081 60.3943 34.3092 60.411 34.3109C60.4186 34.3109 60.4262 34.3123 60.4337 34.3134H60.4368C60.4443 34.3142 60.4519 34.3155 60.4592 34.317C60.4666 34.3186 60.474 34.3197 60.4812 34.3214H60.4837C60.4909 34.323 60.4976 34.325 60.505 34.327C60.5645 34.3431 60.6192 34.3734 60.6645 34.4153L60.6686 34.4194L60.6765 34.4272L60.6843 34.4355C60.7468 34.5014 60.7985 34.5769 60.8374 34.6591L60.8435 34.673C60.8568 34.7042 60.8672 34.7366 60.8745 34.7697C60.8948 34.862 60.8893 34.9583 60.8586 35.0477C60.8454 35.0866 60.8292 35.1244 60.81 35.1606L60.7973 35.1838C60.7487 35.2655 60.6913 35.3416 60.6261 35.4106L60.612 35.4255C60.5814 35.4581 60.5494 35.4898 60.5166 35.5203C60.5061 35.5302 60.4954 35.54 60.4845 35.5498L60.468 35.5648C60.4337 35.5953 60.3987 35.625 60.3631 35.6541C60.3569 35.6591 60.3505 35.6641 60.3444 35.6694C60.3197 35.6894 60.2941 35.7097 60.2677 35.73C60.1764 35.8 60.0834 35.8675 59.9887 35.9327C59.9329 35.9709 59.8753 36.0095 59.8158 36.0488C59.7049 36.1217 59.5932 36.1931 59.4804 36.2631C59.4479 36.2833 59.4152 36.3038 59.3818 36.3241C59.0754 36.5131 58.7357 36.7153 58.3734 36.9352L58.2797 36.9923C58.177 37.0552 58.0801 37.1152 57.989 37.1722L57.943 37.2013L57.8561 37.2572C57.8217 37.2791 57.7882 37.3006 57.7557 37.3219C57.7311 37.3377 57.7071 37.3533 57.6835 37.3688L57.6371 37.3994C57.6145 37.4142 57.5921 37.4291 57.5697 37.4442L57.5479 37.4581C57.5248 37.4736 57.5024 37.4888 57.4806 37.5037L57.4449 37.5281L57.403 37.5573L57.3644 37.5844C57.3033 37.6273 57.243 37.6713 57.1832 37.7159L57.1624 37.7319C57.1388 37.7497 57.1161 37.7675 57.0941 37.7848L57.0655 37.8078C57.0172 37.8467 56.9734 37.8841 56.9339 37.9197L56.9145 37.9375C56.9035 37.9477 56.8926 37.9578 56.8823 37.9678C56.875 37.9747 56.8683 37.9817 56.861 37.9886L56.8508 37.9986C56.8286 38.0209 56.8069 38.0439 56.7859 38.0675L56.7756 38.0794C56.7527 38.1059 56.7328 38.1314 56.7152 38.1562L56.7074 38.1675C56.6871 38.1972 56.6692 38.2286 56.6539 38.2612L56.6487 38.2727L56.6454 38.2806L56.6427 38.2875L56.6392 38.297C56.6381 38.3003 56.6359 38.3061 56.6346 38.3111C56.6282 38.3297 56.6236 38.3489 56.6205 38.3684L56.6189 38.3789L56.6177 38.3884L56.6169 38.3977V38.4467C56.6169 38.4508 56.6169 38.455 56.6178 38.4592C56.618 38.4617 56.6183 38.4642 56.6186 38.4667C56.6186 38.4708 56.6197 38.4748 56.6201 38.4791L56.6231 38.4963V38.497C56.6242 38.5025 56.6253 38.508 56.6267 38.5134C56.6281 38.5189 56.6295 38.525 56.6312 38.5308C56.6362 38.5484 56.6423 38.5659 56.6493 38.583C56.6493 38.5842 56.6504 38.5856 56.6508 38.5869C56.6527 38.5911 56.6544 38.5955 56.6564 38.5997C56.6641 38.6175 56.6726 38.6348 56.682 38.6519L56.6918 38.6695L56.7021 38.6873L56.7128 38.7052C56.7147 38.7081 56.7167 38.7108 56.7191 38.7134L56.7226 38.7172L56.7264 38.7206L56.7306 38.7239C56.7334 38.7259 56.7363 38.7277 56.7395 38.7294C56.7426 38.7308 56.746 38.7323 56.7494 38.7336C56.7532 38.7348 56.7569 38.7359 56.7606 38.7369C56.8505 38.7572 57.0353 38.6825 57.2806 38.5525L57.3247 38.5291L57.3993 38.4883L57.4359 38.468C57.4617 38.4539 57.4884 38.4383 57.5153 38.4228L57.5647 38.3948C57.8892 38.2075 58.2768 37.9667 58.6775 37.7317C58.7149 37.7097 58.7525 37.6878 58.7902 37.6659L58.8659 37.6175C58.9038 37.5956 58.9415 37.5741 58.9793 37.5528C59.1404 37.4609 59.3036 37.3727 59.4686 37.2881L59.5426 37.2505C59.5918 37.2261 59.6406 37.2023 59.6887 37.1792C59.782 37.1348 59.8762 37.0928 59.9714 37.053L60.0236 37.0317L60.03 37.0292C60.3063 36.9194 60.5569 36.8514 60.7597 36.8514C60.8036 36.8511 60.8474 36.8547 60.8907 36.8622H60.892C60.906 36.8647 60.9186 36.8675 60.9314 36.8708H60.9337C60.9524 36.8753 60.9708 36.8811 60.9885 36.8883C61.0027 36.8934 61.0164 36.8995 61.0296 36.9067C61.0877 36.9363 61.1374 36.9798 61.1745 37.0336C61.1776 37.0381 61.1806 37.0428 61.1834 37.0477C61.1971 37.0686 61.2089 37.0906 61.2186 37.1138C61.2244 37.127 61.2297 37.1408 61.2346 37.1556C61.2396 37.1706 61.244 37.185 61.2485 37.2005C61.2815 37.3189 61.2782 37.4442 61.2392 37.5608Z" fill="#FF9D00"></path><path fill-rule="evenodd" clip-rule="evenodd" d="M59.4029 29.0739V28.9973C59.4029 22.4577 54.1197 17.1562 47.5999 17.1562C41.0804 17.1562 35.7952 22.458 35.7952 28.9973L35.7951 29.023C35.7949 29.04 35.7948 29.0569 35.7951 29.0739C35.7958 29.0994 35.7961 29.1248 35.7959 29.1503L35.7968 29.2066L35.7971 29.2269L35.7979 29.2547C35.7982 29.2697 35.7987 29.2845 35.7987 29.2995L35.8002 29.3603L35.8027 29.4317L35.8035 29.4552L35.8066 29.5291V29.5325L35.811 29.6189V29.6211C35.8125 29.6506 35.8141 29.6802 35.816 29.7095C35.8175 29.7369 35.8192 29.7641 35.8211 29.7913L35.8216 29.7961C35.8229 29.8194 35.8245 29.8428 35.8262 29.8661L35.8267 29.8722C35.8283 29.8947 35.83 29.9173 35.8318 29.9397L35.8321 29.9441L35.8353 29.9831C35.8446 30.0958 35.8555 30.2084 35.868 30.3208L35.8688 30.3278L35.8781 30.4103L35.8888 30.4972C35.8961 30.555 35.9038 30.6127 35.9119 30.6703C35.9168 30.7052 35.9218 30.7398 35.927 30.7745L35.9278 30.7787C35.9394 30.8572 35.952 30.9356 35.9655 31.0138C36.0042 31.2405 36.0497 31.4661 36.1019 31.6902L36.1027 31.6937L36.1077 31.7148C36.1124 31.7348 36.117 31.7548 36.122 31.775L36.1306 31.7645C36.4733 31.3536 36.9649 31.127 37.5149 31.127C37.9557 31.127 38.408 31.2731 38.8611 31.5614C39.1617 31.753 39.4941 32.0923 39.8362 32.5191C40.1527 32.078 40.5963 31.785 41.1038 31.705C41.2007 31.6897 41.2985 31.6819 41.3963 31.6817C42.5547 31.6817 43.2524 32.6902 43.5159 33.597C43.646 33.9036 44.2737 35.2991 45.2201 36.2431C46.6586 37.6848 47.0186 39.1727 46.3067 40.7656H46.3091C46.3577 40.7709 46.4064 40.7759 46.4553 40.7805C46.4845 40.7833 46.5136 40.7861 46.5427 40.7886L46.553 40.7895C46.5743 40.7916 46.5958 40.7934 46.6173 40.795L46.6765 40.7998C46.7329 40.8042 46.7895 40.8081 46.8463 40.8119L46.8912 40.8145L46.9268 40.8166L46.9491 40.8178L47.0186 40.8216L47.0376 40.8223L47.1108 40.8255L47.1919 40.8286L47.2574 40.8305L47.2683 40.8309C47.282 40.8314 47.296 40.832 47.3099 40.832L47.3247 40.8323C47.4166 40.8345 47.5083 40.8356 47.6002 40.8356H47.6977L47.7675 40.8348C47.7846 40.8339 47.8016 40.8339 47.8187 40.8339H47.8458L47.8694 40.8334C47.8786 40.8331 47.8879 40.8328 47.8971 40.8328H47.925L47.9796 40.8313L48.0619 40.8284L48.1525 40.8245C48.1786 40.8234 48.2044 40.8222 48.2304 40.8208L48.2583 40.8192L48.2996 40.8169L48.324 40.8155L48.3423 40.8144L48.4259 40.8087C48.4538 40.807 48.4817 40.8048 48.5095 40.8027L48.5852 40.7967L48.6387 40.7922L48.6971 40.7869C48.7571 40.7812 48.8169 40.7753 48.8764 40.7691C48.9144 40.7648 48.9521 40.7606 48.9899 40.7561L49.0564 40.7481C48.3557 39.1617 48.7184 37.6806 50.1511 36.2445C51.0954 35.2981 51.7231 33.9023 51.8539 33.5959C52.1176 32.6889 52.8147 31.6806 53.9734 31.6806C54.0714 31.6808 54.1692 31.6884 54.2659 31.7039C54.7729 31.7839 55.2167 32.077 55.5337 32.518C55.8759 32.0913 56.2081 31.7519 56.5088 31.5603C56.9619 31.272 57.4145 31.1259 57.8549 31.1259C58.3402 31.1259 58.7803 31.3025 59.1125 31.6263C59.1307 31.5447 59.1483 31.4631 59.1652 31.3812C59.1754 31.3302 59.1856 31.2789 59.1955 31.2275C59.2077 31.1644 59.2192 31.1009 59.2298 31.0375C59.2326 31.0203 59.2356 31.0031 59.2388 30.9858C59.244 30.9588 59.2485 30.932 59.2527 30.9048L59.2544 30.8945L59.2655 30.8237L59.2764 30.752L59.2765 30.7512C59.2809 30.7212 59.2854 30.6911 59.2895 30.6609C59.2927 30.6381 59.2958 30.6153 59.2988 30.5923L59.3007 30.5792L59.3103 30.5045L59.3183 30.4409C59.3231 30.3991 59.3278 30.3572 59.3323 30.3152C59.3343 30.2984 59.336 30.2816 59.3377 30.2647L59.3393 30.2511C59.3423 30.2231 59.3449 30.1953 59.3474 30.1673L59.3536 30.1023C59.3666 29.9583 59.377 29.8142 59.3851 29.6698V29.6689L59.3893 29.5923L59.3901 29.5752L59.3932 29.5025C59.3944 29.4752 59.3955 29.4475 59.3965 29.4195V29.4175L59.3972 29.3973C59.398 29.3802 59.3986 29.363 59.3986 29.3459L59.399 29.3389C59.3996 29.323 59.4002 29.3064 59.4002 29.29L59.4007 29.2759C59.4011 29.2595 59.4016 29.2433 59.4016 29.2269L59.4019 29.213C59.4024 29.192 59.4029 29.1713 59.4029 29.1503V29.0739ZM44.6722 40.9031C45.6069 39.5278 45.5407 38.4956 44.258 37.2097C42.9753 35.9237 42.2287 34.0431 42.2287 34.0431C42.2287 34.0431 41.95 32.9506 41.3145 33.0511C40.679 33.1514 40.2128 34.7838 41.5433 35.783C42.8739 36.7822 41.2787 37.4597 40.7666 36.522C40.2543 35.5842 38.8561 33.1737 38.1311 32.7127C37.4061 32.2516 36.8963 32.51 37.0672 33.4603C37.1521 33.932 37.9415 34.737 38.679 35.4892C39.4273 36.2525 40.1222 36.9611 39.9737 37.2119C39.6789 37.71 38.6404 36.6267 38.6404 36.6267C38.6404 36.6267 35.3887 33.6584 34.6807 34.432C34.0283 35.145 35.0345 35.7511 36.5853 36.6852C36.7172 36.7647 36.853 36.8466 36.9921 36.9309C38.7663 38.0084 38.9043 38.2927 38.6526 38.7003C38.5596 38.8509 37.9656 38.4933 37.2351 38.0533C35.9898 37.3033 34.3476 36.3144 34.1158 37.1995C33.915 37.9656 35.1231 38.435 36.2188 38.8608C37.1315 39.2155 37.9664 39.5398 37.8437 39.9802C37.7164 40.4366 37.0265 40.0559 36.2723 39.6397C35.4258 39.1723 34.4982 38.6603 34.1948 39.2381C33.6209 40.3303 38.1527 41.6161 38.1899 41.6255C39.6541 42.0064 43.3725 42.8136 44.6722 40.9031ZM50.6946 40.9031C49.7597 39.5278 49.8261 38.4956 51.1088 37.2097C52.3915 35.9237 53.1382 34.0431 53.1382 34.0431C53.1382 34.0431 53.4167 32.9506 54.0522 33.0511C54.6877 33.1514 55.1541 34.7838 53.8234 35.783C52.4927 36.7822 54.0881 37.4597 54.6004 36.522C55.1125 35.5842 56.51 33.1737 57.2349 32.7127C57.9599 32.2516 58.4698 32.51 58.299 33.4603C58.2141 33.932 57.4247 34.7372 56.687 35.4894C55.9388 36.2525 55.244 36.9611 55.3924 37.2119C55.6871 37.71 56.7265 36.6261 56.7265 36.6261C56.7265 36.6261 59.9781 33.6578 60.686 34.4314C61.3385 35.1444 60.3321 35.7506 58.7814 36.6848C58.6494 36.7642 58.5138 36.8459 58.3747 36.9305C56.6004 38.0078 56.4625 38.2922 56.7142 38.6997C56.8072 38.8503 57.4011 38.4927 58.1315 38.0528C59.377 37.3028 61.0192 36.3137 61.251 37.1989C61.4518 37.965 60.2437 38.4345 59.1479 38.8603C58.2351 39.215 57.4004 39.5392 57.5229 39.9797C57.6502 40.4361 58.3398 40.0553 59.0937 39.6391C59.9402 39.1717 60.868 38.6595 61.1715 39.2375C61.7454 40.3305 57.213 41.6148 57.1762 41.6244C55.712 42.0064 51.9937 42.8136 50.6946 40.9031Z" fill="#FFD21E"></path><path fill-rule="evenodd" clip-rule="evenodd" d="M51.4301 25.7743C51.614 25.8396 51.751 26.0385 51.8812 26.2276C52.0572 26.4833 52.221 26.7212 52.4724 26.5871C52.7692 26.429 53.0123 26.1862 53.1714 25.8893C53.3304 25.5925 53.398 25.255 53.3658 24.9196C53.3418 24.6688 53.2626 24.4264 53.134 24.21C53.0053 23.9936 52.8304 23.8085 52.622 23.6681C52.4134 23.5276 52.1763 23.4353 51.9281 23.3979C51.6796 23.3604 51.426 23.3786 51.1855 23.4513C50.8639 23.5485 50.5782 23.7391 50.3645 23.9991C50.151 24.259 50.0189 24.5767 49.9851 24.9119C49.9514 25.2472 50.0176 25.585 50.1753 25.8826C50.2918 26.1024 50.5503 25.9988 50.8232 25.8893C51.0372 25.8035 51.26 25.7141 51.4301 25.7743ZM43.4276 25.7744C43.2436 25.8398 43.1066 26.0387 42.9763 26.2277C42.8003 26.4833 42.6365 26.7213 42.3851 26.5873C42.1634 26.469 41.9707 26.3027 41.8207 26.1007C41.6707 25.8987 41.5673 25.6658 41.5178 25.4188C41.4682 25.1719 41.4738 24.917 41.5343 24.6725C41.5949 24.428 41.7086 24.2 41.8673 24.0049C42.0263 23.8099 42.2263 23.6526 42.4531 23.5445C42.6799 23.4363 42.9279 23.3799 43.179 23.3794C43.4301 23.3788 43.6782 23.4341 43.9055 23.5413C44.1327 23.6484 44.3335 23.8048 44.4933 23.9991C44.707 24.2591 44.8391 24.5768 44.8729 24.9121C44.9066 25.2474 44.8404 25.5852 44.6826 25.8827C44.5658 26.1026 44.3072 25.9988 44.0343 25.8893C43.8204 25.8035 43.5977 25.7141 43.4276 25.7744ZM50.1921 33.0793C51.4605 32.0768 51.9263 30.4404 51.9263 29.4323C51.9263 28.6354 51.3918 28.8862 50.5362 29.311L50.488 29.3351C49.7025 29.7252 48.657 30.2446 47.5094 30.2446C46.3615 30.2446 45.3161 29.7251 44.5309 29.3349C43.6475 28.896 43.0935 28.6207 43.0935 29.4324C43.0935 30.4723 43.5891 32.1799 44.9497 33.1721C45.1291 32.8065 45.3818 32.4819 45.6921 32.2188C46.0022 31.9557 46.3633 31.7598 46.7525 31.643C46.8883 31.6024 47.0282 31.8369 47.1715 32.0769C47.3097 32.3087 47.4508 32.5455 47.5946 32.5455C47.7475 32.5455 47.898 32.3121 48.0449 32.0841C48.1983 31.846 48.3478 31.6138 48.4925 31.6602C49.2209 31.8948 49.8301 32.4033 50.1921 33.0793Z" fill="#32343D"></path><path d="M50.195 33.0795C49.5344 33.6017 48.6564 33.9519 47.5131 33.9519C46.4388 33.9519 45.5985 33.6428 44.9531 33.1723C45.1327 32.8069 45.3855 32.4824 45.6956 32.2194C46.0058 31.9563 46.3668 31.7602 46.7559 31.6433C47.0228 31.5634 47.3053 32.5458 47.5978 32.5458C47.9111 32.5458 48.2128 31.5697 48.496 31.6605C49.224 31.8952 49.833 32.4038 50.195 33.0795Z" fill="#FF323D"></path><path fill-rule="evenodd" clip-rule="evenodd" d="M40.4001 27.1923C40.2796 27.2737 40.1443 27.3305 40.0018 27.3592C39.8594 27.388 39.7127 27.3883 39.5702 27.3602C39.4277 27.3319 39.2921 27.2758 39.1712 27.195C39.0503 27.1141 38.9465 27.0102 38.8658 26.8889C38.7851 26.7678 38.729 26.6317 38.7008 26.4889C38.6725 26.3459 38.6727 26.1987 38.7012 26.0558C38.7298 25.913 38.7862 25.7772 38.8672 25.6561C38.9481 25.5351 39.0522 25.4314 39.1732 25.3508C39.4167 25.1887 39.7142 25.13 40.0007 25.1876C40.2872 25.2452 40.5393 25.4144 40.7017 25.6581C40.864 25.9019 40.9235 26.2002 40.867 26.4877C40.8104 26.7753 40.6425 27.0287 40.4001 27.1923ZM56.1964 27.1923C56.0758 27.2737 55.9405 27.3305 55.7981 27.3592C55.6557 27.388 55.509 27.3883 55.3665 27.3602C55.224 27.3319 55.0883 27.2758 54.9674 27.195C54.8465 27.1141 54.7428 27.0102 54.6621 26.8889C54.5813 26.7678 54.5252 26.6317 54.497 26.4889C54.4688 26.3459 54.469 26.1987 54.4975 26.0558C54.526 25.913 54.5824 25.7772 54.6634 25.6561C54.7444 25.5351 54.8484 25.4314 54.9694 25.3508C55.2129 25.1887 55.5106 25.13 55.797 25.1876C56.0835 25.2452 56.3355 25.4144 56.4979 25.6581C56.6603 25.9019 56.7198 26.2002 56.6632 26.4877C56.6067 26.7753 56.4388 27.0287 56.1964 27.1923Z" fill="#FFAD03"></path></svg> 