<?xml version="1.0" encoding="UTF-8"?> <svg xmlns="http://www.w3.org/2000/svg" width="54" height="65" viewBox="0 0 54 65" fill="none"><path d="M36.502 16.7095C37.0885 16.7095 37.5684 17.1882 37.5684 17.771C37.5685 18.8302 38.0679 20.1851 38.8564 21.2739C39.6438 22.3609 40.7399 23.2102 41.9473 23.2104C42.5338 23.2104 43.0137 23.6882 43.0137 24.271C43.0136 24.8537 42.5338 25.3315 41.9473 25.3315C40.7398 25.3317 39.6437 26.1837 38.8564 27.272C38.0678 28.3622 37.5684 29.7175 37.5684 30.771C37.5684 31.3538 37.0885 31.8315 36.502 31.8315C35.9155 31.8314 35.4365 31.3537 35.4365 30.771C35.4365 29.7117 34.9361 28.3569 34.1475 27.2681C33.3601 26.181 32.2642 25.3315 31.0566 25.3315C30.4701 25.3315 29.9903 24.8537 29.9902 24.271C29.9902 23.6882 30.4701 23.2105 31.0566 23.2104C32.2643 23.2104 33.3601 22.3575 34.1475 21.269C34.9359 20.1789 35.4364 18.8244 35.4365 17.771C35.4365 17.1883 35.9155 16.7096 36.502 16.7095ZM36.415 21.6558C35.8612 22.632 35.1123 23.5269 34.2383 24.1909L34.1328 24.271L34.2383 24.3501C35.1123 25.0141 35.8612 25.909 36.415 26.8853L36.502 27.0386L36.5889 26.8853C37.1427 25.9089 37.8925 25.0142 38.7666 24.3501L38.8721 24.27L38.7656 24.1909C37.8806 23.5273 37.143 22.6325 36.5889 21.6558L36.502 21.5024L36.415 21.6558Z" fill="#FC766A" stroke="white" stroke-width="0.2"></path><path d="M47.3848 10.9417C47.9713 10.9417 48.4512 11.4204 48.4512 12.0032C48.4513 13.0624 48.9507 14.4173 49.7393 15.5061C50.5266 16.5931 51.6227 17.4424 52.8301 17.4426C53.4166 17.4426 53.8965 17.9204 53.8965 18.5032C53.8964 19.0859 53.4166 19.5637 52.8301 19.5637C51.6226 19.5639 50.5265 20.4159 49.7393 21.5042C48.9507 22.5944 48.4512 23.9496 48.4512 25.0032C48.4512 25.5859 47.9713 26.0637 47.3848 26.0637C46.7983 26.0636 46.3193 25.5859 46.3193 25.0032C46.3193 23.9439 45.819 22.5891 45.0303 21.5002C44.2429 20.4131 43.147 19.5637 41.9395 19.5637C41.353 19.5637 40.8731 19.0859 40.873 18.5032C40.873 17.9204 41.3529 17.4426 41.9395 17.4426C43.1471 17.4426 44.243 16.5897 45.0303 15.5012C45.8188 14.4111 46.3192 13.0566 46.3193 12.0032C46.3193 11.4205 46.7983 10.9418 47.3848 10.9417ZM47.2979 15.8889C46.7441 16.8649 45.9949 17.7591 45.1211 18.4231L45.0156 18.5032L45.1211 18.5823C45.9951 19.2462 46.744 20.1412 47.2979 21.1174L47.3848 21.2708L47.4717 21.1174C48.0255 20.1411 48.7753 19.2463 49.6494 18.5823L49.7539 18.5032L49.6494 18.4231C48.7754 17.7591 48.0255 16.8651 47.4717 15.8889L47.3848 15.7356L47.2979 15.8889Z" fill="#FC766A" stroke="white" stroke-width="0.2"></path><path d="M38.3066 0.0996094C38.8932 0.0996094 39.373 0.578365 39.373 1.16113C39.3732 2.22037 39.8725 3.57527 40.6611 4.66406C41.4484 5.75104 42.5446 6.60038 43.752 6.60059C44.3385 6.60059 44.8184 7.07836 44.8184 7.66113C44.8183 8.24387 44.3385 8.72168 43.752 8.72168C42.5445 8.72188 41.4483 9.57385 40.6611 10.6621C39.8725 11.7523 39.3731 13.1076 39.373 14.1611C39.373 14.7439 38.8932 15.2217 38.3066 15.2217C37.7202 15.2216 37.2412 14.7438 37.2412 14.1611C37.2411 13.1018 36.7408 11.7471 35.9521 10.6582C35.1647 9.5711 34.0689 8.72168 32.8613 8.72168C32.2748 8.72166 31.795 8.24385 31.7949 7.66113C31.7949 7.07838 32.2748 6.60061 32.8613 6.60059C34.069 6.60059 35.1648 5.74763 35.9521 4.65918C36.7406 3.56903 37.2411 2.21458 37.2412 1.16113C37.2412 0.578442 37.7202 0.0997375 38.3066 0.0996094ZM38.2197 5.05762C37.6659 6.0338 36.9169 6.92872 36.043 7.59277L35.9375 7.67285L36.043 7.75195C36.917 8.41594 37.6659 9.3109 38.2197 10.2871L38.3057 10.4395L38.3936 10.2881C38.9598 9.31022 39.6975 8.40459 40.5703 7.75293L40.6768 7.67285L40.5713 7.59277C39.6972 6.92874 38.9474 6.03392 38.3936 5.05762L38.3066 4.9043L38.2197 5.05762Z" fill="#FC766A" stroke="white" stroke-width="0.2"></path><path d="M3.54492 14.7935H25.0127C25.5993 14.7935 26.0791 15.2722 26.0791 15.855V24.6528C26.0791 25.6186 25.2965 26.3988 24.3252 26.3989H22.6338C21.9152 26.3992 21.3214 26.9763 21.3213 27.7056C21.3213 28.4221 21.9022 29.013 22.6338 29.0132H24.3252C25.2964 29.0133 26.079 29.7927 26.0791 30.7583V38.4956H33.4736V37.189C33.4736 35.3062 35.0263 33.7603 36.9189 33.7603C38.8117 33.7603 40.3643 35.2948 40.3643 37.189V38.4956H48.8242C49.4112 38.4956 49.8895 38.9742 49.8789 39.5552V60.9146C49.8787 62.7972 48.3383 64.343 46.4346 64.3433H3.54492C1.65223 64.3433 0.0998094 62.8085 0.0996094 60.9146V18.2222C0.0997674 16.3393 1.64099 14.7935 3.54492 14.7935ZM36.8955 35.8931C36.1767 35.8931 35.5831 36.4703 35.583 37.1997V38.8833C35.5828 39.8489 34.7994 40.6284 33.8281 40.6284H26.0557V47.9897H27.3682C29.2609 47.9897 30.8133 49.5245 30.8135 51.4185C30.8135 53.3014 29.2722 54.8472 27.3682 54.8472H26.0557V62.2095H46.4463C47.1651 62.2094 47.7588 61.6313 47.7588 60.9019V60.8022H47.7354V40.6284H39.9619C38.9908 40.6283 38.2082 39.8488 38.208 38.8833V37.1997C38.2079 36.4826 37.6148 35.8932 36.8955 35.8931ZM2.23242 60.9019C2.23247 61.6184 2.81323 62.2084 3.54492 62.2085H23.9238V54.4712C23.924 53.5657 24.612 52.8234 25.4893 52.7251L25.667 52.7144H27.3564C28.0759 52.7144 28.6689 52.124 28.6689 51.4067C28.6689 50.6901 28.0882 50.1001 27.3564 50.1001H25.666C24.6946 50.1001 23.9121 49.3198 23.9121 48.354V40.6167H16.5166V41.9233C16.5166 43.8062 14.9762 45.3519 13.0723 45.3521C11.1794 45.3521 9.62695 43.8175 9.62695 41.9233V40.6167H2.23242V60.9019ZM3.53418 16.8921C2.8154 16.8921 2.2208 17.4693 2.2207 18.1987V18.2993H2.24414V38.4839H10.0166C10.9878 38.4839 11.7712 39.2634 11.7715 40.229V41.9126C11.7715 42.6298 12.3646 43.2192 13.084 43.2192C13.8028 43.2192 14.3964 42.642 14.3965 41.9126V40.229C14.3967 39.2636 15.1794 38.4841 16.1504 38.4839H23.9121V31.1108H22.5996C20.707 31.1108 19.1544 29.5649 19.1543 27.6821C19.1543 25.7991 20.6956 24.2534 22.5996 24.2534H23.9121V16.8921H3.53418Z" fill="#FC766A" stroke="white" stroke-width="0.2"></path></svg> 