<?xml version="1.0" encoding="UTF-8"?> <svg xmlns="http://www.w3.org/2000/svg" width="219" height="39" viewBox="0 0 219 39" fill="none"><g clip-path="url(#clip0_14366_1276)"><path d="M13.4938 18.9846C12.8997 19.5233 12.24 19.9614 11.4483 20.2307C10.6895 20.5336 9.89779 20.6683 9.07271 20.6683C8.28103 20.6683 7.48934 20.5336 6.69711 20.2978C5.90488 20.062 5.17944 19.6915 4.5197 19.2539V19.1192C5.31139 18.5805 6.13647 18.1765 7.02725 17.9072C7.91803 17.6378 8.84167 17.469 9.76585 17.469C10.3265 17.469 10.8877 17.5367 11.4483 17.6372C12.009 17.7384 12.5701 17.9066 13.0979 18.1089C13.5266 17.5702 14.1535 15.8529 15.0114 13.0242L15.2096 12.3173C14.2526 12.5531 13.2961 12.6877 12.3062 12.8224C11.3164 12.9236 10.3265 12.9906 9.30376 12.9906C6.53231 12.9906 4.42115 12.5866 2.93633 11.8121C1.45151 11.0375 0.726074 9.89251 0.726074 8.4446C0.726074 6.99669 1.48491 5.81813 3.00258 4.94245C4.52025 4.06678 6.56571 3.62921 9.20521 3.62921C10.1622 3.62921 11.0859 3.66275 12.0424 3.7639C12.9994 3.86504 13.923 3.96619 14.8466 4.13439L14.9457 4.3026L14.9129 4.53842L14.7481 4.63958C13.5934 4.47137 12.5707 4.33669 11.7128 4.26907C10.822 4.20145 10.0631 4.13439 9.4034 4.13439C7.22599 4.13439 5.51013 4.50489 4.2235 5.27942C2.93688 6.05395 2.30999 7.06431 2.30999 8.34401C2.30999 9.59019 2.96973 10.5329 4.28975 11.2398C5.60923 11.9132 7.45704 12.2837 9.83264 12.2837C10.6243 12.2837 11.4823 12.2161 12.4387 12.1155C13.3958 12.0144 14.3851 11.8126 15.5069 11.5768C16.3649 7.97351 17.5195 5.21236 18.9381 3.32689C20.3567 1.44142 21.9735 0.4646 23.7879 0.4646C24.6458 0.4646 25.3055 0.700424 25.7676 1.13798C26.2297 1.60963 26.4936 2.24948 26.4936 3.05754C26.4936 4.53898 25.6691 6.08804 23.9861 7.67063C22.3036 9.25322 20.0928 10.6005 17.3219 11.6779C16.827 13.1594 16.2992 14.4391 15.7714 15.5171C15.2436 16.5945 14.6495 17.5378 14.0227 18.3458C15.5075 18.9522 16.9918 19.3897 18.4437 19.6926C19.8951 19.9955 21.2809 20.1302 22.6009 20.1302C23.5579 20.1302 24.2177 19.9955 24.6463 19.7597C25.075 19.5238 25.3061 19.1533 25.3061 18.6146C25.3061 18.0759 25.075 17.6719 24.6135 17.3685C24.1514 17.0656 23.5245 16.8968 22.7657 16.8968C22.337 16.8968 21.9078 16.9303 21.5119 17.0315C21.1161 17.0991 20.7202 17.2338 20.3572 17.4355L20.2253 17.402L20.159 17.1662L20.2253 16.998C20.5883 16.7957 20.9841 16.6275 21.4128 16.5263C21.8415 16.4252 22.3036 16.3581 22.7985 16.3581C23.7222 16.3581 24.481 16.5939 25.0422 17.0315C25.6028 17.469 25.8667 18.0754 25.8667 18.8164C25.8667 19.692 25.5037 20.399 24.8111 20.9041C24.1186 21.4093 23.1615 21.6787 21.974 21.6787C20.9841 21.6787 19.7637 21.4428 18.2789 20.9718C16.7602 20.5336 15.1762 19.8597 13.4938 18.9846ZM12.7349 18.6476C12.3719 18.4453 11.9761 18.2771 11.6131 18.21C11.2501 18.1089 10.8543 18.0754 10.4584 18.0754C9.89779 18.0754 9.36946 18.21 8.80882 18.5129C8.28103 18.7823 7.71984 19.2198 7.19205 19.7926C7.42309 19.9273 7.65414 20.0285 7.91803 20.0955C8.18193 20.1631 8.47867 20.1967 8.80882 20.1967C9.66675 20.1967 10.3922 20.062 11.0853 19.8262C11.7451 19.5233 12.2728 19.1192 12.7349 18.6476ZM17.4856 11.0375C18.2116 10.8017 18.937 10.4653 19.6959 10.0272C20.4218 9.58963 21.1473 9.05036 21.8733 8.37698C22.9951 7.40016 23.9187 6.35628 24.6119 5.3124C25.3044 4.26851 25.6674 3.42637 25.6674 2.78707C25.6674 2.21484 25.5355 1.77672 25.2387 1.47383C24.942 1.17095 24.5462 1.00219 24.0178 1.00219C22.764 1.00219 21.6094 1.84378 20.5209 3.52751C19.3991 5.24534 18.3764 7.73713 17.4856 11.0375Z" fill="#0F9C7D"></path><path d="M28.5052 17.1997L30.2868 11.6098C30.353 11.4416 30.4187 11.3404 30.485 11.2728C30.5512 11.2052 30.6832 11.1381 30.8151 11.1046L31.8378 10.9023H31.9369C32.0032 10.9023 32.036 10.9023 32.1017 10.9359C32.1346 10.9694 32.168 11.0035 32.168 11.0705C32.168 11.1041 32.168 11.1382 32.168 11.1717C32.168 11.2052 32.168 11.2052 32.1351 11.2393L30.2545 17.2332C30.0897 17.7049 29.9906 18.1089 29.9243 18.4118C29.8581 18.7147 29.8252 18.9505 29.8252 19.0852C29.8252 19.3545 29.8915 19.5568 30.0234 19.6915C30.1554 19.8262 30.3202 19.8938 30.5184 19.8938C31.079 19.8938 31.8712 19.2875 32.9268 18.1089C33.9824 16.9304 35.3024 15.1455 36.9186 12.7548C36.9515 12.8224 36.9515 12.923 36.9515 12.9571C36.9515 13.0247 36.9515 13.0583 36.9515 13.1253C36.9515 13.5629 36.5556 14.3374 35.7306 15.4824C35.5986 15.6507 35.4995 15.7853 35.4338 15.8865C34.1472 17.6373 33.0582 18.8834 32.2008 19.6244C31.3434 20.3654 30.5184 20.7359 29.7595 20.7359C29.2646 20.7359 28.8687 20.5677 28.572 20.2643C28.2753 19.9614 28.1433 19.5233 28.1433 19.0181C28.1433 18.8499 28.1762 18.5806 28.2424 18.2771C28.2742 17.9742 28.3733 17.6373 28.5052 17.1997ZM32.6952 8.54521C32.3322 8.54521 31.9692 8.44406 31.6062 8.24233C31.2433 8.04003 31.0785 7.8383 31.0785 7.67009C31.0785 7.50188 31.1776 7.23253 31.3752 6.86203C31.5734 6.49153 31.7382 6.28979 31.8039 6.28979C31.903 6.28979 32.0678 6.35741 32.266 6.49209C32.4642 6.62677 32.5961 6.72792 32.6618 6.76145C32.7275 6.79498 32.7938 6.82906 32.86 6.86259C33.1239 6.99727 33.2559 7.13194 33.2559 7.26662C33.2559 7.73827 33.223 8.07468 33.1239 8.24344C33.0248 8.41053 32.9263 8.54521 32.6952 8.54521Z" fill="#0F9C7D"></path><path d="M38.0726 15.0108C37.9735 15.4824 37.9078 15.92 37.8744 16.324C37.8416 16.728 37.8082 17.0985 37.8082 17.4014C37.8082 18.243 37.9073 18.8493 38.1383 19.2534C38.3694 19.6574 38.699 19.8597 39.161 19.8597C39.8208 19.8597 40.6125 19.321 41.6024 18.2771C42.5922 17.2332 43.9117 15.4148 45.6276 12.8554C45.6604 12.923 45.6604 13.0236 45.6938 13.0912C45.6938 13.1588 45.7267 13.2594 45.7267 13.327C45.7267 13.4952 45.5947 13.7987 45.3308 14.2698C45.0669 14.7414 44.7039 15.2801 44.209 15.9535C43.0215 17.6372 41.9653 18.8834 41.0417 19.725C40.1181 20.5331 39.293 20.9371 38.5342 20.9371C37.7425 20.9371 37.1156 20.6342 36.6863 19.9944C36.2243 19.388 36.0266 18.5129 36.0266 17.4349C36.0266 16.8962 36.0929 16.1217 36.2577 15.1449C36.4225 14.1681 36.6535 13.0236 36.9836 11.6427C37.2475 10.5312 37.5777 9.38677 37.9735 8.3088C38.3694 7.1973 38.8643 6.05283 39.4249 4.84018C39.887 3.86336 40.382 2.98824 40.8435 2.31486C41.3056 1.60795 41.7343 1.13629 42.0973 0.900471L42.2955 0.866943C42.4603 1.03515 42.5922 1.27098 42.6585 1.60795C42.7247 1.94492 42.7904 2.38247 42.7904 2.92118C42.7904 4.87426 42.3946 6.89498 41.6029 8.94865C40.7778 11.0034 39.5903 13.0241 38.0726 15.0108ZM38.2046 13.8657C39.2273 12.519 39.9861 11.1716 40.4811 9.85841C40.976 8.54518 41.2399 7.23195 41.2399 5.95224C41.2399 5.61527 41.2071 5.21124 41.1737 4.77368C41.1403 4.33612 41.0746 3.86448 40.9755 3.3593C40.2829 4.77368 39.6888 6.38979 39.1939 8.17468C38.7652 9.92603 38.4028 11.8456 38.2046 13.8657Z" fill="#0F9C7D"></path><path d="M50.8076 22.0827C50.3455 23.8676 49.6857 25.3491 48.8278 26.4941C47.9699 27.6391 46.8814 28.4472 45.6277 28.9188L45.4629 28.8853C45.3966 28.7171 45.3638 28.5148 45.3309 28.3131C45.2981 28.1108 45.2981 27.909 45.2981 27.6732C45.2981 26.6293 45.6282 25.5854 46.3208 24.6086C46.9805 23.5983 48.0361 22.5879 49.4552 21.544C49.5215 21.0389 49.6534 20.3655 49.8839 19.5233C50.0821 18.6817 50.5108 17.1662 51.1377 15.0108C50.0159 16.8628 48.9603 18.2771 47.9704 19.1864C46.9805 20.1291 46.0241 20.6007 45.1661 20.6007C44.7374 20.6007 44.4073 20.4325 44.1434 20.1291C43.8795 19.8262 43.7476 19.4222 43.7476 18.9505C43.7476 18.7823 43.7804 18.58 43.8467 18.2771C43.9129 18.0078 43.9786 17.6708 44.1106 17.2668L45.925 11.5422C45.9578 11.4075 46.0241 11.3399 46.1232 11.2729C46.2223 11.2058 46.3214 11.1717 46.4862 11.1382L47.5417 11.0035H47.608C47.6742 11.0035 47.7071 11.0035 47.7399 11.037C47.7728 11.0706 47.7728 11.1047 47.7728 11.1382C47.7728 11.1717 47.7728 11.2058 47.7399 11.2393C47.7071 11.3069 47.7071 11.3405 47.7071 11.3405L45.7273 17.8396C45.6611 18.0419 45.6282 18.2436 45.5954 18.4459C45.5625 18.6482 45.5625 18.8499 45.5625 19.0182C45.5625 19.1528 45.6288 19.2875 45.7273 19.3886C45.8264 19.4898 45.9584 19.5569 46.1232 19.5569C46.6181 19.5569 47.245 19.1528 48.0038 18.3107C48.7627 17.4691 49.6534 16.29 50.6099 14.7415C51.0386 14.0346 51.4679 13.26 51.8637 12.4179C52.2595 11.5763 52.5563 11.1382 52.7545 11.1046L53.9092 10.97H53.9754C54.0417 10.97 54.0745 10.97 54.1402 11.0035C54.1731 11.037 54.2065 11.0711 54.2065 11.1046C54.2065 11.1723 54.0745 11.5422 53.8435 12.2162C52.7545 15.1461 51.8637 18.1089 51.1383 21.1059C52.0953 20.2979 53.1509 19.2199 54.3055 17.8731C55.4602 16.5264 56.7469 14.9097 58.1326 12.9901C58.1654 13.0577 58.1654 13.0913 58.1988 13.1583C58.1988 13.2259 58.2317 13.293 58.2317 13.3606C58.2317 13.5964 58.1326 13.8658 57.9349 14.2022C57.7367 14.5392 57.2752 15.179 56.5492 16.0882C55.1963 17.8055 54.0751 19.1187 53.25 19.9944C52.3252 20.8366 51.5664 21.5435 50.8076 22.0827ZM46.7167 27.7397C47.4092 27.3692 48.0033 26.7294 48.4654 25.8202C48.9275 24.9109 49.2242 23.7994 49.4224 22.3856C48.4325 23.0925 47.6737 23.8 47.245 24.4734C46.7829 25.1468 46.5524 25.8878 46.5524 26.6958C46.5524 26.8305 46.5524 26.9987 46.5853 27.1675C46.5847 27.3357 46.6504 27.5374 46.7167 27.7397Z" fill="#0F9C7D"></path><path d="M88.4516 13.8998C89.0784 14.7078 89.5734 15.5159 89.903 16.3916C90.2331 17.2673 90.3979 18.1424 90.3979 19.0857C90.3979 19.7926 90.3651 20.2977 90.2988 20.6347C90.2326 20.9717 90.134 21.1399 90.0021 21.1399C89.9358 21.1399 89.771 21.0388 89.5071 20.8706C89.2432 20.7023 88.9794 20.5 88.6826 20.2307C88.0557 19.692 87.5936 19.0857 87.2969 18.3452C87.0001 17.6042 86.8348 16.7962 86.8348 15.9205C86.8348 15.55 86.8676 15.1795 86.9339 14.809C86.9996 14.4385 87.0658 14.0345 87.1978 13.5969C86.8348 13.294 86.4389 12.957 86.0103 12.6542C85.5816 12.3513 85.1195 12.0143 84.5588 11.6438C84.0311 12.4183 83.569 13.0917 83.1403 13.698C82.7116 14.2703 82.3157 14.7755 81.9527 15.1795H82.6125C82.8107 15.1795 83.0412 15.1795 83.2722 15.1795C83.5033 15.1795 83.8662 15.146 84.3278 15.146L84.4597 15.2471L84.4926 15.5165L84.3606 15.6176C84.0639 15.6852 83.7666 15.7187 83.4036 15.7523C83.0406 15.7858 82.6448 15.7858 82.1498 15.7858H81.391C79.8076 17.4019 78.1909 18.6146 76.5084 19.4562C74.8259 20.2978 73.1435 20.7023 71.4938 20.7023C69.8442 20.7023 68.4914 20.3654 67.3701 19.7255C66.2811 19.0857 65.7205 18.3111 65.7205 17.3684C65.7205 16.6615 66.0172 16.0552 66.6112 15.6511C67.2053 15.2136 67.997 15.0113 68.9868 15.0113C69.7457 15.0113 70.4383 15.1124 71.1642 15.3142C71.8568 15.5165 72.55 15.7858 73.2097 16.1898L73.276 16.3921L73.1769 16.628L73.0121 16.6956C72.3523 16.3927 71.7583 16.1569 71.2633 16.0222C70.7684 15.8875 70.2735 15.8199 69.8448 15.8199C69.0859 15.8199 68.5253 15.9881 68.0961 16.3251C67.6674 16.662 67.4692 17.1331 67.4692 17.7395C67.4692 18.4128 67.865 19.0192 68.6567 19.4903C69.4484 19.9619 70.4383 20.1972 71.6258 20.1972C72.7148 20.1972 73.9351 19.8267 75.1889 19.0521C76.4755 18.3111 77.7622 17.2002 79.115 15.7523C76.5418 15.4829 74.4963 14.8766 72.9787 13.9339C71.4938 12.9911 70.735 11.8796 70.735 10.5999C70.735 9.69072 71.1308 8.94972 71.9559 8.41102C72.7476 7.87231 73.8366 7.56943 75.1889 7.56943C76.5412 7.56943 77.8941 7.77172 79.3127 8.20928C80.7313 8.64684 82.0841 9.2867 83.4699 10.1288C85.2843 7.33361 87.033 5.11117 88.7817 3.46152C90.5304 1.81131 91.9161 0.969727 92.9717 0.969727C93.1037 0.969727 93.2028 1.00325 93.2685 1.03734C93.3347 1.10495 93.3347 1.17202 93.3347 1.3067C93.3347 1.4749 92.7741 2.9569 91.6522 5.75157C90.5299 8.54513 89.408 11.2728 88.4516 13.8998ZM83.0406 10.667C81.754 9.89246 80.5002 9.28614 79.3127 8.88211C78.1252 8.47808 77.0033 8.27578 76.0135 8.27578C74.7925 8.27578 73.8032 8.51161 73.0444 9.01678C72.3184 9.48843 71.9225 10.1283 71.9225 10.9363C71.9225 12.0478 72.6151 12.9906 73.968 13.7651C75.3209 14.5396 77.1681 15.0113 79.5109 15.1795C79.9067 14.809 80.3688 14.2703 80.9295 13.5634C81.4901 12.8565 82.1827 11.8791 83.0406 10.667ZM91.4869 2.28184C90.4313 2.61881 88.4844 5.11061 85.6801 9.75778L84.8556 11.1045C85.3505 11.475 85.8126 11.7779 86.2085 12.0814C86.6043 12.3842 86.9344 12.6536 87.264 12.8894C88.0557 10.2965 88.8146 8.07405 89.5077 6.32269C90.1997 4.53837 90.86 3.19105 91.4869 2.28184ZM88.2534 14.7749C88.1543 15.1789 88.0886 15.5494 88.0223 15.9199C87.9561 16.2904 87.9561 16.6945 87.9561 17.065C87.9561 17.7719 88.0552 18.3782 88.2528 18.8498C88.4505 19.3215 88.7478 19.6914 89.1436 19.9949C89.2756 19.692 89.4075 19.355 89.4737 19.018C89.54 18.6811 89.5728 18.3447 89.5728 17.9742C89.5728 17.3678 89.4737 16.7956 89.2761 16.2904C89.0122 15.7853 88.6826 15.2801 88.2534 14.7749Z" fill="#0F9C7D"></path><path d="M92.6079 20.1291L95.0821 11.9127C95.1812 11.6434 95.2469 11.4411 95.346 11.3405C95.4451 11.2393 95.5442 11.1723 95.709 11.1382L96.666 10.9024C96.666 10.9024 96.6988 10.9024 96.7322 10.9024C96.7656 10.9024 96.7985 10.9024 96.8642 10.9024C96.9304 10.9024 96.9961 10.9359 97.029 10.97C97.0618 11.0041 97.0952 11.0711 97.0952 11.1382C97.0952 11.1717 97.0952 11.2058 97.0952 11.2393C97.0952 11.2729 97.0952 11.3069 97.0624 11.3069L95.1817 17.4356C96.6003 15.2131 97.7878 13.5629 98.8111 12.4855C99.8338 11.4081 100.692 10.8694 101.384 10.8694C101.813 10.8694 102.176 11.0376 102.473 11.341C102.77 11.6439 102.935 12.0144 102.935 12.4525C102.935 12.6884 102.869 13.0248 102.771 13.4294C102.672 13.8334 102.474 14.4397 102.21 15.2478C102.144 15.3824 102.078 15.6183 101.979 15.8876C101.352 17.6725 101.055 18.7499 101.055 19.1204C101.055 19.2551 101.122 19.3562 101.22 19.4574C101.319 19.5585 101.451 19.5921 101.583 19.5921C101.979 19.5921 102.672 19.0534 103.596 18.0095C104.519 16.9656 105.806 15.2819 107.456 12.9583C107.488 13.0259 107.522 13.0594 107.522 13.1265C107.522 13.1941 107.555 13.2276 107.555 13.2947C107.555 13.6987 107.027 14.5744 106.004 15.9547C105.806 16.224 105.641 16.4599 105.509 16.5945C104.387 18.1101 103.464 19.1875 102.738 19.8273C102.012 20.4672 101.385 20.7701 100.857 20.7701C100.395 20.7701 99.9992 20.6019 99.6696 20.2649C99.3728 19.9279 99.2075 19.5239 99.2075 19.0187C99.2075 18.6482 99.4714 17.7055 99.9663 16.1564C100.165 15.5842 100.329 15.1125 100.428 14.7756C100.659 14.001 100.857 13.4623 100.956 13.1254C101.055 12.7884 101.121 12.5531 101.121 12.452C101.121 12.3508 101.088 12.2497 100.989 12.1491C100.89 12.0479 100.791 12.0144 100.692 12.0144C100.362 12.0144 99.8344 12.3849 99.1418 13.0918C98.4492 13.7987 97.657 14.8091 96.7662 16.0888C96.3375 16.7286 95.9417 17.335 95.6115 17.8737C95.2814 18.4124 95.0175 18.9511 94.8198 19.4563C94.787 19.5574 94.7207 19.6921 94.655 19.8603C94.5231 20.2643 94.292 20.5001 93.9953 20.5337L92.9726 20.736H92.8406C92.7744 20.736 92.7087 20.7024 92.6424 20.6684C92.6096 20.6348 92.5762 20.5672 92.5762 20.4661C92.5762 20.3649 92.5762 20.2979 92.5762 20.2638C92.5762 20.2297 92.5751 20.1632 92.6079 20.1291Z" fill="#0F9C7D"></path><path d="M105.211 20.1291L107.685 11.9127C107.784 11.6434 107.85 11.4411 107.949 11.3405C108.048 11.2393 108.147 11.1723 108.312 11.1382L109.269 10.9024C109.269 10.9024 109.302 10.9024 109.335 10.9024C109.368 10.9024 109.402 10.9024 109.467 10.9024C109.533 10.9024 109.599 10.9359 109.632 10.97C109.665 11.0035 109.698 11.0711 109.698 11.1382C109.698 11.1717 109.698 11.2058 109.698 11.2393C109.698 11.2729 109.698 11.3069 109.665 11.3069L107.785 17.4356C109.203 15.2131 110.391 13.5629 111.414 12.4855C112.437 11.4081 113.295 10.8694 113.987 10.8694C114.416 10.8694 114.779 11.0376 115.076 11.341C115.373 11.6439 115.538 12.0144 115.538 12.4525C115.538 12.6884 115.472 13.0248 115.374 13.4294C115.275 13.8334 115.077 14.4397 114.813 15.2478C114.747 15.3824 114.681 15.6183 114.582 15.8876C113.955 17.6725 113.658 18.7499 113.658 19.1204C113.658 19.2551 113.725 19.3562 113.823 19.4574C113.922 19.5585 114.054 19.5921 114.186 19.5921C114.582 19.5921 115.275 19.0534 116.199 18.0095C117.122 16.9656 118.409 15.2819 120.059 12.9583C120.091 13.0259 120.125 13.0594 120.125 13.1265C120.125 13.1941 120.158 13.2276 120.158 13.2947C120.158 13.6987 119.63 14.5744 118.607 15.9547C118.409 16.224 118.244 16.4599 118.112 16.5945C116.99 18.1101 116.067 19.1875 115.341 19.8273C114.615 20.4672 113.988 20.7701 113.46 20.7701C112.998 20.7701 112.602 20.6019 112.273 20.2649C111.976 19.9279 111.811 19.5239 111.811 19.0187C111.811 18.6482 112.074 17.7055 112.569 16.1564C112.768 15.5842 112.932 15.1125 113.031 14.7756C113.262 14.001 113.46 13.4623 113.559 13.1254C113.658 12.7884 113.724 12.5531 113.724 12.452C113.724 12.3508 113.691 12.2497 113.592 12.1491C113.493 12.0479 113.394 12.0144 113.295 12.0144C112.965 12.0144 112.437 12.3849 111.745 13.0918C111.052 13.7987 110.26 14.8091 109.369 16.0888C108.941 16.7286 108.545 17.335 108.215 17.8737C107.884 18.4124 107.621 18.9511 107.423 19.4563C107.39 19.5574 107.324 19.6921 107.258 19.8603C107.126 20.2643 106.895 20.5001 106.598 20.5337L105.576 20.736H105.444C105.377 20.736 105.312 20.7024 105.245 20.6684C105.213 20.6348 105.179 20.5672 105.179 20.4661C105.179 20.3649 105.179 20.2979 105.179 20.2638C105.179 20.2297 105.178 20.1632 105.211 20.1291Z" fill="#0F9C7D"></path><path d="M133.485 10.9699C130.747 10.8687 128.701 10.4312 127.282 9.65666C125.864 8.88213 125.17 7.83824 125.17 6.45739C125.17 5.17769 125.83 4.16734 127.15 3.39281C128.47 2.61828 130.251 2.24777 132.495 2.24777C133.55 2.24777 134.573 2.3154 135.596 2.4836C136.619 2.65181 137.609 2.8541 138.565 3.15699C139.588 2.24778 140.578 1.54086 141.534 1.06922C142.458 0.597569 143.349 0.362305 144.14 0.362305C144.998 0.362305 145.691 0.59813 146.186 1.10331C146.681 1.60848 146.944 2.24833 146.944 3.05639C146.944 3.93207 146.648 4.84127 146.021 5.75048C145.394 6.65969 144.503 7.50127 143.349 8.2758V8.51162C143.349 9.85839 142.886 11.0034 141.93 12.0138C140.973 13.0241 139.588 13.7987 137.773 14.3709L137.575 14.3033L137.508 14.0674L137.607 13.9328C139.257 13.3264 140.511 12.6195 141.369 11.7439C142.227 10.8682 142.655 9.89192 142.655 8.78042V8.7128C141.666 9.25151 140.61 9.72316 139.455 10.0937C138.301 10.4642 137.08 10.7335 135.727 10.9352C135.563 11.474 135.463 12.0127 135.364 12.619C135.298 13.2253 135.232 13.8311 135.232 14.4709C135.232 16.2893 135.727 17.7037 136.684 18.7141C137.641 19.7244 138.96 20.2631 140.643 20.2631C142.193 20.2631 143.678 19.6909 145.13 18.5123C146.581 17.3338 148.165 15.3807 149.946 12.6866C149.979 12.7542 150.013 12.8213 150.013 12.9224C150.046 12.99 150.046 13.0571 150.046 13.0906C150.046 13.3935 149.881 13.7975 149.518 14.3368C149.155 14.8761 148.594 15.65 147.769 16.6269C146.515 18.1424 145.261 19.2533 144.041 19.9608C142.82 20.6342 141.501 21.0047 140.082 21.0047C138.037 21.0047 136.354 20.3648 135.034 19.0516C133.748 17.7384 133.088 16.0882 133.088 14.0004C133.088 13.5287 133.121 13.0236 133.187 12.5525C133.254 12.0138 133.353 11.5086 133.485 10.9699ZM133.65 10.3636C134.079 9.11739 134.673 7.93883 135.399 6.79436C136.125 5.68286 137.016 4.60545 138.038 3.66272C137.279 3.4269 136.521 3.22516 135.663 3.12401C134.838 2.98933 133.947 2.92172 132.99 2.92172C131.11 2.92172 129.625 3.29221 128.47 3.99913C127.315 4.70604 126.755 5.61525 126.755 6.76028C126.755 7.90531 127.349 8.78098 128.536 9.42027C129.757 9.99307 131.439 10.33 133.65 10.3636ZM135.959 10.263C137.246 10.0948 138.434 9.7578 139.555 9.32024C140.677 8.88269 141.7 8.30989 142.624 7.63651C142.459 6.82845 142.063 6.15507 141.535 5.54875C140.974 4.94243 140.248 4.43725 139.291 4.03322C138.631 4.94242 138.004 5.88516 137.443 6.92904C136.882 7.97293 136.388 9.08386 135.959 10.263ZM139.655 3.56157C140.612 3.99913 141.37 4.53839 141.931 5.11062C142.492 5.68286 142.888 6.35681 143.119 7.13134C143.877 6.42443 144.471 5.68342 144.9 4.90889C145.329 4.13436 145.56 3.46098 145.56 2.85466C145.56 2.31596 145.395 1.84431 145.098 1.54142C144.768 1.20445 144.339 1.03624 143.811 1.03624C143.184 1.03624 142.492 1.27207 141.766 1.70963C141.073 2.11366 140.347 2.75351 139.655 3.56157Z" fill="#0F9C7D"></path><path d="M153.115 16.2569C152.225 17.873 151.433 19.0181 150.74 19.7591C150.047 20.466 149.387 20.8365 148.76 20.8365C148.067 20.8365 147.506 20.5671 147.078 20.0284C146.682 19.4897 146.451 18.7487 146.451 17.806C146.451 16.9644 146.682 16.0552 147.177 15.146C147.672 14.2032 148.364 13.3611 149.222 12.5195C149.816 11.9808 150.476 11.5427 151.168 11.2398C151.861 10.9369 152.587 10.8022 153.313 10.8022C153.742 10.8022 154.138 10.8358 154.567 10.9369C154.996 11.0381 155.359 11.1727 155.754 11.3409L155.886 11.5432V11.6109C155.886 11.8467 155.787 12.2842 155.556 12.9917C155.424 13.3622 155.358 13.6651 155.292 13.8674L154.038 18.2452C154.038 18.2787 154.006 18.2787 154.006 18.3128C153.907 18.7169 153.874 19.0197 153.874 19.222C153.874 19.3567 153.94 19.4914 154.038 19.6261C154.138 19.7272 154.27 19.7943 154.401 19.7943C154.83 19.7943 155.49 19.2891 156.381 18.2787C157.272 17.2684 158.559 15.4835 160.307 12.9247C160.34 12.9923 160.34 13.0593 160.374 13.1269C160.374 13.1946 160.406 13.2616 160.406 13.3292C160.406 13.6321 160.11 14.2049 159.549 15.013L159.417 15.2153L159.252 15.4511C156.612 19.0203 154.765 20.8052 153.709 20.8052C153.28 20.8052 152.917 20.6705 152.686 20.4347C152.455 20.1989 152.323 19.8624 152.323 19.3908C152.323 19.155 152.389 18.7845 152.521 18.2458C152.62 17.806 152.818 17.0985 153.115 16.2569ZM154.468 11.9126C154.336 11.778 154.138 11.6768 153.907 11.5757C153.676 11.508 153.445 11.441 153.214 11.441C152.786 11.441 152.324 11.6092 151.829 11.9797C151.334 12.3502 150.839 12.8889 150.311 13.6299C149.619 14.6067 149.124 15.5159 148.761 16.3575C148.398 17.1991 148.233 17.9401 148.233 18.6135C148.233 18.984 148.299 19.2869 148.464 19.5227C148.629 19.7585 148.827 19.8597 149.091 19.8597C149.75 19.8597 150.542 19.1527 151.532 17.7043C152.521 16.2569 153.478 14.3709 154.468 11.9126Z" fill="#0F9C7D"></path><path d="M165.751 18.614C165.257 19.355 164.696 19.8937 164.135 20.2642C163.574 20.6347 162.98 20.8364 162.353 20.8364C161.495 20.8364 160.803 20.4995 160.308 19.8261C159.813 19.1527 159.549 18.21 159.549 17.0308C159.549 15.65 159.879 13.8992 160.572 11.8785C161.231 9.82425 162.188 7.73649 163.376 5.54758C163.97 4.47017 164.597 3.52687 165.19 2.71881C165.784 1.91075 166.345 1.33796 166.84 0.968018L167.005 1.00155C167.104 1.13622 167.169 1.30443 167.236 1.54025C167.269 1.77608 167.302 2.04543 167.302 2.41593C167.302 4.77305 166.873 6.99548 165.983 9.11734C165.092 11.2392 163.574 13.6634 161.397 16.391C161.397 16.4921 161.364 16.6268 161.364 16.795C161.331 17.0308 161.331 17.199 161.331 17.2667C161.331 18.1423 161.463 18.7822 161.76 19.2533C162.056 19.7244 162.452 19.9602 162.947 19.9602C163.343 19.9602 163.772 19.792 164.234 19.4215C164.696 19.051 165.092 18.5799 165.455 17.94C165.323 17.7042 165.224 17.4349 165.158 17.132C165.092 16.8291 165.059 16.4921 165.059 16.0881C165.059 15.1454 165.224 14.2362 165.554 13.3605C165.884 12.4848 166.313 11.7444 166.873 11.2051H167.005C167.137 11.4074 167.236 11.6427 167.302 11.8785C167.368 12.1143 167.401 12.3837 167.401 12.7201C167.401 13.6969 167.302 14.6061 167.104 15.5153C166.906 16.391 166.577 17.199 166.181 17.906C166.28 18.1418 166.412 18.31 166.544 18.4111C166.676 18.5123 166.84 18.5793 167.039 18.5793C167.501 18.5793 168.094 18.1753 168.787 17.3672C169.513 16.5592 170.569 15.0772 171.987 12.8888C172.02 12.9565 172.054 13.0235 172.054 13.0911C172.087 13.1588 172.087 13.2258 172.087 13.327C172.087 13.6298 171.823 14.1685 171.295 14.9772L171.196 15.1454C170.173 16.6944 169.348 17.7718 168.722 18.3782C168.095 18.9845 167.534 19.2874 167.006 19.2874C166.742 19.2874 166.511 19.2198 166.314 19.1192C166.147 18.9845 165.949 18.8157 165.751 18.614ZM161.529 15.1118C162.98 13.361 164.069 11.6773 164.762 10.0942C165.454 8.51157 165.784 6.8949 165.784 5.27878C165.784 4.94181 165.751 4.6054 165.718 4.30196C165.685 3.99908 165.619 3.69564 165.52 3.39276C164.728 4.43664 163.969 5.98569 163.276 8.00584C162.617 9.99301 162.024 12.3842 161.529 15.1118Z" fill="#0F9C7D"></path><path d="M170.667 17.1997L172.448 11.6098C172.514 11.4416 172.58 11.3404 172.646 11.2728C172.712 11.2052 172.845 11.1381 172.976 11.1046L173.999 10.9023H174.098C174.165 10.9023 174.197 10.9023 174.263 10.9359C174.296 10.9694 174.329 11.0035 174.329 11.0705C174.329 11.1041 174.329 11.1382 174.329 11.1717C174.329 11.2052 174.329 11.2052 174.297 11.2393L172.416 17.2332C172.251 17.7049 172.152 18.1089 172.086 18.4118C172.019 18.7147 171.987 18.9505 171.987 19.0852C171.987 19.3545 172.053 19.5568 172.185 19.6915C172.317 19.8262 172.482 19.8938 172.68 19.8938C173.24 19.8938 174.033 19.2875 175.088 18.1089C176.144 16.9304 177.464 15.1455 179.08 12.7548C179.113 12.8224 179.113 12.923 179.113 12.9571C179.113 12.9912 179.113 13.0583 179.113 13.1253C179.113 13.5629 178.717 14.3374 177.892 15.4824C177.76 15.6507 177.661 15.7853 177.595 15.8865C176.309 17.6373 175.22 18.8834 174.362 19.6244C173.504 20.3654 172.68 20.7359 171.921 20.7359C171.426 20.7359 171.03 20.5677 170.733 20.2643C170.437 19.9609 170.305 19.5233 170.305 19.0181C170.305 18.8499 170.338 18.5806 170.404 18.2771C170.436 17.9742 170.535 17.6373 170.667 17.1997ZM174.857 8.54521C174.494 8.54521 174.131 8.44406 173.768 8.24233C173.405 8.04003 173.24 7.8383 173.24 7.67009C173.24 7.50188 173.339 7.23253 173.537 6.86203C173.735 6.49153 173.9 6.28979 173.965 6.28979C174.064 6.28979 174.229 6.35741 174.427 6.49209C174.626 6.62677 174.758 6.72792 174.823 6.76145C174.889 6.79498 174.955 6.82906 175.021 6.86259C175.285 6.99727 175.417 7.13194 175.417 7.26662C175.417 7.73827 175.384 8.07468 175.285 8.24344C175.22 8.44462 175.088 8.54521 174.857 8.54521Z" fill="#0F9C7D"></path><path d="M176.705 20.1291L179.179 11.9127C179.278 11.6434 179.344 11.4411 179.443 11.3405C179.542 11.2393 179.641 11.1723 179.806 11.1382L180.763 10.9024C180.763 10.9024 180.796 10.9024 180.829 10.9024C180.862 10.9024 180.895 10.9024 180.961 10.9024C181.027 10.9024 181.093 10.9359 181.126 10.97C181.159 11.0041 181.192 11.0711 181.192 11.1382C181.192 11.1717 181.192 11.2058 181.192 11.2393C181.192 11.2729 181.192 11.3069 181.159 11.3069L179.278 17.4356C180.697 15.2131 181.885 13.5629 182.907 12.4855C183.93 11.4081 184.788 10.8694 185.481 10.8694C185.909 10.8694 186.272 11.0376 186.57 11.341C186.866 11.6439 187.032 12.0144 187.032 12.4525C187.032 12.6884 186.965 13.0248 186.867 13.4294C186.768 13.8334 186.57 14.4397 186.306 15.2478C186.24 15.3824 186.174 15.6183 186.075 15.8876C185.448 17.6725 185.151 18.7499 185.151 19.1204C185.151 19.2551 185.218 19.3562 185.316 19.4574C185.415 19.5585 185.547 19.5921 185.679 19.5921C186.075 19.5921 186.768 19.0534 187.692 18.0095C188.616 16.9656 189.902 15.2819 191.552 12.9583C191.585 13.0259 191.618 13.0594 191.618 13.1265C191.618 13.1941 191.651 13.2276 191.651 13.2947C191.651 13.6987 191.123 14.5744 190.1 15.9547C189.902 16.224 189.737 16.4599 189.605 16.5945C188.484 18.1101 187.56 19.1875 186.834 19.8273C186.108 20.4672 185.481 20.7701 184.953 20.7701C184.491 20.7701 184.095 20.6019 183.766 20.2649C183.469 19.9279 183.304 19.5239 183.304 19.0187C183.304 18.6482 183.568 17.7055 184.063 16.1564C184.261 15.5842 184.426 15.1125 184.525 14.7756C184.756 14.001 184.953 13.4623 185.052 13.1254C185.151 12.7884 185.217 12.5531 185.217 12.452C185.217 12.3508 185.184 12.2497 185.085 12.1491C184.986 12.0479 184.887 12.0144 184.789 12.0144C184.458 12.0144 183.931 12.3849 183.238 13.0918C182.545 13.7987 181.753 14.8091 180.862 16.0888C180.434 16.7286 180.038 17.335 179.708 17.8737C179.378 18.4124 179.114 18.9511 178.916 19.4563C178.883 19.5574 178.817 19.6921 178.751 19.8603C178.619 20.2643 178.388 20.5001 178.091 20.5337L177.069 20.736H176.937C176.871 20.736 176.805 20.7024 176.739 20.6684C176.706 20.6348 176.672 20.5672 176.672 20.4661C176.672 20.3649 176.672 20.2979 176.672 20.2638C176.672 20.2297 176.672 20.1632 176.705 20.1291Z" fill="#0F9C7D"></path><path d="M201.515 12.8558C201.548 12.8894 201.548 12.9235 201.581 12.9905C201.614 13.0581 201.614 13.1252 201.614 13.1928C201.614 13.4622 201.515 13.7991 201.317 14.2032C201.119 14.6072 200.822 15.1124 200.426 15.6846C199.205 17.3683 197.952 18.6816 196.665 19.5908C195.378 20.5 194.092 20.9716 192.871 20.9716C191.881 20.9716 191.089 20.6347 190.495 19.9948C189.901 19.355 189.604 18.4793 189.604 17.4019C189.604 16.6609 189.769 15.9204 190.067 15.1459C190.397 14.3714 190.858 13.6304 191.452 12.8899C192.013 12.2166 192.64 11.7114 193.3 11.3073C193.993 10.9368 194.653 10.7351 195.313 10.7351C195.972 10.7351 196.534 10.9374 196.962 11.3073C197.391 11.6778 197.622 12.1489 197.622 12.7217C197.622 13.6309 197.061 14.5737 195.94 15.4829C194.818 16.4256 193.334 17.1666 191.486 17.7388C191.486 18.4798 191.684 19.0856 192.046 19.5237C192.409 19.9618 192.937 20.1636 193.564 20.1636C194.719 20.1636 196.005 19.5237 197.424 18.244C198.776 16.9302 200.162 15.1453 201.515 12.8558ZM191.419 17.0649C192.738 16.762 193.827 16.1892 194.652 15.3141C195.51 14.4384 195.906 13.4957 195.906 12.4853C195.906 12.1484 195.839 11.879 195.675 11.6773C195.51 11.475 195.279 11.4079 194.982 11.4079C194.256 11.4079 193.531 11.9466 192.837 13.0241C192.145 14.1015 191.683 15.4482 191.419 17.0649Z" fill="#0F9C7D"></path><path d="M200.36 16.2904L201.514 12.1819H199.964L199.898 12.0137L200.03 11.6097L200.162 11.475H201.745L202.867 7.80462C202.933 7.5688 202.999 7.4006 203.098 7.33298C203.164 7.23183 203.296 7.16478 203.428 7.16478L204.418 6.92896H204.517C204.583 6.92896 204.649 6.92895 204.682 6.96248C204.715 6.99601 204.715 7.0301 204.715 7.09716C204.715 7.16478 204.715 7.1983 204.715 7.23183C204.715 7.26536 204.715 7.29945 204.682 7.33298L203.56 11.475H205.011L205.044 11.6097L204.978 12.0813L204.879 12.1824H203.394L201.744 18.0082C201.678 18.244 201.612 18.4798 201.58 18.6816C201.547 18.8839 201.513 19.0856 201.513 19.2538C201.513 19.4561 201.58 19.6243 201.711 19.759C201.843 19.8937 202.008 19.9613 202.174 19.9613C202.768 19.9613 203.559 19.389 204.582 18.2105C205.605 17.0319 206.891 15.247 208.409 12.8564C208.442 12.8899 208.442 12.9575 208.442 13.0246C208.442 13.0922 208.442 13.1593 208.442 13.2604C208.442 13.698 208.013 14.5066 207.188 15.7187L207.155 15.7863C205.869 17.6047 204.813 18.918 203.955 19.726C203.097 20.5005 202.306 20.9046 201.613 20.9046C201.019 20.9046 200.59 20.7364 200.26 20.4329C199.93 20.13 199.765 19.6919 199.765 19.1197C199.765 18.8839 199.831 18.5475 199.93 18.0758C199.997 17.5701 200.162 16.9637 200.36 16.2904Z" fill="#0F9C7D"></path><path d="M211.511 20.23C211.049 20.4659 210.587 20.6005 210.158 20.7352C209.729 20.8364 209.3 20.9034 208.904 20.9034C208.08 20.9034 207.419 20.7688 206.924 20.4659C206.429 20.163 206.166 19.7925 206.166 19.3208C206.166 18.9503 206.33 18.6475 206.628 18.4116C206.924 18.1758 207.32 18.0411 207.782 18.0411C207.914 18.0411 208.046 18.0411 208.178 18.0747C208.31 18.1082 208.442 18.1423 208.541 18.1758V18.277C208.376 18.3781 208.244 18.5128 208.145 18.7145C208.046 18.8827 207.98 19.085 207.98 19.2532C207.98 19.5561 208.112 19.7919 208.409 19.9601C208.673 20.1283 209.036 20.2295 209.465 20.2295C210.157 20.2295 210.719 20.0613 211.147 19.7243C211.576 19.3873 211.807 18.9498 211.807 18.4111C211.807 18.0741 211.708 17.7377 211.51 17.4683C211.312 17.1654 210.85 16.7614 210.124 16.1886C209.267 15.5152 208.706 15.0101 208.442 14.6731C208.211 14.3361 208.079 13.9662 208.079 13.5957C208.079 12.8547 208.475 12.1813 209.3 11.6091C210.124 11.0368 211.114 10.7334 212.236 10.7334C212.896 10.7334 213.391 10.8345 213.721 11.0363C214.051 11.2386 214.216 11.575 214.216 12.0131C214.216 12.3501 214.018 12.653 213.655 12.9558C213.292 13.2252 212.83 13.3934 212.27 13.4275L212.17 13.2928C212.335 13.1581 212.501 12.9899 212.566 12.7876C212.665 12.6194 212.698 12.4171 212.698 12.2154C212.698 11.9796 212.599 11.7778 212.368 11.6091C212.17 11.4409 211.873 11.3732 211.51 11.3732C210.982 11.3732 210.52 11.5079 210.191 11.7773C209.861 12.0466 209.663 12.3836 209.663 12.7876C209.663 13.2928 210.158 13.9327 211.148 14.6396C211.478 14.9089 211.775 15.1112 211.939 15.2459C212.434 15.6499 212.797 16.0204 213.028 16.3909C213.259 16.7614 213.359 17.1319 213.359 17.536C213.359 17.8388 213.292 18.1082 213.16 18.3775C213.028 18.6469 212.83 18.9498 212.533 19.2532C213.259 19.1185 214.117 18.5122 215.14 17.3672C216.162 16.2222 217.251 14.6396 218.439 12.5853C218.472 12.6189 218.505 12.653 218.538 12.72C218.571 12.7876 218.571 12.8547 218.571 12.9223C218.571 13.1917 218.439 13.5957 218.175 14.0673C217.911 14.5725 217.548 15.1447 217.053 15.8522C215.998 17.3001 215.04 18.3775 214.15 19.0515C213.391 19.7249 212.468 20.1289 211.511 20.23Z" fill="#0F9C7D"></path><path d="M82.1826 36.0908H80.9951L82.1826 30.3662H85.3171L85.1189 31.3766H83.1725L82.8758 32.858H84.6902L84.4591 33.8348H82.6447L82.1826 36.0908Z" fill="#0F9C7D"></path><path d="M86.5378 36.1584C86.1748 36.1584 85.8781 36.0237 85.647 35.7544C85.416 35.485 85.3169 35.081 85.3169 34.5758C85.3169 34.0707 85.416 33.5655 85.5808 33.0944C85.7456 32.6228 86.0095 32.2528 86.3068 32.017C86.6035 31.7476 86.9337 31.6465 87.2967 31.6465C87.5605 31.6465 87.7587 31.7141 87.9564 31.8147C88.1212 31.9158 88.2865 32.084 88.3851 32.2863H88.4179L88.649 31.7141H89.5398L88.6161 36.0919H87.7253L87.7916 35.5197C87.4286 35.9226 86.9994 36.1584 86.5378 36.1584ZM86.9994 35.2157C87.1642 35.2157 87.3624 35.1145 87.4943 34.9463C87.6591 34.7781 87.791 34.5423 87.8901 34.2394C87.9892 33.9365 88.0549 33.5996 88.0549 33.2291C88.0549 33.0268 87.9887 32.8921 87.923 32.7574C87.8567 32.6228 87.692 32.5892 87.5272 32.5892C87.3624 32.5892 87.197 32.6904 87.0322 32.8586C86.8674 33.0609 86.7355 33.2961 86.6692 33.5996C86.603 33.903 86.5373 34.2059 86.5373 34.5088C86.5373 34.7446 86.5701 34.9128 86.6692 35.014C86.7683 35.1145 86.8346 35.2157 86.9994 35.2157Z" fill="#0F9C7D"></path><path d="M92.9054 31.6123C93.466 31.6123 93.7962 31.9152 93.9281 32.5215H93.961C94.1258 32.2186 94.3568 32.0163 94.5878 31.8481C94.8189 31.6799 95.0828 31.6123 95.3467 31.6123C95.7097 31.6123 95.9736 31.7134 96.1384 31.9493C96.3366 32.1851 96.4023 32.488 96.4023 32.892C96.4023 33.0943 96.3694 33.3296 96.3032 33.5989L95.8082 36.0907H94.6535L95.1813 33.5313C95.2142 33.3631 95.2476 33.1943 95.2476 33.0597C95.2476 32.7227 95.1156 32.588 94.8846 32.588C94.6535 32.588 94.4225 32.7227 94.2577 33.0256C94.0595 33.3284 93.9276 33.7325 93.7956 34.2717L93.4326 36.0902H92.2779L92.8057 33.5307C92.8386 33.3625 92.872 33.1938 92.872 33.0591C92.872 32.7221 92.74 32.5874 92.509 32.5874C92.2779 32.5874 92.0469 32.7221 91.8821 33.025C91.6839 33.3279 91.552 33.7319 91.42 34.2712L91.057 36.0896H89.9023L90.826 31.7118H91.7168L91.6505 32.5198H91.6834C91.9155 31.9152 92.3776 31.6123 92.9054 31.6123Z" fill="#0F9C7D"></path><path d="M98.0848 36.0906H96.9302L97.8538 31.7128H99.0085L98.0848 36.0906ZM98.0192 30.6695C98.0192 30.4336 98.0854 30.2654 98.2173 30.1643C98.3493 30.0631 98.5141 29.9961 98.7451 29.9961C98.9433 29.9961 99.0753 30.0296 99.1738 30.1308C99.2729 30.1984 99.3058 30.3331 99.3058 30.4677C99.3058 30.67 99.2395 30.8382 99.141 30.9729C99.0424 31.1076 98.8442 31.1752 98.6132 31.1752C98.2168 31.1406 98.0192 30.9724 98.0192 30.6695Z" fill="#0F9C7D"></path><path d="M100.394 36.0907H99.2393L100.493 29.9956H101.648L100.394 36.0907Z" fill="#0F9C7D"></path><path d="M101.846 31.6793H102.968L103.199 33.7C103.232 34.0029 103.265 34.4069 103.265 34.845H103.298C103.365 34.7103 103.397 34.5421 103.463 34.3734C103.529 34.2046 103.595 34.0029 103.727 33.767L104.717 31.6458H105.971L103.365 36.6634C102.902 37.5391 102.276 37.9767 101.517 37.9767C101.286 37.9767 101.088 37.9431 100.956 37.909V36.9663C101.121 36.9998 101.286 37.0339 101.418 37.0339C101.649 37.0339 101.814 36.9663 101.979 36.8316C102.144 36.697 102.276 36.4947 102.441 36.2594L102.54 36.0571L101.846 31.6793Z" fill="#0F9C7D"></path><path d="M113.063 32.3869C113.063 33.1279 112.931 33.8013 112.667 34.3735C112.403 34.9458 112.073 35.3839 111.612 35.6868C111.183 35.9896 110.655 36.1243 110.094 36.1243C109.434 36.1243 108.939 35.922 108.544 35.5521C108.181 35.1816 107.983 34.6429 107.983 33.936C107.983 33.2291 108.115 32.5892 108.379 32.0164C108.643 31.4442 108.973 30.9725 109.434 30.6696C109.896 30.3668 110.391 30.198 110.985 30.198C111.645 30.198 112.14 30.4003 112.503 30.7702C112.865 31.1407 113.063 31.7135 113.063 32.3869ZM110.919 31.2754C110.622 31.2754 110.325 31.4101 110.061 31.6459C109.797 31.8817 109.599 32.2181 109.467 32.6227C109.335 33.0273 109.236 33.4984 109.236 33.9695C109.236 34.34 109.335 34.6429 109.499 34.8452C109.664 35.0475 109.895 35.1481 110.225 35.1481C110.556 35.1481 110.82 35.0469 111.083 34.8111C111.347 34.5753 111.545 34.2724 111.677 33.8343C111.809 33.4302 111.908 32.9586 111.908 32.4199C111.908 32.0494 111.809 31.7465 111.645 31.5442C111.446 31.3766 111.215 31.2754 110.919 31.2754Z" fill="#0F9C7D"></path><path d="M116.593 32.6898C116.429 33.1614 116.263 33.5655 116.131 33.936L115.241 36.0573H113.987L113.789 31.6794H114.878V33.6325V34.2724L114.845 34.9458C114.845 34.8781 114.878 34.8446 114.911 34.7776C114.944 34.7105 115.01 34.5417 115.109 34.2389C115.208 33.936 115.274 33.7672 115.274 33.7672L116.165 31.6794H117.419V33.7672C117.419 34.1377 117.419 34.5417 117.386 34.9458H117.419L117.518 34.6429C117.716 34.1042 117.814 33.7672 117.881 33.6325L118.739 31.6794H119.926L117.881 36.0573H116.627L116.594 34.003C116.593 33.6325 116.593 33.195 116.593 32.6898Z" fill="#0F9C7D"></path><path d="M123.258 36.0906H122.103L122.631 33.5312C122.664 33.363 122.697 33.1942 122.697 33.0596C122.697 32.7226 122.565 32.5879 122.268 32.5879C122.037 32.5879 121.806 32.7226 121.641 33.0255C121.443 33.3283 121.311 33.7324 121.179 34.2716L120.816 36.0901H119.662L120.585 31.7122H121.476L121.41 32.5203H121.443C121.806 31.914 122.267 31.6111 122.796 31.6111C123.159 31.6111 123.422 31.7122 123.62 31.9481C123.818 32.1503 123.917 32.4868 123.917 32.8908C123.917 33.0931 123.884 33.3283 123.818 33.5977L123.258 36.0906Z" fill="#0F9C7D"></path><path d="M126.326 36.1583C125.798 36.1583 125.369 36.0236 125.072 35.7207C124.775 35.4178 124.61 35.0138 124.61 34.4745C124.61 33.9353 124.709 33.4306 124.94 32.9931C125.138 32.5555 125.435 32.2185 125.798 31.9827C126.161 31.7469 126.557 31.6458 127.019 31.6458C127.481 31.6458 127.811 31.7469 128.074 31.9486C128.338 32.1509 128.47 32.4538 128.47 32.8243C128.47 33.3295 128.272 33.7 127.843 33.9693C127.415 34.2387 126.821 34.3734 125.996 34.3734H125.797V34.441V34.5086C125.797 34.7444 125.864 34.9462 125.996 35.0808C126.128 35.2155 126.326 35.2831 126.556 35.2831C126.787 35.2831 126.985 35.2496 127.15 35.2155C127.348 35.182 127.546 35.0808 127.81 34.9462V35.8218C127.381 36.0571 126.887 36.1583 126.326 36.1583ZM126.953 32.4538C126.722 32.4538 126.524 32.555 126.326 32.7567C126.128 32.959 125.996 33.2283 125.93 33.5312H126.095C126.491 33.5312 126.787 33.4636 127.018 33.3289C127.249 33.1942 127.348 33.026 127.348 32.8238C127.348 32.5885 127.217 32.4538 126.953 32.4538Z" fill="#0F9C7D"></path><path d="M130.219 36.1583C129.856 36.1583 129.559 36.0236 129.328 35.7543C129.097 35.4849 128.998 35.0809 128.998 34.5757C128.998 34.0706 129.097 33.5654 129.262 33.0943C129.46 32.6226 129.691 32.2527 129.988 32.0169C130.285 31.7475 130.615 31.6129 130.978 31.6129C131.176 31.6129 131.374 31.6464 131.506 31.7475C131.638 31.8487 131.802 32.0169 131.934 32.2527H131.967V32.1516C131.967 31.8487 132 31.6129 132.066 31.377L132.363 29.9626H133.518L132.264 36.0577H131.373L131.439 35.4855C131.241 35.7213 131.076 35.8895 130.879 35.9907C130.681 36.0907 130.45 36.1583 130.219 36.1583ZM130.714 35.2156C130.879 35.2156 131.044 35.1144 131.209 34.9462C131.374 34.778 131.506 34.5422 131.605 34.2393C131.704 33.9364 131.737 33.633 131.737 33.2625C131.737 33.0602 131.704 32.892 131.605 32.7573C131.506 32.6227 131.374 32.555 131.209 32.555C131.044 32.555 130.879 32.6562 130.714 32.8244C130.549 33.0267 130.417 33.2619 130.351 33.5654C130.285 33.8688 130.219 34.1717 130.219 34.4746C130.186 34.9798 130.351 35.2156 130.714 35.2156Z" fill="#0F9C7D"></path><path d="M140.48 36.0908H139.127L138.863 35.7203C138.401 36.0232 137.906 36.1919 137.312 36.1919C136.784 36.1919 136.355 36.0573 136.091 35.8214C135.795 35.5521 135.663 35.2151 135.663 34.7099C135.663 34.3394 135.762 34.003 135.959 33.7331C136.158 33.4638 136.52 33.1944 137.015 32.9586C136.817 32.6216 136.718 32.2852 136.718 31.9482C136.718 31.4431 136.883 31.039 137.18 30.7361C137.477 30.4333 137.873 30.2986 138.401 30.2986C138.83 30.2986 139.16 30.3997 139.424 30.6356C139.688 30.8714 139.787 31.1407 139.787 31.5112C139.787 32.2522 139.325 32.7909 138.368 33.195L139.127 34.2389C139.226 34.1042 139.358 33.936 139.424 33.7672C139.523 33.599 139.622 33.3632 139.721 33.0938H140.875C140.545 33.9019 140.149 34.5753 139.688 35.0469L140.48 36.0908ZM137.444 33.6325C137.213 33.7672 137.048 33.9019 136.982 34.0366C136.883 34.1712 136.85 34.3394 136.85 34.5417C136.85 34.7099 136.916 34.8446 137.015 34.9793C137.114 35.114 137.279 35.1475 137.477 35.1475C137.774 35.1475 138.071 35.0799 138.335 34.9117L137.444 33.6325ZM137.906 32.454C138.203 32.2858 138.401 32.1511 138.5 32.0164C138.599 31.8817 138.665 31.7471 138.665 31.5788C138.665 31.4442 138.632 31.3095 138.566 31.2419C138.5 31.1743 138.401 31.1407 138.302 31.1407C138.137 31.1407 138.005 31.2084 137.906 31.3089C137.807 31.4436 137.774 31.5783 137.774 31.7806C137.774 31.9153 137.774 32.0164 137.807 32.1511C137.841 32.2858 137.873 32.3869 137.906 32.454Z" fill="#0F9C7D"></path><path d="M148.496 32.3869C148.496 33.1279 148.364 33.8013 148.1 34.3735C147.837 34.9458 147.506 35.3839 147.045 35.6868C146.616 35.9896 146.088 36.1243 145.527 36.1243C144.867 36.1243 144.373 35.922 143.977 35.5521C143.614 35.1816 143.416 34.6429 143.416 33.936C143.416 33.2291 143.548 32.5892 143.812 32.0164C144.076 31.4442 144.406 30.9725 144.867 30.6696C145.329 30.3668 145.824 30.198 146.418 30.198C147.078 30.198 147.573 30.4003 147.936 30.7702C148.299 31.1407 148.496 31.7135 148.496 32.3869ZM146.352 31.2754C146.055 31.2754 145.758 31.4101 145.494 31.6459C145.23 31.8817 145.032 32.2181 144.9 32.6227C144.768 33.0273 144.669 33.4984 144.669 33.9695C144.669 34.34 144.768 34.6429 144.933 34.8452C145.097 35.0475 145.328 35.1481 145.659 35.1481C145.989 35.1481 146.253 35.0469 146.517 34.8111C146.78 34.5753 146.979 34.2724 147.111 33.8343C147.243 33.4302 147.342 32.9586 147.342 32.4199C147.342 32.0494 147.243 31.7465 147.078 31.5442C146.88 31.3766 146.649 31.2754 146.352 31.2754Z" fill="#0F9C7D"></path><path d="M151.862 31.6123C152.225 31.6123 152.522 31.747 152.753 32.0499C152.984 32.3192 153.083 32.7232 153.083 33.2284C153.083 33.7336 152.984 34.2052 152.819 34.6763C152.654 35.1474 152.39 35.5179 152.093 35.7878C151.796 36.0572 151.466 36.1919 151.07 36.1919C150.872 36.1919 150.675 36.1583 150.51 36.0572C150.345 35.956 150.213 35.7878 150.081 35.552H150.048C150.015 35.956 149.949 36.3601 149.883 36.697L149.62 38.0438H148.465L149.784 31.7129H150.675L150.609 32.3863H150.642C151.004 31.8481 151.4 31.6123 151.862 31.6123ZM151.4 32.555C151.235 32.555 151.07 32.6562 150.905 32.8244C150.74 32.9926 150.608 33.2284 150.509 33.5313C150.41 33.8342 150.377 34.1376 150.377 34.5081C150.377 34.7104 150.41 34.8786 150.509 35.0133C150.608 35.148 150.74 35.2156 150.905 35.2156C151.07 35.2156 151.235 35.1144 151.4 34.9462C151.565 34.778 151.697 34.5087 151.763 34.2052C151.862 33.9024 151.895 33.5654 151.895 33.2625C151.895 32.7909 151.73 32.555 151.4 32.555Z" fill="#0F9C7D"></path><path d="M155.458 36.1583C154.93 36.1583 154.502 36.0236 154.204 35.7207C153.908 35.4178 153.742 35.0138 153.742 34.4745C153.742 33.9353 153.841 33.4306 154.072 32.9931C154.271 32.5555 154.567 32.2185 154.93 31.9827C155.293 31.7469 155.689 31.6458 156.151 31.6458C156.613 31.6458 156.943 31.7469 157.207 31.9486C157.471 32.1504 157.603 32.4538 157.603 32.8243C157.603 33.3295 157.404 33.7 156.976 33.9693C156.547 34.2387 155.953 34.3734 155.128 34.3734H154.93V34.441V34.5086C154.93 34.7444 154.996 34.9462 155.128 35.0808C155.26 35.2155 155.458 35.2831 155.689 35.2831C155.919 35.2831 156.117 35.2496 156.283 35.2155C156.481 35.182 156.678 35.0808 156.942 34.9462V35.8218C156.514 36.0571 156.019 36.1583 155.458 36.1583ZM156.085 32.4538C155.854 32.4538 155.656 32.555 155.458 32.7567C155.26 32.959 155.128 33.2283 155.062 33.5312H155.227C155.623 33.5312 155.92 33.4636 156.151 33.3289C156.382 33.1942 156.481 33.026 156.481 32.8238C156.481 32.5885 156.349 32.4538 156.085 32.4538Z" fill="#0F9C7D"></path><path d="M161.033 31.6123C161.198 31.6123 161.297 31.6123 161.396 31.6458L161.132 32.7909C161.033 32.7573 160.901 32.7232 160.737 32.7232C160.44 32.7232 160.176 32.8579 159.945 33.0937C159.714 33.3296 159.549 33.666 159.45 34.1376L159.054 36.0907H157.899L158.823 31.7129H159.713L159.647 32.5209H159.68C160.043 31.9152 160.506 31.6123 161.033 31.6123Z" fill="#0F9C7D"></path><path d="M162.683 36.1584C162.32 36.1584 162.024 36.0237 161.793 35.7544C161.561 35.485 161.462 35.081 161.462 34.5758C161.462 34.0707 161.562 33.5655 161.726 33.0944C161.891 32.6233 162.155 32.2528 162.452 32.017C162.749 31.7476 163.079 31.6465 163.442 31.6465C163.706 31.6465 163.904 31.7141 164.102 31.8147C164.267 31.9158 164.432 32.084 164.531 32.2863H164.563L164.794 31.7141H165.685L164.762 36.0919H163.871L163.937 35.5197C163.574 35.9226 163.145 36.1584 162.683 36.1584ZM163.145 35.2157C163.31 35.2157 163.508 35.1145 163.64 34.9463C163.805 34.7781 163.937 34.5423 164.036 34.2394C164.135 33.9365 164.2 33.5996 164.2 33.2291C164.2 33.0268 164.134 32.8921 164.069 32.7574C164.003 32.6228 163.837 32.5892 163.673 32.5892C163.508 32.5892 163.343 32.6904 163.178 32.8586C163.013 33.0609 162.881 33.2961 162.815 33.5996C162.748 33.9025 162.683 34.2059 162.683 34.5088C162.683 34.7446 162.716 34.9128 162.815 35.014C162.914 35.1145 162.98 35.2157 163.145 35.2157Z" fill="#0F9C7D"></path><path d="M167.764 35.2156C167.929 35.2156 168.127 35.182 168.391 35.0809V35.9566C168.094 36.0912 167.764 36.1589 167.368 36.1589C166.972 36.1589 166.708 36.0912 166.51 35.923C166.345 35.7548 166.246 35.519 166.246 35.1485C166.246 35.0138 166.246 34.8792 166.279 34.7109L166.708 32.5897H166.114L166.213 32.0174L166.972 31.6804L167.467 30.7712H168.225L168.027 31.714H169.116L168.918 32.6232H167.829L167.4 34.7445C167.4 34.8121 167.368 34.8792 167.368 34.9468C167.434 35.1144 167.533 35.2156 167.764 35.2156Z" fill="#0F9C7D"></path><path d="M171.063 36.1583C170.535 36.1583 170.106 36.0236 169.809 35.7207C169.513 35.4178 169.347 35.0138 169.347 34.4745C169.347 33.9353 169.446 33.4306 169.677 32.9931C169.876 32.5555 170.172 32.2185 170.535 31.9827C170.898 31.7469 171.294 31.6458 171.756 31.6458C172.218 31.6458 172.548 31.7469 172.812 31.9486C173.076 32.1504 173.208 32.4538 173.208 32.8243C173.208 33.3295 173.009 33.7 172.581 33.9693C172.152 34.2387 171.558 34.3734 170.733 34.3734H170.535V34.441V34.5086C170.535 34.7444 170.601 34.9462 170.733 35.0808C170.865 35.2155 171.063 35.2831 171.294 35.2831C171.525 35.2831 171.722 35.2496 171.888 35.2155C172.086 35.182 172.283 35.0808 172.547 34.9462V35.8218C172.119 36.0571 171.624 36.1583 171.063 36.1583ZM171.689 32.4538C171.458 32.4538 171.261 32.555 171.062 32.7567C170.864 32.959 170.732 33.2283 170.667 33.5312H170.831C171.227 33.5312 171.524 33.4636 171.755 33.3289C171.986 33.1942 172.085 33.026 172.085 32.8238C172.086 32.5885 171.954 32.4538 171.689 32.4538Z" fill="#0F9C7D"></path><path d="M174.956 36.1583C174.593 36.1583 174.296 36.0236 174.065 35.7543C173.834 35.4849 173.735 35.0809 173.735 34.5757C173.735 34.0706 173.834 33.5654 173.999 33.0943C174.197 32.6226 174.427 32.2527 174.725 32.0169C175.021 31.7475 175.352 31.6129 175.715 31.6129C175.913 31.6129 176.11 31.6464 176.242 31.7475C176.374 31.8487 176.539 32.0169 176.671 32.2527H176.704V32.1516C176.704 31.8487 176.737 31.6129 176.803 31.377L177.1 29.9626H178.254L177.001 36.0577H176.11L176.176 35.4855C175.978 35.7213 175.813 35.8895 175.616 35.9907C175.418 36.0907 175.187 36.1583 174.956 36.1583ZM175.451 35.2156C175.616 35.2156 175.781 35.1144 175.946 34.9462C176.11 34.778 176.242 34.5422 176.342 34.2393C176.441 33.9364 176.473 33.633 176.473 33.2625C176.473 33.0602 176.441 32.892 176.342 32.7573C176.242 32.6227 176.11 32.555 175.946 32.555C175.781 32.555 175.616 32.6562 175.451 32.8244C175.286 33.0267 175.154 33.2619 175.088 33.5654C175.021 33.8688 174.956 34.1717 174.956 34.4746C174.923 34.9798 175.088 35.2156 175.451 35.2156Z" fill="#0F9C7D"></path><path d="M183.765 34.3734C183.765 34.9122 183.567 35.3503 183.204 35.6531C182.841 35.956 182.313 36.1248 181.654 36.1248C181.093 36.1248 180.631 36.0237 180.301 35.7878V34.7104C180.796 34.9798 181.258 35.148 181.686 35.148C181.983 35.148 182.181 35.0804 182.346 34.9798C182.511 34.8786 182.577 34.7104 182.577 34.5081C182.577 34.407 182.544 34.3058 182.511 34.2052C182.478 34.1041 182.412 34.037 182.379 33.9694C182.313 33.9018 182.148 33.7671 181.917 33.5654C181.554 33.296 181.323 33.0602 181.158 32.7909C180.993 32.5215 180.927 32.2522 180.927 31.9828C180.927 31.6458 180.993 31.3429 181.158 31.0736C181.323 30.8042 181.554 30.6019 181.851 30.4673C182.147 30.3326 182.478 30.2314 182.873 30.2314C183.434 30.2314 183.929 30.3661 184.391 30.6355L183.962 31.5447C183.567 31.3424 183.204 31.2418 182.841 31.2418C182.642 31.2418 182.445 31.3094 182.313 31.41C182.181 31.5112 182.115 31.6794 182.115 31.8817C182.115 32.0499 182.147 32.1845 182.247 32.2857C182.346 32.4204 182.51 32.555 182.807 32.7573C183.104 32.9596 183.335 33.1949 183.5 33.4642C183.666 33.7336 183.765 34.0365 183.765 34.3734Z" fill="#0F9C7D"></path><path d="M185.579 36.0906H184.425L185.348 31.7128H186.503L185.579 36.0906ZM185.513 30.6695C185.513 30.4336 185.579 30.2654 185.711 30.1643C185.843 30.0631 186.008 29.9961 186.239 29.9961C186.437 29.9961 186.569 30.0296 186.668 30.1308C186.767 30.1984 186.8 30.3331 186.8 30.4677C186.8 30.67 186.734 30.8382 186.635 30.9729C186.536 31.1076 186.338 31.1752 186.107 31.1752C185.711 31.1406 185.513 30.9724 185.513 30.6695Z" fill="#0F9C7D"></path><path d="M190.396 36.0906H189.241L189.769 33.5312C189.802 33.363 189.835 33.1942 189.835 33.0596C189.835 32.7226 189.703 32.5879 189.406 32.5879C189.175 32.5879 188.944 32.7226 188.78 33.0255C188.581 33.3283 188.449 33.7324 188.317 34.2716L187.954 36.0901H186.8L187.723 31.7122H188.614L188.548 32.5203H188.581C188.944 31.914 189.406 31.6111 189.934 31.6111C190.297 31.6111 190.561 31.7122 190.759 31.9481C190.957 32.1503 191.056 32.4868 191.056 32.8908C191.056 33.0931 191.023 33.3283 190.956 33.5977L190.396 36.0906Z" fill="#0F9C7D"></path><path d="M193.332 36.1583C192.804 36.1583 192.408 36.0237 192.145 35.7208C191.881 35.4514 191.716 35.0474 191.716 34.5422C191.716 34.0035 191.815 33.4983 192.013 33.0267C192.211 32.5891 192.475 32.2186 192.804 31.9828C193.134 31.747 193.53 31.6123 193.992 31.6123C194.454 31.6123 194.883 31.7134 195.246 31.8817L194.883 32.7909C194.751 32.7232 194.619 32.6897 194.487 32.6227C194.355 32.5891 194.19 32.555 194.025 32.555C193.794 32.555 193.596 32.6227 193.431 32.7909C193.266 32.9591 193.134 33.1949 193.035 33.4642C192.936 33.7671 192.903 34.0706 192.903 34.407C192.903 34.6428 192.969 34.8445 193.068 34.9792C193.2 35.1139 193.332 35.1815 193.563 35.1815C193.761 35.1815 193.926 35.148 194.09 35.0804C194.255 35.0127 194.42 34.9457 194.618 34.8445V35.8214C194.223 36.0572 193.794 36.1583 193.332 36.1583Z" fill="#0F9C7D"></path><path d="M197.226 36.1583C196.698 36.1583 196.269 36.0236 195.972 35.7207C195.675 35.4178 195.51 35.0138 195.51 34.4745C195.51 33.9353 195.609 33.4306 195.84 32.9931C196.038 32.5555 196.335 32.2185 196.698 31.9827C197.061 31.7469 197.457 31.6458 197.919 31.6458C198.381 31.6458 198.71 31.7469 198.974 31.9486C199.238 32.1509 199.37 32.4538 199.37 32.8243C199.37 33.3295 199.172 33.7 198.743 33.9693C198.315 34.2387 197.721 34.3734 196.896 34.3734H196.698V34.441V34.5086C196.698 34.7444 196.764 34.9462 196.896 35.0808C197.028 35.2155 197.226 35.2831 197.457 35.2831C197.688 35.2831 197.885 35.2496 198.051 35.2155C198.249 35.182 198.447 35.0808 198.71 34.9462V35.8218C198.281 36.0571 197.786 36.1583 197.226 36.1583ZM197.853 32.4538C197.621 32.4538 197.424 32.555 197.226 32.7567C197.027 32.959 196.895 33.2283 196.83 33.5312H196.995C197.39 33.5312 197.687 33.4636 197.918 33.3289C198.149 33.1942 198.248 33.026 198.248 32.8238C198.248 32.5885 198.116 32.4538 197.853 32.4538Z" fill="#0F9C7D"></path><path d="M205.111 36.0906H201.416L201.58 35.249L203.428 33.5988C203.89 33.1948 204.219 32.8578 204.385 32.5885C204.549 32.3527 204.649 32.1168 204.649 31.8816C204.649 31.6793 204.582 31.5446 204.484 31.444C204.385 31.3429 204.253 31.2758 204.055 31.2758C203.89 31.2758 203.725 31.3093 203.527 31.4105C203.362 31.5116 203.131 31.6463 202.868 31.8821L202.307 31.0741C202.637 30.7712 202.967 30.5689 203.264 30.4342C203.561 30.2996 203.891 30.2319 204.221 30.2319C204.716 30.2319 205.079 30.3666 205.376 30.6024C205.672 30.8718 205.804 31.2088 205.804 31.6128C205.804 31.8821 205.738 32.1515 205.639 32.3873C205.54 32.6231 205.376 32.8925 205.177 33.1283C204.979 33.3641 204.617 33.7006 204.155 34.1051L203.132 34.9808V35.0143H205.309L205.111 36.0906Z" fill="#0F9C7D"></path><path d="M210.224 32.1174C210.224 33.3295 209.993 34.3398 209.565 35.0473C209.136 35.7883 208.542 36.1588 207.75 36.1588C207.255 36.1588 206.859 35.9906 206.596 35.6872C206.332 35.3843 206.2 34.8791 206.2 34.2393C206.2 33.4647 206.299 32.7578 206.53 32.118C206.761 31.4781 207.025 31.0065 207.421 30.7036C207.816 30.4007 208.212 30.2319 208.707 30.2319C209.697 30.2649 210.224 30.8712 210.224 32.1174ZM208.575 31.2417C208.377 31.2417 208.179 31.3764 208.014 31.6458C207.849 31.9151 207.684 32.3191 207.552 32.8243C207.42 33.3295 207.354 33.8347 207.354 34.2722C207.354 34.5751 207.387 34.8109 207.453 34.9456C207.519 35.1138 207.651 35.1814 207.816 35.1814C208.014 35.1814 208.212 35.0468 208.41 34.7774C208.608 34.5081 208.74 34.104 208.872 33.5988C209.004 33.0937 209.037 32.5885 209.037 32.0833C209.037 31.7804 209.004 31.5781 208.905 31.4435C208.839 31.3088 208.74 31.2417 208.575 31.2417Z" fill="#0F9C7D"></path><path d="M214.546 32.1174C214.546 33.3295 214.315 34.3398 213.886 35.0473C213.458 35.7883 212.864 36.1588 212.072 36.1588C211.577 36.1588 211.181 35.9906 210.917 35.6872C210.653 35.3843 210.521 34.8791 210.521 34.2393C210.521 33.4647 210.621 32.7578 210.852 32.118C211.083 31.4781 211.347 31.0065 211.742 30.7036C212.138 30.4007 212.534 30.2319 213.029 30.2319C214.018 30.2649 214.546 30.8712 214.546 32.1174ZM212.897 31.2417C212.698 31.2417 212.501 31.3764 212.336 31.6458C212.171 31.9151 212.006 32.3191 211.874 32.8243C211.742 33.3295 211.676 33.8347 211.676 34.2722C211.676 34.5751 211.708 34.8109 211.775 34.9456C211.841 35.1138 211.973 35.1814 212.138 35.1814C212.336 35.1814 212.534 35.0468 212.732 34.7774C212.93 34.5081 213.062 34.104 213.194 33.5988C213.326 33.0937 213.359 32.5885 213.359 32.0833C213.359 31.7804 213.326 31.5781 213.227 31.4435C213.193 31.3088 213.061 31.2417 212.897 31.2417Z" fill="#0F9C7D"></path><path d="M218.571 34.8786H217.912L217.68 36.0571H216.559L216.79 34.8786H214.513L214.711 33.9693L217.68 30.3325H218.868L218.109 33.9358H218.769L218.571 34.8786ZM216.987 33.9358L217.218 32.959C217.251 32.7908 217.285 32.5885 217.383 32.3191C217.449 32.0498 217.515 31.8475 217.548 31.7804H217.515C217.416 31.9486 217.251 32.1845 217.02 32.4873L215.833 33.9353L216.987 33.9358Z" fill="#0F9C7D"></path></g><defs><clipPath id="clip0_14366_1276"><rect width="219" height="38" fill="white" transform="translate(0 0.0410156)"></rect></clipPath></defs></svg> 