<?xml version="1.0" encoding="UTF-8"?> <svg xmlns="http://www.w3.org/2000/svg" width="217" height="62" viewBox="0 0 217 62" fill="none"><path d="M74.1061 45.3999C73.5101 45.3999 71.382 45.3999 71.382 45.3999C71.382 45.3999 70.6928 45.3863 70.6928 46.1462C70.6928 46.9016 70.6928 47.6979 70.6928 47.6979C70.6928 47.6979 70.7161 48.1302 71.2237 48.3941C71.7266 48.658 73.389 49.6227 73.389 49.6227V50.5965H72.1829V49.5727H70.6928V51.0652C70.6928 51.0652 70.6323 51.7023 71.4938 51.7023C72.3552 51.7023 74.0875 51.7023 74.0875 51.7023C74.0875 51.7023 74.8233 51.7888 74.8279 50.9333C74.8279 50.0778 74.8279 49.2724 74.8279 49.2724C74.8279 49.2724 74.8512 48.8674 74.2132 48.5534C73.5753 48.2394 72.1736 47.434 72.1736 47.434V46.5193H73.389V47.4567H74.8279V46.0006C74.8279 46.0006 74.7068 45.3999 74.1108 45.3999H74.1061Z" fill="black"></path><path d="M102.917 45.4136C102.321 45.4136 100.193 45.4136 100.193 45.4136C100.193 45.4136 99.5034 45.3999 99.5034 46.1599C99.5034 46.9152 99.5034 47.7116 99.5034 47.7116C99.5034 47.7116 99.5267 48.1439 100.034 48.4078C100.537 48.6717 102.2 49.6364 102.2 49.6364V50.6102H100.993V49.5864H99.5034V51.0789C99.5034 51.0789 99.4428 51.716 100.304 51.716C101.166 51.716 102.898 51.716 102.898 51.716C102.898 51.716 103.634 51.7979 103.638 50.9469C103.638 50.0915 103.638 49.286 103.638 49.286C103.638 49.286 103.662 48.881 103.024 48.5671C102.386 48.2531 100.984 47.4476 100.984 47.4476V46.533H102.2V47.4704H103.638V46.0143C103.638 46.0143 103.517 45.4136 102.921 45.4136H102.917Z" fill="black"></path><path d="M160.706 45.4363C160.11 45.4363 157.982 45.4363 157.982 45.4363C157.982 45.4363 157.292 45.4226 157.292 46.1826V47.7343C157.292 47.7343 157.316 48.1666 157.823 48.4305C158.326 48.6944 159.989 49.6591 159.989 49.6591V50.6329H158.783V49.6091H157.292V51.0971C157.292 51.0971 157.232 51.7341 158.093 51.7341C158.955 51.7341 160.687 51.7341 160.687 51.7341C160.687 51.7341 161.423 51.8206 161.423 50.9651C161.423 50.1096 161.423 49.3087 161.423 49.3087C161.423 49.3087 161.446 48.9037 160.808 48.5898C160.17 48.2758 158.769 47.4704 158.769 47.4704V46.5557H159.984V47.4931H161.423V46.0415C161.423 46.0415 161.302 45.4408 160.706 45.4408V45.4363Z" fill="black"></path><path d="M186.9 45.4453C186.9 45.4453 186.76 45.4453 186.536 45.4453H184.012C184.012 45.4453 183.323 45.4317 183.323 46.1916V48.7899C183.323 49.3678 183.323 50.4645 183.323 51.006C183.323 51.7659 184.012 51.7523 184.012 51.7523H184.376C184.934 51.7523 186.001 51.7523 186.536 51.7523H186.9C186.9 51.7523 187.589 51.7659 187.589 51.006C187.589 50.4645 187.589 49.3724 187.589 48.7945V48.4122C187.589 47.8343 187.589 46.7377 187.589 46.1962C187.589 45.4408 186.9 45.4499 186.9 45.4499V45.4453ZM186.113 48.0846V48.5214V50.5555H184.799V48.5214V48.0846V46.6375H186.113V48.0891V48.0846Z" fill="black"></path><path d="M173.102 45.4409H171.644V51.7433H173.102V45.4409Z" fill="black"></path><path d="M173.106 43.0837H171.649V44.6309H173.106V43.0837Z" fill="black"></path><path d="M146.34 45.3772C145.548 45.3772 144.557 45.6275 144.212 45.723V45.4273H142.754V51.7296H144.212V46.6513H145.609V51.7296H147.113V46.7878C147.113 46.5148 147.318 45.3772 146.34 45.3772Z" fill="black"></path><path d="M201.475 45.3772C200.683 45.3772 199.691 45.6275 199.347 45.723V45.4273H197.889V51.7296H199.347V46.6513H200.744V51.7296H202.248V46.7878C202.248 46.5148 202.453 45.3772 201.479 45.3772H201.475Z" fill="black"></path><path d="M87.8805 50.4601H86.4835V45.3772H84.9794V50.319C84.9794 50.592 84.7745 51.7296 85.7478 51.7296C86.5394 51.7296 87.5313 51.4794 87.8759 51.3838V51.6796H89.3334V45.3772H87.8805V50.4601Z" fill="black"></path><path d="M117.389 45.3635C116.598 45.3635 115.606 45.6138 115.261 45.7094V45.4136H113.804V54.0549H115.261V51.7842V51.7114H116.789C116.789 51.7114 118.181 51.7979 118.181 50.6694C118.181 49.5408 118.162 50.0368 118.162 50.0368V46.7742C118.162 46.5011 118.367 45.3635 117.389 45.3635ZM116.654 50.0414C116.654 50.5875 116.23 50.5419 116.23 50.5419H115.257V46.6422H116.654V50.0459V50.0414Z" fill="black"></path><path d="M131.876 45.4226H131.513C130.977 45.4226 129.911 45.4226 129.352 45.4226H128.989C128.989 45.4226 128.3 45.409 128.3 46.1689C128.3 46.7104 128.3 47.8025 128.3 48.3804V48.7627C128.3 49.3406 128.3 50.4372 128.3 50.9787C128.3 51.7341 128.989 51.725 128.989 51.725H131.513C131.732 51.725 131.876 51.725 131.876 51.725C131.876 51.725 132.565 51.7387 132.565 50.9787V49.6318H131.089V50.5373H129.776V48.931H132.03C132.03 48.931 132.565 48.8582 132.565 48.2303C132.565 47.6023 132.565 46.6695 132.565 46.1735C132.565 45.4181 131.876 45.4272 131.876 45.4272V45.4226ZM131.089 47.9982H129.776V46.6148H131.089V47.9982Z" fill="black"></path><path d="M155.104 14.9072H137.52V19.6761H143.872V38.5651H148.752V19.6761H155.104V14.9072Z" fill="black"></path><path d="M130.642 26.9249L126.084 21.9285H121.371V26.5199H124.212L127.69 30.2467L124.212 33.9735H121.371V38.5649H126.084L130.642 33.5685L135.197 38.5649H139.914V33.9735H137.069L133.59 30.2467L137.069 26.5199H139.914V21.9285H135.197L130.642 26.9249Z" fill="black"></path><path d="M94.828 14.98H73.1886C71.6332 15.03 70.3853 16.2769 70.3853 17.8104C70.3853 17.8468 70.3853 17.8832 70.3853 17.9196V38.5468H75.2654V19.7489H81.5799V38.5468H86.46V19.7489H92.8443V38.5468H97.7245V17.8104C97.7245 16.245 96.4253 14.98 94.828 14.98Z" fill="black"></path><path d="M151.993 24.6542V38.5467H156.696V26.5199H162.778L164.366 21.9285H154.787C153.246 21.9285 151.993 23.148 151.993 24.6542Z" fill="black"></path><path d="M200.958 26.4973L202.546 21.9014H189.931C188.389 21.9014 187.137 23.1209 187.137 24.6271V35.8121C187.137 37.3183 188.389 38.5424 189.931 38.5424H202.546V33.9464H191.84V26.4928H200.953L200.958 26.4973Z" fill="black"></path><path d="M184.264 38.5468V24.6542C184.264 23.148 183.016 21.9285 181.47 21.9285H178.131L178.14 21.9058H168.557C167.016 21.9058 165.768 23.1253 165.768 24.6315V35.8165C165.768 37.3227 167.016 38.5468 168.557 38.5468H176.562L178.136 33.9508H170.466V26.4972H173.47L173.479 26.5199H179.561V38.5468H184.264Z" fill="black"></path><path d="M118.656 38.5468V24.6542C118.656 23.148 117.408 21.9285 115.862 21.9285H112.523L112.532 21.9058H102.949C101.408 21.9058 100.16 23.1253 100.16 24.6315V35.8165C100.16 37.3227 101.408 38.5468 102.949 38.5468H110.954L112.528 33.9508H104.858V26.4972H107.862L107.871 26.5199H113.953V38.5468H118.656Z" fill="black"></path><path d="M206.266 24.1946V24.1764C206.551 24.0945 206.783 23.8852 206.783 23.5439C206.783 23.2982 206.7 23.1207 206.541 23.0069C206.383 22.8932 206.117 22.8113 205.717 22.8113C205.4 22.8113 205.186 22.8431 204.967 22.875V25.4687H205.391V24.3539H205.689C206.024 24.3539 206.197 24.4767 206.257 24.8089C206.313 25.1502 206.374 25.3868 206.439 25.4687H206.881C206.839 25.3868 206.774 25.2321 206.714 24.8271C206.662 24.4449 206.504 24.2401 206.271 24.1946H206.266ZM205.698 24.0308H205.391V23.1526C205.466 23.1435 205.559 23.1344 205.698 23.1344C206.173 23.1344 206.346 23.3619 206.346 23.5894C206.346 23.9079 206.048 24.0354 205.698 24.0354V24.0308Z" fill="black"></path><path d="M205.847 21.7876H205.838C204.539 21.7876 203.481 22.8206 203.481 24.1129C203.481 25.4052 204.539 26.4473 205.838 26.4473C207.137 26.4473 208.185 25.428 208.185 24.1129C208.185 22.7978 207.151 21.7876 205.852 21.7876H205.847ZM205.847 26.0832C204.79 26.0832 203.933 25.2186 203.933 24.1129C203.933 23.0071 204.79 22.1516 205.833 22.1516H205.842C206.899 22.1516 207.742 23.0299 207.742 24.122C207.742 25.2141 206.895 26.0923 205.842 26.0832H205.847Z" fill="black"></path><path d="M64.0291 7.93604H58.66L39.0648 27.0844L19.4743 7.93604H14.1051C13.2204 39.8484 34.3662 52.5578 34.3662 52.5578H35.1951V47.7981C19.8608 34.1194 19.4184 14.4841 19.4184 14.4841L39.0694 33.7917L58.7205 14.4841C58.7205 14.4841 58.2781 34.1194 42.9438 47.8026V52.5624H43.7727C43.7727 52.5624 64.9185 39.853 64.0338 7.94059L64.0291 7.93604Z" fill="black"></path><path d="M36.6898 12.5365V21.4873L39.0693 23.8126L41.4489 21.4873V12.5365H50.6085L55.3164 7.93604H22.8223L27.5255 12.5365H36.6898Z" fill="black"></path></svg> 