<?xml version="1.0" encoding="UTF-8"?> <svg xmlns="http://www.w3.org/2000/svg" width="37" height="37" viewBox="0 0 37 37" fill="none"><path d="M32.5162 0H4.294C1.92676 0 0 1.97339 0 4.39782V31.1102C0 33.5347 1.9268 35.508 4.294 35.508H26.6087C26.9372 35.508 27.202 35.2352 27.202 34.9004C27.202 34.564 26.9356 34.2927 26.6087 34.2927L4.294 34.2912C2.58063 34.2912 1.18815 32.8634 1.18815 31.1102V8.53178H35.6235V31.1086C35.6235 32.3906 34.8788 33.5408 33.7255 34.04C33.4228 34.1702 33.282 34.5268 33.4107 34.8368C33.5378 35.1453 33.8874 35.2894 34.1886 35.1592C35.7809 34.4709 36.8101 32.8805 36.8101 31.1102V4.39786C36.8101 1.97338 34.8834 0 32.5162 0ZM1.188 7.31701V4.39802C1.188 2.64322 2.58202 1.21708 4.29385 1.21708H32.516C34.2294 1.21708 35.6219 2.64481 35.6219 4.39802V7.31701H1.188Z" fill="black"></path><path d="M5.30014 3.73779H4.36363C3.95473 3.73779 3.625 4.01749 3.625 4.36074C3.625 4.7056 3.95664 4.98369 4.36363 4.98369H5.30014C5.70904 4.98369 6.03877 4.70399 6.03877 4.36074C6.04066 4.01588 5.70902 3.73779 5.30014 3.73779Z" fill="black"></path><path d="M9.10011 3.73779H8.39773C8.09105 3.73779 7.84375 4.01749 7.84375 4.36074C7.84375 4.7056 8.09248 4.98369 8.39773 4.98369H9.10011C9.40679 4.98369 9.65408 4.70399 9.65408 4.36074C9.65408 4.01588 9.40535 3.73779 9.10011 3.73779Z" fill="black"></path><path d="M12.7173 3.73779H12.0149C11.7082 3.73779 11.4609 4.01749 11.4609 4.36074C11.4609 4.7056 11.7097 4.98369 12.0149 4.98369H12.7173C13.024 4.98369 13.2713 4.70399 13.2713 4.36074C13.2713 4.01588 13.0225 3.73779 12.7173 3.73779Z" fill="black"></path><path d="M26.4946 27.5254C25.8899 26.8931 24.9172 26.7918 24.1828 27.203L22.4206 25.3606C23.9609 23.4792 24.5641 20.9315 24.0368 18.5078L28.8927 13.4308L28.7854 15.1268C28.7631 15.4632 29.0074 15.7544 29.3291 15.7762C29.3426 15.7778 29.356 15.7778 29.3679 15.7778C29.6732 15.7778 29.9295 15.5302 29.9503 15.2078L30.1633 11.864C30.1752 11.6834 30.1082 11.5058 29.983 11.3813C29.8579 11.2567 29.6851 11.1959 29.5123 11.2177L26.1638 11.6351C25.8435 11.6756 25.6141 11.9793 25.6529 12.3142C25.6916 12.649 25.9821 12.8873 26.3023 12.8483L28.0019 12.6365L17.8013 23.2984L14.3634 19.704C14.1355 19.4657 13.7661 19.4657 13.5366 19.704L10.7779 22.5883C10.5143 21.8516 10.3698 21.0667 10.3698 20.2568C10.3698 18.4845 11.0297 16.8196 12.2288 15.5658C14.703 12.9789 18.7278 12.9789 21.2019 15.5658C21.4953 15.8726 21.762 16.2105 21.9914 16.5687C22.1701 16.8491 22.5336 16.9238 22.8017 16.7354C23.0698 16.5469 23.1413 16.1685 22.9611 15.8881C22.6885 15.4645 22.3757 15.0658 22.0271 14.7014C19.0971 11.638 14.3303 11.638 11.4021 14.7014C9.98251 16.1856 9.202 18.1573 9.202 20.2568C9.202 21.4031 9.44331 22.5088 9.88573 23.5211L5.60452 27.9957C5.37662 28.234 5.37662 28.6202 5.60452 28.8601C5.71922 28.98 5.86818 29.0392 6.01712 29.0392C6.16607 29.0392 6.31653 28.98 6.42972 28.8601L10.4726 24.6331C10.7422 25.052 11.052 25.4461 11.4006 25.8105C12.8648 27.3414 14.7894 28.1076 16.7141 28.1076C18.4554 28.1076 20.1922 27.4738 21.5925 26.2201L23.3799 28.089C23.0373 28.8427 23.1565 29.7694 23.7523 30.3923L28.6738 35.5379C29.0522 35.9335 29.5482 36.1313 30.0457 36.1313C30.5417 36.1313 31.0393 35.9335 31.4176 35.5379C31.7841 35.1548 31.9852 34.6455 31.9852 34.1035C31.9852 33.5615 31.7841 33.0523 31.4176 32.6691L26.4946 27.5254ZM12.2275 24.9479C11.8774 24.5803 11.578 24.1754 11.3233 23.7456L13.9494 20.9999L17.3874 24.5944C17.6153 24.8326 17.9847 24.8326 18.2141 24.5944L23.0208 19.5688C23.2144 21.5374 22.562 23.5246 21.2005 24.948C18.7263 27.5349 14.7016 27.5347 12.2275 24.9479ZM30.5893 34.6741C30.2885 34.9886 29.7999 34.9886 29.499 34.6741L24.579 29.5301C24.2781 29.2155 24.2781 28.7047 24.579 28.3901C24.725 28.2374 24.9187 28.1533 25.1242 28.1533C25.3298 28.1533 25.5234 28.2374 25.6694 28.3901L30.5909 33.5356C30.8903 33.8487 30.8902 34.361 30.5893 34.6741Z" fill="black"></path></svg> 