<?xml version="1.0" encoding="UTF-8"?> <svg xmlns="http://www.w3.org/2000/svg" width="36" height="24" viewBox="0 0 36 24" fill="none"><path fill-rule="evenodd" clip-rule="evenodd" d="M2.98758 0H32.2878C33.1096 0 33.8573 0.335971 34.3984 0.876977C34.9394 1.41799 35.2753 2.16573 35.2753 2.98758V20.8248C35.2753 21.6467 34.9394 22.3944 34.3984 22.9354C33.8573 23.4764 33.1096 23.8124 32.2878 23.8124L2.98758 23.8141C2.16573 23.8141 1.41799 23.4782 0.876976 22.9372C0.335962 22.3961 0 21.6484 0 20.8265V2.9893C0 2.16746 0.33597 1.41971 0.876976 0.878699C1.41799 0.335965 2.16573 0 2.98758 0ZM2.56202 1.37834L13.7832 11.4162C13.8022 11.4317 13.8211 11.4489 13.8384 11.4661L17.5633 14.7983C17.5823 14.8138 17.6098 14.8224 17.6374 14.8224C17.665 14.8224 17.6925 14.8138 17.7115 14.7983L21.4399 11.4627C21.4571 11.4455 21.4761 11.4282 21.495 11.4145L32.7132 1.38015C32.5771 1.34397 32.4341 1.32501 32.2876 1.32501L2.98743 1.32329C2.84098 1.32329 2.69813 1.34216 2.56202 1.37834ZM33.7588 2.21222L22.9253 11.9021L33.9537 20.7596V2.98762C33.952 2.70851 33.8811 2.44308 33.7588 2.21222ZM33.4297 22.033L21.9275 12.7948L18.5902 15.7806C18.3163 16.0235 17.9769 16.1458 17.6374 16.1458C17.298 16.1458 16.9586 16.0235 16.6846 15.7806L13.3491 12.7982L1.84687 22.0364C2.14494 22.319 2.54808 22.4912 2.98743 22.4912H32.2876C32.7287 22.4912 33.1317 22.3173 33.4297 22.033ZM1.32302 20.7649L12.3533 11.9056L1.5162 2.21222C1.39215 2.44482 1.32151 2.70842 1.32151 2.98925L1.32302 20.7649Z" fill="black"></path></svg> 