<?xml version="1.0" encoding="UTF-8"?> <svg xmlns="http://www.w3.org/2000/svg" width="149" height="43" viewBox="0 0 149 43" fill="none"><g clip-path="url(#clip0_14366_1266)"><path d="M50.7861 23.6837H59.4725C63.1787 23.6837 65.1476 25.3318 65.1476 28.4577C65.1476 31.5835 63.2366 33.6295 59.6462 33.6295H53.2762V40.2791H50.7861V23.6837ZM59.2988 31.4699C61.7889 31.4699 62.5996 30.1627 62.5996 28.4577C62.5996 26.8664 61.673 25.7865 59.762 25.7865H53.2762V31.4699H59.2988ZM67.8693 23.6837H78.2929C81.6517 23.6837 82.9257 25.957 82.9257 28.1167C82.9257 30.1627 81.9412 31.6404 80.0881 32.2087V32.2655C81.5938 32.4929 82.4624 33.8569 82.5203 35.7892C82.6361 38.8582 82.7519 39.6539 83.331 40.2791H80.6672C80.2618 39.8244 80.2618 39.1424 80.146 37.0964C79.9723 34.141 78.9878 33.2317 76.9031 33.2317H70.3594V40.2791H67.8693V23.6837ZM77.3664 31.072C79.7986 31.072 80.4356 29.5944 80.4356 28.4577C80.4356 26.8664 79.4511 25.7865 77.4822 25.7865H70.4173V31.072H77.3664ZM94.16 23.229C100.935 23.229 103.541 27.662 103.541 31.9245C103.541 36.1871 100.935 40.6201 94.16 40.6201C87.3847 40.6201 84.7787 36.1871 84.7787 31.9245C84.7787 27.7189 87.3847 23.229 94.16 23.229ZM94.16 25.3887C90.2801 25.3887 87.2688 27.5484 87.2688 31.9814C87.2688 36.3576 90.2801 38.5741 94.16 38.5741C98.0399 38.5741 101.051 36.4144 101.051 31.9814C101.051 27.5484 98.0399 25.3887 94.16 25.3887ZM123.23 23.6837H126.705V40.2791H124.215V26.5253H124.157L117.555 40.2791H115.355L108.811 26.8095H108.753V40.2791H106.263V23.6837H109.795L116.513 37.4374L123.23 23.6837ZM138.866 23.229C145.641 23.229 148.247 27.662 148.247 31.9245C148.247 36.1871 145.641 40.6201 138.866 40.6201C132.09 40.6201 129.485 36.1871 129.485 31.9245C129.427 27.7189 132.033 23.229 138.866 23.229ZM138.866 25.3887C134.986 25.3887 131.975 27.5484 131.975 31.9814C131.975 36.3576 134.986 38.5741 138.866 38.5741C142.746 38.5741 145.757 36.4144 145.757 31.9814C145.699 27.5484 142.688 25.3887 138.866 25.3887Z" fill="#00424F"></path><path d="M41.8685 15.8407C42.2159 15.2724 42.5054 14.7609 42.8529 14.1926V26.014C42.5634 26.4118 42.2159 26.7528 41.9264 27.1506C40.884 28.401 39.7258 29.6513 38.6255 30.8448C38.4518 31.0153 38.1044 31.3563 37.6411 31.8678C37.1778 32.3225 36.6566 32.8908 36.0775 33.4023C35.4985 33.9706 34.9194 34.4822 34.2824 35.0505C33.6454 35.562 33.0663 36.0167 32.4872 36.4145C31.966 36.7555 31.5027 36.9828 31.0974 37.1533C30.9236 37.2102 30.7499 37.2102 30.7499 37.1533C30.7499 37.1533 30.5762 36.926 30.8657 35.903C31.0974 35.1073 31.4448 34.1412 31.966 33.1181C32.4872 32.0383 33.0663 30.9585 33.6454 29.8786C34.2244 28.7988 34.8035 27.7758 35.3247 26.9233C36.425 25.0478 37.5253 23.1723 38.6255 21.4104C39.6679 19.5349 40.7682 17.6594 41.8685 15.8407ZM9.90265 4.70137C11.1766 3.45103 12.5665 2.31436 14.0142 1.29135C14.5354 0.950353 15.1724 0.552518 15.8094 0.211516C15.9252 0.154683 16.041 0.0978492 16.2147 0.0410156H0.0581055V16.1817C1.9691 13.5106 4.05383 10.8962 6.31228 8.50922C7.41256 7.20204 8.62865 5.95171 9.90265 4.70137ZM40.247 36.6418C39.3784 37.7785 38.336 38.8583 37.2357 39.8245C36.1934 40.7338 35.0931 41.4727 33.9349 42.041H42.9108V33.0613C42.795 33.2318 42.6792 33.4023 42.6213 33.516C41.8684 34.4822 41.1156 35.5052 40.247 36.6418ZM132.149 14.8177C132.264 14.4767 132.38 14.1926 132.438 14.0221C132.67 13.3969 132.901 12.7717 133.191 12.1466C133.481 11.5214 133.77 10.9531 134.06 10.3279C134.233 9.98689 134.407 9.64589 134.581 9.30488C134.755 8.96388 134.928 8.62288 135.16 8.28188L137.418 4.81503C137.766 4.87187 138.403 4.87187 138.924 4.9287C139.271 4.9287 139.619 4.98554 139.851 4.98554C140.43 5.04237 141.009 5.0992 141.588 5.0992C141.935 5.0992 142.399 5.15604 142.862 5.15604C143.325 5.15604 143.846 5.15604 144.367 5.0992C144.889 5.04237 145.41 4.98554 145.873 4.87187C146.394 4.7582 146.858 4.64453 147.263 4.4172C147.668 4.18987 148.074 3.9057 148.363 3.5647C148.653 3.22369 148.884 2.76903 149 2.25752C149.058 2.08702 149 1.85969 148.884 1.68919C148.769 1.51869 148.653 1.40502 148.479 1.34819C148.305 1.29135 148.132 1.23452 147.958 1.29135C147.784 1.34819 147.61 1.40502 147.495 1.57552C147.321 1.80286 147.089 1.97336 146.858 2.14386C146.568 2.31436 146.278 2.37119 145.931 2.48486C145.584 2.54169 145.236 2.59853 144.947 2.65536C144.599 2.71219 144.31 2.71219 144.02 2.71219C143.151 2.76903 142.341 2.82586 141.472 2.82586C140.661 2.82586 139.793 2.76903 138.982 2.76903L135.971 2.59853C135.102 2.54169 134.233 2.59853 133.423 2.59853C132.554 2.65536 131.743 2.82586 130.99 3.05319C130.701 3.16686 130.411 3.28053 130.122 3.45103C129.832 3.62153 129.543 3.84886 129.369 4.0762C129.253 4.18987 129.195 4.30353 129.195 4.4172C129.195 4.53087 129.195 4.64453 129.195 4.7582C129.253 4.87187 129.311 4.98554 129.485 4.98554C129.601 4.98554 129.716 4.98554 129.89 4.87187C130.122 4.7582 130.353 4.64453 130.585 4.47403C130.817 4.36037 131.106 4.2467 131.396 4.2467C131.975 4.13303 132.554 4.13303 133.133 4.13303C133.654 4.13303 134.175 4.18987 134.697 4.2467C134.465 4.5877 134.233 4.98554 133.944 5.38337C133.654 5.89487 133.307 6.46321 133.017 7.03154C132.728 7.59988 132.38 8.22505 132.091 8.79338C131.801 9.41855 131.512 9.98689 131.28 10.5552C131.164 10.8962 130.933 11.3509 130.701 11.9192C130.469 12.4876 130.238 13.1127 130.064 13.7379C129.89 14.3631 129.716 15.0451 129.659 15.7271C129.543 16.4091 129.601 17.0343 129.716 17.5458C129.832 18.1141 130.122 18.5688 130.469 18.9098C130.875 19.2508 131.396 19.4213 132.149 19.4213C132.207 19.4213 132.207 19.4213 132.264 19.4213C132.67 19.4213 133.075 19.3644 133.481 19.1939C133.886 19.0234 134.233 18.8529 134.581 18.5688C134.928 18.3414 135.218 18.0573 135.507 17.7731C135.797 17.4889 136.029 17.1479 136.26 16.8637C136.434 16.6364 136.666 16.3522 136.897 15.9544C136.955 15.8976 137.013 15.8407 137.013 15.7839C137.013 15.7839 137.013 15.7839 137.013 15.8407C137.013 16.5796 137.245 17.2048 137.65 17.8299C137.882 18.2846 138.229 18.6256 138.577 18.8529C138.982 19.1371 139.387 19.3076 139.793 19.4213C140.082 19.4781 140.43 19.5349 140.719 19.5349C140.835 19.5349 141.009 19.5349 141.182 19.5349C141.646 19.4781 142.109 19.3644 142.572 19.1371C143.209 18.8529 143.73 18.5119 144.252 18.0573C144.773 17.6026 145.236 17.0911 145.641 16.5227C146.047 15.9544 146.452 15.3861 146.742 14.8177C147.089 14.2494 147.379 13.6242 147.61 13.0559C147.784 12.5444 147.958 11.9761 148.132 11.3509C148.305 10.7257 148.363 10.0437 148.363 9.41855C148.363 8.96388 148.247 8.50922 148.132 8.16821C147.958 7.82721 147.784 7.48621 147.61 7.20204C147.379 6.91788 147.147 6.74738 146.915 6.57687C146.684 6.40637 146.452 6.29271 146.221 6.29271C145.873 6.06537 145.526 5.95171 145.12 5.89487C144.773 5.83804 144.367 5.83804 144.02 5.89487C143.673 5.95171 143.325 6.06537 142.978 6.23587C142.63 6.40637 142.341 6.52004 142.109 6.69054C141.472 7.08838 140.893 7.59988 140.372 8.16821C139.851 8.73655 139.387 9.30489 138.982 9.93005C138.634 10.4416 138.287 11.0667 137.997 11.6919C137.824 12.0329 137.65 12.3739 137.534 12.7717C137.303 13.1127 137.013 13.3969 136.781 13.7379C136.492 14.1357 136.202 14.4767 135.855 14.8177C135.565 15.1587 135.276 15.4997 134.87 15.8407C134.523 16.1817 134.118 16.5227 133.712 16.7501C133.365 17.0343 132.959 17.2048 132.612 17.3184C132.322 17.4321 132.033 17.4321 131.859 17.2616C131.685 17.1479 131.627 16.9774 131.627 16.6932C131.627 16.4091 131.685 16.0681 131.743 15.7271C131.917 15.4997 132.033 15.1587 132.149 14.8177ZM139.271 16.2386C139.271 15.8976 139.387 15.4997 139.503 15.1019C139.619 14.7041 139.735 14.3062 139.908 13.9084C140.024 13.5106 140.198 13.1696 140.314 12.8854C140.43 12.6012 140.545 12.3171 140.661 12.1466C141.182 11.2372 141.762 10.4416 142.456 9.70272C143.093 9.02072 143.904 8.45238 144.831 8.11138C145.062 8.16821 145.294 8.28188 145.584 8.45238C145.815 8.62288 145.989 8.90705 146.105 9.36172C146.221 9.75955 146.221 10.2142 146.105 10.6689C145.989 11.1236 145.873 11.6351 145.641 12.0897C145.41 12.5444 145.178 13.0559 144.947 13.5106C144.657 13.9652 144.425 14.3631 144.136 14.7609C144.02 14.8746 143.904 15.1019 143.673 15.3292C143.499 15.5566 143.267 15.8407 142.978 16.1249C142.746 16.4091 142.456 16.6932 142.167 16.9774C141.877 17.2616 141.588 17.4889 141.298 17.6594C141.009 17.8299 140.719 17.9436 140.488 18.0004C140.256 18.0573 140.024 18.0004 139.851 17.8868C139.619 17.7731 139.503 17.5458 139.387 17.2616C139.271 16.9206 139.214 16.5796 139.271 16.2386Z" fill="#AACF38"></path><path d="M26.9277 42.041H0V27.4916C1.15818 25.5024 2.37427 23.5133 3.76409 21.6378C6.08045 18.3983 8.68636 15.2156 11.466 12.0897C12.1609 11.2941 12.7979 10.5552 13.4928 9.87322C14.1298 9.19122 14.8826 8.50922 15.6354 7.88405C16.6778 7.03154 17.3727 6.52004 17.7781 6.29271C17.6044 6.80421 17.2569 7.59988 16.562 9.02072C15.3459 11.4077 14.014 13.8516 12.5663 16.1817C11.1185 18.5688 9.72872 21.1263 8.45472 23.9111C8.10727 24.5931 7.81772 25.332 7.47027 26.1276C7.12281 26.9233 6.83327 27.719 6.60163 28.5715C6.37 29.424 6.19627 30.2765 6.13836 31.129C6.08045 32.0383 6.13836 32.8908 6.37 33.6865C6.60163 34.539 7.06491 35.1642 7.75981 35.6188C8.45472 36.0735 9.26545 36.1872 10.2499 36.0167C11.1764 35.8462 12.1609 35.3915 13.3191 34.5958C14.4194 33.8001 15.5775 32.6635 16.7936 31.129C19.5154 27.7758 21.9475 24.8773 23.9164 22.4334C25.8853 19.9896 27.7384 17.8868 29.3599 16.1249C30.9813 14.3631 32.4291 12.8286 33.761 11.5782C35.0929 10.3279 36.4248 9.19122 37.8146 8.16821C38.6253 7.59988 39.2044 7.20204 39.5519 7.03154C39.4361 7.25888 39.2623 7.59988 38.9728 7.99771C38.5095 8.73655 38.0463 9.53222 37.5251 10.2711C36.7143 11.5214 35.9036 12.8286 35.0929 14.1357C34.2822 15.3861 33.4714 16.7501 32.6607 18.0573C32.2553 18.7393 31.6183 19.7623 30.7497 21.1831C29.8811 22.6039 29.0124 24.1384 28.1438 25.8435C27.2752 27.5485 26.4644 29.3671 25.7695 31.1858C25.0746 33.0613 24.6113 34.8232 24.4955 36.4145C24.3218 38.1195 24.6114 39.5403 25.3063 40.7338C25.7116 41.1317 26.2328 41.6432 26.9277 42.041ZM24.6114 2.88269C24.7851 4.0762 24.7272 5.38337 24.3797 6.69054C24.0323 7.94088 23.5111 9.19122 22.8741 10.4416C22.2371 11.6351 21.7159 12.6581 21.3105 13.4537C19.9207 16.0681 18.5309 18.5688 17.1411 20.9558C15.7513 23.3428 14.5352 25.6161 13.4349 27.6621C13.0874 28.2873 12.8558 28.7988 12.6242 29.2535C13.1454 28.6851 13.6665 28.0031 14.3035 27.2643L19.6891 20.1033C21.4264 17.7731 23.3374 15.4429 25.2483 13.1127C26.5803 11.4646 27.9701 9.87322 29.3599 8.28188C30.7497 6.69054 32.3133 5.21287 33.9347 3.84886C34.5717 3.28053 35.2666 2.76903 36.0194 2.20069C36.7723 1.63236 37.583 1.12085 38.3937 0.666185C38.7991 0.438851 39.2044 0.26835 39.6677 0.0410156H22.8162C23.8006 0.779852 24.3797 1.74602 24.6114 2.88269ZM67.8115 2.71219H71.286V19.3076H68.796V5.55387H68.7381L62.1364 19.3644H59.878L53.3342 5.83804H53.2763V19.3644H50.7862V2.71219H54.3187L61.0361 16.5227L67.8115 2.71219ZM86.2266 14.4767H77.9456L75.803 19.3076H73.0812L80.7252 2.71219H83.6207L91.2647 19.3076H88.3692L86.2266 14.4767ZM81.9992 4.98554L78.8142 12.3171H85.2421L81.9992 4.98554ZM92.944 2.71219H101.515C106.611 2.71219 108.927 5.95171 108.927 10.7826C108.927 15.4429 106.842 19.3076 101.688 19.3076H92.944V2.71219ZM101.572 17.2048C105.684 17.2048 106.437 13.7947 106.437 10.8394C106.437 7.88405 105.452 4.87187 101.109 4.87187H95.492V17.2048H101.572ZM111.822 2.71219H125.431V4.87187H114.312V9.70272H125.084V11.8624H114.312V17.2048H125.663V19.3644H111.822V2.71219Z" fill="#127083"></path></g><defs><clipPath id="clip0_14366_1266"><rect width="149" height="42" fill="white" transform="translate(0 0.0410156)"></rect></clipPath></defs></svg> 