<?xml version="1.0" encoding="UTF-8"?> <svg xmlns="http://www.w3.org/2000/svg" width="59" height="60" viewBox="0 0 59 60" fill="none"><path fill-rule="evenodd" clip-rule="evenodd" d="M32.8628 33.9177C31.1259 35.8673 30.3379 38.3412 30.4711 40.7649C30.6043 43.1887 31.6531 45.5594 33.5925 47.3055C35.532 49.0514 37.9931 49.8436 40.4043 49.7097C42.9042 49.573 45.2322 48.4546 46.9108 46.572L47.4713 45.883C48.817 44.0562 49.4219 41.8723 49.3053 39.7274C49.1721 37.3037 48.1233 34.933 46.1839 33.1869C44.2444 31.4409 41.7833 30.6488 39.3722 30.7827C36.961 30.911 34.6026 31.9681 32.8628 33.9177ZM48.7226 46.198L50.085 47.5926L50.5484 47.1435C50.787 46.912 51.1699 46.9204 51.4002 47.1602L57.8207 53.8514C59.1082 55.1929 58.9167 57.3545 57.5766 58.6626C56.3002 59.9484 54.0777 60.1101 52.7681 58.7463L46.3476 52.0552C46.1173 51.8153 46.1256 51.4304 46.3642 51.1989L46.8193 50.7582L45.4513 49.3581C43.9281 50.2981 42.2105 50.8224 40.4709 50.9173C37.7545 51.0679 34.9798 50.1753 32.7931 48.2034C32.4047 47.8548 32.0495 47.4838 31.7249 47.0933H27.4242V50.5686C29.1889 50.9005 30.6955 51.4165 31.7831 52.058C33.0706 52.8138 33.8197 53.7649 33.8197 54.8303C33.8197 56.2305 32.5018 57.4438 30.3708 58.2721C26.1451 59.9177 19.383 59.9177 15.1546 58.2721C13.0236 57.4437 11.7057 56.2305 11.7057 54.8303C11.7057 53.7649 12.4548 52.8138 13.7423 52.058C14.8327 51.4193 16.3365 50.9033 18.1012 50.5686V47.0933L4.99104 47.0961C2.35515 47.0961 0.199219 44.9289 0.199219 42.2793V15.6487C0.199219 12.999 2.35515 10.8318 4.99104 10.8318H6.15914C6.95547 10.8318 6.95547 12.0451 6.15914 12.0451H4.99104C3.02107 12.0451 1.40895 13.6683 1.40895 15.6459V38.7093H3.84233V20.0642C3.84233 19.7295 4.11424 19.4562 4.4472 19.4562H9.25841L9.25563 0.808222C9.25563 0.473527 9.52478 0.200195 9.8605 0.200195H15.2766C15.6096 0.200195 15.8815 0.470743 15.8815 0.808222V6.60682H20.6927C21.0257 6.60682 21.2976 6.87737 21.2976 7.21485V26.5575H26.1088C26.4417 26.5575 26.7136 26.8281 26.7136 27.1656V38.7183H29.3635C30.3651 31.7288 37.7316 27.6511 44.1216 30.4372L44.1188 15.6492C44.1188 13.6689 42.504 12.0484 40.5367 12.0484H24.3914C23.595 12.0484 23.595 10.8352 24.3914 10.8352H40.5346C43.1704 10.8352 45.3264 13.0023 45.3264 15.652V31.059C48.4312 32.9222 50.3179 36.1687 50.5067 39.6636C50.6315 41.9228 50.0433 44.2261 48.7226 46.198ZM46.453 48.658C47.0051 48.2201 47.5184 47.7264 47.9874 47.1742L49.2166 48.4349L47.685 49.9187L46.453 48.658ZM50.9479 48.4377L56.9494 54.6937C57.7763 55.5555 57.5959 56.9696 56.7219 57.8064C55.9589 58.6096 54.4772 58.7853 53.6365 57.9095L47.6322 51.6536L50.9479 48.4377ZM37.9485 32.4252C38.7171 32.2355 39.0084 33.4097 38.2371 33.6021C35.6844 34.2353 33.7033 36.3327 33.2039 38.9293C33.0541 39.7131 31.8693 39.4844 32.0191 38.7006C32.6045 35.6381 34.9325 33.1782 37.9485 32.4252ZM29.2557 39.928C29.1947 42.006 29.7358 44.081 30.8484 45.88H4.99171C3.02174 45.88 1.40962 44.2595 1.40962 42.2792V39.928L29.2557 39.928ZM5.63795 43.5818H14.5417C15.338 43.5818 15.338 42.3685 14.5417 42.3685H5.63795C4.84439 42.3685 4.84439 43.5818 5.63795 43.5818ZM21.2953 27.7678V38.7151H25.5017V27.7678H21.2953ZM15.8792 7.8196V38.7151H20.0856L20.0883 7.8196H15.8792ZM10.4659 20.0635V38.7144H14.6722V1.41273H10.4659V20.0635ZM5.04974 38.7144H9.25612V20.6712H5.04974V38.7144ZM18.1045 51.8037C16.5785 52.1105 15.2854 52.5595 14.3532 53.1062C11.8089 54.5983 12.9188 56.1045 15.5907 57.1448C19.528 58.6788 26.001 58.6788 29.9383 57.1448C32.6102 56.1045 33.7201 54.6011 31.1758 53.1062C30.2435 52.5595 28.9505 52.1077 27.4245 51.8037V54.8299C27.4245 55.1646 27.1553 55.4379 26.8196 55.4379H18.7093C18.3763 55.4379 18.1044 55.1674 18.1044 54.8299L18.1045 51.8037ZM19.3115 54.2218H26.212V47.0928H19.3115V54.2218Z" fill="#FC766A" stroke="#FC766A" stroke-width="0.4"></path></svg> 