<?xml version="1.0" encoding="UTF-8"?> <svg xmlns="http://www.w3.org/2000/svg" width="54" height="53" viewBox="0 0 54 53" fill="none"><path d="M20.1908 40.1317C16.2466 40.1317 12.3909 38.962 9.11148 36.7705C5.83206 34.579 3.27619 31.4642 1.76715 27.82C0.258113 24.1759 -0.136318 20.166 0.633749 16.2977C1.40382 12.4293 3.30379 8.87619 6.09336 6.08773C8.88293 3.29927 12.4368 1.40072 16.3055 0.632197C20.1741 -0.136326 24.1838 0.259704 27.8274 1.7702C31.471 3.28069 34.5847 5.8378 36.7749 9.1181C38.9651 12.3984 40.1333 16.2545 40.1317 20.1988C40.1254 25.4848 38.0222 30.5523 34.2837 34.2893C30.5452 38.0263 25.4768 40.1275 20.1908 40.1317ZM20.1908 1.84878C16.5616 1.84878 13.0138 2.92499 9.99612 4.94131C6.97847 6.95764 4.6265 9.82352 3.23763 13.1766C1.84876 16.5296 1.48537 20.2192 2.19341 23.7787C2.90145 27.3383 4.64912 30.6079 7.21542 33.1742C9.78172 35.7405 13.0514 37.4882 16.6109 38.1962C20.1705 38.9043 23.8601 38.5409 27.2131 37.152C30.5661 35.7631 33.432 33.4112 35.4483 30.3935C37.4647 27.3759 38.5409 23.8281 38.5409 20.1988C38.5346 15.334 36.5992 10.6703 33.1593 7.23035C29.7194 3.79042 25.0556 1.85509 20.1908 1.84878Z" fill="#FC766A" stroke="#FC766A" stroke-width="0.5"></path><path d="M34.8994 39.9648C34.7942 39.9644 34.6901 39.9431 34.5932 39.9021C34.4962 39.8612 34.4084 39.8014 34.3347 39.7262L30.8667 36.2662C30.717 36.1164 30.6328 35.9133 30.6328 35.7015C30.6328 35.4896 30.717 35.2865 30.8667 35.1367C31.0165 34.9869 31.2197 34.9028 31.4315 34.9028C31.6433 34.9028 31.8464 34.9869 31.9962 35.1367L34.8994 38.0399L38.0811 34.8583L35.1778 31.9471C35.0297 31.7981 34.9465 31.5965 34.9465 31.3864C34.9465 31.1762 35.0297 30.9746 35.1778 30.8256C35.2518 30.7511 35.3398 30.6919 35.4367 30.6515C35.5336 30.6111 35.6376 30.5903 35.7426 30.5903C35.8476 30.5903 35.9515 30.6111 36.0485 30.6515C36.1454 30.6919 36.2334 30.7511 36.3073 30.8256L39.7673 34.2936C39.9155 34.4426 39.9986 34.6442 39.9986 34.8543C39.9986 35.0645 39.9155 35.2661 39.7673 35.4151L35.496 39.6864C35.4222 39.7727 35.3308 39.8422 35.2279 39.8902C35.125 39.9383 35.013 39.9637 34.8994 39.9648Z" fill="#FC766A" stroke="#FC766A" stroke-width="0.5"></path><path d="M46.569 52.7549C45.7561 52.7564 44.9511 52.5969 44.2002 52.2856C43.4494 51.9744 42.7676 51.5175 42.1942 50.9414L32.6493 41.3965C32.5748 41.3226 32.5156 41.2346 32.4752 41.1377C32.4349 41.0407 32.4141 40.9368 32.4141 40.8318C32.4141 40.7268 32.4349 40.6228 32.4752 40.5259C32.5156 40.429 32.5748 40.341 32.6493 40.267L40.2773 32.6391C40.3512 32.5645 40.4392 32.5054 40.5361 32.465C40.6331 32.4246 40.737 32.4038 40.842 32.4038C40.947 32.4038 41.051 32.4246 41.1479 32.465C41.2448 32.5054 41.3328 32.5645 41.4068 32.6391L50.9516 42.184C51.8199 43.0495 52.4115 44.1533 52.6514 45.3556C52.8914 46.5578 52.7688 47.8042 52.2993 48.9367C51.8297 50.0692 51.0344 51.0367 50.0142 51.7164C48.994 52.3962 47.7949 52.7577 46.569 52.7549ZM34.3436 40.8238L43.3157 49.8199C44.1785 50.6827 45.3488 51.1674 46.569 51.1674C47.7891 51.1674 48.9594 50.6827 49.8222 49.8199C50.685 48.9571 51.1697 47.7868 51.1697 46.5667C51.1697 45.3465 50.685 44.1763 49.8222 43.3134L40.8261 34.3413L34.3436 40.8238Z" fill="#FC766A" stroke="#FC766A" stroke-width="0.5"></path><path d="M46.8624 49.3586C46.3511 49.3586 45.8513 49.207 45.4262 48.923C45.0011 48.6389 44.6698 48.2352 44.4741 47.7628C44.2785 47.2905 44.2273 46.7707 44.327 46.2692C44.4268 45.7678 44.673 45.3072 45.0345 44.9456C45.396 44.5841 45.8566 44.3379 46.3581 44.2381C46.8595 44.1384 47.3793 44.1896 47.8517 44.3853C48.324 44.5809 48.7278 44.9122 49.0118 45.3374C49.2959 45.7625 49.4475 46.2623 49.4475 46.7735C49.4454 47.4585 49.1724 48.1148 48.688 48.5992C48.2037 49.0835 47.5474 49.3565 46.8624 49.3586ZM46.8624 45.7793C46.6658 45.7793 46.4735 45.8376 46.31 45.9469C46.1465 46.0561 46.0191 46.2114 45.9438 46.3931C45.8686 46.5747 45.8489 46.7747 45.8873 46.9675C45.9256 47.1604 46.0203 47.3375 46.1594 47.4766C46.2984 47.6156 46.4756 47.7103 46.6684 47.7487C46.8613 47.7871 47.0612 47.7674 47.2429 47.6921C47.4246 47.6169 47.5799 47.4894 47.6891 47.3259C47.7984 47.1624 47.8567 46.9702 47.8567 46.7735C47.8567 46.5099 47.7519 46.257 47.5655 46.0705C47.379 45.884 47.1261 45.7793 46.8624 45.7793Z" fill="#FC766A" stroke="#FC766A" stroke-width="0.5"></path><path d="M20.2007 33.3232C19.992 33.3223 19.7921 33.2394 19.6439 33.0925L9.10477 22.5693C7.49413 21.0926 6.53607 19.0366 6.44135 16.8535C6.34662 14.6704 7.123 12.5391 8.59969 10.9285C10.0764 9.31786 12.1324 8.3598 14.3155 8.26508C16.4985 8.17036 18.6298 8.94673 20.2405 10.4234C21.878 9.15553 23.9333 8.55144 25.9965 8.73161C28.0597 8.91178 29.9792 9.86296 31.3722 11.3955C32.7653 12.928 33.5295 14.9293 33.5125 17.0003C33.4956 19.0713 32.6987 21.0598 31.2807 22.5693L20.7654 33.0845C20.6918 33.1597 20.6039 33.2195 20.507 33.2605C20.41 33.3014 20.3059 33.3227 20.2007 33.3232ZM14.9431 10.1212C13.629 10.1171 12.3434 10.5035 11.2493 11.2311C10.1552 11.9588 9.30175 12.995 8.79733 14.2083C8.29291 15.4216 8.16019 16.7574 8.41601 18.0463C8.67183 19.3352 9.30466 20.519 10.2342 21.4478L20.2007 31.3983L30.1671 21.4478C30.7834 20.8304 31.2721 20.0978 31.6052 19.2916C31.9383 18.4854 32.1094 17.6215 32.1087 16.7492C32.1079 15.8769 31.9354 15.0133 31.6009 14.2077C31.2664 13.4021 30.7765 12.6703 30.1592 12.054C29.5419 11.4377 28.8092 10.9491 28.003 10.6159C27.1968 10.2828 26.3329 10.1117 25.4607 10.1125C24.5884 10.1132 23.7248 10.2857 22.9192 10.6202C22.1135 10.9547 21.3817 11.4446 20.7654 12.062C20.6918 12.1371 20.6039 12.1969 20.507 12.2379C20.41 12.2788 20.3059 12.3001 20.2007 12.3006C20.0955 12.3001 19.9913 12.2788 19.8944 12.2379C19.7975 12.1969 19.7096 12.1371 19.636 12.062C19.0211 11.444 18.2897 10.9542 17.4841 10.621C16.6785 10.2879 15.8148 10.118 14.9431 10.1212Z" fill="#FC766A" stroke="#FC766A" stroke-width="0.5"></path><path d="M20.7302 23.5794H20.6825C20.5305 23.5697 20.3845 23.5166 20.2619 23.4263C20.1392 23.3361 20.045 23.2125 19.9905 23.0703L17.9065 17.5741L16.8407 19.6262C16.7735 19.7559 16.6719 19.8646 16.547 19.9404C16.4221 20.0161 16.2788 20.056 16.1328 20.0557H7.93213C7.72117 20.0557 7.51886 19.9719 7.36969 19.8228C7.22052 19.6736 7.13672 19.4713 7.13672 19.2603C7.13672 19.0494 7.22052 18.8471 7.36969 18.6979C7.51886 18.5487 7.72117 18.4649 7.93213 18.4649H15.6476L17.3179 15.2833C17.3892 15.1477 17.498 15.0356 17.6314 14.9604C17.7649 14.8852 17.9171 14.8501 18.07 14.8594C18.2229 14.8686 18.3698 14.9218 18.4932 15.0125C18.6166 15.1032 18.7112 15.2276 18.7656 15.3708L20.8654 20.9386L21.979 18.8865C22.0466 18.7595 22.1474 18.6532 22.2707 18.579C22.394 18.5047 22.5351 18.4653 22.679 18.4649H27.4514C27.6624 18.4649 27.8647 18.5487 28.0138 18.6979C28.163 18.8471 28.2468 19.0494 28.2468 19.2603C28.2468 19.4713 28.163 19.6736 28.0138 19.8228C27.8647 19.9719 27.6624 20.0557 27.4514 20.0557H23.1483L21.4302 23.2374C21.3526 23.3496 21.2475 23.44 21.1249 23.4999C21.0024 23.5598 20.8664 23.5872 20.7302 23.5794Z" fill="#FC766A" stroke="#FC766A" stroke-width="0.5"></path></svg> 