<?xml version="1.0" encoding="UTF-8"?> <svg xmlns="http://www.w3.org/2000/svg" width="53" height="61" viewBox="0 0 53 61" fill="none"><path d="M14.4651 12.1849H5.30188C5.06525 12.1849 4.83832 12.2792 4.671 12.4471C4.50368 12.6149 4.40968 12.8426 4.40968 13.08V22.2732C4.40968 22.5106 4.50368 22.7382 4.671 22.9061C4.83832 23.0739 5.06525 23.1682 5.30188 23.1682H14.4651C14.7017 23.1682 14.9287 23.0739 15.096 22.9061C15.2633 22.7382 15.3573 22.5106 15.3573 22.2732V13.08C15.3573 12.8426 15.2633 12.6149 15.096 12.4471C14.9287 12.2792 14.7017 12.1849 14.4651 12.1849ZM13.5722 21.3782H6.1948V13.9743H13.5722V21.3782ZM7.36513 18.1734C7.19182 18.0113 7.08982 17.7867 7.08156 17.5491C7.07329 17.3116 7.15944 17.0804 7.32106 16.9066C7.48267 16.7327 7.70651 16.6304 7.94333 16.6221C8.18015 16.6138 8.41055 16.7002 8.58386 16.8623L9.34457 17.5726L11.2005 15.9014C11.3783 15.7536 11.6063 15.6807 11.8366 15.698C12.0669 15.7153 12.2815 15.8214 12.4355 15.994C12.5894 16.1667 12.6708 16.3924 12.6623 16.6239C12.6539 16.8554 12.5564 17.0747 12.3903 17.2356L9.92757 19.4511C9.76169 19.6003 9.54625 19.682 9.32347 19.6801C9.10068 19.6782 8.88663 19.5929 8.72328 19.4409L7.36513 18.1734ZM14.4651 25.5251H5.30188C5.18465 25.5251 5.06858 25.5483 4.96028 25.5933C4.85199 25.6383 4.7536 25.7043 4.67075 25.7875C4.58789 25.8707 4.52219 25.9694 4.47739 26.0781C4.4326 26.1868 4.40959 26.3032 4.40968 26.4208V35.6133C4.40968 35.8507 4.50368 36.0784 4.671 36.2462C4.83832 36.4141 5.06525 36.5084 5.30188 36.5084H14.4651C14.7017 36.5084 14.9287 36.4141 15.096 36.2462C15.2633 36.0784 15.3573 35.8507 15.3573 35.6133V26.4208C15.3574 26.3032 15.3344 26.1868 15.2896 26.0781C15.2448 25.9694 15.1791 25.8707 15.0963 25.7875C15.0134 25.7043 14.915 25.6383 14.8067 25.5933C14.6984 25.5483 14.5823 25.5251 14.4651 25.5251ZM13.5722 34.7176H6.1948V27.3159H13.5722V34.7176ZM7.36585 31.5128C7.19264 31.3508 7.09069 31.1264 7.08243 30.8889C7.07416 30.6515 7.16026 30.4205 7.32178 30.2467C7.4833 30.0729 7.70701 29.9707 7.94369 29.9624C8.18038 29.9541 8.41065 30.0405 8.58386 30.2025L9.34529 30.9127L11.2012 29.2459C11.2884 29.1673 11.3901 29.1067 11.5007 29.0676C11.6112 29.0285 11.7283 29.0116 11.8453 29.0179C11.9624 29.0242 12.077 29.0535 12.1827 29.1043C12.2884 29.155 12.3832 29.2262 12.4615 29.3136C12.5398 29.4011 12.6002 29.5032 12.6392 29.614C12.6781 29.7249 12.695 29.8424 12.6887 29.9598C12.6824 30.0772 12.6532 30.1922 12.6026 30.2983C12.552 30.4043 12.4811 30.4993 12.3939 30.5779L9.93118 32.7956C9.76698 32.9426 9.55457 33.0239 9.33446 33.0239C9.10911 33.0243 8.89208 32.9385 8.72762 32.784L7.36585 31.5128ZM14.4651 38.8652H5.30188C5.06525 38.8652 4.83832 38.9595 4.671 39.1274C4.50368 39.2952 4.40968 39.5229 4.40968 39.7603V48.9542C4.40988 49.1915 4.50396 49.419 4.67126 49.5866C4.83855 49.7543 5.06538 49.8485 5.30188 49.8485H14.4651C14.7017 49.8485 14.9287 49.7542 15.096 49.5864C15.2633 49.4185 15.3573 49.1909 15.3573 48.9535V39.761C15.3573 39.5236 15.2633 39.296 15.096 39.1281C14.9287 38.9602 14.7017 38.866 14.4651 38.866V38.8652ZM13.5722 48.0585H6.1948V40.6568H13.5722V48.0585ZM7.36513 44.8551C7.27927 44.7749 7.21001 44.6784 7.16131 44.5713C7.11261 44.4641 7.08543 44.3484 7.0813 44.2308C7.07717 44.1131 7.09619 43.9958 7.13727 43.8855C7.17834 43.7752 7.24067 43.6741 7.3207 43.5879C7.40072 43.5018 7.49687 43.4323 7.60366 43.3835C7.71044 43.3346 7.82578 43.3074 7.94307 43.3032C8.06037 43.2991 8.17733 43.3182 8.28727 43.3594C8.39722 43.4006 8.498 43.4631 8.58386 43.5434L9.34457 44.2529L11.2005 42.5824C11.2877 42.5038 11.3894 42.4432 11.4999 42.4041C11.6105 42.365 11.7276 42.3481 11.8446 42.3544C11.9616 42.3607 12.0763 42.3901 12.182 42.4408C12.2877 42.4915 12.3824 42.5627 12.4608 42.6501C12.5391 42.7376 12.5994 42.8397 12.6384 42.9506C12.6774 43.0614 12.6943 43.1789 12.688 43.2963C12.6817 43.4137 12.6525 43.5287 12.6019 43.6348C12.5513 43.7408 12.4804 43.8359 12.3932 43.9144L9.93046 46.1321C9.76481 46.2818 9.54927 46.3638 9.32635 46.3619C9.10343 46.36 8.88929 46.2744 8.72617 46.122L7.36513 44.8551ZM19.0359 15.1824C19.0359 14.9454 19.1296 14.7181 19.2965 14.5503C19.4633 14.3825 19.6897 14.288 19.9259 14.2874H26.271C26.5033 14.294 26.7239 14.3913 26.8859 14.5584C27.0479 14.7256 27.1385 14.9496 27.1385 15.1828C27.1385 15.4159 27.0479 15.6399 26.8859 15.8071C26.7239 15.9743 26.5033 16.0716 26.271 16.0782H19.9259C19.6896 16.0774 19.4632 15.9827 19.2964 15.8148C19.1296 15.6469 19.0359 15.4195 19.0359 15.1824ZM19.0359 20.1708C19.0359 19.9337 19.1296 19.7064 19.2965 19.5386C19.4633 19.3708 19.6897 19.2763 19.9259 19.2757H33.1463C33.3829 19.2757 33.6099 19.37 33.7772 19.5379C33.9445 19.7057 34.0385 19.9334 34.0385 20.1708C34.0385 20.4081 33.9445 20.6358 33.7772 20.8036C33.6099 20.9715 33.3829 21.0658 33.1463 21.0658H19.9259C19.6897 21.0652 19.4633 20.9707 19.2965 20.8029C19.1296 20.6351 19.0359 20.4078 19.0359 20.1708ZM19.0359 28.5226C19.0359 28.2856 19.1296 28.0582 19.2965 27.8904C19.4633 27.7227 19.6897 27.6281 19.9259 27.6275H26.271C26.5033 27.6342 26.7239 27.7314 26.8859 27.8986C27.0479 28.0658 27.1385 28.2898 27.1385 28.5229C27.1385 28.7561 27.0479 28.9801 26.8859 29.1473C26.7239 29.3145 26.5033 29.4117 26.271 29.4183H19.9259C19.6896 29.4178 19.4631 29.3231 19.2962 29.1552C19.1293 28.9872 19.0357 28.7597 19.0359 28.5226ZM19.0359 33.5109C19.0359 33.2739 19.1296 33.0466 19.2965 32.8788C19.4633 32.711 19.6897 32.6164 19.9259 32.6159H33.1463C33.3786 32.6225 33.5992 32.7197 33.7612 32.8869C33.9232 33.0541 34.0138 33.2781 34.0138 33.5113C34.0138 33.7444 33.9232 33.9684 33.7612 34.1356C33.5992 34.3028 33.3786 34.4 33.1463 34.4067H19.9259C19.6896 34.4061 19.4631 34.3114 19.2962 34.1435C19.1293 33.9755 19.0357 33.748 19.0359 33.5109ZM19.0359 41.8649C19.0357 41.6278 19.1293 41.4002 19.2962 41.2323C19.4631 41.0644 19.6896 40.9697 19.9259 40.9691H26.271C26.5033 40.9758 26.7239 41.073 26.8859 41.2402C27.0479 41.4074 27.1385 41.6314 27.1385 41.8645C27.1385 42.0977 27.0479 42.3217 26.8859 42.4889C26.7239 42.6561 26.5033 42.7533 26.271 42.7599H19.9259C19.6897 42.7594 19.4633 42.6648 19.2965 42.497C19.1296 42.3292 19.0359 42.1019 19.0359 41.8649ZM52.383 44.8327L50.6673 44.2739C50.4185 43.3803 50.0636 42.52 49.6104 41.7113L50.4282 40.0987C50.5136 39.9303 50.5438 39.7392 50.5145 39.5525C50.4852 39.3659 50.3978 39.1933 50.2649 39.0595L47.8087 36.5954C47.6756 36.4614 47.5036 36.3732 47.3175 36.3435C47.1313 36.3138 46.9406 36.3442 46.7727 36.4301L45.1653 37.2512C44.3588 36.7973 43.5009 36.442 42.6101 36.1931L42.0524 34.4719C41.9941 34.2921 41.8806 34.1355 41.7281 34.0244C41.5756 33.9134 41.392 33.8536 41.2035 33.8537H40.3641V6.22762C40.3631 5.36297 40.0203 4.534 39.4108 3.9226C38.8014 3.3112 37.9751 2.96729 37.1131 2.96633H29.6173V1.31901C29.6171 0.969874 29.479 0.635037 29.2332 0.387819C28.9875 0.140602 28.6541 0.00115032 28.3061 0H12.0609C11.7123 0.000383661 11.3781 0.139474 11.1316 0.386753C10.8851 0.634033 10.7465 0.969307 10.7461 1.31901V2.96488H3.25091C2.38907 2.96603 1.56285 3.31 0.953437 3.92136C0.344021 4.53272 0.00114683 5.36158 0 6.22618V51.2654C0 52.1303 0.342506 52.9599 0.952171 53.5715C1.56184 54.1831 2.38872 54.5267 3.25091 54.5267H28.6297L28.5156 54.7521C28.43 54.9205 28.3998 55.1119 28.4294 55.2986C28.459 55.4853 28.5468 55.6578 28.6803 55.7914L31.1329 58.2554C31.2664 58.3892 31.4386 58.4772 31.625 58.5067C31.8113 58.5363 32.0022 58.5059 32.1703 58.42L33.7755 57.5988C34.5818 58.0538 35.4397 58.4098 36.3308 58.6591L36.8885 60.3811C36.9467 60.5609 37.0602 60.7177 37.2127 60.8288C37.3652 60.94 37.5488 60.9999 37.7373 61H41.205C41.3934 61.0001 41.577 60.9403 41.7295 60.8293C41.882 60.7182 41.9955 60.5616 42.0538 60.3818L42.6122 58.6591C43.5037 58.4099 44.3618 58.0536 45.1682 57.5981L46.7734 58.42C46.9416 58.5062 47.1326 58.5367 47.3192 58.5072C47.5057 58.4776 47.6781 58.3895 47.8115 58.2554L50.2678 55.7914C50.4009 55.6579 50.4885 55.4857 50.5181 55.2993C50.5477 55.1129 50.5177 54.9218 50.4325 54.7535L49.6104 53.1388C50.0644 52.3295 50.4193 51.4681 50.6673 50.5733L52.3838 50.0138C52.5628 49.9551 52.7189 49.8412 52.8295 49.6882C52.9402 49.5353 52.9999 49.3512 53 49.1622V45.6835C52.9998 45.4945 52.94 45.3105 52.8292 45.1576C52.7184 45.0048 52.5622 44.8911 52.383 44.8327ZM12.5312 1.79081H27.8329V5.92976H12.5312V1.79081ZM1.78511 51.2654V6.22762C1.7853 5.83749 1.93973 5.46335 2.21452 5.18728C2.4893 4.91121 2.86202 4.75574 3.25091 4.75497H10.7461V6.40156C10.7466 6.75114 10.8854 7.08623 11.1319 7.33335C11.3783 7.58048 11.7124 7.71947 12.0609 7.71985H28.3061C28.6545 7.71947 28.9885 7.58045 29.2348 7.33331C29.4812 7.08616 29.6198 6.75108 29.6202 6.40156V4.75497H37.1131C37.5022 4.75555 37.8751 4.91093 38.15 5.18702C38.425 5.46312 38.5795 5.83736 38.5797 6.22762V33.8537H37.7373C37.5488 33.8538 37.3652 33.9137 37.2127 34.0249C37.0602 34.136 36.9467 34.2928 36.8885 34.4726L36.3308 36.1931C35.4403 36.4432 34.5829 36.7994 33.777 37.2541L32.1696 36.433C32.0017 36.347 31.811 36.3166 31.6248 36.3463C31.4386 36.376 31.2666 36.4642 31.1336 36.5983L28.6774 39.0624C28.5439 39.196 28.456 39.3686 28.4264 39.5555C28.3969 39.7423 28.427 39.9338 28.5127 40.1023L29.3319 41.7141C28.8779 42.5228 28.5228 43.3835 28.2743 44.2775L26.5585 44.8356C26.3791 44.8938 26.2226 45.0076 26.1116 45.1606C26.0006 45.3136 25.9409 45.4979 25.9408 45.6871V45.9589H19.9259C19.6936 45.9655 19.473 46.0628 19.311 46.23C19.149 46.3972 19.0584 46.6211 19.0584 46.8543C19.0584 47.0875 19.149 47.3114 19.311 47.4786C19.473 47.6458 19.6936 47.7431 19.9259 47.7497H25.9437V49.168C25.9438 49.3571 26.0035 49.5413 26.1144 49.6943C26.2252 49.8473 26.3814 49.9611 26.5607 50.0196L28.2772 50.5791C28.4913 51.3266 28.7803 52.0504 29.1397 52.7395H3.25091C2.86171 52.7389 2.48866 52.5833 2.21379 52.3069C1.93892 52.0305 1.78473 51.6558 1.78511 51.2654ZM51.2149 48.5114L49.6501 49.0187C49.5032 49.0665 49.3711 49.1517 49.2669 49.266C49.1627 49.3804 49.0898 49.5199 49.0556 49.671C48.8133 50.7181 48.4008 51.7181 47.8347 52.6308C47.7536 52.7619 47.7076 52.9117 47.701 53.0658C47.6944 53.2199 47.7275 53.3731 47.7971 53.5106L48.5441 54.9811L47.0089 56.5219L45.5402 55.7718C45.4034 55.7019 45.2508 55.6688 45.0974 55.6755C44.944 55.6822 44.7949 55.7286 44.6647 55.8102C43.7553 56.3783 42.7587 56.7919 41.715 57.0343C41.5646 57.0686 41.4256 57.1415 41.3117 57.2457C41.1977 57.35 41.1127 57.4822 41.0648 57.6293L40.5555 59.2019H38.3853L37.8796 57.6293C37.8321 57.4827 37.7477 57.351 37.6345 57.2468C37.5214 57.1425 37.3834 57.0693 37.2338 57.0343C36.19 56.7925 35.1933 56.3792 34.2841 55.8109C34.1539 55.7289 34.0047 55.6822 33.8511 55.6753C33.6975 55.6685 33.5448 55.7017 33.4078 55.7718L31.9391 56.5219L30.4011 54.9847L31.1488 53.5142C31.2184 53.3767 31.2515 53.2235 31.2449 53.0694C31.2383 52.9153 31.1923 52.7655 31.1112 52.6344C30.545 51.7214 30.1323 50.7212 29.8896 49.6739C29.8553 49.5228 29.7825 49.3833 29.6783 49.2689C29.574 49.1546 29.442 49.0694 29.2951 49.0216L27.7296 48.5143V46.3358L29.298 45.8234C29.4439 45.7757 29.575 45.6909 29.6787 45.5774C29.7823 45.4639 29.855 45.3254 29.8896 45.1755C30.1322 44.1283 30.5449 43.1283 31.1112 42.2157C31.1923 42.0846 31.2383 41.9348 31.2449 41.7807C31.2515 41.6266 31.2184 41.4734 31.1488 41.3358L30.4011 39.8654L31.937 38.3253L33.4035 39.0747C33.5406 39.1448 33.6935 39.1782 33.8473 39.1716C34.0011 39.165 34.1506 39.1186 34.2812 39.037C35.1906 38.4687 36.1872 38.0548 37.2309 37.8122C37.3803 37.7771 37.5182 37.7039 37.6314 37.5998C37.7445 37.4958 37.829 37.3642 37.8768 37.2179L38.3825 35.646H40.5584L41.0677 37.2179C41.1155 37.3643 41.2002 37.4959 41.3134 37.6C41.4266 37.7041 41.5647 37.7772 41.7143 37.8122C42.7582 38.0555 43.7552 38.4693 44.6654 39.037C44.7958 39.1186 44.945 39.1649 45.0986 39.1715C45.2521 39.1781 45.4048 39.1448 45.5417 39.0747L47.0082 38.3253L48.5441 39.8668L47.7971 41.3358C47.7275 41.4734 47.6944 41.6266 47.701 41.7807C47.7076 41.9348 47.7536 42.0846 47.8347 42.2157C48.4003 43.1286 48.8127 44.1285 49.0556 45.1755C49.0903 45.3254 49.163 45.4638 49.2667 45.5773C49.3703 45.6908 49.5014 45.7755 49.6472 45.8234L51.2149 46.335V48.5114ZM39.4719 39.9712C38.0023 39.971 36.5656 40.4081 35.3436 41.2271C34.1216 42.0461 33.1692 43.2102 32.6067 44.5722C32.0443 45.9343 31.8971 47.4331 32.1837 48.879C32.4704 50.325 33.1781 51.6532 34.2172 52.6957C35.2564 53.7382 36.5804 54.4481 38.0218 54.7357C39.4631 55.0233 40.9572 54.8756 42.3149 54.3114C43.6726 53.7471 44.833 52.7916 45.6494 51.5657C46.4658 50.3398 46.9014 48.8986 46.9013 47.4243C46.8992 45.4483 46.1158 43.5538 44.7229 42.1565C43.3301 40.7592 41.4416 39.9733 39.4719 39.9712ZM39.4719 53.2062C38.332 53.2062 37.2176 52.8671 36.2698 52.2318C35.322 51.5965 34.5833 50.6935 34.1471 49.637C33.7109 48.5805 33.5967 47.4179 33.8191 46.2963C34.0415 45.1747 34.5904 44.1445 35.3965 43.3359C36.2025 42.5273 37.2295 41.9766 38.3475 41.7535C39.4655 41.5304 40.6243 41.6449 41.6775 42.0825C42.7306 42.5201 43.6307 43.2612 44.264 44.2121C44.8973 45.1629 45.2354 46.2808 45.2354 47.4243C45.2338 48.9573 44.6261 50.4271 43.5456 51.5111C42.4651 52.595 41 53.2047 39.4719 53.2062Z" fill="#FC766A"></path></svg> 