<?xml version="1.0" encoding="UTF-8"?> <svg xmlns="http://www.w3.org/2000/svg" width="60" height="59" viewBox="0 0 60 59" fill="none"><path d="M50.8088 30.0099C50.4898 29.8183 50.0945 29.7961 49.7528 29.9599L38.4184 35.5412H28.5016C26.3415 35.5412 24.5767 37.2683 24.5767 39.4008V45.1875C24.5767 47.3117 26.3415 49.0472 28.5016 49.0472H29.0579L30.3737 58.0827C30.4527 58.6075 30.9073 58.9991 31.4439 58.9991H37.2267C37.5458 58.9991 37.8423 58.863 38.0427 58.6298C38.246 58.3965 38.3392 58.0883 38.2969 57.7829L37.0319 49.0473H38.4211L49.7555 54.6202C49.908 54.6979 50.0746 54.734 50.2412 54.734C50.436 54.734 50.6393 54.6785 50.8115 54.5785C51.1278 54.3786 51.3226 54.0371 51.3226 53.6678V30.9208C51.3226 30.5515 51.1279 30.2098 50.8088 30.0099ZM26.7457 45.1878V39.4011C26.7457 38.4487 27.5335 37.674 28.502 37.674H37.5883V46.915H28.502C27.5335 46.915 26.7457 46.1403 26.7457 45.1878ZM35.9766 56.867H32.3848L31.2497 49.0477H34.8415L35.9766 56.867ZM49.1542 51.941L39.7571 47.3206V37.2685L49.1542 32.648V51.941ZM59.997 42.2949C59.997 42.8836 59.5114 43.3612 58.9128 43.3612H56.0213C55.4227 43.3612 54.9371 42.8836 54.9371 42.2949C54.9371 41.7062 55.4227 41.2286 56.0213 41.2286H58.9128C59.5114 41.2286 59.997 41.7062 59.997 42.2949ZM58.4355 33.2871C58.7038 33.8119 58.4864 34.4533 57.9499 34.7171L55.0584 36.1388C54.9003 36.2165 54.7394 36.2526 54.5728 36.2526C54.1746 36.2526 53.7935 36.0388 53.6043 35.664C53.336 35.1392 53.5535 34.4978 54.09 34.234L56.9814 32.8123C57.5179 32.5485 58.1673 32.7623 58.4355 33.2871ZM58.4355 51.3027C58.2463 51.6776 57.8652 51.8914 57.4671 51.8914C57.3005 51.8914 57.1423 51.8553 56.9814 51.7775L54.09 50.3558C53.5563 50.0921 53.3388 49.4534 53.6043 48.9258C53.8725 48.401 54.5219 48.1872 55.0585 48.4482L57.9499 49.8699C58.4864 50.1365 58.7038 50.7751 58.4355 51.3027ZM24.2156 56.8673H2.16849V25.6264L8.93398 29.3222C8.76738 29.8331 8.6742 30.3746 8.6742 30.9216C8.6742 33.8649 11.1026 36.2529 14.0956 36.2529C17.0887 36.2529 19.517 33.8649 19.517 30.9216C19.517 29.6555 19.0624 28.4615 18.2605 27.5173L28.9877 14.3305C29.7388 14.7137 30.5774 14.9275 31.4442 14.9275C33.5761 14.9275 35.4566 13.7113 36.3319 11.8981L49.1713 15.0552C49.1713 15.1329 49.1572 15.2051 49.1572 15.2829C49.1572 18.2262 51.5855 20.6142 54.5786 20.6142C57.5716 20.6142 60 18.2262 60 15.2829C60 12.3396 57.5716 9.95157 54.5786 9.95157C52.4524 9.95157 50.5803 11.1677 49.6993 12.9865L36.86 9.82937C36.86 9.75162 36.8684 9.67387 36.8684 9.59613C36.8684 6.65281 34.4401 4.2648 31.447 4.2648C28.454 4.2648 26.0256 6.65281 26.0256 9.59613C26.0256 10.8484 26.4887 12.0563 27.2906 13.0004L16.5605 26.1873C15.801 25.8041 14.9708 25.5903 14.0955 25.5903C12.4973 25.5903 11.0092 26.2928 9.98986 27.459L2.16857 23.1884V1.06627C2.16857 0.477601 1.68289 0 1.08428 0C0.485672 0 0 0.477601 0 1.06627V57.9337C0 58.5224 0.485672 59 1.08428 59H24.2156C24.8143 59 25.2999 58.5224 25.2999 57.9337C25.2999 57.3451 24.8142 56.8673 24.2156 56.8673ZM54.5755 12.0841C56.3685 12.0841 57.8283 13.5197 57.8283 15.2829C57.8283 17.0462 56.3685 18.4817 54.5755 18.4817C52.7824 18.4817 51.3226 17.0462 51.3226 15.2829C51.3226 15.0136 51.3509 14.7637 51.4243 14.5082C51.7857 13.0782 53.079 12.0841 54.5755 12.0841ZM31.4441 6.39738C33.2372 6.39738 34.697 7.83293 34.697 9.59618C34.697 9.78777 34.6829 9.97381 34.6461 10.1848C34.6377 10.2348 34.6236 10.2904 34.6038 10.3764C34.2424 11.7981 32.9491 12.7922 31.4526 12.7922C30.8173 12.7922 30.2243 12.6228 29.6539 12.2507C29.6313 12.2285 29.5522 12.1785 29.524 12.1591C29.4958 12.1313 29.4732 12.1091 29.4449 12.0869L29.4365 12.0785L29.428 12.0702C28.6628 11.4871 28.2054 10.5624 28.2054 9.59613C28.1912 7.83288 29.6511 6.39738 31.4441 6.39738ZM14.0956 27.7227C14.8467 27.7227 15.5498 27.9643 16.1258 28.4252C16.8995 29.0361 17.3484 29.9468 17.3484 30.9215C17.3484 32.6847 15.8886 34.1203 14.0956 34.1203C12.3026 34.1203 10.8428 32.6847 10.8428 30.9215C10.8428 30.3745 10.9811 29.8413 11.255 29.372C11.8254 28.3557 12.9181 27.7227 14.0956 27.7227Z" fill="#FC766A"></path></svg> 