<?xml version="1.0" encoding="UTF-8"?> <svg xmlns="http://www.w3.org/2000/svg" width="51" height="51" viewBox="0 0 51 51" fill="none"><path d="M50.0625 31.3401C49.9475 30.9601 49.6175 30.6852 49.2224 30.6351L39.8771 29.5301L36.017 20.7002C35.857 20.3352 35.497 20.1002 35.102 20.1002C34.707 20.1002 34.347 20.3352 34.187 20.7002L30.332 29.5352L20.9866 30.6402C20.5916 30.6852 20.2616 30.9652 20.1466 31.3453C20.0316 31.7253 20.1516 32.1403 20.4566 32.3952L27.5716 38.4351L25.3765 47.7847C25.2865 48.1747 25.4365 48.5847 25.7615 48.8197C26.0865 49.0547 26.5215 49.0747 26.8666 48.8697L35.1015 43.9098L43.3365 48.8647C43.4965 48.9597 43.6715 49.0097 43.8515 49.0097C44.0615 49.0097 44.2665 48.9447 44.4415 48.8197C44.7665 48.5847 44.9165 48.1747 44.8265 47.7847L42.6315 38.4351L49.7465 32.3952C50.0515 32.1352 50.1715 31.7202 50.0615 31.3403L50.0625 31.3401ZM40.8726 37.3C40.5876 37.545 40.4626 37.925 40.5476 38.29L42.3376 45.9302L35.6175 41.8853C35.4575 41.7903 35.2825 41.7403 35.1025 41.7403C34.9225 41.7403 34.7475 41.7903 34.5875 41.8853L27.8675 45.9302L29.6575 38.29C29.7425 37.925 29.6175 37.54 29.3325 37.3L23.5024 32.3501L31.1377 31.4502C31.4927 31.4102 31.7927 31.1802 31.9377 30.8552L35.1027 23.6003L38.2678 30.8603C38.4078 31.1853 38.7128 31.4103 39.0678 31.4553L46.7031 32.3552L40.8726 37.3ZM21.1021 49.1001C21.1021 49.6501 20.6521 50.1001 20.1021 50.1001H1.10157C0.551564 50.1001 0.101562 49.6501 0.101562 49.1001V40.0654C0.101562 32.9155 5.9166 27.1005 13.0668 27.1005H17.1019C17.6519 27.1005 18.1019 27.5505 18.1019 28.1005C18.1019 28.6505 17.6519 29.1005 17.1019 29.1005H13.0668C7.02177 29.1005 2.10159 34.0204 2.10159 40.0654V48.1005H10.1017V42.1006C10.1017 41.5506 10.5517 41.1006 11.1017 41.1006C11.6517 41.1006 12.1017 41.5506 12.1017 42.1006V48.1005H20.1018C20.6518 48.1005 21.1021 48.5501 21.1021 49.1001ZM21.1021 22.1003C27.1672 22.1003 32.1026 17.1654 32.1026 11.1002C32.1026 5.03498 27.1675 0.100098 21.1021 0.100098C15.0367 0.100098 10.1017 5.03498 10.1017 11.1002C10.1017 17.1654 15.0367 22.1003 21.1021 22.1003ZM21.1021 2.1007C26.0622 2.1007 30.1019 6.14062 30.1019 11.1002C30.1019 16.0598 26.0619 20.0997 21.1021 20.0997C16.1424 20.0997 12.1023 16.0598 12.1023 11.1002C12.1023 6.14062 16.1424 2.1007 21.1021 2.1007Z" fill="#FC766A" stroke="#FC766A" stroke-width="0.2"></path></svg> 