<?xml version="1.0" encoding="UTF-8"?> <svg xmlns="http://www.w3.org/2000/svg" width="62" height="55" viewBox="0 0 62 55" fill="none"><mask id="path-1-inside-1_24780_4017" fill="white"><path d="M11.1287 4.36529C11.1287 4.83515 10.7503 5.2141 10.281 5.2141H10.2417C9.77242 5.2141 9.39397 4.83519 9.39397 4.36529C9.39397 3.8954 9.77239 3.51649 10.2417 3.51649H10.281C10.7503 3.51649 11.1287 3.89844 11.1287 4.36529ZM46.1549 3.51649H22.9444C22.4752 3.51649 22.0967 3.8954 22.0967 4.36529C22.0967 4.83519 22.4751 5.2141 22.9444 5.2141H46.1549C46.6242 5.2141 47.0026 4.83519 47.0026 4.36529C47.0026 3.89848 46.6242 3.51649 46.1549 3.51649ZM12.9236 3.51649H12.8843C12.415 3.51649 12.0366 3.8954 12.0366 4.36529C12.0366 4.83519 12.415 5.2141 12.8843 5.2141H12.9236C13.3929 5.2141 13.7713 4.83519 13.7713 4.36529C13.7713 3.89848 13.3929 3.51649 12.9236 3.51649ZM15.5665 3.51649H15.5272C15.0579 3.51649 14.6795 3.8954 14.6795 4.36529C14.6795 4.83519 15.0579 5.2141 15.5272 5.2141H15.5665C16.0358 5.2141 16.4142 4.83519 16.4142 4.36529C16.4142 3.89848 16.0358 3.51649 15.5665 3.51649ZM62 37.8643C62 45.1152 56.1087 51.0108 48.8676 51.0108C45.2529 51.0108 41.9743 49.5406 39.5978 47.1641H35.7591V53.2994H40.3274C40.7966 53.2994 41.1751 53.6783 41.1751 54.1482C41.1751 54.618 40.7967 54.997 40.3274 54.997L16.0752 55C15.606 55 15.2275 54.6211 15.2275 54.1512C15.2275 53.6813 15.606 53.3024 16.0752 53.3024H20.6405V47.1671H0.847697C0.378456 47.1671 0 46.7882 0 46.3183V10.6279C0 10.1581 0.378418 9.77915 0.847697 9.77915H4.46541V0.848802C4.46541 0.37895 4.84382 0 5.3131 0H51.0863C51.5555 0 51.934 0.378911 51.934 0.848802V9.77915H55.5517C56.0209 9.77915 56.3994 10.1581 56.3994 10.6279V27.1004C59.784 29.4829 62 33.4205 62 37.8643ZM51.9374 11.4768V25.0749C52.9061 25.3083 53.8355 25.6478 54.7074 26.0843V11.4767L51.9374 11.4768ZM48.8677 24.7148C49.3309 24.7148 49.788 24.7391 50.2421 24.7876L50.239 8.7311H6.1608V35.8434H35.8922C36.864 29.5504 42.3136 24.7148 48.8677 24.7148ZM6.16119 7.03338H50.2394V1.6983L6.16119 1.70133V7.03338ZM1.69586 11.4773V41.0387H36.1261C35.8718 40.0202 35.7386 38.9562 35.7386 37.8619C35.7386 37.7527 35.7416 37.6466 35.7416 37.5405H5.3135C4.84426 37.5405 4.4658 37.1616 4.4658 36.6917V11.4776L1.69586 11.4773ZM1.69586 45.4674H38.1605C37.5611 44.6247 37.0615 43.7093 36.671 42.7392H1.69594L1.69586 45.4674ZM34.0615 47.1679H22.3365V53.3032H34.0615V47.1679ZM60.3054 37.8651C60.3054 31.5509 55.174 26.4127 48.8679 26.4127C42.5619 26.4127 37.4335 31.5508 37.4335 37.8651C37.4335 44.1794 42.5619 49.3144 48.8679 49.3144C55.1739 49.3144 60.3054 44.1794 60.3054 37.8651ZM45.0781 33.7516C44.7482 33.4212 44.2093 33.4212 43.8793 33.7516L40.3706 37.2649C40.2132 37.4225 40.1224 37.6408 40.1224 37.8651C40.1224 38.0894 40.2132 38.3076 40.3706 38.4653L43.8793 41.9755C44.0458 42.1422 44.2607 42.224 44.4787 42.224C44.6967 42.224 44.9116 42.1422 45.0781 41.9755C45.4081 41.6451 45.4081 41.1055 45.0781 40.7751L42.1688 37.865L45.0781 34.9519C45.4081 34.6215 45.4081 34.0851 45.0781 33.7516ZM57.3689 37.2649L53.8602 33.7516C53.5303 33.4212 52.9914 33.4212 52.6614 33.7516C52.3314 34.082 52.3314 34.6216 52.6614 34.952L55.5707 37.8651L52.6614 40.7752C52.3314 41.1056 52.3284 41.6451 52.6614 41.9756C52.8279 42.1423 53.0428 42.2241 53.2608 42.2241C53.4788 42.2241 53.6937 42.1423 53.8602 41.9756L57.3689 38.4654C57.5263 38.3077 57.6171 38.0895 57.6171 37.8652C57.6171 37.6408 57.5293 37.4255 57.3689 37.2649ZM50.9146 33.2605C50.4878 33.0695 49.9852 33.2635 49.7945 33.6909L46.3918 41.345C46.201 41.7724 46.3948 42.2756 46.8217 42.4665C46.9337 42.515 47.0517 42.5393 47.1668 42.5393C47.4907 42.5393 47.8025 42.3514 47.9418 42.0361L51.3445 34.3821C51.5352 33.9546 51.3415 33.4515 50.9146 33.2605ZM38.7874 18.4705L35.7842 20.0013L38.7874 21.5322C39.0719 21.6777 39.2506 21.9687 39.2506 22.29C39.2506 22.6083 39.0719 22.9023 38.7874 23.0478L35.7812 24.5786L38.7874 26.1095C39.0719 26.255 39.2506 26.546 39.2506 26.8673C39.2506 27.1856 39.0719 27.4796 38.7874 27.6251L28.5852 32.8177C28.4642 32.8784 28.334 32.9087 28.2008 32.9087C28.0676 32.9087 27.9374 32.8784 27.8163 32.8177L17.6142 27.6221C17.3296 27.4766 17.151 27.1856 17.151 26.8643C17.151 26.546 17.3296 26.252 17.6142 26.1065L20.6203 24.5756L17.6142 23.0448C17.3296 22.8993 17.151 22.6083 17.151 22.2869C17.151 21.9687 17.3296 21.6746 17.6142 21.5291L20.6203 19.9983L17.6142 18.4674C17.3296 18.3219 17.151 18.0309 17.151 17.7096C17.151 17.3913 17.3296 17.0973 17.6142 16.9518L27.8163 11.7562C28.0585 11.6319 28.3431 11.6319 28.5853 11.7562L38.7874 16.9518C39.072 17.0973 39.2506 17.3883 39.2506 17.7096C39.2506 18.034 39.0689 18.325 38.7874 18.4705ZM33.9103 25.5304L28.5852 28.2434C28.4641 28.304 28.3339 28.3344 28.2007 28.3344C28.0675 28.3344 27.9373 28.304 27.8162 28.2434L22.4911 25.5304L19.8694 26.8642L28.2007 31.1081L36.532 26.8642L33.9103 25.5304ZM33.9133 20.9532L28.5852 23.6662C28.4641 23.7268 28.3339 23.7571 28.2007 23.7571C28.0675 23.7571 27.9373 23.7268 27.8162 23.6662L22.4881 20.9532L19.8664 22.287L28.1977 26.5308L36.5321 22.287L33.9133 20.9532ZM36.532 17.7127L28.2007 13.4688L19.8694 17.7127L22.8181 19.2162C22.8574 19.2314 22.8938 19.2526 22.9271 19.2708L28.2007 21.9565L33.4925 19.2616C33.5167 19.2465 33.5409 19.2344 33.5682 19.2222L36.532 17.7127Z"></path></mask><path d="M11.1287 4.36529C11.1287 4.83515 10.7503 5.2141 10.281 5.2141H10.2417C9.77242 5.2141 9.39397 4.83519 9.39397 4.36529C9.39397 3.8954 9.77239 3.51649 10.2417 3.51649H10.281C10.7503 3.51649 11.1287 3.89844 11.1287 4.36529ZM46.1549 3.51649H22.9444C22.4752 3.51649 22.0967 3.8954 22.0967 4.36529C22.0967 4.83519 22.4751 5.2141 22.9444 5.2141H46.1549C46.6242 5.2141 47.0026 4.83519 47.0026 4.36529C47.0026 3.89848 46.6242 3.51649 46.1549 3.51649ZM12.9236 3.51649H12.8843C12.415 3.51649 12.0366 3.8954 12.0366 4.36529C12.0366 4.83519 12.415 5.2141 12.8843 5.2141H12.9236C13.3929 5.2141 13.7713 4.83519 13.7713 4.36529C13.7713 3.89848 13.3929 3.51649 12.9236 3.51649ZM15.5665 3.51649H15.5272C15.0579 3.51649 14.6795 3.8954 14.6795 4.36529C14.6795 4.83519 15.0579 5.2141 15.5272 5.2141H15.5665C16.0358 5.2141 16.4142 4.83519 16.4142 4.36529C16.4142 3.89848 16.0358 3.51649 15.5665 3.51649ZM62 37.8643C62 45.1152 56.1087 51.0108 48.8676 51.0108C45.2529 51.0108 41.9743 49.5406 39.5978 47.1641H35.7591V53.2994H40.3274C40.7966 53.2994 41.1751 53.6783 41.1751 54.1482C41.1751 54.618 40.7967 54.997 40.3274 54.997L16.0752 55C15.606 55 15.2275 54.6211 15.2275 54.1512C15.2275 53.6813 15.606 53.3024 16.0752 53.3024H20.6405V47.1671H0.847697C0.378456 47.1671 0 46.7882 0 46.3183V10.6279C0 10.1581 0.378418 9.77915 0.847697 9.77915H4.46541V0.848802C4.46541 0.37895 4.84382 0 5.3131 0H51.0863C51.5555 0 51.934 0.378911 51.934 0.848802V9.77915H55.5517C56.0209 9.77915 56.3994 10.1581 56.3994 10.6279V27.1004C59.784 29.4829 62 33.4205 62 37.8643ZM51.9374 11.4768V25.0749C52.9061 25.3083 53.8355 25.6478 54.7074 26.0843V11.4767L51.9374 11.4768ZM48.8677 24.7148C49.3309 24.7148 49.788 24.7391 50.2421 24.7876L50.239 8.7311H6.1608V35.8434H35.8922C36.864 29.5504 42.3136 24.7148 48.8677 24.7148ZM6.16119 7.03338H50.2394V1.6983L6.16119 1.70133V7.03338ZM1.69586 11.4773V41.0387H36.1261C35.8718 40.0202 35.7386 38.9562 35.7386 37.8619C35.7386 37.7527 35.7416 37.6466 35.7416 37.5405H5.3135C4.84426 37.5405 4.4658 37.1616 4.4658 36.6917V11.4776L1.69586 11.4773ZM1.69586 45.4674H38.1605C37.5611 44.6247 37.0615 43.7093 36.671 42.7392H1.69594L1.69586 45.4674ZM34.0615 47.1679H22.3365V53.3032H34.0615V47.1679ZM60.3054 37.8651C60.3054 31.5509 55.174 26.4127 48.8679 26.4127C42.5619 26.4127 37.4335 31.5508 37.4335 37.8651C37.4335 44.1794 42.5619 49.3144 48.8679 49.3144C55.1739 49.3144 60.3054 44.1794 60.3054 37.8651ZM45.0781 33.7516C44.7482 33.4212 44.2093 33.4212 43.8793 33.7516L40.3706 37.2649C40.2132 37.4225 40.1224 37.6408 40.1224 37.8651C40.1224 38.0894 40.2132 38.3076 40.3706 38.4653L43.8793 41.9755C44.0458 42.1422 44.2607 42.224 44.4787 42.224C44.6967 42.224 44.9116 42.1422 45.0781 41.9755C45.4081 41.6451 45.4081 41.1055 45.0781 40.7751L42.1688 37.865L45.0781 34.9519C45.4081 34.6215 45.4081 34.0851 45.0781 33.7516ZM57.3689 37.2649L53.8602 33.7516C53.5303 33.4212 52.9914 33.4212 52.6614 33.7516C52.3314 34.082 52.3314 34.6216 52.6614 34.952L55.5707 37.8651L52.6614 40.7752C52.3314 41.1056 52.3284 41.6451 52.6614 41.9756C52.8279 42.1423 53.0428 42.2241 53.2608 42.2241C53.4788 42.2241 53.6937 42.1423 53.8602 41.9756L57.3689 38.4654C57.5263 38.3077 57.6171 38.0895 57.6171 37.8652C57.6171 37.6408 57.5293 37.4255 57.3689 37.2649ZM50.9146 33.2605C50.4878 33.0695 49.9852 33.2635 49.7945 33.6909L46.3918 41.345C46.201 41.7724 46.3948 42.2756 46.8217 42.4665C46.9337 42.515 47.0517 42.5393 47.1668 42.5393C47.4907 42.5393 47.8025 42.3514 47.9418 42.0361L51.3445 34.3821C51.5352 33.9546 51.3415 33.4515 50.9146 33.2605ZM38.7874 18.4705L35.7842 20.0013L38.7874 21.5322C39.0719 21.6777 39.2506 21.9687 39.2506 22.29C39.2506 22.6083 39.0719 22.9023 38.7874 23.0478L35.7812 24.5786L38.7874 26.1095C39.0719 26.255 39.2506 26.546 39.2506 26.8673C39.2506 27.1856 39.0719 27.4796 38.7874 27.6251L28.5852 32.8177C28.4642 32.8784 28.334 32.9087 28.2008 32.9087C28.0676 32.9087 27.9374 32.8784 27.8163 32.8177L17.6142 27.6221C17.3296 27.4766 17.151 27.1856 17.151 26.8643C17.151 26.546 17.3296 26.252 17.6142 26.1065L20.6203 24.5756L17.6142 23.0448C17.3296 22.8993 17.151 22.6083 17.151 22.2869C17.151 21.9687 17.3296 21.6746 17.6142 21.5291L20.6203 19.9983L17.6142 18.4674C17.3296 18.3219 17.151 18.0309 17.151 17.7096C17.151 17.3913 17.3296 17.0973 17.6142 16.9518L27.8163 11.7562C28.0585 11.6319 28.3431 11.6319 28.5853 11.7562L38.7874 16.9518C39.072 17.0973 39.2506 17.3883 39.2506 17.7096C39.2506 18.034 39.0689 18.325 38.7874 18.4705ZM33.9103 25.5304L28.5852 28.2434C28.4641 28.304 28.3339 28.3344 28.2007 28.3344C28.0675 28.3344 27.9373 28.304 27.8162 28.2434L22.4911 25.5304L19.8694 26.8642L28.2007 31.1081L36.532 26.8642L33.9103 25.5304ZM33.9133 20.9532L28.5852 23.6662C28.4641 23.7268 28.3339 23.7571 28.2007 23.7571C28.0675 23.7571 27.9373 23.7268 27.8162 23.6662L22.4881 20.9532L19.8664 22.287L28.1977 26.5308L36.5321 22.287L33.9133 20.9532ZM36.532 17.7127L28.2007 13.4688L19.8694 17.7127L22.8181 19.2162C22.8574 19.2314 22.8938 19.2526 22.9271 19.2708L28.2007 21.9565L33.4925 19.2616C33.5167 19.2465 33.5409 19.2344 33.5682 19.2222L36.532 17.7127Z" fill="#FC766A" stroke="white" stroke-width="0.2" mask="url(#path-1-inside-1_24780_4017)"></path></svg> 