<?xml version="1.0" encoding="UTF-8"?> <svg xmlns="http://www.w3.org/2000/svg" width="32" height="36" viewBox="0 0 32 36" fill="none"><path d="M29.6051 7.71274C26.7566 2.77244 21.2782 -0.251047 15.9769 0.192959C10.308 0.666106 4.56769 4.37778 4.56769 10.5549C4.56769 12.6242 3.13803 14.6521 1.75493 16.6121C1.31455 17.2374 0.857141 17.8841 0.455545 18.5247C0.323745 18.7337 0.143874 19.0194 0.148526 19.3896C0.150076 19.5955 0.21055 19.8044 0.331497 20.0272C0.737738 20.7707 1.59214 20.9919 2.34571 21.187C3.20785 21.4098 3.62029 21.5572 3.67923 21.9536C3.78467 22.6495 3.78932 23.3577 3.79398 24.0428C3.80638 26 3.81879 28.0247 6.03922 30.0312C6.8471 30.7609 8.45658 30.9852 9.87695 31.1834C10.5887 31.2832 11.3252 31.3846 11.6043 31.5198C11.902 31.6642 11.9672 31.8117 11.9889 32.0467C11.9935 32.1036 11.9951 32.165 11.9951 32.2295L11.9579 34.1744C11.9563 34.2758 11.9532 34.3449 11.9517 34.3895C11.916 34.5108 11.9191 34.6414 11.9656 34.7643C12.054 34.9978 12.2819 35.1499 12.5269 35.1499C12.5456 35.1499 12.5657 35.1484 12.5843 35.1468H24.2698C24.4357 35.1468 24.5923 35.0792 24.7055 34.9594C24.8187 34.8396 24.8761 34.6783 24.8637 34.5154C24.7831 33.4155 24.7117 32.8456 24.6435 32.2941C24.5753 31.7533 24.5055 31.1926 24.4249 30.1034C24.3691 29.3491 25.1428 28.303 25.7661 27.4627C26.0639 27.0602 26.3461 26.6792 26.5477 26.3289C26.6221 26.1999 26.7337 26.0217 26.8717 25.7974C28.5588 23.0783 33.693 14.8058 29.6039 7.71467L29.6051 7.71274ZM25.8573 25.178C25.71 25.4161 25.5906 25.6066 25.513 25.7434C25.3456 26.0352 25.0835 26.3886 24.806 26.7634C24.0292 27.8127 23.1484 29.0002 23.2368 30.1892C23.3205 31.3076 23.3919 31.8821 23.4616 32.4382C23.5159 32.8761 23.5686 33.2955 23.626 33.9668H13.1532L13.1858 32.2523C13.1889 32.1433 13.1842 32.0403 13.1749 31.942C13.1129 31.2553 12.7687 30.7714 12.1267 30.4611C11.6786 30.2445 10.956 30.1431 10.0427 30.0156C8.91855 29.8589 7.37727 29.6439 6.84075 29.1584C5.00484 27.5008 4.99555 25.8954 4.98468 24.0352C4.98003 23.3086 4.97537 22.5574 4.85753 21.7785C4.67456 20.568 3.5023 20.2653 2.64639 20.0441C2.10213 19.9043 1.53925 19.7584 1.37955 19.4649C1.34854 19.4081 1.34079 19.3804 1.33924 19.3804C1.34854 19.3343 1.42297 19.216 1.47104 19.1377C1.85093 18.5309 2.27892 17.9256 2.73013 17.285C4.2187 15.1742 5.75844 12.9928 5.75844 10.5518C5.75844 5.08725 10.9498 1.79359 16.076 1.36688C20.9264 0.962875 25.947 3.7465 28.5709 8.29676C32.3094 14.7795 27.4529 22.6052 25.8574 25.1768L25.8573 25.178ZM14.0372 15.3076V10.3394C14.0372 9.81711 14.4652 9.39312 14.9924 9.39312H20.0071C20.5343 9.39312 20.9622 9.81711 20.9622 10.3394V15.3076C20.9622 15.8299 20.5343 16.2539 20.0071 16.2539H14.9924C14.4652 16.2539 14.0372 15.8299 14.0372 15.3076ZM25.0447 9.81086C25.3734 9.81086 25.6401 9.54663 25.6401 9.22095C25.6401 8.89527 25.3734 8.63104 25.0447 8.63104H23.7856V7.18391C23.7856 6.85823 23.5189 6.594 23.1902 6.594H21.7295V5.34657C21.7295 5.0209 21.4628 4.75666 21.1341 4.75666C20.8054 4.75666 20.5387 5.0209 20.5387 5.34657V6.594H19.3059V5.34657C19.3059 5.0209 19.0392 4.75666 18.7105 4.75666C18.3818 4.75666 18.1151 5.0209 18.1151 5.34657V6.594H16.8839V5.34657C16.8839 5.0209 16.6172 4.75666 16.2885 4.75666C15.9597 4.75666 15.693 5.0209 15.693 5.34657V6.594H14.4603V5.34657C14.4603 5.0209 14.1936 4.75666 13.8649 4.75666C13.5361 4.75666 13.2694 5.0209 13.2694 5.34657V6.594H11.8088C11.48 6.594 11.2133 6.85823 11.2133 7.18391V8.63104H9.95426C9.62553 8.63104 9.35883 8.89527 9.35883 9.22095C9.35883 9.54663 9.62553 9.81086 9.95426 9.81086H11.2133V11.0306H9.95426C9.62553 11.0306 9.35883 11.2949 9.35883 11.6205C9.35883 11.9462 9.62553 12.2105 9.95426 12.2105H11.2133V13.4318H9.95426C9.62553 13.4318 9.35883 13.696 9.35883 14.0217C9.35883 14.3474 9.62553 14.6116 9.95426 14.6116H11.2133V15.8329H9.95426C9.62553 15.8329 9.35883 16.0971 9.35883 16.4228C9.35883 16.7485 9.62553 17.0127 9.95426 17.0127H11.2133V18.4598C11.2133 18.7855 11.48 19.0498 11.8088 19.0498H13.2694V20.2972C13.2694 20.6229 13.5361 20.8871 13.8649 20.8871C14.1936 20.8871 14.4603 20.6229 14.4603 20.2972V19.0498H15.693V20.2972C15.693 20.6229 15.9597 20.8871 16.2885 20.8871C16.6172 20.8871 16.8839 20.6229 16.8839 20.2972V19.0498H18.1151V20.2972C18.1151 20.6229 18.3818 20.8871 18.7105 20.8871C19.0392 20.8871 19.3059 20.6229 19.3059 20.2972V19.0498H20.5387V20.2972C20.5387 20.6229 20.8054 20.8871 21.1341 20.8871C21.4628 20.8871 21.7295 20.6229 21.7295 20.2972V19.0498H23.1902C23.5189 19.0498 23.7856 18.7855 23.7856 18.4598V17.0127H25.0447C25.3734 17.0127 25.6401 16.7485 25.6401 16.4228C25.6401 16.0971 25.3734 15.8329 25.0447 15.8329H23.7856V14.6116H25.0447C25.3734 14.6116 25.6401 14.3474 25.6401 14.0217C25.6401 13.696 25.3734 13.4318 25.0447 13.4318H23.7856V12.2105H25.0447C25.3734 12.2105 25.6401 11.9462 25.6401 11.6205C25.6401 11.2949 25.3734 11.0306 25.0447 11.0306H23.7856V9.81086H25.0447ZM22.5948 17.8698H12.4058V7.77527H22.5948V17.8698Z" fill="#FC766A" stroke="#FC766A" stroke-width="0.3"></path></svg> 