<?xml version="1.0" encoding="UTF-8"?> <svg xmlns="http://www.w3.org/2000/svg" width="56" height="50" viewBox="0 0 56 50" fill="none"><path d="M7.04199 0.5H48.0215C51.6278 0.500077 54.5633 3.43352 54.5635 7.04199L54.5615 32.6543C54.5615 36.2608 51.6272 39.1973 48.0186 39.1973H36.6348V46.6006H42.8975C43.6826 46.6006 44.3184 47.2363 44.3184 48.0215C44.3183 48.8066 43.6826 49.4424 42.8975 49.4424H12.1641C11.3789 49.4424 10.7432 48.8066 10.7432 48.0215C10.7432 47.2363 11.3789 46.6006 12.1641 46.6006H18.4268V39.1973H7.04199C3.43565 39.1971 0.5 36.2629 0.5 32.6543V7.04199C0.500177 3.43576 3.43358 0.500177 7.04199 0.5ZM21.2676 46.6006H33.793V39.1973H21.2676V46.6006ZM7.04004 3.3418C4.99922 3.3418 3.33904 5.00121 3.33887 7.04199L3.3418 32.6543C3.3418 34.6951 5.00121 36.3553 7.04199 36.3555H48.0215C50.0624 36.3554 51.7217 34.6952 51.7217 32.6543V32.1543H51.7197V7.04199C51.7195 5.00121 50.0594 3.3418 48.0186 3.3418H7.04004ZM27.5312 8.18359C28.1305 8.18377 28.659 8.55821 28.8633 9.11328L28.9004 9.22656C29.7518 12.3117 30.4553 14.2369 31.7988 15.5801C33.1424 16.9233 35.0681 17.626 38.1523 18.4775L38.1533 18.4785C38.7687 18.6472 39.1971 19.2077 39.1973 19.8467C39.1973 20.4847 38.7697 21.0447 38.1523 21.2158C35.0681 22.0673 33.1431 22.771 31.7998 24.1143C30.4567 25.4574 29.7531 27.3825 28.9004 30.4678C28.7299 31.0841 28.1683 31.5105 27.5312 31.5107C26.892 31.5107 26.3318 31.0846 26.1611 30.4678C25.3097 27.3825 24.6062 25.4575 23.2627 24.1143C21.9192 22.7711 19.9943 22.0673 16.9102 21.2158H16.9092C16.2935 21.0473 15.8652 20.4859 15.8652 19.8467C15.8654 19.2086 16.2925 18.6484 16.9102 18.4775C19.9941 17.6262 21.9185 16.9232 23.2617 15.5801C24.6048 14.237 25.3085 12.3118 26.1611 9.22656C26.3317 8.61008 26.894 8.18359 27.5312 8.18359ZM27.0859 15.0117C26.0413 17.0528 24.7338 18.3597 22.6904 19.4043L21.8184 19.8506L22.6914 20.2949C24.7341 21.3369 26.0412 22.6462 27.0859 24.6875L27.5303 25.5576L27.9756 24.6875C29.0202 22.6464 30.3277 21.3396 32.3711 20.2949L33.2422 19.8496L32.3701 19.4043C30.3273 18.3623 29.0203 17.053 27.9756 15.0117L27.5303 14.1426L27.0859 15.0117Z" fill="#FC766A" stroke="#F6F6F6"></path></svg> 