<?xml version="1.0" encoding="UTF-8"?> <svg xmlns="http://www.w3.org/2000/svg" width="200" height="60" viewBox="0 0 200 60" fill="none"><rect x="0.5" y="0.5" width="199" height="59" rx="7.5" stroke="#D9D9D9"></rect><g clip-path="url(#clip0_21939_3601)"><path d="M86.7345 30.1359C86.7345 26.8125 85.7734 25.1051 83.8502 25.0115C83.0854 24.9759 82.3384 25.096 81.612 25.3742C81.0322 25.5789 80.6419 25.7814 80.4366 25.9859V33.9203C81.6662 34.6813 82.7583 35.0349 83.7097 34.9794C85.7245 34.8481 86.7329 33.235 86.7329 30.1357L86.7345 30.1359ZM89.1049 30.2739C89.1049 31.9625 88.7032 33.3645 87.8956 34.4784C86.9954 35.74 85.7477 36.3897 84.1525 36.4253C82.95 36.4631 81.7104 36.0916 80.4373 35.3127V42.5235L78.375 41.7981V25.7924C78.7134 25.3832 79.1488 25.0314 79.6769 24.7333C80.9042 24.028 82.3968 23.6653 84.1514 23.6475L84.1807 23.6764C85.7849 23.6564 87.021 24.3059 87.8891 25.6232C88.699 26.8314 89.1053 28.3806 89.1053 30.2729L89.1049 30.2739Z" fill="#646464"></path><path d="M100.364 35.3576C100.364 37.6226 100.134 39.1901 99.6731 40.0643C99.2106 40.9365 98.3306 41.6329 97.0319 42.1513C95.9782 42.5606 94.8389 42.7831 93.6153 42.821L93.2745 41.5396C94.5178 41.3727 95.3933 41.2058 95.9018 41.039C96.9014 40.7053 97.5873 40.1935 97.9641 39.5083C98.2664 38.9497 98.4153 37.8842 98.4153 36.3058V35.7762C97.0051 36.408 95.5264 36.7219 93.9824 36.7219C92.9671 36.7219 92.0713 36.4083 91.2995 35.7762C90.4331 35.0887 90 34.2165 90 33.1603V24.6964L92.0623 24V32.5187C92.0623 33.4288 92.3602 34.1295 92.9558 34.6212C93.5514 35.1129 94.3231 35.3487 95.2685 35.3309C96.2139 35.3108 97.2269 34.9504 98.3032 34.245V24.3066H100.366V35.3567L100.364 35.3576Z" fill="#646464"></path><path d="M109.765 36.3148C109.519 36.3349 109.294 36.3438 109.086 36.3438C107.92 36.3438 107.01 36.0701 106.362 35.5207C105.714 34.971 105.389 34.2125 105.389 33.2447V25.235H103.977V23.9556H105.389V20.5591L107.449 19.8359V23.956H109.766V25.2354H107.449V33.1903C107.449 33.9534 107.657 34.4942 108.072 34.8101C108.428 35.0703 108.995 35.2193 109.766 35.2572V36.3164L109.765 36.3148Z" fill="#646464"></path><path d="M122.241 36.1486H120.179V28.2987C120.179 27.5 119.989 26.8125 119.612 26.2384C119.177 25.5888 118.572 25.264 117.796 25.264C116.851 25.264 115.668 25.7557 114.25 26.739V36.1479H112.188V17.3849L114.25 16.7441V25.2902C115.567 24.3445 117.007 23.8707 118.572 23.8707C119.664 23.8707 120.548 24.2334 121.224 24.9565C121.903 25.6796 122.242 26.5806 122.242 27.6568V36.1459L122.241 36.1486Z" fill="#646464"></path><path d="M133.216 29.8169C133.216 28.5398 132.97 27.4864 132.48 26.6509C131.898 25.6343 130.993 25.0981 129.769 25.0424C127.508 25.1714 126.38 26.7689 126.38 29.8313C126.38 31.2351 126.615 32.4084 127.089 33.3488C127.694 34.5481 128.601 35.1397 129.811 35.1199C132.081 35.1021 133.216 33.3356 133.216 29.8174L133.216 29.8169ZM135.474 29.8303C135.474 31.6479 135.003 33.1606 134.062 34.3681C133.026 35.7208 131.596 36.3994 129.77 36.3994C127.96 36.3994 126.55 35.7208 125.532 34.3681C124.609 33.1599 124.148 31.6472 124.148 29.8303C124.148 28.1215 124.647 26.6848 125.644 25.5138C126.698 24.2723 128.084 23.6494 129.795 23.6494C131.507 23.6494 132.901 24.2723 133.975 25.5138C134.973 26.6841 135.471 28.1206 135.471 29.8303H135.474Z" fill="#646464"></path><path d="M147.284 36.149H145.222V27.854C145.222 26.9439 144.944 26.2342 144.389 25.7225C143.834 25.213 143.094 24.966 142.171 24.9861C141.192 25.0039 140.26 25.3198 139.375 25.9318V36.1488H137.312V25.6807C138.499 24.8286 139.591 24.2723 140.588 24.0121C141.529 23.7697 142.359 23.6494 143.074 23.6494C143.564 23.6494 144.024 23.6961 144.457 23.7896C145.267 23.9743 145.926 24.3169 146.434 24.8197C147 25.376 147.282 26.0434 147.282 26.8243V36.1488L147.284 36.149Z" fill="#646464"></path><path d="M58.0093 17.4601C56.9482 17.465 55.935 17.5542 55.044 17.7098C52.4167 18.1675 51.9398 19.125 51.9398 20.8918V23.2246H58.1459V24.0021H51.9398H49.6111C47.8074 24.0021 46.2269 25.0712 45.7338 27.1041C45.1639 29.4347 45.1387 30.891 45.7338 33.3242C46.175 35.1362 47.2287 36.4263 49.0324 36.4263H51.1665V33.6301C51.1665 31.61 52.9389 29.8273 55.0438 29.8273H61.2428C62.9685 29.8273 64.347 28.4262 64.347 26.7184V20.8909C64.347 19.2323 62.928 17.9874 61.2428 17.7089C60.1766 17.5339 59.0704 17.4544 58.009 17.4592L58.0093 17.4601ZM54.6528 19.3362C55.294 19.3362 55.8174 19.8609 55.8174 20.506C55.8174 21.1488 55.2938 21.6688 54.6528 21.6688C54.0095 21.6688 53.4882 21.149 53.4882 20.506C53.4882 19.8609 54.0095 19.3362 54.6528 19.3362Z" fill="url(#paint0_linear_21939_3601)"></path><path d="M65.1181 24.001V26.7196C65.1181 28.8266 63.3065 30.6 61.2407 30.6H55.0417C53.3435 30.6 51.9375 32.033 51.9375 33.7089V39.5364C51.9375 41.195 53.4002 42.1705 55.0417 42.6453C57.0062 43.2151 58.8912 43.318 61.2407 42.6453C62.8032 42.1993 64.3449 41.3013 64.3449 39.5364V37.2036H58.1458V36.4261H64.3449H67.4491C69.2528 36.4261 69.9259 35.1855 70.5532 33.3241C71.2012 31.4069 71.1736 29.5623 70.5532 27.104C70.1074 25.3333 69.256 24.0019 67.4491 24.0019H65.1204L65.1181 24.001ZM61.6319 38.7603C62.2752 38.7603 62.7965 39.2801 62.7965 39.9231C62.7965 40.5682 62.2752 41.0929 61.6319 41.0929C60.9907 41.0929 60.4674 40.5682 60.4674 39.9231C60.4674 39.2803 60.991 38.7603 61.6319 38.7603Z" fill="url(#paint1_linear_21939_3601)"></path><path d="M151.317 22.1423H151.679V19.9063H152.535V19.6396H150.461V19.9063H151.317V22.1423ZM152.856 22.1423H153.165V20.1001L153.835 22.1421H154.179L154.878 20.1069V22.1423H155.215V19.6406H154.769L154.006 21.7846L153.354 19.6406H152.856V22.1423Z" fill="#646464"></path></g><defs><linearGradient id="paint0_linear_21939_3601" x1="45.2965" y1="17.4596" x2="59.444" y2="29.6808" gradientUnits="userSpaceOnUse"><stop stop-color="#5A9FD4"></stop><stop offset="1" stop-color="#306998"></stop></linearGradient><linearGradient id="paint1_linear_21939_3601" x1="61.4855" y1="39.7346" x2="56.4363" y2="32.5704" gradientUnits="userSpaceOnUse"><stop stop-color="#FFD43B"></stop><stop offset="1" stop-color="#FFE873"></stop></linearGradient><clipPath id="clip0_21939_3601"><rect width="111" height="29" fill="white" transform="translate(44 16)"></rect></clipPath></defs></svg> 