<?xml version="1.0" encoding="UTF-8"?> <svg xmlns="http://www.w3.org/2000/svg" width="82" height="60" viewBox="0 0 82 60" fill="none"><rect x="0.5" y="0.5" width="81" height="59" rx="7.5" stroke="#D9D9D9"></rect><g clip-path="url(#clip0_21940_3681)"><path fill-rule="evenodd" clip-rule="evenodd" d="M40.9579 45.2461C25.5561 45.2461 13.0703 36.9596 13.0703 26.7378C13.0703 16.5159 25.5561 8.22949 40.9579 8.22949C56.3599 8.22949 68.8455 16.5159 68.8455 26.7378C68.8455 36.9596 56.3599 45.2461 40.9579 45.2461ZM45.2266 15.4656C33.5198 15.4656 24.0296 21.1306 24.0296 28.1186C24.0296 35.1067 33.5198 40.7717 45.2266 40.7717C56.9333 40.7717 65.5727 36.8987 65.5727 28.1186C65.5727 19.3414 56.9333 15.4656 45.2266 15.4656Z" fill="url(#paint0_linear_21940_3681)"></path><path fill-rule="evenodd" clip-rule="evenodd" d="M55.5386 36.8967C55.5386 36.8967 57.2265 37.4015 58.2071 37.8932C58.5473 38.0638 59.136 38.4043 59.5607 38.8513C59.9767 39.2891 60.1795 39.7328 60.1795 39.7328L66.8314 50.8468L56.08 50.8516L51.0524 41.4957C51.0524 41.4957 50.0229 39.7428 49.3894 39.2345C48.861 38.8106 48.6357 38.6597 48.1132 38.6597C47.7495 38.6597 45.5587 38.6597 45.5587 38.6597L45.5607 50.8448L36.0469 50.8488V19.7227H55.1518C55.1518 19.7227 63.8535 19.8782 63.8535 28.0821C63.8535 36.2861 55.5386 36.8967 55.5386 36.8967ZM51.4005 26.4743L45.6409 26.4707L45.638 31.7633L51.4005 31.7614C51.4005 31.7614 54.069 31.7532 54.069 29.0691C54.069 26.3311 51.4005 26.4743 51.4005 26.4743Z" fill="black"></path></g><defs><linearGradient id="paint0_linear_21940_3681" x1="13.0703" y1="8.22949" x2="47.1801" y2="59.6249" gradientUnits="userSpaceOnUse"><stop stop-color="#CBCED0"></stop><stop offset="1" stop-color="#84838B"></stop></linearGradient><clipPath id="clip0_21940_3681"><rect width="56" height="43" fill="white" transform="translate(13 8)"></rect></clipPath></defs></svg> 