<?xml version="1.0" encoding="UTF-8"?> <svg xmlns="http://www.w3.org/2000/svg" width="200" height="60" viewBox="0 0 200 60" fill="none"><rect x="0.5" y="0.5" width="199" height="59" rx="7.5" stroke="#D9D9D9"></rect><path d="M82.4204 32.3688C83.539 34.5521 85.3288 35.6281 87.8365 35.6281C90.5287 35.6281 91.4888 34.2133 91.4888 32.8299C91.4888 31.8762 91.1477 31.2318 90.2509 30.6466C89.3522 30.0318 88.7034 29.7558 87.0944 29.1651C85.1126 28.4244 83.9678 27.8688 82.7299 26.8892C81.4919 25.8744 80.9046 24.4818 80.9046 22.6781C80.8833 21.8821 81.045 21.0917 81.3775 20.3672C81.7099 19.6426 82.2043 19.0028 82.8231 18.4966C84.1282 17.4207 85.7017 16.8984 87.5885 16.8984C90.5287 16.8984 92.7566 18.067 94.2426 20.3725L91.4888 22.2558C90.6536 20.9947 89.3839 20.3484 87.65 20.3484C85.9478 20.3484 84.7099 21.3021 84.7099 22.6244C84.7099 23.5151 85.0827 23.9466 85.6085 24.4762C85.9478 24.7225 86.8148 25.091 87.2175 25.3058L88.3361 25.7355L89.6039 26.2281C91.6548 27.0577 93.1016 27.9503 93.9983 28.9021C94.8951 29.854 95.3612 31.1466 95.3612 32.7447C95.3612 36.5262 92.7305 39.0781 87.8085 39.0781C83.8168 39.0781 80.8766 37.2262 79.5156 34.1892L82.4204 32.3688Z" fill="#380D09"></path><path d="M111.045 25.3909L108.762 27.7575C108.26 27.2132 107.647 26.7811 106.964 26.4896C106.282 26.1981 105.544 26.054 104.802 26.0668C104.164 26.0516 103.53 26.1666 102.939 26.4045C102.348 26.6424 101.812 26.9983 101.365 27.4501C100.49 28.3983 100.005 29.6379 100.005 30.9242C100.005 32.2105 100.49 33.4501 101.365 34.3983C101.812 34.8501 102.348 35.206 102.939 35.4439C103.53 35.6818 104.164 35.7968 104.802 35.7816C105.544 35.7944 106.282 35.6503 106.964 35.3588C107.647 35.0674 108.26 34.6352 108.762 34.0909L111.053 36.4575C109.375 38.2409 107.307 39.1316 104.802 39.1316C102.417 39.1316 100.405 38.3631 98.7664 36.7946C97.1276 35.2261 96.3203 33.2594 96.3203 30.9242C96.3203 28.589 97.1257 26.6501 98.7664 25.0835C100.407 23.5168 102.417 22.7168 104.802 22.7168C107.3 22.7168 109.373 23.6075 111.045 25.3909Z" fill="#380D09"></path><path d="M118.431 29.2631C121.064 29.0187 121.996 28.6798 121.996 27.4816C121.996 26.5279 121.131 25.7909 119.397 25.7909C117.727 25.7909 116.334 26.4668 115.219 27.8186L112.93 25.8816C114.445 23.7612 116.58 22.7168 119.336 22.7168C123.204 22.7168 125.619 24.5686 125.619 27.7261V34.5779C125.619 35.6538 126.02 35.7779 126.924 35.7779H127.017V38.6353C126.644 38.852 126.057 38.9742 125.283 38.9742C124.448 38.9742 123.792 38.7279 123.303 38.2335C123.042 37.9411 122.851 37.5943 122.744 37.2187C121.661 38.4779 119.897 39.1242 117.451 39.1242C114.017 39.1242 111.695 37.2483 111.695 34.4205C111.686 31.2612 113.821 29.6631 118.431 29.2631ZM117.999 36.0001C120.475 36.0001 121.991 34.889 121.991 32.9261V31.2038C121.776 31.4194 121.511 31.578 121.219 31.6649C120.507 31.9112 120.042 31.9724 118.556 32.1261C116.39 32.3724 115.307 33.052 115.307 34.1242C115.307 35.3205 116.297 36.0001 117.999 36.0001Z" fill="#380D09"></path><path d="M127.938 17.2744H131.651V33.63C131.651 35.1355 132.147 35.7818 133.516 35.7818C133.893 35.7938 134.269 35.752 134.634 35.6577V38.9466C134.057 39.0867 133.463 39.149 132.869 39.1318C129.589 39.1318 127.949 37.4652 127.949 34.1207L127.938 17.2744Z" fill="#380D09"></path><path d="M142.265 29.2631C144.896 29.0187 145.824 28.6798 145.824 27.4816C145.824 26.5279 144.959 25.7909 143.225 25.7909C141.555 25.7909 140.162 26.4668 139.047 27.8186L136.758 25.8816C138.273 23.7612 140.408 22.7168 143.164 22.7168C147.032 22.7168 149.447 24.5686 149.447 27.7261V34.5779C149.447 35.6538 149.848 35.7779 150.752 35.7779H150.845V38.6353C150.472 38.852 149.885 38.9742 149.111 38.9742C148.276 38.9742 147.62 38.7279 147.131 38.2335C146.87 37.9416 146.679 37.5946 146.572 37.2187C145.489 38.4779 143.725 39.1242 141.279 39.1242C137.845 39.1242 135.523 37.2483 135.523 34.4205C135.52 31.2612 137.658 29.6631 142.265 29.2631ZM141.833 36.0001C144.309 36.0001 145.824 34.889 145.824 32.9261V31.2038C145.61 31.4198 145.343 31.5784 145.051 31.6649C144.34 31.9112 143.876 31.9724 142.39 32.1261C140.224 32.3724 139.14 33.052 139.14 34.1242C139.15 35.3205 140.13 36.0001 141.833 36.0001Z" fill="#380D09"></path><path fill-rule="evenodd" clip-rule="evenodd" d="M50.6953 23.5613C51.0402 24.0335 53.9487 24.9243 58.2872 25.8521C62.6257 26.678 67.1375 29.9391 70.6463 28.9335C73.0197 28.2521 75.5945 22.1798 75.5945 21.278V21.1854C75.5945 20.5558 75.119 20.0502 74.3118 19.6298C71.0024 17.9502 70.376 17.3317 69.1492 17.6669C62.7804 19.4132 51.5362 18.5206 50.6953 23.5613Z" fill="#380D09"></path><path fill-rule="evenodd" clip-rule="evenodd" d="M50.6953 35.8912C51.0402 36.3708 53.9487 37.2542 58.2872 38.1838C63.1346 39.0616 67.3501 41.9227 70.8607 40.9153C73.2341 40.2338 75.5945 34.5116 75.5945 33.6079V33.519C75.5945 32.8912 75.119 32.3838 74.3118 31.9653C71.7873 30.6319 68.4519 29.1634 67.227 29.4986C60.847 31.2412 52.3192 31.6245 50.6953 35.8912Z" fill="#380D09"></path><path fill-rule="evenodd" clip-rule="evenodd" d="M70.8481 11.3296C64.9827 13.013 55.6775 13.963 50.6641 13.963V23.4722C50.6657 23.5049 50.6781 23.5362 50.6995 23.5611C54.1207 23.5611 64.6825 22.45 71.0551 20.7093C72.1665 20.4283 73.2562 20.0687 74.3159 19.6333C75.0952 19.2852 75.5986 18.9185 75.5986 18.537V8.94629C75.5912 9.84999 73.2215 10.65 70.8481 11.3296Z" fill="#DE3423"></path><path fill-rule="evenodd" clip-rule="evenodd" d="M70.8481 23.6607C67.3375 24.6662 62.6 25.4144 58.2839 25.8514C55.3866 26.1459 52.6795 26.2996 50.6641 26.2996V35.8014C50.6657 35.8341 50.6781 35.8654 50.6995 35.8903C54.1207 35.8903 64.6825 34.7792 71.0551 33.0403C72.1662 32.7585 73.2559 32.399 74.3159 31.9644C75.0952 31.6144 75.5986 31.2496 75.5986 30.8681V21.2773C75.5912 22.1792 73.2215 22.9792 70.8481 23.6607Z" fill="#DE3423"></path><path fill-rule="evenodd" clip-rule="evenodd" d="M70.8556 36C67.3449 37.0056 62.6075 37.7519 58.2913 38.1908C55.3903 38.4852 52.6795 38.6389 50.6641 38.6389V48.2222C54.0498 48.2222 64.6658 47.1204 71.0551 45.3722C73.4098 44.7278 75.5986 43.9945 75.5986 43.1982V33.6074C75.5986 34.5185 73.229 35.3111 70.8556 36Z" fill="#DE3423"></path></svg> 