<?xml version="1.0" encoding="UTF-8"?> <svg xmlns="http://www.w3.org/2000/svg" width="200" height="60" viewBox="0 0 200 60" fill="none"><rect x="0.5" y="0.5" width="199" height="59" rx="7.5" stroke="#D9D9D9"></rect><g clip-path="url(#clip0_21939_3605)"><path d="M79.2016 24.4583C86.7126 24.4583 92.8016 21.9772 92.8016 18.9167C92.8016 15.8561 86.7126 13.375 79.2016 13.375C71.6905 13.375 65.6016 15.8561 65.6016 18.9167C65.6016 21.9772 71.6905 24.4583 79.2016 24.4583Z" stroke="#DF6C20" stroke-width="2"></path><path d="M65.6016 18.917V42.667C65.6644 43.3958 66.0784 44.1175 66.82 44.7909C67.5615 45.4642 68.616 46.076 69.9233 46.5914C71.2307 47.1067 72.7652 47.5156 74.4393 47.7945C76.1133 48.0734 77.8942 48.2169 79.6802 48.2169C81.4662 48.2169 83.2223 48.0734 84.8482 47.7945C86.4742 47.5156 87.9382 47.1067 89.1566 46.5914C90.3751 46.076 91.3241 45.4642 91.9495 44.7909C92.5749 44.1175 92.8644 43.3958 92.8016 42.667V18.917M65.6016 26.8337C65.6644 27.5625 66.0784 28.2842 66.82 28.9575C67.5615 29.6309 68.616 30.2427 69.9233 30.7581C71.2307 31.2734 72.7652 31.6822 74.4393 31.9611C76.1133 32.24 77.8942 32.3836 79.6802 32.3836C81.4662 32.3836 83.2223 32.24 84.8482 31.9611C86.4742 31.6822 87.9382 31.2734 89.1566 30.7581C90.3751 30.2427 91.3241 29.6309 91.9495 28.9575C92.5749 28.2842 92.8644 27.5625 92.8016 26.8337M65.6016 34.7503C65.6644 35.4792 66.0784 36.2008 66.82 36.8742C67.5615 37.5475 68.616 38.1594 69.9233 38.6747C71.2307 39.1901 72.7652 39.5989 74.4393 39.8778C76.1133 40.1567 77.8942 40.3003 79.6802 40.3003C81.4662 40.3003 83.2223 40.1567 84.8482 39.8778C86.4742 39.5989 87.9382 39.1901 89.1566 38.6747C90.3751 38.1594 91.3241 37.5475 91.9495 36.8742C92.5749 36.2008 92.8644 35.4792 92.8016 34.7503" stroke="#DF6C20" stroke-width="2"></path><path d="M108 26.8333C108 26.3135 107.896 25.7988 107.695 25.3185C107.494 24.8383 107.2 24.4019 106.828 24.0344C106.457 23.6668 106.016 23.3752 105.53 23.1763C105.045 22.9774 104.525 22.875 104 22.875C103.474 22.875 102.954 22.9774 102.469 23.1763C101.984 23.3752 101.543 23.6668 101.171 24.0344C100.8 24.4019 100.505 24.8383 100.304 25.3185C100.103 25.7988 99.9997 26.3135 99.9997 26.8333C99.9787 27.4513 100.075 28.0656 100.281 28.627C100.487 29.1884 100.797 29.6813 101.186 30.0661C101.575 30.4509 102.032 30.717 102.52 30.843C103.009 30.969 103.516 30.9514 104 30.7917C104.422 30.7876 104.84 30.887 105.23 31.0841C105.62 31.2812 105.974 31.5721 106.271 31.9401C106.569 32.3081 106.804 32.7458 106.963 33.2281C107.123 33.7103 107.203 34.2276 107.2 34.75C107.094 35.7998 106.57 36.7649 105.745 37.433C104.92 38.1011 103.861 38.4175 102.8 38.3125C101.739 38.2075 100.764 37.6898 100.088 36.8732C99.4132 36.0567 99.0936 35.0081 99.1997 33.9583" stroke="#DF6C20" stroke-width="2"></path><path d="M120.001 38.7079C118.016 39.031 115.981 38.6019 114.301 37.5063C112.621 36.4106 111.42 34.7289 110.937 32.7961C110.454 30.8634 110.725 28.8215 111.695 27.0775C112.666 25.3335 114.265 24.0153 116.173 23.3858C118.082 22.7562 120.16 22.8613 121.994 23.6804C123.828 24.4994 125.282 25.9721 126.068 27.805C126.854 29.6378 126.913 31.6964 126.233 33.5703C125.553 35.4442 124.185 36.9959 122.401 37.9163M120.001 34.7496L124.801 41.0829" stroke="#DF6C20" stroke-width="2"></path><path d="M130.398 22.083V34.7497C130.398 35.7995 130.82 36.8063 131.57 37.5486C132.32 38.291 133.338 38.708 134.398 38.708H137.598" stroke="#DF6C20" stroke-width="2"></path></g><defs><clipPath id="clip0_21939_3605"><rect width="80" height="38" fill="white" transform="translate(60 11)"></rect></clipPath></defs></svg> 