<?xml version="1.0" encoding="UTF-8"?> <svg xmlns="http://www.w3.org/2000/svg" width="98" height="32" viewBox="0 0 98 32" fill="none"><path d="M7.87204 23.616C6.37871 23.616 5.03471 23.36 3.84004 22.848C2.64538 22.3147 1.70671 21.568 1.02404 20.608C0.341376 19.648 4.30346e-05 18.528 4.30346e-05 17.248H3.90404C3.98938 18.208 4.36271 18.9973 5.02404 19.616C5.70671 20.2347 6.65604 20.544 7.87204 20.544C9.13071 20.544 10.112 20.2453 10.816 19.648C11.52 19.0293 11.872 18.24 11.872 17.28C11.872 16.5333 11.648 15.9253 11.2 15.456C10.7734 14.9867 10.2294 14.624 9.56804 14.368C8.92804 14.112 8.03204 13.8347 6.88004 13.536C5.42938 13.152 4.24538 12.768 3.32804 12.384C2.43204 11.9787 1.66404 11.36 1.02404 10.528C0.384043 9.696 0.064043 8.58666 0.064043 7.2C0.064043 5.92 0.384043 4.8 1.02404 3.84C1.66404 2.88 2.56004 2.144 3.71204 1.632C4.86404 1.12 6.19738 0.863997 7.71204 0.863997C9.86671 0.863997 11.6267 1.408 12.992 2.496C14.3787 3.56266 15.1467 5.03466 15.296 6.912H11.264C11.2 6.10133 10.816 5.408 10.112 4.832C9.40804 4.256 8.48004 3.968 7.32804 3.968C6.28271 3.968 5.42938 4.23466 4.76804 4.768C4.10671 5.30133 3.77604 6.06933 3.77604 7.072C3.77604 7.75466 3.97871 8.32 4.38404 8.768C4.81071 9.19466 5.34404 9.536 5.98404 9.792C6.62404 10.048 7.49871 10.3253 8.60804 10.624C10.08 11.0293 11.2747 11.4347 12.192 11.84C13.1307 12.2453 13.92 12.8747 14.56 13.728C15.2214 14.56 15.552 15.68 15.552 17.088C15.552 18.2187 15.2427 19.2853 14.624 20.288C14.0267 21.2907 13.1414 22.1013 11.968 22.72C10.816 23.3173 9.45071 23.616 7.87204 23.616ZM24.1125 8.736V18.496C24.1125 19.1573 24.2619 19.6373 24.5605 19.936C24.8805 20.2133 25.4139 20.352 26.1605 20.352H28.4005V23.392H25.5205C23.8779 23.392 22.6192 23.008 21.7445 22.24C20.8699 21.472 20.4325 20.224 20.4325 18.496V8.736H18.3525V5.76H20.4325V1.376H24.1125V5.76H28.4005V8.736H24.1125ZM47.9228 14.144C47.9228 14.8053 47.8801 15.4027 47.7948 15.936H34.3228C34.4295 17.344 34.9521 18.4747 35.8908 19.328C36.8295 20.1813 37.9815 20.608 39.3468 20.608C41.3095 20.608 42.6961 19.7867 43.5068 18.144H47.4428C46.9095 19.7653 45.9388 21.0987 44.5308 22.144C43.1441 23.168 41.4161 23.68 39.3468 23.68C37.6615 23.68 36.1468 23.3067 34.8028 22.56C33.4801 21.792 32.4348 20.7253 31.6668 19.36C30.9201 17.9733 30.5468 16.3733 30.5468 14.56C30.5468 12.7467 30.9095 11.1573 31.6348 9.792C32.3815 8.40533 33.4161 7.33866 34.7388 6.592C36.0828 5.84533 37.6188 5.472 39.3468 5.472C41.0108 5.472 42.4935 5.83466 43.7948 6.56C45.0961 7.28533 46.1095 8.30933 46.8348 9.632C47.5601 10.9333 47.9228 12.4373 47.9228 14.144ZM44.1148 12.992C44.0935 11.648 43.6135 10.5707 42.6748 9.76C41.7361 8.94933 40.5735 8.544 39.1868 8.544C37.9281 8.544 36.8508 8.94933 35.9548 9.76C35.0588 10.5493 34.5255 11.6267 34.3548 12.992H44.1148ZM55.1608 8.352C55.7795 7.54133 56.6221 6.85866 57.6888 6.304C58.7555 5.74933 59.9608 5.472 61.3048 5.472C62.8408 5.472 64.2381 5.856 65.4968 6.624C66.7768 7.37066 67.7795 8.42666 68.5048 9.792C69.2301 11.1573 69.5928 12.7253 69.5928 14.496C69.5928 16.2667 69.2301 17.856 68.5048 19.264C67.7795 20.6507 66.7768 21.7387 65.4968 22.528C64.2381 23.296 62.8408 23.68 61.3048 23.68C59.9608 23.68 58.7661 23.4133 57.7208 22.88C56.6755 22.3253 55.8221 21.6427 55.1608 20.832V31.776H51.5128V5.76H55.1608V8.352ZM65.8808 14.496C65.8808 13.28 65.6248 12.2347 65.1128 11.36C64.6221 10.464 63.9608 9.792 63.1288 9.344C62.3181 8.87466 61.4435 8.64 60.5048 8.64C59.5875 8.64 58.7128 8.87466 57.8808 9.344C57.0701 9.81333 56.4088 10.496 55.8968 11.392C55.4061 12.288 55.1608 13.344 55.1608 14.56C55.1608 15.776 55.4061 16.8427 55.8968 17.76C56.4088 18.656 57.0701 19.3387 57.8808 19.808C58.7128 20.2773 59.5875 20.512 60.5048 20.512C61.4435 20.512 62.3181 20.2773 63.1288 19.808C63.9608 19.3173 64.6221 18.6133 65.1128 17.696C65.6248 16.7787 65.8808 15.712 65.8808 14.496ZM96.0728 3.2H85.3528V9.568C85.8008 8.97066 86.4621 8.46933 87.3368 8.064C88.2328 7.65866 89.1821 7.456 90.1848 7.456C91.9768 7.456 93.4275 7.84 94.5368 8.608C95.6675 9.376 96.4675 10.3467 96.9368 11.52C97.4275 12.6933 97.6728 13.9307 97.6728 15.232C97.6728 16.8107 97.3635 18.2187 96.7448 19.456C96.1475 20.672 95.2408 21.632 94.0248 22.336C92.8301 23.04 91.3581 23.392 89.6088 23.392C87.2835 23.392 85.4168 22.816 84.0088 21.664C82.6008 20.512 81.7581 18.9867 81.4808 17.088H85.0328C85.2675 18.0907 85.7901 18.8907 86.6008 19.488C87.4115 20.064 88.4248 20.352 89.6408 20.352C91.1555 20.352 92.2861 19.8933 93.0328 18.976C93.8008 18.0587 94.1848 16.8427 94.1848 15.328C94.1848 13.792 93.8008 12.6187 93.0328 11.808C92.2648 10.976 91.1341 10.56 89.6408 10.56C88.5955 10.56 87.7101 10.8267 86.9848 11.36C86.2808 11.872 85.7688 12.576 85.4488 13.472H81.9928V-1.90735e-06H96.0728V3.2Z" fill="#FC766A"></path></svg> 