<?xml version="1.0" encoding="UTF-8"?> <svg xmlns="http://www.w3.org/2000/svg" width="88" height="32" viewBox="0 0 88 32" fill="none"><path d="M7.86863 23.5521C6.37529 23.5521 5.03129 23.2961 3.83663 22.7841C2.64196 22.2508 1.70329 21.5041 1.02063 20.5441C0.337958 19.5841 -0.00337493 18.4641 -0.00337493 17.1841H3.90063C3.98596 18.1441 4.35929 18.9335 5.02063 19.5521C5.70329 20.1708 6.65263 20.4801 7.86863 20.4801C9.12729 20.4801 10.1086 20.1815 10.8126 19.5841C11.5166 18.9655 11.8686 18.1761 11.8686 17.2161C11.8686 16.4695 11.6446 15.8615 11.1966 15.3921C10.77 14.9228 10.226 14.5601 9.56463 14.3041C8.92463 14.0481 8.02863 13.7708 6.87663 13.4721C5.42596 13.0881 4.24196 12.7041 3.32463 12.3201C2.42863 11.9148 1.66063 11.2961 1.02063 10.4641C0.380625 9.63212 0.0606251 8.52279 0.0606251 7.13612C0.0606251 5.85612 0.380625 4.73612 1.02063 3.77612C1.66063 2.81612 2.55663 2.08012 3.70863 1.56812C4.86063 1.05612 6.19396 0.800123 7.70863 0.800123C9.86329 0.800123 11.6233 1.34412 12.9886 2.43212C14.3753 3.49879 15.1433 4.97079 15.2926 6.84812H11.2606C11.1966 6.03746 10.8126 5.34412 10.1086 4.76812C9.40463 4.19212 8.47663 3.90412 7.32463 3.90412C6.27929 3.90412 5.42596 4.17079 4.76463 4.70412C4.10329 5.23746 3.77263 6.00546 3.77263 7.00812C3.77263 7.69079 3.97529 8.25612 4.38063 8.70412C4.80729 9.13079 5.34063 9.47212 5.98063 9.72812C6.62063 9.98412 7.49529 10.2615 8.60463 10.5601C10.0766 10.9655 11.2713 11.3708 12.1886 11.7761C13.1273 12.1815 13.9166 12.8108 14.5566 13.6641C15.218 14.4961 15.5486 15.6161 15.5486 17.0241C15.5486 18.1548 15.2393 19.2215 14.6206 20.2241C14.0233 21.2268 13.138 22.0375 11.9646 22.6561C10.8126 23.2535 9.44729 23.5521 7.86863 23.5521ZM24.1091 8.67212V18.4321C24.1091 19.0935 24.2585 19.5735 24.5571 19.8721C24.8771 20.1495 25.4105 20.2881 26.1571 20.2881H28.3971V23.3281H25.5171C23.8745 23.3281 22.6158 22.9441 21.7411 22.1761C20.8665 21.4081 20.4291 20.1601 20.4291 18.4321V8.67212H18.3491V5.69613H20.4291V1.31212H24.1091V5.69613H28.3971V8.67212H24.1091ZM47.9194 14.0801C47.9194 14.7415 47.8767 15.3388 47.7914 15.8721H34.3194C34.426 17.2801 34.9487 18.4108 35.8874 19.2641C36.826 20.1175 37.978 20.5441 39.3434 20.5441C41.306 20.5441 42.6927 19.7228 43.5034 18.0801H47.4394C46.906 19.7015 45.9354 21.0348 44.5274 22.0801C43.1407 23.1041 41.4127 23.6161 39.3434 23.6161C37.658 23.6161 36.1434 23.2428 34.7994 22.4961C33.4767 21.7281 32.4314 20.6615 31.6634 19.2961C30.9167 17.9095 30.5434 16.3095 30.5434 14.4961C30.5434 12.6828 30.906 11.0935 31.6314 9.72812C32.378 8.34146 33.4127 7.27479 34.7354 6.52812C36.0794 5.78146 37.6154 5.40812 39.3434 5.40812C41.0074 5.40812 42.49 5.77079 43.7914 6.49612C45.0927 7.22146 46.106 8.24546 46.8314 9.56812C47.5567 10.8695 47.9194 12.3735 47.9194 14.0801ZM44.1114 12.9281C44.09 11.5841 43.61 10.5068 42.6714 9.69612C41.7327 8.88546 40.57 8.48012 39.1834 8.48012C37.9247 8.48012 36.8474 8.88546 35.9514 9.69612C35.0554 10.4855 34.522 11.5628 34.3514 12.9281H44.1114ZM55.1574 8.28812C55.776 7.47746 56.6187 6.79479 57.6854 6.24012C58.752 5.68546 59.9574 5.40812 61.3014 5.40812C62.8374 5.40812 64.2347 5.79212 65.4934 6.56012C66.7734 7.30679 67.776 8.36279 68.5014 9.72812C69.2267 11.0935 69.5894 12.6615 69.5894 14.4321C69.5894 16.2028 69.2267 17.7921 68.5014 19.2001C67.776 20.5868 66.7734 21.6748 65.4934 22.4641C64.2347 23.2321 62.8374 23.6161 61.3014 23.6161C59.9574 23.6161 58.7627 23.3495 57.7174 22.8161C56.672 22.2615 55.8187 21.5788 55.1574 20.7681V31.7121H51.5094V5.69613H55.1574V8.28812ZM65.8774 14.4321C65.8774 13.2161 65.6214 12.1708 65.1094 11.2961C64.6187 10.4001 63.9574 9.72812 63.1254 9.28012C62.3147 8.81079 61.44 8.57612 60.5014 8.57612C59.584 8.57612 58.7094 8.81079 57.8774 9.28012C57.0667 9.74946 56.4054 10.4321 55.8934 11.3281C55.4027 12.2241 55.1574 13.2801 55.1574 14.4961C55.1574 15.7121 55.4027 16.7788 55.8934 17.6961C56.4054 18.5921 57.0667 19.2748 57.8774 19.7441C58.7094 20.2135 59.584 20.4481 60.5014 20.4481C61.44 20.4481 62.3147 20.2135 63.1254 19.7441C63.9574 19.2535 64.6187 18.5495 65.1094 17.6321C65.6214 16.7148 65.8774 15.6481 65.8774 14.4321ZM80.5494 3.32812V0.000123978H87.2054V23.3281H83.5254V3.32812H80.5494Z" fill="#FC766A"></path></svg> 