<?xml version="1.0" encoding="UTF-8"?> <svg xmlns="http://www.w3.org/2000/svg" width="97" height="32" viewBox="0 0 97 32" fill="none"><path d="M7.86863 23.264C6.37529 23.264 5.03129 23.008 3.83663 22.496C2.64196 21.9627 1.70329 21.216 1.02063 20.256C0.337958 19.296 -0.00337493 18.176 -0.00337493 16.896H3.90063C3.98596 17.856 4.35929 18.6454 5.02063 19.264C5.70329 19.8827 6.65263 20.192 7.86863 20.192C9.12729 20.192 10.1086 19.8934 10.8126 19.296C11.5166 18.6774 11.8686 17.888 11.8686 16.928C11.8686 16.1814 11.6446 15.5734 11.1966 15.104C10.77 14.6347 10.226 14.272 9.56463 14.016C8.92463 13.76 8.02863 13.4827 6.87663 13.184C5.42596 12.8 4.24196 12.416 3.32463 12.032C2.42863 11.6267 1.66063 11.008 1.02063 10.176C0.380625 9.34404 0.0606251 8.2347 0.0606251 6.84804C0.0606251 5.56804 0.380625 4.44804 1.02063 3.48804C1.66063 2.52804 2.55663 1.79204 3.70863 1.28004C4.86063 0.768038 6.19396 0.512037 7.70863 0.512037C9.86329 0.512037 11.6233 1.05604 12.9886 2.14404C14.3753 3.2107 15.1433 4.6827 15.2926 6.56004H11.2606C11.1966 5.74937 10.8126 5.05604 10.1086 4.48004C9.40463 3.90404 8.47663 3.61604 7.32463 3.61604C6.27929 3.61604 5.42596 3.8827 4.76463 4.41604C4.10329 4.94937 3.77263 5.71737 3.77263 6.72004C3.77263 7.4027 3.97529 7.96804 4.38063 8.41604C4.80729 8.84271 5.34063 9.18404 5.98063 9.44004C6.62063 9.69604 7.49529 9.97337 8.60463 10.272C10.0766 10.6774 11.2713 11.0827 12.1886 11.488C13.1273 11.8934 13.9166 12.5227 14.5566 13.376C15.218 14.208 15.5486 15.328 15.5486 16.736C15.5486 17.8667 15.2393 18.9334 14.6206 19.936C14.0233 20.9387 13.138 21.7494 11.9646 22.368C10.8126 22.9654 9.44729 23.264 7.86863 23.264ZM24.1091 8.38404V18.144C24.1091 18.8054 24.2585 19.2854 24.5571 19.584C24.8771 19.8614 25.4105 20 26.1571 20H28.3971V23.04H25.5171C23.8745 23.04 22.6158 22.656 21.7411 21.888C20.8665 21.12 20.4291 19.872 20.4291 18.144V8.38404H18.3491V5.40804H20.4291V1.02404H24.1091V5.40804H28.3971V8.38404H24.1091ZM47.9194 13.792C47.9194 14.4534 47.8767 15.0507 47.7914 15.584H34.3194C34.426 16.992 34.9487 18.1227 35.8874 18.976C36.826 19.8294 37.978 20.256 39.3434 20.256C41.306 20.256 42.6927 19.4347 43.5034 17.792H47.4394C46.906 19.4134 45.9354 20.7467 44.5274 21.792C43.1407 22.816 41.4127 23.328 39.3434 23.328C37.658 23.328 36.1434 22.9547 34.7994 22.208C33.4767 21.44 32.4314 20.3734 31.6634 19.008C30.9167 17.6214 30.5434 16.0214 30.5434 14.208C30.5434 12.3947 30.906 10.8054 31.6314 9.44004C32.378 8.05337 33.4127 6.98671 34.7354 6.24004C36.0794 5.49337 37.6154 5.12004 39.3434 5.12004C41.0074 5.12004 42.49 5.48271 43.7914 6.20804C45.0927 6.93337 46.106 7.95737 46.8314 9.28004C47.5567 10.5814 47.9194 12.0854 47.9194 13.792ZM44.1114 12.64C44.09 11.296 43.61 10.2187 42.6714 9.40804C41.7327 8.59737 40.57 8.19204 39.1834 8.19204C37.9247 8.19204 36.8474 8.59737 35.9514 9.40804C35.0554 10.1974 34.522 11.2747 34.3514 12.64H44.1114ZM55.1574 8.00004C55.776 7.18937 56.6187 6.5067 57.6854 5.95204C58.752 5.39737 59.9574 5.12004 61.3014 5.12004C62.8374 5.12004 64.2347 5.50404 65.4934 6.27204C66.7734 7.0187 67.776 8.07471 68.5014 9.44004C69.2267 10.8054 69.5894 12.3734 69.5894 14.144C69.5894 15.9147 69.2267 17.504 68.5014 18.912C67.776 20.2987 66.7734 21.3867 65.4934 22.176C64.2347 22.944 62.8374 23.328 61.3014 23.328C59.9574 23.328 58.7627 23.0614 57.7174 22.528C56.672 21.9734 55.8187 21.2907 55.1574 20.48V31.424H51.5094V5.40804H55.1574V8.00004ZM65.8774 14.144C65.8774 12.928 65.6214 11.8827 65.1094 11.008C64.6187 10.112 63.9574 9.44004 63.1254 8.99204C62.3147 8.52271 61.44 8.28804 60.5014 8.28804C59.584 8.28804 58.7094 8.52271 57.8774 8.99204C57.0667 9.46137 56.4054 10.144 55.8934 11.04C55.4027 11.936 55.1574 12.992 55.1574 14.208C55.1574 15.424 55.4027 16.4907 55.8934 17.408C56.4054 18.304 57.0667 18.9867 57.8774 19.456C58.7094 19.9254 59.584 20.16 60.5014 20.16C61.44 20.16 62.3147 19.9254 63.1254 19.456C63.9574 18.9654 64.6187 18.2614 65.1094 17.344C65.6214 16.4267 65.8774 15.36 65.8774 14.144ZM80.5814 18.176V15.424L91.3334 3.8147e-05H95.7494V15.008H98.7254V18.176H95.7494V23.04H92.1654V18.176H80.5814ZM92.3254 3.71204L84.7734 15.008H92.3254V3.71204Z" fill="#FC766A"></path></svg> 