<?xml version="1.0" encoding="UTF-8"?> <svg xmlns="http://www.w3.org/2000/svg" width="97" height="33" viewBox="0 0 97 33" fill="none"><path d="M7.86863 24.0321C6.37529 24.0321 5.03129 23.7761 3.83663 23.2641C2.64196 22.7308 1.70329 21.9841 1.02063 21.0241C0.337958 20.0641 -0.00337493 18.9441 -0.00337493 17.6641H3.90063C3.98596 18.6241 4.35929 19.4134 5.02063 20.0321C5.70329 20.6508 6.65263 20.9601 7.86863 20.9601C9.12729 20.9601 10.1086 20.6614 10.8126 20.0641C11.5166 19.4454 11.8686 18.6561 11.8686 17.6961C11.8686 16.9494 11.6446 16.3414 11.1966 15.8721C10.77 15.4028 10.226 15.0401 9.56463 14.7841C8.92463 14.5281 8.02863 14.2508 6.87663 13.9521C5.42596 13.5681 4.24196 13.1841 3.32463 12.8001C2.42863 12.3948 1.66063 11.7761 1.02063 10.9441C0.380625 10.1121 0.0606251 9.00277 0.0606251 7.6161C0.0606251 6.3361 0.380625 5.2161 1.02063 4.25611C1.66063 3.29611 2.55663 2.56011 3.70863 2.04811C4.86063 1.5361 6.19396 1.2801 7.70863 1.2801C9.86329 1.2801 11.6233 1.8241 12.9886 2.9121C14.3753 3.97877 15.1433 5.45077 15.2926 7.3281H11.2606C11.1966 6.51744 10.8126 5.8241 10.1086 5.2481C9.40463 4.6721 8.47663 4.3841 7.32463 4.3841C6.27929 4.3841 5.42596 4.65077 4.76463 5.1841C4.10329 5.71744 3.77263 6.48544 3.77263 7.4881C3.77263 8.17077 3.97529 8.7361 4.38063 9.1841C4.80729 9.61077 5.34063 9.95211 5.98063 10.2081C6.62063 10.4641 7.49529 10.7414 8.60463 11.0401C10.0766 11.4454 11.2713 11.8508 12.1886 12.2561C13.1273 12.6614 13.9166 13.2908 14.5566 14.1441C15.218 14.9761 15.5486 16.0961 15.5486 17.5041C15.5486 18.6348 15.2393 19.7014 14.6206 20.7041C14.0233 21.7068 13.138 22.5174 11.9646 23.1361C10.8126 23.7334 9.44729 24.0321 7.86863 24.0321ZM24.1091 9.1521V18.9121C24.1091 19.5734 24.2585 20.0534 24.5571 20.3521C24.8771 20.6294 25.4105 20.7681 26.1571 20.7681H28.3971V23.8081H25.5171C23.8745 23.8081 22.6158 23.4241 21.7411 22.6561C20.8665 21.8881 20.4291 20.6401 20.4291 18.9121V9.1521H18.3491V6.17611H20.4291V1.7921H24.1091V6.17611H28.3971V9.1521H24.1091ZM47.9194 14.5601C47.9194 15.2214 47.8767 15.8188 47.7914 16.3521H34.3194C34.426 17.7601 34.9487 18.8908 35.8874 19.7441C36.826 20.5974 37.978 21.0241 39.3434 21.0241C41.306 21.0241 42.6927 20.2028 43.5034 18.5601H47.4394C46.906 20.1814 45.9354 21.5148 44.5274 22.5601C43.1407 23.5841 41.4127 24.0961 39.3434 24.0961C37.658 24.0961 36.1434 23.7228 34.7994 22.9761C33.4767 22.2081 32.4314 21.1414 31.6634 19.7761C30.9167 18.3894 30.5434 16.7894 30.5434 14.9761C30.5434 13.1628 30.906 11.5734 31.6314 10.2081C32.378 8.82144 33.4127 7.75477 34.7354 7.0081C36.0794 6.26144 37.6154 5.88811 39.3434 5.88811C41.0074 5.88811 42.49 6.25077 43.7914 6.9761C45.0927 7.70144 46.106 8.72544 46.8314 10.0481C47.5567 11.3494 47.9194 12.8534 47.9194 14.5601ZM44.1114 13.4081C44.09 12.0641 43.61 10.9868 42.6714 10.1761C41.7327 9.36544 40.57 8.9601 39.1834 8.9601C37.9247 8.9601 36.8474 9.36544 35.9514 10.1761C35.0554 10.9654 34.522 12.0428 34.3514 13.4081H44.1114ZM55.1574 8.7681C55.776 7.95744 56.6187 7.27477 57.6854 6.7201C58.752 6.16544 59.9574 5.88811 61.3014 5.88811C62.8374 5.88811 64.2347 6.2721 65.4934 7.0401C66.7734 7.78677 67.776 8.84277 68.5014 10.2081C69.2267 11.5734 69.5894 13.1414 69.5894 14.9121C69.5894 16.6828 69.2267 18.2721 68.5014 19.6801C67.776 21.0668 66.7734 22.1548 65.4934 22.9441C64.2347 23.7121 62.8374 24.0961 61.3014 24.0961C59.9574 24.0961 58.7627 23.8294 57.7174 23.2961C56.672 22.7414 55.8187 22.0588 55.1574 21.2481V32.1921H51.5094V6.17611H55.1574V8.7681ZM65.8774 14.9121C65.8774 13.6961 65.6214 12.6508 65.1094 11.7761C64.6187 10.8801 63.9574 10.2081 63.1254 9.76011C62.3147 9.29077 61.44 9.0561 60.5014 9.0561C59.584 9.0561 58.7094 9.29077 57.8774 9.76011C57.0667 10.2294 56.4054 10.9121 55.8934 11.8081C55.4027 12.7041 55.1574 13.7601 55.1574 14.9761C55.1574 16.1921 55.4027 17.2588 55.8934 18.1761C56.4054 19.0721 57.0667 19.7548 57.8774 20.2241C58.7094 20.6934 59.584 20.9281 60.5014 20.9281C61.44 20.9281 62.3147 20.6934 63.1254 20.2241C63.9574 19.7334 64.6187 19.0294 65.1094 18.1121C65.6214 17.1948 65.8774 16.1281 65.8774 14.9121ZM83.0454 18.8481C85.0934 17.0774 86.704 15.6268 87.8774 14.4961C89.072 13.3441 90.064 12.1494 90.8534 10.9121C91.6427 9.67477 92.0374 8.43744 92.0374 7.2001C92.0374 5.9201 91.728 4.91744 91.1094 4.1921C90.512 3.46677 89.5627 3.1041 88.2614 3.1041C87.0027 3.1041 86.0214 3.50944 85.3174 4.3201C84.6347 5.10944 84.272 6.1761 84.2294 7.52011H80.7094C80.7734 5.0881 81.4987 3.2321 82.8854 1.9521C84.2934 0.650771 86.0747 0.000104904 88.2294 0.000104904C90.5547 0.000104904 92.368 0.640105 93.6694 1.9201C94.992 3.20011 95.6534 4.90677 95.6534 7.0401C95.6534 8.5761 95.2587 10.0588 94.4694 11.4881C93.7014 12.8961 92.7734 14.1654 91.6854 15.2961C90.6187 16.4054 89.2534 17.6961 87.5894 19.1681L86.1494 20.4481H96.2934V23.4881H80.7414V20.8321L83.0454 18.8481Z" fill="#FC766A"></path></svg> 