<?xml version="1.0" encoding="UTF-8"?> <svg xmlns="http://www.w3.org/2000/svg" width="97" height="33" viewBox="0 0 97 33" fill="none"><path d="M7.86863 24.0961C6.37529 24.0961 5.03129 23.8401 3.83663 23.3281C2.64196 22.7947 1.70329 22.0481 1.02063 21.0881C0.337958 20.1281 -0.00337493 19.0081 -0.00337493 17.7281H3.90063C3.98596 18.6881 4.35929 19.4774 5.02063 20.0961C5.70329 20.7147 6.65263 21.0241 7.86863 21.0241C9.12729 21.0241 10.1086 20.7254 10.8126 20.1281C11.5166 19.5094 11.8686 18.7201 11.8686 17.7601C11.8686 17.0134 11.6446 16.4054 11.1966 15.9361C10.77 15.4667 10.226 15.1041 9.56463 14.8481C8.92463 14.5921 8.02863 14.3147 6.87663 14.0161C5.42596 13.6321 4.24196 13.2481 3.32463 12.8641C2.42863 12.4587 1.66063 11.8401 1.02063 11.0081C0.380625 10.1761 0.0606251 9.06674 0.0606251 7.68007C0.0606251 6.40007 0.380625 5.28007 1.02063 4.32007C1.66063 3.36007 2.55663 2.62407 3.70863 2.11207C4.86063 1.60007 6.19396 1.34407 7.70863 1.34407C9.86329 1.34407 11.6233 1.88807 12.9886 2.97607C14.3753 4.04274 15.1433 5.51474 15.2926 7.39207H11.2606C11.1966 6.5814 10.8126 5.88807 10.1086 5.31207C9.40463 4.73607 8.47663 4.44807 7.32463 4.44807C6.27929 4.44807 5.42596 4.71474 4.76463 5.24807C4.10329 5.7814 3.77263 6.5494 3.77263 7.55207C3.77263 8.23474 3.97529 8.80007 4.38063 9.24807C4.80729 9.67474 5.34063 10.0161 5.98063 10.2721C6.62063 10.5281 7.49529 10.8054 8.60463 11.1041C10.0766 11.5094 11.2713 11.9147 12.1886 12.3201C13.1273 12.7254 13.9166 13.3547 14.5566 14.2081C15.218 15.0401 15.5486 16.1601 15.5486 17.5681C15.5486 18.6987 15.2393 19.7654 14.6206 20.7681C14.0233 21.7707 13.138 22.5814 11.9646 23.2001C10.8126 23.7974 9.44729 24.0961 7.86863 24.0961ZM24.1091 9.21607V18.9761C24.1091 19.6374 24.2585 20.1174 24.5571 20.4161C24.8771 20.6934 25.4105 20.8321 26.1571 20.8321H28.3971V23.8721H25.5171C23.8745 23.8721 22.6158 23.4881 21.7411 22.7201C20.8665 21.9521 20.4291 20.7041 20.4291 18.9761V9.21607H18.3491V6.24007H20.4291V1.85607H24.1091V6.24007H28.3971V9.21607H24.1091ZM47.9194 14.6241C47.9194 15.2854 47.8767 15.8827 47.7914 16.4161H34.3194C34.426 17.8241 34.9487 18.9547 35.8874 19.8081C36.826 20.6614 37.978 21.0881 39.3434 21.0881C41.306 21.0881 42.6927 20.2667 43.5034 18.6241H47.4394C46.906 20.2454 45.9354 21.5787 44.5274 22.6241C43.1407 23.6481 41.4127 24.1601 39.3434 24.1601C37.658 24.1601 36.1434 23.7867 34.7994 23.0401C33.4767 22.2721 32.4314 21.2054 31.6634 19.8401C30.9167 18.4534 30.5434 16.8534 30.5434 15.0401C30.5434 13.2267 30.906 11.6374 31.6314 10.2721C32.378 8.8854 33.4127 7.81874 34.7354 7.07207C36.0794 6.3254 37.6154 5.95207 39.3434 5.95207C41.0074 5.95207 42.49 6.31474 43.7914 7.04007C45.0927 7.7654 46.106 8.7894 46.8314 10.1121C47.5567 11.4134 47.9194 12.9174 47.9194 14.6241ZM44.1114 13.4721C44.09 12.1281 43.61 11.0507 42.6714 10.2401C41.7327 9.4294 40.57 9.02407 39.1834 9.02407C37.9247 9.02407 36.8474 9.4294 35.9514 10.2401C35.0554 11.0294 34.522 12.1067 34.3514 13.4721H44.1114ZM55.1574 8.83207C55.776 8.0214 56.6187 7.33874 57.6854 6.78407C58.752 6.2294 59.9574 5.95207 61.3014 5.95207C62.8374 5.95207 64.2347 6.33607 65.4934 7.10407C66.7734 7.85074 67.776 8.90674 68.5014 10.2721C69.2267 11.6374 69.5894 13.2054 69.5894 14.9761C69.5894 16.7467 69.2267 18.3361 68.5014 19.7441C67.776 21.1307 66.7734 22.2187 65.4934 23.0081C64.2347 23.7761 62.8374 24.1601 61.3014 24.1601C59.9574 24.1601 58.7627 23.8934 57.7174 23.3601C56.672 22.8054 55.8187 22.1227 55.1574 21.3121V32.2561H51.5094V6.24007H55.1574V8.83207ZM65.8774 14.9761C65.8774 13.7601 65.6214 12.7147 65.1094 11.8401C64.6187 10.9441 63.9574 10.2721 63.1254 9.82407C62.3147 9.35474 61.44 9.12007 60.5014 9.12007C59.584 9.12007 58.7094 9.35474 57.8774 9.82407C57.0667 10.2934 56.4054 10.9761 55.8934 11.8721C55.4027 12.7681 55.1574 13.8241 55.1574 15.0401C55.1574 16.2561 55.4027 17.3227 55.8934 18.2401C56.4054 19.1361 57.0667 19.8187 57.8774 20.2881C58.7094 20.7574 59.584 20.9921 60.5014 20.9921C61.44 20.9921 62.3147 20.7574 63.1254 20.2881C63.9574 19.7974 64.6187 19.0934 65.1094 18.1761C65.6214 17.2587 65.8774 16.1921 65.8774 14.9761ZM80.9654 6.30407C81.0934 4.32007 81.8507 2.7734 83.2374 1.66407C84.6454 0.554736 86.4374 6.86646e-05 88.6134 6.86646e-05C90.1067 6.86646e-05 91.3974 0.266736 92.4854 0.80007C93.5734 1.3334 94.3947 2.05874 94.9494 2.97607C95.504 3.8934 95.7814 4.92807 95.7814 6.08007C95.7814 7.40274 95.4294 8.5334 94.7254 9.47207C94.0214 10.4107 93.1787 11.0401 92.1974 11.3601V11.4881C93.456 11.8721 94.4374 12.5761 95.1414 13.6001C95.8454 14.6027 96.1974 15.8934 96.1974 17.4721C96.1974 18.7307 95.9094 19.8507 95.3334 20.8321C94.7574 21.8134 93.904 22.5921 92.7734 23.1681C91.6427 23.7227 90.288 24.0001 88.7094 24.0001C86.4054 24.0001 84.5067 23.4134 83.0134 22.2401C81.5414 21.0454 80.752 19.3387 80.6454 17.1201H84.1654C84.2507 18.2507 84.688 19.1787 85.4774 19.9041C86.2667 20.6081 87.3334 20.9601 88.6774 20.9601C89.9787 20.9601 90.9814 20.6081 91.6854 19.9041C92.3894 19.1787 92.7414 18.2507 92.7414 17.1201C92.7414 15.6267 92.2614 14.5707 91.3014 13.9521C90.3627 13.3121 88.912 12.9921 86.9494 12.9921H86.1174V9.98407H86.9814C88.7094 9.96274 90.0214 9.67474 90.9174 9.12007C91.8347 8.5654 92.2934 7.69074 92.2934 6.49607C92.2934 5.47207 91.9627 4.6614 91.3014 4.06407C90.64 3.4454 89.7014 3.13607 88.4854 3.13607C87.2907 3.13607 86.3627 3.4454 85.7014 4.06407C85.04 4.6614 84.6454 5.40807 84.5174 6.30407H80.9654Z" fill="#FC766A"></path></svg> 