<?xml version="1.0" encoding="UTF-8"?> <svg xmlns="http://www.w3.org/2000/svg" width="67" height="63" viewBox="0 0 67 63" fill="none"><path d="M66.0053 45.0899L58.2874 24.8189C58.1974 24.5822 58.0177 24.3917 57.7877 24.2887C57.558 24.1856 57.2961 24.1782 57.0624 24.2693L48.8214 27.4572C48.3325 27.6461 48.088 28.1995 48.2758 28.6924L48.4771 29.2212L37.5992 25.4394C35.1355 24.5829 32.398 24.9847 30.2777 26.5126L27.4538 28.5481L17.7403 28.9534L17.8397 28.6924C18.0275 28.1995 17.783 27.6462 17.2941 27.4572L9.05308 24.2693C8.81823 24.1774 8.55782 24.1849 8.32778 24.2887C8.09775 24.3917 7.91808 24.5822 7.82807 24.8189L0.110146 45.0899C-0.0776639 45.5828 0.166823 46.1362 0.655791 46.3251L8.89676 49.513C9.00604 49.5556 9.12124 49.5765 9.23644 49.5765C9.36795 49.5765 9.49945 49.5489 9.62206 49.4936C9.8521 49.3906 10.0318 49.2001 10.1218 48.9634L10.8159 47.1403L16.1983 51.073C16.9859 51.6481 17.9075 52.3373 18.771 53.0893C19.9063 54.0795 21.1269 55.0003 22.3997 55.8255L30.411 61.0155C31.4638 61.6973 32.6643 62.0296 33.8597 62.0296C35.2833 62.0296 36.6998 61.5577 37.8493 60.6429C39.1658 61.259 40.7827 61.0215 41.8673 59.9282C42.4433 59.348 42.819 58.6184 42.9582 57.8268C44.187 58.3899 45.6872 58.1629 46.6959 57.1465C47.2641 56.5737 47.6205 55.8441 47.7257 55.0541C48.0469 55.1452 48.3825 55.193 48.7255 55.193C49.7053 55.193 50.6262 54.8076 51.3189 54.1094C52.1901 53.2319 52.5139 52.0244 52.285 50.9005C52.3435 50.8781 52.4005 50.849 52.4554 50.8139L55.8654 48.6264L55.9937 48.9634C56.0837 49.2001 56.2634 49.3906 56.4934 49.4936C56.616 49.5489 56.7475 49.5765 56.879 49.5765C56.9942 49.5765 57.1094 49.5556 57.2187 49.513L65.4597 46.3251C65.9487 46.1361 66.1931 45.5828 66.0053 45.0899ZM8.69079 47.3855L2.22048 44.8831L9.25903 26.3968L15.7293 28.8992L15.45 29.6327C15.4499 29.6332 15.4497 29.6337 15.4496 29.634L8.69079 47.3855ZM49.9775 52.7578C49.3085 53.4328 48.1428 53.4328 47.4731 52.7578L40.2926 45.5201C39.9222 45.1467 39.3221 45.1467 38.9517 45.5201C38.5812 45.8935 38.5812 46.4983 38.9517 46.8717L45.3546 53.326C45.6816 53.6554 45.8617 54.0937 45.8617 54.5605C45.8617 55.0264 45.6813 55.4648 45.3546 55.7949C44.7967 56.3579 43.8865 56.3587 43.3272 55.7949L41.8999 54.3566C41.8892 54.3454 41.8784 54.3342 41.8673 54.323L37.3692 49.7893C36.9987 49.416 36.3986 49.416 36.0282 49.7893C35.6578 50.1627 35.6578 50.7676 36.0282 51.141L40.5493 55.6985C41.3198 56.5006 41.3124 57.7843 40.5264 58.5766C39.8788 59.2293 38.8261 59.2293 38.1786 58.5766L32.3417 52.6935C31.9713 52.3201 31.3712 52.3201 31.0007 52.6935C30.6303 53.0669 30.6303 53.6718 31.0007 54.0452L36.3142 59.401C34.8565 60.3427 32.934 60.3778 31.4364 59.407L23.4254 54.2169C22.2282 53.4411 21.0798 52.5755 20.0115 51.6436C19.0932 50.8438 18.1312 50.1232 17.3111 49.525L11.695 45.4222C11.6358 45.3787 11.5682 45.3617 11.5037 45.3338L17 30.8978L24.764 30.5739C24.0892 31.1891 23.5017 31.891 23.0194 32.6786L20.7016 36.4655C20.3179 37.092 20.2056 37.8306 20.386 38.5445C20.5661 39.2584 21.015 39.8536 21.6499 40.2188C24.094 41.6272 27.1482 41.3016 29.2471 39.4093L31.5619 37.3213L36.2623 35.9465L50.0049 50.4824C50.6154 51.1283 50.6036 52.1275 49.9775 52.7578ZM55.1436 46.8232L51.4374 49.2009C51.4322 49.2039 51.427 49.2076 51.4222 49.2106C51.4078 49.1949 51.393 49.1792 51.3781 49.1636L37.2377 34.2073C37.0562 34.0154 36.8069 33.9108 36.5513 33.9108C36.4631 33.9108 36.3742 33.9235 36.2871 33.9489L30.8263 35.5462C30.6896 35.5858 30.564 35.656 30.4581 35.7516L27.9825 37.9844C26.493 39.3279 24.3263 39.5586 22.5908 38.5594C22.4067 38.4534 22.2764 38.2801 22.2237 38.0725C22.1715 37.8657 22.2041 37.6521 22.3156 37.4699L24.6338 33.6823C25.1794 32.7906 25.8862 32.0282 26.7334 31.4173L31.3808 28.0673C33.0029 26.8979 35.0958 26.5917 36.981 27.2466L49.3646 31.5521L51.0225 35.9065L55.1436 46.8232ZM57.4247 47.3855L52.7976 35.2329L50.9958 30.46C50.9877 30.4383 50.9684 30.4241 50.9588 30.4032L50.3861 28.8992L56.8564 26.3968L63.895 44.8831L57.4247 47.3855ZM11.8684 21.4091V18.2167C11.8684 17.6887 12.2929 17.2608 12.8167 17.2608H15.5189C15.9646 15.3289 16.7099 13.5106 17.7419 11.8371L15.8353 9.91487C15.4649 9.54149 15.4649 8.9366 15.8353 8.56322L20.3138 4.049C20.6842 3.67561 21.2843 3.67561 21.6548 4.049L23.5617 5.97118C25.2231 4.93018 27.0271 4.17893 28.9426 3.73013V1.00591C28.9426 0.477947 29.3671 0.0500488 29.8909 0.0500488H36.2245C36.7483 0.0500488 37.1728 0.477947 37.1728 1.00591V3.73013C39.0883 4.17893 40.8923 4.93019 42.5537 5.97118L44.4607 4.049C44.8311 3.67561 45.4312 3.67561 45.8017 4.049L50.2802 8.56322C50.6506 8.9366 50.6506 9.54149 50.2802 9.91487L48.3736 11.8371C49.4056 13.5106 50.1509 15.3289 50.5965 17.2608H53.2988C53.8226 17.2608 54.2471 17.6887 54.2471 18.2167V21.4091C54.2471 21.9371 53.8226 22.365 53.2988 22.365C52.775 22.365 52.3505 21.9371 52.3505 21.4091V19.1726H49.8271C49.3708 19.1726 48.9792 18.8455 48.8951 18.3929C48.4802 16.1683 47.6331 14.1013 46.3762 12.2493C46.1188 11.8692 46.1658 11.3584 46.4884 11.0335L48.2687 9.23904L45.1312 6.07648L43.3509 7.87096C43.0283 8.1973 42.5222 8.24435 42.1451 7.98447C40.3063 6.71646 38.2556 5.86216 36.0497 5.44546C35.6011 5.36108 35.2762 4.96604 35.2762 4.50602V1.96178H30.8392V4.50602C30.8392 4.96603 30.5144 5.36107 30.0658 5.44546C27.8599 5.86216 25.8091 6.71646 23.9703 7.98447C23.5932 8.24435 23.0872 8.1973 22.7646 7.87096L20.9843 6.07648L17.8467 9.23904L19.627 11.0335C19.9497 11.3584 19.9967 11.8692 19.7393 12.2493C18.4824 14.1013 17.6352 16.1683 17.2203 18.3929C17.1362 18.8455 16.7447 19.1726 16.2883 19.1726H13.765V21.4091C13.765 21.9371 13.3404 22.365 12.8167 22.365C12.2929 22.365 11.8684 21.9371 11.8684 21.4091ZM42.4593 21.4091C42.4593 21.9371 42.0348 22.365 41.511 22.365C40.9872 22.365 40.5627 21.9371 40.5627 21.4091C40.5627 17.2377 37.1958 13.8444 33.0577 13.8444C28.9196 13.8444 25.5528 17.2377 25.5528 21.4091C25.5528 21.9371 25.1283 22.365 24.6045 22.365C24.0807 22.365 23.6562 21.9371 23.6562 21.4091C23.6562 16.184 27.8735 11.9326 33.0577 11.9326C38.2419 11.9326 42.4593 16.184 42.4593 21.4091Z" fill="#FC766A" stroke="#FC766A" stroke-width="0.1"></path></svg> 