<?xml version="1.0" encoding="UTF-8"?> <svg xmlns="http://www.w3.org/2000/svg" width="102" height="66" viewBox="0 0 102 66" fill="none"><g clip-path="url(#clip0_15617_396)"><path d="M65.2749 34.4113C65.229 34.4113 65.1015 34.4113 65.0811 34.4113C63.6633 34.391 62.3781 33.6295 61.557 32.3298C61.4142 32.1064 61.149 31.68 60.7818 31.0961L70.3188 16.3629C72.216 13.2203 73.848 12.3775 81.3552 12.3775L70.2984 30.3041H74.9853L88.5717 8.29565H84.9966C74.6997 8.29565 70.3851 8.52411 66.9222 14.256L58.4409 27.3544C56.9823 25.019 55.1769 22.1252 53.3409 19.1806C57.4362 12.611 61.302 6.41211 61.3785 6.28518L62.2812 4.83826L60.9807 3.72642C60.8124 3.58426 56.8038 0.218262 50.9949 0.218262C45.186 0.218262 41.1621 3.57918 40.9938 3.72134L39.6882 4.83318L40.596 6.28518C40.6725 6.41211 44.5383 12.611 48.6336 19.1806C46.8027 22.1201 44.9973 25.014 43.5387 27.3493L35.0829 14.3118C34.6341 13.5706 34.17 12.9207 33.6855 12.347L39.6933 12.3775L37.0974 8.27534L16.8606 8.29057V8.30072H13.4028L15.9222 12.3775H20.9559C28.0347 12.413 29.7993 13.2812 31.6914 16.4136L41.2029 31.086C40.8357 31.6749 40.5654 32.1013 40.4277 32.3298C39.6066 33.6346 38.3214 34.391 36.9036 34.4113C35.292 34.3961 33.7365 33.4975 32.6655 31.8983L22.9908 16.2766H18.3345L29.3046 34.0458C31.1865 36.8483 33.9813 38.417 36.9648 38.3866C39.5964 38.351 42.0495 37.0056 43.5999 34.7718L51 46.1898L58.3848 34.782C59.9352 37.0107 62.3832 38.351 65.0097 38.3866C67.8351 38.417 70.4871 37.0006 72.3945 34.4113H65.2596H65.2749ZM45.0228 5.82318C46.3335 5.09211 48.4653 4.19857 51.0102 4.19857C53.5551 4.19857 55.6716 5.09211 56.9772 5.81811C55.7277 7.82349 53.4633 11.4586 51 15.4084C48.5367 11.4586 46.2774 7.83365 45.0228 5.82318ZM51.0102 38.8435L45.951 31.0403C47.2872 28.8978 49.0926 26.004 51 22.9476C52.9074 26.009 54.7179 28.908 56.0541 31.0504L51.0102 38.8435Z" fill="black"></path><path d="M3.6618 65.7765V56.7345H0V54.9677H9.3993V56.7345H5.7375V65.7765H3.6669H3.6618ZM17.8959 60.9839H22.542V65.7765H24.5667V54.9626H22.542V59.0902H17.8959V54.9626H15.8406V65.7765H17.8959V60.9839ZM56.4825 65.7765C54.5802 62.6085 53.5959 61.3393 52.8513 61.0753C55.0188 60.9991 55.7022 59.6639 55.7022 58.1154C55.7022 56.3791 54.9678 54.9677 52.6779 54.9677H47.022V65.7816H49.0773V61.654H50.5257C51.2295 61.654 52.2393 62.8166 53.9376 65.7816H56.4774M49.0722 56.7091H52.1883C52.9533 56.7091 53.4072 57.2523 53.4072 58.3845C53.4072 59.4405 52.938 59.9685 52.1424 59.9685H49.0722V56.7142V56.7091ZM71.91 54.9728C70.8951 57.0543 69.7578 59.6283 68.901 61.8926C67.9932 59.6385 66.8763 57.0797 65.8461 54.9728H63.0411V65.7866H65.0199V57.7346C65.9736 59.8162 67.0956 62.6694 67.9371 64.7916H69.5436C70.4157 62.6643 71.5836 59.8923 72.5679 57.7346V65.7866H74.5773V54.9728H71.91ZM94.809 54.9728V65.7866H101.995V64.0046H96.8694V54.9779H94.8141L94.809 54.9728ZM84.7977 54.9728H83.9205L83.2932 56.7243C83.7165 58.1154 84.2418 59.74 84.8028 61.3342H81.6357L81.0033 63.0857H85.3944C85.7514 64.0808 86.1288 65.0099 86.4399 65.7816H88.7145C87.5007 62.8979 85.9095 58.4403 84.8028 54.9677M34.1292 60.989H38.2908V59.2374L32.0688 59.2222V65.7816H39.9534V64.0148H34.1241V60.989H34.1292ZM32.0739 56.7345H39.9585V54.9677H32.0739V56.7345Z" fill="black"></path></g><defs><clipPath id="clip0_15617_396"><rect width="102" height="66" fill="white"></rect></clipPath></defs></svg> 