<?xml version="1.0" encoding="UTF-8"?> <svg xmlns="http://www.w3.org/2000/svg" width="220" height="33" viewBox="0 0 220 33" fill="none"><g clip-path="url(#clip0_15617_378)"><mask id="mask0_15617_378" style="mask-type:luminance" maskUnits="userSpaceOnUse" x="0" y="0" width="220" height="33"><path d="M0 0H220V33H0V0Z" fill="white"></path></mask><g mask="url(#mask0_15617_378)"><path d="M0 2.39989H27.43C29.3016 2.39897 31.1139 3.05678 32.5492 4.25803C33.9845 5.45928 34.9512 7.12735 35.28 8.96989L39.54 32.9999H12.1C10.2269 33.0004 8.41349 32.3412 6.978 31.1379C5.54251 29.9347 4.57667 28.2643 4.25 26.4199L0 2.38989V2.39989Z" fill="#640804"></path><path d="M2.22998 2.89377e-07H29.66C31.5331 -0.000504231 33.3465 0.658718 34.782 1.86197C36.2175 3.06522 37.1833 4.73562 37.51 6.58L41.77 30.61H14.34C12.4669 30.6105 10.6535 29.9513 9.21798 28.748C7.78249 27.5448 6.81665 25.8744 6.48998 24.03L2.22998 2.89377e-07Z" fill="#B8231B"></path><path d="M28.9771 27.2708C33.0971 27.2708 35.9027 23.9642 35.2435 19.8854C34.5843 15.8066 30.7099 12.5 26.5899 12.5C22.4698 12.5 19.6643 15.8066 20.3235 19.8854C20.9827 23.9642 24.857 27.2708 28.9771 27.2708Z" fill="#640804"></path><path d="M29.5772 25.7708C33.6972 25.7708 36.5028 22.4642 35.8436 18.3854C35.1844 14.3066 31.31 11 27.19 11C23.0699 11 20.2644 14.3066 20.9236 18.3854C21.5828 22.4642 25.4571 25.7708 29.5772 25.7708Z" fill="white"></path><path d="M29.0857 22.6535C31.4771 22.6535 33.1055 20.7343 32.7229 18.3668C32.3403 15.9993 30.0915 14.0801 27.7001 14.0801C25.3087 14.0801 23.6803 15.9993 24.0629 18.3668C24.4455 20.7343 26.6943 22.6535 29.0857 22.6535Z" fill="#640804"></path><mask id="mask1_15617_378" style="mask-type:alpha" maskUnits="userSpaceOnUse" x="24" y="14" width="9" height="9"><path d="M32.7599 18.3799C32.8699 18.9084 32.8578 19.4549 32.7248 19.9779C32.5918 20.501 32.3412 20.9869 31.9922 21.3985C31.6432 21.8102 31.2049 22.1369 30.7106 22.3538C30.2164 22.5706 29.6792 22.6719 29.1399 22.6499C27.9405 22.6139 26.7889 22.1718 25.8734 21.3962C24.9578 20.6205 24.3326 19.5571 24.0999 18.3799C23.9883 17.8508 23.999 17.3032 24.1312 16.7789C24.2634 16.2545 24.5137 15.7673 24.8629 15.3544C25.2122 14.9415 25.6511 14.6139 26.1462 14.3965C26.6414 14.179 27.1796 14.0776 27.7199 14.0999C28.9207 14.1365 30.0735 14.58 30.9892 15.3576C31.9049 16.1353 32.5293 17.2009 32.7599 18.3799Z" fill="#640804"></path></mask><g mask="url(#mask1_15617_378)"><path d="M28.7356 23.7133C31.127 23.7133 32.7554 21.7941 32.3728 19.4266C31.9902 17.0591 29.7414 15.1399 27.35 15.1399C24.9586 15.1399 23.3302 17.0591 23.7128 19.4266C24.0954 21.7941 26.3442 23.7133 28.7356 23.7133Z" fill="#B8231B"></path><path d="M28.7356 23.7133C31.127 23.7133 32.7554 21.7941 32.3728 19.4266C31.9902 17.0591 29.7414 15.1399 27.35 15.1399C24.9586 15.1399 23.3302 17.0591 23.7128 19.4266C24.0954 21.7941 26.3442 23.7133 28.7356 23.7133Z" fill="#B8231B"></path></g><path fill-rule="evenodd" clip-rule="evenodd" d="M132.73 26C134.27 26.38 135.86 26.57 137.5 26.57C139.54 26.57 141.23 26.27 142.58 25.67C143.545 25.2522 144.413 24.6393 145.13 23.87C144.438 23.0552 144.062 22.0189 144.07 20.95C144.055 20.1907 144.193 19.4362 144.477 18.7317C144.76 18.0272 145.183 17.3871 145.72 16.85C145.383 16.39 144.966 15.9939 144.49 15.68C143.839 15.245 143.133 14.8986 142.39 14.65C141.62 14.38 140.84 14.18 140.05 14.03L137.92 13.61C137.39 13.5109 136.873 13.3498 136.38 13.13C135.98 12.93 135.79 12.65 135.79 12.32C135.79 12.09 135.87 11.89 136.01 11.7C136.18 11.51 136.45 11.36 136.83 11.25C137.323 11.1238 137.831 11.0666 138.34 11.08C139.2 11.08 140.08 11.2 140.98 11.45C141.9 11.69 142.84 12.05 143.81 12.55L145.81 7.75003C144.722 7.14441 143.549 6.70616 142.33 6.45003C141.03 6.17003 139.73 6.03003 138.4 6.03003C136.38 6.03003 134.69 6.33003 133.32 6.93003C132.094 7.43053 131.034 8.26565 130.26 9.34003C129.59 10.34 129.26 11.44 129.26 12.65C129.26 13.7 129.46 14.58 129.84 15.29C130.24 15.99 130.75 16.54 131.39 16.97C132.053 17.4052 132.769 17.7546 133.52 18.01C134.3 18.27 135.08 18.49 135.85 18.66C136.61 18.81 137.31 18.96 137.95 19.11C138.6 19.24 139.13 19.41 139.52 19.61C139.92 19.81 140.11 20.1 140.11 20.45C140.113 20.562 140.092 20.6732 140.049 20.7766C140.006 20.8799 139.941 20.9731 139.86 21.05C139.69 21.19 139.42 21.31 139.04 21.41C137.415 21.6031 135.768 21.4808 134.19 21.05C133.104 20.7322 132.06 20.2857 131.08 19.72L128.95 24.55C129.94 25.15 131.2 25.63 132.73 26.01V26ZM52.73 26.12V11.62H46.98V6.48003H65.1V11.62H59.35V26.12H52.73ZM63.7 26.12L72.28 6.48003H78.79L87.38 26.12H80.53L79.22 22.7H71.75L70.43 26.12H63.7ZM75.48 12.98L77.38 17.93H73.58L75.48 12.98ZM88.43 6.48003V26.12H95.05V21.18H96.85L100.19 26.12H107.25L103.13 20.08C104.181 19.5653 105.08 18.7866 105.74 17.82C106.491 16.6494 106.874 15.2805 106.84 13.89C106.84 12.37 106.47 11.06 105.74 9.96003C104.98 8.8122 103.898 7.91458 102.63 7.38003C101.3 6.78003 99.72 6.48003 97.89 6.48003H88.43ZM95.05 16.18H97.47C98.38 16.18 99.05 15.98 99.48 15.58C99.93 15.16 100.16 14.6 100.16 13.88C100.16 13.18 99.93 12.62 99.48 12.21C99.05 11.79 98.38 11.59 97.46 11.59H95.06V16.19L95.05 16.18ZM109.33 26.12V6.48003H118.79C120.62 6.48003 122.2 6.78003 123.53 7.38003C124.798 7.91458 125.88 8.8122 126.64 9.96003C127.391 11.1307 127.774 12.4995 127.74 13.89C127.772 15.2802 127.389 16.6484 126.64 17.82C125.87 18.9581 124.791 19.8531 123.53 20.4C122.2 21 120.62 21.3 118.79 21.3H115.95V26.12H109.33ZM118.37 16.19H115.95V11.59H118.37C119.28 11.59 119.96 11.79 120.39 12.21C120.83 12.61 121.06 13.18 121.06 13.89C121.06 14.59 120.83 15.16 120.39 15.57C119.96 15.98 119.29 16.19 118.37 16.19ZM163.9 26.12H170.16L171.47 22.7H178.94L180.26 26.12H187.1L178.52 6.48003H172.02L165.45 21.48L166.9 22.72L163.9 26.12ZM175.2 12.98L177.11 17.93H173.31L175.21 12.98H175.2ZM188.16 26.12V6.48003H194.78V20.98H203.64V26.12H188.16ZM205.47 6.48003V26.12H220.96V20.98H212.09V6.48003H205.47Z" fill="black"></path><path d="M153.56 26.64C152.127 26.663 150.702 26.4153 149.36 25.91C148.232 25.4835 147.229 24.7823 146.44 23.87C145.745 23.0566 145.365 22.0202 145.37 20.95C145.37 19.86 145.6 18.91 146.07 18.09C146.624 17.1768 147.384 16.4061 148.29 15.84C149.29 15.17 150.57 14.54 152.1 13.96C153.04 13.61 153.77 13.28 154.3 12.98C154.83 12.68 155.22 12.4 155.44 12.14C155.66 11.86 155.78 11.59 155.78 11.33C155.78 11.03 155.68 10.78 155.47 10.6C155.28 10.41 154.99 10.32 154.6 10.32C154.17 10.32 153.83 10.42 153.59 10.65C153.37 10.85 153.25 11.12 153.25 11.44C153.25 11.64 153.3 11.85 153.39 12.06C153.51 12.26 153.71 12.51 154.01 12.81C154.31 13.09 154.73 13.47 155.27 13.94L165.59 22.72L162.2 26.56L150.3 16.35C149.726 15.884 149.203 15.3577 148.74 14.78C148.354 14.2842 148.04 13.7352 147.81 13.15C147.61 12.61 147.51 12.07 147.51 11.52C147.51 10.48 147.79 9.56005 148.37 8.77005C148.97 7.97005 149.79 7.34004 150.84 6.89004C152.026 6.42004 153.295 6.19224 154.57 6.22004C155.88 6.22004 157.02 6.42005 157.99 6.84005C158.97 7.24005 159.72 7.80005 160.26 8.55005C160.81 9.30005 161.08 10.18 161.08 11.19C161.08 12.09 160.84 12.89 160.38 13.63C159.842 14.4454 159.123 15.1263 158.28 15.62C157.34 16.22 156.15 16.79 154.71 17.33C153.96 17.61 153.36 17.9 152.89 18.2C152.42 18.5 152.09 18.82 151.88 19.15C151.68 19.47 151.57 19.84 151.57 20.25C151.57 20.55 151.67 20.83 151.85 21.09C152.05 21.35 152.34 21.56 152.69 21.71C153.07 21.86 153.51 21.93 154.04 21.93C155.04 21.93 155.99 21.67 156.87 21.14C157.809 20.5586 158.597 19.7637 159.17 18.82C159.861 17.7176 160.321 16.4859 160.52 15.2L165.59 16.71C165.192 18.5747 164.39 20.3293 163.24 21.85C162.12 23.3572 160.659 24.5777 158.976 25.412C157.294 26.2463 155.438 26.6705 153.56 26.65V26.64Z" fill="#B8231B"></path></g></g><defs><clipPath id="clip0_15617_378"><rect width="220" height="33" fill="white"></rect></clipPath></defs></svg> 