<?xml version="1.0" encoding="UTF-8"?> <svg xmlns="http://www.w3.org/2000/svg" width="83" height="63" viewBox="0 0 83 63" fill="none"><path d="M36.4325 11.4842H62.9037C64.9783 11.4842 66.6631 9.86382 66.6631 7.8615C66.6631 5.86235 64.9783 4.23882 62.9037 4.23882H36.4325C34.358 4.23882 32.6732 5.86235 32.6732 7.8615C32.6732 9.86382 34.358 11.4842 36.4325 11.4842ZM36.4325 6.48628H62.9037C63.6932 6.48628 64.3308 7.10385 64.3308 7.86468C64.3308 8.62233 63.6932 9.2399 62.9037 9.2399H36.4325C35.643 9.2399 35.0054 8.62233 35.0054 7.86468C35.0054 7.10385 35.643 6.48628 36.4325 6.48628ZM17.4044 11.5192C18.9174 11.5192 20.2784 10.6406 20.8565 9.29401C21.4346 7.95065 21.1175 6.4003 20.0472 5.37208C18.9801 4.34069 17.3713 4.03508 15.9772 4.59215C14.5799 5.14924 13.6681 6.46083 13.6681 7.91876C13.6714 9.9052 15.343 11.516 17.4044 11.5192ZM17.4044 6.56272C17.9759 6.56272 18.4913 6.89379 18.7093 7.39991C18.9273 7.90925 18.8051 8.49177 18.4021 8.88018C17.999 9.26855 17.3945 9.38633 16.8659 9.17623C16.3407 8.96613 15.9972 8.46952 15.9972 7.92195C15.9972 7.17067 16.628 6.56272 17.4044 6.56272ZM8.41547 11.5192C9.92521 11.5192 11.2895 10.6406 11.8676 9.29401C12.4457 7.95065 12.1253 6.4003 11.0582 5.37208C9.98793 4.34069 8.38238 4.03508 6.98503 4.59215C5.58769 5.14923 4.67916 6.46083 4.67916 7.91876C4.67916 9.9052 6.35079 11.516 8.41547 11.5192ZM8.41547 6.56272C8.98368 6.56272 9.49898 6.89379 9.71708 7.39991C9.93511 7.90925 9.81619 8.49177 9.40986 8.88018C9.00683 9.26855 8.4023 9.38633 7.87703 9.17623C7.34847 8.96613 7.00495 8.46952 7.00495 7.92195C7.00495 7.17067 7.63582 6.56272 8.41547 6.56272ZM26.3967 11.5192C27.9064 11.5192 29.2707 10.6406 29.8488 9.29401C30.4269 7.95065 30.1065 6.4003 29.0394 5.37208C27.9691 4.34069 26.3636 4.03508 24.9662 4.59215C23.5722 5.14924 22.6604 6.46083 22.6604 7.91876C22.6637 9.9052 24.3353 11.516 26.3967 11.5192ZM26.3967 6.56272C26.9649 6.56272 27.4802 6.89379 27.6983 7.39991C27.9163 7.90925 27.7974 8.49177 27.3944 8.88018C26.9913 9.26855 26.3835 9.38633 25.8582 9.17623C25.3297 8.96613 24.9862 8.46952 24.9862 7.92195C24.9862 7.17067 25.617 6.56272 26.3967 6.56272ZM45.6532 40.9688C45.6532 41.5896 45.1312 42.0894 44.487 42.0926H10.2727C9.63183 42.0926 9.10987 41.5896 9.10987 40.9688C9.10987 40.3481 9.63183 39.8451 10.2727 39.8451H44.487C45.1312 39.8451 45.6532 40.3481 45.6532 40.9688ZM43.7339 48.3862C43.7339 49.0069 43.2152 49.5067 42.571 49.5067H10.273C9.63216 49.5067 9.11021 49.0069 9.11021 48.3862C9.11021 47.7654 9.63216 47.2624 10.273 47.2624H42.571C42.8783 47.2624 43.1756 47.3802 43.3936 47.5903C43.6116 47.8004 43.7339 48.0869 43.7339 48.3862ZM81.0569 43.6939L79.8677 43.331C79.5439 42.1022 79.0352 40.9243 78.3646 39.8324L78.9427 38.7596C79.3458 38.0083 79.1971 37.0947 78.576 36.4994L76.9606 34.9427H76.9639C76.3428 34.3442 75.3914 34.2042 74.6152 34.5957L73.5085 35.1496C73.4523 35.1178 73.3962 35.0892 73.3433 35.0605C73.8091 34.9013 74.1229 34.478 74.1229 34.0004V7.23433C74.1163 3.37923 70.8756 0.256357 66.8751 0.25H7.49787C3.4973 0.256366 0.253298 3.37923 0.25 7.23433V53.0082C0.253304 56.8633 3.4973 59.9894 7.49787 59.9926H63.1354L63.3798 60.7343C63.6408 61.5397 64.4172 62.0873 65.2959 62.084H67.5786C68.4573 62.084 69.2336 61.5333 69.4946 60.7247L69.8712 59.5787C71.1463 59.2667 72.3686 58.7797 73.5017 58.1303L74.6183 58.6938C75.3979 59.0853 76.3494 58.9452 76.9671 58.3436L78.5825 56.7869C79.2069 56.1916 79.3522 55.2716 78.9459 54.5235L78.3711 53.4603H78.3678C79.0417 52.3684 79.5471 51.1905 79.8708 49.9617L81.0667 49.5956L81.07 49.5924C81.9058 49.3378 82.4707 48.5928 82.4707 47.7461V45.5464C82.474 44.6964 81.8992 43.9452 81.0535 43.6937L81.0569 43.6939ZM7.49823 2.49752H66.872C69.5875 2.50071 71.7876 4.61769 71.7909 7.2344V13.2287H2.57915V7.2344C2.58245 4.61769 4.78278 2.49752 7.49823 2.49752ZM2.57932 53.0079V15.4755H71.7911V33.9993C71.7911 34.1139 71.8109 34.2317 71.8473 34.3399C71.2064 34.0789 70.5457 33.8656 69.8718 33.7L69.4919 32.5476C69.2276 31.7422 68.4513 31.1946 67.5759 31.1979H65.2932C64.4144 31.1947 63.6349 31.7454 63.3772 32.5572L63.0006 33.7032C61.7221 34.0152 60.4999 34.5022 59.37 35.1516L58.2567 34.5977L58.2534 34.5945C57.4771 34.2061 56.5257 34.3494 55.908 34.9479L54.2925 36.5046H54.2958C53.6715 37.0999 53.5261 38.0167 53.9324 38.7679L54.5106 39.8248C53.8399 40.9167 53.3312 42.0946 53.0075 43.3266L51.8116 43.6927C50.9758 43.9473 50.4076 44.6955 50.411 45.539V47.7355C50.4077 48.5823 50.9792 49.3336 51.8216 49.5851L53.0108 49.948L53.0075 49.9448C53.3312 51.1767 53.8367 52.3546 54.5106 53.4465L53.9324 54.5225H53.9357C53.5294 55.2706 53.6781 56.1842 54.2991 56.7795L55.3034 57.744L7.49872 57.7472C4.78327 57.744 2.58262 55.6246 2.57932 53.0079ZM80.1322 47.5165L78.5234 48.01C78.1204 48.1341 77.8198 48.4588 77.7372 48.8568C77.4432 50.2575 76.8684 51.5913 76.0458 52.7787C75.8113 53.1193 75.7848 53.5586 75.983 53.9215L76.7594 55.3572L75.4776 56.5923L73.9779 55.8474L73.9746 55.8442C73.6013 55.6596 73.1487 55.6819 72.7986 55.9079C71.5631 56.6974 70.1788 57.2481 68.7253 57.5314C68.3091 57.611 67.9722 57.9039 67.8433 58.2923L67.3378 59.833H65.5275L65.0155 58.2827C64.8867 57.8943 64.553 57.6047 64.1367 57.5251C62.6832 57.2417 61.299 56.6879 60.0668 55.8952C59.7133 55.666 59.2575 55.6437 58.8809 55.8347L57.391 56.5828L56.1093 55.354L56.8823 53.912V53.9088C57.0772 53.5459 57.0541 53.1129 56.8195 52.7723C55.997 51.5818 55.4255 50.2479 55.1348 48.8472C55.0522 48.4493 54.7482 48.1214 54.3419 48.0004L52.7397 47.5134V45.7657L54.3485 45.2723C54.7515 45.1481 55.0522 44.8234 55.1347 44.4255C55.4288 43.0216 56.0035 41.6909 56.8261 40.5004C57.0607 40.1598 57.0871 39.7236 56.8889 39.3608L56.1093 37.9251L57.3943 36.6899L58.8908 37.4348H58.8941C59.2707 37.6227 59.7199 37.6004 60.0734 37.3744C61.3089 36.5849 62.6898 36.0342 64.1466 35.7508C64.5629 35.6712 64.8998 35.3784 65.0254 34.9868L65.5308 33.4461H67.3444L67.8565 34.9963V34.9995C67.9853 35.3879 68.3222 35.6776 68.7352 35.7572C70.1921 36.0405 71.573 36.5944 72.8084 37.3871C73.1619 37.6131 73.6145 37.6354 73.991 37.4476L75.4809 36.6995L76.7659 37.9378L75.9929 39.3798H75.9896C75.7947 39.7427 75.8212 40.1788 76.0524 40.5163C76.875 41.7068 77.4464 43.0407 77.7372 44.4414C77.8198 44.8425 78.1237 45.1672 78.53 45.2882L80.1289 45.7752L80.1322 47.5165ZM60.4926 40.9142C58.0876 43.2285 57.3708 46.7143 58.6691 49.7417C59.9707 52.7659 63.0364 54.7396 66.4357 54.7396C69.8349 54.7396 72.9006 52.7659 74.2022 49.7417C75.5038 46.7143 74.7836 43.2285 72.3787 40.9142C69.095 37.7563 63.7764 37.7563 60.4926 40.9142ZM70.7331 50.7824C68.9988 52.4568 66.3858 52.9566 64.1162 52.0493C61.8467 51.1421 60.3701 49.0092 60.3701 46.644C60.3701 44.2756 61.8467 42.1427 64.1162 41.2354C66.3858 40.3313 68.9988 40.8311 70.7331 42.5024C73.1018 44.7913 73.0985 48.4936 70.7331 50.779V50.7824ZM13.4237 27.5751C12.9711 27.1358 12.9711 26.4259 13.4237 25.9866L19.1486 20.4699C19.6078 20.0528 20.3279 20.0624 20.774 20.4921C21.2232 20.9219 21.2299 21.6159 20.7971 22.0584L15.898 26.7794L20.4436 31.1661C20.8764 31.6086 20.8697 32.3025 20.4205 32.7323C19.9745 33.1621 19.2543 33.1716 18.7951 32.7546L13.4237 27.5751ZM33.8456 22.0583C33.4128 21.6159 33.4227 20.9219 33.8687 20.4921C34.3147 20.0624 35.0348 20.0528 35.494 20.4698L41.219 25.9866H41.2157C41.437 26.1967 41.5592 26.4832 41.5592 26.7793C41.5592 27.0785 41.437 27.365 41.2157 27.5751L35.8441 32.7513L35.8474 32.7481C35.3883 33.1492 34.6846 33.1301 34.2453 32.7099C33.8059 32.2865 33.7861 31.6116 34.199 31.166L38.7446 26.7857L33.8456 22.0583ZM22.657 32.726L29.5811 19.4261V19.4229C29.8785 18.8849 30.5656 18.6716 31.1338 18.9454C31.6987 19.2192 31.9332 19.8781 31.6623 20.432L24.7382 33.7319C24.6027 34.0057 24.3616 34.2126 24.0643 34.3113C23.767 34.41 23.4432 34.3909 23.1624 34.254C22.8816 34.1203 22.6702 33.8815 22.5744 33.5919C22.4786 33.3054 22.5083 32.9902 22.657 32.726Z" fill="#FC766A"></path><path d="M17.4044 6.5659V6.56271M17.4044 6.56271C17.9759 6.56271 18.4913 6.89379 18.7093 7.39991C18.9273 7.90925 18.8051 8.49177 18.4021 8.88018C17.999 9.26855 17.3945 9.38633 16.8659 9.17623C16.3407 8.96613 15.9972 8.46952 15.9972 7.92195C15.9972 7.17067 16.628 6.56271 17.4044 6.56271ZM8.41547 6.5659V6.56271M8.41547 6.56271C8.98368 6.56271 9.49898 6.89379 9.71708 7.39991C9.93511 7.90925 9.81619 8.49177 9.40986 8.88018C9.00683 9.26855 8.4023 9.38633 7.87703 9.17623C7.34847 8.96613 7.00495 8.46952 7.00495 7.92195C7.00495 7.17067 7.63582 6.56271 8.41547 6.56271ZM26.3967 6.5659V6.56271M26.3967 6.56271C26.9649 6.56271 27.4802 6.89379 27.6983 7.39991C27.9163 7.90925 27.7974 8.49177 27.3944 8.88018C26.9913 9.26855 26.3835 9.38633 25.8582 9.17623C25.3297 8.96613 24.9862 8.46952 24.9862 7.92195C24.9862 7.17067 25.617 6.56271 26.3967 6.56271ZM43.7372 48.3862H43.7339M43.7339 48.3862C43.7339 49.0069 43.2152 49.5067 42.571 49.5067H10.273C9.63216 49.5067 9.11021 49.0069 9.11021 48.3862C9.11021 47.7654 9.63216 47.2624 10.273 47.2624H42.571C42.8783 47.2624 43.1756 47.3802 43.3936 47.5903C43.6116 47.8004 43.7339 48.0869 43.7339 48.3862ZM36.4325 11.4842H62.9037C64.9783 11.4842 66.6631 9.86382 66.6631 7.8615C66.6631 5.86235 64.9783 4.23882 62.9037 4.23882H36.4325C34.358 4.23882 32.6732 5.86235 32.6732 7.8615C32.6732 9.86382 34.358 11.4842 36.4325 11.4842ZM36.4325 6.48628H62.9037C63.6932 6.48628 64.3308 7.10385 64.3308 7.86468C64.3308 8.62233 63.6932 9.2399 62.9037 9.2399H36.4325C35.643 9.2399 35.0054 8.62233 35.0054 7.86468C35.0054 7.10385 35.643 6.48628 36.4325 6.48628ZM17.4044 11.5192C18.9174 11.5192 20.2784 10.6406 20.8565 9.29401C21.4346 7.95065 21.1175 6.4003 20.0472 5.37208C18.9801 4.34069 17.3713 4.03508 15.9772 4.59216C14.5799 5.14924 13.6681 6.46083 13.6681 7.91876C13.6714 9.9052 15.343 11.516 17.4044 11.5192ZM8.41547 11.5192C9.92521 11.5192 11.2895 10.6406 11.8676 9.29401C12.4457 7.95065 12.1253 6.4003 11.0582 5.37208C9.98793 4.34069 8.38238 4.03508 6.98504 4.59216C5.58769 5.14923 4.67916 6.46083 4.67916 7.91876C4.67916 9.9052 6.35079 11.516 8.41547 11.5192ZM26.3967 11.5192C27.9064 11.5192 29.2707 10.6406 29.8488 9.29401C30.4269 7.95065 30.1065 6.4003 29.0394 5.37208C27.9691 4.34069 26.3636 4.03508 24.9662 4.59216C23.5722 5.14924 22.6604 6.46083 22.6604 7.91876C22.6637 9.9052 24.3353 11.516 26.3967 11.5192ZM45.6532 40.9689C45.6532 41.5896 45.1312 42.0894 44.487 42.0926H10.2727C9.63183 42.0926 9.10987 41.5896 9.10987 40.9689C9.10987 40.3481 9.63183 39.8451 10.2727 39.8451H44.487C45.1312 39.8451 45.6532 40.3481 45.6532 40.9689ZM81.0569 43.6939L79.8677 43.331C79.5439 42.1022 79.0352 40.9243 78.3646 39.8324L78.9427 38.7596C79.3458 38.0083 79.1971 37.0947 78.5761 36.4994L76.9606 34.9427H76.9639C76.3428 34.3443 75.3914 34.2042 74.6152 34.5957L73.5085 35.1496C73.4523 35.1178 73.3962 35.0892 73.3433 35.0605C73.8091 34.9013 74.1229 34.4779 74.1229 34.0004V7.23433C74.1163 3.37923 70.8756 0.256357 66.8751 0.25H7.49787C3.4973 0.256366 0.253298 3.37923 0.25 7.23433V53.0082C0.253304 56.8633 3.4973 59.9894 7.49787 59.9926H63.1354L63.3798 60.7343C63.6408 61.5397 64.4172 62.0873 65.2959 62.084H67.5786C68.4573 62.084 69.2336 61.5333 69.4946 60.7247L69.8712 59.5787C71.1463 59.2667 72.3686 58.7797 73.5017 58.1303L74.6183 58.6938C75.3979 59.0853 76.3494 58.9452 76.9671 58.3436L78.5825 56.7869C79.2069 56.1916 79.3522 55.2716 78.9459 54.5235L78.3711 53.4603H78.3678C79.0417 52.3684 79.5471 51.1905 79.8708 49.9617L81.0667 49.5956L81.07 49.5924C81.9058 49.3378 82.4707 48.5928 82.4707 47.7461V45.5464C82.474 44.6964 81.8992 43.9452 81.0535 43.6937L81.0569 43.6939ZM7.49823 2.49752H66.872C69.5875 2.50071 71.7876 4.61769 71.7909 7.2344V13.2287H2.57915V7.2344C2.58245 4.61769 4.78278 2.49752 7.49823 2.49752ZM2.57932 53.0079V15.4755H71.7911V33.9993C71.7911 34.1139 71.8109 34.2317 71.8473 34.3399C71.2064 34.0789 70.5457 33.8656 69.8718 33.7L69.4919 32.5476C69.2276 31.7422 68.4513 31.1946 67.5759 31.1979H65.2932C64.4144 31.1947 63.6349 31.7454 63.3772 32.5572L63.0006 33.7032C61.7221 34.0152 60.4999 34.5022 59.37 35.1516L58.2567 34.5977L58.2534 34.5945C57.4771 34.2061 56.5257 34.3494 55.908 34.9479L54.2925 36.5046H54.2958C53.6715 37.0999 53.5261 38.0167 53.9324 38.7679L54.5106 39.8248C53.8399 40.9167 53.3312 42.0946 53.0075 43.3266L51.8116 43.6927C50.9758 43.9473 50.4076 44.6955 50.411 45.539V47.7355C50.4077 48.5823 50.9792 49.3336 51.8216 49.5851L53.0108 49.948L53.0075 49.9448C53.3312 51.1767 53.8367 52.3546 54.5106 53.4465L53.9324 54.5225H53.9357C53.5294 55.2706 53.6781 56.1842 54.2991 56.7795L55.3034 57.744L7.49872 57.7472C4.78327 57.744 2.58262 55.6246 2.57932 53.0079ZM80.1322 47.5165L78.5234 48.01C78.1204 48.1341 77.8198 48.4588 77.7372 48.8568C77.4432 50.2575 76.8684 51.5913 76.0458 52.7787C75.8113 53.1193 75.7848 53.5586 75.9831 53.9215L76.7594 55.3572L75.4776 56.5923L73.9779 55.8474L73.9746 55.8442C73.6013 55.6596 73.1487 55.6819 72.7986 55.9079C71.5631 56.6974 70.1788 57.2481 68.7253 57.5314C68.3091 57.611 67.9721 57.9039 67.8433 58.2923L67.3378 59.833H65.5275L65.0155 58.2827C64.8867 57.8943 64.553 57.6047 64.1367 57.5251C62.6832 57.2417 61.299 56.6879 60.0668 55.8952C59.7133 55.666 59.2575 55.6437 58.8809 55.8347L57.391 56.5828L56.1093 55.354L56.8823 53.912V53.9088C57.0772 53.5459 57.0541 53.1129 56.8196 52.7723C55.997 51.5818 55.4255 50.2479 55.1348 48.8472C55.0522 48.4493 54.7482 48.1214 54.3419 48.0004L52.7397 47.5134V45.7657L54.3485 45.2723C54.7515 45.1481 55.0522 44.8234 55.1347 44.4255C55.4288 43.0216 56.0035 41.6909 56.8261 40.5004C57.0607 40.1598 57.0871 39.7236 56.8889 39.3608L56.1093 37.9251L57.3943 36.6899L58.8908 37.4348H58.8941C59.2707 37.6227 59.7199 37.6004 60.0734 37.3744C61.3089 36.5849 62.6898 36.0342 64.1466 35.7508C64.5629 35.6712 64.8998 35.3784 65.0254 34.9868L65.5308 33.4461H67.3444L67.8565 34.9963V34.9995C67.9853 35.3879 68.3222 35.6776 68.7352 35.7572C70.1921 36.0405 71.573 36.5944 72.8084 37.3871C73.1619 37.6131 73.6145 37.6354 73.991 37.4476L75.4809 36.6995L76.7659 37.9378L75.9929 39.3798H75.9896C75.7947 39.7427 75.8212 40.1788 76.0524 40.5163C76.875 41.7068 77.4464 43.0407 77.7372 44.4414C77.8198 44.8425 78.1237 45.1672 78.53 45.2882L80.1289 45.7752L80.1322 47.5165ZM60.4926 40.9142C58.0876 43.2285 57.3708 46.7143 58.6691 49.7417C59.9707 52.7658 63.0364 54.7396 66.4357 54.7396C69.8349 54.7396 72.9006 52.7658 74.2022 49.7417C75.5038 46.7143 74.7836 43.2285 72.3787 40.9142C69.095 37.7563 63.7764 37.7563 60.4926 40.9142ZM70.7331 50.7824C68.9988 52.4568 66.3858 52.9566 64.1162 52.0493C61.8467 51.1421 60.3701 49.0092 60.3701 46.644C60.3701 44.2756 61.8467 42.1427 64.1162 41.2354C66.3858 40.3313 68.9988 40.8311 70.7331 42.5024C73.1018 44.7913 73.0985 48.4936 70.7331 50.779V50.7824ZM13.4237 27.5751C12.9711 27.1358 12.9711 26.4259 13.4237 25.9866L19.1486 20.4699C19.6078 20.0528 20.328 20.0624 20.774 20.4921C21.2232 20.9219 21.2299 21.6159 20.7971 22.0584L15.898 26.7794L20.4436 31.1661C20.8764 31.6086 20.8697 32.3025 20.4205 32.7323C19.9745 33.1621 19.2543 33.1716 18.7951 32.7546L13.4237 27.5751ZM33.8456 22.0584C33.4128 21.6159 33.4227 20.9219 33.8687 20.4921C34.3147 20.0624 35.0348 20.0528 35.494 20.4698L41.219 25.9866H41.2157C41.437 26.1967 41.5592 26.4832 41.5592 26.7793C41.5592 27.0785 41.437 27.365 41.2157 27.5751L35.8441 32.7513L35.8474 32.7481C35.3883 33.1492 34.6846 33.1301 34.2453 32.7099C33.8059 32.2866 33.7861 31.6116 34.199 31.166L38.7446 26.7857L33.8456 22.0584ZM22.657 32.726L29.5811 19.4261V19.4229C29.8785 18.8849 30.5656 18.6716 31.1338 18.9454C31.6987 19.2192 31.9332 19.8781 31.6623 20.432L24.7382 33.7319C24.6027 34.0057 24.3616 34.2126 24.0643 34.3113C23.767 34.41 23.4432 34.3909 23.1624 34.254C22.8816 34.1203 22.6702 33.8815 22.5744 33.5919C22.4786 33.3054 22.5083 32.9902 22.657 32.726Z" stroke="white" stroke-width="0.5"></path></svg> 