<?xml version="1.0" encoding="UTF-8"?> <svg xmlns="http://www.w3.org/2000/svg" width="76" height="72" viewBox="0 0 76 72" fill="none"><path d="M70.5723 7.71243e-05H5.42766C2.43631 7.71243e-05 0 2.42144 0 5.40085V50.0472C0 53.0202 2.43631 55.4416 5.42766 55.4416L27.4256 55.4448L25.2281 63.5813H21.6752C19.965 63.5813 18.5677 64.9604 18.5677 66.6698V68.9116C18.5677 70.6113 19.9553 72 21.6752 72H54.3314C56.0416 72 57.4389 70.6209 57.4389 68.9116V66.6698C57.4389 64.97 56.0513 63.5813 54.3314 63.5813H50.7785L48.581 55.4448H70.5723C73.5637 55.4448 76 53.0235 76 50.0504V5.40077C76 2.42136 73.5637 7.71243e-05 70.5723 7.71243e-05ZM5.42766 1.5427H70.5723C72.7117 1.5427 74.4479 3.27456 74.4479 5.39444V46.6993H1.55198V5.40101C1.55198 3.27473 3.28825 1.5427 5.42766 1.5427ZM55.877 66.6596V68.9015C55.877 69.7546 55.1832 70.4441 54.3249 70.4441H21.6687C20.8103 70.4441 20.1165 69.7545 20.1165 68.9015V66.6596C20.1165 65.8065 20.8103 65.117 21.6687 65.117H54.3249C55.1833 65.1234 55.877 65.813 55.877 66.6596ZM49.1683 63.5808H26.8316L29.0292 55.4443H46.971L49.1683 63.5808ZM70.5723 53.8985H5.42758C3.28817 53.8985 1.55206 52.1666 1.55206 50.0467V48.2476H74.4446V50.0467C74.4479 52.1666 72.7117 53.8985 70.5723 53.8985ZM33.9434 22.0034C42.9238 18.1292 50.7296 13.1134 57.164 7.07721L54.2727 6.92968C53.8435 6.90402 53.5111 6.54483 53.5369 6.11828C53.5628 5.69173 53.9242 5.3614 54.3533 5.38706L59.0292 5.62439C59.2357 5.63401 59.4261 5.7238 59.5648 5.87775C59.7068 6.02528 59.7714 6.23053 59.7617 6.43579L59.5229 11.0829C59.4971 11.5095 59.1357 11.8398 58.7065 11.8142C58.2773 11.7885 57.9449 11.4293 57.9708 11.0028L58.1127 8.30882C51.5685 14.4184 43.6562 19.4985 34.5692 23.414C25.4822 27.3299 18.4604 28.6512 17.1469 28.8725C17.105 28.8821 17.0566 28.8821 17.0146 28.8821C16.6435 28.8821 16.3111 28.6191 16.2531 28.2407C16.1788 27.8205 16.4693 27.4197 16.8888 27.3555C18.1634 27.1407 25.0206 25.8519 33.9434 22.0034ZM16.0503 15.4416C16.2987 15.4897 16.7344 15.6212 16.8764 15.958C17.0183 16.2947 16.7925 16.6956 16.6537 16.9105C16.2891 17.4429 16.3149 18.1325 16.7183 18.636C17.1474 19.1684 17.6347 19.6623 18.1736 20.0824C18.677 20.4833 19.3804 20.5089 19.9161 20.1465C20.2808 19.9092 20.6261 19.8258 20.8746 19.9252C21.123 20.0247 21.3134 20.3261 21.3941 20.7559C21.5167 21.3877 22.0298 21.8656 22.6752 21.9393C23.014 21.981 23.3593 21.997 23.7078 21.997C24.0563 21.997 24.3919 21.981 24.7404 21.9393C25.3858 21.8655 25.8956 21.3877 26.0215 20.7559C26.1054 20.3293 26.2926 20.0246 26.5411 19.9252C26.7895 19.8258 27.1348 19.8996 27.4995 20.1465C28.0352 20.5089 28.7386 20.4833 29.2421 20.0824C29.7777 19.6558 30.265 19.1715 30.6974 18.636C31.0943 18.1357 31.1266 17.4366 30.7619 16.9105C30.6199 16.6956 30.3973 16.2948 30.5393 15.958C30.6393 15.711 30.9426 15.5218 31.3653 15.4416C32.001 15.3198 32.4721 14.8098 32.5464 14.1684C32.6206 13.4949 32.6206 12.815 32.5464 12.1479C32.4722 11.5065 32.0011 10.9998 31.3653 10.8747C31.1169 10.8266 30.6812 10.6951 30.5393 10.3583C30.4392 10.1114 30.5134 9.76823 30.7619 9.40579C31.1266 8.8734 31.1007 8.18386 30.6974 7.68033C30.2682 7.14794 29.7809 6.65405 29.2421 6.23393C28.7386 5.83304 28.0352 5.80738 27.4995 6.16979C27.1348 6.41673 26.7896 6.4905 26.5411 6.39108C26.2926 6.29166 26.1022 5.99019 26.0215 5.56045C25.8989 4.92865 25.3858 4.45075 24.7404 4.37703C24.0563 4.29364 23.3689 4.29364 22.6849 4.37703C22.0395 4.45079 21.5297 4.92865 21.4038 5.56045C21.3199 5.987 21.1327 6.29167 20.8842 6.39108C20.6358 6.4905 20.2905 6.41673 19.9258 6.16979C19.3901 5.80738 18.6867 5.83304 18.1832 6.23393C17.6476 6.66048 17.1603 7.14477 16.7279 7.68033C16.331 8.18064 16.2987 8.87976 16.6634 9.40579C16.9022 9.76819 16.9861 10.1113 16.886 10.3583C16.744 10.6951 16.3084 10.8266 16.0599 10.8747C15.4242 10.9966 14.9531 11.5065 14.8789 12.1479C14.8047 12.8214 14.8047 13.5013 14.8789 14.1684C14.9434 14.8098 15.4242 15.3197 16.0503 15.4416ZM16.4052 12.3788C17.3314 12.1832 18.009 11.6796 18.3124 10.9516C18.6189 10.2204 18.4931 9.39299 17.9735 8.59438C18.3027 8.18387 18.6835 7.80542 19.0965 7.47828C19.8903 7.99463 20.7326 8.1197 21.4683 7.81503C22.204 7.51036 22.7074 6.83686 22.9043 5.91001C23.4335 5.85228 23.9627 5.85228 24.492 5.91001C24.6823 6.83686 25.1954 7.51035 25.928 7.81503C26.6637 8.1197 27.4962 7.99463 28.2997 7.47828C28.7128 7.80541 29.0936 8.18385 29.4227 8.59438C28.9032 9.38333 28.7773 10.2204 29.0839 10.9516C29.3905 11.6828 30.0681 12.1832 30.991 12.3788C31.0491 12.8951 31.0491 13.4211 30.991 13.9374C30.0649 14.1331 29.3872 14.6366 29.0839 15.3646C28.7773 16.0958 28.9032 16.9232 29.4227 17.7219C29.0936 18.1324 28.7128 18.5108 28.2997 18.8379C27.5059 18.3216 26.6637 18.1965 25.928 18.5012C25.1922 18.8059 24.6888 19.4794 24.492 20.4062C23.9627 20.4639 23.4336 20.4639 22.9043 20.4062C22.7139 19.4794 22.2008 18.8059 21.4683 18.5012C20.7326 18.1965 19.9001 18.3216 19.0965 18.8379C18.6835 18.5108 18.3027 18.1324 17.9735 17.7219C18.4931 16.9329 18.6189 16.0958 18.3124 15.3646C18.0058 14.6334 17.3281 14.1331 16.4052 13.9374C16.3472 13.4243 16.3472 12.8983 16.4052 12.3788ZM23.7013 17.4781C26.0956 17.4781 28.0479 15.541 28.0479 13.1581C28.0479 10.7785 26.0988 8.83814 23.7013 8.83814C21.3069 8.83814 19.3546 10.7753 19.3546 13.1581C19.3546 15.541 21.3037 17.4781 23.7013 17.4781ZM23.7013 10.384C25.2373 10.384 26.4926 11.6315 26.4926 13.1581C26.4926 14.6847 25.2373 15.9323 23.7013 15.9323C22.1652 15.9323 20.91 14.6847 20.91 13.1581C20.9068 11.6315 22.1556 10.384 23.7013 10.384ZM12.0683 43.9145H63.922C64.3512 43.9145 64.6997 43.5682 64.6997 43.1416C64.6997 42.7151 64.3512 42.3687 63.922 42.3687H61.1791V19.9351C61.1791 18.7291 60.1885 17.751 58.9815 17.751H53.4474C52.234 17.751 51.2498 18.7356 51.2498 19.9351V42.3818H49.0426V25.6346C49.0426 24.4287 48.0519 23.4505 46.845 23.4505L41.3044 23.4473C40.0911 23.4473 39.1069 24.4319 39.1069 25.6314V42.3786H36.8996L36.9029 31.3203C36.9029 30.1143 35.9122 29.1362 34.7053 29.1362H29.1712C27.9578 29.1362 26.9736 30.1208 26.9736 31.3203V42.3786H24.7664V37.0164C24.7664 35.8104 23.7757 34.8323 22.5688 34.8323H17.0346C15.8213 34.8323 14.8371 35.8168 14.8371 37.0164V42.3786H12.0942C11.665 42.3786 11.3165 42.725 11.3165 43.1515C11.2939 43.5717 11.6391 43.9145 12.0683 43.9145ZM52.7954 19.9349C52.7954 19.5821 53.0858 19.2871 53.4472 19.2871H58.9813C59.3363 19.2871 59.6332 19.5757 59.6332 19.9349V42.3817H52.7921L52.7954 19.9349ZM40.6527 25.6244C40.6527 25.2716 40.9431 24.9765 41.3045 24.9765H46.8386C47.1936 24.9765 47.4905 25.2652 47.4905 25.6244V42.3716H40.6494L40.6527 25.6244ZM28.5099 31.3202C28.5099 30.9674 28.8004 30.6724 29.1618 30.6724H34.6959C35.0509 30.6724 35.3478 30.961 35.3478 31.3202V42.3786H28.5067L28.5099 31.3202ZM16.3639 37.0096C16.3639 36.6569 16.6544 36.3618 17.0158 36.3618H22.5499C22.9049 36.3618 23.2018 36.6504 23.2018 37.0096V42.3719H16.3607L16.3639 37.0096Z" fill="#FC766A"></path></svg> 