<?xml version="1.0" encoding="UTF-8"?> <svg xmlns="http://www.w3.org/2000/svg" width="64" height="61" viewBox="0 0 64 61" fill="none"><path d="M58.789 0.149902H4.66008C2.16853 0.149902 0.148438 2.17711 0.148438 4.67745V41.3157C0.148438 43.816 2.16853 45.8432 4.66008 45.8432H23.8934V51.702H21.9144C19.8641 51.702 18.1949 53.3772 18.1949 55.4347V57.8085C18.1949 59.0132 19.1707 59.998 20.3767 59.998H43.0777C44.2783 59.998 45.2596 59.0188 45.2596 57.8085V55.4347C45.2596 53.3772 43.5903 51.702 41.5401 51.702H39.5611L39.5638 45.8405H58.7971C61.2887 45.8405 63.3088 43.8133 63.3088 41.3129V4.67752C63.3005 2.17718 61.2806 0.149902 58.789 0.149902ZM4.66008 1.44542H58.789C60.5652 1.44542 62.0096 2.89501 62.0096 4.67738V38.2018H1.4399V4.67738C1.4399 2.89501 2.88397 1.44542 4.66008 1.44542ZM43.9687 55.4321V57.8059C43.9687 58.2982 43.5685 58.6998 43.0779 58.6998H20.3719C19.8813 58.6998 19.4811 58.2982 19.4811 57.8059V55.4321C19.4811 54.087 20.5693 52.995 21.9096 52.995H41.5351C42.8755 52.995 43.9687 54.087 43.9687 55.4321ZM38.2647 51.6994H25.1845V45.8406H38.2696V51.6994H38.2647ZM58.7891 44.5452H4.66015C2.88404 44.5452 1.43954 43.0956 1.43954 41.3132V39.4978H62.0149V41.3132C62.0094 43.0956 60.5653 44.5452 58.7891 44.5452ZM39.038 26.9411V25.6456C39.038 25.2853 39.3258 24.9965 39.6849 24.9965H44.8982C45.2573 24.9965 45.5451 25.2853 45.5451 25.6456V26.9411C45.5451 27.3015 45.2573 27.5903 44.8982 27.5903H39.6849C39.323 27.5903 39.038 27.2932 39.038 26.9411ZM15.537 27.1887H16.0633C16.1126 27.1887 16.1483 27.2162 16.1675 27.2657C16.3018 27.6893 16.4772 28.1046 16.6718 28.498C16.6937 28.5475 16.6855 28.5888 16.6499 28.6245L16.2771 28.9986C15.7289 29.5487 15.7289 30.4345 16.2771 30.9846L17.7216 32.4341C18.2698 32.9843 19.1524 32.9843 19.7006 32.4341L20.0733 32.0601C20.109 32.0243 20.1501 32.0188 20.1994 32.038C20.5914 32.2416 21.0052 32.4121 21.4274 32.5442C21.4767 32.5579 21.5041 32.5937 21.5041 32.6487V33.1768C21.5041 33.9525 22.1291 34.5769 22.8993 34.5769H24.9413C25.7143 34.5769 26.3365 33.9498 26.3365 33.1768V32.6487C26.3365 32.5992 26.3639 32.5634 26.4133 32.5442C26.8354 32.4094 27.2493 32.2333 27.6412 32.038C27.6906 32.016 27.7317 32.0243 27.7673 32.0601L28.1401 32.4341C28.6883 32.9843 29.5709 32.9843 30.119 32.4341L31.3388 31.2101H45.3452C47.5407 31.2101 49.3251 29.4222 49.3251 27.2162L49.3306 9.06499C49.3306 6.86174 47.5489 5.07106 45.3507 5.07106H27.2492C25.0537 5.07106 23.2693 6.859 23.2693 9.06499V14.9514H22.8911C22.1181 14.9514 21.4959 15.5785 21.4959 16.3514V16.8796C21.4959 16.9291 21.4685 16.9648 21.4191 16.9841C20.997 17.1189 20.5832 17.2949 20.1912 17.4902C20.1419 17.5122 20.1007 17.504 20.0651 17.4682L19.6923 17.0941C19.1441 16.544 18.2615 16.544 17.7134 17.0941L16.2689 18.5437C15.7207 19.0938 15.7207 19.9796 16.2689 20.5297L16.6416 20.9037C16.6773 20.9395 16.6828 20.9808 16.6636 21.0303C16.4607 21.4236 16.2908 21.8389 16.1592 22.2625C16.1455 22.3121 16.1099 22.3396 16.0551 22.3396H15.5288C14.7558 22.3396 14.1336 22.9667 14.1336 23.7397V25.7889C14.1419 26.5619 14.7641 27.1887 15.537 27.1887ZM33.0792 6.35818H39.4986V13.8237C39.4986 13.832 39.4986 13.8375 39.4849 13.8457C39.4712 13.854 39.4712 13.854 39.4629 13.8457L37.3222 12.2833C36.7055 11.8322 35.8695 11.8322 35.2528 12.2833L33.1121 13.8457C33.1039 13.854 33.0984 13.854 33.0902 13.8457C33.0765 13.8375 33.0765 13.832 33.0765 13.8237L33.0792 6.35818ZM24.56 9.06484C24.56 7.57948 25.7661 6.36924 27.2462 6.36924H31.7853V13.8348C31.7853 14.3354 32.0594 14.7865 32.5006 15.012C32.6898 15.1111 32.8926 15.1523 33.0982 15.1523C33.3723 15.1523 33.6381 15.0671 33.8711 14.8993L36.0119 13.3369C36.1791 13.2103 36.3901 13.2103 36.56 13.3369L38.7008 14.8993C39.1009 15.1963 39.6272 15.2376 40.0685 15.012C40.5098 14.7865 40.7839 14.3354 40.7839 13.8348V6.36924H45.3229C46.8031 6.36924 48.0091 7.57955 48.0091 9.06484V27.2111C48.0091 28.6964 46.803 29.9067 45.3229 29.9067H31.9551C31.9331 29.5766 31.8016 29.2438 31.5494 28.9907L31.1766 28.6166C31.141 28.5809 31.1355 28.5396 31.1547 28.4901C31.3575 28.0968 31.5275 27.6814 31.659 27.2578C31.6728 27.2083 31.7084 27.1808 31.7632 27.1808H32.2895C33.0625 27.1808 33.6846 26.5536 33.6846 25.7807V23.7315C33.6846 22.9558 33.0597 22.3314 32.2895 22.3314H31.7632C31.7139 22.3314 31.6782 22.3039 31.659 22.2544C31.5247 21.8308 31.3493 21.4154 31.1547 21.0221C31.1328 20.9726 31.141 20.9313 31.1766 20.8955L31.5494 20.5215C32.0976 19.9713 32.0976 19.0856 31.5494 18.5355L30.1049 17.0859C29.5567 16.5358 28.6741 16.5358 28.1259 17.0859L27.7532 17.46C27.7175 17.4958 27.6764 17.5013 27.6271 17.482C27.2351 17.2785 26.8213 17.1079 26.3991 16.9759C26.3498 16.9621 26.3224 16.9264 26.3224 16.8714V16.3433C26.3224 15.5675 25.6974 14.9432 24.9272 14.9432H24.549L24.5462 9.06504L24.56 9.06484ZM15.4241 23.7396C15.4241 23.6845 15.4734 23.635 15.5282 23.635H16.0545C16.6657 23.635 17.1975 23.2417 17.3866 22.6641C17.4989 22.312 17.647 21.9599 17.8142 21.6298C18.0937 21.0879 17.9896 20.4333 17.562 19.9959L17.1892 19.6218C17.1481 19.5806 17.1481 19.5091 17.1892 19.4678L18.6337 18.0182C18.6748 17.977 18.7461 17.977 18.7872 18.0182L19.16 18.3923C19.5876 18.8214 20.2482 18.9287 20.7881 18.6454C21.117 18.4776 21.4624 18.329 21.8187 18.2163C22.3998 18.0265 22.7863 17.4901 22.7863 16.8795V16.3514C22.7863 16.2964 22.8356 16.2468 22.8905 16.2468H24.9325C24.9873 16.2468 25.0367 16.2964 25.0367 16.3514V16.8795C25.0367 17.4929 25.4286 18.0265 26.0042 18.2163C26.3551 18.329 26.7059 18.4776 27.0349 18.6454C27.5748 18.9259 28.2272 18.8214 28.663 18.3923L29.0358 18.0182C29.0769 17.977 29.1482 17.977 29.1893 18.0182L30.6338 19.4678C30.6749 19.5091 30.6749 19.5806 30.6338 19.6218L30.261 19.9959C29.8334 20.425 29.7265 21.0879 30.0088 21.6298C30.176 21.9599 30.324 22.3065 30.4364 22.6641C30.6255 23.2472 31.16 23.635 31.7685 23.635H32.2948C32.3496 23.635 32.3989 23.6845 32.3989 23.7396V25.7888C32.3989 25.8438 32.3496 25.8933 32.2948 25.8933H31.7685C31.1573 25.8933 30.6255 26.2867 30.4364 26.8643C30.324 27.2164 30.176 27.5685 30.0088 27.8986C29.7292 28.4405 29.8334 29.0951 30.261 29.5324L30.6338 29.9065C30.6749 29.9478 30.6749 30.0193 30.6338 30.0606L29.1893 31.5102C29.1482 31.5514 29.0769 31.5514 29.0358 31.5102L28.663 31.1361C28.2354 30.707 27.5748 30.5997 27.0349 30.883C26.706 31.0508 26.3606 31.1993 26.0042 31.3121C25.4232 31.5019 25.0367 32.0382 25.0367 32.6489V33.177C25.0367 33.232 24.9873 33.2815 24.9325 33.2815H22.8905C22.8356 33.2815 22.7863 33.232 22.7863 33.177V32.6489C22.7863 32.0355 22.3943 31.5019 21.8187 31.3121C21.4679 31.1993 21.1171 31.0508 20.7881 30.883C20.5853 30.7785 20.366 30.729 20.1495 30.729C19.7849 30.729 19.4341 30.8693 19.1599 31.1361L18.7872 31.5101C18.746 31.5514 18.6748 31.5514 18.6337 31.5101L17.1892 30.0606C17.1481 30.0193 17.1481 29.9478 17.1892 29.9065L17.5619 29.5324C17.9895 29.1033 18.0964 28.4404 17.8141 27.8986C17.6469 27.5685 17.4989 27.2219 17.3865 26.8643C17.1974 26.2812 16.6629 25.8933 16.0544 25.8933H15.5282C15.4734 25.8933 15.424 25.8438 15.424 25.7888L15.4241 23.7396ZM23.9159 29.5544C26.5472 29.5544 28.6934 27.4061 28.6934 24.76C28.6934 22.1194 26.5527 19.9657 23.9159 19.9657C21.2846 19.9657 19.1384 22.1139 19.1384 24.76C19.1356 27.4061 21.2846 29.5544 23.9159 29.5544ZM23.9159 21.2587C25.8373 21.2587 27.4024 22.8293 27.4024 24.7575C27.4024 26.6857 25.8373 28.2563 23.9159 28.2563C21.9945 28.2563 20.4293 26.6857 20.4293 24.7575C20.4266 22.8293 21.9917 21.2587 23.9159 21.2587Z" fill="#FC766A" stroke="#FC766A" stroke-width="0.3"></path></svg> 