<?xml version="1.0" encoding="UTF-8"?> <svg xmlns="http://www.w3.org/2000/svg" width="61" height="60" viewBox="0 0 61 60" fill="none"><path d="M60.0819 52.2298H57.9403V30.0515C57.9403 29.6472 57.6156 29.3232 57.2135 29.3232H47.7148C47.3126 29.3232 46.985 29.6472 46.985 30.0515V52.2298H35.9787V19.3896C35.9787 18.9854 35.654 18.6614 35.2489 18.6614H25.7532C25.3481 18.6614 25.0235 18.9854 25.0235 19.3896V52.2298H14.0172V30.0515C14.0172 29.6472 13.6895 29.3232 13.2874 29.3232H3.78864C3.38653 29.3232 3.06186 29.6472 3.06186 30.0515V52.2298H0.920234C0.518124 52.2298 0.190474 52.5538 0.190474 52.9551V59.2717C0.190474 59.673 0.518124 60 0.920234 60H60.0815C60.4836 60 60.8113 59.673 60.8113 59.2717V52.9551C60.8113 52.5538 60.484 52.2298 60.0819 52.2298ZM48.4443 30.7775H56.4836V52.2298H48.4443V30.7775ZM26.4828 20.1148H34.519V52.2268L26.4828 52.2298V20.1148ZM4.5213 30.7775H12.5576V52.2298H4.51825L4.5213 30.7775ZM59.3545 58.5466H1.64963V53.6836H59.3514L59.3545 58.5466ZM4.13089 20.0288L2.999 25.0702C2.93645 25.3526 3.04666 25.6469 3.28196 25.8163C3.51727 25.9887 3.83301 26.0036 4.08323 25.855L8.53927 23.2243L12.9923 25.855C13.2425 26.0036 13.5582 25.9887 13.7935 25.8163C14.0288 25.6469 14.139 25.3526 14.0765 25.0702L12.9446 20.0288L16.8287 16.6134C17.0462 16.4202 17.1296 16.117 17.0402 15.8406C16.9509 15.5671 16.7066 15.3679 16.4147 15.3412L11.2588 14.8566L9.20352 10.1155H9.2065C9.09034 9.84793 8.82822 9.67552 8.53929 9.67552C8.24739 9.67552 7.98527 9.84792 7.8691 10.1155L5.81387 14.8596L0.660874 15.3441V15.3412C0.371946 15.3709 0.124719 15.5671 0.0353666 15.8435C-0.0539937 16.117 0.0294089 16.4202 0.246845 16.6134L4.13089 20.0288ZM6.37973 16.2686V16.2656C6.64483 16.2418 6.87716 16.0754 6.98141 15.8316L8.53925 12.2378L10.0941 15.8316H10.0971C10.2013 16.0754 10.4307 16.2418 10.6958 16.2656L14.6008 16.6312L11.6579 19.2173V19.2203C11.4583 19.3957 11.3719 19.6662 11.4285 19.9248L12.2864 23.7444L8.91158 21.7499C8.68223 21.6161 8.39925 21.6161 8.1699 21.7499L4.79512 23.7444L5.65296 19.9248H5.64998C5.70955 19.6662 5.62019 19.3957 5.42063 19.2203L2.47774 16.6342L6.37973 16.2686ZM26.0925 10.3533L24.9636 15.3917C24.8981 15.6741 25.0113 15.9684 25.2466 16.1378C25.4819 16.3102 25.7946 16.3251 26.0449 16.1765L30.5009 13.5488L34.957 16.1794C35.2071 16.3281 35.5229 16.3132 35.7582 16.1408C35.9935 15.9714 36.1037 15.6741 36.0382 15.3917L34.9063 10.3503L38.7905 6.93489C39.0109 6.74168 39.0943 6.43849 39.0049 6.16206C38.9156 5.88561 38.6683 5.68943 38.3794 5.66267L33.2264 5.17815L31.1712 0.436961C31.055 0.172404 30.7929 0 30.501 0C30.2091 0 29.947 0.172404 29.8308 0.436961L27.7756 5.17815L22.6226 5.66267C22.3337 5.68943 22.0864 5.88561 21.9971 6.16206C21.9077 6.4385 21.9911 6.7417 22.2115 6.93489L26.0925 10.3533ZM28.3414 6.59308L28.3443 6.5901C28.6094 6.56632 28.8388 6.39986 28.946 6.15612L30.5009 2.56231L32.0558 6.15612C32.163 6.39986 32.3923 6.56632 32.6574 6.5901L36.5624 6.95573L33.6195 9.54179V9.54476C33.4199 9.72014 33.3336 9.99064 33.3902 10.2492L34.245 14.0689L30.8702 12.0743H30.8732C30.6439 11.9406 30.3579 11.9406 30.1315 12.0743L26.7568 14.0689L27.6116 10.2492C27.6712 9.99064 27.5818 9.72014 27.3823 9.54476L24.4394 6.9587L28.3414 6.59308ZM48.0565 20.0287L46.9246 25.0701C46.862 25.3525 46.9722 25.6467 47.2075 25.8162C47.4428 25.9886 47.7586 26.0034 48.0088 25.8548L52.4618 23.2242L56.9178 25.8548C57.168 26.0034 57.4808 25.9886 57.7161 25.8162C57.9514 25.6467 58.0646 25.3525 57.9991 25.0701L56.8672 20.0287L60.7513 16.6132H60.7543C60.9718 16.42 61.0552 16.1168 60.9628 15.8404C60.8735 15.564 60.6292 15.3678 60.3403 15.341L55.1873 14.8595L53.1321 10.1153C53.0159 9.84778 52.7538 9.67537 52.4619 9.67537C52.1729 9.67537 51.9108 9.84778 51.7947 10.1153L49.7394 14.8595L44.5835 15.344L44.5864 15.341C44.2945 15.3707 44.0503 15.5669 43.9609 15.8434C43.8716 16.1169 43.955 16.42 44.1724 16.6132L48.0565 20.0287ZM50.3053 16.2684V16.2655C50.5704 16.2417 50.7997 16.0752 50.907 15.8315L52.4618 12.2377L54.0197 15.8315C54.1239 16.0752 54.3533 16.2417 54.6184 16.2655L58.5233 16.6311L55.5805 19.2172V19.2201C55.3809 19.3955 55.2945 19.666 55.3511 19.9246L56.2089 23.7443L52.8342 21.7497C52.6048 21.6159 52.3189 21.6159 52.0895 21.7497L48.7147 23.7443L49.5726 19.9246C49.6321 19.666 49.5428 19.3955 49.3432 19.2201L46.4003 16.6341L50.3053 16.2684Z" fill="#FC766A"></path></svg> 