<svg xmlns="http://www.w3.org/2000/svg" width="511.023" height="259" viewBox="0 0 511.023 259"><defs><style>.a{fill:#ccc;}.b,.c{fill:none;stroke:#000;stroke-width:3px;}.c{stroke-linecap:round;stroke-linejoin:round;}</style></defs><g transform="translate(-1111.138 -205)"><path class="a" d="M1099.75-12444.5s19.75,11,30.255,43.575c.121.431.314,1.174.5,1.925,3.3,11,4.108,17.038,5.1,27a364.181,364.181,0,0,1,1.4,41.5,374.875,374.875,0,0,1,0,46.7c-.785,10.856-3.509,21.78-5.4,29.8-7.6,30-29.6,44.5-29.6,44.5s24-32.5,22.5-118S1099.75-12444.5,1099.75-12444.5Z" transform="translate(302.161 12661)"/><path class="b" d="M-122-93.5h21v40h-21V.5h-48v-54h-83l-2-32,85-163h48Zm-86,0h38v-84l-1,2Zm280-9c0,34.408-5.524,60.771-18,79S23.128,3.5,0,3.5c-22.9,0-40.524-9.284-53-27s-18.544-42.96-19-76v-47c0-34.294,5.581-59.828,18-78s30.758-28,54-28,40.581,9,53,27,18.772,43.618,19,77Zm-48-51c0-19.6-2.126-34.2-6-44s-9.8-15-18-15c-15.381,0-23.43,18.111-24,54v62c0,20.052,2.069,35.2,6,45s9.683,15,18,15c7.861,0,14.183-4.828,18-14s5.772-23.087,6-42Zm208,60h21v40H232V.5H184v-54H102l-3-32,85-163h48Zm-86,0h38v-84l-1,2Z" transform="translate(1367.661 459)"/><path class="a" d="M.613-.256h11l-.026,154.977h-11Z" transform="translate(1232.59 212.264)"/><path class="a" d="M.613-.256h11l-.026,154.977h-11Z" transform="translate(1588.049 212.264)"/><path class="a" d="M.613-.256h11l-.026,53.985h-11Z" transform="translate(1232.59 404.256)"/><path class="a" d="M.613-.256h11l-.026,53.985h-11Z" transform="translate(1588.049 404.256)"/><path class="a" d="M.613-.256h11L11.587,36.76h-11Z" transform="translate(1253.59 367.24)"/><path class="a" d="M.613-.256h11L11.587,36.76h-11Z" transform="translate(1609.049 367.24)"/><path class="c" d="M266,12665l16,1Zm2-5,26,2Z" transform="translate(867.661 -12277.508)"/><path class="c" d="M266,12665l16,1Zm2-5,26,2Z" transform="translate(1086.661 -12435.273)"/><path class="c" d="M266,12665l16,1Zm2-5,26,2Z" transform="translate(1087.661 -12221.273)"/><path class="c" d="M266,12665l16,1Zm2-5,26,2Z" transform="translate(1223.661 -12277.508)"/></g></svg>