<svg xmlns="http://www.w3.org/2000/svg" width="65.948" height="81.073" viewBox="0 0 65.948 81.073">
  <g id="Group_1159" data-name="Group 1159" transform="translate(-205.966 -126.365)">
    <rect id="Rectangle_94" data-name="Rectangle 94" width="65.948" height="2.038" transform="translate(205.966 205.399)" fill="#fff"/>
    <path id="Path_192" data-name="Path 192" d="M268.852,196.728l-.578-.672a.868.868,0,0,0-.657-.3h-3.7v-4.077a.868.868,0,0,0-.868-.868H251.59v-.926h.215a.867.867,0,0,0,.44-1.615l-.875-.515c-.325-.693-1.073-2.022-2.144-2.314-.222-.06-.386-.574-.414-.838a.866.866,0,0,0-.86-.783.884.884,0,0,0-.869.776c-.029.271-.2.784-.42.846a1.935,1.935,0,0,0-.522.235v-4.637a.866.866,0,0,0,.5-.317l.557-.72a.868.868,0,0,0-.686-1.4h-.362v-3.627a.866.866,0,0,0,.5-.317l.558-.718a.868.868,0,0,0-.686-1.4h-.371V167.41a.825.825,0,0,0,.128-.133l.559-.72a.868.868,0,0,0-.686-1.4h0a5.86,5.86,0,0,0-1.194-3.108v-4.734h.325a.868.868,0,0,0,.868-.868v-.906a.868.868,0,0,0-.868-.868h-.325v-.458h.325a.868.868,0,0,0,.868-.868v-.906a.868.868,0,0,0-.868-.868h-.325v-1.431a.868.868,0,0,0-.476-.774v-6.761l.819-.584a1.4,1.4,0,0,0,.631-.282,1.2,1.2,0,0,0,.452-.936,1.27,1.27,0,0,0-.651-1.088c.212-.324.479-.73.812-1.237a.867.867,0,0,0-.4-1.281v-1.645h.4a.868.868,0,0,0,.471-1.6l-.811-.525a1.892,1.892,0,0,0-.766-1.082.61.61,0,0,0,.021-.065.864.864,0,0,0-.36-.973l-.811-.525a1.882,1.882,0,0,0-.445-.811,1.989,1.989,0,0,0-.334-.283.751.751,0,0,0,.038-.1.869.869,0,0,0-.362-.974l-.812-.525a1.888,1.888,0,0,0-1.759-1.407,1.924,1.924,0,0,0-.908.2,2.074,2.074,0,0,0-2.746,0,1.885,1.885,0,0,0-2.667,1.21l-.811.524a.868.868,0,0,0-.361.974,1.077,1.077,0,0,0,.039.108,1.926,1.926,0,0,0-.761,1.074l-.832.539a.867.867,0,0,0-.36.973c.007.022.013.044.021.064a1.883,1.883,0,0,0-.766,1.085l-.81.523a.867.867,0,0,0,.471,1.6h.4V137.2a.869.869,0,0,0-.4,1.282c.333.506.6.912.81,1.236a1.272,1.272,0,0,0-.649,1.088,1.2,1.2,0,0,0,.45.936,1.39,1.39,0,0,0,.632.283l.819.583v6.761a.87.87,0,0,0-.474.774v1.429h-.311a.867.867,0,0,0-.868.868v.906a.867.867,0,0,0,.868.868h.311v.457h-.311a.867.867,0,0,0-.868.868v.906a.867.867,0,0,0,.868.868h.311v4.737a5.854,5.854,0,0,0-1.194,3.108h0a.867.867,0,0,0-.686,1.4l.559.721a.86.86,0,0,0,.127.132v5.13h-.371a.868.868,0,0,0-.686,1.4l.558.72a.868.868,0,0,0,.5.316v3.619h-.371a.868.868,0,0,0-.686,1.4l.558.72a.88.88,0,0,0,.5.316v4.637a1.972,1.972,0,0,0-.522-.235c-.226-.061-.389-.575-.418-.839a.868.868,0,0,0-.863-.787h0a.869.869,0,0,0-.864.786c-.023.252-.193.777-.417.84-1.069.294-1.816,1.621-2.14,2.312l-.878.516a.868.868,0,0,0,.44,1.615h.23v.926H213.643a.868.868,0,0,0-.868.868v4.077h-3.7a.87.87,0,0,0-.659.3l-.578.673a.868.868,0,0,0,.659,1.434h.222V204.6l-.715,1.416a.868.868,0,0,0,.774,1.26h19.281c.01,0,.02.006.03.006s.021-.006.031-.006h2.736c.015,0,.027.008.042.008s.028-.008.042-.008h14.8c.017,0,.031.009.047.009H248.6c.017,0,.031-.008.047-.009h19.271a.868.868,0,0,0,.774-1.26l-.715-1.416-.006-6.439h.223a.868.868,0,0,0,.657-1.434Zm-21.12,8.813h-1.074v-7.379h1.074Zm-9.384-64.281h5.033l-.04.029h-10l-.04-.029Zm23.835,54.493H244.1v-1.94h18.078Zm-29.142-32.531h.106a.865.865,0,0,0,.312-1.672v-5.013a.783.783,0,0,0,.018-.09v-.906a.765.765,0,0,0-.018-.089v-2.014a.765.765,0,0,0,.018-.089v-.906a.818.818,0,0,0-.018-.089V150.92a.869.869,0,0,0,.474-.774v-7.121h8.812v7.119a.868.868,0,0,0,.476.774v1.5a.148.148,0,0,0,0,.022v.906a.123.123,0,0,0,0,.022v2.15a.123.123,0,0,0,0,.022v.906a.163.163,0,0,0,0,.023v5.081a.866.866,0,0,0,.326,1.67h.093a4.123,4.123,0,0,1,.765,1.933H232.276A4.123,4.123,0,0,1,233.041,163.222Zm-1.627,26.764.388-.194a.869.869,0,0,0,.48-.776v-.81c0-.03-.015-.054-.017-.084v-7.939a.875.875,0,0,0-.079-.361.86.86,0,0,0,.078-.359v-5.335a.874.874,0,0,1,0-.72v-4.916h12.154v4.915a.874.874,0,0,1,0,.72v5.343a.869.869,0,0,1-.01.72v8.018a.387.387,0,0,0,.007.039v.769a.868.868,0,0,0,.479.776l.388.194v.821h-2.043a.868.868,0,0,0-.868.868v4.077h-8.047v-4.077a.868.868,0,0,0-.868-.868h-2.041Zm1.173,3.826v1.94H214.51v-1.94Zm-2.553,4.349v7.379H228.96v-7.379Zm1.735,0h13.154v7.379H231.769Zm15.355-11.049a1.965,1.965,0,0,0,.823-.455,1.949,1.949,0,0,0,.825.456,3.554,3.554,0,0,1,1.118,1.58l.014.032a.881.881,0,0,0-.049.288v1.793h-2.839V189.45a.866.866,0,0,0-.479-.775l-.388-.194v-.073A2.97,2.97,0,0,1,247.125,187.112Zm-6.565-58.691a.145.145,0,0,1,.106.053h-.208A.163.163,0,0,1,240.56,128.421Zm-2.174-.318a.342.342,0,0,1,.293.29c0,.027,0,.054,0,.081H238c0-.027,0-.054,0-.08A.342.342,0,0,1,238.386,128.1Zm-2.257.318c.035,0,.051.032.075.053h-.184C236.051,128.436,236.09,128.409,236.129,128.421Zm-3.983,5.483a.16.16,0,0,1,.154-.143.166.166,0,0,1,.143.154.871.871,0,0,0,.248.633.881.881,0,0,0,.628.265.868.868,0,0,0,.868-.868v-1.9a.865.865,0,0,0-.171-.518,1.081,1.081,0,0,0,.046-.265c0-.082.071-.13.154-.143l.142.153v.028a.868.868,0,0,0,1.735.035q0-.054,0-.108l0-1.012h4.486c0,.293,0,.644,0,1.092a.84.84,0,0,0,.855.83h.012a.9.9,0,0,0,.867-.837h0v-.042a.149.149,0,0,1,.3.015.915.915,0,0,0,.034.271.864.864,0,0,0-.158.5v1.9a.874.874,0,0,0,.876.868.933.933,0,0,0,.868-.908.161.161,0,0,1,.154-.143.147.147,0,0,1,.142.154.853.853,0,0,0,.036.272.864.864,0,0,0-.16.5V138a.865.865,0,0,0,.1.408c-.34.521-.568.874-.722,1.112h-10.9c-.154-.238-.382-.59-.721-1.11a.865.865,0,0,0,.1-.408v-3.319a.864.864,0,0,0-.171-.517A1.037,1.037,0,0,0,232.145,133.9Zm-5.361,54.783a3.581,3.581,0,0,1,1.12-1.582,1.961,1.961,0,0,0,.82-.455,1.973,1.973,0,0,0,.821.455,3.039,3.039,0,0,1,1,1.339v.036l-.388.194a.867.867,0,0,0-.48.775v1.358h-2.847v-1.8a.88.88,0,0,0-.054-.3ZM210.364,205.2a.851.851,0,0,0,.094-.391v-6.646h16.767v7.379H210.192Zm39.1.342v-7.379h16.768l.006,6.647a.85.85,0,0,0,.094.39l.172.342Z" transform="translate(0.262 0)" fill="#fff"/>
  </g>
</svg>
