<?xml version="1.0" encoding="utf-8"?>
<!-- Generator: Adobe Illustrator 17.0.0, SVG Export Plug-In . SVG Version: 6.00 Build 0)  -->
<!DOCTYPE svg PUBLIC "-//W3C//DTD SVG 1.1//EN" "http://www.w3.org/Graphics/SVG/1.1/DTD/svg11.dtd">
<svg version="1.1" id="Layer_1" xmlns="http://www.w3.org/2000/svg" xmlns:xlink="http://www.w3.org/1999/xlink" x="0px" y="0px"
	 width="57.15px" height="67.682px" viewBox="0 0 57.15 67.682" enable-background="new 0 0 57.15 67.682" xml:space="preserve">
<g transform="translate(-139.749 -162.555)">
	<path fill="#005463" d="M194.715,226.307v-51.654c-0.021-0.372-0.339-0.658-0.711-0.639h-1.165v0.639
		c-0.021,0.372-0.339,0.658-0.711,0.639h1.164v53.354h-11.849c-0.001,0.238-0.017,0.477-0.048,0.713
		c-0.061,0.336-0.359,0.576-0.7,0.565h13.31c0.372,0.019,0.69-0.267,0.711-0.639v-2.979L194.715,226.307z"/>
	<path fill="#005463" d="M179.771,175.276c-0.37,0.021-0.687-0.26-0.711-0.63v-0.631h-0.841c-0.37-0.021-0.687,0.261-0.711,0.631
		V228.4c0.505,0.194,0.983,0.45,1.423,0.764v-53.886L179.771,175.276z"/>
	<path fill="#005463" d="M190.737,171.748v0.639c-0.021,0.372-0.339,0.658-0.711,0.639h1.391v0.988h-10.933v-0.988h1.391
		c-0.373,0.019-0.691-0.267-0.712-0.639v-0.639h-1.391c-0.372-0.019-0.69,0.267-0.711,0.639v2.267
		c0.021,0.372,0.339,0.658,0.711,0.639h12.357c0.372,0.019,0.69-0.267,0.711-0.639v-2.267c0-0.073-0.014-0.145-0.041-0.212
		c-0.115-0.264-0.378-0.433-0.666-0.427h-1.4H190.737z"/>
	<path fill="#005463" d="M188.828,170.12c-0.021,0.372-0.339,0.658-0.711,0.639h1.2v0.988h-6.728v-0.988h1.132
		c-0.372,0.019-0.69-0.267-0.711-0.639v-0.639h-1.132c-0.373-0.019-0.691,0.267-0.712,0.639v2.269
		c0.021,0.373,0.339,0.658,0.712,0.639h8.151c0.372,0.019,0.69-0.267,0.711-0.639v-2.267c-0.021-0.372-0.339-0.658-0.711-0.639h-1.2
		L188.828,170.12z"/>
	<path fill="#005463" d="M183.006,168.891v1.229c0.021,0.372,0.339,0.658,0.711,0.639h4.4c0.372,0.019,0.69-0.267,0.711-0.639
		v-2.267c-0.021-0.372-0.339-0.658-0.711-0.639h-0.065v0.639c-0.021,0.372-0.339,0.658-0.711,0.639h0.064v0.988h-2.976v-0.988H184.3
		c-0.373,0.019-0.691-0.266-0.712-0.639v-0.628c-0.201,0.03-0.38,0.145-0.491,0.315c-0.06,0.093-0.092,0.202-0.092,0.313
		L183.006,168.891z"/>
	<path fill="#005463" d="M183.588,167.854c0.021,0.373,0.339,0.658,0.712,0.639h3.04c0.372,0.019,0.69-0.267,0.711-0.639v-3.7
		c-0.004-0.225-0.129-0.431-0.327-0.538l-1.52-0.877c-0.239-0.135-0.53-0.135-0.769,0l-1.52,0.877
		c-0.198,0.107-0.323,0.313-0.327,0.538V167.854z M185.011,164.503l0.809-0.466l0.809,0.466v2.712h-1.617L185.011,164.503z"/>
	<path fill="#005463" d="M180.44,180.676h9.528c0.353,0.04,0.671-0.214,0.711-0.567c0.04-0.353-0.214-0.671-0.567-0.711
		c-0.048-0.005-0.096-0.005-0.143,0h-9.528c-0.353-0.04-0.671,0.214-0.711,0.567c-0.04,0.353,0.214,0.671,0.567,0.711
		C180.344,180.681,180.392,180.681,180.44,180.676z"/>
	<path fill="#005463" d="M180.44,186.174h9.528c0.353,0.04,0.671-0.214,0.711-0.567c0.04-0.353-0.214-0.671-0.567-0.711
		c-0.048-0.005-0.096-0.005-0.143,0h-9.528c-0.353-0.04-0.671,0.214-0.711,0.567c-0.04,0.353,0.214,0.671,0.567,0.711
		C180.344,186.179,180.392,186.179,180.44,186.174z"/>
	<path fill="#005463" d="M180.44,191.672h9.528c0.353,0.04,0.671-0.214,0.711-0.567c0.04-0.353-0.214-0.671-0.567-0.711
		c-0.048-0.005-0.096-0.005-0.143,0h-9.528c-0.353-0.04-0.671,0.214-0.711,0.567c-0.04,0.353,0.214,0.671,0.567,0.711
		C180.344,191.677,180.392,191.677,180.44,191.672z"/>
	<path fill="#005463" d="M180.44,197.169h9.528c0.353,0.04,0.671-0.214,0.711-0.567c0.04-0.353-0.214-0.671-0.567-0.711
		c-0.048-0.005-0.096-0.005-0.143,0h-9.528c-0.353-0.04-0.671,0.214-0.711,0.567c-0.04,0.353,0.214,0.671,0.567,0.711
		C180.344,197.174,180.392,197.174,180.44,197.169z"/>
	<path fill="#005463" d="M180.44,202.667h9.528c0.353,0.04,0.671-0.214,0.711-0.567c0.04-0.353-0.214-0.671-0.567-0.711
		c-0.048-0.005-0.096-0.005-0.143,0h-9.528c-0.353-0.04-0.671,0.214-0.711,0.567c-0.04,0.353,0.214,0.671,0.567,0.711
		C180.344,202.672,180.392,202.672,180.44,202.667z"/>
	<path fill="#005463" d="M180.44,208.165h9.528c0.353,0.04,0.671-0.214,0.711-0.567c0.04-0.353-0.214-0.671-0.567-0.711
		c-0.048-0.005-0.096-0.005-0.143,0h-9.528c-0.353-0.04-0.671,0.214-0.711,0.567c-0.04,0.353,0.214,0.671,0.567,0.711
		C180.344,208.17,180.392,208.17,180.44,208.165z"/>
	<path fill="#005463" d="M180.44,213.663h9.528c0.353,0.04,0.671-0.214,0.711-0.567c0.04-0.353-0.214-0.671-0.567-0.711
		c-0.048-0.005-0.096-0.005-0.143,0h-9.528c-0.353-0.04-0.671,0.214-0.711,0.567c-0.04,0.353,0.214,0.671,0.567,0.711
		C180.344,213.668,180.392,213.668,180.44,213.663z"/>
	<path fill="#005463" d="M180.44,219.16h9.528c0.353,0.04,0.671-0.214,0.711-0.567c0.04-0.353-0.214-0.671-0.567-0.711
		c-0.048-0.005-0.096-0.005-0.143,0h-9.528c-0.353-0.04-0.671,0.214-0.711,0.567c-0.04,0.353,0.214,0.671,0.567,0.711
		C180.344,219.165,180.392,219.165,180.44,219.16z"/>
	<path fill="#005463" d="M190.681,224.019c-0.021-0.372-0.339-0.658-0.712-0.639h-9.528c-0.353-0.04-0.671,0.214-0.711,0.567
		c-0.04,0.353,0.214,0.671,0.567,0.711c0.048,0.005,0.096,0.005,0.143,0h9.528C190.342,224.677,190.66,224.392,190.681,224.019z"/>
	<path fill="#005463" d="M174.1,196.4h-9.84v1.248h9.128v31.511c0.448-0.241,0.927-0.421,1.423-0.533v-31.6
		C174.786,196.657,174.469,196.378,174.1,196.4z"/>
	<path fill="#005463" d="M184.89,229.622c-0.129-0.185-0.14-0.427-0.029-0.623c0.068-0.121,0.143-0.238,0.222-0.351h-20.818v0.54
		c0,0.022,0,0.044,0,0.065v0.025c0.001,0.013-0.001,0.025-0.006,0.037c-0.004,0.009-0.007,0.018-0.008,0.028l-0.009,0.033
		c0,0.011-0.008,0.02-0.011,0.029l-0.012,0.029c0,0.01-0.01,0.019-0.015,0.028l-0.014,0.027l-0.018,0.026
		c-0.006,0.008-0.011,0.018-0.017,0.026l-0.021,0.025l-0.02,0.024l-0.023,0.024l-0.022,0.022l-0.027,0.023l-0.023,0.018
		l-0.031,0.021l-0.023,0.016l-0.032,0.018l-0.026,0.014l-0.036,0.016l-0.025,0.011l-0.04,0.014l-0.025,0.008l-0.043,0.01
		l-0.024,0.006l-0.045,0.006h-0.108l-9.44,0.08c0.056,0.013,0.113,0.019,0.17,0.019h31.2
		C185.255,229.921,185.031,229.811,184.89,229.622z"/>
	<path fill="#005463" d="M171.866,200.968c-0.021-0.372-0.339-0.658-0.711-0.639h-6.891v1.279h6.891
		C171.528,201.627,171.846,201.341,171.866,200.968z"/>
	<path fill="#005463" d="M171.866,204.885c-0.021-0.372-0.339-0.658-0.711-0.639h-6.891v1.279h6.891
		C171.528,205.544,171.846,205.258,171.866,204.885z"/>
	<path fill="#005463" d="M171.866,208.8c-0.021-0.372-0.339-0.658-0.711-0.639h-6.891v1.278h6.891
		C171.527,209.457,171.844,209.172,171.866,208.8z"/>
	<path fill="#005463" d="M171.866,212.719c-0.021-0.372-0.339-0.658-0.711-0.639h-6.891v1.278h6.891
		C171.527,213.377,171.845,213.091,171.866,212.719z"/>
	<path fill="#005463" d="M171.866,216.635c-0.021-0.372-0.339-0.658-0.711-0.639h-6.891v1.279h6.891
		C171.528,217.294,171.846,217.008,171.866,216.635z"/>
	<path fill="#005463" d="M171.866,220.553c-0.021-0.372-0.339-0.658-0.711-0.639h-6.891v1.278h6.891
		C171.527,221.21,171.844,220.925,171.866,220.553z"/>
	<path fill="#005463" d="M171.866,224.468c-0.021-0.372-0.339-0.658-0.711-0.639h-6.891v1.279h6.891
		C171.528,225.127,171.846,224.841,171.866,224.468z"/>
	<path fill="#005463" d="M148.368,229.319v-0.675l-4.1,0.031v-9.536h2.2c0.373,0.019,0.691-0.266,0.712-0.639v-9.962h0.7
		c0.184,0.001,0.362-0.066,0.5-0.187c0.131-0.114,0.207-0.279,0.209-0.453v-9.934h0.747c0.372,0.018,0.689-0.267,0.711-0.639v-11.05
		h1.76c0.372,0.018,0.689-0.267,0.709-0.639v-1.646h4.1v-0.639c0.021-0.372,0.339-0.658,0.712-0.639H151.8
		c-0.372-0.019-0.69,0.267-0.711,0.639V185h-1.76c-0.371-0.017-0.687,0.268-0.709,0.639v11.048h-0.747
		c-0.372-0.018-0.69,0.267-0.712,0.639v9.933h-0.7c-0.184,0-0.362,0.066-0.5,0.187c-0.131,0.114-0.207,0.278-0.209,0.452v9.963h-2.2
		c-0.372-0.018-0.69,0.267-0.712,0.639v10.82c0.002,0.175,0.079,0.34,0.211,0.454c0.138,0.121,0.316,0.187,0.5,0.186h0.006
		l5.279-0.039c-0.096-0.03-0.185-0.079-0.261-0.145C148.443,229.661,148.368,229.494,148.368,229.319z"/>
	<path fill="#005463" d="M164.144,229.543l-0.021,0.025L164.144,229.543z"/>
	<path fill="#005463" d="M164.248,229.315c-0.002,0.01-0.004,0.019-0.008,0.028C164.246,229.335,164.249,229.325,164.248,229.315z"
		/>
	<path fill="#005463" d="M163.77,229.8l-0.043,0.01L163.77,229.8z"/>
	<path fill="#005463" d="M163.558,229.827"/>
	<path fill="#005463" d="M163.633,229.823L163.633,229.823z"/>
	<path fill="#005463" d="M163.7,229.813l-0.045,0.006L163.7,229.813z"/>
	<path fill="#005463" d="M163.9,229.747l-0.036,0.016L163.9,229.747z"/>
	<path fill="#005463" d="M164.18,229.49l-0.018,0.026L164.18,229.49z"/>
	<path fill="#005463" d="M163.954,229.715l-0.032,0.018L163.954,229.715z"/>
	<path fill="#005463" d="M164.058,229.637l-0.027,0.023L164.058,229.637z"/>
	<path fill="#005463" d="M164.1,229.592l-0.023,0.024L164.1,229.592z"/>
	<path fill="#005463" d="M163.835,229.774l-0.04,0.014L163.835,229.774z"/>
	<path fill="#005463" d="M164.007,229.678l-0.031,0.021L164.007,229.678z"/>
	<path fill="#005463" d="M164.213,229.435c0,0.01-0.01,0.019-0.015,0.028C164.2,229.452,164.205,229.442,164.213,229.435z"/>
	<path fill="#005463" d="M164.232,229.376c0,0.01-0.008,0.02-0.011,0.029C164.225,229.396,164.229,229.386,164.232,229.376z"/>
	<path fill="#005463" d="M164.26,229.252v0.025C164.258,229.269,164.258,229.26,164.26,229.252z"/>
	<path fill="#005463" d="M163.55,229.827h0.108l0.045-0.006l0.024-0.006l0.043-0.01l0.025-0.008l0.04-0.014l0.025-0.011l0.036-0.016
		l0.026-0.014l0.032-0.018l0.023-0.016l0.031-0.021l0.023-0.018l0.027-0.023l0.022-0.022c0.008-0.008,0.016-0.016,0.023-0.024
		l0.02-0.024l0.021-0.025c0.006-0.008,0.012-0.018,0.017-0.026l0.018-0.026l0.014-0.027c0.005-0.01,0.011-0.019,0.015-0.028
		l0.012-0.029c0-0.01,0.008-0.02,0.011-0.029l0.009-0.033l0.008-0.028c0-0.013,0.002-0.025,0.006-0.037c0.006-0.012,0-0.017,0-0.025
		s0-0.043,0-0.065v-45.84c-0.021-0.372-0.339-0.658-0.712-0.639h-6.224c-0.373-0.019-0.691,0.267-0.712,0.639v1.648h-1.759
		c-0.372-0.017-0.688,0.268-0.71,0.639v11.048h-0.747c-0.372-0.018-0.689,0.267-0.711,0.639v9.933h-0.7
		c-0.184,0-0.362,0.066-0.5,0.187c-0.131,0.114-0.207,0.278-0.209,0.452v9.963h-2.2c-0.372-0.018-0.69,0.267-0.712,0.639v10.813
		c0.002,0.175,0.079,0.341,0.212,0.455c0.076,0.066,0.165,0.115,0.261,0.145c0.077,0.025,0.158,0.039,0.239,0.039h0.008l5.022-0.054
		L163.55,229.827z M152,219.139c0.372,0.019,0.69-0.267,0.711-0.639v-9.962h0.7c0.184,0.001,0.362-0.066,0.5-0.187
		c0.131-0.114,0.207-0.279,0.209-0.453v-9.934h0.748c0.372,0.019,0.69-0.267,0.711-0.639v-11.05h1.76
		c0.372,0.018,0.689-0.267,0.709-0.639v-1.646h4.8v44.569l-13.05,0.119v-9.539H152z"/>
	<path fill="#005463" d="M158.088,189.565h1.973c0.353,0.04,0.671-0.214,0.711-0.567c0.04-0.353-0.214-0.671-0.567-0.711
		c-0.048-0.005-0.096-0.005-0.143,0h-1.973c-0.353-0.04-0.671,0.214-0.711,0.567c-0.04,0.353,0.214,0.671,0.567,0.711
		C157.992,189.57,158.04,189.57,158.088,189.565z"/>
	<path fill="#005463" d="M160.773,192.561c-0.021-0.372-0.339-0.658-0.712-0.639h-1.973c-0.353-0.04-0.671,0.214-0.711,0.567
		c-0.04,0.353,0.214,0.671,0.567,0.711c0.048,0.005,0.096,0.005,0.143,0h1.973C160.434,193.219,160.752,192.934,160.773,192.561z"/>
	<path fill="#005463" d="M160.061,196.835c0.353,0.04,0.671-0.214,0.711-0.567c0.04-0.353-0.214-0.671-0.567-0.711
		c-0.048-0.005-0.096-0.005-0.143,0h-1.973c-0.353-0.04-0.671,0.214-0.711,0.567c-0.04,0.353,0.214,0.671,0.567,0.711
		c0.048,0.005,0.096,0.005,0.143,0H160.061z"/>
	<path fill="#005463" d="M160.061,200.47c0.353,0.04,0.671-0.214,0.711-0.567c0.04-0.353-0.214-0.671-0.567-0.711
		c-0.048-0.005-0.096-0.005-0.143,0h-1.973c-0.353-0.04-0.671,0.214-0.711,0.567c-0.04,0.353,0.214,0.671,0.567,0.711
		c0.048,0.005,0.096,0.005,0.143,0H160.061z"/>
	<path fill="#005463" d="M160.061,202.827h-1.973c-0.353-0.04-0.671,0.214-0.711,0.567c-0.04,0.353,0.214,0.671,0.567,0.711
		c0.048,0.005,0.096,0.005,0.143,0h1.973c0.353,0.04,0.671-0.214,0.711-0.567c0.04-0.353-0.214-0.671-0.567-0.711
		C160.157,202.822,160.109,202.822,160.061,202.827z"/>
	<path fill="#005463" d="M160.061,206.462h-1.973c-0.353-0.04-0.671,0.214-0.711,0.567c-0.04,0.353,0.214,0.671,0.567,0.711
		c0.048,0.005,0.096,0.005,0.143,0h1.973c0.353,0.04,0.671-0.214,0.711-0.567c0.04-0.353-0.214-0.671-0.567-0.711
		C160.157,206.457,160.109,206.457,160.061,206.462z"/>
	<path fill="#005463" d="M158.088,210.1c-0.353-0.04-0.671,0.214-0.711,0.567c-0.04,0.353,0.214,0.671,0.567,0.711
		c0.048,0.005,0.096,0.005,0.143,0h1.973c0.353,0.04,0.671-0.214,0.711-0.567c0.04-0.353-0.214-0.671-0.567-0.711
		c-0.048-0.005-0.096-0.005-0.143,0H158.088z"/>
	<path fill="#005463" d="M160.061,213.732h-1.973c-0.353-0.04-0.671,0.214-0.711,0.567c-0.04,0.353,0.214,0.671,0.567,0.711
		c0.048,0.005,0.096,0.005,0.143,0h1.973c0.353,0.04,0.671-0.214,0.711-0.567c0.04-0.353-0.214-0.671-0.567-0.711
		C160.157,213.727,160.109,213.727,160.061,213.732z"/>
	<path fill="#005463" d="M160.061,217.366h-1.973c-0.353-0.04-0.671,0.214-0.711,0.567c-0.04,0.353,0.214,0.671,0.567,0.711
		c0.048,0.005,0.096,0.005,0.143,0h1.973c0.353,0.04,0.671-0.214,0.711-0.567c0.04-0.353-0.214-0.671-0.567-0.711
		C160.157,217.361,160.109,217.361,160.061,217.366z"/>
	<path fill="#005463" d="M160.061,222.279c0.353,0.04,0.671-0.214,0.711-0.567c0.04-0.353-0.214-0.671-0.567-0.711
		c-0.048-0.005-0.096-0.005-0.143,0h-1.973c-0.353-0.04-0.671,0.214-0.711,0.567c-0.04,0.353,0.214,0.671,0.567,0.711
		c0.048,0.005,0.096,0.005,0.143,0H160.061z"/>
	<path fill="#005463" d="M158.088,225.914h1.973c0.353,0.04,0.671-0.214,0.711-0.567c0.04-0.353-0.214-0.671-0.567-0.711
		c-0.048-0.005-0.096-0.005-0.143,0h-1.973c-0.353-0.04-0.671,0.214-0.711,0.567c-0.04,0.353,0.214,0.671,0.567,0.711
		C157.992,225.919,158.04,225.919,158.088,225.914z"/>
	<rect x="139.824" y="229.161" fill="#005463" width="57" height="1"/>
</g>
</svg>
