<svg width="21" height="20" viewBox="0 0 21 20" fill="none" xmlns="http://www.w3.org/2000/svg">
<path d="M19.4131 9.68386H19.0998V9.03108C19.0998 4.32627 15.2363 0.5 10.4849 0.5C5.73574 0.5 1.87249 4.32627 1.87249 9.03108V9.68386H1.59454C0.990112 9.68386 0.5 10.1679 0.5 10.7629V13.4538C0.5 14.0487 0.990112 14.5328 1.59454 14.5328H3.2828C3.88312 14.5328 4.37159 14.0487 4.37159 13.4538V10.7629C4.37159 10.1679 3.88312 9.68386 3.2828 9.68386H2.92673V9.03108C2.92673 4.90418 6.318 1.54565 10.484 1.54565C14.6525 1.54565 18.0412 4.90501 18.0412 9.03108V9.68386H17.723C17.1227 9.68386 16.6326 10.1679 16.6326 10.7629V13.4538C16.6326 14.0487 17.1227 14.5328 17.723 14.5328H18.024C17.8685 15.9533 16.649 17.0633 15.1737 17.0633H14.2289V16.7479C14.2289 16.1513 13.7404 15.6672 13.1401 15.6672H10.4248C9.82036 15.6672 9.33024 16.1513 9.33024 16.7479V18.421C9.33024 19.0159 9.82036 19.5 10.4248 19.5H13.1401C13.7404 19.5 14.2289 19.0159 14.2289 18.421V18.1105H15.1737C17.2329 18.1105 18.9212 16.5311 19.0831 14.5329H19.4112C20.0115 14.5329 20.5 14.0488 20.5 13.4539V10.763C20.5008 10.1681 20.0123 9.68397 19.4129 9.68397L19.4131 9.68386Z" fill="#FC766A" stroke="#FC766A"/>
</svg>
