<svg width="20" height="28" viewBox="0 0 20 28" fill="none" xmlns="http://www.w3.org/2000/svg">
<path d="M1.73415 3.81447C-0.848137 13.4517 4.87102 23.3576 14.5082 25.9399C14.943 26.0564 15.3783 26.156 15.8136 26.2391C16.3131 26.3344 16.5627 26.3821 16.8201 26.3135C17.0332 26.2567 17.2588 26.1152 17.4028 25.948C17.5766 25.7463 17.6491 25.476 17.7939 24.9355L18.6437 21.7638C18.7656 21.3092 18.8265 21.0819 18.8038 20.8671C18.7839 20.6773 18.7176 20.4953 18.6108 20.3371C18.49 20.158 18.2972 20.0231 17.9117 19.7533L14.6532 17.4731C14.2046 17.1593 13.9803 17.0023 13.7404 16.9544C13.5289 16.9122 13.3098 16.9296 13.1075 17.0045C12.8782 17.0895 12.6814 17.2798 12.2878 17.6604L10.9505 18.9535C8.32924 16.803 6.55968 13.7335 6.00565 10.3888L7.79415 9.87718C8.32055 9.7266 8.58375 9.6513 8.772 9.49515C8.938 9.35745 9.06265 9.17642 9.13186 8.97214C9.21035 8.74047 9.18654 8.46774 9.13902 7.92231L8.79358 3.96032C8.7527 3.49152 8.73226 3.25711 8.63759 3.0629C8.55396 2.89134 8.42947 2.74295 8.27508 2.63075C8.1003 2.50374 7.87302 2.44284 7.41847 2.32104L4.24678 1.47119C3.70625 1.32635 3.43598 1.25394 3.17432 1.30358C2.9576 1.34471 2.72226 1.46934 2.56647 1.6255C2.37836 1.81406 2.29481 2.05417 2.12769 2.5344C1.98207 2.95285 1.85065 3.37967 1.73415 3.81447Z" stroke="black" stroke-width="2" stroke-linecap="round" stroke-linejoin="round"/>
</svg>
