<?xml version="1.0" encoding="UTF-8"?> <svg xmlns="http://www.w3.org/2000/svg" width="295.982" height="46.796"><path fill="#BF1E2E" d="M280.483 42.894a3 3 0 01-3 3h-122c-1.656 0-3-1.344-3-3v-39a3 3 0 013-3h122a3 3 0 013 3v39z"></path><g fill="#FFF"><path d="M180.056 14.026c-1.178-1.002-2.421-1.754-3.732-2.255a11.508 11.508 0 00-4.135-.751c-2.797 0-5.071.897-6.826 2.692-1.754 1.795-2.631 4.12-2.631 6.975 0 2.762.854 5.041 2.561 6.835 1.707 1.795 3.859 2.692 6.459 2.692a11.74 11.74 0 004.326-.805c1.37-.535 2.684-1.346 3.941-2.43v4.703a12.293 12.293 0 01-3.652 1.8c-1.317.396-2.745.595-4.283.595-1.958 0-3.768-.322-5.428-.961a12.625 12.625 0 01-4.38-2.832 12.62 12.62 0 01-2.875-4.328c-.671-1.66-1.005-3.429-1.005-5.305s.334-3.639 1.005-5.288a12.782 12.782 0 012.91-4.344 12.85 12.85 0 014.37-2.858c1.645-.647 3.42-.97 5.332-.97 1.503 0 2.938.218 4.3.655 1.363.437 2.688 1.099 3.969 1.984l-.226 4.196zM184.898 33.394V6.299h3.566v13.233c.757-1.142 1.647-1.976 2.674-2.5 1.026-.524 2.272-.787 3.741-.787 1.234 0 2.287.195 3.155.586.867.39 1.547.97 2.035 1.739.291.454.501.985.631 1.59.128.606.191 1.667.191 3.182v10.051h-3.829V24.88c0-2.179-.265-3.627-.795-4.344-.53-.717-1.472-1.075-2.823-1.075-.886 0-1.676.164-2.367.49a3.94 3.94 0 00-1.636 1.381c-.278.396-.475.906-.586 1.529-.109.624-.166 1.617-.166 2.981v7.552h-3.791zM221.537 33.394h-3.793v-2.15c-.678.957-1.467 1.668-2.369 2.133-.903.465-1.938.699-3.104.699-2.343 0-4.186-.802-5.533-2.404-1.346-1.602-2.019-3.795-2.019-6.582 0-2.646.689-4.78 2.064-6.406 1.375-1.625 3.17-2.438 5.384-2.438 1.352 0 2.509.283 3.471.848.961.565 1.663 1.378 2.106 2.439v-2.709h3.793v16.57zm-3.688-8.338c0-1.713-.398-3.047-1.197-4.003-.799-.955-1.914-1.433-3.348-1.433s-2.56.492-3.383 1.477c-.821.985-1.232 2.351-1.232 4.099 0 1.761.396 3.118 1.188 4.073.793.956 1.911 1.434 3.355 1.434 1.364 0 2.475-.519 3.33-1.556.857-1.037 1.287-2.401 1.287-4.091zM230.573 33.394h-3.794V16.823h3.566v2.709c.757-1.154 1.616-1.996 2.578-2.526.961-.53 2.095-.795 3.399-.795 1.294 0 2.365.271 3.217.813.851.542 1.497 1.367 1.94 2.474.874-1.142 1.804-1.975 2.788-2.5.984-.524 2.106-.787 3.365-.787 1.095 0 2.051.201 2.866.603a4.439 4.439 0 011.904 1.757c.21.361.364.792.465 1.293.099.501.147 1.218.147 2.15v11.38h-3.793V24.88c0-2.225-.236-3.69-.708-4.396-.473-.705-1.313-1.058-2.526-1.058-1.491 0-2.555.475-3.189 1.425-.635.95-.952 2.613-.952 4.989v7.553h-3.828V24.88c0-2.05-.248-3.471-.743-4.264-.494-.792-1.349-1.188-2.561-1.188-.746 0-1.428.169-2.046.507a3.853 3.853 0 00-1.468 1.398c-.233.385-.397.856-.49 1.416-.093.559-.141 1.59-.141 3.094v7.551h.004zM258.106 41.19V16.823h3.793v2.709a5 5 0 012.124-2.43c.974-.571 2.137-.856 3.487-.856 2.203 0 3.988.813 5.358 2.438 1.368 1.626 2.054 3.761 2.054 6.407 0 2.785-.673 4.978-2.021 6.582-1.346 1.603-3.189 2.402-5.531 2.402-1.165 0-2.2-.232-3.103-.699-.903-.465-1.692-1.176-2.369-2.131v9.945h-3.792zm3.671-16.134c0 1.713.43 3.083 1.285 4.107.857 1.026 1.983 1.539 3.382 1.539 1.435 0 2.544-.478 3.33-1.434.787-.955 1.182-2.313 1.182-4.073 0-1.748-.411-3.114-1.233-4.099-.822-.985-1.949-1.477-3.383-1.477s-2.553.478-3.356 1.433c-.805.956-1.207 2.291-1.207 4.004z"></path></g><g fill="#191919"><path d="M25.441 13.483c-2.127-2.372-4.171-3.517-6.748-3.517-4.621 0-7.687 3.517-7.687 8.465 0 4.499 3.025 8.138 7.687 8.138 2.576 0 4.621-1.146 6.748-3.517v8.71c-2.536 1.227-4.947 1.84-7.564 1.84-8.629 0-14.846-6.502-14.846-15.335S9.246 2.933 17.875 2.933c2.617 0 5.029.613 7.564 1.84v8.71h.002zM51.084 32.826h-6.543v-3.23c-1.881 2.821-4.049 4.048-7.238 4.048-5.275 0-8.874-4.171-8.874-10.836 0-6.543 3.599-10.755 9.324-10.755 3.025 0 5.152 1.227 6.748 3.967v-3.312h6.584l-.001 20.118zM40.125 17.654c-2.904 0-4.662 2.004-4.662 5.112 0 3.147 1.758 5.071 4.662 5.071 2.902 0 4.703-1.922 4.703-5.071-.001-3.108-1.8-5.112-4.703-5.112zM56.445 12.706h6.502v4.089c1.923-3.312 4.213-4.744 7.729-4.744 2.617 0 4.744.9 5.971 2.454 1.35 1.718 1.473 3.926 1.473 6.829v11.533h-7.115V22.071c0-3.149-.94-4.621-3.313-4.621-3.188 0-4.253 2.413-4.253 6.952v8.465h-6.993V12.706zM80.168 12.706h7.605l3.436 8.915c.286.777.735 1.799.939 3.149.205-1.35.695-2.372.981-3.149l3.435-8.915h7.402l-9.16 20.161h-5.562l-9.076-20.161zM127.853 32.826h-6.543v-3.23c-1.881 2.821-4.048 4.048-7.238 4.048-5.274 0-8.873-4.171-8.873-10.836 0-6.543 3.599-10.755 9.323-10.755 3.026 0 5.152 1.227 6.747 3.967v-3.312h6.584v20.118zm-10.959-15.172c-2.902 0-4.662 2.004-4.662 5.112 0 3.147 1.76 5.071 4.662 5.071 2.903 0 4.703-1.922 4.703-5.071 0-3.108-1.8-5.112-4.703-5.112zM132.805 25.751c2.086 1.84 4.744 2.82 7.197 2.82 1.8 0 2.74-.613 2.74-1.677 0-1.677-1.637-1.677-4.294-2.372-4.172-1.104-6.094-2.944-6.094-6.011 0-3.681 2.903-6.461 8.18-6.461 2.657 0 5.274.614 8.056 1.84l-1.472 4.907c-1.964-1.35-3.927-1.963-5.809-1.963-1.636 0-2.453.532-2.453 1.472 0 1.39 1.799 1.472 4.621 2.331 3.844 1.145 5.726 2.862 5.726 6.093 0 4.048-3.314 6.911-8.669 6.911-3.478 0-6.463-.777-9.201-2.454l1.472-5.436z"></path></g><path d="M290.032 38.583a1.076 1.076 0 011.101-1.082 1.082 1.082 0 011.07 1.102 1.07 1.07 0 01-1.089 1.068 1.083 1.083 0 01-1.082-1.088zM292.3 31.906c-.012 1.352-.443 2.465-1.22 3.277-.815.835-1.936 1.297-3.2 1.285-2.58-.022-4.374-1.898-4.35-4.84a6.652 6.652 0 01.722-2.957l1.984.018c-.615.938-.922 1.877-.931 2.82-.016 1.712.968 2.763 2.592 2.777 1.563.014 2.614-.97 2.629-2.57.01-1.018-.342-2.051-1.04-3.073l1.985.019a6.354 6.354 0 01.829 3.244zM284.793 26.446c-.799-.862-1.187-1.946-1.174-3.286.012-1.339.418-2.427 1.231-3.276.839-.861 1.922-1.309 3.188-1.299 1.266.011 2.341.48 3.151 1.355.798.863 1.198 1.958 1.188 3.298-.012 1.34-.433 2.415-1.245 3.264-.826.861-1.922 1.311-3.176 1.299-1.264-.01-2.339-.479-3.163-1.355zm5.797-3.224c.013-1.401-1.045-2.428-2.571-2.441-1.524-.014-2.613.994-2.626 2.396-.012 1.403 1.059 2.428 2.583 2.442 1.526.013 2.602-.994 2.614-2.397zM283.808 17.311l.018-1.874 3.435-2.687-3.387-2.759.017-1.873 8.473.075-.02 2.084-5.247-.047 3.079 2.545-3.123 2.466 5.247.047-.02 2.097-8.472-.074z"></path><g><path d="M43.7 43.945l-.008-4.147-2.057 3.456h-.374l-2.057-3.431v4.122h-.781v-5.691h.667l2.374 4 2.342-4h.666l.008 5.691h-.78zM50.973 43.238v.707h-4.131v-5.691h4.017v.707h-3.204v1.748h2.854v.691h-2.854v1.838h3.318zM58.221 43.945l-.008-4.147-2.057 3.456h-.374l-2.057-3.431v4.122h-.781v-5.691h.667l2.374 4 2.342-4h.666l.008 5.691h-.78zM60.901 41.099c0-1.666 1.285-2.911 3.033-2.911 1.732 0 3.016 1.236 3.016 2.911s-1.285 2.912-3.016 2.912c-1.749 0-3.033-1.245-3.033-2.912zm5.236 0c0-1.26-.943-2.187-2.204-2.187-1.277 0-2.22.927-2.22 2.187s.943 2.188 2.22 2.188c1.261 0 2.204-.928 2.204-2.188zM72.654 43.945l-1.228-1.748a5.127 5.127 0 01-.358.016h-1.407v1.732h-.813v-5.691h2.22c1.48 0 2.374.748 2.374 1.983 0 .879-.455 1.512-1.252 1.797l1.35 1.911h-.886zm-.024-3.708c0-.812-.545-1.276-1.585-1.276h-1.382v2.561h1.382c1.04 0 1.585-.472 1.585-1.285zM75.413 38.254h.813v5.691h-.813v-5.691zM82.717 43.238v.707h-4.131v-5.691h4.017v.707H79.4v1.748h2.854v.691H79.4v1.838h3.317zM84.167 43.295l.301-.635c.423.382 1.147.659 1.878.659.984 0 1.407-.382 1.407-.879 0-1.39-3.447-.511-3.447-2.626 0-.879.683-1.627 2.179-1.627.667 0 1.358.179 1.83.504l-.269.65a2.941 2.941 0 00-1.561-.464c-.967 0-1.382.407-1.382.903 0 1.39 3.447.52 3.447 2.61 0 .87-.699 1.619-2.203 1.619-.87.002-1.724-.291-2.18-.714zM92.767 41.099c0-1.666 1.285-2.911 3.033-2.911 1.732 0 3.016 1.236 3.016 2.911s-1.285 2.912-3.016 2.912c-1.749 0-3.033-1.245-3.033-2.912zm5.236 0c0-1.26-.943-2.187-2.204-2.187-1.277 0-2.22.927-2.22 2.187s.943 2.188 2.22 2.188c1.261 0 2.204-.928 2.204-2.188zM105.609 38.254v5.691h-.667l-3.415-4.244v4.244h-.813v-5.691h.667l3.415 4.244v-4.244h.813zM110.347 41.099c0-1.682 1.285-2.911 3.016-2.911.878 0 1.643.301 2.163.887l-.529.512c-.439-.464-.975-.675-1.601-.675-1.285 0-2.236.927-2.236 2.187s.951 2.188 2.236 2.188c.626 0 1.162-.219 1.601-.683l.529.512c-.52.585-1.285.895-2.171.895-1.723 0-3.008-1.229-3.008-2.912zM120.831 42.522h-3.025l-.626 1.423h-.837l2.578-5.691h.805l2.585 5.691h-.854l-.626-1.423zm-.285-.65l-1.227-2.789-1.228 2.789h2.455zM128.705 38.254v5.691h-.667l-3.415-4.244v4.244h-.813v-5.691h.667l3.415 4.244v-4.244h.813zM135.954 38.254l-2.496 5.691h-.805l-2.504-5.691h.878l2.049 4.675 2.065-4.675h.813zM140.779 42.522h-3.025l-.626 1.423h-.837l2.578-5.691h.805l2.585 5.691h-.854l-.626-1.423zm-.285-.65l-1.227-2.789-1.228 2.789h2.455zM143.238 43.295l.301-.635c.423.382 1.146.659 1.878.659.984 0 1.407-.382 1.407-.879 0-1.39-3.447-.511-3.447-2.626 0-.879.683-1.627 2.179-1.627.667 0 1.358.179 1.83.504l-.269.65a2.941 2.941 0 00-1.561-.464c-.967 0-1.382.407-1.382.903 0 1.39 3.447.52 3.447 2.61 0 .87-.699 1.619-2.203 1.619-.871.002-1.725-.291-2.18-.714z"></path></g><g><path d="M43.7 43.945l-.008-4.147-2.057 3.456h-.374l-2.057-3.431v4.122h-.781v-5.691h.667l2.374 4 2.342-4h.666l.008 5.691h-.78zM50.973 43.238v.707h-4.131v-5.691h4.017v.707h-3.204v1.748h2.854v.691h-2.854v1.838h3.318zM58.221 43.945l-.008-4.147-2.057 3.456h-.374l-2.057-3.431v4.122h-.781v-5.691h.667l2.374 4 2.342-4h.666l.008 5.691h-.78zM60.901 41.099c0-1.666 1.285-2.911 3.033-2.911 1.732 0 3.016 1.236 3.016 2.911s-1.285 2.912-3.016 2.912c-1.749 0-3.033-1.245-3.033-2.912zm5.236 0c0-1.26-.943-2.187-2.204-2.187-1.277 0-2.22.927-2.22 2.187s.943 2.188 2.22 2.188c1.261 0 2.204-.928 2.204-2.188zM72.654 43.945l-1.228-1.748a5.127 5.127 0 01-.358.016h-1.407v1.732h-.813v-5.691h2.22c1.48 0 2.374.748 2.374 1.983 0 .879-.455 1.512-1.252 1.797l1.35 1.911h-.886zm-.024-3.708c0-.812-.545-1.276-1.585-1.276h-1.382v2.561h1.382c1.04 0 1.585-.472 1.585-1.285zM75.413 38.254h.813v5.691h-.813v-5.691zM82.717 43.238v.707h-4.131v-5.691h4.017v.707H79.4v1.748h2.854v.691H79.4v1.838h3.317zM84.167 43.295l.301-.635c.423.382 1.147.659 1.878.659.984 0 1.407-.382 1.407-.879 0-1.39-3.447-.511-3.447-2.626 0-.879.683-1.627 2.179-1.627.667 0 1.358.179 1.83.504l-.269.65a2.941 2.941 0 00-1.561-.464c-.967 0-1.382.407-1.382.903 0 1.39 3.447.52 3.447 2.61 0 .87-.699 1.619-2.203 1.619-.87.002-1.724-.291-2.18-.714zM92.767 41.099c0-1.666 1.285-2.911 3.033-2.911 1.732 0 3.016 1.236 3.016 2.911s-1.285 2.912-3.016 2.912c-1.749 0-3.033-1.245-3.033-2.912zm5.236 0c0-1.26-.943-2.187-2.204-2.187-1.277 0-2.22.927-2.22 2.187s.943 2.188 2.22 2.188c1.261 0 2.204-.928 2.204-2.188zM105.609 38.254v5.691h-.667l-3.415-4.244v4.244h-.813v-5.691h.667l3.415 4.244v-4.244h.813zM110.347 41.099c0-1.682 1.285-2.911 3.016-2.911.878 0 1.643.301 2.163.887l-.529.512c-.439-.464-.975-.675-1.601-.675-1.285 0-2.236.927-2.236 2.187s.951 2.188 2.236 2.188c.626 0 1.162-.219 1.601-.683l.529.512c-.52.585-1.285.895-2.171.895-1.723 0-3.008-1.229-3.008-2.912zM120.831 42.522h-3.025l-.626 1.423h-.837l2.578-5.691h.805l2.585 5.691h-.854l-.626-1.423zm-.285-.65l-1.227-2.789-1.228 2.789h2.455zM128.705 38.254v5.691h-.667l-3.415-4.244v4.244h-.813v-5.691h.667l3.415 4.244v-4.244h.813zM135.954 38.254l-2.496 5.691h-.805l-2.504-5.691h.878l2.049 4.675 2.065-4.675h.813zM140.779 42.522h-3.025l-.626 1.423h-.837l2.578-5.691h.805l2.585 5.691h-.854l-.626-1.423zm-.285-.65l-1.227-2.789-1.228 2.789h2.455zM143.238 43.295l.301-.635c.423.382 1.146.659 1.878.659.984 0 1.407-.382 1.407-.879 0-1.39-3.447-.511-3.447-2.626 0-.879.683-1.627 2.179-1.627.667 0 1.358.179 1.83.504l-.269.65a2.941 2.941 0 00-1.561-.464c-.967 0-1.382.407-1.382.903 0 1.39 3.447.52 3.447 2.61 0 .87-.699 1.619-2.203 1.619-.871.002-1.725-.291-2.18-.714z"></path></g></svg> 