<svg width="398" height="52" viewBox="0 0 398 52" fill="none" xmlns="http://www.w3.org/2000/svg">
<path fill-rule="evenodd" clip-rule="evenodd" d="M391.83 3.95999H397.38V0.339993H381.71V3.95999H387.2V24.16H391.83V3.95999ZM365.51 24.16H370.1V0.339993H365.51V24.16ZM341.1 20.56V3.95999L343.84 3.92999C344.435 3.93685 345.018 4.1051 345.525 4.41681C346.032 4.72851 346.445 5.17202 346.72 5.70001C347.499 7.07862 347.877 8.64785 347.81 10.23V14.23C347.88 15.822 347.502 17.4017 346.72 18.79C346.445 19.318 346.032 19.7615 345.525 20.0732C345.018 20.3849 344.435 20.5531 343.84 20.56H341.1ZM336.49 0.339993V24.16L343.84 24.15C345.01 24.1766 346.171 23.9418 347.238 23.4626C348.306 22.9833 349.253 22.2719 350.01 21.38C351.688 19.3853 352.559 16.8345 352.45 14.23V10.29C352.556 7.6828 351.686 5.12968 350.01 3.13C349.255 2.2334 348.31 1.51734 347.242 1.03451C346.174 0.551683 345.012 0.314359 343.84 0.339993H336.49ZM318.71 24.16H323.31H323.35V0.359982H318.73V15.56H318.64L311.06 0.339993H306.45V24.16H311.06V8.95999H311.16L318.71 24.16ZM293.42 15.9V0.339993H288.78V15.9C288.873 17.217 288.521 18.5271 287.78 19.62C287.437 20.021 287.012 20.343 286.533 20.5638C286.054 20.7846 285.533 20.899 285.005 20.899C284.478 20.899 283.956 20.7846 283.477 20.5638C282.998 20.343 282.573 20.021 282.23 19.62C281.489 18.5271 281.137 17.217 281.23 15.9V0.339993H276.64V15.9C276.574 17.0561 276.746 18.2134 277.145 19.3004C277.544 20.3874 278.162 21.3811 278.96 22.22C279.764 22.9873 280.713 23.5853 281.753 23.9787C282.792 24.372 283.9 24.5527 285.01 24.51C286.15 24.5802 287.292 24.404 288.357 23.9933C289.423 23.5826 290.388 22.9471 291.186 22.1301C291.984 21.3131 292.597 20.3337 292.982 19.2586C293.368 18.1835 293.517 17.038 293.42 15.9ZM256.57 11.93H253.21V3.95999H256.57C257.027 3.93567 257.482 4.02641 257.894 4.22384C258.307 4.42128 258.663 4.7191 258.93 5.08999C259.498 5.94403 259.781 6.95542 259.74 7.98001C259.783 8.98608 259.499 9.97896 258.93 10.81C258.661 11.1784 258.304 11.4738 257.892 11.6693C257.48 11.8649 257.026 11.9545 256.57 11.93ZM253.21 24.16V15.54L256.61 15.56C257.649 15.6105 258.687 15.4495 259.661 15.0868C260.636 14.7241 261.527 14.1673 262.28 13.45C263.627 11.9345 264.371 9.97747 264.371 7.95001C264.371 5.92255 263.627 3.96555 262.28 2.45001C261.526 1.73052 260.634 1.1723 259.658 0.809505C258.681 0.446707 257.641 0.286938 256.6 0.339993H248.6V24.16H253.21ZM212.61 13.64H219.89L219.94 13.65V10.05H212.66V3.95999H221.35V0.339993H208.05V24.16H221.33V20.56H212.61V13.64ZM195.55 16.86V16.77L190.99 16.76C191.101 17.8898 190.837 19.0246 190.24 19.99C189.925 20.3195 189.538 20.5727 189.11 20.7304C188.682 20.8881 188.224 20.9461 187.77 20.9C187.235 20.9363 186.7 20.8414 186.21 20.6236C185.72 20.4057 185.291 20.0715 184.96 19.65C184.256 18.4952 183.931 17.1489 184.03 15.8V8.70001C183.938 7.36245 184.24 6.02726 184.9 4.85998C185.193 4.44992 185.585 4.12042 186.04 3.90194C186.494 3.68346 186.997 3.58305 187.5 3.60998C187.991 3.56115 188.487 3.61799 188.955 3.77667C189.422 3.93535 189.85 4.19221 190.21 4.52999C190.847 5.47258 191.133 6.60823 191.02 7.73999H195.5V7.63998C195.56 5.07331 194.893 3.15999 193.5 1.89999C191.81 0.535724 189.668 -0.14254 187.5 -3.80826e-06C186.411 -0.0530174 185.323 0.123437 184.307 0.517941C183.29 0.912444 182.368 1.5162 181.6 2.29C180.059 4.06907 179.277 6.38088 179.42 8.73001V15.8C179.345 16.9701 179.507 18.1433 179.895 19.2497C180.284 20.3561 180.891 21.373 181.68 22.24C182.49 23.0113 183.449 23.6102 184.497 24.0003C185.546 24.3905 186.663 24.5639 187.78 24.51C189.878 24.6464 191.947 23.9615 193.55 22.6C194.93 21.3267 195.597 19.4133 195.55 16.86ZM159.04 11.01H156.55V10.99V3.94H159.07C159.496 3.91551 159.922 3.99351 160.312 4.16751C160.701 4.3415 161.044 4.60641 161.31 4.94C161.86 5.71034 162.132 6.64487 162.08 7.58999C162.137 8.50022 161.86 9.39997 161.3 10.12C161.013 10.4262 160.661 10.6649 160.27 10.8188C159.879 10.9727 159.459 11.038 159.04 11.01ZM156.55 24.16V14.61L159.31 14.59C159.724 14.5684 160.137 14.6482 160.514 14.8225C160.89 14.9968 161.218 15.2602 161.47 15.59C162.018 16.4206 162.281 17.4068 162.22 18.4V20.07C162.218 20.8591 162.268 21.6475 162.37 22.43C162.407 23.0676 162.665 23.6725 163.1 24.14H167.88V23.8C167.436 23.3731 167.147 22.8099 167.06 22.2C166.913 21.513 166.836 20.8126 166.83 20.11V18.38C166.871 17.1294 166.589 15.8893 166.01 14.78C165.409 13.7754 164.447 13.0385 163.32 12.72C164.332 12.245 165.191 11.4969 165.8 10.56C166.389 9.59495 166.688 8.48044 166.66 7.35C166.717 6.39819 166.568 5.44525 166.223 4.55639C165.878 3.66754 165.345 2.86375 164.66 2.20001C163.1 0.895103 161.101 0.23358 159.07 0.350002H151.94V24.16H156.55ZM130.77 13.61H138.05L138.1 13.65V10.05H130.82V3.95999H139.51V0.339993H126.21V24.16H139.49V20.56H130.77V13.61ZM102.55 17.98H102.46L102.42 18.01L97.99 0.339993H91.99V24.16H96.59V9.26001H96.68L100.95 24.16H104.04L108.34 9.16H108.44V24.16H113.02V0.309994H107.02L102.55 17.98ZM68.55 17.98H68.46L68.45 18.01L64.02 0.339993H58.02V24.16H62.62V9.26001H62.71L66.95 24.16H70.04L74.34 9.16H74.44V24.16H79.02V0.309994H73.02L68.55 17.98ZM39.73 4.94C40.5099 6.09561 40.8796 7.47941 40.78 8.86999H40.71V15.56C40.8286 16.9673 40.4769 18.3741 39.71 19.56C39.35 19.9965 38.8933 20.343 38.376 20.5722C37.8587 20.8013 37.2951 20.9067 36.73 20.88C36.1612 20.9131 35.5926 20.8107 35.0711 20.5812C34.5495 20.3517 34.0899 20.0017 33.73 19.56C32.9687 18.3717 32.6175 16.9668 32.73 15.56V8.88C32.6256 7.49283 32.9767 6.10947 33.73 4.94C34.0888 4.49701 34.5483 4.1461 35.0701 3.9165C35.5919 3.6869 36.161 3.58526 36.73 3.61999C37.2982 3.59248 37.8649 3.6974 38.3855 3.92648C38.9062 4.15556 39.3665 4.50254 39.73 4.94ZM44.8694 19.0836C45.2768 17.9559 45.4505 16.757 45.38 15.56V8.91C45.4488 7.7108 45.2734 6.51012 44.8642 5.38076C44.4551 4.25141 43.8209 3.21689 43 2.33999C42.1637 1.53447 41.1719 0.90796 40.0853 0.498745C38.9986 0.0895303 37.8399 -0.0937968 36.68 -0.0400124C35.5245 -0.0949903 34.37 0.0878897 33.288 0.49728C32.2061 0.906671 31.2197 1.53386 30.39 2.33999C29.5807 3.22354 28.9559 4.25981 28.5524 5.388C28.1489 6.51619 27.9747 7.71359 28.04 8.91V15.56C27.9711 16.756 28.1446 17.9537 28.5501 19.081C28.9557 20.2083 29.5849 21.242 30.4 22.12C32.1497 23.6383 34.3884 24.4742 36.705 24.4742C39.0216 24.4742 41.2604 23.6383 43.01 22.12C43.8293 21.2444 44.4619 20.2114 44.8694 19.0836ZM16.04 16.83V16.74L11.49 16.73C11.5999 17.8597 11.3365 18.9943 10.74 19.96C10.4246 20.2895 10.0381 20.5427 9.61014 20.7004C9.18213 20.8581 8.7238 20.9161 8.27 20.87C7.73523 20.9063 7.19969 20.8114 6.70996 20.5936C6.22023 20.3757 5.79113 20.0415 5.46001 19.62C4.75579 18.4652 4.4306 17.1189 4.53001 15.77V8.66998C4.43493 7.33342 4.73393 5.99832 5.39 4.82998C5.68341 4.41992 6.07546 4.09042 6.52989 3.87194C6.98433 3.65347 7.4865 3.55305 7.99 3.57998C8.4812 3.53115 8.97716 3.58799 9.44458 3.74667C9.912 3.90535 10.3401 4.16221 10.7 4.5C11.335 5.44327 11.6214 6.57836 11.51 7.70999H16V7.60998C16.0667 5.04331 15.4 3.12999 14 1.86999C12.31 0.504844 10.1677 -0.173531 8 -0.0300026C6.91101 -0.0830161 5.82303 0.0934379 4.80662 0.487942C3.79022 0.882446 2.86808 1.4862 2.1 2.26001C0.55926 4.03907 -0.223302 6.35088 -0.0799879 8.70001V15.77C-0.155294 16.9394 0.00505027 18.112 0.391554 19.2183C0.778059 20.3245 1.38285 21.3419 2.17001 22.21C2.98071 22.9808 3.93919 23.5794 4.98761 23.9695C6.03602 24.3597 7.15262 24.5333 8.27 24.48C10.3682 24.6154 12.437 23.9306 14.04 22.57C15.4133 21.2967 16.08 19.3833 16.04 16.83ZM333.02 50.95H334.71V49.28H333.02V50.95ZM325.81 38.95L324.25 47.48H324.22L322.22 38.95H320.76L318.76 47.46H318.71L317.13 38.95H315.37L317.83 50.95H319.37L321.47 42.44L323.56 50.95H325.1L327.56 38.95H325.81ZM306.94 40.9C307.433 41.5916 307.669 42.433 307.61 43.28L307.62 43.24V46.56C307.68 47.4133 307.443 48.2612 306.95 48.96C306.716 49.2334 306.422 49.4488 306.09 49.5893C305.759 49.7299 305.399 49.7917 305.04 49.77C304.688 49.7909 304.336 49.7284 304.013 49.5877C303.69 49.4469 303.404 49.2319 303.18 48.96C302.7 48.2555 302.471 47.4103 302.53 46.56V43.28C302.473 42.4362 302.702 41.5977 303.18 40.9C303.402 40.6283 303.686 40.4133 304.008 40.2725C304.329 40.1317 304.68 40.0691 305.03 40.09C305.389 40.0699 305.748 40.1324 306.079 40.2728C306.41 40.4133 306.705 40.6278 306.94 40.9ZM309.028 48.38C309.225 47.8085 309.308 47.2035 309.27 46.6V46.56V43.31C309.343 42.0915 308.929 40.894 308.12 39.98C307.716 39.5764 307.233 39.2613 306.701 39.0547C306.169 38.8481 305.6 38.7545 305.03 38.78C304.474 38.7604 303.92 38.857 303.403 39.0636C302.887 39.2702 302.419 39.5824 302.03 39.98C301.234 40.9004 300.828 42.0952 300.9 43.31V46.6C300.825 47.8153 301.231 49.0113 302.03 49.93C302.42 50.3259 302.888 50.6361 303.405 50.841C303.921 51.0459 304.475 51.1409 305.03 51.12C305.599 51.1468 306.168 51.0548 306.7 50.85C307.232 50.6451 307.716 50.3318 308.12 49.93C308.522 49.4783 308.831 48.9516 309.028 48.38ZM290.26 44.5H288.51V40.23H290.34C290.611 40.2095 290.882 40.2501 291.135 40.3488C291.388 40.4475 291.615 40.6017 291.8 40.8C292.151 41.2569 292.325 41.8251 292.29 42.4C292.324 42.9611 292.145 43.5144 291.79 43.95C291.588 44.1437 291.347 44.2928 291.083 44.3875C290.82 44.4822 290.539 44.5206 290.26 44.5ZM288.48 50.94V45.78L290.53 45.66C290.776 45.6474 291.021 45.6934 291.245 45.7943C291.469 45.8951 291.666 46.0479 291.82 46.24C292.154 46.7008 292.32 47.2619 292.29 47.83V48.83C292.291 49.2151 292.321 49.5996 292.38 49.98C292.409 50.2898 292.539 50.5813 292.75 50.81H294.47V50.62C294.273 50.4161 294.141 50.1587 294.09 49.88C294.019 49.5514 293.982 49.2163 293.98 48.88V47.88C294.003 47.2545 293.861 46.634 293.57 46.08C293.268 45.5917 292.793 45.2348 292.24 45.08C292.76 44.8474 293.201 44.4687 293.51 43.99C293.808 43.4958 293.961 42.9272 293.95 42.35C293.98 41.8859 293.912 41.4205 293.75 40.9845C293.588 40.5485 293.336 40.1517 293.01 39.82C292.267 39.1925 291.31 38.8771 290.34 38.94H286.81V50.94H288.48ZM278.23 50.59C278.777 50.3066 279.245 49.8906 279.59 49.38L279.6 49.34V44.89H275.71V46.11H277.93V48.9C277.75 49.1765 277.498 49.398 277.2 49.54C276.773 49.7316 276.307 49.8206 275.84 49.8C275.496 49.815 275.152 49.7506 274.837 49.6119C274.521 49.4732 274.242 49.2639 274.02 49C273.529 48.323 273.291 47.4945 273.35 46.66V43.08C273.292 42.2656 273.518 41.4564 273.99 40.79C274.205 40.5288 274.477 40.3213 274.786 40.1841C275.095 40.047 275.432 39.9839 275.77 40C276.062 39.9812 276.356 40.0249 276.63 40.1284C276.904 40.2319 277.153 40.3927 277.36 40.6C277.751 41.0691 277.948 41.6703 277.91 42.28H279.55C279.579 41.8048 279.505 41.3289 279.332 40.8852C279.16 40.4415 278.893 40.0405 278.55 39.71C277.714 39.0684 276.68 38.7383 275.627 38.7766C274.574 38.815 273.567 39.2193 272.78 39.92C272.391 40.3588 272.093 40.87 271.903 41.4243C271.712 41.9786 271.633 42.565 271.67 43.15V46.71C271.631 47.3029 271.713 47.8976 271.911 48.458C272.108 49.0183 272.418 49.5327 272.82 49.97C273.217 50.3533 273.688 50.6527 274.203 50.8503C274.718 51.0479 275.268 51.1396 275.82 51.12C276.655 51.1523 277.485 50.9698 278.23 50.59ZM255.39 50.95H257.08V49.28H255.39V50.95ZM247.71 44.95H245.42L245.48 44.94V40.24H247.7C247.984 40.2213 248.268 40.2738 248.526 40.3925C248.785 40.5112 249.009 40.6925 249.18 40.92C249.526 41.4139 249.702 42.0073 249.68 42.61C249.704 43.2068 249.528 43.7946 249.18 44.28C249.008 44.5029 248.784 44.6804 248.528 44.7971C248.272 44.9139 247.991 44.9664 247.71 44.95ZM245.42 50.96V46.23H247.71C248.2 46.2569 248.69 46.182 249.15 46.0098C249.609 45.8377 250.028 45.5722 250.38 45.23C251.005 44.4943 251.348 43.5604 251.348 42.595C251.348 41.6297 251.005 40.6957 250.38 39.96C250.028 39.6178 249.609 39.3523 249.15 39.1802C248.69 39.0081 248.2 38.9331 247.71 38.96H243.75V50.96H245.42ZM234.45 40.92C234.943 41.6116 235.18 42.453 235.12 43.3V46.56C235.181 47.4134 234.944 48.2615 234.45 48.96C234.216 49.2334 233.922 49.4488 233.59 49.5893C233.259 49.7299 232.899 49.7917 232.54 49.77C232.188 49.7909 231.836 49.7284 231.513 49.5877C231.19 49.4469 230.904 49.2319 230.68 48.96C230.2 48.2555 229.971 47.4103 230.03 46.56V43.3C229.973 42.4561 230.202 41.6176 230.68 40.92C230.902 40.6483 231.186 40.4333 231.508 40.2925C231.829 40.1517 232.18 40.0891 232.53 40.11C232.891 40.0883 233.252 40.1501 233.585 40.2906C233.918 40.4311 234.214 40.6464 234.45 40.92ZM236.569 48.3403C236.766 47.7687 236.848 47.1636 236.81 46.56H236.82V43.27C236.855 42.6659 236.771 42.0609 236.572 41.4895C236.373 40.918 236.063 40.3915 235.66 39.94C235.257 39.5359 234.774 39.2204 234.242 39.0138C233.71 38.8072 233.14 38.7139 232.57 38.74C232.014 38.7166 231.458 38.8115 230.941 39.0184C230.424 39.2252 229.957 39.5393 229.57 39.94C228.774 40.8604 228.368 42.0552 228.44 43.27V46.56C228.365 47.7753 228.771 48.9713 229.57 49.89C229.96 50.2859 230.428 50.5961 230.945 50.801C231.461 51.0059 232.015 51.1009 232.57 51.08C233.139 51.1068 233.708 51.0148 234.24 50.81C234.772 50.6051 235.256 50.2918 235.66 49.89C236.062 49.4386 236.371 48.9119 236.569 48.3403ZM222.66 49.64H217.81H217.8V38.91H216.13V50.91H222.66V49.64ZM204.66 45.34H208.73L208.71 45.33V44.05H204.66V40.19H209.41V38.91H202.98V50.91H209.45V49.64H204.66V45.34ZM192.16 48.89L191.99 48.16H191.96L189.46 38.91H187.68L191.33 50.91H192.96L196.62 38.91H194.83L192.34 48.16L192.16 48.89ZM177.21 45.34H181.28V45.33V44.05H177.21V40.19H181.96V38.91H175.54V50.91H182.01V49.64H177.21V45.34ZM162.39 49.65V40.2L164.12 40.21C164.519 40.2014 164.914 40.2975 165.265 40.4887C165.616 40.6799 165.911 40.9596 166.12 41.3C166.642 42.123 166.901 43.0861 166.86 44.06V45.78C166.903 46.7637 166.645 47.7372 166.12 48.57C165.909 48.9086 165.614 49.1862 165.263 49.3757C164.913 49.5651 164.519 49.6596 164.12 49.65H162.39ZM160.71 38.95V50.95H164.11C164.714 50.9672 165.313 50.8474 165.864 50.5997C166.415 50.3521 166.902 49.9829 167.29 49.52C168.142 48.4766 168.58 47.1558 168.52 45.81V44.1C168.578 42.7545 168.14 41.4344 167.29 40.39C166.903 39.9252 166.416 39.5542 165.865 39.3048C165.315 39.0554 164.714 38.9341 164.11 38.95H160.71ZM144.16 50.95H145.85V49.28H144.16V50.95ZM135.17 50.95H136.85L136.8 50.94V38.94H135.12V47.76L130.47 38.93H128.8V50.93H130.47V42.1H130.52L135.17 50.95ZM120.22 50.59C120.768 50.3069 121.235 49.8909 121.58 49.38L121.6 49.34V44.89H117.71V46.11H119.98V48.9C119.798 49.1783 119.542 49.4 119.24 49.54C118.813 49.7316 118.347 49.8206 117.88 49.8C117.536 49.815 117.192 49.7506 116.877 49.6119C116.561 49.4732 116.282 49.2639 116.06 49C115.569 48.323 115.331 47.4945 115.39 46.66V43.08C115.336 42.2645 115.565 41.4554 116.04 40.79C116.255 40.5294 116.528 40.3223 116.837 40.1852C117.146 40.0481 117.482 39.9847 117.82 40C118.114 39.9804 118.409 40.0237 118.685 40.1272C118.961 40.2307 119.211 40.3919 119.42 40.6C119.81 41.0696 120.007 41.6704 119.97 42.28H121.54C121.569 41.8048 121.495 41.3289 121.322 40.8852C121.15 40.4415 120.883 40.0405 120.54 39.71C119.705 39.0665 118.671 38.7353 117.617 38.7737C116.563 38.812 115.556 39.2175 114.77 39.92C114.381 40.3585 114.083 40.8696 113.892 41.424C113.701 41.9784 113.623 42.565 113.66 43.15V46.71C113.621 47.3029 113.703 47.8976 113.901 48.458C114.098 49.0183 114.408 49.5327 114.81 49.97C115.207 50.3533 115.678 50.6527 116.193 50.8503C116.708 51.0479 117.258 51.1396 117.81 51.12C118.645 51.1523 119.475 50.9698 120.22 50.59ZM104.8 50.95H106.47V38.95H104.8V50.95ZM95.63 46.59C95.95 46.9693 96.1175 47.4541 96.1 47.95L96.17 47.86C96.1816 48.1171 96.1406 48.374 96.0495 48.6147C95.9584 48.8555 95.819 49.0751 95.64 49.26C95.4435 49.4395 95.2131 49.5779 94.9624 49.6672C94.7117 49.7565 94.4457 49.7948 94.18 49.78C93.5853 49.7998 93.0067 49.5842 92.57 49.18C92.3393 48.9397 92.1622 48.6533 92.0501 48.3396C91.9381 48.0259 91.8938 47.6921 91.92 47.36H90.3V47.41C90.2558 47.9179 90.3355 48.4289 90.5324 48.8992C90.7292 49.3695 91.0372 49.785 91.43 50.11C92.2094 50.7337 93.1819 51.0662 94.18 51.05C95.1369 51.0932 96.0762 50.7836 96.82 50.18C97.1517 49.8922 97.4139 49.5332 97.5871 49.1297C97.7603 48.7261 97.8399 48.2887 97.82 47.85C97.8363 47.4387 97.7694 47.0282 97.6233 46.6434C97.4773 46.2585 97.2551 45.907 96.97 45.61C96.2576 44.9542 95.4014 44.4747 94.47 44.21C93.8248 43.9989 93.2294 43.6587 92.72 43.21C92.5488 43.0427 92.4142 42.8416 92.3247 42.6196C92.2351 42.3975 92.1927 42.1593 92.2 41.92C92.1778 41.4078 92.3533 40.9066 92.69 40.52C92.8634 40.3292 93.0774 40.1798 93.3162 40.0829C93.5551 39.986 93.8127 39.944 94.07 39.96C94.3481 39.9508 94.6248 40.0045 94.8793 40.117C95.1338 40.2296 95.3596 40.3981 95.54 40.61C95.9307 41.0917 96.1301 41.7005 96.1 42.32H97.71C97.7313 41.8471 97.6533 41.375 97.4811 40.9341C97.3088 40.4932 97.0462 40.0933 96.71 39.76C96.3572 39.4193 95.9381 39.1548 95.4788 38.9827C95.0195 38.8107 94.5298 38.7349 94.04 38.76C93.0998 38.7243 92.1824 39.054 91.48 39.68C91.152 39.9729 90.8924 40.3344 90.7196 40.7387C90.5468 41.1431 90.465 41.5805 90.48 42.02C90.462 42.4315 90.5332 42.8419 90.6885 43.2234C90.8438 43.6048 91.0797 43.9482 91.38 44.23C92.1348 44.8654 93.0185 45.3294 93.97 45.59C94.595 45.7866 95.1641 46.1294 95.63 46.59ZM79.15 45.4H83.22L83.21 45.39V44.11H79.14V40.25H83.89V38.97H77.47V50.97H83.94V49.7H79.15V45.4ZM64.33 49.71V40.26L66.06 40.27C66.4595 40.2614 66.8543 40.3575 67.2051 40.5487C67.556 40.7399 67.8507 41.0196 68.06 41.36C68.5823 42.183 68.8405 43.1461 68.8 44.12V45.84C68.8435 46.8237 68.5853 47.7972 68.06 48.63C67.8495 48.9685 67.5542 49.2462 67.2034 49.4357C66.8527 49.6251 66.4585 49.7196 66.06 49.71H64.33ZM62.71 38.95V50.95H66.11C66.7136 50.9672 67.3133 50.8474 67.864 50.5997C68.4148 50.3521 68.9023 49.9829 69.29 49.52C70.1404 48.4756 70.5781 47.1556 70.52 45.81V44.1C70.5762 42.7547 70.1387 41.4353 69.29 40.39C68.9032 39.9252 68.4162 39.5542 67.8654 39.3048C67.3146 39.0554 66.7144 38.9341 66.11 38.95H62.71Z" fill="white"/>
</svg>
