<svg width="26" height="16" viewBox="0 0 26 16" fill="none" xmlns="http://www.w3.org/2000/svg">
<path d="M24.25 0.901657H21.3333C21.0164 0.9006 20.7111 1.01758 20.4801 1.22857C20.2491 1.43957 20.11 1.72856 20.0912 2.0362C16.9633 1.81051 15.5458 1.19259 14.5946 0.776452C13.9872 0.514225 13.3126 0.436169 12.6588 0.552473C12.0051 0.668777 11.4026 0.974038 10.93 1.42841L10.655 1.69624C9.04787 1.56197 7.43224 1.5537 5.82375 1.67153C5.73497 1.44354 5.57645 1.24751 5.36956 1.10985C5.16266 0.972194 4.91734 0.89953 4.66667 0.901657H1.75C1.41848 0.901657 1.10054 1.02973 0.866116 1.25769C0.631696 1.48566 0.5 1.79485 0.5 2.11724L0.5 9.41075C0.5 9.73314 0.631696 10.0423 0.866116 10.2703C1.10054 10.4983 1.41848 10.6263 1.75 10.6263H3.98458C4.2048 10.6271 4.42125 10.5707 4.61165 10.4631C4.80206 10.3555 4.95955 10.2005 5.06792 10.0141C5.8143 10.6475 6.50516 11.3402 7.13333 12.085C7.84667 12.8752 8.73458 13.8586 9.93042 15.0231C10.1379 15.2257 10.3968 15.3712 10.6809 15.445C10.9649 15.5189 11.264 15.5183 11.5477 15.4434C11.8315 15.3685 12.0898 15.222 12.2965 15.0186C12.5032 14.8153 12.6509 14.5624 12.7246 14.2856C13.0479 14.5275 13.4498 14.6482 13.857 14.6259C14.2642 14.6036 14.6496 14.4397 14.9429 14.1641C15.176 13.9342 15.3333 13.6421 15.395 13.3249C15.7071 13.4673 16.0564 13.514 16.3964 13.4588C16.7365 13.4036 17.0512 13.2491 17.2987 13.0158C17.5781 12.7446 17.7489 12.3854 17.7804 12.0028C17.984 12.0505 18.1948 12.0619 18.4025 12.0364C18.6525 12.0069 18.8921 11.9216 19.1026 11.7871C19.3131 11.6527 19.4887 11.4727 19.6158 11.2613C19.7259 11.0713 19.7954 10.8616 19.8202 10.6449C19.8449 10.4281 19.8245 10.2088 19.76 9.9999C20.1671 9.79001 20.4975 9.59471 20.76 9.42655L20.7687 9.52096C20.7958 9.82378 20.9391 10.1056 21.1701 10.3104C21.4011 10.5152 21.7028 10.628 22.0154 10.6263H24.25C24.5815 10.6263 24.8995 10.4983 25.1339 10.2703C25.3683 10.0423 25.5 9.73314 25.5 9.41075V2.11724C25.5 1.79485 25.3683 1.48566 25.1339 1.25769C24.8995 1.02973 24.5815 0.901657 24.25 0.901657ZM3.98458 9.81594H1.75C1.63949 9.81594 1.53351 9.77325 1.45537 9.69726C1.37723 9.62128 1.33333 9.51821 1.33333 9.41075V2.11724C1.33333 2.00978 1.37723 1.90671 1.45537 1.83073C1.53351 1.75474 1.63949 1.71205 1.75 1.71205H4.66667C4.72469 1.71182 4.78212 1.72338 4.83528 1.74598C4.88844 1.76858 4.93616 1.80174 4.97539 1.84331C5.01461 1.88489 5.04448 1.93398 5.06306 1.98743C5.08165 2.04088 5.08856 2.09751 5.08333 2.15371L4.40167 9.44722C4.39227 9.54831 4.34421 9.64229 4.26697 9.71057C4.18974 9.77885 4.08896 9.81646 3.98458 9.81594ZM18.8942 10.8553C18.8309 10.9587 18.744 11.0465 18.6402 11.1118C18.5363 11.1772 18.4183 11.2184 18.2954 11.2321C18.1682 11.2494 18.0386 11.2382 17.9165 11.1994C17.7943 11.1606 17.683 11.0951 17.5908 11.008L14.6454 8.14087C14.5668 8.06706 14.4616 8.02622 14.3523 8.02714C14.2431 8.02806 14.1386 8.07068 14.0613 8.1458C13.9841 8.22093 13.9403 8.32256 13.9393 8.4288C13.9384 8.53504 13.9804 8.63739 14.0562 8.71381L16.7083 11.2949V11.2973L16.7108 11.2994C16.8658 11.4515 16.9525 11.657 16.9521 11.8711C16.9517 12.0852 16.8642 12.2904 16.7087 12.442C16.5504 12.5913 16.3385 12.6748 16.1179 12.6748C15.8973 12.6748 15.6854 12.5913 15.5271 12.442L12.5833 9.57485C12.5446 9.53718 12.4987 9.50729 12.4481 9.48688C12.3976 9.46647 12.3434 9.45594 12.2886 9.4559C12.2339 9.45587 12.1797 9.46632 12.1291 9.48666C12.0785 9.507 12.0325 9.53683 11.9937 9.57445C11.955 9.61207 11.9243 9.65674 11.9033 9.70591C11.8823 9.75509 11.8715 9.8078 11.8714 9.86104C11.8714 9.91428 11.8821 9.96701 11.9031 10.0162C11.924 10.0654 11.9546 10.1101 11.9933 10.1478L14.3492 12.442C14.4266 12.5173 14.4881 12.6067 14.53 12.705C14.572 12.8034 14.5936 12.9089 14.5936 13.0154C14.5936 13.1219 14.572 13.2273 14.53 13.3257C14.4881 13.4241 14.4266 13.5134 14.3492 13.5887C14.191 13.737 13.9799 13.8199 13.7602 13.8199C13.5405 13.8199 13.3294 13.737 13.1712 13.5887L10.5175 11.0036C10.4791 10.9649 10.4331 10.934 10.3823 10.9128C10.3314 10.8915 10.2767 10.8804 10.2214 10.8799C10.1661 10.8794 10.1112 10.8897 10.06 10.91C10.0088 10.9304 9.96229 10.9605 9.92317 10.9985C9.88405 11.0366 9.85311 11.0818 9.83216 11.1316C9.81121 11.1814 9.80066 11.2348 9.80115 11.2886C9.80163 11.3424 9.81312 11.3956 9.83496 11.445C9.85679 11.4944 9.88854 11.5391 9.92833 11.5765L11.6962 13.2978L11.7021 13.3018C11.8566 13.4544 11.9429 13.66 11.9423 13.8741C11.9418 14.0882 11.8544 14.2935 11.6992 14.4453C11.5394 14.5922 11.3278 14.674 11.1079 14.674C10.888 14.674 10.6765 14.5922 10.5167 14.4453C9.33958 13.2994 8.46167 12.3269 7.75625 11.5453C7.02231 10.6525 6.18529 9.84462 5.26167 9.13765L5.8875 2.48192C7.21365 2.37717 8.54603 2.36972 9.87333 2.45963L8.30958 3.98114C8.04672 4.23661 7.86765 4.56215 7.79502 4.91659C7.7224 5.27102 7.75947 5.63844 7.90156 5.97239C8.04365 6.30634 8.28437 6.59182 8.59329 6.79273C8.90221 6.99364 9.26545 7.10097 9.63708 7.10114H9.64042C9.88633 7.10149 10.1298 7.05407 10.3567 6.96167C10.5835 6.86926 10.789 6.73374 10.9613 6.56304L12.8779 4.69914C12.9166 4.66147 12.9626 4.63158 13.0131 4.61119C13.0637 4.5908 13.118 4.5803 13.1727 4.5803C13.2275 4.5803 13.2817 4.5908 13.3323 4.61119C13.3828 4.63158 13.4288 4.66147 13.4675 4.69914L18.7021 9.79487C18.7666 9.85769 18.8218 9.92887 18.8662 10.0064C18.9463 10.1333 18.991 10.2784 18.9959 10.4272C19.0008 10.5761 18.9657 10.7236 18.8942 10.8553ZM19.3525 9.29203C19.3312 9.26893 19.3108 9.2434 19.2896 9.22152L14.0571 4.12336C13.8223 3.89582 13.5044 3.76805 13.1729 3.76805C12.8415 3.76805 12.5235 3.89582 12.2887 4.12336L10.37 5.98969C10.2748 6.08432 10.1611 6.15949 10.0356 6.21078C9.91009 6.26206 9.7753 6.28842 9.63917 6.28832H9.63708C9.50014 6.28847 9.36452 6.26215 9.23813 6.21088C9.11174 6.15961 8.99708 6.08443 8.90083 5.98969C8.7057 5.79938 8.59604 5.54165 8.59583 5.2729C8.59489 5.13964 8.62122 5.00752 8.6733 4.88425C8.72537 4.76098 8.80216 4.64902 8.89917 4.55489L11.5196 2.00217C11.8723 1.6632 12.3219 1.43549 12.8097 1.34875C13.2975 1.26201 13.8009 1.32027 14.2542 1.51593C15.2079 1.93369 16.7875 2.6213 20.1467 2.85308L20.6746 8.50109C20.2556 8.79693 19.814 9.06134 19.3538 9.29203H19.3525ZM24.6667 9.41075C24.6667 9.51821 24.6228 9.62128 24.5446 9.69726C24.4665 9.77325 24.3605 9.81594 24.25 9.81594H22.0154C21.9111 9.81635 21.8104 9.77871 21.7333 9.71044C21.6561 9.64217 21.6081 9.54824 21.5987 9.44722L20.9171 2.15371C20.9119 2.09755 20.9188 2.04095 20.9373 1.98752C20.9559 1.9341 20.9857 1.88504 21.0249 1.84346C21.0641 1.80189 21.1117 1.76873 21.1649 1.7461C21.218 1.72347 21.2753 1.71187 21.3333 1.71205H24.25C24.3605 1.71205 24.4665 1.75474 24.5446 1.83073C24.6228 1.90671 24.6667 2.00978 24.6667 2.11724V9.41075Z" fill="#FC766A" stroke="#FC766A"/>
</svg>
