<svg width="36" height="36" viewBox="0 0 36 36" fill="none" xmlns="http://www.w3.org/2000/svg">
<path d="M33.207 0H2.79349C1.25308 0 0 1.25294 0 2.7932V26.9766C0 28.5169 1.25308 29.7698 2.79349 29.7698H12.4615V33.231H10.3846C9.61954 33.231 8.99993 33.8506 8.99993 34.6155C8.99993 35.3805 9.61954 36 10.3846 36H25.6154C26.3805 36 27.0001 35.3805 27.0001 34.6155C27.0001 33.8506 26.3805 33.231 25.6154 33.231H23.5385V29.7664H33.2065C34.7469 29.7664 36 28.5134 36 26.9732V2.79328C36 1.25303 34.7469 8.87271e-05 33.2065 8.87271e-05L33.207 0ZM20.7697 33.2275H15.2312V29.7663H20.7697V33.2275ZM33.207 26.9976H2.79349C2.77964 26.9976 2.76926 26.9872 2.76926 26.9734L2.79349 2.7691L33.2309 2.79333L33.207 26.9976ZM7.61553 20.7677C7.61553 20.0027 8.23513 19.3832 9.00015 19.3832H10.3848V12.4608C10.3848 11.6958 11.0044 11.0763 11.7694 11.0763C12.5344 11.0763 13.154 11.6958 13.154 12.4608V19.3832H16.6156V8.30733C16.6156 7.54239 17.2352 6.92285 18.0002 6.92285C18.7652 6.92285 19.3848 7.54239 19.3848 8.30733V19.3832H22.8464V10.3843C22.8464 9.61933 23.466 8.99979 24.231 8.99979C24.9961 8.99979 25.6157 9.61933 25.6157 10.3843V19.3832H27.0003C27.7653 19.3832 28.3849 20.0027 28.3849 20.7677C28.3849 21.5326 27.7653 22.1521 27.0003 22.1521H9.00015C8.23513 22.1521 7.61553 21.5326 7.61553 20.7677Z" fill="currentColor"/>
</svg>
