<svg width="36" height="36" viewBox="0 0 36 36" fill="none" xmlns="http://www.w3.org/2000/svg">
<path d="M23.8072 16.106H21.9654L18.4904 21.8992C18.2577 22.2858 17.8406 22.5233 17.3898 22.5233H17.2871C16.801 22.4848 16.3791 22.1735 16.1978 21.7211L12.0249 11.2831L9.50449 15.4835C9.27186 15.8686 8.85634 16.106 8.4055 16.106H5.83854C5.1294 16.106 4.55506 15.5317 4.55506 14.8225C4.55506 14.1134 5.1294 13.539 5.83854 13.539H7.67714L11.1554 7.7442C11.4041 7.32227 11.8709 7.07999 12.3587 7.12172C12.8448 7.16023 13.2667 7.47147 13.448 7.92389L17.6209 18.3553L20.1397 14.1582C20.3723 13.7731 20.7894 13.5373 21.2403 13.5389H23.8072C24.5164 13.5389 25.0907 14.1132 25.0907 14.8224C25.0907 15.5315 24.5163 16.106 23.8072 16.106ZM35.6247 35.6246C35.1241 36.1251 34.3123 36.1251 33.8101 35.6246L24.3042 26.1173C20.3735 29.4175 15.015 30.4458 10.1427 28.8335C5.27208 27.2195 1.58346 23.1972 0.399372 18.2045C-0.784634 13.2118 0.7042 7.96078 4.33163 4.33167C7.96066 0.704211 13.2117 -0.784642 18.2043 0.399375C23.1969 1.58339 27.2191 5.27172 28.8332 10.1428C30.4456 15.0152 29.4172 20.3738 26.117 24.3044L35.623 33.8088C35.8636 34.0495 36 34.3752 36 34.7153C36 35.057 35.8653 35.3823 35.6247 35.6246ZM14.8228 27.0155C18.0572 27.0155 21.1585 25.7304 23.4445 23.4442C25.7307 21.158 27.0158 18.0568 27.0158 14.8224C27.0158 11.588 25.7307 8.48666 23.4445 6.2006C21.1583 3.91438 18.0572 2.62929 14.8228 2.62929C11.5885 2.62929 8.48715 3.91438 6.20112 6.2006C3.91492 8.48682 2.62984 11.588 2.62984 14.8224C2.63304 18.0552 3.91972 21.1548 6.20592 23.4393C8.49052 25.7255 11.5901 27.0123 14.8228 27.0155Z" fill="currentColor"/>
</svg>
