<svg width="22" height="22" viewBox="0 0 22 22" fill="none" xmlns="http://www.w3.org/2000/svg">
<path d="M3.50353 7.60557C3.25863 7.36068 3.25863 6.96639 3.50353 6.72564L9.68014 0.545292C10.4066 -0.181071 11.5896 -0.181071 12.3201 0.541141L18.5217 6.72149C18.7666 6.96223 18.7666 7.35653 18.5217 7.60142C18.4014 7.72179 18.2395 7.78405 18.0817 7.78405C17.924 7.78405 17.7621 7.72179 17.6418 7.60142L11.6229 1.60808V15.9815C11.6229 16.326 11.3448 16.6041 11.0003 16.6041C10.6558 16.6041 10.3776 16.326 10.3776 15.9815V1.61206L4.3838 7.6054C4.13889 7.84614 3.74871 7.84614 3.5038 7.6054L3.50353 7.60557ZM21.3774 15.359C21.0329 15.359 20.7548 15.6371 20.7548 15.9816V20.1322C20.7548 20.4767 20.4767 20.7548 20.1321 20.7548H1.86797C1.52343 20.7548 1.24531 20.4767 1.24531 20.1322V15.9816C1.24531 15.6371 0.967191 15.359 0.622655 15.359C0.27812 15.359 0 15.6371 0 15.9816V20.1322C0 21.1616 0.838478 22 1.86791 22H20.1321C21.1615 22 22 21.1616 22 20.1322V15.9816C22 15.6371 21.722 15.359 21.3774 15.359Z" fill="white"/>
</svg>
