<svg width="36" height="36" viewBox="0 0 36 36" fill="none" xmlns="http://www.w3.org/2000/svg">
<path fill-rule="evenodd" clip-rule="evenodd" d="M0 5.02893V34.3526C0.022051 35.2157 0.793865 35.9779 1.64753 36H30.9727C31.8311 35.978 32.5982 35.211 32.6202 34.3526V16.1605L32.6218 16.1353H29.8055V16.1384L29.2448 16.1369V32.6251H3.37405V6.75675H19.8384L19.8636 6.75832V3.38007L1.73596 3.3785C0.814513 3.3785 0.0472577 4.11229 0 5.02893ZM24.6752 0H34.2643C35.1998 0 35.9779 0.776455 36 1.65056V11.8895L35.4393 11.8879V11.891H32.623V5.76906L17.5054 20.8837L15.116 18.4945L30.2336 3.37825H24.1111L24.1142 2.4993e-06L24.6749 0.00157725L24.6752 0Z" fill="currentColor"/>
</svg>
