<svg width="28" height="28" viewBox="0 0 28 28" fill="none" xmlns="http://www.w3.org/2000/svg">
<path d="M19.5996 0.400391C19.8648 0.400391 20.1191 0.505824 20.3066 0.693359C20.4942 0.880896 20.5996 1.13517 20.5996 1.40039V4.59961H26.5996C26.8646 4.59961 27.1191 4.70529 27.3066 4.89258C27.4941 5.08002 27.5995 5.33453 27.5996 5.59961V26.5996C27.5996 26.8648 27.4942 27.1191 27.3066 27.3066C27.1191 27.4942 26.8648 27.5996 26.5996 27.5996H1.40039C1.13517 27.5996 0.880896 27.4942 0.693359 27.3066C0.505823 27.1191 0.400391 26.8648 0.400391 26.5996V5.59961C0.400494 5.33453 0.505915 5.08002 0.693359 4.89258C0.880858 4.70529 1.13536 4.59961 1.40039 4.59961H7.40039V1.40039C7.40039 1.13517 7.50582 0.880896 7.69336 0.693359C7.8809 0.505823 8.13517 0.400391 8.40039 0.400391C8.66547 0.400494 8.91998 0.505916 9.10742 0.693359C9.29471 0.880858 9.40039 1.13536 9.40039 1.40039V4.59961H18.5996V1.40039C18.5996 1.13536 18.7053 0.880859 18.8926 0.693359C19.08 0.505916 19.3345 0.400494 19.5996 0.400391ZM2.40039 25.5996H25.5996V13.5996H2.40039V25.5996ZM2.40039 11.5996H25.5996V6.59961H2.40039V11.5996Z" fill="white" stroke="#1B0E0B" stroke-width="0.8"/>
</svg>
