<svg width="28" height="35" viewBox="0 0 28 35" fill="none" xmlns="http://www.w3.org/2000/svg">
<path d="M14 0.200195C19.6876 0.200338 24.2998 4.8123 24.2998 10.5V18.8818L24.4707 18.9072C25.355 19.0347 26.1962 19.4655 26.8271 20.1807L26.9512 20.3271C28.2893 22.0026 28.0156 24.4459 26.3389 25.7842C25.2169 26.6809 24.0247 27.4393 22.7832 28.0586L22.6318 28.1338L22.6807 28.2949L24.2588 33.5557C24.412 34.0665 24.122 34.6052 23.6113 34.7588C23.1003 34.9122 22.5607 34.6224 22.4072 34.1113L20.9053 29.1035L20.8447 28.9014L20.6465 28.9727C16.3543 30.5159 11.6581 30.5235 7.35352 28.9746L7.1543 28.9023L7.09375 29.1045L5.5918 34.1113C5.43829 34.6223 4.89968 34.9122 4.38867 34.7588C3.87764 34.6054 3.58787 34.0667 3.74121 33.5557L5.31934 28.2969L5.36719 28.1357L5.2168 28.0605C3.97662 27.4412 2.78366 26.6824 1.66016 25.7842C0.0373411 24.4877 -0.271129 22.1539 0.927734 20.4863L1.04883 20.3271C1.6911 19.524 2.5852 19.0432 3.52832 18.9072L3.7002 18.8818V10.5C3.70022 4.81221 8.3123 0.200195 14 0.200195ZM25.3076 21.3838C24.6154 20.6778 23.4882 20.5966 22.6992 21.2256C17.5875 25.3093 10.4501 25.3394 5.2998 21.2256C4.51081 20.5968 3.38346 20.6777 2.69141 21.3838L2.55859 21.5332C1.9296 22.3222 2.0107 23.4495 2.7168 24.1416L2.86621 24.2744C9.44813 29.5289 18.6052 29.4889 25.1338 24.2744C25.9754 23.6016 26.1114 22.3747 25.4404 21.5332L25.3076 21.3838ZM14 2.13379C9.379 2.13379 5.63284 5.87894 5.63281 10.5V19.1875L5.74805 19.2412C5.94644 19.3347 6.13946 19.4471 6.32422 19.5781L6.50586 19.7158C10.9482 23.2641 17.0832 23.2371 21.4932 19.7158H21.4941C21.7326 19.5245 21.9876 19.3658 22.252 19.2412L22.3662 19.1875V10.5C22.3662 5.87902 18.6209 2.13393 14 2.13379Z" fill="white" stroke="#1C0E0A" stroke-width="0.4"/>
</svg>
