<svg xmlns="http://www.w3.org/2000/svg" width="8.821" height="16.003" viewBox="0 0 8.821 16.003">
  <path id="FB" d="M8.49,0,6.373,0A3.679,3.679,0,0,0,2.46,3.937V5.752H.333A.332.332,0,0,0,0,6.081v2.63a.329.329,0,0,0,.333.326H2.459v6.638A.331.331,0,0,0,2.792,16H5.568a.33.33,0,0,0,.333-.328V9.036H8.388a.331.331,0,0,0,.333-.326l0-2.63a.323.323,0,0,0-.1-.232.336.336,0,0,0-.234-.1H5.9V4.214c0-.74.181-1.116,1.163-1.116H8.49a.329.329,0,0,0,.331-.326V.329A.329.329,0,0,0,8.49,0Z" transform="translate(0 0.001)"/>
</svg>
