<svg width="18" height="19" viewBox="0 0 18 19" fill="none" xmlns="http://www.w3.org/2000/svg">
<path fill-rule="evenodd" clip-rule="evenodd" d="M5.68658 12.6162C9.15294 16.0818 12.3651 16.4613 13.3081 16.4964C14.4476 16.5379 15.6106 15.6077 16.1136 14.655C15.3113 13.714 14.2664 12.9839 13.1224 12.1925C12.4471 12.8668 11.615 14.1196 10.507 13.6707C9.87686 13.4175 8.32083 12.7009 6.96134 11.3408C5.60184 9.98066 4.88513 8.42585 4.62999 7.79672C4.18104 6.68717 5.43776 5.85343 6.113 5.17833C5.32146 4.0156 4.60385 2.94391 3.66446 2.18228C2.69803 2.68703 1.76225 3.84074 1.80462 4.99536C1.83978 5.93816 2.21932 9.14963 5.68658 12.6162ZM13.2414 18.2982C11.9432 18.2505 8.26404 17.7421 4.41092 13.8907C0.558713 10.0383 0.0511543 6.36089 0.00247198 5.06206C-0.0696499 3.08271 1.44671 1.16016 3.19837 0.409342C3.40931 0.318277 3.6403 0.283606 3.86869 0.308731C4.09707 0.333856 4.31499 0.417913 4.50108 0.552655C5.95073 1.60993 6.95052 3.21161 7.80967 4.46627C7.9884 4.72716 8.07027 5.04232 8.04113 5.35719C8.01199 5.67207 7.87367 5.96685 7.6501 6.19053L6.42763 7.41365C6.71161 8.04008 7.28949 9.11988 8.23609 10.0663C9.18269 11.0127 10.2627 11.5905 10.8902 11.8744L12.1117 10.6522C12.3361 10.4277 12.6322 10.2893 12.9483 10.2611C13.2644 10.2329 13.5804 10.3168 13.8409 10.498C15.121 11.3849 16.6248 12.3701 17.721 13.7735C17.8667 13.9609 17.9594 14.184 17.9894 14.4194C18.0194 14.6549 17.9855 14.8941 17.8914 15.112C17.1368 16.8723 15.2274 18.3712 13.2414 18.2982Z" fill="black"/>
</svg>
