<?xml version="1.0" encoding="UTF-8"?> <!-- Generator: Adobe Illustrator 25.4.1, SVG Export Plug-In . SVG Version: 6.00 Build 0) --> <svg xmlns="http://www.w3.org/2000/svg" xmlns:xlink="http://www.w3.org/1999/xlink" version="1.1" x="0px" y="0px" viewBox="0 0 276.77 276.77" style="enable-background:new 0 0 276.77 276.77;" xml:space="preserve"> <style type="text/css"> .st0{fill-rule:evenodd;clip-rule:evenodd;fill:#F05620;} .st1{fill:#F05620;} .st2{fill:#F6981C;} .st3{fill:#FFFFFF;} .st4{display:none;} </style> <g id="Logo_1_"> <g id="Wordmark"> <path class="st0" d="M127.51,255.31l9.68-25.19h3.59l10.31,25.19h-3.8l-2.94-7.63h-10.53l-2.76,7.63H127.51z M134.78,244.97h8.54 l-2.63-6.97c-0.8-2.12-1.4-3.86-1.78-5.22c-0.32,1.61-0.78,3.22-1.36,4.81L134.78,244.97z M153.35,255.31v-18.25h2.78v2.59 c1.34-2.01,3.27-3.01,5.81-3.01c1.1,0,2.11,0.2,3.03,0.59s1.61,0.91,2.07,1.56c0.46,0.64,0.78,1.4,0.97,2.28 c0.11,0.57,0.17,1.58,0.17,3.01v11.22h-3.09v-11.1c0-1.26-0.12-2.2-0.36-2.83c-0.24-0.62-0.67-1.12-1.28-1.49 c-0.61-0.37-1.33-0.56-2.15-0.56c-1.32,0-2.46,0.42-3.41,1.25c-0.95,0.84-1.43,2.42-1.43,4.76v9.97H153.35z M184.82,253.06 c-1.15,0.97-2.25,1.66-3.31,2.06c-1.06,0.4-2.2,0.6-3.41,0.6c-2,0-3.54-0.49-4.62-1.47c-1.08-0.98-1.61-2.23-1.61-3.75 c0-0.89,0.2-1.71,0.61-2.45c0.41-0.74,0.94-1.33,1.59-1.78c0.66-0.45,1.4-0.78,2.23-1.01c0.61-0.16,1.52-0.31,2.75-0.47 c2.49-0.3,4.33-0.65,5.51-1.06c0.01-0.42,0.02-0.69,0.02-0.81c0-1.26-0.29-2.15-0.88-2.66c-0.79-0.7-1.96-1.05-3.52-1.05 c-1.46,0-2.53,0.26-3.22,0.76c-0.69,0.51-1.2,1.41-1.54,2.71l-3.03-0.41c0.28-1.29,0.73-2.34,1.36-3.14 c0.63-0.8,1.54-1.41,2.73-1.84c1.19-0.43,2.57-0.64,4.14-0.64c1.56,0,2.82,0.18,3.8,0.55c0.97,0.37,1.69,0.83,2.15,1.38 c0.46,0.56,0.78,1.26,0.96,2.1c0.1,0.53,0.15,1.48,0.15,2.85v4.12c0,2.87,0.07,4.69,0.2,5.45c0.13,0.76,0.39,1.49,0.78,2.19h-3.23 C185.12,254.67,184.91,253.92,184.82,253.06z M184.57,246.16c-1.12,0.46-2.81,0.85-5.05,1.17c-1.27,0.18-2.17,0.39-2.7,0.62 c-0.53,0.23-0.93,0.56-1.22,1.01c-0.29,0.44-0.43,0.93-0.43,1.47c0,0.82,0.31,1.51,0.93,2.06c0.63,0.55,1.54,0.82,2.74,0.82 c1.19,0,2.25-0.26,3.18-0.78c0.93-0.52,1.61-1.23,2.05-2.14c0.33-0.7,0.5-1.73,0.5-3.09V246.16z M192.42,255.31v-25.19h3.09v25.19 H192.42z M200.16,262.34l-0.34-2.9c0.68,0.18,1.27,0.27,1.77,0.27c0.69,0,1.24-0.11,1.65-0.34c0.41-0.23,0.75-0.55,1.01-0.96 c0.2-0.31,0.51-1.08,0.95-2.3c0.06-0.17,0.15-0.42,0.27-0.75l-6.92-18.28h3.33l3.8,10.57c0.49,1.34,0.93,2.75,1.32,4.23 c0.36-1.42,0.78-2.8,1.27-4.16l3.9-10.63h3.09l-6.94,18.55c-0.75,2-1.32,3.38-1.73,4.14c-0.55,1.02-1.18,1.77-1.89,2.24 c-0.71,0.48-1.56,0.71-2.54,0.71C201.56,262.72,200.9,262.59,200.16,262.34z M224.65,252.55l0.45,2.73 c-0.87,0.18-1.65,0.28-2.34,0.28c-1.12,0-1.99-0.18-2.61-0.53c-0.62-0.36-1.05-0.82-1.31-1.4c-0.25-0.58-0.38-1.8-0.38-3.65v-10.5 h-2.27v-2.41h2.27v-4.52l3.08-1.86v6.37h3.11v2.41h-3.11v10.67c0,0.88,0.05,1.45,0.16,1.7c0.11,0.25,0.29,0.45,0.53,0.6 c0.25,0.15,0.6,0.22,1.06,0.22C223.64,252.67,224.09,252.63,224.65,252.55z M227.69,233.68v-3.56h3.09v3.56H227.69z M227.69,255.31v-18.25h3.09v18.25H227.69z M247.4,248.63l3.04,0.4c-0.33,2.1-1.18,3.74-2.55,4.92c-1.37,1.19-3.05,1.78-5.04,1.78 c-2.49,0-4.5-0.82-6.02-2.45c-1.52-1.63-2.28-3.97-2.28-7.02c0-1.97,0.33-3.69,0.98-5.17c0.65-1.48,1.64-2.58,2.98-3.32 c1.33-0.74,2.78-1.11,4.36-1.11c1.98,0,3.6,0.5,4.86,1.5c1.26,1,2.07,2.42,2.42,4.27l-3.01,0.47c-0.29-1.23-0.8-2.15-1.52-2.77 c-0.73-0.62-1.61-0.93-2.64-0.93c-1.56,0-2.82,0.56-3.8,1.68c-0.98,1.12-1.46,2.88-1.46,5.3c0,2.45,0.47,4.23,1.41,5.34 c0.94,1.11,2.17,1.67,3.68,1.67c1.21,0,2.23-0.37,3.04-1.12C246.66,251.32,247.18,250.18,247.4,248.63z M251.85,249.87l3.06-0.48 c0.17,1.23,0.65,2.16,1.43,2.82c0.78,0.65,1.88,0.98,3.29,0.98c1.42,0,2.47-0.29,3.16-0.87c0.69-0.58,1.03-1.26,1.03-2.04 c0-0.7-0.3-1.25-0.91-1.65c-0.42-0.27-1.47-0.62-3.16-1.05c-2.27-0.57-3.84-1.07-4.71-1.49c-0.88-0.42-1.54-1-1.99-1.73 c-0.45-0.74-0.68-1.56-0.68-2.45c0-0.81,0.19-1.57,0.56-2.26c0.37-0.69,0.88-1.27,1.52-1.73c0.48-0.36,1.14-0.66,1.97-0.9 c0.83-0.25,1.72-0.37,2.67-0.37c1.43,0,2.69,0.21,3.77,0.62c1.08,0.41,1.88,0.97,2.39,1.68c0.52,0.7,0.87,1.65,1.07,2.83 l-3.02,0.41c-0.14-0.94-0.54-1.67-1.19-2.2c-0.66-0.53-1.59-0.79-2.79-0.79c-1.42,0-2.44,0.24-3.04,0.7 c-0.61,0.47-0.91,1.02-0.91,1.65c0,0.4,0.13,0.76,0.38,1.08c0.25,0.33,0.65,0.61,1.19,0.82c0.31,0.12,1.22,0.38,2.73,0.79 c2.19,0.58,3.71,1.06,4.58,1.43c0.86,0.37,1.54,0.91,2.03,1.62c0.49,0.71,0.74,1.59,0.74,2.64c0,1.03-0.3,2-0.9,2.91 c-0.6,0.91-1.47,1.61-2.6,2.11c-1.14,0.5-2.42,0.75-3.85,0.75c-2.37,0-4.18-0.49-5.42-1.48 C252.98,253.26,252.19,251.8,251.85,249.87z"></path> <g> <path id="path2998" class="st1" d="M39.12,240.88H26.25v3.82h9.13c-0.45,5.36-4.91,7.64-9.11,7.64 c-5.38,0-10.08-4.23-10.08-10.17c0-5.78,4.48-10.23,10.09-10.23c4.33,0,6.88,2.76,6.88,2.76l2.67-2.77c0,0-3.43-3.82-9.69-3.82 c-7.97,0-14.14,6.73-14.14,14c0,7.12,5.8,14.07,14.34,14.07c7.51,0,13.01-5.15,13.01-12.76 C39.35,241.81,39.12,240.88,39.12,240.88L39.12,240.88z"></path> <path id="path3000" class="st1" d="M49.67,238.11c-5.28,0-9.07,4.13-9.07,8.95c0,4.89,3.67,9.09,9.13,9.09 c4.94,0,8.99-3.78,8.99-8.99C58.72,241.19,54.01,238.11,49.67,238.11L49.67,238.11z M49.72,241.66c2.6,0,5.06,2.1,5.06,5.48 c0,3.31-2.45,5.47-5.07,5.47c-2.88,0-5.15-2.31-5.15-5.5C44.56,243.99,46.8,241.66,49.72,241.66L49.72,241.66z"></path> <path id="path3005" class="st1" d="M69.39,238.11c-5.28,0-9.07,4.13-9.07,8.95c0,4.89,3.67,9.09,9.13,9.09 c4.94,0,8.99-3.78,8.99-8.99C78.44,241.19,73.73,238.11,69.39,238.11L69.39,238.11z M69.44,241.66c2.6,0,5.06,2.1,5.06,5.48 c0,3.31-2.45,5.47-5.07,5.47c-2.88,0-5.15-2.31-5.15-5.5C64.28,243.99,66.52,241.66,69.44,241.66L69.44,241.66z"></path> <path id="path3007" class="st1" d="M88.73,238.12c-4.85,0-8.66,4.25-8.66,9.01c0,5.43,4.42,9.03,8.58,9.03 c2.57,0,3.94-1.02,4.95-2.19v1.78c0,3.11-1.89,4.98-4.74,4.98c-2.75,0-4.14-2.05-4.62-3.21l-3.47,1.45 c1.23,2.6,3.71,5.31,8.11,5.31c4.82,0,8.49-3.04,8.49-9.4v-16.21h-3.78v1.53C92.43,238.94,90.84,238.12,88.73,238.12 L88.73,238.12z M89.08,241.66c2.38,0,4.82,2.03,4.82,5.5c0,3.52-2.44,5.46-4.87,5.46c-2.58,0-4.99-2.1-4.99-5.43 C84.04,243.72,86.53,241.66,89.08,241.66L89.08,241.66z"></path> <path id="path3011" class="st1" d="M114.19,238.1c-4.57,0-8.41,3.64-8.41,9.01c0,5.68,4.28,9.05,8.85,9.05 c3.82,0,6.16-2.09,7.56-3.96l-3.12-2.07c-0.81,1.26-2.16,2.48-4.42,2.48c-2.54,0-3.7-1.39-4.42-2.73l12.09-5.02l-0.63-1.47 C120.52,240.51,117.79,238.1,114.19,238.1L114.19,238.1z M114.34,241.57c1.65,0,2.83,0.88,3.34,1.93l-8.08,3.38 C109.26,244.26,111.73,241.57,114.34,241.57L114.34,241.57z"></path> <path id="path3015" class="st1" d="M100.01,255.62h3.97v-26.58h-3.97V255.62z"></path> </g> </g> <g id="Logo"> <path class="st2" d="M222.79,187.59c0,8.25-6.75,15-15,15H67.88c-8.25,0-15-6.75-15-15V47.68c0-8.25,6.75-15,15-15h139.91 c8.25,0,15,6.75,15,15V187.59z"></path> <path class="st1" d="M52.88,147v40.59c0,8.25,6.75,15,15,15h139.91c8.25,0,15-6.75,15-15L223.43,62l-103.84,81.33l-22.8-22.8 C96.79,120.53,65.26,135.52,52.88,147z"></path> <path class="st3" d="M223.43,39.48l-84.87,84.83L100.4,86.14l-52.25,52.25l-0.51,38.51l71.78-71.73c0,22.67,0.17,38.17,0.17,38.17 l19,19l84.84-84.84V39.48z"></path> </g> </g> <g id="Guides" class="st4"> </g> </svg> 