<?xml version="1.0" encoding="UTF-8"?>
<svg id="Layer_1" data-name="Layer 1" xmlns="http://www.w3.org/2000/svg" version="1.1" viewBox="0 0 24 24" width="64" height="64">
  <defs>
    <style>
      .cls-1 {
        fill: #000;
        stroke-width: 0px;
      }
    </style>
  </defs>
  <path class="cls-1" d="M15.9,16.7c-1.1,0-2-.9-2-2s.9-2,2-2,2,.9,2,2c0,1.1-.9,2-2,2ZM15.9,13.4c-.7,0-1.3.6-1.3,1.3s.6,1.3,1.3,1.3,1.3-.6,1.3-1.3-.6-1.3-1.3-1.3ZM18.8,17.1c-.2.1-.4.2-.6.2,0,0,0,0-.1,0l1.6,2.7h-.8c0,0-.4.7-.4.7l-1.4-2.4c0,0-.1,0-.2,0-.2,0-.4,0-.6-.2,0,0-.1,0-.2,0l2.3,4,.9-1.4h1.6c0-.1-2.1-3.7-2.1-3.7ZM15.5,18.2c-.2,0-.5.2-.8.1l-1.4,2.4-.4-.7h-.8c0,0,1.6-2.7,1.6-2.7,0,0,0,0-.1,0-.2,0-.4,0-.6-.2l-2.1,3.6h1.6c0,.1.9,1.5.9,1.5l2.3-4c0,0-.1,0-.2,0ZM16.8,18.4c-.2,0-.4,0-.6-.2-.2-.1-.4-.1-.7,0-.2.1-.6.2-.9.1-.3-.1-.5-.4-.6-.6,0-.1-.1-.2-.2-.3,0,0-.2,0-.3-.1-.3,0-.6-.1-.8-.4-.2-.3-.2-.6-.1-.9,0-.1,0-.3,0-.4,0,0-.1-.2-.2-.3-.2-.2-.4-.5-.4-.8s.2-.6.4-.8c0,0,.2-.2.2-.3,0,0,0-.2,0-.4,0-.3,0-.6.1-.9.2-.3.5-.3.8-.4.1,0,.3,0,.3-.1,0,0,.1-.2.2-.3.1-.2.3-.5.6-.6.3-.1.6,0,.9.1.2.1.4.1.7,0,.2-.1.5-.2.9-.1.3.1.5.4.6.6,0,.1.1.2.2.3,0,0,.2,0,.3.1.3,0,.6.1.8.4.2.3.2.6.1.9,0,.1,0,.3,0,.4,0,0,.1.2.2.3.2.2.4.5.4.8s-.2.6-.4.8c0,0-.2.2-.2.3,0,0,0,.2,0,.4,0,.3,0,.6-.1.9-.2.3-.5.3-.8.4-.1,0-.3,0-.3.1,0,0-.1.2-.2.3-.1.2-.3.5-.6.6,0,0-.2,0-.2,0ZM15.8,17.4c.2,0,.5,0,.6.2.1,0,.3.1.3.1,0,0,.2-.2.2-.3.1-.2.2-.4.4-.5.2-.1.4-.2.6-.2.1,0,.3,0,.3-.1,0,0,0-.2,0-.4,0-.2,0-.4,0-.7,0-.2.2-.4.4-.5,0,0,.2-.2.2-.3s-.1-.2-.2-.3c-.1-.1-.3-.3-.4-.5,0-.2,0-.5,0-.7,0-.1,0-.3,0-.4,0,0-.2,0-.3-.1-.2,0-.4,0-.6-.2-.2-.1-.3-.3-.4-.5,0,0-.2-.3-.2-.3,0,0-.2,0-.3.1-.2,0-.4.2-.6.2s-.5,0-.6-.2c-.1,0-.3-.1-.3-.1,0,0-.2.2-.2.3-.1.2-.2.4-.4.5-.2.1-.4.2-.6.2-.1,0-.3,0-.3.1,0,0,0,.2,0,.4,0,.2,0,.4,0,.7,0,.2-.2.4-.4.5,0,0-.2.2-.2.3s.1.2.2.3c.1.1.3.3.4.5,0,.2,0,.5,0,.7,0,.1,0,.3,0,.4,0,0,.2,0,.3.1.2,0,.4,0,.6.2.2.1.3.3.4.5,0,0,.2.3.2.3,0,0,.2,0,.3-.1.2,0,.4-.2.6-.2ZM16.8,3.2c0-.2-.2-.4-.4-.4H7.6c-.2,0-.4.2-.4.4s.2.4.4.4h8.8c.2,0,.4-.2.4-.4ZM20.1,6.5c0-.2-.2-.4-.4-.4H4.3c-.2,0-.4.2-.4.4s.2.4.4.4h15.4c.2,0,.4-.2.4-.4ZM20.1,9.8c0-.2-.2-.4-.4-.4H4.3c-.2,0-.4.2-.4.4s.2.4.4.4h15.4c.2,0,.4-.2.4-.4ZM10.2,13.1c0-.2-.2-.4-.4-.4h-5.5c-.2,0-.4.2-.4.4s.2.4.4.4h5.5c.2,0,.4-.2.4-.4ZM10.2,16.4c0-.2-.2-.4-.4-.4h-5.5c-.2,0-.4.2-.4.4s.2.4.4.4h5.5c.2,0,.4-.2.4-.4ZM10.2,19.7c0-.2-.2-.4-.4-.4h-5.5c-.2,0-.4.2-.4.4s.2.4.4.4h5.5c.2,0,.4-.2.4-.4ZM20.9,23.4H3.1c-.8,0-1.4-.6-1.4-1.4V2c0-.8.6-1.4,1.4-1.4h17.8c.8,0,1.4.6,1.4,1.4v20c0,.8-.6,1.4-1.4,1.4ZM3.1,1.4c-.3,0-.6.3-.6.6v20c0,.3.3.6.6.6h17.8c.3,0,.6-.3.6-.6V2c0-.3-.3-.6-.6-.6H3.1Z"/>
</svg>