<svg width="19" height="19" viewBox="0 0 19 19" fill="none" xmlns="http://www.w3.org/2000/svg">
<path d="M7.45843 7.93211C9.57353 7.93211 11.2948 6.23803 11.2948 4.15601C11.0858 -0.851074 3.83267 -0.853191 3.62305 4.15601C3.62305 6.23799 5.34344 7.93211 7.4594 7.93211H7.45843ZM7.45843 1.51291C8.94949 1.51291 10.1624 2.69869 10.1624 4.15658C10.015 7.66204 4.90273 7.66358 4.75451 4.15658C4.75451 2.69862 5.96736 1.51291 7.45843 1.51291Z" fill="#FC766A" stroke="#FC766A" stroke-width="0.8"/>
<path d="M8.69549 17.365H1.5327V16.371C1.5327 13.2378 3.92691 10.6172 6.98636 10.3978C7.29315 10.391 7.53527 10.1399 7.53527 9.83159C7.53527 9.50601 7.24954 9.24509 6.92546 9.2669C3.26658 9.51879 0.400391 12.6393 0.400391 16.371V17.9312C0.400391 18.244 0.653786 18.4974 0.966584 18.4974H8.69549C9.4444 18.4741 9.44289 17.3876 8.69549 17.365Z" fill="#FC766A" stroke="#FC766A" stroke-width="0.8"/>
<path d="M18.2128 17.0549C18.2128 17.0549 17.1105 16.0743 16.5059 15.5367C17.7436 13.6885 17.697 11.0101 15.7563 9.3004C12.6381 6.5062 7.66183 8.9658 7.93036 13.1435C8.03036 15.5714 10.2056 17.6385 12.6298 17.5933C12.7283 17.5933 12.8268 17.5903 12.9261 17.5843C14.0698 17.5159 15.0345 17.0677 15.7677 16.397L17.4595 17.9023C17.5678 17.9986 17.7016 18.0452 17.8354 18.0452C18.3437 18.0542 18.6016 17.3933 18.2121 17.0557L18.2128 17.0549ZM12.8569 16.4533C10.9297 16.612 9.13953 15.0036 9.06041 13.0734C8.92582 11.0079 10.5831 9.23413 12.6381 9.24241C14.4825 9.20857 16.1337 10.7831 16.2097 12.6299C16.3323 14.6164 14.8285 16.3315 12.8569 16.4541V16.4533Z" fill="#FC766A" stroke="#FC766A" stroke-width="0.8"/>
</svg>
