<?xml version="1.0" encoding="utf-8"?>
<!-- Generator: Adobe Illustrator 17.0.0, SVG Export Plug-In . SVG Version: 6.00 Build 0)  -->
<!DOCTYPE svg PUBLIC "-//W3C//DTD SVG 1.1//EN" "http://www.w3.org/Graphics/SVG/1.1/DTD/svg11.dtd">
<svg version="1.1" id="Layer_1" xmlns="http://www.w3.org/2000/svg" xmlns:xlink="http://www.w3.org/1999/xlink" x="0px" y="0px"
	 width="51.832px" height="67.119px" viewBox="0 0 51.832 67.119" enable-background="new 0 0 51.832 67.119" xml:space="preserve">
<path fill="#005463" d="M18.523,67.115c-0.207-0.007-0.399-0.108-0.521-0.275c-0.153-0.203-0.224-0.455-0.2-0.708l0.328-3.855
	l-1.006,0.172c-0.033,0.004-0.067,0.007-0.1,0.007c-0.388-0.038-0.691-0.354-0.713-0.743c-0.092-0.459,0.187-0.912,0.639-1.035
	l1.338-0.227l0.528-6.124l-1.011,0.171c-0.422,0.008-0.778-0.313-0.813-0.734c-0.034-0.243,0.017-0.491,0.146-0.7
	c0.103-0.174,0.276-0.294,0.475-0.331l1.361-0.233l0.528-6.123l-1.018,0.172c-0.033,0.005-0.067,0.008-0.1,0.008
	c-0.388-0.038-0.69-0.353-0.713-0.742c-0.035-0.243,0.017-0.491,0.146-0.7c0.103-0.174,0.276-0.296,0.475-0.333l1.366-0.233
	l0.528-6.124l-1.019,0.174c-0.033,0.005-0.067,0.008-0.1,0.009c-0.386-0.041-0.686-0.355-0.708-0.743
	c-0.093-0.459,0.186-0.912,0.638-1.036l1.355-0.228l0.528-6.123l-1.028,0.175c-0.423,0.008-0.778-0.315-0.812-0.736
	c-0.035-0.243,0.017-0.491,0.146-0.7c0.104-0.174,0.277-0.295,0.476-0.333l1.376-0.23l0.528-6.125l-1.034,0.175
	c-0.033,0.005-0.067,0.008-0.1,0.008c-0.388-0.038-0.69-0.353-0.713-0.742c-0.035-0.243,0.017-0.491,0.146-0.7
	c0.103-0.174,0.276-0.295,0.475-0.332l1.387-0.232l0.528-6.125l-1.039,0.177c-0.033,0.005-0.067,0.008-0.1,0.008
	c-0.388-0.038-0.691-0.353-0.713-0.742c-0.034-0.243,0.017-0.491,0.146-0.7c0.104-0.173,0.277-0.294,0.475-0.332l1.387-0.231
	l1.032-11.968c-0.037-0.404,0.261-0.762,0.665-0.799c0.005,0,0.011-0.001,0.016-0.001l0,0c0.395-0.016,0.73,0.286,0.757,0.68v0.116
	l0.625,7.238l0.236,0.1c2.006,0.885,4.032,2.007,3.842,3.62c-0.152,1.264-1.556,1.761-2.6,2.024
	c-0.186,0.047-0.383,0.091-0.588,0.132l-0.377,0.077l0.15,1.733l0.236,0.1c2.033,0.895,4.087,2.026,3.893,3.643
	c-0.152,1.265-1.555,1.761-2.6,2.024c-0.2,0.05-0.413,0.1-0.635,0.141l-0.381,0.074l0.147,1.7l0.236,0.1
	c2.161,0.944,4.134,2.042,3.945,3.664c-0.152,1.265-1.556,1.761-2.6,2.024c-0.213,0.054-0.442,0.104-0.686,0.15l-0.38,0.075
	l0.144,1.671l0.235,0.1c2.191,0.955,4.19,2.062,4,3.688c-0.152,1.265-1.556,1.761-2.6,2.024c-0.228,0.058-0.474,0.111-0.731,0.161
	l-0.381,0.069l0.143,1.645l0.235,0.1c2.217,0.964,4.241,2.08,4.047,3.709c-0.152,1.264-1.556,1.761-2.6,2.024
	c-0.242,0.06-0.5,0.117-0.776,0.167l-0.385,0.073l0.141,1.628l0.25,0.1c2.246,0.97,4.277,2.085,4.082,3.722
	c-0.152,1.265-1.556,1.762-2.6,2.024c-0.257,0.066-0.534,0.123-0.824,0.176l-0.385,0.07l0.14,1.617l0.268,0.089
	c2.277,0.982,4.308,2.1,4.113,3.735c-0.152,1.265-1.556,1.761-2.6,2.024c-0.271,0.069-0.564,0.13-0.871,0.186l-0.386,0.067
	l0.5,5.775c0.006,0.049,0.009,0.099,0.009,0.148c0.037,0.448-0.289,0.844-0.736,0.892L18.523,67.115z M19.614,62.028l-0.285,3.3
	h9.669l-0.416-4.823L19.614,62.028z M20.3,54.079l-0.529,6.124l8.657-1.464l-0.513-5.948L20.3,54.079z M29.868,58.538l0.453-0.088
	c0.465-0.086,0.923-0.205,1.371-0.358l0.824-0.3l-0.722-0.509c-0.468-0.319-0.961-0.601-1.473-0.844l-0.661-0.324L29.868,58.538z
	 M20.986,46.131l-0.528,6.124l7.3-1.236l-0.514-5.946L20.986,46.131z M29.201,50.817l0.453-0.085
	c0.449-0.085,0.892-0.202,1.324-0.351l0.821-0.295l-0.72-0.509c-0.452-0.31-0.928-0.585-1.422-0.822l-0.662-0.329L29.201,50.817z
	 M21.672,38.184l-0.528,6.123l5.952-1.007l-0.514-5.947L21.672,38.184z M28.535,43.097l0.455-0.091
	c0.432-0.082,0.857-0.195,1.273-0.339l0.823-0.295l-0.721-0.509c-0.436-0.298-0.893-0.563-1.368-0.793l-0.664-0.332L28.535,43.097z
	 M22.362,30.233l-0.528,6.123l4.6-0.778l-0.513-5.948L22.362,30.233z M27.869,35.378l0.457-0.092
	c0.415-0.082,0.823-0.192,1.223-0.33l0.824-0.295l-0.723-0.509c-0.419-0.288-0.859-0.544-1.316-0.767l-0.665-0.337L27.869,35.378z
	 M23.045,22.285l-0.528,6.124l3.245-0.55l-0.513-5.948L23.045,22.285z M27.204,27.661l0.458-0.1c0.397-0.08,0.789-0.187,1.172-0.32
	l0.82-0.294l-0.719-0.511c-0.403-0.276-0.826-0.524-1.264-0.74l-0.668-0.337L27.204,27.661z M23.731,14.335l-0.528,6.125
	l1.894-0.321l-0.513-5.946L23.731,14.335z M26.539,19.935l0.46-0.1c0.381-0.078,0.756-0.18,1.123-0.307l0.82-0.295l-0.719-0.511
	c-0.386-0.265-0.791-0.503-1.211-0.712l-0.67-0.344L26.539,19.935z M25.872,12.215l0.462-0.1c0.363-0.077,0.721-0.178,1.072-0.3
	l0.822-0.295l-0.721-0.511c-0.37-0.254-0.757-0.483-1.158-0.685l-0.671-0.348L25.872,12.215z M36.475,67.115
	c-0.207-0.006-0.399-0.107-0.521-0.274c-0.153-0.203-0.224-0.456-0.2-0.709l0.328-3.855l-1.007,0.172
	c-0.423,0.008-0.778-0.315-0.812-0.736c-0.092-0.459,0.187-0.912,0.639-1.035l1.338-0.227l0.528-6.124l-1.011,0.171
	c-0.033,0.005-0.067,0.008-0.1,0.008c-0.388-0.038-0.69-0.353-0.713-0.742c-0.035-0.243,0.017-0.491,0.146-0.7
	c0.103-0.174,0.276-0.295,0.475-0.332l1.361-0.233l0.528-6.123l-1.018,0.172c-0.422,0.008-0.778-0.313-0.813-0.734
	c-0.034-0.243,0.017-0.491,0.146-0.7c0.103-0.174,0.276-0.294,0.475-0.331l1.365-0.233l0.529-6.124L37.119,38.6
	c-0.033,0.005-0.067,0.008-0.1,0.009c-0.385-0.044-0.683-0.357-0.708-0.744c-0.092-0.459,0.186-0.911,0.638-1.035l1.355-0.228
	l0.528-6.122l-1.027,0.173c-0.423,0.008-0.779-0.314-0.813-0.735c-0.035-0.243,0.017-0.491,0.146-0.7
	c0.104-0.174,0.277-0.296,0.476-0.334l1.375-0.23l0.529-6.124l-1.034,0.175c-0.422,0.008-0.778-0.313-0.813-0.734
	c-0.034-0.243,0.018-0.491,0.147-0.7c0.103-0.174,0.276-0.295,0.475-0.332l1.386-0.232l0.529-6.125l-1.039,0.177
	c-0.422,0.008-0.778-0.314-0.812-0.735c-0.035-0.243,0.017-0.491,0.146-0.7c0.103-0.175,0.277-0.296,0.476-0.333l1.385-0.231
	l1.033-11.968c-0.037-0.404,0.259-0.761,0.663-0.799c0.006-0.001,0.011-0.001,0.017-0.001l0,0c0.395-0.016,0.73,0.286,0.757,0.68
	v0.116l0.624,7.238l0.236,0.1c2.007,0.885,4.034,2.006,3.843,3.62c-0.152,1.264-1.556,1.76-2.6,2.024
	c-0.186,0.047-0.384,0.091-0.588,0.132l-0.377,0.077l0.149,1.733l0.236,0.1c2.034,0.893,4.087,2.025,3.894,3.642
	c-0.152,1.265-1.556,1.761-2.6,2.025c-0.2,0.049-0.413,0.1-0.636,0.14l-0.38,0.074l0.148,1.7l0.235,0.1
	c2.161,0.944,4.134,2.041,3.944,3.664c-0.151,1.265-1.555,1.761-2.6,2.024c-0.213,0.054-0.443,0.1-0.685,0.15l-0.382,0.075
	l0.145,1.671l0.235,0.1c2.191,0.955,4.191,2.061,4,3.688c-0.152,1.265-1.556,1.761-2.6,2.024c-0.228,0.058-0.474,0.111-0.731,0.161
	l-0.381,0.069l0.142,1.645l0.236,0.1c2.217,0.964,4.24,2.08,4.047,3.709c-0.152,1.266-1.556,1.762-2.6,2.024
	c-0.24,0.06-0.5,0.117-0.775,0.167l-0.385,0.073l0.141,1.623l0.239,0.1c2.253,0.972,4.284,2.087,4.089,3.724
	c-0.152,1.265-1.556,1.762-2.6,2.024c-0.255,0.064-0.532,0.123-0.823,0.176l-0.385,0.07l0.14,1.619l0.27,0.087
	c2.276,0.981,4.308,2.1,4.112,3.734c-0.152,1.265-1.555,1.761-2.6,2.024c-0.271,0.068-0.564,0.13-0.871,0.185l-0.387,0.07l0.5,5.774
	c0.007,0.049,0.01,0.098,0.01,0.147c0.036,0.447-0.29,0.843-0.736,0.892L36.475,67.115z M37.566,62.028l-0.285,3.305h9.669
	l-0.417-4.823L37.566,62.028z M38.252,54.08l-0.528,6.124l8.656-1.465l-0.513-5.948L38.252,54.08z M47.82,58.538l0.453-0.088
	c0.466-0.085,0.924-0.205,1.372-0.359l0.824-0.3l-0.722-0.509c-0.469-0.319-0.962-0.602-1.474-0.845l-0.662-0.324L47.82,58.538z
	 M38.938,46.131l-0.528,6.124l7.3-1.236l-0.513-5.946L38.938,46.131z M47.153,50.817l0.453-0.085
	c0.449-0.085,0.891-0.202,1.323-0.351l0.824-0.295l-0.722-0.509c-0.452-0.31-0.927-0.585-1.42-0.823l-0.663-0.326L47.153,50.817z
	 M39.624,38.183l-0.528,6.124l5.951-1.007l-0.513-5.947L39.624,38.183z M46.486,43.097l0.456-0.091
	c0.432-0.082,0.857-0.195,1.273-0.339l0.822-0.295l-0.722-0.509c-0.436-0.298-0.893-0.564-1.369-0.794l-0.664-0.331L46.486,43.097z
	 M40.31,30.233l-0.528,6.123l4.6-0.778l-0.513-5.948L40.31,30.233z M45.817,35.378l0.457-0.092c0.415-0.082,0.824-0.192,1.224-0.33
	l0.822-0.294l-0.721-0.511c-0.42-0.287-0.86-0.543-1.317-0.766l-0.665-0.337L45.817,35.378z M40.993,22.285l-0.529,6.124l3.246-0.55
	l-0.513-5.947L40.993,22.285z M45.152,27.66l0.458-0.1c0.398-0.08,0.789-0.187,1.173-0.319l0.821-0.295l-0.72-0.511
	c-0.403-0.276-0.825-0.523-1.264-0.739l-0.668-0.337L45.152,27.66z M41.683,14.34l-0.529,6.125l1.895-0.321l-0.513-5.946
	L41.683,14.34z M44.491,19.94l0.46-0.1c0.38-0.077,0.755-0.18,1.122-0.308l0.822-0.294l-0.72-0.511
	c-0.387-0.265-0.791-0.503-1.211-0.712l-0.67-0.342L44.491,19.94z M43.824,12.22l0.462-0.1c0.363-0.078,0.721-0.178,1.072-0.3
	l0.823-0.295l-0.721-0.511c-0.37-0.254-0.757-0.483-1.158-0.685l-0.671-0.348L43.824,12.22z M2.3,67.091
	c-0.157-0.038-0.295-0.13-0.389-0.261c-0.153-0.206-0.223-0.463-0.195-0.718l0.431-4.363l-1.331,0.2
	c-0.424,0.001-0.776-0.33-0.8-0.754c-0.088-0.46,0.198-0.91,0.652-1.025l1.671-0.249l0.631-6.307l-1.247,0.193
	c-0.424,0.005-0.778-0.322-0.807-0.745c-0.088-0.46,0.195-0.909,0.648-1.027l1.589-0.246l0.632-6.309l-1.161,0.19
	c-0.423,0.007-0.778-0.316-0.811-0.737c-0.092-0.459,0.188-0.911,0.641-1.033l1.513-0.249L4.6,37.333l-1.07,0.2
	c-0.036,0.007-0.072,0.01-0.109,0.01c-0.385-0.032-0.688-0.342-0.711-0.727c-0.037-0.242,0.011-0.49,0.137-0.7
	c0.101-0.176,0.272-0.301,0.471-0.342l1.464-0.275l1.419-14.126c-0.031-0.404,0.272-0.756,0.676-0.786
	c0.004,0,0.008-0.001,0.011-0.001l0,0c0.395-0.014,0.728,0.291,0.75,0.686v0.1l0.982,9.809l0.218,0.1
	c2.176,1.061,3.084,2.046,2.945,3.2c-0.108,0.893-0.854,1.529-2.282,1.944l-0.346,0.1l0.229,2.286l0.232,0.1
	c1.8,0.824,3.606,1.876,3.42,3.425c-0.153,1.273-1.576,1.771-2.632,2.035L9.956,44.48l0.2,1.964l0.236,0.1
	c2.036,0.9,4.093,2.029,3.9,3.65c-0.149,1.253-1.52,1.746-2.539,2.006c-0.194,0.049-0.4,0.1-0.613,0.139l-0.385,0.076l0.177,1.774
	l0.317,0.054c0.046,0.009,0.091,0.023,0.135,0.041c2.274,0.987,4.353,2.125,4.159,3.772c-0.146,1.234-1.464,1.72-2.443,1.976
	c-0.352,0.092-0.74,0.174-1.152,0.24l-0.4,0.063l0.571,5.7c0.007,0.054,0.011,0.108,0.011,0.162c0.037,0.45-0.293,0.846-0.742,0.892
	L2.3,67.091z M3.635,61.527l-0.381,3.8h7.32l-0.478-4.772L3.635,61.527z M4.45,53.392l-0.633,6.311l6.1-0.917l-0.615-6.153
	L4.45,53.392z M11.356,58.592l0.437-0.07c0.526-0.083,1.045-0.21,1.55-0.379l0.827-0.291l-0.722-0.515
	c-0.531-0.362-1.092-0.679-1.675-0.949l-0.668-0.321L11.356,58.592z M5.262,45.246l-0.634,6.323l4.494-0.7L8.505,44.71L5.262,45.246
	z M10.562,50.677l0.454-0.1c0.365-0.075,0.724-0.174,1.076-0.295l0.823-0.293l-0.721-0.512c-0.375-0.26-0.768-0.494-1.175-0.7
	l-0.681-0.351L10.562,50.677z M6.08,37.069l-0.636,6.35l2.884-0.474l-0.614-6.129l-0.712,0.083L6.08,37.069z M9.767,42.735
	l0.471-0.126c0.227-0.061,0.431-0.123,0.607-0.187l0.818-0.3l-0.721-0.506c-0.188-0.133-0.413-0.275-0.666-0.419l-0.7-0.4
	L9.767,42.735z M6.662,31.269l-0.394,3.939l0.548-0.075c0.108-0.007,0.206-0.016,0.3-0.029l0.418-0.047l-0.38-3.789L6.662,31.269z
	 M8.971,34.774l0.625-0.208l0.821-0.3l-0.868-0.608l-0.738-0.489L8.971,34.774z"/>
</svg>
