<svg width="96" height="79" viewBox="0 0 96 79" fill="none" xmlns="http://www.w3.org/2000/svg">
<path d="M10.8289 78.7389C10.7172 78.7252 10.6082 78.6987 10.5095 78.6581L10.5095 78.658L10.503 78.6555C9.95917 78.4492 9.60072 77.923 9.60072 77.3382V67.8108V67.5608H9.35072H4.67536C2.232 67.5608 0.25 65.5789 0.25 63.1357V29.7566C0.25 27.3134 2.232 25.3315 4.67536 25.3315H24.2853H24.5353V25.0815V5.31763C24.5353 2.51994 26.8053 0.25 29.6032 0.25H90.6821C93.48 0.25 95.75 2.51994 95.75 5.31763V45.7537C95.75 48.5514 93.48 50.8214 90.6821 50.8214H84.6661H84.4161V51.0714V64.155C84.4161 64.7474 84.0501 65.2745 83.4833 65.4823L83.482 65.4828C82.9284 65.6892 82.2992 65.5201 81.9239 65.0604L81.9218 65.0579L70.0561 50.8997L69.9812 50.8103H69.8645H59.7715H59.5215V51.0603V63.1247C59.5215 65.5678 57.5395 67.5497 55.0961 67.5497V67.7997C55.0961 67.5497 55.096 67.5497 55.0958 67.5497H55.0949H55.0932H55.091H55.0881H55.0846H55.0804H55.0757H55.0703H55.0642H55.0576H55.0503H55.0424H55.0339H55.0248H55.015H55.0047H54.9937H54.9822H54.97H54.9573H54.9439H54.93H54.9154H54.9003H54.8846H54.8683H54.8514H54.8339H54.8159H54.7972H54.778H54.7583H54.7379H54.717H54.6955H54.6735H54.6509H54.6277H54.604H54.5797H54.5549H54.5295H54.5036H54.4772H54.4502H54.4226H54.3945H54.3659H54.3368H54.3071H54.2769H54.2462H54.2149H54.1831H54.1508H54.118H54.0847H54.0508H54.0165H53.9816H53.9462H53.9104H53.874H53.8371H53.7998H53.7619H53.7236H53.6847H53.6454H53.6056H53.5653H53.5245H53.4833H53.4415H53.3993H53.3567H53.3135H53.2699H53.2258H53.1813H53.1363H53.0909H53.045H52.9986H52.9518H52.9046H52.8569H52.8087H52.7601H52.7111H52.6617H52.6118H52.5614H52.5107H52.4595H52.4079H52.3559H52.3034H52.2506H52.1973H52.1436H52.0895H52.035H51.98H51.9247H51.869H51.8129H51.7563H51.6994H51.6421H51.5844H51.5263H51.4678H51.409H51.3498H51.2901H51.2301H51.1698H51.109H51.0479H50.9864H50.9246H50.8624H50.7998H50.7369H50.6736H50.61H50.546H50.4817H50.417H50.352H50.2866H50.2209H50.1549H50.0885H50.0218H49.9547H49.8874H49.8197H49.7516H49.6833H49.6147H49.5457H49.4764H49.4068H49.3369H49.2667H49.1961H49.1253H49.0542H48.9828H48.911H48.839H48.7667H48.6941H48.6212H48.5481H48.4746H48.4009H48.3269H48.2526H48.1781H48.1032H48.0281H47.9528H47.8772H47.8013H47.7251H47.6487H47.5721H47.4952H47.418H47.3406H47.263H47.1851H47.107H47.0286H46.95H46.8712H46.7921H46.7128H46.6333H46.5535H46.4735H46.3933H46.3129H46.2323H46.1515H46.0704H45.9892H45.9077H45.826H45.7442H45.6621H45.5798H45.4974H45.4147H45.3319H45.2488H45.1656H45.0822H44.9986H44.9149H44.8309H44.7468H44.6626H44.5781H44.4935H44.4087H44.3238H44.2387H44.1534H44.068H43.9824H43.8967H43.8108H43.7248H43.6387H43.5524H43.4659H43.3794H43.2926H43.2058H43.1188H43.0317H42.9445H42.8572H42.7697H42.6821H42.5944H42.5066H42.4186H42.3306H42.2424H42.1542H42.0658H41.9774H41.8888H41.8002H41.7114H41.6226H41.5337H41.4447H41.3556H41.2664H41.1772H41.0878H40.9984H40.909H40.8194H40.7298H40.6401H40.5504H40.4606H40.3707H40.2808H40.1908H40.1008H40.0107H39.9206H39.8304H39.7402H39.6499H39.5597H39.4693H39.379H39.2886H39.1982H39.1077H39.0172H38.9268H38.8362H38.7457H38.6552H38.5646H38.4741H38.3835H38.2929H38.2023H38.1117H38.0212H37.9306H37.84H37.7494H37.6589H37.5683H37.4778H37.3873H37.2968H37.2063H37.1159H37.0255H36.9351H36.8447H36.7544H36.6641H36.5739H36.4836H36.3935H36.3034H36.2133H36.1233H36.0333H35.9434H35.8535H35.7637H35.6739H35.5843H35.4946H35.4051H35.3156H35.2262H35.1369H35.0476H34.9585H34.8694H34.7803H34.6914H34.6026H34.5139H34.4252H34.3367H34.2482H34.1598H34.0716H33.9834H33.8954H33.8075H33.7196H33.6319H33.5443H33.4569H33.3695H33.2823H33.1952H33.1082H33.0214H32.9347H32.8481H32.7616H32.6753H32.5892H32.5032H32.4173H32.3316H32.246H32.1606H32.0753H31.9902H31.9053H31.8205H31.7359H31.6514H31.5672H31.483H31.3991H31.3154H31.2318H31.1484H31.0652H30.9821H30.8993H30.8166H30.7342H30.6519H30.5698H30.488H30.4063H30.3248H30.2436H30.1625H30.0817H30.001H29.9206H29.8404H29.7605H29.6807H29.6012H29.5219H29.4428H29.364H29.2854H29.207H29.1289H29.051H28.9733H28.8959H28.8188H28.7418H28.6652H28.5888H28.5126H28.4368H28.3611H28.2858H28.2107H28.1359H28.0613H27.987H27.913H27.8393H27.7658H27.6927H27.6198H27.5472H27.4749H27.4029H27.3311H27.2597H27.1886H27.1178H27.0472H26.977H26.9071H26.8375H26.7682H26.6992H26.6306H26.5622H26.4942H26.4265H26.3591H26.2921H26.2254H26.159H26.0929H26.0272H25.9619H25.8968H25.8322H25.7678H25.7038H25.6402H25.5769H25.514H25.4514H25.3892H25.3274H25.2659H25.2048H25.144H25.0837H25.0237H24.964H24.9048H24.8459H24.7875H24.7294H24.6717H24.6143H24.5574H24.5009H24.4448H24.389H24.3337H24.2788H24.2243H24.1702H24.1165H24.0632H24.0103H23.9579H23.9058H23.8542H23.803H23.7523H23.7019H23.6521H23.6026H23.5536H23.505H23.4568H23.4091H23.3619H23.3151H23.2687H23.2228H23.1773H23.1324H23.0878H23.0437H23.0001H22.957H22.9143H22.8721H22.8304H22.7891H22.7483H22.708H22.6682H22.6289H22.5901H22.5517H22.5138H22.4765H22.4396H22.4032H22.3673H22.332H22.2971H22.2628H22.2289H22.1956H22.1628H22.1304H22.0987H22.0674H22.0367H22.0064H21.9768H21.9476H21.8372L21.7629 67.6313L12.0576 78.2776L12.0571 78.2782C11.7845 78.579 11.4092 78.7389 11.0126 78.7389H10.8289ZM4.42536 28.1328V28.1636C3.66247 28.2846 3.07372 28.9501 3.07372 29.7455V63.1247C3.07372 64.005 3.79501 64.7262 4.67536 64.7262H11.0126C11.7941 64.7262 12.4244 65.3566 12.4244 66.138V73.0398V73.6855L12.8593 73.2082L19.8834 65.4976L19.9099 65.4685L19.9261 65.4327C20.0738 65.108 20.363 64.9259 20.8352 64.8276C21.3169 64.7274 21.933 64.7262 22.6677 64.7262H55.0961C55.9765 64.7262 56.6978 64.005 56.6978 63.1247V51.0603V50.8103H56.4478H29.5922C26.7943 50.8103 24.5242 48.5404 24.5242 45.7427V28.3828V28.1328H24.2742H4.67536H4.42536ZM29.6032 47.9868H58.1096H58.1207H70.6401C71.0511 47.9868 71.4477 48.1737 71.7234 48.4966C71.7236 48.4968 71.7238 48.497 71.7239 48.4973L81.1509 59.7402L81.5924 60.2668V59.5796V49.3985C81.5924 48.6171 82.2228 47.9868 83.0043 47.9868H90.6821C91.917 47.9868 92.9263 46.9775 92.9263 45.7427V5.30655C92.9263 4.0717 91.917 3.06244 90.6821 3.06244H29.6032C28.3684 3.06244 27.359 4.0717 27.359 5.30655V45.7427C27.359 46.9775 28.3684 47.9868 29.6032 47.9868ZM80.4118 13.1452C80.8831 13.1452 81.2697 13.5319 81.2697 14.0031C81.2697 14.4743 80.8831 14.8609 80.4118 14.8609H39.2088C38.7375 14.8609 38.3509 14.4743 38.3509 14.0031C38.3509 13.5319 38.7375 13.1452 39.2088 13.1452H80.4118ZM80.4118 21.1106C80.8831 21.1106 81.2697 21.4972 81.2697 21.9684C81.2697 22.4397 80.8831 22.8263 80.4118 22.8263H39.2088C38.7375 22.8263 38.3509 22.4397 38.3509 21.9684C38.3509 21.4972 38.7375 21.1106 39.2088 21.1106H80.4118ZM80.4118 28.09C80.8831 28.09 81.2697 28.4766 81.2697 28.9478C81.2697 29.4191 80.8831 29.8057 80.4118 29.8057H39.2088C38.7375 29.8057 38.3509 29.4191 38.3509 28.9478C38.3509 28.4766 38.7375 28.09 39.2088 28.09H80.4118ZM64.9787 35.9113C65.4499 35.9113 65.8366 36.298 65.8366 36.7692C65.8366 37.2404 65.4499 37.627 64.9787 37.627H39.2088C38.7375 37.627 38.3509 37.2404 38.3509 36.7692C38.3509 36.298 38.7375 35.9113 39.2088 35.9113H64.9787Z" fill="black" stroke="white" stroke-width="0.5"/>
</svg>
