<svg width="47" height="47" viewBox="0 0 47 47" fill="none" xmlns="http://www.w3.org/2000/svg">
<path d="M46.6899 23.345C46.6899 36.238 36.238 46.6899 23.345 46.6899C10.4519 46.6899 0 36.238 0 23.345C0 10.4519 10.4519 0 23.345 0C36.238 0 46.6899 10.4519 46.6899 23.345Z" fill="white"/>
<path d="M32.8008 23.287L32.7939 23.4042C32.7633 23.6749 32.6353 23.9271 32.4307 24.1093L24.8906 30.8251C24.4387 31.2279 23.7541 31.1754 23.3652 30.7119C22.9799 30.2523 23.0297 29.5585 23.4766 29.1611L28.7646 24.4511L14.9658 24.4511C14.3633 24.4511 13.8887 23.9491 13.8887 23.3476C13.8888 22.7462 14.3634 22.2451 14.9658 22.2451L28.9902 22.2451L26.1406 19.6249L23.6055 17.5595C23.1401 17.1807 23.0639 16.4895 23.4287 16.0146C23.7967 15.5356 24.478 15.451 24.9473 15.8339L27.5205 17.9326L27.5322 17.9423L32.4434 22.457L32.5244 22.54C32.7023 22.7421 32.8008 23.0054 32.8008 23.2783L32.8008 23.287Z" fill="#1350EC" stroke="#1350EC" stroke-width="0.5"/>
</svg>
