<?xml version="1.0" encoding="UTF-8"?> <svg xmlns="http://www.w3.org/2000/svg" width="209.315" height="32" viewBox="0 0 209.315 32"><defs><style>.a{fill:#0f9c7d;}</style></defs><path class="a" d="M13.577,16.486a5.741,5.741,0,0,1-1.963,1.058,6.782,6.782,0,0,1-2.279.372A8.936,8.936,0,0,1,7.055,17.6a8.317,8.317,0,0,1-2.089-.886V16.6a9.263,9.263,0,0,1,2.406-1.029A10.208,10.208,0,0,1,10,15.2a10.306,10.306,0,0,1,1.614.143,9.782,9.782,0,0,1,1.583.4,17.432,17.432,0,0,0,1.836-4.318l.19-.6c-.918.2-1.836.315-2.786.429-.95.086-1.9.143-2.881.143a14.947,14.947,0,0,1-6.11-1,3.108,3.108,0,0,1-2.121-2.86A3.356,3.356,0,0,1,3.51,4.561,13.161,13.161,0,0,1,9.462,3.445c.918,0,1.8.028,2.722.114s1.8.172,2.691.315l.1.143-.032.2-.158.086c-1.108-.143-2.089-.257-2.913-.315-.855-.057-1.583-.114-2.216-.114a10.6,10.6,0,0,0-4.97.972,2.911,2.911,0,0,0-1.836,2.6,2.73,2.73,0,0,0,1.9,2.459,13.194,13.194,0,0,0,5.319.886c.76,0,1.583-.057,2.5-.143s1.868-.257,2.944-.457A18.049,18.049,0,0,1,18.8,3.189,6.042,6.042,0,0,1,23.455.758a2.882,2.882,0,0,1,1.9.572,2.109,2.109,0,0,1,.7,1.63c0,1.258-.791,2.574-2.406,3.918a20.171,20.171,0,0,1-6.395,3.4,24.981,24.981,0,0,1-1.488,3.26,13.722,13.722,0,0,1-1.678,2.4,26.782,26.782,0,0,0,4.242,1.144,21.918,21.918,0,0,0,3.989.372,4.645,4.645,0,0,0,1.963-.315,1.016,1.016,0,0,0,.633-.972,1.17,1.17,0,0,0-.665-1.058,3.542,3.542,0,0,0-1.773-.4,5.516,5.516,0,0,0-1.2.114,3.818,3.818,0,0,0-1.108.343l-.127-.028-.064-.2.064-.143a4.788,4.788,0,0,1,1.139-.4,6.477,6.477,0,0,1,1.33-.143,3.749,3.749,0,0,1,2.153.572,1.746,1.746,0,0,1,.791,1.516,2.032,2.032,0,0,1-1.013,1.773,5,5,0,0,1-2.722.658,13.567,13.567,0,0,1-3.546-.6A27.125,27.125,0,0,1,13.577,16.486Zm-.728-.286a4,4,0,0,0-1.076-.372,4.679,4.679,0,0,0-1.108-.114,3.563,3.563,0,0,0-1.583.372A5.687,5.687,0,0,0,7.53,17.172a2.849,2.849,0,0,0,.7.257,3.877,3.877,0,0,0,.855.086,7.382,7.382,0,0,0,2.184-.315A5.29,5.29,0,0,0,12.849,16.2Zm4.558-6.463a11.85,11.85,0,0,0,2.121-.858,12.7,12.7,0,0,0,2.089-1.4,13.846,13.846,0,0,0,2.628-2.6A4.074,4.074,0,0,0,25.258,2.73a1.418,1.418,0,0,0-.411-1.115,1.671,1.671,0,0,0-1.172-.4c-1.2,0-2.311.715-3.355,2.145A21.393,21.393,0,0,0,17.407,9.737Z" transform="translate(-1.326 -0.671)"></path><path class="a" d="M51.75,20.447,53.46,15.7a.821.821,0,0,1,.19-.286.772.772,0,0,1,.317-.143l.981-.172h.1a.311.311,0,0,1,.158.028.145.145,0,0,1,.064.114v.086c0,.028,0,.028-.032.057l-1.8,5.09a7.731,7.731,0,0,0-.317,1,2.751,2.751,0,0,0-.1.572.659.659,0,0,0,.19.515.682.682,0,0,0,.475.172c.538,0,1.3-.515,2.311-1.516a45.892,45.892,0,0,0,3.83-4.547.39.39,0,0,1,.032.172v.143a4.39,4.39,0,0,1-1.172,2q-.19.214-.285.343a21.105,21.105,0,0,1-3.1,3.174,3.946,3.946,0,0,1-2.343.944,1.641,1.641,0,0,1-1.139-.4,1.371,1.371,0,0,1-.411-1.058,2.9,2.9,0,0,1,.1-.629A4.777,4.777,0,0,1,51.75,20.447Zm4.02-7.35a2.35,2.35,0,0,1-1.045-.257c-.348-.172-.506-.343-.506-.486a1.614,1.614,0,0,1,.285-.686c.19-.315.348-.486.411-.486a1.013,1.013,0,0,1,.443.172c.19.114.317.2.38.229l.19.086q.38.172.38.343a1.713,1.713,0,0,1-.127.83A.452.452,0,0,1,55.771,13.1Z" transform="translate(-25.095 -6.148)"></path><path class="a" d="M67.765,13.489a8.121,8.121,0,0,0-.19,1.115c-.032.343-.064.658-.064.915a2.942,2.942,0,0,0,.317,1.573,1.082,1.082,0,0,0,.981.515,3.944,3.944,0,0,0,2.343-1.344,39.77,39.77,0,0,0,3.862-4.6c.032.057.032.143.064.2,0,.057.032.143.032.2a2.051,2.051,0,0,1-.38.8,14.243,14.243,0,0,1-1.076,1.43,20.825,20.825,0,0,1-3.039,3.2,4.067,4.067,0,0,1-2.406,1.029,2.094,2.094,0,0,1-1.773-.8,3.256,3.256,0,0,1-.633-2.174,10.886,10.886,0,0,1,.222-1.945c.158-.83.38-1.8.7-2.974A23.052,23.052,0,0,1,67.67,7.8c.38-.944.855-1.916,1.393-2.946a15.586,15.586,0,0,1,1.361-2.145,4.4,4.4,0,0,1,1.2-1.2l.19-.028a1.154,1.154,0,0,1,.348.629,5.047,5.047,0,0,1,.127,1.115,12.8,12.8,0,0,1-1.139,5.119A21.645,21.645,0,0,1,67.765,13.489Zm.127-.972a13.306,13.306,0,0,0,2.184-3.4A8.478,8.478,0,0,0,70.8,5.8c0-.286-.032-.629-.064-1a9.245,9.245,0,0,0-.19-1.2,22.124,22.124,0,0,0-1.709,4.089A31.005,31.005,0,0,0,67.892,12.517Z" transform="translate(-31.93 -1.049)"></path><path class="a" d="M86.678,28.994a10.14,10.14,0,0,1-1.9,3.746A6.766,6.766,0,0,1,81.708,34.8l-.158-.028a2.207,2.207,0,0,1-.127-.486,2.985,2.985,0,0,1-.032-.543,4.129,4.129,0,0,1,.981-2.6,11.536,11.536,0,0,1,3.008-2.6,11.793,11.793,0,0,1,.411-1.716c.19-.715.6-2,1.2-3.832a16.982,16.982,0,0,1-3.039,3.546,4.337,4.337,0,0,1-2.691,1.2,1.31,1.31,0,0,1-.981-.4,1.381,1.381,0,0,1-.38-1,2.492,2.492,0,0,1,.1-.572c.064-.229.127-.515.253-.858l1.741-4.861a.361.361,0,0,1,.19-.229.958.958,0,0,1,.348-.114l1.013-.114h.064c.064,0,.1,0,.127.028a.133.133,0,0,1,0,.172.208.208,0,0,0-.032.086l-1.9,5.519a3.016,3.016,0,0,0-.127.515,2.671,2.671,0,0,0-.032.486.443.443,0,0,0,.158.315.553.553,0,0,0,.38.143,2.955,2.955,0,0,0,1.8-1.058,21.606,21.606,0,0,0,2.5-3.031,20.538,20.538,0,0,0,1.2-1.973q.57-1.072.855-1.115l1.108-.114h.064a.311.311,0,0,1,.158.028c.032.028.064.057.064.086a9.381,9.381,0,0,1-.348.944A61.041,61.041,0,0,0,87,28.165a26.193,26.193,0,0,0,3.039-2.745c1.108-1.144,2.343-2.517,3.672-4.147.032.057.032.086.064.143,0,.057.032.114.032.172a1.364,1.364,0,0,1-.285.715,17.091,17.091,0,0,1-1.33,1.6c-1.3,1.458-2.374,2.574-3.166,3.317A26.286,26.286,0,0,1,86.678,28.994Zm-3.925,4.8a3.864,3.864,0,0,0,1.678-1.63,8.433,8.433,0,0,0,.918-2.917,7.618,7.618,0,0,0-2.089,1.773,3.01,3.01,0,0,0-.665,1.887,1.845,1.845,0,0,0,.032.4A1.538,1.538,0,0,0,82.753,33.8Z" transform="translate(-38.623 -10.549)"></path><path class="a" d="M141.848,12.643a7.969,7.969,0,0,1,1.393,2.116,5.715,5.715,0,0,1,.475,2.288,6.547,6.547,0,0,1-.1,1.315q-.1.429-.285.429a1.788,1.788,0,0,1-.475-.229,5.789,5.789,0,0,1-.791-.543,4.152,4.152,0,0,1-1.33-1.6,4.945,4.945,0,0,1-.443-2.059,4.754,4.754,0,0,1,.1-.944,7.77,7.77,0,0,1,.253-1.029c-.348-.257-.728-.543-1.139-.8s-.855-.543-1.393-.858c-.506.658-.95,1.23-1.361,1.745-.411.486-.791.915-1.139,1.258h1.266c.222,0,.57-.028,1.013-.028l.127.086.032.229-.127.086a7.792,7.792,0,0,1-.918.114c-.348.028-.728.028-1.2.028h-.728a17.67,17.67,0,0,1-4.685,3.117,11.825,11.825,0,0,1-4.812,1.058,8.646,8.646,0,0,1-3.957-.83c-1.045-.543-1.583-1.2-1.583-2a1.647,1.647,0,0,1,.855-1.458,4.124,4.124,0,0,1,2.279-.543,8.791,8.791,0,0,1,4.052,1l.064.172-.1.2-.158.057a12.371,12.371,0,0,0-1.678-.572,5.956,5.956,0,0,0-1.361-.172,2.851,2.851,0,0,0-1.678.429,1.367,1.367,0,0,0-.6,1.2,1.762,1.762,0,0,0,1.139,1.487,6.065,6.065,0,0,0,2.849.6,7.222,7.222,0,0,0,3.419-.972,16.574,16.574,0,0,0,3.767-2.8A15.241,15.241,0,0,1,127,12.671c-1.425-.8-2.153-1.745-2.153-2.831a2.074,2.074,0,0,1,1.172-1.859,6.012,6.012,0,0,1,3.1-.715,14.853,14.853,0,0,1,3.957.543,18.814,18.814,0,0,1,3.989,1.63,31.961,31.961,0,0,1,5.1-5.662c1.678-1.4,3.008-2.116,4.02-2.116a.68.68,0,0,1,.285.057c.064.057.064.114.064.229a39.724,39.724,0,0,1-1.614,3.775C143.842,8.1,142.766,10.412,141.848,12.643ZM136.656,9.9a19.931,19.931,0,0,0-3.577-1.516,11.148,11.148,0,0,0-3.166-.515,5.57,5.57,0,0,0-2.849.629,1.856,1.856,0,0,0-1.076,1.63c0,.944.665,1.745,1.963,2.4a13.891,13.891,0,0,0,5.319,1.2,13.818,13.818,0,0,0,1.361-1.372C135.169,11.756,135.833,10.926,136.656,9.9Zm8.1-7.121c-1.013.286-2.881,2.4-5.572,6.349l-.791,1.144c.475.315.918.572,1.3.83s.7.486,1.013.686c.76-2.2,1.488-4.089,2.153-5.577A16.578,16.578,0,0,1,144.761,2.776Zm-3.1,10.609c-.1.343-.158.658-.222.972a5,5,0,0,0-.064.972,3.571,3.571,0,0,0,.285,1.516,2.4,2.4,0,0,0,.855.972,3.81,3.81,0,0,0,.317-.83,4.011,4.011,0,0,0,.1-.886,3.53,3.53,0,0,0-.285-1.43A6.931,6.931,0,0,0,141.658,13.386Z" transform="translate(-57.673 -1.146)"></path><path class="a" d="M169.119,27.241l2.374-6.978a1.479,1.479,0,0,1,.253-.486.649.649,0,0,1,.348-.172l.918-.2h.19a.253.253,0,0,1,.158.057.21.21,0,0,1,.064.143v.086c0,.028,0,.057-.032.057l-1.8,5.2a29.762,29.762,0,0,1,3.482-4.2,4.1,4.1,0,0,1,2.469-1.372,1.514,1.514,0,0,1,1.045.4,1.24,1.24,0,0,1,.443.944,3.54,3.54,0,0,1-.158.83c-.1.343-.285.858-.538,1.544-.064.114-.127.315-.222.543a12.06,12.06,0,0,0-.886,2.745.386.386,0,0,0,.158.286.506.506,0,0,0,.348.114c.38,0,1.045-.457,1.931-1.344s2.121-2.316,3.7-4.29c.031.057.064.086.064.143s.032.086.032.143c0,.343-.506,1.087-1.488,2.259a6.228,6.228,0,0,1-.475.543,19.468,19.468,0,0,1-2.659,2.745,3.109,3.109,0,0,1-1.8.8,1.639,1.639,0,0,1-1.139-.429,1.44,1.44,0,0,1-.443-1.058,11.493,11.493,0,0,1,.728-2.431c.19-.486.348-.886.443-1.173.222-.658.411-1.115.506-1.4a2.841,2.841,0,0,0,.158-.572.333.333,0,0,0-.127-.257.407.407,0,0,0-.285-.114,2.947,2.947,0,0,0-1.488.915,21.068,21.068,0,0,0-2.279,2.545c-.411.543-.791,1.058-1.108,1.516a8.22,8.22,0,0,0-.76,1.344c-.032.086-.1.2-.158.343a.774.774,0,0,1-.633.572l-.981.172h-.127a.479.479,0,0,1-.19-.057.229.229,0,0,1-.064-.172v-.172A.159.159,0,0,1,169.119,27.241Z" transform="translate(-80.956 -10.454)"></path><path class="a" d="M192.138,27.241l2.374-6.978a1.478,1.478,0,0,1,.253-.486.649.649,0,0,1,.348-.172l.918-.2h.19a.254.254,0,0,1,.158.057.209.209,0,0,1,.064.143v.086c0,.028,0,.057-.032.057l-1.8,5.2a29.763,29.763,0,0,1,3.482-4.2,4.1,4.1,0,0,1,2.469-1.372,1.514,1.514,0,0,1,1.045.4,1.24,1.24,0,0,1,.443.944,3.54,3.54,0,0,1-.158.83c-.1.343-.285.858-.538,1.544-.064.114-.127.315-.222.543a12.059,12.059,0,0,0-.886,2.745.386.386,0,0,0,.158.286.506.506,0,0,0,.348.114c.38,0,1.045-.457,1.931-1.344s2.121-2.316,3.7-4.29c.032.057.064.086.064.143s.032.086.032.143c0,.343-.506,1.087-1.488,2.259a6.228,6.228,0,0,1-.475.543,19.47,19.47,0,0,1-2.659,2.745,3.109,3.109,0,0,1-1.8.8,1.639,1.639,0,0,1-1.139-.429,1.44,1.44,0,0,1-.443-1.058,11.494,11.494,0,0,1,.728-2.431c.19-.486.348-.886.443-1.173.222-.658.411-1.115.506-1.4a2.841,2.841,0,0,0,.158-.572.333.333,0,0,0-.127-.257.407.407,0,0,0-.285-.114,2.947,2.947,0,0,0-1.488.915,21.068,21.068,0,0,0-2.279,2.545c-.411.543-.791,1.058-1.108,1.516a8.224,8.224,0,0,0-.76,1.344c-.032.086-.1.2-.158.343a.774.774,0,0,1-.633.572l-.981.172h-.127a.479.479,0,0,1-.19-.057.229.229,0,0,1-.064-.172v-.172A.159.159,0,0,1,192.138,27.241Z" transform="translate(-91.882 -10.454)"></path><path class="a" d="M236.6,9.583a15.218,15.218,0,0,1-5.952-1.115,2.982,2.982,0,0,1-2.026-2.717,2.932,2.932,0,0,1,1.9-2.6,11.22,11.22,0,0,1,5.128-.972,20.524,20.524,0,0,1,2.976.2,22.6,22.6,0,0,1,2.849.572,13.325,13.325,0,0,1,2.849-1.773,6.169,6.169,0,0,1,2.5-.6,2.833,2.833,0,0,1,1.963.629,2.132,2.132,0,0,1,.728,1.659,3.728,3.728,0,0,1-.886,2.288A9.06,9.06,0,0,1,246.065,7.3v.2A3.916,3.916,0,0,1,244.7,10.47a9.505,9.505,0,0,1-3.989,2l-.19-.057-.064-.2.1-.114a9.962,9.962,0,0,0,3.609-1.859A3.314,3.314,0,0,0,245.4,7.724V7.666a19,19,0,0,1-3.071,1.173,24.968,24.968,0,0,1-3.577.715,9.655,9.655,0,0,0-.348,1.43,12.651,12.651,0,0,0-.127,1.573,4.7,4.7,0,0,0,1.393,3.6,5.358,5.358,0,0,0,3.8,1.315,7.25,7.25,0,0,0,4.305-1.487,23.35,23.35,0,0,0,4.622-4.947.387.387,0,0,1,.064.2.286.286,0,0,1,.031.143,1.973,1.973,0,0,1-.506,1.058,23.026,23.026,0,0,1-1.678,1.945,13.412,13.412,0,0,1-3.577,2.831,8.565,8.565,0,0,1-3.8.886,7.051,7.051,0,0,1-4.844-1.659,5.492,5.492,0,0,1-1.868-4.29,8,8,0,0,1,.1-1.23A10.386,10.386,0,0,1,236.6,9.583Zm.159-.515a13.783,13.783,0,0,1,1.678-3.031,14.792,14.792,0,0,1,2.533-2.659,13.787,13.787,0,0,0-2.279-.457,17.956,17.956,0,0,0-2.564-.172,9.019,9.019,0,0,0-4.337.915,2.635,2.635,0,0,0-1.646,2.345,2.494,2.494,0,0,0,1.709,2.259A13.5,13.5,0,0,0,236.759,9.068Zm2.216-.085a16.216,16.216,0,0,0,3.45-.8,13.61,13.61,0,0,0,2.944-1.43,3.715,3.715,0,0,0-1.045-1.773,6.154,6.154,0,0,0-2.153-1.287A21.364,21.364,0,0,0,240.4,6.152,20.3,20.3,0,0,0,238.974,8.983Zm3.546-5.691A7.384,7.384,0,0,1,244.7,4.607a4.012,4.012,0,0,1,1.139,1.716,7.938,7.938,0,0,0,1.709-1.887,3.42,3.42,0,0,0,.633-1.745,1.476,1.476,0,0,0-.443-1.115,1.771,1.771,0,0,0-1.235-.429,4.26,4.26,0,0,0-1.963.572A8.11,8.11,0,0,0,242.52,3.292Z" transform="translate(-109.213 -0.575)"></path><path class="a" d="M273.885,23.889a15.271,15.271,0,0,1-2.279,2.974,2.948,2.948,0,0,1-1.9.915,2.069,2.069,0,0,1-1.614-.686,2.877,2.877,0,0,1-.6-1.887,4.329,4.329,0,0,1,.7-2.259,9.289,9.289,0,0,1,1.963-2.23,7.094,7.094,0,0,1,1.868-1.087,6.056,6.056,0,0,1,3.261-.257,7.433,7.433,0,0,1,1.139.343l.127.172v.057a4.175,4.175,0,0,1-.317,1.173c-.127.315-.19.572-.253.744l-1.2,3.718c0,.028-.032.028-.032.057a3,3,0,0,0-.127.772.567.567,0,0,0,.158.343.534.534,0,0,0,.348.143q.617,0,1.9-1.287a54.531,54.531,0,0,0,3.767-4.547c.031.057.031.114.064.172,0,.057.031.114.031.172a3.344,3.344,0,0,1-.823,1.43l-.127.172-.158.2q-3.8,4.547-5.319,4.547a1.461,1.461,0,0,1-.981-.315,1.127,1.127,0,0,1-.348-.886,4.193,4.193,0,0,1,.19-.972A14.524,14.524,0,0,1,273.885,23.889Zm1.3-3.689a1.78,1.78,0,0,0-.538-.286,2.693,2.693,0,0,0-.665-.114,2.416,2.416,0,0,0-1.33.457,6.633,6.633,0,0,0-1.456,1.4,12.355,12.355,0,0,0-1.488,2.316,4.385,4.385,0,0,0-.506,1.916,1.2,1.2,0,0,0,.222.772.709.709,0,0,0,.6.286c.633,0,1.393-.6,2.342-1.83A24.962,24.962,0,0,0,275.183,20.2Z" transform="translate(-127.662 -10.391)"></path><path class="a" d="M297.365,16.644a5.31,5.31,0,0,1-1.551,1.4,3.349,3.349,0,0,1-1.709.486,2.428,2.428,0,0,1-1.963-.858,3.63,3.63,0,0,1-.728-2.374,12.6,12.6,0,0,1,.981-4.376,30.019,30.019,0,0,1,2.691-5.376,21.9,21.9,0,0,1,1.741-2.4,7.572,7.572,0,0,1,1.583-1.487l.158.028a1.31,1.31,0,0,1,.222.457,4.464,4.464,0,0,1,.064.744,13.073,13.073,0,0,1-1.266,5.691,26.912,26.912,0,0,1-4.4,6.177c0,.086-.031.2-.031.343a2.469,2.469,0,0,0-.032.4,2.839,2.839,0,0,0,.411,1.687,1.332,1.332,0,0,0,1.139.6,2.149,2.149,0,0,0,1.235-.457,4.4,4.4,0,0,0,1.172-1.258,2.3,2.3,0,0,1-.285-.686,3.659,3.659,0,0,1-.1-.886,5.851,5.851,0,0,1,.475-2.316,4.852,4.852,0,0,1,1.266-1.83h.127a1.968,1.968,0,0,1,.285.572,2.348,2.348,0,0,1,.1.715,9.8,9.8,0,0,1-.285,2.374,7.118,7.118,0,0,1-.886,2.03,1.063,1.063,0,0,0,.348.429.832.832,0,0,0,.475.143,2.73,2.73,0,0,0,1.678-1.029,34.854,34.854,0,0,0,3.071-3.8.383.383,0,0,1,.064.172.389.389,0,0,1,.032.2,3.276,3.276,0,0,1-.76,1.4l-.1.143a18.08,18.08,0,0,1-2.374,2.745,2.628,2.628,0,0,1-1.646.772,1.6,1.6,0,0,1-.665-.143A6.086,6.086,0,0,1,297.365,16.644Zm-4.052-2.974a18.328,18.328,0,0,0,3.1-4.261A9.148,9.148,0,0,0,297.4,5.32a6.764,6.764,0,0,0-.064-.83,3.424,3.424,0,0,0-.19-.772,13.727,13.727,0,0,0-2.153,3.918A40.712,40.712,0,0,0,293.313,13.67Z" transform="translate(-139.017 -1.145)"></path><path class="a" d="M311.406,20.447l1.709-4.747a.822.822,0,0,1,.19-.286.769.769,0,0,1,.317-.143l.981-.172h.1a.311.311,0,0,1,.158.028.145.145,0,0,1,.064.114v.086c0,.028,0,.028-.032.057l-1.8,5.09a7.739,7.739,0,0,0-.317,1,2.753,2.753,0,0,0-.1.572.66.66,0,0,0,.19.515.682.682,0,0,0,.475.172c.538,0,1.3-.515,2.311-1.516a45.892,45.892,0,0,0,3.83-4.547.39.39,0,0,1,.031.172v.143a4.389,4.389,0,0,1-1.172,2q-.19.214-.285.343a21.106,21.106,0,0,1-3.1,3.174,3.948,3.948,0,0,1-2.343.944,1.641,1.641,0,0,1-1.139-.4,1.372,1.372,0,0,1-.411-1.058,2.9,2.9,0,0,1,.1-.629A4.818,4.818,0,0,1,311.406,20.447Zm4.02-7.35a2.35,2.35,0,0,1-1.045-.257c-.348-.172-.506-.343-.506-.486a1.614,1.614,0,0,1,.285-.686c.19-.315.348-.486.411-.486a1.013,1.013,0,0,1,.443.172c.19.114.317.2.38.229l.19.086q.38.172.38.343a1.713,1.713,0,0,1-.127.83A.384.384,0,0,1,315.427,13.1Z" transform="translate(-148.342 -6.148)"></path><path class="a" d="M322.72,27.241l2.374-6.978a1.479,1.479,0,0,1,.253-.486.649.649,0,0,1,.348-.172l.918-.2h.19a.253.253,0,0,1,.158.057.21.21,0,0,1,.064.143v.086c0,.028,0,.057-.031.057l-1.8,5.2a29.8,29.8,0,0,1,3.482-4.2,4.1,4.1,0,0,1,2.469-1.372,1.514,1.514,0,0,1,1.045.4,1.24,1.24,0,0,1,.443.944,3.54,3.54,0,0,1-.158.83c-.1.343-.285.858-.538,1.544-.064.114-.127.315-.222.543a12.059,12.059,0,0,0-.886,2.745.386.386,0,0,0,.158.286.507.507,0,0,0,.348.114c.38,0,1.045-.457,1.931-1.344s2.121-2.316,3.7-4.29c.031.057.064.086.064.143s.032.086.032.143c0,.343-.506,1.087-1.488,2.259a6.228,6.228,0,0,1-.475.543,19.468,19.468,0,0,1-2.659,2.745,3.109,3.109,0,0,1-1.8.8,1.639,1.639,0,0,1-1.139-.429,1.44,1.44,0,0,1-.443-1.058,11.5,11.5,0,0,1,.728-2.431c.19-.486.348-.886.443-1.173.222-.658.411-1.115.506-1.4a2.841,2.841,0,0,0,.158-.572.333.333,0,0,0-.127-.257.407.407,0,0,0-.285-.114,2.947,2.947,0,0,0-1.488.915,21.069,21.069,0,0,0-2.279,2.545c-.411.543-.791,1.058-1.108,1.516a8.221,8.221,0,0,0-.76,1.344c-.032.086-.1.2-.158.343a.774.774,0,0,1-.633.572l-.981.172h-.127a.479.479,0,0,1-.19-.057.229.229,0,0,1-.064-.172v-.172A.159.159,0,0,1,322.72,27.241Z" transform="translate(-153.862 -10.454)"></path><path class="a" d="M357.737,20.938c.032.028.032.057.064.114a.334.334,0,0,1,.031.172,1.883,1.883,0,0,1-.285.858,9.962,9.962,0,0,1-.855,1.258,15.235,15.235,0,0,1-3.609,3.317,6.926,6.926,0,0,1-3.641,1.173,3.174,3.174,0,0,1-2.279-.83,2.913,2.913,0,0,1-.855-2.2,4.793,4.793,0,0,1,.443-1.916,8.1,8.1,0,0,1,1.33-1.916,6.915,6.915,0,0,1,1.773-1.344,4.493,4.493,0,0,1,1.931-.486,2.563,2.563,0,0,1,1.583.486,1.467,1.467,0,0,1,.633,1.2,3.143,3.143,0,0,1-1.614,2.345,12.805,12.805,0,0,1-4.274,1.916,2.155,2.155,0,0,0,.538,1.516,1.919,1.919,0,0,0,1.456.543,6.193,6.193,0,0,0,3.7-1.63A22.438,22.438,0,0,0,357.737,20.938Zm-9.687,3.574a6.238,6.238,0,0,0,3.1-1.487,3.188,3.188,0,0,0,1.2-2.4.965.965,0,0,0-.222-.686.843.843,0,0,0-.665-.229,2.715,2.715,0,0,0-2.058,1.372A8.32,8.32,0,0,0,348.05,24.512Z" transform="translate(-165.074 -10.328)"></path><path class="a" d="M365.439,20.276l1.108-3.489h-1.488L365,16.644l.127-.343.127-.114h1.519l1.076-3.117a.718.718,0,0,1,.222-.4.405.405,0,0,1,.317-.143l.95-.2h.1a.258.258,0,0,1,.158.028c.032.028.032.057.032.114v.114a.1.1,0,0,1-.032.086l-1.076,3.517H369.9l.031.114-.064.4-.1.086H368.35l-1.583,4.947a5.051,5.051,0,0,0-.158.572,2.906,2.906,0,0,0-.064.486.554.554,0,0,0,.19.429.659.659,0,0,0,.443.172c.57,0,1.33-.486,2.311-1.487a40.3,40.3,0,0,0,3.672-4.547c.031.028.031.086.031.143v.2a5,5,0,0,1-1.2,2.088l-.032.057a24.3,24.3,0,0,1-3.071,3.346,3.806,3.806,0,0,1-2.247,1,1.962,1.962,0,0,1-1.3-.4,1.353,1.353,0,0,1-.475-1.115,4.532,4.532,0,0,1,.158-.886A9.713,9.713,0,0,1,365.439,20.276Z" transform="translate(-173.883 -6.749)"></path><path class="a" d="M381.687,27.2a8.7,8.7,0,0,1-1.3.429,6.008,6.008,0,0,1-1.2.143,4.007,4.007,0,0,1-1.9-.372,1.133,1.133,0,0,1-.728-.972.924.924,0,0,1,.443-.772,1.911,1.911,0,0,1,1.108-.315,1.708,1.708,0,0,1,.38.028c.127.028.253.057.348.086v.086a.914.914,0,0,0-.38.372.884.884,0,0,0-.158.457.643.643,0,0,0,.411.6,2.081,2.081,0,0,0,1.013.229,2.771,2.771,0,0,0,1.614-.429,1.321,1.321,0,0,0,.633-1.115,1.253,1.253,0,0,0-.285-.8,6.526,6.526,0,0,0-1.33-1.087,10.245,10.245,0,0,1-1.614-1.287,1.509,1.509,0,0,1-.348-.915,2.034,2.034,0,0,1,1.172-1.687,5.31,5.31,0,0,1,2.817-.744,3.086,3.086,0,0,1,1.425.257.883.883,0,0,1,.475.83,1.059,1.059,0,0,1-.538.8,2.648,2.648,0,0,1-1.33.4l-.1-.114a1.022,1.022,0,0,0,.38-.429.866.866,0,0,0,.127-.486.6.6,0,0,0-.317-.515,1.377,1.377,0,0,0-.823-.2,2.161,2.161,0,0,0-1.266.343,1.061,1.061,0,0,0-.506.858c0,.429.475.972,1.425,1.573.317.229.6.4.76.515a4.454,4.454,0,0,1,1.045.972,1.627,1.627,0,0,1,.317.972,1.43,1.43,0,0,1-.19.715,2.905,2.905,0,0,1-.6.744,5.117,5.117,0,0,0,2.5-1.6,25.05,25.05,0,0,0,3.166-4.061.4.4,0,0,1,.1.114.333.333,0,0,1,.032.172,2.062,2.062,0,0,1-.38.972,14.021,14.021,0,0,1-1.076,1.516,13.914,13.914,0,0,1-2.786,2.717A4.832,4.832,0,0,1,381.687,27.2Z" transform="translate(-179.432 -10.327)"></path><g transform="translate(77.021 25.137)"><path class="a" d="M149.075,59.127h-1.139l1.139-4.861h3.008l-.19.858h-1.868l-.285,1.258h1.741l-.222.83h-1.741Z" transform="translate(-147.936 -53.923)"></path><path class="a" d="M157,60.389a1.138,1.138,0,0,1-.855-.343,1.393,1.393,0,0,1-.317-1,3.446,3.446,0,0,1,.253-1.258,2.018,2.018,0,0,1,.7-.915,1.544,1.544,0,0,1,1.583-.172,1.057,1.057,0,0,1,.411.4h.032l.222-.486h.855L159,60.332h-.855l.064-.486h0A1.719,1.719,0,0,1,157,60.389Zm.443-.8a.676.676,0,0,0,.475-.229,1.485,1.485,0,0,0,.38-.6,2.458,2.458,0,0,0,.158-.858.771.771,0,0,0-.127-.4.415.415,0,0,0-.38-.143.739.739,0,0,0-.475.229,1.409,1.409,0,0,0-.348.629,3.269,3.269,0,0,0-.127.772.553.553,0,0,0,.127.429C157.223,59.5,157.286,59.588,157.444,59.588Z" transform="translate(-151.683 -55.127)"></path><path class="a" d="M167.087,56.5a.912.912,0,0,1,.981.772h.032a1.835,1.835,0,0,1,.6-.572,1.329,1.329,0,0,1,.728-.2.9.9,0,0,1,.76.286,1.085,1.085,0,0,1,.253.8,2.28,2.28,0,0,1-.1.6l-.475,2.116h-1.108l.506-2.174a2.054,2.054,0,0,0,.064-.4c0-.286-.127-.4-.348-.4a.7.7,0,0,0-.6.372,3.213,3.213,0,0,0-.443,1.058l-.348,1.544h-1.108l.506-2.174a2.054,2.054,0,0,0,.064-.4c0-.286-.127-.4-.348-.4a.7.7,0,0,0-.6.372,3.213,3.213,0,0,0-.443,1.058l-.348,1.544h-1.108l.886-3.718h.855l-.064.686h.032A1.231,1.231,0,0,1,167.087,56.5Z" transform="translate(-155.658 -55.095)"></path><path class="a" d="M178.149,58.78h-1.108l.886-3.718h1.108Zm-.063-4.6a.48.48,0,0,1,.19-.429.863.863,0,0,1,.506-.143.573.573,0,0,1,.411.114.317.317,0,0,1,.127.286.576.576,0,0,1-.665.6Q178.085,54.561,178.086,54.176Z" transform="translate(-161.751 -53.576)"></path><path class="a" d="M182.367,58.779h-1.108l1.2-5.176h1.108Z" transform="translate(-163.753 -53.575)"></path><path class="a" d="M185.248,56.584h1.076l.222,1.716a8.076,8.076,0,0,1,.064.972h.031c.064-.114.1-.257.158-.4a3.409,3.409,0,0,1,.253-.515l.95-1.8h1.2l-2.5,4.261a2.014,2.014,0,0,1-1.773,1.115,2.477,2.477,0,0,1-.538-.057v-.8a2.749,2.749,0,0,0,.443.057.852.852,0,0,0,.538-.172,2.52,2.52,0,0,0,.443-.486l.1-.172Z" transform="translate(-165.241 -55.127)"></path><path class="a" d="M202.1,55.824a3.627,3.627,0,0,1-.38,1.687,2.626,2.626,0,0,1-1.013,1.115,2.734,2.734,0,0,1-1.456.372,2.226,2.226,0,0,1-1.488-.486,1.763,1.763,0,0,1-.538-1.372,3.477,3.477,0,0,1,.38-1.63,2.7,2.7,0,0,1,1.013-1.144,2.865,2.865,0,0,1,1.488-.4,2.084,2.084,0,0,1,1.456.486A1.809,1.809,0,0,1,202.1,55.824Zm-2.058-.944a1.341,1.341,0,0,0-.823.315,1.853,1.853,0,0,0-.57.83,3.374,3.374,0,0,0-.222,1.144,1.081,1.081,0,0,0,.253.744.885.885,0,0,0,.7.257,1.245,1.245,0,0,0,.823-.286,1.708,1.708,0,0,0,.57-.83,3.44,3.44,0,0,0,.222-1.2,1.081,1.081,0,0,0-.253-.744A1.116,1.116,0,0,0,200.046,54.88Z" transform="translate(-171.333 -53.765)"></path><path class="a" d="M210.524,57.474c-.158.4-.317.744-.443,1.058l-.855,1.8h-1.2l-.19-3.718h1.045v2.2l-.032.572h0c0-.057.032-.086.064-.143a3.954,3.954,0,0,0,.19-.457c.1-.257.158-.4.158-.4l.855-1.773h1.2v1.773c0,.315,0,.658-.032,1h.032l.1-.257c.19-.457.285-.744.348-.858l.823-1.659h1.139l-1.963,3.718h-1.2l-.032-1.745q0-.472,0-1.115Z" transform="translate(-176.366 -55.158)"></path><path class="a" d="M222.01,60.3H220.9l.506-2.174a2.053,2.053,0,0,0,.064-.4c0-.286-.127-.4-.411-.4a.7.7,0,0,0-.6.372,3.212,3.212,0,0,0-.443,1.058l-.348,1.544H218.56l.886-3.718h.855l-.064.686h.032a1.545,1.545,0,0,1,1.3-.772,1.015,1.015,0,0,1,.791.286,1.055,1.055,0,0,1,.285.8,2.28,2.28,0,0,1-.1.6Z" transform="translate(-181.458 -55.094)"></path><path class="a" d="M229.244,60.388a1.746,1.746,0,0,1-1.2-.372,1.351,1.351,0,0,1-.443-1.058,2.42,2.42,0,0,1,.317-1.258,2.069,2.069,0,0,1,.823-.858,2.272,2.272,0,0,1,1.172-.286,1.733,1.733,0,0,1,1.013.257.855.855,0,0,1,.38.744,1.042,1.042,0,0,1-.6.972,3.651,3.651,0,0,1-1.773.343h-.19v.115a.635.635,0,0,0,.19.486.794.794,0,0,0,.538.172,3.1,3.1,0,0,0,.57-.057,2.531,2.531,0,0,0,.633-.229V60.1A3.219,3.219,0,0,1,229.244,60.388Zm.6-3.146a.87.87,0,0,0-.6.257,1.287,1.287,0,0,0-.38.658h.158a1.912,1.912,0,0,0,.886-.172.481.481,0,0,0,.317-.429C230.226,57.357,230.1,57.242,229.846,57.242Z" transform="translate(-185.748 -55.127)"></path><path class="a" d="M236.785,58.806a1.138,1.138,0,0,1-.855-.343,1.393,1.393,0,0,1-.317-1,3.445,3.445,0,0,1,.253-1.258,2.265,2.265,0,0,1,.7-.915,1.48,1.48,0,0,1,.95-.343.934.934,0,0,1,.506.114,1.486,1.486,0,0,1,.411.429h.032V55.4a2.08,2.08,0,0,1,.1-.658l.285-1.2h1.108l-1.2,5.176h-.855l.064-.486h0a1.777,1.777,0,0,1-.538.429A1.579,1.579,0,0,1,236.785,58.806Zm.475-.8a.739.739,0,0,0,.475-.229,1.485,1.485,0,0,0,.38-.6,2.3,2.3,0,0,0,.127-.83.64.64,0,0,0-.127-.429.469.469,0,0,0-.38-.172.739.739,0,0,0-.475.229,1.409,1.409,0,0,0-.348.629,3.268,3.268,0,0,0-.127.772C236.752,57.8,236.911,58,237.259,58Z" transform="translate(-189.552 -53.544)"></path><path class="a" d="M252.407,59.064h-1.3l-.253-.315a2.865,2.865,0,0,1-1.488.4,1.916,1.916,0,0,1-1.172-.315,1.1,1.1,0,0,1-.411-.944,1.277,1.277,0,0,1,.285-.83,2.7,2.7,0,0,1,1.013-.658,1.54,1.54,0,0,1-.285-.858,1.33,1.33,0,0,1,.443-1.029,1.66,1.66,0,0,1,1.172-.372,1.51,1.51,0,0,1,.981.286.861.861,0,0,1,.348.744c0,.629-.443,1.087-1.361,1.43l.728.886a1.884,1.884,0,0,0,.285-.4,3.488,3.488,0,0,0,.285-.572h1.108a5.112,5.112,0,0,1-1.139,1.659Zm-2.913-2.088a1.071,1.071,0,0,0-.443.343.639.639,0,0,0-.127.429.572.572,0,0,0,.158.372.546.546,0,0,0,.443.143,1.663,1.663,0,0,0,.823-.2Zm.443-1a1.88,1.88,0,0,0,.57-.372.569.569,0,0,0,.158-.372.4.4,0,0,0-.1-.286.381.381,0,0,0-.253-.086.555.555,0,0,0-.38.143.564.564,0,0,0-.127.4,1.068,1.068,0,0,0,.032.315A1.268,1.268,0,0,0,249.938,55.975Z" transform="translate(-195.33 -53.86)"></path><path class="a" d="M266.822,55.824a3.627,3.627,0,0,1-.38,1.687,2.626,2.626,0,0,1-1.013,1.115,2.733,2.733,0,0,1-1.456.372,2.226,2.226,0,0,1-1.488-.486,1.763,1.763,0,0,1-.538-1.372,3.477,3.477,0,0,1,.38-1.63,2.7,2.7,0,0,1,1.013-1.144,2.864,2.864,0,0,1,1.488-.4,2.084,2.084,0,0,1,1.456.486A1.807,1.807,0,0,1,266.822,55.824Zm-2.058-.944a1.341,1.341,0,0,0-.823.315,1.853,1.853,0,0,0-.57.83,3.374,3.374,0,0,0-.222,1.144,1.081,1.081,0,0,0,.253.744.885.885,0,0,0,.7.257,1.245,1.245,0,0,0,.823-.286,1.708,1.708,0,0,0,.57-.83,3.439,3.439,0,0,0,.222-1.2,1.081,1.081,0,0,0-.253-.744A1.114,1.114,0,0,0,264.764,54.88Z" transform="translate(-202.052 -53.765)"></path><path class="a" d="M274.428,56.5a1.065,1.065,0,0,1,.855.372,1.393,1.393,0,0,1,.317,1,3.3,3.3,0,0,1-.253,1.23,2.286,2.286,0,0,1-.7.944,1.5,1.5,0,0,1-.981.343,1.129,1.129,0,0,1-.538-.114,1.168,1.168,0,0,1-.411-.429h-.032a8.026,8.026,0,0,1-.158.972l-.253,1.144h-1.108l1.266-5.376h.855l-.064.572h.032A1.426,1.426,0,0,1,274.428,56.5Zm-.443.8a.738.738,0,0,0-.475.229,1.485,1.485,0,0,0-.38.6,2.3,2.3,0,0,0-.127.83.64.64,0,0,0,.127.429.469.469,0,0,0,.38.172.739.739,0,0,0,.475-.229,1.268,1.268,0,0,0,.348-.629,2.349,2.349,0,0,0,.127-.8Q274.459,57.3,273.984,57.3Z" transform="translate(-206.429 -55.095)"></path><path class="a" d="M282.453,60.388a1.747,1.747,0,0,1-1.2-.372,1.351,1.351,0,0,1-.443-1.058,2.421,2.421,0,0,1,.317-1.258,2.069,2.069,0,0,1,.823-.858,2.272,2.272,0,0,1,1.172-.286,1.733,1.733,0,0,1,1.013.257.854.854,0,0,1,.38.744,1.042,1.042,0,0,1-.6.972,3.651,3.651,0,0,1-1.773.343h-.19v.115a.635.635,0,0,0,.19.486.794.794,0,0,0,.538.172,3.108,3.108,0,0,0,.57-.057,2.531,2.531,0,0,0,.633-.229V60.1A3.221,3.221,0,0,1,282.453,60.388Zm.6-3.146a.87.87,0,0,0-.6.257,1.287,1.287,0,0,0-.38.658h.158a1.912,1.912,0,0,0,.886-.172.481.481,0,0,0,.317-.429C283.435,57.357,283.308,57.242,283.055,57.242Z" transform="translate(-211.004 -55.127)"></path><path class="a" d="M291.408,56.5a1.2,1.2,0,0,1,.348.028l-.253.972a1.3,1.3,0,0,0-.38-.057,1.116,1.116,0,0,0-.76.315,1.662,1.662,0,0,0-.475.886l-.38,1.659H288.4l.886-3.718h.855l-.064.686h.032A1.548,1.548,0,0,1,291.408,56.5Z" transform="translate(-214.608 -55.095)"></path><path class="a" d="M296.079,60.389a1.138,1.138,0,0,1-.855-.343,1.393,1.393,0,0,1-.317-1,3.444,3.444,0,0,1,.253-1.258,2.02,2.02,0,0,1,.7-.915,1.544,1.544,0,0,1,1.583-.172,1.057,1.057,0,0,1,.411.4h.032l.222-.486h.855l-.886,3.718h-.855l.064-.486h0A1.719,1.719,0,0,1,296.079,60.389Zm.443-.8a.676.676,0,0,0,.475-.229,1.485,1.485,0,0,0,.38-.6,2.459,2.459,0,0,0,.158-.858.771.771,0,0,0-.127-.4c-.063-.114-.222-.143-.38-.143a.739.739,0,0,0-.475.229,1.409,1.409,0,0,0-.348.629,3.266,3.266,0,0,0-.127.772.553.553,0,0,0,.127.429C296.3,59.5,296.364,59.588,296.522,59.588Z" transform="translate(-217.697 -55.127)"></path><path class="a" d="M304.987,58.765a1.855,1.855,0,0,0,.6-.114v.744a2.58,2.58,0,0,1-.981.172,1.315,1.315,0,0,1-.823-.2.822.822,0,0,1-.253-.658,1.6,1.6,0,0,1,.032-.372l.411-1.8h-.57l.1-.486.728-.286.475-.772h.728l-.19.8h1.045l-.19.772H305.05l-.411,1.8c0,.057-.032.114-.032.172A.358.358,0,0,0,304.987,58.765Z" transform="translate(-221.73 -54.304)"></path><path class="a" d="M310.956,60.388a1.746,1.746,0,0,1-1.2-.372,1.351,1.351,0,0,1-.443-1.058,2.42,2.42,0,0,1,.317-1.258,2.069,2.069,0,0,1,.823-.858,2.272,2.272,0,0,1,1.172-.286,1.733,1.733,0,0,1,1.013.257.854.854,0,0,1,.38.744,1.042,1.042,0,0,1-.6.972,3.651,3.651,0,0,1-1.773.343h-.19v.115a.635.635,0,0,0,.19.486.794.794,0,0,0,.538.172,3.1,3.1,0,0,0,.57-.057,2.531,2.531,0,0,0,.633-.229V60.1A3.221,3.221,0,0,1,310.956,60.388Zm.6-3.146a.87.87,0,0,0-.6.257,1.287,1.287,0,0,0-.38.658h.158a1.912,1.912,0,0,0,.886-.172.481.481,0,0,0,.317-.429C311.938,57.357,311.811,57.242,311.557,57.242Z" transform="translate(-224.533 -55.127)"></path><path class="a" d="M318.5,58.806a1.138,1.138,0,0,1-.855-.343,1.393,1.393,0,0,1-.317-1,3.445,3.445,0,0,1,.253-1.258,2.265,2.265,0,0,1,.7-.915,1.48,1.48,0,0,1,.95-.343.934.934,0,0,1,.506.114,1.486,1.486,0,0,1,.411.429h.032V55.4a2.078,2.078,0,0,1,.1-.658l.285-1.2h1.108l-1.2,5.176H319.6l.064-.486h0a1.778,1.778,0,0,1-.538.429A1.578,1.578,0,0,1,318.5,58.806Zm.475-.8a.739.739,0,0,0,.475-.229,1.486,1.486,0,0,0,.38-.6,2.3,2.3,0,0,0,.127-.83.639.639,0,0,0-.127-.429.469.469,0,0,0-.38-.172.739.739,0,0,0-.475.229,1.409,1.409,0,0,0-.348.629,3.269,3.269,0,0,0-.127.772C318.464,57.8,318.622,58,318.97,58Z" transform="translate(-228.337 -53.544)"></path><path class="a" d="M332.64,57.542a1.3,1.3,0,0,1-.538,1.087,2.491,2.491,0,0,1-1.488.4,2.446,2.446,0,0,1-1.3-.286v-.915a3.152,3.152,0,0,0,1.33.372,1.265,1.265,0,0,0,.633-.143.422.422,0,0,0,.222-.4.755.755,0,0,0-.064-.257,1.23,1.23,0,0,0-.127-.2c-.064-.057-.222-.172-.443-.343a2.514,2.514,0,0,1-.728-.658,1.177,1.177,0,0,1-.222-.686,1.313,1.313,0,0,1,.222-.772,1.434,1.434,0,0,1,.665-.515,2.569,2.569,0,0,1,.981-.2,3.1,3.1,0,0,1,1.456.343l-.411.772a2.58,2.58,0,0,0-1.076-.257.944.944,0,0,0-.506.143.461.461,0,0,0-.19.4.429.429,0,0,0,.127.343,2.146,2.146,0,0,0,.538.4,2.122,2.122,0,0,1,.665.6A1.334,1.334,0,0,1,332.64,57.542Z" transform="translate(-234.029 -53.797)"></path><path class="a" d="M337.957,58.78h-1.108l.886-3.718h1.108Zm-.064-4.6a.48.48,0,0,1,.19-.429.863.863,0,0,1,.506-.143.573.573,0,0,1,.411.114.317.317,0,0,1,.127.286.576.576,0,0,1-.665.6Q337.894,54.561,337.893,54.176Z" transform="translate(-237.604 -53.576)"></path><path class="a" d="M344.637,60.3H343.53l.506-2.174a2.051,2.051,0,0,0,.064-.4c0-.286-.127-.4-.411-.4a.7.7,0,0,0-.6.372,3.213,3.213,0,0,0-.443,1.058l-.348,1.544h-1.108l.886-3.718h.855l-.064.686h.032a1.546,1.546,0,0,1,1.3-.772,1.016,1.016,0,0,1,.792.286,1.055,1.055,0,0,1,.285.8,2.28,2.28,0,0,1-.1.6Z" transform="translate(-239.664 -55.094)"></path><path class="a" d="M351.717,60.357a1.529,1.529,0,0,1-1.139-.372,1.312,1.312,0,0,1-.411-1,2.969,2.969,0,0,1,.285-1.287,2.229,2.229,0,0,1,.76-.886,2.093,2.093,0,0,1,1.139-.315,3.187,3.187,0,0,1,1.2.229l-.348.772c-.127-.057-.253-.086-.38-.143a2.061,2.061,0,0,0-.443-.057.811.811,0,0,0-.57.2,1.587,1.587,0,0,0-.38.572,2.244,2.244,0,0,0-.127.8.765.765,0,0,0,.158.486.631.631,0,0,0,.475.172,1.429,1.429,0,0,0,.506-.086c.158-.057.317-.114.506-.2v.83A2.591,2.591,0,0,1,351.717,60.357Z" transform="translate(-243.925 -55.095)"></path><path class="a" d="M358.741,60.388a1.746,1.746,0,0,1-1.2-.372,1.351,1.351,0,0,1-.443-1.058,2.42,2.42,0,0,1,.317-1.258,2.069,2.069,0,0,1,.823-.858,2.272,2.272,0,0,1,1.172-.286,1.733,1.733,0,0,1,1.013.257.855.855,0,0,1,.38.744,1.042,1.042,0,0,1-.6.972,3.65,3.65,0,0,1-1.772.343h-.19v.115a.635.635,0,0,0,.19.486.794.794,0,0,0,.538.172,3.1,3.1,0,0,0,.57-.057,2.531,2.531,0,0,0,.633-.229V60.1A3.225,3.225,0,0,1,358.741,60.388Zm.6-3.146a.87.87,0,0,0-.6.257,1.287,1.287,0,0,0-.38.658h.158a1.912,1.912,0,0,0,.886-.172.481.481,0,0,0,.317-.429C359.723,57.357,359.6,57.242,359.343,57.242Z" transform="translate(-247.214 -55.127)"></path><path class="a" d="M371.428,59h-3.546l.158-.715,1.773-1.4a4.633,4.633,0,0,0,.918-.858,1,1,0,0,0,.253-.6.47.47,0,0,0-.158-.372.579.579,0,0,0-.411-.143,1.178,1.178,0,0,0-.506.114,4.011,4.011,0,0,0-.633.4l-.538-.686a3.554,3.554,0,0,1,.918-.543,2.481,2.481,0,0,1,.918-.172,1.842,1.842,0,0,1,1.108.315,1.043,1.043,0,0,1,.411.858,1.565,1.565,0,0,1-.158.658,2.548,2.548,0,0,1-.443.629,9.917,9.917,0,0,1-.981.83l-.981.744v.028h2.089Z" transform="translate(-252.334 -53.797)"></path><path class="a" d="M380.482,55.627a4.416,4.416,0,0,1-.633,2.488,1.953,1.953,0,0,1-1.741.944,1.508,1.508,0,0,1-1.108-.4,1.732,1.732,0,0,1-.38-1.23,4.722,4.722,0,0,1,.317-1.8,2.5,2.5,0,0,1,.855-1.2,2.1,2.1,0,0,1,1.235-.4C379.975,54.054,380.482,54.569,380.482,55.627Zm-1.583-.744a.678.678,0,0,0-.538.343,3.6,3.6,0,0,0-.443,1,4.448,4.448,0,0,0-.19,1.23,1.281,1.281,0,0,0,.1.572.347.347,0,0,0,.348.2.778.778,0,0,0,.57-.343,2.861,2.861,0,0,0,.443-1,4.482,4.482,0,0,0,.158-1.287.834.834,0,0,0-.127-.543A.323.323,0,0,0,378.9,54.884Z" transform="translate(-256.482 -53.797)"></path><path class="a" d="M388.376,55.627a4.417,4.417,0,0,1-.633,2.488,1.953,1.953,0,0,1-1.741.944,1.508,1.508,0,0,1-1.108-.4,1.732,1.732,0,0,1-.38-1.23,4.723,4.723,0,0,1,.317-1.8,2.5,2.5,0,0,1,.855-1.2,2.1,2.1,0,0,1,1.235-.4C387.869,54.054,388.376,54.569,388.376,55.627Zm-1.583-.744a.678.678,0,0,0-.538.343,3.6,3.6,0,0,0-.443,1,4.448,4.448,0,0,0-.19,1.23,1.28,1.28,0,0,0,.1.572.347.347,0,0,0,.348.2.778.778,0,0,0,.57-.343,2.863,2.863,0,0,0,.443-1,4.484,4.484,0,0,0,.158-1.287.834.834,0,0,0-.127-.543C387.078,54.94,386.951,54.884,386.793,54.884Z" transform="translate(-260.229 -53.797)"></path><path class="a" d="M395.7,58.067h-.633l-.222,1h-1.076l.222-1H391.8l.19-.772,2.849-3.088h1.139l-.728,3.06h.633Zm-1.52-.8.222-.83a2.88,2.88,0,0,1,.158-.543,2.817,2.817,0,0,1,.158-.457h-.031a6.715,6.715,0,0,1-.475.6l-1.139,1.23h1.108Z" transform="translate(-263.69 -53.892)"></path></g></svg> 