<?xml version="1.0" encoding="UTF-8"?> <svg xmlns="http://www.w3.org/2000/svg" width="49" height="49" viewBox="0 0 49 49" fill="none"><path d="M23.9999 3.00006C14.6253 3.00006 7 10.6279 7 20C7 29.1563 22.5151 43.0241 23.1738 43.6069L24 44.3432L24.8262 43.6094C25.4847 43.0238 41 29.1587 41 20.0024C41 10.6278 33.3745 3.00006 23.9999 3.00006ZM23.9999 40.9974C19.2858 36.6429 9.48828 26.2792 9.48828 19.995C9.48828 11.9958 16.0007 5.48337 23.9999 5.48337C31.9991 5.48337 38.5116 11.9958 38.5116 19.995C38.5116 26.2792 28.714 36.6429 23.9999 40.9974Z" fill="black"></path><path d="M23.9993 11.5854C19.3581 11.5854 15.5889 15.3616 15.5889 19.9958C15.5889 24.637 19.365 28.4131 23.9993 28.4131C28.6335 28.4131 32.4096 24.6369 32.4096 19.9958C32.4096 15.3619 28.6408 11.5854 23.9993 11.5854ZM23.9993 25.9248C20.7334 25.9248 18.0775 23.2689 18.0775 19.9957C18.0775 16.7226 20.7334 14.0739 23.9993 14.0739C27.2651 14.0739 29.9211 16.7298 29.9211 19.9957C29.9211 23.2616 27.2651 25.9248 23.9993 25.9248Z" fill="black"></path></svg> 