<svg xmlns="http://www.w3.org/2000/svg" width="20" height="15" viewBox="0 0 20 15">
  <path id="download_1_" data-name="download (1)" d="M18.125,64H1.875A1.877,1.877,0,0,0,0,65.875v11.25A1.877,1.877,0,0,0,1.875,79h16.25A1.877,1.877,0,0,0,20,77.125V65.875A1.877,1.877,0,0,0,18.125,64Zm0,1.25a.621.621,0,0,1,.24.048L10,72.548,1.635,65.3a.622.622,0,0,1,.24-.048Zm0,12.5H1.875a.625.625,0,0,1-.625-.625V66.619l8.34,7.228a.626.626,0,0,0,.819,0l8.34-7.228V77.125A.625.625,0,0,1,18.125,77.75Z" transform="translate(0 -64)" fill="#035463"/>
</svg>
