<svg xmlns="http://www.w3.org/2000/svg" width="95.522" height="82.001" viewBox="0 0 95.522 82.001">
  <g id="noun_marketplace_996113" transform="translate(0.3 -4.3)">
    <g id="Group_5165" data-name="Group 5165" transform="translate(-0.3 4.3)">
      <path id="Path_10207" data-name="Path 10207" d="M95.077,74.96v-50.6l.145-.291L84.173,4.3H10.6L-.009,23.492l-.291.582.145.291v50.6H33.867v9.16H28.488V86.3H66.58V84.12H61.2V74.96Zm-37.366-51.9L55.821,6.481H68.179L73.7,22.91H57.711Zm16.429,2.181C73.7,29.889,70.215,33.669,66,33.669s-7.706-3.635-8.142-8.433ZM55.385,23.056H39.392l1.89-16.429h12.5Zm.145,2.181c-.436,4.653-3.926,8.433-8.142,8.433s-7.706-3.635-8.142-8.433ZM37.211,23.056H21.218L26.743,6.626H39.1Zm-.291,2.181c-.436,4.653-3.926,8.433-8.142,8.433s-7.706-3.635-8.142-8.433ZM2.026,31.2A10.033,10.033,0,0,0,10.168,35.7c4.071,0,7.56-2.617,9.305-6.543,1.745,3.926,5.234,6.543,9.305,6.543s7.56-2.617,9.305-6.543c1.745,3.926,5.234,6.543,9.305,6.543s7.56-2.617,9.305-6.543C58.438,33.088,61.928,35.7,66,35.7s7.56-2.617,9.305-6.543c1.745,3.926,5.234,6.543,9.305,6.543A9.835,9.835,0,0,0,92.751,31.2V65.946H2.026Zm0-5.961H18.31c-.436,4.653-3.926,8.433-8.142,8.433C5.952,33.524,2.462,29.889,2.026,25.236Zm74.441,0H92.751c-.436,4.653-3.926,8.433-8.142,8.433C80.392,33.524,76.9,29.889,76.467,25.236Zm15.557-2.181H76.031L70.506,6.481h12.5ZM11.913,6.481h12.5L18.892,22.91H2.753Zm-9.887,66.3V68.127H92.9v4.653ZM58.874,84.12H35.9V74.96H58.874Z" transform="translate(0.3 -4.3)"/>
      <path id="Path_10208" data-name="Path 10208" d="M7,48.093H22.993V32.1H7ZM9.181,34.281H20.812V45.912H9.181Z" transform="translate(3.614 8.319)"/>
      <rect id="Rectangle_671" data-name="Rectangle 671" width="34.022" height="2.181" transform="translate(34.749 43.472)"/>
      <rect id="Rectangle_672" data-name="Rectangle 672" width="48.852" height="2.181" transform="translate(34.749 51.032)"/>
    </g>
  </g>
</svg>
