<svg width="58" height="58" viewBox="0 0 58 58" fill="none" xmlns="http://www.w3.org/2000/svg">
<rect width="58" height="58" rx="5" fill="black"/>
<path d="M40.8555 12H17.1445C16.0456 12.0015 14.9921 12.4424 14.2152 13.2261C13.4382 14.0097 13.0012 15.0721 13 16.1802V33.852C13.0012 34.9603 13.4384 36.0228 14.2156 36.8065C14.9927 37.5901 16.0465 38.0309 17.1456 38.0321H23.6704V41.6627H19.1386C18.7464 41.6631 18.3704 41.8204 18.093 42.1C17.8157 42.3797 17.6597 42.7589 17.6593 43.1544V44.5083C17.6597 44.9038 17.8157 45.283 18.093 45.5627C18.3704 45.8423 18.7464 45.9996 19.1386 46H38.3674C38.7596 45.9996 39.1356 45.8423 39.413 45.5627C39.6903 45.283 39.8463 44.9038 39.8467 44.5083V43.1544C39.8462 42.7589 39.6902 42.3798 39.4129 42.1002C39.1355 41.8205 38.7596 41.6632 38.3674 41.6627H33.8363V38.0318H40.8555C41.9544 38.0303 43.0078 37.5894 43.7847 36.8058C44.5617 36.0223 44.9987 34.96 45 33.852V16.1802C44.9988 15.0721 44.5618 14.0097 43.7848 13.2261C43.0079 12.4424 41.9544 12.0015 40.8555 12ZM17.1445 13.4142H40.8555C41.5831 13.4145 42.2808 13.706 42.7955 14.2246C43.3102 14.7432 43.5997 15.4465 43.6005 16.1802V31.3183H14.4014V16.1802C14.4022 15.4468 14.6915 14.7438 15.2057 14.2252C15.72 13.7067 16.4172 13.415 17.1445 13.4142ZM38.4442 43.1547V44.5087C38.4433 44.5287 38.4351 44.5476 38.4211 44.5617C38.4071 44.5759 38.3883 44.5842 38.3685 44.585H19.1386C19.1188 44.5842 19.1001 44.5759 19.0861 44.5617C19.0721 44.5476 19.0638 44.5287 19.063 44.5087V43.1547C19.0638 43.1348 19.0721 43.1159 19.0861 43.1017C19.1001 43.0876 19.1188 43.0793 19.1386 43.0785H38.3674C38.3874 43.079 38.4064 43.0872 38.4207 43.1014C38.4349 43.1155 38.4433 43.1346 38.4442 43.1547ZM32.4338 41.6627H25.0719V38.0318H32.4338V41.6627ZM40.8555 36.6179H17.1445C16.4172 36.6171 15.72 36.3254 15.2057 35.8069C14.6915 35.2884 14.4022 34.5853 14.4014 33.852V32.7326H43.6005V33.852C43.5997 34.5856 43.3102 35.289 42.7955 35.8076C42.2808 36.3262 41.5831 36.6176 40.8555 36.6179ZM18.7468 34.7872C18.7468 34.9747 18.6729 35.1546 18.5414 35.2872C18.4098 35.4198 18.2315 35.4943 18.0455 35.4943H18.0251C17.933 35.4943 17.8418 35.476 17.7567 35.4405C17.6716 35.4049 17.5943 35.3529 17.5292 35.2872C17.4641 35.2215 17.4124 35.1436 17.3772 35.0578C17.3419 34.972 17.3238 34.88 17.3238 34.7872C17.3238 34.6943 17.3419 34.6024 17.3772 34.5166C17.4124 34.4308 17.4641 34.3528 17.5292 34.2872C17.5943 34.2215 17.6716 34.1694 17.7567 34.1339C17.8418 34.0984 17.933 34.0801 18.0251 34.0801H18.0455C18.2315 34.0801 18.4098 34.1546 18.5414 34.2872C18.6729 34.4198 18.7468 34.5996 18.7468 34.7872ZM32.5351 19.2153C32.5351 19.2249 32.5374 19.2344 32.5385 19.2436C32.5397 19.2527 32.5419 19.2695 32.5442 19.2817C32.5465 19.2939 32.5491 19.3042 32.5518 19.3153C32.5544 19.3263 32.5567 19.3366 32.5597 19.3469C32.5627 19.3572 32.5673 19.3717 32.5714 19.3851C32.5756 19.3984 32.5775 19.403 32.5813 19.4118C32.5851 19.4205 32.5911 19.4366 32.5968 19.4499C32.6025 19.4633 32.6047 19.4671 32.6089 19.4755C32.613 19.4839 32.621 19.498 32.6274 19.509C32.6339 19.5201 32.638 19.527 32.6433 19.5357C32.6486 19.5445 32.6562 19.5552 32.6626 19.5643C32.669 19.5735 32.6766 19.5834 32.6838 19.5926C32.691 19.6017 32.6963 19.6086 32.7031 19.6162C32.7099 19.6238 32.7201 19.6356 32.7292 19.6452L32.7485 19.6646C32.7583 19.6742 32.7681 19.6833 32.7783 19.6921L32.7999 19.7096L32.8313 19.7333L32.8578 19.7508C32.8672 19.7569 32.8771 19.7634 32.8873 19.7691C32.8975 19.7749 32.9096 19.7813 32.9213 19.7871L32.9474 19.7997C32.961 19.8058 32.9747 19.8111 32.9887 19.8164C32.9943 19.8164 32.9992 19.821 33.0045 19.8229L36.4701 21.0281V22.3798C35.997 22.5468 35.5978 22.8772 35.3432 23.3126C35.0886 23.7479 34.995 24.2601 35.079 24.7583C35.163 25.2566 35.4192 25.7087 35.8021 26.0348C36.1851 26.3608 36.6701 26.5397 37.1713 26.5397C37.6726 26.5397 38.1576 26.3608 38.5406 26.0348C38.9235 25.7087 39.1797 25.2566 39.2637 24.7583C39.3477 24.2601 39.2541 23.7479 38.9995 23.3126C38.7449 22.8772 38.3457 22.5468 37.8726 22.3798V20.5224C37.8726 20.3753 37.8271 20.2319 37.7424 20.1121C37.6577 19.9924 37.5381 19.9022 37.4002 19.8542L33.9347 18.649V15.8419C33.9347 15.6543 33.8608 15.4745 33.7293 15.3418C33.5977 15.2092 33.4194 15.1347 33.2334 15.1347C33.0474 15.1347 32.869 15.2092 32.7375 15.3418C32.606 15.4745 32.5321 15.6543 32.5321 15.8419V19.152C32.5321 19.1578 32.5321 19.1631 32.5321 19.1688C32.5331 19.1846 32.5341 19.2001 32.5351 19.2153ZM37.1702 25.1236C37.0281 25.1236 36.8891 25.0811 36.7709 25.0015C36.6528 24.9219 36.5606 24.8087 36.5062 24.6763C36.4518 24.5439 36.4376 24.3982 36.4653 24.2576C36.4931 24.117 36.5615 23.9879 36.662 23.8866C36.7625 23.7852 36.8906 23.7162 37.03 23.6882C37.1694 23.6603 37.3139 23.6746 37.4452 23.7295C37.5766 23.7843 37.6888 23.8772 37.7678 23.9964C37.8467 24.1155 37.8889 24.2556 37.8889 24.399C37.8883 24.591 37.8124 24.7749 37.6777 24.9107C37.5431 25.0465 37.3606 25.123 37.1702 25.1236ZM20.8298 26.5367C21.33 26.5355 21.8137 26.3561 22.1955 26.0303C22.5773 25.7045 22.8327 25.2531 22.9166 24.7559C23.0005 24.2586 22.9074 23.7475 22.6539 23.3127C22.4004 22.8779 22.0027 22.5474 21.5311 22.3794V21.0266L24.9966 19.8214C25.0019 19.8195 25.0068 19.8168 25.0125 19.8149C25.0265 19.8096 25.0401 19.8042 25.0537 19.7981L25.0798 19.7855C25.0915 19.7798 25.1025 19.7737 25.1139 19.7676L25.1434 19.7493L25.1698 19.7318L25.2012 19.7081L25.2228 19.6906C25.233 19.6814 25.2428 19.6726 25.2527 19.6631L25.272 19.6437C25.281 19.6341 25.2897 19.6246 25.2981 19.6147C25.3064 19.6048 25.3113 19.599 25.3174 19.591C25.3234 19.583 25.3317 19.5723 25.3385 19.5628C25.3453 19.5533 25.3514 19.5441 25.3578 19.5342C25.3643 19.5243 25.3688 19.5167 25.3737 19.5075C25.3786 19.4983 25.3862 19.4854 25.3922 19.4739C25.3983 19.4625 25.4006 19.4568 25.4043 19.4484C25.4081 19.44 25.4149 19.424 25.4199 19.4102C25.4248 19.3965 25.4267 19.3923 25.4297 19.3832C25.4327 19.374 25.438 19.3591 25.4414 19.345C25.4448 19.3309 25.4471 19.324 25.4494 19.3134C25.4516 19.3027 25.4547 19.2912 25.4569 19.2798C25.4592 19.2684 25.4611 19.2539 25.4626 19.2417C25.4641 19.2295 25.4652 19.223 25.466 19.2134C25.4668 19.2039 25.466 19.1829 25.4683 19.1677C25.4683 19.1619 25.4683 19.1566 25.4683 19.1509V15.8419C25.4683 15.6543 25.3944 15.4745 25.2629 15.3418C25.1314 15.2092 24.953 15.1347 24.767 15.1347C24.581 15.1347 24.4026 15.2092 24.2711 15.3418C24.1396 15.4745 24.0657 15.6543 24.0657 15.8419V18.649L20.6002 19.8542C20.4623 19.9022 20.3427 19.9924 20.258 20.1121C20.1733 20.2319 20.1278 20.3753 20.1278 20.5224V22.3775C19.6561 22.5455 19.2584 22.876 19.0049 23.3108C18.7514 23.7456 18.6583 24.2567 18.7422 24.7539C18.8261 25.2512 19.0815 25.7026 19.4633 26.0284C19.8451 26.3542 20.3288 26.5336 20.829 26.5348L20.8298 26.5367ZM20.8298 23.6709C20.9719 23.6709 21.1109 23.7134 21.2291 23.793C21.3472 23.8726 21.4394 23.9858 21.4938 24.1182C21.5482 24.2506 21.5624 24.3963 21.5347 24.5369C21.5069 24.6775 21.4385 24.8066 21.338 24.908C21.2375 25.0093 21.1094 25.0783 20.97 25.1063C20.8306 25.1342 20.6861 25.1199 20.5548 25.065C20.4234 25.0102 20.3112 24.9173 20.2322 24.7981C20.1533 24.679 20.1111 24.5389 20.1111 24.3955C20.1117 24.2035 20.1876 24.0196 20.3223 23.8838C20.4569 23.748 20.6394 23.6715 20.8298 23.6709ZM29 30.0796C29.5011 30.0793 29.9859 29.9004 30.3687 29.5743C30.7514 29.2483 31.0075 28.7963 31.0914 28.2982C31.1754 27.8001 31.0819 27.2881 30.8275 26.8529C30.5731 26.4176 30.1741 26.0872 29.7013 25.92V15.8419C29.7013 15.6543 29.6274 15.4745 29.4959 15.3418C29.3644 15.2092 29.186 15.1347 29 15.1347C28.814 15.1347 28.6356 15.2092 28.5041 15.3418C28.3726 15.4745 28.2987 15.6543 28.2987 15.8419V25.92C27.8259 26.0872 27.4269 26.4176 27.1725 26.8529C26.9181 27.2881 26.8246 27.8001 26.9086 28.2982C26.9925 28.7963 27.2486 29.2483 27.6313 29.5743C28.0141 29.9004 28.4989 30.0793 29 30.0796ZM29 27.2137C29.1421 27.2137 29.2811 27.2562 29.3993 27.3358C29.5175 27.4155 29.6096 27.5286 29.664 27.6611C29.7184 27.7935 29.7326 27.9392 29.7049 28.0797C29.6771 28.2203 29.6087 28.3494 29.5082 28.4508C29.4077 28.5521 29.2796 28.6211 29.1402 28.6491C29.0008 28.6771 28.8563 28.6627 28.725 28.6079C28.5937 28.553 28.4814 28.4601 28.4024 28.341C28.3235 28.2218 28.2813 28.0817 28.2813 27.9384C28.2819 27.7464 28.3578 27.5624 28.4925 27.4266C28.6271 27.2909 28.8096 27.2143 29 27.2137Z" fill="white"/>
</svg>
