<svg width="58" height="58" viewBox="0 0 58 58" fill="none" xmlns="http://www.w3.org/2000/svg">
<rect width="58" height="58" rx="5" fill="black"/>
<path d="M37.3652 28.2113C37.3652 28.0447 37.4446 27.9653 37.6112 27.9653H41.2214C41.4118 27.9653 41.4673 28.0129 41.4673 28.2034V42.279C41.4673 42.4694 41.4118 42.5488 41.1976 42.5488H37.6588C37.4604 42.5488 37.3652 42.4615 37.3652 42.2711V28.2034V28.2113Z" fill="white"/>
<path d="M40.8443 23.4995L43.6063 24.1239C44.6939 24.3688 45.4516 23.071 44.6939 22.2507L42.7752 20.1694C42.5186 19.9001 42.4208 19.5206 42.5064 19.1533L43.1296 16.3864C43.3741 15.2967 42.0664 14.5499 41.2476 15.309L39.17 17.2311C38.9012 17.4882 38.5101 17.5862 38.1557 17.5005L35.3937 16.8761C34.3061 16.6312 33.5484 17.929 34.3061 18.7493L36.2248 20.8306C36.4814 21.0999 36.5792 21.4794 36.4936 21.8467L35.8704 24.6136C35.6259 25.7032 36.9336 26.4501 37.7524 25.691L39.83 23.7689C40.0988 23.5118 40.4899 23.4138 40.8443 23.4995Z" fill="white"/>
<path d="M35.2139 42.7168H29.9844L28.2754 37.4531H19.9414L18.2295 42.7168H13L20.9678 19.6348H27.2568L35.2139 42.7168ZM21.1807 33.6436H27.0391L24.2031 24.9092H24.0225L21.1807 33.6436Z" fill="white"/>
</svg>
