<svg width="58" height="58" viewBox="0 0 58 58" fill="none" xmlns="http://www.w3.org/2000/svg">
<rect width="58" height="58" rx="5" fill="black"/>
<path d="M22.3091 24.7915L15.7383 28.8792L22.308 32.9662C22.7881 33.2497 22.9571 33.9158 22.6515 34.4084C22.3767 34.9011 21.7266 35.079 21.244 34.7604L13.2121 29.7624C13.0691 29.6871 12.9654 29.5445 12.8788 29.4255L12.8717 29.4158L12.8715 29.4159L12.8678 29.4099C12.5582 28.9136 12.733 28.2813 13.2065 27.9676L13.2064 27.9676L13.2089 27.9661L21.244 22.9661C21.7301 22.6451 22.3468 22.8296 22.6502 23.3159C22.9498 23.7961 22.7957 24.4039 22.3562 24.7268V24.7621L22.3091 24.7915Z" fill="white" stroke="white" stroke-width="0.2"/>
<path d="M30.6627 36.7466L30.6611 36.7471C30.0802 36.9232 29.5316 36.6033 29.3618 36.0434L29.3618 36.0434L29.3614 36.042L25.4051 22.282L25.405 22.2818C25.2362 21.6903 25.541 21.1252 26.0887 20.9488L26.0887 20.9488L26.0903 20.9483C26.6712 20.7723 27.2198 21.0922 27.3896 21.652L27.3896 21.652L27.39 21.6534L31.3464 35.4134L31.3464 35.4136C31.5152 36.0051 31.2104 36.5702 30.6627 36.7466Z" fill="white" stroke="white" stroke-width="0.2"/>
<path d="M41.0746 28.8161L34.5048 24.729C34.0194 24.4423 33.8907 23.7748 34.1601 23.289C34.406 22.8456 34.9554 22.6559 35.4148 22.8519V22.8072L35.5676 22.9023L43.603 27.9024C44.0823 28.1855 44.2515 28.8499 43.9478 29.3423C43.8767 29.4858 43.741 29.6258 43.6007 29.6993L35.5688 34.6973C35.0827 35.0183 34.466 34.8338 34.1627 34.3475C33.8531 33.8513 34.0279 33.219 34.5014 32.9053L34.5014 32.9052L34.5038 32.9037L41.0746 28.8161Z" fill="white" stroke="white" stroke-width="0.2"/>
</svg>
