<svg width="58" height="58" viewBox="0 0 58 58" fill="none" xmlns="http://www.w3.org/2000/svg">
<rect width="58" height="58" rx="5" fill="black"/>
<path d="M28.9999 32.2352C28.876 32.2352 28.7521 32.2074 28.6373 32.1523L11.4946 23.9169C11.1929 23.7718 11.0001 23.4603 11.0001 23.1175C11.0001 22.7747 11.1929 22.4632 11.4946 22.3177L28.6373 14.0827C28.8674 13.9724 29.1323 13.9724 29.3624 14.0827L46.5051 22.3177C46.8059 22.4628 46.9988 22.7743 46.9988 23.1175C46.9988 23.4607 46.8059 23.7718 46.5051 23.9169L29.3624 32.1527C29.2476 32.2079 29.1237 32.2352 28.9999 32.2352ZM13.8839 23.1175L28.9999 30.3792L44.1158 23.1175L28.9999 15.8562L13.8839 23.1175ZM29.3624 38.0349L46.5051 29.8C46.9336 29.5939 47.1196 29.0694 46.9195 28.6269C46.7194 28.1857 46.2115 27.9938 45.7804 28.2007L28.9999 36.2614L12.2198 28.2007C11.7912 27.9956 11.2812 28.1857 11.0806 28.6269C10.8805 29.0689 11.0656 29.5939 11.4951 29.8L28.6377 38.0349C28.7526 38.09 28.8764 38.1178 29.0003 38.1178C29.1241 38.1178 29.2476 38.09 29.3624 38.0349ZM29.3624 43.9175L46.5051 35.6826C46.9336 35.4757 47.1196 34.9515 46.9195 34.509C46.7194 34.0679 46.2115 33.8755 45.7804 34.0833L28.9999 42.144L12.2198 34.0829C11.7912 33.8777 11.2812 34.0674 11.0806 34.5086C10.8805 34.9511 11.0656 35.4752 11.4951 35.6821L28.6377 43.9171C28.7521 43.9726 28.876 44 28.9999 44C29.1237 44 29.2476 43.9726 29.3624 43.9175Z" fill="white"/>
</svg>
