<svg width="37" height="36" viewBox="0 0 37 36" fill="none" xmlns="http://www.w3.org/2000/svg">
<path d="M34.6531 23.7131L32.4158 21.4758C30.5651 19.625 27.5567 19.625 25.7058 21.4758L24.0861 23.0955C18.5802 21.6901 14.3069 17.4153 12.9016 11.911L14.5213 10.2913C16.372 8.44056 16.372 5.43225 14.5213 3.58127L12.284 1.34395C10.4899 -0.450079 7.36191 -0.445884 5.57391 1.34395L2.11186 4.80599C0.403939 6.51601 -0.333429 8.95076 0.141335 11.3181C2.62443 23.7401 12.2584 33.3741 24.6803 35.8592C25.153 35.9538 25.6277 36 26.1004 36C27.9932 36 29.825 35.2563 31.1927 33.8866L34.6547 30.4246C36.5034 28.5738 36.5034 25.5634 34.6526 23.7129L34.6531 23.7131ZM32.418 28.1877L28.9559 31.6498C27.9959 32.6098 26.6283 33.0174 25.3006 32.7569C14.1349 30.5217 5.47592 21.8644 3.24247 10.6988C2.97777 9.37105 3.39162 8.00349 4.34747 7.04342L7.81161 3.58138C8.10992 3.28098 8.50488 3.11712 8.9292 3.11712C9.35145 3.11712 9.74847 3.28307 10.0468 3.58138L12.2841 5.81871C12.5824 6.11911 12.7484 6.51617 12.7484 6.9363C12.7484 7.35855 12.5824 7.75557 12.2841 8.05388L10.0468 10.2912C9.67285 10.6651 9.5111 11.2008 9.61403 11.7197C11.0993 19.1418 16.8533 24.8978 24.2753 26.381C24.7921 26.484 25.3299 26.3222 25.7038 25.9483L27.9412 23.7109C28.5399 23.1143 29.5777 23.1143 30.1785 23.7109L32.4158 25.9483C33.0334 26.568 33.0335 27.5701 32.418 28.1877Z" fill="currentColor"/>
<path d="M24.223 11.7365C24.5318 12.0453 24.9373 12.2008 25.3406 12.2008C25.7461 12.2008 26.1494 12.0453 26.4582 11.7365L28.6976 9.49916L30.9349 11.7365C31.2438 12.0453 31.6492 12.2008 32.0525 12.2008C32.458 12.2008 32.8613 12.0453 33.1701 11.7365C33.7877 11.1189 33.7877 10.1168 33.1701 9.49916L30.9328 7.26183L33.1701 5.0245C33.7877 4.4069 33.7877 3.40483 33.1701 2.78718C32.5525 2.16957 31.5505 2.16957 30.9328 2.78718L28.6976 5.0266L26.4603 2.78927C25.8427 2.17167 24.8406 2.17167 24.223 2.78927C23.6054 3.40688 23.6054 4.40894 24.223 5.0266L26.4603 7.26178L24.223 9.4991C23.6054 10.1167 23.6054 11.1188 24.223 11.7365Z" fill="currentColor"/>
</svg>
