<?xml version="1.0" encoding="utf-8"?>
<!-- Generator: Adobe Illustrator 17.0.0, SVG Export Plug-In . SVG Version: 6.00 Build 0)  -->
<!DOCTYPE svg PUBLIC "-//W3C//DTD SVG 1.1//EN" "http://www.w3.org/Graphics/SVG/1.1/DTD/svg11.dtd">
<svg version="1.1" id="Layer_1" xmlns="http://www.w3.org/2000/svg" xmlns:xlink="http://www.w3.org/1999/xlink" x="0px" y="0px"
	 width="49.274px" height="67.264px" viewBox="0 0 49.274 67.264" enable-background="new 0 0 49.274 67.264" xml:space="preserve">
<path fill="#005463" stroke="#FFFFFF" stroke-miterlimit="10" d="M0.004,14.8v6.378c-0.045,0.638,0.432,1.194,1.07,1.246h3.273
	v19.753c-0.538,0.144-0.904,0.643-0.877,1.2c-0.018,0.554,0.344,1.049,0.877,1.2v7.474c-0.538,0.144-0.904,0.643-0.877,1.2
	c-0.018,0.554,0.344,1.049,0.877,1.2v10.322H2.4c-0.688,0.105-1.16,0.748-1.055,1.436c0.083,0.544,0.511,0.972,1.055,1.055h44.543
	c0.688-0.105,1.16-0.748,1.055-1.436c-0.083-0.544-0.511-0.972-1.055-1.055h-1.947V54.534c0.533-0.151,0.895-0.646,0.877-1.2
	c0.027-0.557-0.339-1.056-0.877-1.2v-7.466c0.533-0.151,0.895-0.646,0.877-1.2c0.027-0.557-0.339-1.056-0.877-1.2V22.421h3.209
	c0.638-0.052,1.115-0.608,1.07-1.246V14.8c0.045-0.638-0.432-1.194-1.07-1.246h-4.473V6.079c0.045-0.638-0.432-1.194-1.07-1.246
	h-8.556V1.246C34.151,0.606,33.671,0.05,33.032,0h-16.64c-0.638,0.052-1.115,0.608-1.07,1.246v3.487H6.764
	c-0.638,0.052-1.115,0.608-1.07,1.246v7.474H1.138c-0.631,0.004-1.14,0.519-1.136,1.15c0,0.004,0,0.009,0,0.013
	C-0.001,14.677,0,14.739,0.004,14.8z M16.841,42.2L16.841,42.2v-0.548c0-5.077,3.534-9.193,7.894-9.193s7.897,4.118,7.897,9.195
	V42.2l0,0c-0.688,0.105-1.16,0.748-1.055,1.436c0.083,0.544,0.511,0.972,1.055,1.055l0,0v7.474l0,0
	c-0.688,0.105-1.16,0.748-1.055,1.436c0.083,0.544,0.511,0.972,1.055,1.055l0,0v10.117H16.777V54.584l0,0
	c0.688-0.105,1.16-0.748,1.055-1.436c-0.083-0.544-0.511-0.972-1.055-1.055l0,0v-7.474l0,0c0.638-0.052,1.115-0.608,1.07-1.246
	c0.039-0.614-0.398-1.155-1.006-1.246V42.2z M34.705,44.691h8.151v7.474h-8.151V44.691z M14.637,52.167H6.486v-7.474h8.151V52.167z
	 M6.486,54.658h8.151v10.115H6.486L6.486,54.658z M34.705,64.773V54.584h8.151v10.189H34.705z M42.856,42.127h-8.151v-0.548
	c0-6.452-4.495-11.684-10.036-11.682s-10.03,5.232-10.032,11.682v0.548H6.486V22.421h36.37L42.856,42.127z M17.462,2.491h14.441
	v2.242H17.462V2.491z M7.749,11.634h20.174c0.638-0.052,1.115-0.608,1.07-1.246c0.045-0.638-0.432-1.194-1.07-1.246H7.749V7.225
	h33.845v6.328H7.749V11.634z M2.144,16.044h45.055v3.886H2.143L2.144,16.044z M10.832,31.764v-1.47
	c-0.045-0.638,0.432-1.194,1.07-1.246c0.638,0.052,1.115,0.608,1.07,1.246v1.47c0.045,0.638-0.432,1.194-1.07,1.246
	C11.264,32.958,10.787,32.402,10.832,31.764z M36.377,31.764v-1.47c-0.091-0.591,0.315-1.143,0.906-1.233
	c0.591-0.091,1.143,0.315,1.233,0.906c0.017,0.109,0.017,0.219,0,0.328v1.47c0.091,0.591-0.315,1.143-0.906,1.233
	s-1.143-0.315-1.233-0.906C36.36,31.983,36.36,31.873,36.377,31.764z"/>
</svg>
