<svg width="47" height="48" viewBox="0 0 47 48" fill="none" xmlns="http://www.w3.org/2000/svg">
<path d="M46.9399 24C46.9399 36.8931 36.488 47.345 23.595 47.345C10.7019 47.345 0.25 36.8931 0.25 24C0.25 11.1069 10.7019 0.655029 23.595 0.655029C36.488 0.655029 46.9399 11.1069 46.9399 24Z" fill="white"/>
<path d="M32.9008 23.9406L32.9008 23.9406C32.8983 24.2138 32.7824 24.4733 32.5805 24.6529L32.9008 23.9406ZM32.9008 23.9406L32.9008 23.9397M32.9008 23.9406L32.9008 23.9397M32.9008 23.9397L32.9008 23.9329M32.9008 23.9397L32.9008 23.9329M32.9008 23.9329C32.9008 23.6622 32.7892 23.4038 32.5922 23.223L32.9008 23.9329ZM25.0404 31.3682L32.5804 24.653L32.5921 23.2229L27.6805 18.7076L27.6806 18.7075L27.676 18.7037L25.1027 16.6056C25.1027 16.6056 25.1027 16.6056 25.1027 16.6056C24.6999 16.2766 24.1155 16.3484 23.7981 16.7614C23.4821 17.1728 23.5484 17.771 23.95 18.0979C23.95 18.098 23.95 18.098 23.95 18.098L26.4834 20.1618L29.6236 23.0499L15.2158 23.0499C14.7005 23.0499 14.2885 23.4797 14.2885 24.0028C14.2885 24.5259 14.7005 24.9557 15.2158 24.9557L29.4089 24.9557L23.8259 29.9286C23.44 30.2718 23.3968 30.8725 23.7302 31.2702C24.0651 31.6696 24.6521 31.7142 25.0403 31.3682C25.0404 31.3682 25.0404 31.3682 25.0404 31.3682Z" fill="#EC6D18" stroke="#EC6D18" stroke-width="0.2"/>
</svg>
