<svg xmlns="http://www.w3.org/2000/svg" width="83.784" height="83" viewBox="0 0 83.784 83">
  <g id="noun_Content_marketing_4224471" data-name="noun_Content marketing_4224471" transform="translate(-2.001 -2.3)">
    <g id="Group_5161" data-name="Group 5161" transform="translate(2.001 2.3)">
      <g id="Group_5150" data-name="Group 5150" transform="translate(41.861 31.612)">
        <g id="Group_5144" data-name="Group 5144" transform="translate(11.768 29.747)">
          <path id="Path_10190" data-name="Path 10190" d="M51.153,63.042a4.2,4.2,0,0,1-3.517-1.892l-4.455-6.775a1.308,1.308,0,0,1,.375-1.813l4.834-3.178a1.31,1.31,0,0,1,1.813.375l4.454,6.774a4.2,4.2,0,0,1-3.5,6.509Zm-5.065-9.011,3.736,5.681a1.584,1.584,0,1,0,2.646-1.741l-3.735-5.68Z" transform="translate(-42.966 -49.17)"/>
        </g>
        <g id="Group_5145" data-name="Group 5145" transform="translate(3.286 17.88)">
          <path id="Path_10191" data-name="Path 10191" d="M45.158,58.249a2.614,2.614,0,0,1-2.189-1.177l-6.052-9.2a2.615,2.615,0,0,1,.749-3.622l5.646-3.713a2.621,2.621,0,0,1,3.622.747l6.052,9.2a2.614,2.614,0,0,1-.748,3.621L46.591,57.82A2.6,2.6,0,0,1,45.158,58.249Zm-.412-15.53L39.1,46.434h0l6.054,9.2L50.8,51.92Zm-6.362,2.62h0Z" transform="translate(-36.486 -40.105)"/>
        </g>
        <g id="Group_5146" data-name="Group 5146" transform="translate(11.513 4.699)">
          <path id="Path_10192" data-name="Path 10192" d="M49.767,55.349a1.308,1.308,0,0,1-1.094-.59l-5.686-8.648a1.309,1.309,0,0,1,.28-1.745c4.762-3.777,7.227-7.741,8.24-13.256a1.309,1.309,0,0,1,2.381-.483L67.21,50.886a1.309,1.309,0,0,1-1.387,2c-5.465-1.254-10.082-.563-15.437,2.312A1.3,1.3,0,0,1,49.767,55.349Zm-3.946-9.693,4.392,6.681a22.991,22.991,0,0,1,13.155-2.528L53.355,34.581A23.01,23.01,0,0,1,45.821,45.656Z" transform="translate(-42.771 -30.036)"/>
        </g>
        <g id="Group_5147" data-name="Group 5147" transform="translate(19.664)">
          <path id="Path_10193" data-name="Path 10193" d="M66.286,55.3a3.416,3.416,0,0,1-2.937-1.48L49.518,32.782c-1.121-1.705-.376-4.11,1.7-5.472a4.944,4.944,0,0,1,3.015-.853,3.39,3.39,0,0,1,2.683,1.463L70.743,48.954A3.388,3.388,0,0,1,71.024,52a5,5,0,0,1-1.978,2.43A5.065,5.065,0,0,1,66.286,55.3ZM53.969,29.067a2.472,2.472,0,0,0-1.316.43c-.85.559-1.208,1.452-.947,1.847L65.537,52.378c.26.4,1.221.421,2.071-.139a2.413,2.413,0,0,0,.954-1.132.85.85,0,0,0-.006-.715L54.724,29.358a.848.848,0,0,0-.653-.288C54.037,29.068,54,29.067,53.969,29.067Z" transform="translate(-48.997 -26.447)"/>
        </g>
        <g id="Group_5148" data-name="Group 5148" transform="translate(0 25.093)">
          <path id="Path_10194" data-name="Path 10194" d="M39.032,56.932A5.092,5.092,0,0,1,38,56.826a5.048,5.048,0,0,1-1.752-9.161L39.04,45.83a1.308,1.308,0,0,1,1.813.375l4.108,6.247a1.309,1.309,0,0,1-.375,1.813L41.8,56.1A5.011,5.011,0,0,1,39.032,56.932Zm.353-8.2-1.7,1.116a2.433,2.433,0,0,0-.695,3.365h0a2.428,2.428,0,0,0,3.364.695l1.7-1.116Z" transform="translate(-33.976 -45.615)"/>
        </g>
        <g id="Group_5149" data-name="Group 5149" transform="translate(28.503 4.861)">
          <path id="Path_10195" data-name="Path 10195" d="M64.243,44.779a1.323,1.323,0,0,1-.265-.027,1.309,1.309,0,0,1-.829-.563L55.964,33.261a1.308,1.308,0,0,1,.375-1.813,7.848,7.848,0,1,1,8.623,13.115A1.3,1.3,0,0,1,64.243,44.779ZM58.962,33.056l5.564,8.462a5.23,5.23,0,0,0-5.564-8.462Z" transform="translate(-55.748 -30.16)"/>
        </g>
      </g>
      <g id="Group_5155" data-name="Group 5155">
        <g id="Group_5153" data-name="Group 5153" transform="translate(5.804)">
          <g id="Group_5151" data-name="Group 5151">
            <path id="Path_10196" data-name="Path 10196" d="M64.172,85.3H7.743a1.309,1.309,0,0,1,0-2.618,4.192,4.192,0,0,0,.6-.046,4.481,4.481,0,0,0,3.81-3.757,3.377,3.377,0,0,0,.064-.672V21.06a2.386,2.386,0,0,1,.7-1.681L29.356,2.992A2.358,2.358,0,0,1,31.029,2.3H69.285a4.711,4.711,0,0,1,4.705,4.705v33.8a1.309,1.309,0,1,1-2.618,0V7.005a2.09,2.09,0,0,0-2.087-2.087H31.132l-16.3,16.245V78.207a5.659,5.659,0,0,1-.1,1.12,6.865,6.865,0,0,1-1.5,3.355H64.173a7.208,7.208,0,0,0,7.2-7.2V60.314a1.309,1.309,0,1,1,2.618,0V75.482A9.829,9.829,0,0,1,64.172,85.3Z" transform="translate(-6.434 -2.3)"/>
          </g>
          <g id="Group_5152" data-name="Group 5152" transform="translate(7.211 1.308)">
            <path id="Path_10197" data-name="Path 10197" d="M26.738,22.467c-.112,0-.225,0-.338-.013l-12.239-.8a2.37,2.37,0,0,1-1.513-4.05L26.4,3.989A2.37,2.37,0,0,1,30.432,5.5l.873,12.027a4.593,4.593,0,0,1-4.567,4.939Zm-11.856-3.39,11.7.765a1.936,1.936,0,0,0,1.534-.568,1.985,1.985,0,0,0,.577-1.552v0L27.859,6.229Z" transform="translate(-11.942 -3.299)"/>
          </g>
        </g>
        <g id="Group_5154" data-name="Group 5154" transform="translate(0 44.608)">
          <path id="Path_10198" data-name="Path 10198" d="M9.113,74.766a6.821,6.821,0,0,1-1.579-.193,6.947,6.947,0,0,1-3.444-1.9,7.041,7.041,0,0,1-2.09-5V37.683A1.309,1.309,0,0,1,3.31,36.374H14.9a1.309,1.309,0,0,1,1.309,1.309v29.99a5.659,5.659,0,0,1-.1,1.12,7.089,7.089,0,0,1-6.025,5.9A6.81,6.81,0,0,1,9.113,74.766ZM4.619,38.992V67.673a4.439,4.439,0,0,0,1.323,3.153,4.357,4.357,0,0,0,2.171,1.193,4,4,0,0,0,1.6.082,4.481,4.481,0,0,0,3.81-3.757,3.377,3.377,0,0,0,.064-.672V38.992Z" transform="translate(-2.001 -36.374)"/>
        </g>
      </g>
      <g id="Group_5156" data-name="Group 5156" transform="translate(35.885 6.925)">
        <path id="Path_10199" data-name="Path 10199" d="M43.666,27.445H31.425a2.016,2.016,0,0,1-2.013-2.013V9.6A2.015,2.015,0,0,1,31.425,7.59H43.666A2.014,2.014,0,0,1,45.678,9.6V25.432A2.015,2.015,0,0,1,43.666,27.445ZM32.03,24.826H43.06V10.208H32.03V24.826Z" transform="translate(-29.412 -7.59)"/>
      </g>
      <g id="Group_5157" data-name="Group 5157" transform="translate(19.424 31.613)">
        <path id="Path_10200" data-name="Path 10200" d="M52.937,29.066H18.147a1.309,1.309,0,1,1,0-2.618h34.79a1.309,1.309,0,0,1,0,2.618Z" transform="translate(-16.837 -26.448)"/>
      </g>
      <g id="Group_5158" data-name="Group 5158" transform="translate(19.424 41.864)">
        <path id="Path_10201" data-name="Path 10201" d="M50.235,36.9H18.147a1.309,1.309,0,0,1,0-2.618H50.235a1.309,1.309,0,0,1,0,2.618Z" transform="translate(-16.837 -34.278)"/>
      </g>
      <g id="Group_5159" data-name="Group 5159" transform="translate(19.424 52.114)">
        <path id="Path_10202" data-name="Path 10202" d="M34.191,44.726H18.147a1.309,1.309,0,1,1,0-2.618H34.191a1.309,1.309,0,0,1,0,2.618Z" transform="translate(-16.837 -42.108)"/>
      </g>
      <g id="Group_5160" data-name="Group 5160" transform="translate(19.424 62.365)">
        <path id="Path_10203" data-name="Path 10203" d="M34.191,52.556H18.147a1.309,1.309,0,1,1,0-2.618H34.191a1.309,1.309,0,0,1,0,2.618Z" transform="translate(-16.837 -49.938)"/>
      </g>
    </g>
  </g>
</svg>
