<svg xmlns="http://www.w3.org/2000/svg" width="88.357" height="88.357" viewBox="0 0 88.357 88.357">
  <g id="noun_Pay_Per_Click_3693848" data-name="noun_Pay Per Click_3693848" transform="translate(-1 -1)">
    <g id="Group_5142" data-name="Group 5142" transform="translate(1 1)">
      <path id="Path_10173" data-name="Path 10173" d="M83.657,55.127A14.236,14.236,0,0,0,69.263,30.761a14.416,14.416,0,0,0-3.386-3.14,21.055,21.055,0,0,0,.678-5.244,21.372,21.372,0,0,0-42.608-2.41A20.121,20.121,0,0,0,12.625,35.206l-.224,0a11.4,11.4,0,1,0,0,22.8H33.61l.841,1.683a7.16,7.16,0,0,1,.752,3.185v6.383a10.021,10.021,0,0,0,2.185,6.232l3.181,3.975a15.515,15.515,0,0,0-2.515,8.469v1.425H63.705V87.932a15.506,15.506,0,0,0-2.515-8.468l3.181-3.975a10.024,10.024,0,0,0,2.185-6.232V58h8.551a14.151,14.151,0,0,0,5.7-1.2ZM45.179,3.85A18.527,18.527,0,0,1,49.454,40.4V37.453a15.674,15.674,0,1,0-8.551,0V40.4A18.527,18.527,0,0,1,45.179,3.85ZM40.9,33.778v.683a12.826,12.826,0,1,1,8.551,0v-.683a4.27,4.27,0,0,0-2.85-4.013V29.5a4.275,4.275,0,0,0,0-8.551h-2.85a1.425,1.425,0,0,1,0-2.85H46.6a1.426,1.426,0,0,1,1.425,1.425h2.85A4.281,4.281,0,0,0,46.6,15.251V12.4h-2.85v2.85a4.275,4.275,0,0,0,0,8.551H46.6a1.425,1.425,0,1,1,0,2.85h-2.85a1.426,1.426,0,0,1-1.425-1.425h-2.85A4.281,4.281,0,0,0,43.754,29.5v.262A4.27,4.27,0,0,0,40.9,33.778ZM32.353,54.61a3.706,3.706,0,0,0,.064.544H12.4A8.551,8.551,0,1,1,13.678,38.16l1.526.232.108-1.542A17.238,17.238,0,0,1,23.84,23.229,21.465,21.465,0,0,0,40.9,43.3v9.327a7.591,7.591,0,0,0-4.82-1.753A3.736,3.736,0,0,0,32.353,54.61Zm8.631,31.9a12.662,12.662,0,0,1,2.052-5.616l.056-.084H58.667l.056.084a12.662,12.662,0,0,1,2.052,5.616Zm22.722-17.25a7.146,7.146,0,0,1-1.562,4.451l-3.4,4.248H43.014l-3.4-4.248a7.149,7.149,0,0,1-1.562-4.451V62.874A10.029,10.029,0,0,0,37,58.414L35.3,55a.861.861,0,0,1-.094-.395.881.881,0,0,1,.881-.881,4.827,4.827,0,0,1,4.82,4.82V65.13h2.85V33.778a1.425,1.425,0,1,1,2.85,0V65.13h2.85V49.855l2.85.713V65.13h2.85V51.28l2.85.713V65.13h2.85V52.7l1.77.443a1.425,1.425,0,0,1,1.08,1.384Zm2.85-14.1V54.53a4.269,4.269,0,0,0-3.238-4.147l-2.463-.616h0l-5.7-1.425-2.85-.713-2.85-.713V43.3A21.465,21.465,0,0,0,64.935,30.453a11.549,11.549,0,0,1,2.674,2.9l.728,1.137,1.174-.666a11.4,11.4,0,1,1,5.6,21.328Z" transform="translate(-1 -1)"/>
      <path id="Path_10174" data-name="Path 10174" d="M58.7,31A5.706,5.706,0,0,1,53,36.7v2.85A8.559,8.559,0,0,0,61.551,31Z" transform="translate(21.106 11.754)"/>
      <path id="Path_10175" data-name="Path 10175" d="M5,34.7H7.85a2.853,2.853,0,0,1,2.85-2.85V29A5.706,5.706,0,0,0,5,34.7Z" transform="translate(0.7 10.903)"/>
    </g>
  </g>
</svg>
