<svg xmlns="http://www.w3.org/2000/svg" width="79.428" height="85.645" viewBox="0 0 79.428 85.645">
  <g id="noun_Email_Marketing_986388" data-name="noun_Email Marketing_986388" transform="translate(-2.05 0.424)">
    <g id="Group_5164" data-name="Group 5164" transform="translate(2.2 -0.25)">
      <g id="Group_5162" data-name="Group 5162" transform="translate(27.245)">
        <path id="Path_10204" data-name="Path 10204" d="M24.4,11.548l-1.3-1.434L34.7-.054a1.184,1.184,0,0,1,1.3,0L47.738,10.114l-1.3,1.434-1.564-1.3L35.354,2.031Z" transform="translate(-23.1 0.25)" stroke="#000" stroke-width="0.3"/>
      </g>
      <g id="Group_5163" data-name="Group 5163" transform="translate(0 10.103)">
        <path id="Path_10205" data-name="Path 10205" d="M22.032,37.864h.261a1.853,1.853,0,0,0,.782-.261l3.259-3.52,2.216.13a6.316,6.316,0,0,0,0,2.216A5.262,5.262,0,0,0,30.9,39.819a6.2,6.2,0,0,0,3,.913,3.609,3.609,0,0,0,1.173-.13,5.262,5.262,0,0,0,3.389-2.346,5.436,5.436,0,0,0,.782-3.52l6.909.391.391,1.3a1.118,1.118,0,0,0,.913.782h.261a.933.933,0,0,0,.652-1.173l-1.825-6.257a4.119,4.119,0,0,0,1.825-1.825,4.175,4.175,0,0,0,.391-3.52,4.639,4.639,0,0,0-2.086-2.868,4.424,4.424,0,0,0-2.477-.652L42.629,14.66a.949.949,0,0,0-1.825.521l.391,1.3L24.378,27.044l-4.563-1.564a1.083,1.083,0,0,0-1.043.261.864.864,0,0,0-.261.913l2.738,10.559A1.335,1.335,0,0,0,22.032,37.864Zm14.6-.652a3.887,3.887,0,0,1-2.216,1.564,3.122,3.122,0,0,1-2.607-.521,3.887,3.887,0,0,1-1.564-2.216,3.721,3.721,0,0,1,0-1.695l6.779.391A2.854,2.854,0,0,1,36.632,37.212Zm9.125-14.079a3.337,3.337,0,0,1,1.3,1.695,2.859,2.859,0,0,1-.261,2.086,1.916,1.916,0,0,1-.652.782l-1.3-5.084C45.105,22.872,45.5,22.872,45.757,23.133Zm-.391,10.038-1.434-.13-3.65-13.818,1.3-.782ZM24.117,29a.862.862,0,0,0,.782-.13l13.688-8.6L41.846,32.91l-16.034-.782a1.853,1.853,0,0,0-.782.261l-2.346,2.477-1.825-7.039Z" transform="translate(2.737 -5.534)" stroke="#000" stroke-width="0.3"/>
        <rect id="Rectangle_666" data-name="Rectangle 666" width="3.78" height="1.955" transform="matrix(-0.968, 0.251, -0.251, -0.968, 57.059, 18.512)" stroke="#000" stroke-width="0.3"/>
        <rect id="Rectangle_667" data-name="Rectangle 667" width="1.955" height="3.78" transform="translate(51.398 10.969) rotate(30.47)" stroke="#000" stroke-width="0.3"/>
        <rect id="Rectangle_668" data-name="Rectangle 668" width="3.78" height="1.955" transform="translate(55.235 25.857) rotate(-149.517)" stroke="#000" stroke-width="0.3"/>
        <path id="Path_10206" data-name="Path 10206" d="M80.807,31.226,69.726,21.449V10.107A2.615,2.615,0,0,0,67.119,7.5H16.279a2.615,2.615,0,0,0-2.607,2.607V21.449L2.591,31.1a.929.929,0,0,0-.391.782v49.8a1.028,1.028,0,0,0,1.043,1.043H80.286a1.028,1.028,0,0,0,1.043-1.043v-49.8A1.3,1.3,0,0,0,80.807,31.226ZM31.01,57.558,4.155,79.719V34.093ZM41.7,51.171,77.548,80.893H5.85Zm10.69,6.388L79.243,34.093V79.719ZM78.721,32.008l-8.995,7.822V24.056ZM16.279,9.455h50.84a.616.616,0,0,1,.652.652V41.524L50.824,56.255l-8.473-7.039a1.184,1.184,0,0,0-1.3,0l-8.6,7.039L15.5,41.524V10.107A.826.826,0,0,1,16.279,9.455ZM13.672,39.829,4.677,32.008l8.995-7.822Z" transform="translate(-2.2 -7.5)" stroke="#000" stroke-width="0.3"/>
        <rect id="Rectangle_669" data-name="Rectangle 669" width="29.461" height="1.955" transform="translate(24.768 66.744)" stroke="#000" stroke-width="0.3"/>
        <rect id="Rectangle_670" data-name="Rectangle 670" width="18.381" height="1.955" transform="translate(30.244 62.051)" stroke="#000" stroke-width="0.3"/>
      </g>
    </g>
  </g>
</svg>
