<svg width="22" height="22" viewBox="0 0 22 22" fill="none" xmlns="http://www.w3.org/2000/svg">
<g clip-path="url(#cx_usecase_service_clip)">
<path d="M9.35949 1.00052C9.26802 1.00052 9.18031 1.03689 9.11563 1.10164C9.05096 1.16638 9.01462 1.25419 9.01462 1.34575V2.82948C8.17136 3.03432 7.36499 3.36832 6.62378 3.82002L5.57589 2.77129C5.51122 2.70658 5.42353 2.67024 5.3321 2.67024C5.24067 2.67024 5.15298 2.70658 5.08831 2.77129L2.76876 5.09316C2.70409 5.15791 2.66775 5.24572 2.66775 5.33728C2.66775 5.42884 2.70409 5.51664 2.76876 5.58139L3.81652 6.63025C3.3653 7.37224 3.03164 8.17947 2.82702 9.02363H1.34486C1.2534 9.02363 1.16568 9.06 1.10101 9.12474C1.03633 9.18949 1 9.2773 1 9.36886V12.6536C1 12.7452 1.03633 12.833 1.10101 12.8977C1.16568 12.9625 1.2534 12.9988 1.34486 12.9988H2.82702C3.03164 13.843 3.3653 14.6504 3.81652 15.3923L2.76876 16.4411C2.70409 16.5058 2.66775 16.5936 2.66775 16.6852C2.66775 16.7768 2.70409 16.8646 2.76876 16.9293L5.08831 19.2513C5.15298 19.316 5.24067 19.3524 5.3321 19.3524C5.42353 19.3524 5.51122 19.316 5.57589 19.2513L6.62378 18.2025C7.36499 18.6541 8.17136 18.9883 9.01462 19.1931V20.6767C9.01462 20.7683 9.05096 20.8561 9.11563 20.9208C9.18031 20.9856 9.26802 21.0219 9.35949 21.0219H12.6408C12.7322 21.0219 12.8199 20.9855 12.8845 20.9208C12.9492 20.856 12.9855 20.7683 12.9855 20.6767V18.9176C12.9855 18.826 12.9492 18.7382 12.8846 18.6735C12.8199 18.6087 12.7322 18.5724 12.6408 18.5723C12.5955 18.5723 12.5506 18.5813 12.5088 18.5986C12.467 18.616 12.4289 18.6414 12.3969 18.6734C12.3649 18.7055 12.3395 18.7436 12.3222 18.7854C12.3048 18.8273 12.2959 18.8722 12.2959 18.9176V20.3315H9.70435V18.9176C9.70435 18.8382 9.67702 18.7612 9.62695 18.6996C9.57688 18.638 9.50714 18.5956 9.42948 18.5795C8.47934 18.3822 7.57495 18.0075 6.7635 17.4749C6.69723 17.4314 6.618 17.412 6.53914 17.4201C6.46028 17.4282 6.38661 17.4632 6.33053 17.5193L5.33217 18.5188L3.5002 16.6849L4.49868 15.6855C4.55467 15.6294 4.58964 15.5557 4.59771 15.4767C4.60579 15.3978 4.58646 15.3185 4.543 15.2522C4.01097 14.4398 3.63666 13.5343 3.43946 12.5832C3.42334 12.5055 3.38098 12.4357 3.31949 12.3856C3.25801 12.3355 3.18117 12.3081 3.1019 12.3081H1.68947V9.71382H3.1019C3.18117 9.7138 3.25801 9.68644 3.31949 9.63635C3.38098 9.58625 3.42334 9.51649 3.43946 9.43879C3.63666 8.48765 4.01097 7.58217 4.543 6.76986C4.58646 6.70353 4.60579 6.62424 4.59771 6.54533C4.58964 6.46642 4.55467 6.39269 4.49868 6.33656L3.5002 5.33701L5.33217 3.5031L6.33053 4.50265C6.38661 4.55873 6.46028 4.59376 6.53914 4.60184C6.618 4.60992 6.69723 4.59055 6.7635 4.54701C7.57495 4.01442 8.47934 3.63971 9.42948 3.4423C9.50709 3.4262 9.5768 3.38382 9.62687 3.32229C9.67693 3.26077 9.70429 3.18386 9.70435 3.10451V1.69046H11.792C11.8373 1.69046 11.8822 1.68153 11.924 1.66419C11.9659 1.64684 12.0039 1.62141 12.0359 1.58935C12.0679 1.55729 12.0933 1.51923 12.1107 1.47735C12.128 1.43546 12.1369 1.39057 12.1369 1.34523C12.1369 1.29989 12.128 1.255 12.1107 1.21311C12.0933 1.17122 12.0679 1.13316 12.0359 1.10111C12.0039 1.06905 11.9659 1.04362 11.924 1.02627C11.8822 1.00892 11.8373 0.999996 11.792 1L9.35949 1.00052ZM15.1407 1.00078C15.0963 0.999276 15.0521 1.00636 15.0104 1.02166C13.2304 1.67584 12.0468 3.40394 12.0457 5.33414C12.0457 5.33406 12.0457 5.33423 12.0457 5.33414C12.0466 7.11769 13.0582 8.73476 14.6285 9.48537V19.0874C14.6285 20.1488 15.4745 21.0219 16.5225 21.0219C17.5705 21.0219 18.4173 20.1491 18.4173 19.0874V9.48458C19.9874 8.73411 20.999 7.11769 21 5.33454C21 5.33445 21 5.33462 21 5.33454C21 3.46527 19.8903 1.77826 18.1909 1.07972C18.1385 1.05819 18.0817 1.04991 18.0254 1.05559C17.969 1.06127 17.915 1.08075 17.8679 1.1123C17.8209 1.14385 17.7824 1.18651 17.7557 1.23651C17.729 1.28651 17.7151 1.34231 17.7151 1.39898V4.71623L16.5948 5.56651L15.4741 4.71623V1.34575C15.4741 1.25617 15.4393 1.1701 15.377 1.10573C15.3148 1.04136 15.2301 1.00373 15.1407 1.00078ZM14.7845 1.87768V4.88767C14.7845 4.94098 14.7968 4.99356 14.8205 5.0413C14.8442 5.08904 14.8787 5.13064 14.9211 5.16283L16.3867 6.27485C16.4466 6.32034 16.5198 6.34496 16.595 6.34496C16.6703 6.34496 16.7434 6.32034 16.8034 6.27485L18.2685 5.1627C18.3109 5.13051 18.3452 5.08893 18.3689 5.04121C18.3926 4.9935 18.4049 4.94094 18.4049 4.88767V1.95531C19.5701 2.64081 20.3105 3.92218 20.3105 5.33427C20.3094 6.92446 19.3697 8.34961 17.9405 8.9426C17.8776 8.96876 17.8238 9.01301 17.7859 9.06976C17.748 9.12652 17.7278 9.19323 17.7278 9.26148V19.0874C17.7278 19.7873 17.1916 20.3315 16.5226 20.3315C15.8538 20.3315 15.3184 19.7876 15.3184 19.0874V9.26226C15.3184 9.19401 15.2981 9.1273 15.2603 9.07055C15.2224 9.01379 15.1686 8.96954 15.1056 8.94339C13.6764 8.35026 12.7364 6.92499 12.7355 5.33454C12.7364 3.86242 13.5411 2.53774 14.7845 1.87768ZM10.2359 6.4365C10.206 6.43257 10.1758 6.43257 10.1459 6.4365C7.95058 6.84762 6.35568 8.77064 6.35568 11.0064C6.35568 12.2392 6.84508 13.4221 7.71585 14.2939C8.58674 15.1657 9.76834 15.6558 11 15.6558C11.6771 15.6558 12.3458 15.5076 12.9596 15.2216C13.0006 15.2024 13.0375 15.1754 13.0681 15.142C13.0987 15.1086 13.1225 15.0695 13.138 15.027C13.1535 14.9844 13.1605 14.9392 13.1585 14.8939C13.1566 14.8486 13.1458 14.8042 13.1267 14.7631C13.1076 14.722 13.0806 14.6851 13.0472 14.6544C13.0139 14.6238 12.9748 14.6 12.9323 14.5845C12.8897 14.569 12.8446 14.562 12.7993 14.5639C12.7541 14.5659 12.7097 14.5767 12.6687 14.5958C12.146 14.8394 11.5766 14.9656 11 14.9656C9.95094 14.9656 8.94516 14.5485 8.20343 13.8059C7.46157 13.0633 7.04515 12.0564 7.04515 11.0064C7.04515 9.09839 8.39919 7.46566 10.2727 7.11495C10.3172 7.10661 10.3597 7.08958 10.3976 7.06483C10.4355 7.04007 10.4682 7.00808 10.4938 6.97068C10.5193 6.93328 10.5373 6.8912 10.5466 6.84684C10.556 6.80249 10.5565 6.75674 10.5481 6.71219C10.5342 6.63753 10.496 6.56957 10.4395 6.51886C10.383 6.46814 10.3114 6.43749 10.2357 6.43167L10.2359 6.4365Z" fill="white"/>
<path d="M12.0457 5.33414C12.0457 5.33423 12.0457 5.33406 12.0457 5.33414C12.0468 3.40394 13.2304 1.67584 15.0104 1.02166C15.0521 1.00636 15.0963 0.999276 15.1407 1.00078C15.2301 1.00373 15.3148 1.04136 15.377 1.10573C15.4393 1.1701 15.4741 1.25617 15.4741 1.34575V4.71623L16.5948 5.56651L17.7151 4.71623V1.39898C17.7151 1.34231 17.729 1.28651 17.7557 1.23651C17.7824 1.18651 17.8209 1.14385 17.8679 1.1123C17.915 1.08075 17.969 1.06127 18.0254 1.05559C18.0817 1.04991 18.1385 1.05819 18.1909 1.07972C19.8903 1.77826 21 3.46527 21 5.33454M21 5.33454C21 5.33445 21 5.33462 21 5.33454C20.999 7.11769 19.9874 8.73411 18.4173 9.48458V19.0874C18.4173 20.1491 17.5705 21.0219 16.5225 21.0219C15.4745 21.0219 14.6285 20.1488 14.6285 19.0874V9.48537C13.0582 8.73476 12.0466 7.11769 12.0457 5.33414M9.35949 1.00052C9.26802 1.00052 9.18031 1.03689 9.11563 1.10164C9.05096 1.16638 9.01462 1.25419 9.01462 1.34575V2.82948C8.17136 3.03432 7.36499 3.36832 6.62378 3.82002L5.57589 2.77129C5.51122 2.70658 5.42353 2.67024 5.3321 2.67024C5.24067 2.67024 5.15298 2.70658 5.08831 2.77129L2.76876 5.09316C2.70409 5.15791 2.66775 5.24572 2.66775 5.33728C2.66775 5.42884 2.70409 5.51665 2.76876 5.58139L3.81652 6.63025C3.3653 7.37224 3.03164 8.17947 2.82702 9.02363H1.34486C1.2534 9.02363 1.16568 9.06 1.10101 9.12474C1.03633 9.18949 1 9.27729 1 9.36886V12.6536C1 12.7452 1.03633 12.833 1.10101 12.8977C1.16568 12.9625 1.2534 12.9988 1.34486 12.9988H2.82702C3.03164 13.843 3.3653 14.6504 3.81652 15.3923L2.76876 16.4411C2.70409 16.5058 2.66775 16.5936 2.66775 16.6852C2.66775 16.7768 2.70409 16.8646 2.76876 16.9293L5.08831 19.2513C5.15298 19.316 5.24067 19.3524 5.3321 19.3524C5.42353 19.3524 5.51122 19.316 5.57589 19.2513L6.62378 18.2025C7.36499 18.6541 8.17136 18.9883 9.01462 19.1931V20.6767C9.01462 20.7683 9.05096 20.8561 9.11563 20.9208C9.18031 20.9856 9.26802 21.0219 9.35949 21.0219H12.6408C12.7322 21.0219 12.8199 20.9855 12.8845 20.9208C12.9492 20.856 12.9855 20.7683 12.9855 20.6767V18.9176C12.9855 18.826 12.9492 18.7382 12.8846 18.6735C12.8199 18.6087 12.7322 18.5724 12.6408 18.5723C12.5955 18.5723 12.5506 18.5813 12.5088 18.5986C12.467 18.616 12.4289 18.6414 12.3969 18.6734C12.3649 18.7055 12.3395 18.7436 12.3222 18.7854C12.3048 18.8273 12.2959 18.8722 12.2959 18.9176V20.3315H9.70435V18.9176C9.70435 18.8382 9.67702 18.7612 9.62695 18.6996C9.57688 18.638 9.50714 18.5956 9.42948 18.5795C8.47934 18.3822 7.57495 18.0075 6.7635 17.4749C6.69723 17.4314 6.618 17.412 6.53914 17.4201C6.46028 17.4282 6.38661 17.4632 6.33053 17.5193L5.33217 18.5188L3.5002 16.6849L4.49868 15.6855C4.55467 15.6294 4.58964 15.5557 4.59772 15.4767C4.60579 15.3978 4.58646 15.3185 4.543 15.2522C4.01097 14.4398 3.63666 13.5343 3.43946 12.5832C3.42334 12.5055 3.38098 12.4357 3.31949 12.3856C3.25801 12.3355 3.18117 12.3081 3.10189 12.3081H1.68947V9.71382H3.10189C3.18117 9.7138 3.25801 9.68644 3.31949 9.63635C3.38098 9.58625 3.42334 9.51649 3.43946 9.43879C3.63666 8.48765 4.01097 7.58217 4.543 6.76986C4.58646 6.70353 4.60579 6.62424 4.59772 6.54533C4.58964 6.46642 4.55467 6.39269 4.49868 6.33656L3.5002 5.33701L5.33217 3.5031L6.33053 4.50265C6.38661 4.55873 6.46028 4.59376 6.53914 4.60184C6.618 4.60992 6.69723 4.59055 6.7635 4.54701C7.57495 4.01442 8.47934 3.63971 9.42948 3.4423C9.50709 3.4262 9.5768 3.38382 9.62687 3.32229C9.67693 3.26077 9.70429 3.18386 9.70435 3.10451V1.69046H11.792C11.8373 1.69046 11.8822 1.68153 11.924 1.66419C11.9659 1.64684 12.0039 1.62141 12.0359 1.58935C12.0679 1.55729 12.0933 1.51923 12.1107 1.47735C12.128 1.43546 12.1369 1.39057 12.1369 1.34523C12.1369 1.29989 12.128 1.255 12.1107 1.21311C12.0933 1.17122 12.0679 1.13316 12.0359 1.10111C12.0039 1.06905 11.9659 1.04362 11.924 1.02627C11.8822 1.00892 11.8373 0.999996 11.792 1L9.35949 1.00052ZM14.7845 1.87768V4.88767C14.7845 4.94098 14.7968 4.99356 14.8205 5.0413C14.8442 5.08904 14.8787 5.13064 14.9211 5.16283L16.3867 6.27485C16.4466 6.32034 16.5198 6.34496 16.595 6.34496C16.6703 6.34496 16.7434 6.32034 16.8034 6.27485L18.2685 5.1627C18.3109 5.13051 18.3452 5.08893 18.3689 5.04121C18.3926 4.9935 18.4049 4.94095 18.4049 4.88767V1.95531C19.5701 2.64081 20.3105 3.92218 20.3105 5.33427C20.3094 6.92446 19.3697 8.34961 17.9405 8.9426C17.8776 8.96876 17.8238 9.01301 17.7859 9.06976C17.748 9.12652 17.7278 9.19323 17.7278 9.26148V19.0874C17.7278 19.7873 17.1916 20.3315 16.5226 20.3315C15.8538 20.3315 15.3184 19.7876 15.3184 19.0874V9.26226C15.3184 9.19401 15.2981 9.1273 15.2603 9.07054C15.2224 9.01379 15.1686 8.96954 15.1056 8.94339C13.6764 8.35026 12.7364 6.92499 12.7355 5.33454C12.7364 3.86242 13.5411 2.53774 14.7845 1.87768ZM10.2359 6.4365C10.206 6.43257 10.1758 6.43257 10.1459 6.4365C7.95058 6.84762 6.35568 8.77064 6.35568 11.0064C6.35568 12.2392 6.84508 13.4221 7.71585 14.2939C8.58674 15.1657 9.76835 15.6558 11 15.6558C11.6771 15.6558 12.3458 15.5076 12.9596 15.2216C13.0006 15.2024 13.0375 15.1754 13.0681 15.142C13.0987 15.1086 13.1225 15.0695 13.138 15.027C13.1535 14.9844 13.1605 14.9392 13.1585 14.8939C13.1566 14.8486 13.1458 14.8042 13.1267 14.7631C13.1076 14.722 13.0806 14.6851 13.0472 14.6544C13.0139 14.6238 12.9748 14.6 12.9323 14.5845C12.8897 14.569 12.8446 14.562 12.7993 14.5639C12.7541 14.5659 12.7097 14.5767 12.6687 14.5958C12.146 14.8394 11.5766 14.9656 11 14.9656C9.95094 14.9656 8.94516 14.5485 8.20343 13.8059C7.46156 13.0633 7.04515 12.0564 7.04515 11.0064C7.04515 9.09839 8.39919 7.46566 10.2727 7.11495C10.3172 7.10661 10.3597 7.08958 10.3976 7.06483C10.4355 7.04007 10.4682 7.00808 10.4938 6.97068C10.5193 6.93328 10.5373 6.8912 10.5466 6.84684C10.556 6.80249 10.5565 6.75674 10.5481 6.71219C10.5342 6.63753 10.496 6.56957 10.4395 6.51886C10.383 6.46814 10.3114 6.43749 10.2357 6.43167L10.2359 6.4365Z" stroke="#FC766A"/>
</g>
<defs>
<clipPath id="cx_usecase_service_clip">
<rect width="22" height="22" fill="white"/>
</clipPath>
</defs>
</svg>
