<svg width="36" height="36" viewBox="0 0 36 36" fill="none" xmlns="http://www.w3.org/2000/svg">
<path d="M5.12988 3.65625L14.9033 17.9404C15.0966 18.223 15.2002 18.558 15.2002 18.9004V31.4492L20.7998 28.6494V18.9004C20.7998 18.558 20.9034 18.223 21.0967 17.9404L30.8701 3.65625L30.9766 3.5H5.02344L5.12988 3.65625ZM11.7998 19.4258L11.7822 19.4004L0.397461 2.75977C0.0413788 2.23936 0.00178226 1.56459 0.295898 1.00684C0.590088 0.449104 1.16925 0.0996796 1.7998 0.0996094H34.2002C34.8308 0.0996952 35.4099 0.449104 35.7041 1.00684C35.9983 1.56459 35.9587 2.23936 35.6025 2.75977L24.2178 19.4004L24.2002 19.4258V29.7002C24.2001 30.3441 23.8357 30.9328 23.2598 31.2207L14.2607 35.7207C13.7338 35.9842 13.1076 35.9561 12.6064 35.6465C12.1053 35.3366 11.7999 34.7893 11.7998 34.2002V19.4258Z" fill="currentColor" stroke="#FAEAEA" stroke-width="0.2"/>
</svg>
