<svg width="25" height="23" viewBox="0 0 25 23" fill="none" xmlns="http://www.w3.org/2000/svg">
<g clip-path="url(#clip0_25472_642)">
<path d="M17.7176 2.12008L2.61519 11.4224L1.31641 9.43134V7.7156C1.31641 7.09097 1.64192 6.5088 2.18123 6.16885L10.9602 0.633252C12.2977 -0.210131 14.0205 -0.210298 15.3582 0.632919L17.7176 2.12008Z" fill="url(#paint0_linear_25472_642)"/>
<path d="M15.2234 0.551514C15.2688 0.577651 15.3139 0.604953 15.3586 0.633088L22.2099 4.95172L5.22205 15.4154L2.61523 11.4191L15.0828 3.72494C16.2637 2.99609 16.3154 1.35661 15.2234 0.551514Z" fill="url(#paint1_linear_25472_642)"/>
<path d="M15.2234 0.551514C15.2688 0.577651 15.3139 0.604953 15.3586 0.633088L22.2099 4.95172L5.22205 15.4154L2.61523 11.4191L15.0828 3.72494C16.2637 2.99609 16.3154 1.35661 15.2234 0.551514Z" fill="url(#paint2_linear_25472_642)"/>
<path d="M12.0003 17.4135L5.22266 15.4155L19.6328 6.53922C20.8464 5.79173 20.8433 4.07 19.627 3.32667L19.562 3.28705L19.7489 3.39992L24.1346 6.16447C24.6741 6.50442 24.9996 7.08677 24.9996 7.71156V9.37202L12.0003 17.4135Z" fill="url(#paint3_linear_25472_642)"/>
<path d="M12.0003 17.4135L5.22266 15.4155L19.6328 6.53922C20.8464 5.79173 20.8433 4.07 19.627 3.32667L19.562 3.28705L19.7489 3.39992L24.1346 6.16447C24.6741 6.50442 24.9996 7.08677 24.9996 7.71156V9.37202L12.0003 17.4135Z" fill="url(#paint4_linear_25472_642)"/>
<path d="M15.3582 0.632919C14.0205 -0.210298 12.2977 -0.210131 10.9601 0.633252L2.18123 6.16885C1.64192 6.5088 1.31641 7.09097 1.31641 7.7156V7.79951C1.33765 8.42663 1.67721 9.00448 2.22578 9.3406L13.1415 16.0279L24.0848 9.35076C24.6532 9.00398 24.9981 8.39767 24.9981 7.74557V9.37224L24.9984 7.71161C24.9984 7.08681 24.6727 6.50463 24.1334 6.16452L15.3582 0.632919Z" fill="url(#paint5_radial_25472_642)"/>
<path d="M11.2179 22.9992H20.8864C23.1572 22.9992 24.998 21.2104 24.998 19.0037V7.74554C24.998 8.39764 24.6532 9.00396 24.0849 9.35074L9.70356 18.1255C8.92782 18.599 8.45703 19.4265 8.45703 20.3167C8.4572 21.7982 9.69311 22.9992 11.2179 22.9992Z" fill="url(#paint6_linear_25472_642)"/>
<path d="M11.2179 22.9992H20.8864C23.1572 22.9992 24.998 21.2104 24.998 19.0037V7.74554C24.998 8.39764 24.6532 9.00396 24.0849 9.35074L9.70356 18.1255C8.92782 18.599 8.45703 19.4265 8.45703 20.3167C8.4572 21.7982 9.69311 22.9992 11.2179 22.9992Z" fill="url(#paint7_radial_25472_642)"/>
<path d="M11.2179 22.9992H20.8864C23.1572 22.9992 24.998 21.2104 24.998 19.0037V7.74554C24.998 8.39764 24.6532 9.00396 24.0849 9.35074L9.70356 18.1255C8.92782 18.599 8.45703 19.4265 8.45703 20.3167C8.4572 21.7982 9.69311 22.9992 11.2179 22.9992Z" fill="url(#paint8_radial_25472_642)"/>
<path d="M15.1479 22.9985H5.42615C3.15529 22.9985 1.31445 21.2097 1.31445 19.003V7.73718C1.31445 8.38812 1.65812 8.99343 2.22468 9.34054L16.5918 18.1421C17.3783 18.6239 17.8553 19.4645 17.8553 20.3679C17.8551 21.8208 16.643 22.9985 15.1479 22.9985Z" fill="url(#paint9_radial_25472_642)"/>
<path d="M15.1479 22.9985H5.42615C3.15529 22.9985 1.31445 21.2097 1.31445 19.003V7.73718C1.31445 8.38812 1.65812 8.99343 2.22468 9.34054L16.5918 18.1421C17.3783 18.6239 17.8553 19.4645 17.8553 20.3679C17.8551 21.8208 16.643 22.9985 15.1479 22.9985Z" fill="url(#paint10_linear_25472_642)"/>
<path d="M2.13808 10.8507H8.38786C9.56878 10.8507 10.5259 11.7808 10.5259 12.9284V19.0015C10.5259 20.1491 9.56878 21.0792 8.38786 21.0792H2.13808C0.957169 21.0792 0 20.1491 0 19.0015V12.9284C0 11.7808 0.957169 10.8507 2.13808 10.8507Z" fill="url(#paint11_radial_25472_642)"/>
<path d="M2.13808 10.8507H8.38786C9.56878 10.8507 10.5259 11.7808 10.5259 12.9284V19.0015C10.5259 20.1491 9.56878 21.0792 8.38786 21.0792H2.13808C0.957169 21.0792 0 20.1491 0 19.0015V12.9284C0 11.7808 0.957169 10.8507 2.13808 10.8507Z" fill="url(#paint12_radial_25472_642)"/>
<path d="M5.23557 18.9057C4.36509 18.9057 3.65068 18.641 3.09201 18.1119C2.53333 17.5828 2.25391 16.8923 2.25391 16.0404C2.25391 15.1407 2.53744 14.4132 3.10451 13.8575C3.67176 13.302 4.41426 13.0243 5.33237 13.0243C6.19994 13.0243 6.90595 13.2902 7.45058 13.8219C7.99812 14.3536 8.27189 15.0548 8.27189 15.9252C8.27189 16.8195 7.98818 17.5404 7.42111 18.0881C6.85678 18.6331 6.12832 18.9057 5.23557 18.9057ZM5.26076 17.7826C5.73514 17.7826 6.11702 17.6251 6.40621 17.3103C6.6954 16.9955 6.83999 16.5575 6.83999 15.9966C6.83999 15.4119 6.69951 14.9569 6.41888 14.6315C6.13809 14.306 5.76324 14.1434 5.29451 14.1434C4.81155 14.1434 4.42266 14.3113 4.12798 14.6473C3.83314 14.9808 3.6858 15.4226 3.6858 15.9728C3.6858 16.5312 3.83314 16.973 4.12798 17.2983C4.42266 17.6211 4.80025 17.7826 5.26076 17.7826Z" fill="white"/>
<path d="M5.23403 18.9844C4.36698 18.9844 3.65514 18.7127 3.09852 18.1691C2.54207 17.6256 2.26367 16.9162 2.26367 16.0412C2.26367 15.1171 2.54618 14.3698 3.1112 13.7991C3.67621 13.2282 4.41597 12.9429 5.33048 12.9429C6.19463 12.9429 6.89807 13.2161 7.44064 13.7623C7.98613 14.3087 8.2587 15.0289 8.2587 15.923C8.2587 16.8415 7.97619 17.5821 7.41135 18.1447C6.84907 18.7045 6.12336 18.9844 5.23403 18.9844ZM5.25904 17.8309C5.73172 17.8309 6.11222 17.669 6.40021 17.3457C6.68837 17.0223 6.83228 16.5724 6.83228 15.9963C6.83228 15.3956 6.69248 14.9283 6.41289 14.594C6.13312 14.2597 5.75981 14.0926 5.29279 14.0926C4.81155 14.0926 4.4242 14.265 4.13055 14.6103C3.83691 14.9526 3.69009 15.4066 3.69009 15.9718C3.69009 16.5453 3.83691 16.9991 4.13055 17.3334C4.4242 17.665 4.80042 17.8309 5.25904 17.8309Z" fill="white"/>
</g>
<defs>
<linearGradient id="paint0_linear_25472_642" x1="3.93968" y1="10.4447" x2="17.4953" y2="1.79233" gradientUnits="userSpaceOnUse">
<stop stop-color="#20A7FA"/>
<stop offset="0.4" stop-color="#3BD5FF"/>
<stop offset="1" stop-color="#C4B0FF"/>
</linearGradient>
<linearGradient id="paint1_linear_25472_642" x1="8.68226" y1="13.2765" x2="16.04" y2="1.15237" gradientUnits="userSpaceOnUse">
<stop stop-color="#165AD9"/>
<stop offset="0.5008" stop-color="#1880E5"/>
<stop offset="1" stop-color="#8587FF"/>
</linearGradient>
<linearGradient id="paint2_linear_25472_642" x1="14.2763" y1="13.4388" x2="5.95661" y2="6.46263" gradientUnits="userSpaceOnUse">
<stop offset="0.236946" stop-color="#448AFF" stop-opacity="0"/>
<stop offset="0.792113" stop-color="#0032B1" stop-opacity="0.2"/>
</linearGradient>
<linearGradient id="paint3_linear_25472_642" x1="13.1932" y1="16.0352" x2="26.4241" y2="7.32113" gradientUnits="userSpaceOnUse">
<stop stop-color="#1A43A6"/>
<stop offset="0.492267" stop-color="#2052CB"/>
<stop offset="1" stop-color="#5F20CB"/>
</linearGradient>
<linearGradient id="paint4_linear_25472_642" x1="16.9922" y1="15.5349" x2="9.016" y2="8.43215" gradientUnits="userSpaceOnUse">
<stop stop-color="#0045B9" stop-opacity="0"/>
<stop offset="0.669859" stop-color="#0D1F69" stop-opacity="0.2"/>
</linearGradient>
<radialGradient id="paint5_radial_25472_642" cx="0" cy="0" r="1" gradientUnits="userSpaceOnUse" gradientTransform="translate(13.1583 0.505839) rotate(-90) scale(17.2623 19.2271)">
<stop offset="0.568182" stop-color="#275FF0" stop-opacity="0"/>
<stop offset="0.992424" stop-color="#002177"/>
</radialGradient>
<linearGradient id="paint6_linear_25472_642" x1="24.9981" y1="15.2893" x2="13.0602" y2="15.2893" gradientUnits="userSpaceOnUse">
<stop stop-color="#4DC4FF"/>
<stop offset="0.196145" stop-color="#0FAFFF"/>
</linearGradient>
<radialGradient id="paint7_radial_25472_642" cx="0" cy="0" r="1" gradientTransform="matrix(5.38313 -5.23099 5.38313 5.23099 15.8503 20.3835)" gradientUnits="userSpaceOnUse">
<stop offset="0.259477" stop-color="#0060D1" stop-opacity="0.4"/>
<stop offset="0.908166" stop-color="#0383F1" stop-opacity="0"/>
</radialGradient>
<radialGradient id="paint8_radial_25472_642" cx="0" cy="0" r="1" gradientTransform="matrix(15.6752 -19.9645 18.5781 13.7738 4.36291 25.8559)" gradientUnits="userSpaceOnUse">
<stop offset="0.732317" stop-color="#F4A7F7" stop-opacity="0"/>
<stop offset="1" stop-color="#F4A7F7" stop-opacity="0.501961"/>
</radialGradient>
<radialGradient id="paint9_radial_25472_642" cx="0" cy="0" r="1" gradientTransform="matrix(-7.49363 11.0691 -29.5612 -18.8973 9.58494 13.7478)" gradientUnits="userSpaceOnUse">
<stop stop-color="#49DEFF"/>
<stop offset="0.724349" stop-color="#29C3FF"/>
</radialGradient>
<linearGradient id="paint10_linear_25472_642" x1="-0.357632" y1="20.3582" x2="11.1364" y2="20.3497" gradientUnits="userSpaceOnUse">
<stop offset="0.205882" stop-color="#6CE0FF"/>
<stop offset="0.535" stop-color="#50D5FF" stop-opacity="0"/>
</linearGradient>
<radialGradient id="paint11_radial_25472_642" cx="0" cy="0" r="1" gradientTransform="matrix(9.46314 9.83507 -10.1211 9.1957 -0.0375579 11.2441)" gradientUnits="userSpaceOnUse">
<stop offset="0.038877" stop-color="#0091FF"/>
<stop offset="0.919119" stop-color="#183DAD"/>
</radialGradient>
<radialGradient id="paint12_radial_25472_642" cx="0" cy="0" r="1" gradientUnits="userSpaceOnUse" gradientTransform="translate(5.26297 17.0798) rotate(90) scale(7.15993 8.49891)">
<stop offset="0.557796" stop-color="#0FA5F7" stop-opacity="0"/>
<stop offset="1" stop-color="#74C6FF" stop-opacity="0.501961"/>
</radialGradient>
<clipPath id="clip0_25472_642">
<rect width="25" height="23" fill="white"/>
</clipPath>
</defs>
</svg>
