<svg width="21" height="21" viewBox="0 0 21 21" fill="none" xmlns="http://www.w3.org/2000/svg">
<path d="M19.2058 8.02779C18.4635 7.93068 17.8186 7.77495 17.6238 6.91747C17.5843 6.72235 17.5062 6.58675 17.6431 6.39163C17.9169 5.9629 18.1318 5.49569 18.424 5.08619C18.6977 4.69684 18.6196 4.40463 18.3064 4.09314C17.8572 3.68364 17.4465 3.25583 16.9973 2.8271C16.0015 1.87253 16.0989 1.69755 14.81 2.61274C14.302 2.9636 13.8142 3.27507 13.2079 2.80786C13.1886 2.78863 13.1298 2.76847 13.0903 2.76847C12.856 2.78771 12.7972 2.65121 12.7586 2.43775C12.6613 1.95039 12.5437 1.44469 12.4068 0.957336C12.3287 0.626615 12.2111 0.314233 11.7821 0.314233C10.8056 0.294995 9.84836 0.294995 8.87184 0.314233C8.52 0.314233 8.32525 0.489207 8.24717 0.820845C8.11029 1.32746 8.01292 1.85328 7.87604 2.35989C7.83654 2.49639 7.83654 2.69061 7.66108 2.76847C6.64505 3.21645 6.64506 3.21645 5.68874 2.5935C5.47378 2.457 5.2781 2.34066 5.08336 2.20415C4.73151 1.93114 4.41918 1.95131 4.10684 2.26278C3.48217 2.88571 2.83727 3.50958 2.19238 4.13254C1.91861 4.40555 1.89933 4.69778 2.095 5.02848C2.27046 5.33995 2.44685 5.65141 2.66182 5.94365C2.95487 6.37238 3.07246 6.74248 2.7987 7.26832C2.60303 7.65767 2.40826 7.89125 1.97834 7.93065C1.666 7.97005 1.33344 8.06715 1.02111 8.12578C0.571879 8.18441 0.337646 8.41802 0.318338 8.86598C0.278836 9.82055 0.318338 10.7559 0.318338 11.7095C0.318338 12.1768 0.571879 12.3911 1.0018 12.469C1.39224 12.5469 1.80285 12.6055 2.19329 12.6641C2.46706 12.7227 2.58373 12.8592 2.7206 13.1121C3.15052 13.8138 2.95485 14.3589 2.50563 14.904C2.34946 15.1183 2.23187 15.3327 2.095 15.5471C2.01691 15.6643 1.93883 15.7807 1.97741 15.9172C1.95812 16.1315 2.095 16.268 2.21166 16.4045C2.85656 17.0275 3.50054 17.6513 4.10684 18.2944C4.41918 18.6059 4.71223 18.6252 5.06407 18.3916C5.5133 18.0993 5.96251 17.8263 6.39243 17.5341C6.51002 17.437 6.60739 17.3976 6.74428 17.4755C7.85769 17.9628 7.85769 17.9427 8.13143 19.1309C8.17001 19.3058 8.20951 19.4817 8.24902 19.6567C8.3271 20.0653 8.54207 20.2998 8.97199 20.2998C9.87043 20.2806 10.7689 20.2806 11.6673 20.2806C12.0578 20.2998 12.2727 20.1056 12.3701 19.7355C12.4675 19.2683 12.6044 18.8002 12.6824 18.3329C12.7412 18.0599 12.8974 17.9436 13.1317 17.8071C13.7958 17.3784 14.3424 17.4956 14.89 17.9821C15.0461 18.1378 15.2611 18.2349 15.4366 18.3522C15.8858 18.6444 16.0815 18.6444 16.4719 18.2743C17.1168 17.6514 17.7414 17.0083 18.3863 16.3853C18.6601 16.1123 18.6601 15.8595 18.4644 15.548C18.1714 15.0808 17.8976 14.6328 17.6441 14.1647C17.5853 14.0676 17.4686 13.9897 17.5467 13.834C17.8204 13.2495 17.9766 12.5285 18.875 12.5679C19.0505 12.5872 19.2269 12.5093 19.4023 12.4901C20.1253 12.3536 20.2815 12.1786 20.3008 11.4384V9.35427C20.2999 8.31999 20.2218 8.18351 19.2058 8.02779ZM18.5416 11.476C18.3073 11.4952 18.0923 11.5538 17.8581 11.5731C17.272 11.6317 16.9009 11.9038 16.8035 12.5276C16.7447 12.917 16.5692 13.2678 16.3736 13.5985C16.1981 13.8514 16.1981 14.1052 16.3929 14.3387C16.5104 14.4945 16.5885 14.6896 16.6859 14.8454C16.8614 15.1962 17.2325 15.5663 17.1746 15.8585C17.1351 16.17 16.6859 16.4238 16.3929 16.6959C15.826 17.2409 15.826 17.2409 15.1619 16.8131C14.8881 16.6381 14.6346 16.4623 14.3801 16.2873C14.2625 16.1902 14.1266 16.17 13.9704 16.1315C13.873 16.17 13.7554 16.2286 13.6378 16.2873C13.1693 16.5401 12.6999 16.7939 12.1928 16.891C11.8805 16.9688 11.7436 17.164 11.6848 17.4562C11.5883 17.9234 11.4514 18.3906 11.3541 18.8579C11.3155 19.0722 11.2567 19.1501 11.0224 19.1501C10.5337 19.1107 10.0459 19.1309 9.57739 19.1501C9.34313 19.1501 9.28434 19.0722 9.24483 18.8771C9.14745 18.4291 9.06937 18.0004 8.97106 17.5524C8.89298 17.2217 8.73681 16.9295 8.36568 16.8709C7.83837 16.7738 7.36985 16.5392 6.92065 16.2672C6.60831 16.072 6.35383 16.1307 6.10029 16.3056C5.70985 16.5786 5.31944 16.8315 4.94831 17.1045C4.77285 17.2217 4.65526 17.2016 4.51839 17.0651C4.18674 16.7142 3.85421 16.3642 3.48308 16.0326C3.30762 15.8769 3.3462 15.7404 3.46379 15.5847C3.69804 15.1953 3.91302 14.806 4.18676 14.4359C4.36222 14.183 4.38243 13.9293 4.22626 13.637C3.97272 13.2083 3.77703 12.7411 3.65944 12.2345C3.60065 11.9029 3.4059 11.6894 3.01455 11.65C2.60391 11.5914 2.19419 11.4549 1.78355 11.4164C1.50979 11.3779 1.48958 11.2616 1.48958 11.0472C1.50888 10.58 1.52909 10.1321 1.48958 9.68408C1.45008 9.27459 1.64575 9.17747 1.9783 9.11884C2.38894 9.04097 2.79866 8.92371 3.2093 8.866C3.46284 8.82753 3.56114 8.69103 3.61994 8.45742C3.75681 7.95081 3.95158 7.46437 4.22532 7.03564C4.40078 6.76263 4.38149 6.52903 4.22532 6.27619C3.97178 5.84746 3.73661 5.41874 3.46376 4.9909C3.30759 4.77653 3.34617 4.64003 3.54184 4.48429C3.79538 4.26992 4.04986 4.05556 4.24461 3.78347C4.57717 3.31626 4.86928 3.37397 5.26064 3.68636C5.5344 3.91997 5.86602 4.09586 6.15907 4.29007C6.39333 4.4458 6.64779 4.46504 6.88205 4.3093C7.31197 4.05647 7.79977 3.86132 8.28851 3.74406C8.62107 3.66619 8.8351 3.47106 8.89389 3.12113C8.97198 2.65391 9.12815 2.22519 9.20623 1.75797C9.24481 1.54361 9.32382 1.46574 9.55807 1.48497C10.0468 1.50421 10.5539 1.50421 11.0426 1.48497C11.2769 1.46573 11.3357 1.56284 11.3743 1.73781C11.4716 2.20502 11.6085 2.63375 11.6866 3.10096C11.7647 3.45183 11.9401 3.64603 12.292 3.72389C12.7807 3.84115 13.2299 4.03536 13.6396 4.30837C13.8739 4.44486 14.1082 4.44486 14.3626 4.26897C14.7723 3.99597 15.183 3.74313 15.5927 3.45089C15.7682 3.33363 15.8462 3.33363 16.0033 3.49029C16.335 3.84115 16.6868 4.1911 17.058 4.52272C17.2536 4.69769 17.2334 4.83418 17.1167 5.02933C16.8632 5.41868 16.628 5.84741 16.3745 6.25691C16.2183 6.52991 16.199 6.78275 16.3938 7.05573C16.6473 7.42583 16.843 7.87381 16.9404 8.32177C17.0377 8.69187 17.2729 8.86684 17.6238 8.92547C17.9757 8.9841 18.3073 9.08121 18.6399 9.1206C19.0303 9.13984 19.2067 9.27634 19.1479 9.68584C19.1093 10.0367 19.1093 10.3867 19.1479 10.7375C19.2453 11.2423 19.011 11.4558 18.5416 11.476ZM10.4556 5.47644C7.741 5.39857 5.43606 7.56055 5.43606 10.3263C5.45535 12.9363 7.46719 15.1185 10.2995 15.1762C12.9167 15.2349 15.1436 12.9748 15.1436 10.3263C15.1436 7.67781 13.0334 5.5543 10.4556 5.47644ZM10.26 13.9888C8.15072 13.9696 6.64697 12.3133 6.62674 10.2879C6.58724 8.3201 8.32625 6.64552 10.3187 6.66475C12.1937 6.58689 13.9905 8.22303 13.952 10.3263C13.9327 12.3912 12.292 13.9888 10.26 13.9888Z" fill="#FC766A" stroke="#FC766A" stroke-width="0.6"/>
</svg>
