<svg width="23" height="23" viewBox="0 0 23 23" fill="none" xmlns="http://www.w3.org/2000/svg">
<path d="M19.6961 1.33329H17.1235V1.04746C17.1235 0.574108 16.7394 0.189941 16.266 0.189941C15.7927 0.189941 15.4085 0.574108 15.4085 1.04746V1.33329H7.97672V1.04746C7.97672 0.574108 7.59255 0.189941 7.1192 0.189941C6.64586 0.189941 6.26169 0.574108 6.26169 1.04746V1.33329H3.68914C1.95468 1.33329 0.544922 2.74305 0.544922 4.47752V19.3411C0.544922 21.0756 1.95468 22.4853 3.68914 22.4853H19.6961C21.4306 22.4853 22.8403 21.0756 22.8403 19.3411V4.47752C22.8403 2.74305 21.4306 1.33329 19.6961 1.33329ZM3.68914 3.04832H6.26169V3.33416C6.26169 3.80751 6.64586 4.19168 7.1192 4.19168C7.59255 4.19168 7.97672 3.80751 7.97672 3.33416V3.04832H15.4085V3.33416C15.4085 3.80751 15.7927 4.19168 16.266 4.19168C16.7394 4.19168 17.1235 3.80751 17.1235 3.33416V3.04832H19.6961C20.4839 3.04832 21.1253 3.68975 21.1253 4.47752V7.05006H2.25995V4.47752C2.25995 3.68975 2.90137 3.04832 3.68914 3.04832ZM19.6961 20.7703H3.68914C2.90137 20.7703 2.25995 20.1289 2.25995 19.3411V8.76509H21.1253V19.3411C21.1253 20.1289 20.4839 20.7703 19.6961 20.7703Z" fill="black"/>
</svg>
