<svg width="97" height="62" viewBox="0 0 97 62" fill="none" xmlns="http://www.w3.org/2000/svg">
<g clip-path="url(#clip0_842_914)">
<path d="M43.75 23.8958C43.75 9.6076 36 0 22.75 0C11.75 0 4.25 6.65142 4.25 16.5054C4.25 24.8812 11 31.779 20.5 31.779C22.25 31.779 24.25 31.5327 26.25 30.7936C24 41.633 14 48.5308 0 47.7917V61.0945C25 63.0652 43.75 45.0819 43.75 23.8958ZM97 23.8958C97 9.6076 89.25 0 76 0C65 0 57.5 6.65142 57.5 16.5054C57.5 24.8812 64.25 31.779 73.5 31.779C75.5 31.779 77.5 31.5327 79.5 30.7936C77.25 41.633 67.25 48.5308 53.25 47.7917V61.0945C78.25 63.0652 97 45.0819 97 23.8958Z" fill="white"/>
</g>
<defs>
<clipPath id="clip0_842_914">
<rect width="97" height="62" fill="white"/>
</clipPath>
</defs>
</svg>
