<svg width="119" height="18" viewBox="0 0 119 18" fill="none" xmlns="http://www.w3.org/2000/svg">
<g clip-path="url(#clip0_25472_597)">
<path d="M18.2615 0.0761314C19.1459 -0.0805032 20.0739 0.0454102 20.8965 0.400651C21.5146 0.675843 22.0835 1.10507 22.4414 1.68704C22.584 1.89906 22.5404 2.21277 22.3333 2.3668C22.1263 2.53555 21.7848 2.49445 21.6309 2.27421C21.232 1.59358 20.4664 1.22233 19.716 1.07652C18.9073 0.915554 17.9848 1.01118 17.3378 1.56329C17.1666 1.70998 16.8951 1.70652 16.7218 1.56589C16.5528 1.43868 16.4841 1.19767 16.5601 1.00036C16.6077 0.859737 16.7296 0.765843 16.8424 0.678872C17.2578 0.366901 17.7527 0.170458 18.2615 0.0761314Z" fill="#FF7A00"/>
<path d="M112.264 14.6457C113.094 9.78615 113.945 4.92961 114.785 0.0717773C116.188 0.0726427 117.591 0.0717773 118.994 0.07221C118.153 4.92918 117.311 9.78615 116.468 14.6431C115.066 14.6444 113.665 14.6397 112.264 14.6457Z" fill="#FF7A00"/>
<path d="M52.7417 0.203761C53.496 0.107271 54.2616 0.12804 55.0167 0.204626C55.8791 0.300684 56.744 0.509242 57.5056 0.937607C58.1722 1.30972 58.7337 1.86919 59.1045 2.53727C59.6496 3.51299 59.7754 4.66612 59.7015 5.76559C58.272 5.76559 56.8421 5.76602 55.4122 5.76516C55.4723 5.30996 55.4109 4.82838 55.1939 4.42035C54.9661 3.99588 54.5391 3.70338 54.0761 3.59304C53.4126 3.43511 52.6786 3.49136 52.0851 3.84443C51.4614 4.20963 51.0188 4.81842 50.7227 5.4666C50.3496 6.27876 50.1715 7.16275 50.038 8.04155C49.9485 8.73386 49.9152 9.46554 50.1659 10.1297C50.3825 10.7013 50.9254 11.1046 51.5185 11.2132C52.1227 11.3192 52.7742 11.3006 53.3365 11.0328C53.9132 10.755 54.3164 10.2184 54.6091 9.66501C54.728 9.43222 54.8213 9.18732 54.9009 8.93852C56.348 8.93895 57.7952 8.93852 59.2424 8.93895C58.8664 10.2838 58.1609 11.5442 57.1533 12.5165C56.1445 13.5021 54.8425 14.1685 53.4662 14.4592C52.5589 14.6544 51.6213 14.6829 50.6989 14.5994C49.8478 14.5211 49.001 14.3169 48.2346 13.9322C47.588 13.6112 47.007 13.1525 46.5644 12.5801C45.7746 11.5715 45.4664 10.2634 45.4768 9.0004C45.4906 7.84641 45.7029 6.69285 46.1006 5.60895C46.825 3.67222 48.2471 1.98169 50.0955 1.03496C50.9206 0.60703 51.8197 0.322319 52.7417 0.203761Z" fill="#FF7A00"/>
<path d="M87.3978 0.659851C88.7797 0.660284 90.162 0.659418 91.544 0.660284C91.3486 1.76019 91.1532 2.85966 90.9587 3.95913C91.6317 3.95826 92.3043 3.96043 92.9773 3.95826C92.8463 4.77043 92.7067 5.58129 92.5732 6.39302C91.8993 6.39302 91.2258 6.39259 90.5528 6.39302C90.3086 7.79581 90.0717 9.19947 89.8231 10.601C89.7682 10.9051 89.8037 11.3127 90.1305 11.4486C90.6073 11.6247 91.1277 11.5442 91.6248 11.5641C91.4549 12.5645 91.2945 13.5666 91.1165 14.5657C89.9947 14.6202 88.8705 14.6812 87.7479 14.615C87.2262 14.5765 86.6884 14.5302 86.2108 14.2992C85.9013 14.1521 85.6406 13.8942 85.52 13.5705C85.3597 13.1478 85.364 12.6861 85.3895 12.2417C85.4491 11.3365 85.6527 10.4504 85.7963 9.5573C85.9791 8.5024 86.1628 7.44793 86.3456 6.39302C85.8468 6.39302 85.348 6.39259 84.8496 6.39302C84.9836 5.58605 85.1154 4.77865 85.2546 3.97298C85.763 3.94009 86.2933 3.96908 86.8103 3.9587C87.0061 2.85923 87.2011 1.75932 87.3978 0.659851Z" fill="#FF7A00"/>
<path d="M18.4789 1.8917C19.3196 1.75973 20.2503 1.99857 20.8481 2.62511C20.9626 2.75492 21.0871 2.89252 21.1273 3.06559C21.1671 3.26117 21.0452 3.47103 20.8563 3.53463C20.6799 3.60127 20.4612 3.52771 20.3661 3.36329C20.1414 3.00069 19.7264 2.80728 19.3209 2.72679C18.8697 2.6355 18.3531 2.68742 17.9939 2.99939C17.821 3.14478 17.5336 3.09804 17.4069 2.91329C17.2781 2.74367 17.3114 2.48189 17.4765 2.34776C17.7566 2.10199 18.1145 1.95704 18.4789 1.8917Z" fill="#FF7A00"/>
<path d="M18.6113 3.45156C18.9441 3.36762 19.3155 3.4217 19.5986 3.62031C19.8186 3.77045 19.9811 4.01666 19.9967 4.28666C20.0166 4.55449 19.8899 4.81973 19.6872 4.99108C19.2394 5.37964 18.4886 5.35238 18.0809 4.91752C17.8639 4.69685 17.7827 4.35156 17.8925 4.05992C18.0053 3.74882 18.2971 3.53031 18.6113 3.45156Z" fill="#FF7A00"/>
<path d="M65.3525 3.61601C66.2451 3.41394 67.1741 3.38106 68.0805 3.50091C68.98 3.62206 69.8627 3.95005 70.5845 4.50779C71.1638 4.95303 71.6103 5.56182 71.8817 6.23899C72.3659 7.42413 72.362 8.7499 72.1217 9.99086C69.446 9.99259 66.7708 9.9913 64.0951 9.99173C64.0294 10.3548 64.0432 10.7403 64.1841 11.0847C64.3432 11.4746 64.6799 11.7749 65.0655 11.9324C65.9417 12.282 67.0478 11.9531 67.5497 11.1414C68.8918 11.1427 70.234 11.141 71.5761 11.1423C71.2731 11.8194 70.8396 12.4438 70.2746 12.928C69.3154 13.7795 68.0926 14.3026 66.8317 14.5004C65.8531 14.6566 64.8485 14.7029 63.866 14.5501C63.0088 14.4134 62.1577 14.1196 61.4696 13.5774C60.8623 13.1093 60.4032 12.4563 60.1568 11.7303C59.9048 10.98 59.881 10.17 59.9951 9.39202C60.1629 7.99961 60.7935 6.67341 61.7527 5.65269C62.7097 4.62937 63.9914 3.92928 65.3525 3.61601ZM65.48 6.30865C64.925 6.62798 64.571 7.22077 64.4604 7.84211C65.7325 7.84428 67.0042 7.84038 68.2763 7.84384C68.3226 7.51154 68.2966 7.15976 68.1458 6.85601C67.9175 6.38567 67.4343 6.04947 66.9117 6.01355C66.4211 5.9824 65.9097 6.05899 65.48 6.30865Z" fill="#FF7A00"/>
<path d="M103.434 4.10665C104.643 3.58569 105.977 3.45069 107.281 3.43338C108.239 3.42819 109.208 3.45372 110.143 3.68348C110.723 3.8267 111.307 4.06641 111.719 4.51554C112.066 4.8816 112.204 5.39131 112.25 5.88199C112.303 6.58814 112.17 7.28953 112.052 7.98227C111.774 9.6053 111.494 11.2279 111.218 12.8514C111.18 13.13 111.125 13.4273 111.232 13.6977C111.297 13.8656 111.426 13.995 111.543 14.1282C111.563 14.3039 111.534 14.4848 111.539 14.6622C110.089 14.6678 108.638 14.6635 107.188 14.6643C107.181 14.1802 107.171 13.6964 107.164 13.2122C106.761 13.5406 106.329 13.8388 105.861 14.0664C105.24 14.3736 104.554 14.5185 103.87 14.5955C103.02 14.6799 102.138 14.676 101.324 14.3896C100.639 14.1477 100.03 13.6272 99.7797 12.9327C99.5493 12.275 99.6453 11.5567 99.8303 10.9008C99.9937 10.3262 100.307 9.78833 100.766 9.39977C101.381 8.83381 102.167 8.49804 102.968 8.28992C103.656 8.09997 104.369 8.03852 105.074 7.9416C105.778 7.84554 106.49 7.78194 107.176 7.58896C107.413 7.52275 107.661 7.44227 107.839 7.26098C108.007 7.09655 108.075 6.85208 108.07 6.62189C108.058 6.35838 107.823 6.18098 107.597 6.09444C107.177 5.94602 106.72 5.9378 106.283 6.00357C105.769 6.08622 105.287 6.47175 105.184 6.99833C103.836 6.9992 102.487 6.99876 101.14 6.99833C101.247 6.34497 101.498 5.70545 101.922 5.19184C102.323 4.70766 102.862 4.35588 103.434 4.10665ZM106.313 10.025C105.782 10.1427 105.233 10.2279 104.745 10.4767C104.512 10.594 104.289 10.7584 104.182 11.0042C104.039 11.2967 104.009 11.6961 104.255 11.9436C104.545 12.2378 104.992 12.259 105.38 12.2482C105.939 12.2348 106.49 11.9838 106.851 11.5533C107.304 11.0254 107.485 10.3253 107.569 9.649C107.165 9.81862 106.744 9.94713 106.313 10.025Z" fill="#FF7A00"/>
<path d="M79.0664 4.19404C79.8588 3.77996 80.7773 3.6839 81.6574 3.75486C82.3788 3.81198 83.1314 4.00582 83.6752 4.51034C84.2111 5.00448 84.4688 5.73097 84.5349 6.44361C84.6235 7.27308 84.477 8.10082 84.33 8.91515C84.0032 10.8242 83.676 12.7337 83.3488 14.6427C81.9453 14.6431 80.5417 14.6431 79.1382 14.6427C79.4252 12.9859 79.7127 11.3291 79.9997 9.67236C80.0736 9.2202 80.1791 8.76933 80.1696 8.30851C80.1687 7.96409 80.0818 7.60236 79.8501 7.33842C79.6478 7.12683 79.3418 7.06799 79.0613 7.0576C78.6536 7.04722 78.2253 7.10909 77.8795 7.33928C77.5687 7.54395 77.3785 7.88101 77.2354 8.21505C77.0236 8.71005 76.9614 9.24875 76.868 9.77448C76.5888 11.3971 76.3099 13.0201 76.0307 14.6427C74.6276 14.6431 73.2249 14.6427 71.8223 14.6431C72.4266 11.1089 73.0382 7.57597 73.6399 4.04174C74.9215 4.03438 76.2032 4.04 77.4852 4.03871C77.3914 4.58909 77.2972 5.13904 77.2043 5.68943C77.7468 5.104 78.3575 4.56875 79.0664 4.19404Z" fill="#FF7A00"/>
<path d="M99.2642 4.13175C99.9696 3.77997 100.793 3.64886 101.569 3.79641C101.32 5.19963 101.068 6.60286 100.82 8.00608C99.9804 7.79492 99.0441 7.85247 98.2881 8.29944C97.8243 8.56944 97.4928 9.01685 97.2823 9.50363C96.9594 10.2206 96.8539 11.0059 96.7225 11.774C96.5587 12.7302 96.3961 13.6869 96.231 14.6431C94.8283 14.6427 93.4261 14.6431 92.0234 14.6427C92.6295 11.108 93.2346 7.57295 93.8424 4.03829C95.1171 4.03915 96.3922 4.03742 97.6674 4.03915C97.5472 4.75915 97.4163 5.47786 97.3039 6.19915C97.4253 6.0806 97.4738 5.90709 97.5736 5.77036C97.986 5.09406 98.5492 4.48915 99.2642 4.13175Z" fill="#FF7A00"/>
<path d="M0.00390625 14.6432C0.84594 9.78578 1.68754 4.92881 2.53131 0.0718384C4.82918 0.0722711 7.12662 0.0718384 9.42449 0.0722711C10.5012 0.0817903 11.5888 0.123329 12.64 0.376886C13.4233 0.570733 14.2333 0.897848 14.7378 1.559C15.234 2.22318 15.2945 3.10544 15.1765 3.9003C15.0512 4.93357 14.6345 5.94304 13.9282 6.71496C13.4337 7.2502 12.7658 7.60242 12.0643 7.78155C12.573 7.98751 13.1268 8.16924 13.5007 8.59501C13.8832 9.02035 14.0029 9.61227 13.9934 10.1696C14.0086 11.3552 13.6178 12.4962 13.5495 13.6735C13.5223 13.9076 13.6325 14.2083 13.9113 14.2023C13.8918 14.3494 13.8724 14.4961 13.8521 14.6432C12.2402 14.6428 10.6283 14.6432 9.01644 14.6432C8.93344 14.1335 9.00174 13.6151 9.04713 13.1054C9.11759 12.369 9.33285 11.6485 9.32118 10.9047C9.31686 10.5876 9.23689 10.2518 9.01212 10.016C8.84137 9.83294 8.59974 9.74165 8.36244 9.68323C7.98767 9.59453 7.6008 9.57117 7.21696 9.56597C6.69393 9.56597 6.17047 9.56597 5.647 9.56641C5.35566 11.2587 5.06994 12.9522 4.77558 14.6441C3.18488 14.6415 1.59418 14.6436 0.00390625 14.6432ZM6.70041 3.47453C6.53313 4.43684 6.37708 5.40088 6.21499 6.36405C6.8798 6.36448 7.54504 6.36448 8.20985 6.36405C8.66804 6.3554 9.13228 6.31256 9.56886 6.16631C9.82951 6.07934 10.0832 5.94434 10.26 5.72929C10.5311 5.40304 10.6218 4.9578 10.5868 4.54285C10.5665 4.25987 10.4303 3.98121 10.1969 3.81463C9.84983 3.56583 9.41238 3.48578 8.9931 3.47669C8.22887 3.4741 7.46464 3.47799 6.70041 3.47453Z" fill="#0684BC"/>
<path d="M34.3302 5.67562C35.1606 4.54802 36.4301 3.71379 37.8306 3.53509C38.4976 3.45201 39.1944 3.43254 39.8376 3.65711C40.5932 3.91889 41.2329 4.47187 41.6388 5.15726C41.7123 4.69774 41.7853 4.23822 41.8593 3.77913C43.0933 3.7787 44.3274 3.7787 45.5615 3.77913C45.1319 6.2736 44.7 8.76807 44.2695 11.2625C44.1247 12.0868 43.9994 12.9159 43.7945 13.7285C43.6592 14.2555 43.5265 14.789 43.2844 15.2792C42.9736 15.9127 42.528 16.4899 41.9509 16.9014C41.4901 17.2311 40.9692 17.4721 40.4294 17.6391C39.5795 17.8957 38.6874 17.9567 37.8051 18H37.1611C36.4772 17.9476 35.7869 17.9061 35.123 17.7218C34.4275 17.5349 33.7324 17.2445 33.2202 16.7218C32.7538 16.2549 32.507 15.586 32.5424 14.9283C33.949 14.9274 35.3555 14.9279 36.7621 14.9279C36.7496 15.2416 36.9921 15.5215 37.2903 15.5938C37.6474 15.6855 38.0264 15.6682 38.3869 15.6011C38.8015 15.5233 39.1914 15.2836 39.4079 14.9153C39.8095 14.2572 39.8631 13.4693 40.0183 12.7315C39.3561 13.2888 38.5521 13.7042 37.6884 13.8198C37.0184 13.908 36.3285 13.9128 35.6681 13.7557C34.8623 13.5614 34.1128 13.0907 33.6395 12.4036C33.1532 11.7035 32.957 10.8376 32.9457 9.99519C32.9505 9.31283 33.0607 8.63264 33.2457 7.97668C33.4839 7.16019 33.8171 6.35971 34.3302 5.67562ZM38.9489 6.49903C38.6459 6.54317 38.3627 6.68552 38.1349 6.88846C37.7256 7.25149 37.5129 7.77764 37.3785 8.29644C37.2428 8.83168 37.1399 9.40283 37.2821 9.94802C37.3664 10.2483 37.5129 10.5521 37.7723 10.7386C38.1086 10.9739 38.5447 10.993 38.9385 10.9419C39.538 10.8536 40.039 10.4236 40.3174 9.89826C40.6221 9.31889 40.7821 8.66033 40.7657 8.0048C40.7514 7.57341 40.6195 7.126 40.32 6.80538C39.9595 6.46096 39.4157 6.44235 38.9489 6.49903Z" fill="#0684BC"/>
<path d="M27.3477 4.1915C28.172 3.76357 29.1294 3.6766 30.0424 3.76443C30.7245 3.8315 31.4299 4.02881 31.9451 4.50347C32.4517 4.96688 32.715 5.64059 32.7967 6.31126C32.9095 7.17015 32.7716 8.03294 32.616 8.87669C32.2858 10.7987 31.9551 12.7203 31.6257 14.6423C30.2222 14.6436 28.8186 14.6427 27.4155 14.6427C27.719 12.889 28.0233 11.1353 28.3267 9.38164C28.4257 8.80443 28.5545 8.17746 28.3077 7.61929C28.2009 7.34539 27.9502 7.14592 27.6619 7.09616C27.2102 7.01525 26.7235 7.05116 26.3068 7.25193C25.9113 7.44102 25.671 7.8352 25.5071 8.22592C25.2971 8.72135 25.2383 9.26049 25.144 9.78578C24.8648 11.4049 24.5869 13.024 24.3068 14.6432C22.9045 14.6423 21.5018 14.644 20.0996 14.6423C20.7069 11.1077 21.3121 7.57256 21.9198 4.03833C23.201 4.03876 24.4818 4.03876 25.763 4.03789C25.6735 4.58395 25.5754 5.12871 25.4855 5.67477C26.0384 5.10405 26.6375 4.56102 27.3477 4.1915Z" fill="#0684BC"/>
<path d="M17.0018 6.03692C18.0189 6.03475 19.036 6.03648 20.0531 6.03648C19.6429 8.90523 19.234 11.7744 18.8233 14.6432C17.4271 14.6423 16.031 14.6436 14.6348 14.6427C15.4232 11.774 16.2142 8.9061 17.0018 6.03692Z" fill="#0684BC"/>
</g>
<defs>
<clipPath id="clip0_25472_597">
<rect width="119" height="18" fill="white"/>
</clipPath>
</defs>
</svg>
