<svg xmlns="http://www.w3.org/2000/svg" width="8.2" height="25.206" viewBox="0 0 8.2 25.206">
  <g id="Group_1641" data-name="Group 1641" transform="translate(0 7.206) rotate(-90)">
    <path id="Path_90" data-name="Path 90" d="M17.469,17.212,14.161,13.9a.79.79,0,0,0-1.118,1.118L15,16.986H-6.71a.786.786,0,0,0-.79.79.786.786,0,0,0,.79.79H15L13.043,20.52a.794.794,0,1,0,1.129,1.118l3.3-3.3a.8.8,0,0,0,.237-.565A.759.759,0,0,0,17.469,17.212Z" transform="translate(-10.5 -13.675)" fill="#005463"/>
  </g>
</svg>
