<svg width="18" height="18" viewBox="0 0 18 18" fill="none" xmlns="http://www.w3.org/2000/svg">
<path d="M3.80779 7.09275C3.80779 6.50925 3.90979 5.958 4.11079 5.4435C4.30283 4.94377 4.58815 4.48513 4.95154 4.092C5.31419 3.70403 5.72919 3.36855 6.18454 3.09525C6.65172 2.81261 7.15751 2.59938 7.68604 2.46225C8.22095 2.32179 8.77174 2.25095 9.32479 2.2515C10.179 2.2515 10.974 2.43225 11.7113 2.79225C12.4389 3.14568 13.0582 3.68808 13.5045 4.36275C13.965 5.049 14.1938 5.82525 14.1938 6.69075C14.1938 7.20975 14.1428 7.7175 14.0385 8.214C13.9362 8.71022 13.7735 9.19205 13.554 9.64875C13.3449 10.0908 13.0714 10.4995 12.7425 10.8615C12.412 11.2177 12.0117 11.5021 11.5665 11.697C11.0832 11.9088 10.5604 12.0154 10.0328 12.0097C9.66604 12.0097 9.30004 11.9235 8.93854 11.7502C8.57704 11.5777 8.31754 11.3407 8.16154 11.037C8.10679 11.2477 8.03179 11.5522 7.93204 11.9505C7.83604 12.348 7.77154 12.6045 7.74304 12.7207C7.71304 12.8362 7.65754 13.029 7.57654 13.296C7.52161 13.4935 7.45114 13.6864 7.36579 13.8727L7.10779 14.3782C6.99621 14.5952 6.87148 14.8051 6.73429 15.0067C6.59854 15.2032 6.43054 15.438 6.23029 15.708L6.11854 15.7477L6.04429 15.6667C5.96404 14.817 5.92279 14.3085 5.92279 14.1405C5.92279 13.6432 5.98204 13.0852 6.09904 12.4657C6.21379 11.847 6.39529 11.0692 6.63904 10.134C6.88279 9.1995 7.02229 8.64975 7.05979 8.487C6.88804 8.13675 6.80104 7.67925 6.80104 7.11675C6.80104 6.6675 6.94129 6.24675 7.22254 5.85075C7.50454 5.45625 7.86079 5.259 8.29279 5.259C8.62354 5.259 8.88004 5.3685 9.06379 5.58825C9.24829 5.80725 9.33829 6.08325 9.33829 6.42C9.33829 6.777 9.21979 7.29375 8.98129 7.9695C8.74279 8.646 8.62429 9.15075 8.62429 9.486C8.62429 9.82575 8.74579 10.11 8.98879 10.3327C9.2286 10.5556 9.54573 10.6764 9.87304 10.6695C10.17 10.6695 10.4453 10.602 10.701 10.4662C10.9528 10.3345 11.1707 10.1463 11.3378 9.9165C11.7017 9.41722 11.9611 8.84964 12.1005 8.24775C12.1725 7.93125 12.228 7.6305 12.2625 7.34775C12.2993 7.0635 12.315 6.795 12.315 6.54C12.315 5.60475 12.018 4.87575 11.4278 4.35375C10.8345 3.83175 10.062 3.57225 9.11179 3.57225C8.03104 3.57225 7.12729 3.92175 6.40354 4.623C5.67904 5.322 5.31454 6.21075 5.31454 7.2885C5.31454 7.52625 5.35054 7.75575 5.41879 7.97775C5.48554 8.199 5.55829 8.37525 5.63704 8.50575C5.71504 8.634 5.78854 8.75925 5.85529 8.87475C5.92279 8.99025 5.95804 9.07275 5.95804 9.12225C5.95804 9.27375 5.91829 9.471 5.83804 9.71475C5.75479 9.9585 5.65654 10.08 5.53804 10.08C5.52679 10.08 5.48029 10.0717 5.39929 10.0545C5.11876 9.97075 4.86542 9.81419 4.66504 9.60075C4.45237 9.37954 4.28453 9.11925 4.17079 8.83425C4.05737 8.55026 3.96903 8.25689 3.90679 7.9575C3.83954 7.67421 3.8063 7.38391 3.80779 7.09275V7.09275Z" fill="#fff"/>
</svg>
