<svg xmlns="http://www.w3.org/2000/svg" width="16" height="11.463" viewBox="0 0 16 11.463">
  <path id="UT" d="M11.138,6.216,6.566,9.081a.5.5,0,0,1-.3.089A.617.617,0,0,1,5.986,9.1a.537.537,0,0,1-.294-.5V2.865a.569.569,0,0,1,.874-.482l4.571,2.865a.516.516,0,0,1,.268.483A.517.517,0,0,1,11.138,6.216Zm4.83-1.828q-.009-.483-.076-1.222A11.239,11.239,0,0,0,15.7,1.844a2.088,2.088,0,0,0-.62-1.1A1.906,1.906,0,0,0,13.968.224,58.516,58.516,0,0,0,7.977,0,58.507,58.507,0,0,0,1.986.224,1.879,1.879,0,0,0,.879.743a2.1,2.1,0,0,0-.616,1.1,10.006,10.006,0,0,0-.2,1.321Q0,3.905-.014,4.388c-.006.322-.009.771-.009,1.343s0,1.022.009,1.345S.018,7.8.062,8.3A11.211,11.211,0,0,0,.254,9.618a2.08,2.08,0,0,0,.62,1.1,1.9,1.9,0,0,0,1.111.519,58.313,58.313,0,0,0,5.991.224,58.516,58.516,0,0,0,5.991-.224,1.882,1.882,0,0,0,1.107-.519,2.1,2.1,0,0,0,.616-1.1,10,10,0,0,0,.2-1.322c.045-.492.07-.9.076-1.221s.009-.771.009-1.345S15.974,4.711,15.968,4.388Z" transform="translate(0.023)"/>
</svg>
