<svg width="24" height="24" viewBox="0 0 24 24" fill="none" xmlns="http://www.w3.org/2000/svg">
<path d="M12.4167 0.301046C6.17744 0.301046 1.10183 5.37678 1.10183 11.6161C1.10183 17.8554 6.17744 22.9311 12.4167 22.9311C18.656 22.9311 23.7316 17.8554 23.7316 11.6161C23.7316 5.37678 18.656 0.301046 12.4167 0.301046ZM12.4167 21.352C7.04853 21.352 2.68068 16.9844 2.68068 11.6161C2.68068 6.24776 7.04853 1.88013 12.4167 1.88013C17.7849 1.88013 22.1528 6.24776 22.1528 11.6161C22.1528 16.9844 17.7849 21.352 12.4167 21.352Z" fill="black" stroke="black" stroke-width="0.334431"/>
<path d="M13.2061 11.2892V4.98902C13.2061 4.55308 12.8528 4.19948 12.4166 4.19948C11.9805 4.19948 11.6272 4.55308 11.6272 4.98902V11.6162C11.6272 11.8256 11.7104 12.0264 11.8585 12.1745L15.367 15.683C15.5211 15.8371 15.7234 15.9143 15.9251 15.9143C16.1269 15.9143 16.3292 15.8371 16.4833 15.683C16.7916 15.3747 16.7916 14.8748 16.4833 14.5664L13.2061 11.2892Z" fill="black" stroke="black" stroke-width="0.334431"/>
</svg>
