<svg xmlns="http://www.w3.org/2000/svg" width="16" height="13.457" viewBox="0 0 16 13.457">
  <path id="TW" d="M15.967.726a6.476,6.476,0,0,1-2.085.825,3.219,3.219,0,0,0-2.4-1.072A3.342,3.342,0,0,0,8.2,3.876a3.535,3.535,0,0,0,.085.773A9.218,9.218,0,0,1,1.521,1.1a3.459,3.459,0,0,0-.445,1.71A3.433,3.433,0,0,0,2.538,5.637,3.225,3.225,0,0,1,1.05,5.209V5.25A3.374,3.374,0,0,0,3.683,8.583,3.165,3.165,0,0,1,2.2,8.642,3.3,3.3,0,0,0,5.267,11a6.449,6.449,0,0,1-4.078,1.454,6.6,6.6,0,0,1-.783-.045,9.07,9.07,0,0,0,5.031,1.526c6.038,0,9.34-5.178,9.34-9.668l-.011-.441a6.691,6.691,0,0,0,1.64-1.756,6.384,6.384,0,0,1-1.885.535A3.394,3.394,0,0,0,15.967.726Z" transform="translate(-0.406 -0.479)"/>
</svg>
