<svg width="21" height="20" viewBox="0 0 21 20" fill="none" xmlns="http://www.w3.org/2000/svg">
<path d="M17.5833 3.64286H15.25V2.625C15.25 1.20339 14.18 0.25 12.5833 0.25H7.91667C6.32 0.25 5.25 1.20339 5.25 2.625V3.64286H2.91667C1.44667 3.64286 0.25 4.86089 0.25 6.35714V16.5357C0.25 18.032 1.44667 19.25 2.91667 19.25H17.5833C19.0533 19.25 20.25 18.032 20.25 16.5357V6.35714C20.25 4.86089 19.0533 3.64286 17.5833 3.64286ZM6.58333 2.625C6.58333 1.70554 7.51667 1.60714 7.91667 1.60714H12.5833C12.9833 1.60714 13.9167 1.70554 13.9167 2.625V3.64286H6.58333V2.625ZM18.9167 16.5357C18.9167 17.2855 18.32 17.8929 17.5833 17.8929H2.91667C2.18 17.8929 1.58333 17.2855 1.58333 16.5357V9.75H4.58333V10.7679C4.58333 11.1411 4.88333 11.4464 5.25 11.4464C5.61667 11.4464 5.91667 11.1411 5.91667 10.7679V9.75H14.5833V10.7679C14.5833 11.1411 14.8833 11.4464 15.25 11.4464C15.6167 11.4464 15.9167 11.1411 15.9167 10.7679V9.75H18.9167V16.5357ZM18.9167 8.39286H1.58333V6.35714C1.58333 5.60732 2.18 5 2.91667 5H17.5833C18.32 5 18.9167 5.60732 18.9167 6.35714V8.39286Z" fill="#FC766A" stroke="#FC766A" stroke-width="0.5"/>
</svg>
